<svg width="1411" height="945" viewBox="0 0 1411 945" fill="none" xmlns="http://www.w3.org/2000/svg">
<g clip-path="url(#clip0_10_273)">
<path d="M1222.34 311.801C1219.53 304.49 1220.75 296.929 1221.27 289.477C1221.58 284.958 1222.61 280.465 1223.23 275.943C1223.29 275.505 1222.81 274.634 1222.57 274.637C1221.87 274.645 1220.76 274.76 1220.53 275.201C1219.7 276.861 1218.81 278.624 1218.57 280.446C1216.58 294.384 1215.8 308.274 1219.8 322.107C1221.95 329.595 1224.13 337.183 1225.19 344.885C1226.85 356.792 1226.22 355.115 1216.92 357.146C1214.03 357.787 1211.07 358.159 1208.25 359.001C1204.86 359.985 1203.33 362.092 1203.57 365.593C1204.15 374.682 1207.45 382.325 1215.89 386.908C1217.08 387.567 1218.53 387.887 1219.45 388.786C1220.23 389.551 1221.1 391.394 1220.73 392.005C1215.97 399.844 1218.64 408.336 1218.4 416.526C1218.35 418.009 1219.11 419.685 1219.9 421.023C1221.99 424.434 1226.18 424.991 1228.74 421.861C1230.73 419.412 1231.94 416.298 1233.56 413.516C1234.22 412.396 1235.3 410.362 1235.78 410.457C1240.24 411.516 1242.65 407.883 1245.9 406.328C1247.74 405.464 1249.21 406.423 1248.89 408.415C1247.92 414.794 1246.55 421.111 1245.82 427.521C1244.69 437.406 1243.93 447.353 1243.07 457.269C1242 469.511 1237.79 480.848 1233.58 492.218C1232.34 495.568 1229.6 497.15 1226.2 497.764C1219.61 498.92 1212.99 500.077 1206.4 501.267C1205.36 501.448 1204.28 501.696 1203.34 502.145C1201.53 503.009 1201.3 506.044 1203.19 506.662C1205.9 507.607 1208.87 507.841 1211.74 508.312C1213.76 508.659 1215.79 508.871 1217.81 509.15C1216.9 511.923 1214.27 511.954 1212.13 512.654C1200.08 516.57 1187.96 520.05 1175.01 519.361C1165.98 518.862 1157.6 522.533 1148.85 523.95C1148.05 524.095 1147.42 525.248 1146.69 525.93C1147.64 526.727 1148.53 528.064 1149.58 528.187C1154.91 528.865 1160.27 529.542 1165.63 529.613C1176.11 529.758 1186.66 530.172 1197.01 527.893C1198.32 527.608 1199.7 527.558 1201.02 527.61C1201.62 527.602 1202.2 528.101 1202.78 528.397C1202.41 528.772 1202.15 529.348 1201.71 529.522C1198.93 530.532 1196.22 531.912 1193.32 532.317C1184.04 533.707 1174.69 534.728 1165.34 535.917C1162.41 536.289 1159.45 536.492 1156.66 537.334C1155.45 537.719 1154.03 539.555 1153.94 540.803C1153.89 541.949 1155.25 543.685 1156.44 544.277C1163.73 547.93 1171.33 550.131 1179.72 549.762C1196.12 548.994 1212.52 548.665 1228.92 548.032C1231.01 547.94 1233.33 547.643 1235.1 546.645C1238.82 544.579 1242.69 544.162 1246.8 544.046C1249.76 543.977 1252.69 543.471 1255.65 543.335C1258.04 543.239 1260.7 542.736 1262.79 543.587C1269.26 546.138 1275.97 546.294 1282.67 546.08C1287.69 545.919 1292.21 546.977 1296.65 549.182C1302.21 551.912 1307.83 554.507 1313.59 556.763C1316.26 557.81 1319.3 558.313 1322.2 558.447C1325.06 558.581 1326.58 555.565 1324.63 553.431C1322.69 551.332 1320.08 549.78 1317.66 548.157C1312.77 544.846 1307.78 541.705 1302.93 538.36C1301.91 537.664 1301.42 536.255 1300.66 535.186C1302.11 534.63 1303.55 534.04 1305.02 533.517C1305.26 533.447 1305.56 533.511 1305.83 533.541C1318.88 537.328 1332.7 534.637 1345.78 538.222C1346.79 538.513 1347.9 538.466 1348.98 538.419C1351.31 538.291 1353.32 537.424 1353.83 534.959C1354.4 532.257 1352.43 530.933 1350.3 530.351C1340.33 527.539 1331.21 523.031 1322.82 517.033C1315.68 511.929 1310.52 505.455 1306.58 497.382C1297.26 478.221 1292.87 457.688 1289.22 437.045C1287.56 427.631 1288.72 417.712 1288.74 408.009C1288.73 407.201 1289.77 406.38 1290.33 405.531C1291.22 406.329 1292.64 406.952 1292.92 407.926C1294.15 412.055 1294.94 416.291 1296.17 420.42C1296.94 422.972 1297.91 425.588 1299.42 427.726C1300.35 429.029 1302.55 430.418 1303.93 430.2C1305.31 429.947 1307 427.939 1307.42 426.418C1308.36 422.802 1308.75 418.991 1309.04 415.247C1309.51 408.807 1309.8 402.335 1309.96 395.898C1310.1 390.674 1308.87 389.139 1303.65 386.977C1300.44 385.634 1297.22 384.224 1294.07 382.711C1291.16 381.297 1290.14 378.142 1291.69 375.395C1292.35 374.275 1293.49 373.42 1294.39 372.432C1301.8 364.359 1301.67 356.174 1294.17 348.379C1293.14 347.313 1292.22 345.774 1291.96 344.362C1291.38 340.933 1290.94 337.4 1291.03 333.929C1291.26 324.527 1291.75 315.087 1292.21 305.682C1292.21 305.143 1292.87 304.663 1293.2 304.154C1293.51 304.588 1294.02 304.953 1294.13 305.423C1296.58 316.074 1302.62 325.166 1306.68 335.125C1308.45 339.483 1308.38 339.619 1304.13 341.96C1303.43 342.339 1302.69 342.651 1301.95 343.031C1300.31 343.825 1298.06 344.29 1298.93 346.806C1299.07 347.175 1301.73 346.773 1303.14 346.453C1304.15 346.239 1305.08 345.554 1306.05 345.105C1311.85 342.307 1313.78 340.161 1310.29 333.127C1305.18 322.778 1299.64 312.534 1296.87 301.179C1296.45 299.331 1295.79 297.554 1295.39 295.705C1294.39 290.663 1294.76 290.491 1299 287.307C1311.49 277.86 1312.91 275.552 1309.46 260.061C1309 257.978 1308.03 256.002 1307.47 253.92C1307.01 252.241 1306 250.063 1306.63 248.842C1307.59 247.012 1313.56 248.154 1315.2 250.223C1316.03 251.291 1316.51 252.667 1317.47 253.531C1318.59 254.596 1320.16 256.026 1321.44 255.944C1325.14 255.664 1328.45 256.029 1332.06 257.165C1335.18 258.139 1337.3 255.082 1338.64 252.303C1339.6 250.371 1339.81 248.583 1343.07 250.33C1347.88 252.934 1349.99 251.865 1352.66 246.813C1353.95 244.406 1354.37 242.885 1357.6 245.239C1361.71 248.188 1364.39 247.314 1366.56 242.706C1367.71 240.233 1368.59 240.459 1370.65 241.007C1372.92 241.62 1375.45 241.961 1377.73 241.63C1379.38 241.375 1381.86 240.065 1382.18 238.781C1383.18 234.76 1383.97 233.268 1388.41 235.877C1391.87 237.925 1395.08 235.832 1396.65 231.871C1397.14 230.652 1397.33 229.269 1397.65 227.985C1398.07 226.295 1398.52 224.605 1398.94 222.916C1400.36 223.606 1401.75 224.399 1403.24 224.92C1408.11 226.681 1412.63 224.236 1413.21 218.838C1413.6 215.195 1412.68 211.399 1412.3 207.697C1412.15 206.082 1412.61 205.066 1414.46 205.347C1416.59 205.658 1418.69 206.274 1420.81 206.282C1425.63 206.326 1427.23 205.027 1426.97 200.145C1426.79 196.811 1428.14 196.593 1430.6 196.631C1431.95 196.649 1433.33 196.633 1434.61 196.348C1439.14 195.385 1440.78 191.558 1437.94 187.886C1436.33 185.816 1433.99 184.294 1431.98 182.532C1430.96 181.635 1429.77 180.739 1430.86 179.21C1433.91 174.996 1431.72 171.552 1429.29 168.212C1427.06 165.172 1424.57 162.338 1422.34 159.299C1420.97 157.428 1421.63 156.342 1424.02 156.415C1427.8 156.505 1431.58 157.067 1435.28 156.82C1440.1 156.527 1441.34 153.649 1438.36 149.742C1436.76 147.639 1434.61 145.912 1432.5 144.287C1430.16 142.461 1427.55 141.044 1425.2 139.219C1424.52 138.721 1423.8 137.214 1424.09 136.705C1427.75 130.058 1423.57 126.772 1418.72 123.73C1418.04 123.3 1417.29 122.939 1416.68 122.441C1416.31 122.142 1416.06 121.606 1415.76 121.171C1416.19 120.897 1416.59 120.555 1417.06 120.415C1418.1 120.099 1419.18 120.019 1420.18 119.67C1425.42 117.89 1426.43 114.677 1422.74 110.745C1420.93 108.846 1418.56 107.358 1416.25 106.038C1413.23 104.322 1409.95 102.98 1406.83 101.399C1405.03 100.477 1404.11 99.3429 1406.69 98.2679C1409.41 97.1575 1409.45 95.0007 1408.48 92.9571C1407.58 91.0474 1406.28 89.1089 1404.65 87.848C1401.28 85.1927 1397.61 82.9452 1394.01 80.6296C1392.45 79.6374 1390.69 78.917 1389.03 78.0608C1390.23 76.8673 1391.46 75.7072 1392.59 74.4472C1394.52 72.3018 1393.99 69.9834 1392.85 67.706C1390.88 63.6864 1387.55 60.9635 1383.85 58.6827C1381.78 57.3933 1382.44 56.6778 1383.81 55.1455C1387.66 50.8883 1387.12 47.1552 1382.17 44.9229C1379.02 43.5116 1375.51 42.9805 1372.1 42.2461C1370 41.7993 1368.92 41.3743 1369.23 38.6417C1370.33 29.1278 1367.97 26.9319 1358.56 28.4924C1355.4 29.0017 1352.42 30.4184 1349.29 31.163C1348.69 31.305 1347.36 30.4448 1347.12 29.8076C1346.67 28.6001 1346.95 27.1143 1346.63 25.8378C1345.15 19.7237 1340.84 17.349 1335.21 20.2122C1332.27 21.7296 1331.45 21.0655 1330.85 18.4111C1330.67 17.6383 1330.56 16.7973 1330.25 16.0598C1328.41 11.7018 1325.77 11.1266 1322.41 14.6704C1320.98 16.1698 1320.56 17.4889 1318.24 15.4612C1314.23 11.9714 1312.91 12.0542 1309.45 15.6329C1308.09 17.0304 1303.99 18.1234 1306.42 20.891C1308.06 22.7582 1310.18 20.1725 1311.71 18.7055C1313.31 17.1705 1314.53 17.7288 1315.63 19.3329C1315.77 19.5671 1315.9 19.8014 1316.08 20.0015C1319.06 23.6496 1321.91 23.4922 1324.63 19.5294C1324.89 19.1219 1325.39 18.88 1325.79 18.5721C1326.17 19.1403 1326.78 19.6722 1326.93 20.3106C1327.53 23.2008 1327.91 26.1611 1328.51 29.0514C1328.91 30.9334 1330.87 31.4493 1332.13 29.9519C1333.52 28.3181 1334.58 26.4188 1335.98 24.7851C1337.94 22.4708 1340.5 22.7101 1341.71 25.492C1342.54 27.3688 1342.87 29.6221 1342.86 31.6774C1342.85 33.8 1342.04 35.8986 1341.79 38.024C1341.67 39.0025 1342.12 40.0752 1342.33 41.0834C1343.21 40.6351 1344.28 40.3529 1344.91 39.6715C1349.34 34.9023 1354.9 32.5114 1361.27 32.2674C1362.61 32.2177 1364.68 33.0691 1365.16 34.0741C1365.68 35.2134 1365.23 37.4088 1364.37 38.4298C1362.88 40.2332 1360.87 41.7057 1358.83 42.9428C1357.03 44.0424 1354.81 44.5067 1352.93 45.5397C1352.2 45.9527 1351.98 47.2019 1351.51 48.0834C1352.39 48.3761 1353.45 49.1722 1354.08 48.8951C1359.15 46.7462 1364.53 46.1094 1369.89 46.2816C1373.29 46.4096 1376.71 47.4136 1380.02 48.4187C1381.81 48.9702 1381.88 51.3951 1380.17 52.0892C1377.95 52.9914 1375.6 53.5921 1373.28 54.226C1371.84 54.6475 1369.51 54.2035 1369.81 56.4236C1369.92 57.3656 1372.12 58.0807 1373.47 58.7385C1374.42 59.1989 1375.6 59.1848 1376.55 59.6452C1378.96 60.7958 1381.5 61.8775 1383.64 63.4019C1385.98 65.0586 1389.24 66.9067 1388.63 70.1482C1387.94 73.9298 1383.98 72.7639 1381.26 73.4027C1379.58 73.7932 1376.86 74.1961 1376.53 75.2444C1375.62 78.0178 1378.56 78.522 1380.36 79.3766C1382.52 80.429 1384.89 81.0412 1387.12 81.9917C1390.1 83.2703 1393.18 84.3455 1395.87 86.0656C1398.89 88.0175 1402.68 89.4549 1403.3 93.7936C1400.17 94.235 1397.05 94.8111 1393.88 95.0846C1391.46 95.3155 1389.03 95.3106 1386.61 95.171C1381.21 94.9318 1377.48 97.9411 1374.12 101.519C1373.58 102.064 1373.9 103.408 1373.85 104.385C1374.82 104.441 1376.28 104.963 1376.71 104.486C1382.93 97.9435 1389.68 98.3351 1397.24 102.154C1402.49 104.82 1408.17 106.538 1413.62 108.866C1415.31 109.587 1416.88 110.781 1418.34 111.909C1418.88 112.307 1419.37 113.278 1419.27 113.886C1419.18 114.426 1418.25 115.212 1417.67 115.253C1413.94 115.432 1410.16 115.342 1406.42 115.487C1405.55 115.498 1404.14 116.188 1404.01 116.796C1403.82 117.607 1404.37 118.914 1405.06 119.546C1406.66 120.942 1408.49 122.167 1410.29 123.291C1412.36 124.581 1414.59 125.565 1416.6 126.889C1418.5 128.146 1421.68 129.052 1420.7 131.86C1420.28 133.078 1417.15 133.553 1415.13 133.948C1409.72 134.989 1405.08 133.023 1400.87 129.805C1399.81 128.975 1398.99 127.839 1397.84 127.145C1396.85 126.551 1395.6 126.397 1394.45 126.04C1394.47 127.32 1394.21 128.637 1394.53 129.846C1395.03 131.66 1396.12 133.264 1396.62 135.077C1397.22 137.395 1397.65 139.782 1397.85 142.171C1397.97 144.023 1395.99 145.091 1394.46 143.997C1392.97 142.937 1391.57 141.606 1390.38 140.205C1389.18 138.77 1388.42 136.96 1387.19 135.56C1386.57 134.859 1385.28 134.201 1384.48 134.379C1383.77 134.522 1382.91 135.813 1382.82 136.656C1382.55 139.051 1382.71 141.509 1382.6 143.902C1382.44 146.936 1381.17 147.592 1378.42 146.142C1376.28 145.022 1374.28 143.597 1372.05 142.781C1369.17 141.737 1367.33 142.702 1366.45 145.644C1365.77 147.943 1365.67 150.437 1365.12 152.768C1364.26 156.417 1362.85 156.872 1359.33 155.499C1354.86 153.732 1350.26 152.237 1345.69 150.742C1345.12 150.547 1344.25 151.163 1343.54 151.407C1343.96 152.278 1344.27 153.285 1344.89 153.986C1345.4 154.552 1346.28 154.744 1347.02 155.072C1351.22 156.808 1355.49 158.408 1359.62 160.279C1364.5 162.445 1367.38 161.366 1368.84 156.329C1369.52 154.03 1369.66 151.569 1370.27 149.203C1370.78 147.209 1372.16 146.789 1373.93 147.88C1375.52 148.872 1377.05 150.066 1378.74 150.821C1383.15 152.723 1386.03 151.307 1386.68 146.515C1387.11 143.411 1387.52 143.608 1389.76 145.3C1391.8 146.892 1394.28 148.244 1396.78 148.821C1399.95 149.558 1401.82 147.683 1402.15 144.378C1402.24 143.298 1402.12 142.222 1402.11 141.144C1401.96 137.709 1403.53 136.444 1406.82 137.348C1408.1 137.703 1409.42 138.328 1410.7 138.279C1420.24 138.098 1426.31 144.697 1433.21 149.703C1433.65 150.034 1433.7 151.112 1433.67 151.819C1433.68 152.055 1432.8 152.436 1432.33 152.442C1428.29 152.423 1424.24 152.235 1420.24 152.316C1416.5 152.394 1415.34 154.193 1416.96 157.51C1418.14 159.888 1419.71 162.126 1421.29 164.298C1423.03 166.669 1425.15 168.8 1426.79 171.273C1427.41 172.209 1427.77 174.159 1427.24 174.839C1426.61 175.622 1424.73 176.048 1423.65 175.758C1421.08 175.081 1418.61 173.931 1416.2 172.814C1414.27 171.928 1412.5 170.601 1410.54 169.782C1407.63 168.57 1405.86 170.04 1406.27 173.303C1406.49 175.153 1407.22 176.964 1407.44 178.814C1407.67 180.463 1405.59 181.936 1404.14 181.111C1401.8 179.791 1399.62 178.2 1397.38 176.71C1393.81 174.327 1389.64 174.612 1388.29 180.12C1386.2 188.635 1384.28 188.994 1377.88 183.107C1375.91 181.278 1374.06 179.278 1371.95 177.618C1370.12 176.124 1368.34 176.853 1367.66 179.152C1367.3 180.436 1367.35 181.851 1366.9 183.103C1366.18 184.998 1366.28 188.029 1363.65 187.993C1362.51 188.007 1361.37 185.392 1360.24 183.957C1359.72 183.323 1359.34 182.586 1358.8 182.02C1357.3 180.454 1355.45 180.577 1354.05 182.447C1352.59 184.384 1351.44 186.554 1349.81 188.292C1347.35 190.882 1345.66 190.935 1342.74 188.78C1338.83 185.929 1335.06 182.908 1331.18 180.023C1330.84 179.758 1329.87 179.769 1329.73 179.973C1329.37 180.584 1328.91 181.634 1329.18 182.001C1331.44 185.006 1333.87 187.875 1336.2 190.846C1337.53 192.515 1338.96 194.148 1339.96 196.023C1341.07 198.166 1339.04 200.683 1336.71 199.97C1333.94 199.093 1331.36 197.608 1328.71 196.325C1326.38 195.207 1325.27 195.962 1325.44 198.621C1325.57 201.012 1325.83 203.435 1325.83 205.827C1325.84 206.433 1325.11 207.351 1324.53 207.527C1323.93 207.702 1322.85 207.344 1322.44 206.844C1321.07 205.209 1319.97 203.336 1318.6 201.701C1316.83 199.566 1315.04 199.587 1313.28 201.764C1312.62 202.581 1312.22 203.63 1311.56 204.48C1309.27 207.405 1308.16 207.384 1306.1 204.545C1305.93 204.311 1305.86 204.042 1305.69 203.876C1304.67 202.776 1303.13 200.605 1302.72 200.811C1300.38 201.951 1301.62 203.958 1302.31 205.6C1305.01 211.835 1308.59 212.702 1314.07 208.325C1315.57 207.128 1316.54 206.375 1317.94 208.211C1318.59 209.046 1319.34 209.879 1320.16 210.543C1324.54 213.894 1328.27 212.94 1329.93 207.53C1330.9 204.351 1332.03 202.889 1335.37 203.928C1336.12 204.155 1336.99 204.043 1337.8 204.034C1342.55 203.842 1343.85 202.985 1344.5 197.923C1344.81 195.595 1345.37 194.578 1347.69 194.348C1351.53 193.965 1353.82 191.277 1355.98 188.455C1356.87 187.265 1357.55 187.627 1358.44 188.661C1364.38 195.531 1366.67 195.1 1370.44 186.531C1370.54 186.294 1370.67 186.023 1370.74 185.786C1371.28 183.657 1372.25 183.14 1374.03 184.736C1376.03 186.532 1377.98 188.463 1380.25 189.851C1385.48 193.091 1389.44 191.561 1391.62 185.74C1391.92 184.996 1391.94 184.153 1392.17 183.376C1393.43 179.149 1393.67 179.079 1397.5 181.493C1399.54 182.783 1401.51 184.343 1403.75 185.125C1408.18 186.656 1410.92 184.77 1411.74 180.145C1412.56 175.351 1412.69 175.181 1416.73 177.66C1422.23 181.031 1427.59 184.639 1432.89 188.282C1433.61 188.779 1434.36 190.253 1434.1 190.829C1433.77 191.574 1432.5 192.263 1431.56 192.375C1427.32 192.931 1423.79 190.749 1420.1 189.142C1419.39 188.847 1418.18 189.299 1417.38 189.747C1417.14 189.884 1417.4 191.33 1417.74 191.899C1419.05 193.939 1420.65 195.773 1421.89 197.847C1422.37 198.65 1422.56 200.332 1422.09 200.775C1421.26 201.56 1419.65 202.287 1418.64 202.029C1415.8 201.322 1413.09 200.04 1410.28 199.096C1407.98 198.315 1406.38 199.446 1406.74 201.766C1407.21 204.658 1408.29 207.475 1408.73 210.401C1409.09 212.722 1409.36 215.245 1408.81 217.475C1407.95 221.091 1404.65 221.871 1402.06 219.206C1400.22 217.308 1398.88 214.898 1397.17 212.863C1396.76 212.363 1395.68 212.072 1395.07 212.248C1394.5 212.423 1393.91 213.306 1393.81 213.948C1393.6 215.534 1393.68 217.183 1393.67 218.767C1393.69 220.654 1393.85 222.538 1393.67 224.427C1393.4 227.294 1393.54 230.998 1390.05 231.68C1387.33 232.251 1386.31 229.029 1385.14 226.988C1383.73 224.545 1382.06 222.847 1379.09 222.208C1376.82 221.696 1374.85 220.069 1372.68 219.05C1372.38 218.885 1371.61 219.265 1371.34 219.605C1371.04 219.945 1370.85 220.722 1371.05 221.023C1371.95 222.327 1373.2 223.423 1374 224.795C1375.75 227.773 1377.5 230.784 1378.82 233.969C1379.52 235.679 1378.22 237.009 1376.37 237.401C1373.75 237.972 1371.55 237.088 1369.84 235.121C1368.44 233.486 1367.37 231.579 1365.87 230.047C1365.09 229.214 1363.7 228.927 1362.62 228.401C1362.4 229.65 1361.91 230.902 1361.95 232.115C1362.12 234.774 1362.66 237.396 1362.79 240.056C1362.8 240.628 1362 241.581 1361.43 241.756C1360.82 241.932 1359.67 241.575 1359.33 241.074C1357.96 239.103 1356.89 236.925 1355.59 234.886C1355.21 234.284 1354.19 233.487 1353.79 233.627C1352.95 233.94 1351.91 234.693 1351.65 235.505C1350.71 238.313 1350.24 241.249 1349.26 244.024C1348.09 247.339 1346.74 247.759 1343.92 245.738C1342.02 244.379 1339.62 243.397 1339.04 240.641C1338.97 240.238 1337.65 239.714 1337.15 239.922C1336.61 240.131 1336.12 241.08 1336.06 241.755C1335.79 244.419 1335.89 247.147 1335.38 249.747C1335.19 250.794 1333.72 251.587 1332.85 252.506C1332.27 251.705 1331.62 250.971 1331.11 250.135C1329.04 246.824 1328.84 246.793 1326.01 249.555C1322.88 252.557 1322.1 252.466 1320.08 249.154C1318.6 246.78 1318.03 244.361 1318.4 241.493C1318.77 238.624 1318.53 235.629 1318.23 232.701C1318.15 231.927 1316.97 231.234 1316.32 230.5C1315.79 231.248 1314.85 231.933 1314.76 232.743C1314.58 234.598 1314.97 236.513 1314.83 238.368C1314.41 243.056 1312.61 244.392 1308.02 243.604C1295.96 241.523 1295.8 241.525 1295.91 228.856C1296.01 217.029 1296.61 205.197 1296.94 193.333C1297.01 190.907 1296.88 188.483 1296.72 186.059C1296.52 182.962 1297.84 180.79 1300.59 179.645C1305.78 177.495 1310.91 174.907 1316.35 173.596C1325.49 171.399 1334.77 169.705 1344.27 170.064C1345.35 170.118 1346.46 170.038 1347.47 169.79C1348.07 169.614 1348.91 168.829 1348.87 168.392C1348.83 167.82 1348.04 166.852 1347.53 166.79C1343.52 166.501 1339.44 165.943 1335.47 166.361C1328 167.191 1320.57 168.526 1313.17 169.961C1310.32 170.534 1307.64 172.015 1304.85 172.957C1302.6 173.725 1300.29 174.393 1298.01 175.094L1297.78 175.568L1298.18 175.227C1299.83 169.614 1303.26 166.171 1309.14 164.821C1314.95 163.471 1320.7 162.325 1326.7 162.894C1328.56 163.074 1330.51 163.185 1332.33 162.928C1333.5 162.779 1334.61 161.89 1335.71 161.304C1334.73 160.676 1333.8 159.542 1332.76 159.453C1327.67 159.042 1322.54 158.968 1317.45 158.658C1316.88 158.631 1316.37 157.929 1315.86 157.531C1316.19 157.123 1316.45 156.581 1316.85 156.374C1324.16 152.951 1331.39 149.328 1338.83 146.241C1343.49 144.299 1347.37 141.693 1349.95 137.383C1350.38 136.671 1349.96 135.496 1349.95 134.553C1349.21 134.663 1348.09 134.508 1347.8 134.949C1343.59 140.828 1337 142.624 1330.87 145.359C1321.56 149.546 1312.03 153.466 1304.37 160.565C1304.17 160.736 1303.97 160.907 1303.73 161.078C1296.02 167.099 1292.88 175.087 1292.83 184.791C1292.75 206.051 1292.33 227.315 1292.04 248.611C1292.03 250.498 1291.65 252.558 1292.31 254.201C1293.56 257.184 1292.73 258.609 1289.88 259.721C1284.38 261.875 1278.99 264.332 1273.49 266.553C1269.03 268.358 1268.96 268.325 1266.29 264.752C1264.51 262.381 1262.96 259.839 1261.15 257.502C1260.05 256.1 1258.82 254.43 1257.26 253.808C1255.06 252.891 1255.93 251.971 1256.62 250.817C1258.8 247.187 1263.33 245.246 1263.98 240.454C1264.07 239.847 1265.55 239.155 1266.45 239.01C1267.77 238.792 1269.15 238.978 1270.47 239.131C1276.98 239.929 1277.63 240.663 1277.77 247.163C1277.82 250.936 1277.76 254.71 1277.9 258.448C1277.91 258.987 1278.83 259.853 1279.37 259.913C1279.88 259.975 1280.81 259.256 1281.01 258.681C1281.33 257.7 1281.35 256.555 1281.34 255.477C1281.3 234.723 1281.25 214.004 1281.17 193.251C1281.16 192.173 1280.98 191.097 1281 190.019C1281.22 177.618 1276.19 167.772 1267.03 159.593C1258 151.547 1249.38 143.025 1242.42 133C1241.67 131.931 1240.58 131.068 1239.52 130.238C1239.25 130.005 1238.44 130.116 1238.14 130.355C1237.81 130.629 1237.48 131.408 1237.62 131.743C1238.31 133.184 1239.14 134.555 1240 135.893C1245.39 144.386 1252.91 151.001 1259.63 158.333C1260.01 158.733 1260.35 159.134 1260.69 159.534L1260.97 159.834L1260.66 159.5C1251.88 157.583 1243.98 153.466 1236.15 149.347C1233.09 147.733 1230.01 145.916 1228.85 142.157C1228.68 141.62 1227.45 140.859 1227.05 140.999C1226.15 141.38 1224.84 142.204 1224.75 142.98C1224.39 146.724 1222.64 149.609 1219.87 151.933C1218.6 153.026 1217.08 152.741 1216.73 151.128C1216.02 148.037 1215.88 144.804 1215.27 141.678C1215.09 140.804 1214.33 139.499 1213.66 139.406C1212.91 139.28 1211.74 140.069 1211.15 140.783C1209.75 142.417 1208.8 144.416 1207.27 145.883C1206.47 146.634 1204.82 146.923 1203.67 146.734C1203.03 146.641 1202.54 145.164 1202.13 144.26C1201.92 143.79 1202.04 143.182 1201.94 142.678C1201.37 140.192 1203.62 136.628 1200.44 135.486C1198.91 134.932 1196.38 137.286 1194.24 138.188C1192.23 139.02 1191.43 137.514 1190.54 136.109C1189.78 134.872 1189.49 132.517 1187.28 133.655C1185.17 134.758 1185.76 136.873 1186.46 138.651C1187.68 141.736 1189.79 143.631 1193.28 142.916C1195.9 142.379 1196.85 142.975 1197.56 145.83C1199.23 152.683 1200.95 153.37 1208 150.659C1210.18 149.824 1211.65 149.402 1211.76 152.4C1211.88 157.115 1214.98 159.605 1218.64 161.549C1220.54 162.537 1222.6 163.288 1224.66 163.87C1233.99 166.421 1243.39 168.836 1252.75 171.353C1259.78 173.257 1266.64 175.466 1272.76 179.74C1275.44 181.595 1276.95 183.666 1277.02 186.966C1277.25 194.511 1277.77 202.051 1277.9 209.563C1277.99 217.109 1277.84 224.657 1277.63 232.173C1277.53 235.678 1277.26 235.614 1273.86 235.519C1266.88 235.366 1259.94 235.314 1252.97 235.464C1251.55 235.481 1250.98 235.319 1250.93 233.972C1250.88 232.625 1250.86 231.278 1250.88 229.93C1250.86 228.245 1251.69 227.326 1253.39 228.013C1256.7 229.355 1259.7 229.219 1262.37 226.694C1264.9 224.272 1265.53 221.131 1265.33 217.798C1265.2 215.913 1265.11 213.993 1264.52 212.248C1263.23 208.457 1261.2 205.247 1256.43 206.112C1254.34 206.507 1253.53 205.775 1253.07 203.861C1252.96 203.39 1251.77 202.73 1251.34 202.87C1250.77 203.046 1250.07 203.93 1250.01 204.571C1249.68 208.314 1249.56 212.089 1249.2 215.833C1249.14 216.508 1248.41 217.123 1247.98 217.802C1247.43 217.269 1246.62 216.841 1246.41 216.203C1245.36 212.88 1244.64 209.419 1243.46 206.131C1241.92 201.736 1240.37 201.282 1236.7 204.527C1234.93 206.097 1233.66 206.449 1231.85 205.022C1227.91 201.868 1223.66 201.683 1218.93 203.323C1216.72 204.09 1214.16 204.053 1211.76 203.913C1206.3 203.574 1201.83 201.673 1199.98 195.866C1199.63 194.826 1198.02 193.194 1197.49 193.369C1195.44 194.067 1196.34 195.909 1196.69 197.354C1196.87 198.127 1197.48 198.861 1197.46 199.636C1197.44 200.883 1197.5 202.634 1196.73 203.249C1193.09 206.19 1193.03 209.526 1194.93 213.311C1195.72 214.918 1195.09 215.869 1193.58 216.292C1192.04 216.714 1191.02 216.322 1191 214.402C1191 212.043 1189.62 211.723 1187.81 212.553C1186.84 213.002 1186 213.754 1185.03 214.203C1183.05 215.102 1181.76 213.871 1181.44 212.224C1180.94 209.872 1181.14 207.41 1180.81 205.022C1180.55 202.869 1178.62 201.881 1176.64 202.983C1174.77 204.015 1173.14 205.585 1171.19 206.416C1170.26 206.832 1168.6 206.38 1167.68 205.75C1166.43 204.923 1166.51 203.608 1167.54 202.282C1172.85 195.38 1175.07 195.016 1181.93 200.224C1183.57 201.452 1184.95 204.13 1187.29 202.755C1189.73 201.311 1187.95 198.873 1187.52 196.89C1187.13 195.042 1186.77 193.193 1186.14 191.415C1184.57 187.053 1183.99 182.782 1184.84 178.055C1186.26 170.323 1184.49 162.965 1179.7 156.655C1177.61 153.917 1175.15 150.981 1172.2 149.466C1153.49 139.817 1129.87 145.151 1122.43 168.487C1121.23 172.207 1121.55 176.448 1121.39 180.459C1121.32 182.785 1120.9 184.643 1118.66 185.849C1115.71 187.433 1112.91 186.489 1112.7 183.224C1112.53 180.362 1113.07 177.391 1113.64 174.554C1113.96 173.034 1115.06 171.674 1115.61 170.151C1116.3 168.323 1115.2 166.888 1113.25 167.046C1112.17 167.126 1111.13 167.576 1110.09 167.656C1104.87 167.987 1101.74 165.026 1102.75 159.826C1103.39 156.483 1103.73 154.087 1100.11 152.546C1099.8 152.415 1099.81 150.494 1100.28 149.882C1104.06 144.919 1109.73 142.931 1115.26 140.844C1116.24 140.462 1117.55 140.85 1118.42 140.368C1119.46 139.75 1120.69 138.623 1120.78 137.645C1120.84 136.937 1119.28 135.911 1118.26 135.283C1117.65 134.92 1116.64 135.167 1115.9 134.907C1115.53 134.776 1115.08 134.175 1115.08 133.771C1115.07 133.367 1115.47 132.857 1115.84 132.515C1116.24 132.174 1116.77 131.965 1117.24 131.758C1119.19 131.027 1121.13 130.296 1123.08 129.599C1122.43 126.271 1119.1 126.412 1116.99 124.921C1114.14 122.934 1111.15 121.082 1108.43 118.925C1106.49 117.364 1106.88 115.608 1109.39 114.769C1112.45 113.756 1115.68 113.347 1118.73 112.368C1119.77 112.018 1120.84 110.961 1121.33 109.945C1121.53 109.504 1120.27 108.374 1119.62 107.573C1119.45 107.373 1119.11 107.377 1118.91 107.211C1116.53 105.723 1113.16 105.359 1112.71 101.692C1115.43 100.783 1118.07 99.3704 1120.87 99.1014C1124.57 98.7205 1128.35 99.2149 1132.09 99.3726C1134.21 99.4485 1136.34 99.7264 1138.46 99.6675C1138.73 99.6643 1139.38 97.433 1139.14 97.301C1137.64 96.2744 1135.98 95.4517 1134.29 94.7306C1132.33 93.9453 1130.1 93.635 1128.3 92.6119C1125.08 90.7298 1124.9 87.4976 1128.08 85.5058C1130.52 83.9607 1133.37 82.6129 1136.2 82.2087C1139.86 81.6935 1143.71 82.0522 1147.42 82.3113C1149.27 82.4578 1151.03 83.279 1151.56 85.53C1152.49 89.562 1155.43 90.3357 1158.96 89.9569C1161.59 89.6562 1162.64 90.789 1163.38 93.3407C1165.14 99.1821 1167.54 100.198 1172.76 97.5419C1177.19 95.2995 1180.51 91.7561 1183.09 87.5478C1183.39 87.0389 1183.31 85.8607 1182.93 85.4609C1182.56 85.0947 1181.34 85.1091 1180.88 85.4853C1179.41 86.6482 1178.14 88.0445 1176.71 89.3081C1175.11 90.7421 1173.54 92.2432 1171.74 93.4101C1170.97 93.9246 1169.42 94.1113 1168.78 93.6809C1168.1 93.2173 1167.78 91.7388 1167.9 90.794C1168.11 88.9384 1168.8 87.1784 1169.18 85.3208C1169.76 82.7198 1168.8 81.754 1166.32 82.3563C1162.12 83.3495 1162.15 83.3155 1159.1 79.0056C1158.62 78.3038 1157.44 78.0483 1156.53 77.7559C1155.11 77.2674 1153.19 77.3575 1152.27 76.4251C1151.11 75.226 1150.17 73.2493 1150.22 71.6653C1150.24 70.8227 1152.65 69.5138 1154.04 69.4637C1157.77 69.2845 1161.52 69.5771 1165.26 69.8021C1166.84 69.9181 1168.4 70.405 1169.98 70.5883C1170.42 70.6505 1171.23 70.2029 1171.29 69.8989C1171.38 69.1903 1171.37 68.1797 1170.96 67.7803C1170.01 66.8483 1168.69 66.3587 1167.73 65.4604C1166.58 64.396 1165.35 63.2314 1164.66 61.8582C1163 58.5088 1164.59 56.1315 1168.46 56.0518C1173.42 55.9593 1178.01 56.5787 1181.86 60.4074C1183.9 62.4383 1186.62 63.8885 1189.19 65.3403C1190.18 65.9013 1191.59 65.6487 1192.84 65.735C1192.35 64.6626 1192.13 63.0818 1191.32 62.5861C1187.52 60.3402 1184.88 57.0361 1182.18 53.6991C1179.58 50.4619 1179.72 47.7312 1183.24 45.9712C1185.31 44.9358 1187.83 44.2321 1190.16 44.2719C1194.71 44.3527 1199.23 45.1076 1203.75 45.4582C1204.76 45.5473 1205.8 45.1306 1206.81 44.9502C1206.63 44.009 1206.58 42.9987 1206.27 42.0927C1205.99 41.3548 1205.28 40.7906 1205 40.0527C1204.02 37.4364 1205.08 35.5373 1207.81 35.707C1212.09 35.993 1216.32 36.9534 1220.6 37.2732C1223.36 37.4762 1225.96 40.3765 1228.89 37.8486C1227.66 35.8755 1226.32 33.9374 1225.22 31.8953C1224.6 30.7572 1224.14 29.4149 1223.96 28.1368C1223.63 25.9845 1224.38 24.1562 1226.81 24.2622C1232.31 24.5001 1238.43 23.5178 1241.4 30.187C1241.61 30.6225 1243.06 31.0769 1243.36 30.8375C1244.1 30.2561 1245.03 29.1331 1244.88 28.3936C1244.09 24.2253 1241.1 21.8352 1237.25 21.005C1233.33 20.1418 1229.25 19.7859 1225.24 19.7661C1220.93 19.7499 1219.73 21.2803 1219.52 25.7975C1219.44 27.8872 1219.43 29.9761 1219.42 32.0313C1217.03 31.9587 1214.67 31.9531 1212.28 31.8131C1210.93 31.728 1209.61 31.3731 1208.3 31.254C1202.9 30.779 1201.9 31.2963 1200.55 36.8376C1199.9 39.5405 1198.73 40.3293 1196.14 40.1916C1193.17 40.0247 1190.21 39.9588 1187.28 40.1957C1181.49 40.6687 1176.73 42.8141 1175.49 49.2301C1175.02 51.6952 1173.51 52.1175 1171.45 52.0408C1169.83 51.959 1168.21 51.8772 1166.6 51.93C1161.41 52.1264 1159.98 53.5922 1159.91 58.8151C1159.92 60.1289 1160.48 61.5036 1160.29 62.7861C1160.16 63.5625 1159.17 64.6186 1158.43 64.7622C1156.61 65.1543 1154.66 64.9756 1152.81 65.1997C1145.71 66.0589 1144.28 68.1982 1146.12 75.3189C1146.61 77.1998 1146.25 77.9116 1144.36 77.4624C1139.12 76.1769 1134.18 77.3475 1129.35 79.1904C1122.71 81.7287 1121.03 84.3428 1122.19 91.5389C1122.66 94.4644 1121.59 94.5447 1119.43 94.8061C1116.77 95.1072 1114.08 95.5434 1111.57 96.3819C1107.74 97.6739 1106.76 100.381 1108.46 103.999C1108.8 104.703 1109.32 105.37 1109.9 105.936C1111.6 107.668 1111.95 108.607 1109.1 109.786C1100.62 113.324 1100.09 117.137 1106.93 122.986C1107.95 123.849 1109.07 124.611 1110.16 125.44C1112.02 126.811 1112.22 128.572 1110.76 130.723C1110.33 131.368 1109.53 132.22 1109.68 132.791C1111.16 138.837 1105.95 139.405 1102.71 141.835C1099.97 143.889 1097.51 146.445 1095.45 149.199C1093.39 151.986 1093.6 155.218 1095.56 158.294C1096.83 160.3 1098 162.409 1098.87 164.622C1100.01 167.506 1101.63 170.216 1104.54 171.091C1108.7 172.356 1109.03 175.013 1108.5 178.523C1108.31 179.84 1108.46 181.219 1108.58 182.565C1109.3 189.396 1112.23 191.989 1118.71 190.396C1121.97 189.616 1123.56 189.934 1124.98 192.95C1128.54 200.589 1135.76 204.041 1142.74 207.462C1147.01 209.567 1151.81 208.567 1156.21 207.403C1159.87 206.416 1162.77 206.213 1165.6 209.448C1167.79 211.982 1171.02 211.438 1173.9 210.292C1175.88 209.494 1177.1 209.917 1177.12 212.141C1177.15 214.027 1179.17 217.103 1175.87 217.512C1167.5 218.488 1159.17 221.147 1150.63 216.7C1143.14 212.78 1136.86 214.573 1131.24 221.176C1128.92 223.899 1126.37 225.041 1122.97 225.384C1116.01 226.107 1109.04 226.796 1102.22 228.259C1099.9 228.758 1094.76 227.168 1095.7 233.019C1095.78 233.389 1094.17 234.048 1093.33 234.597C1086.15 239.534 1083.96 245.22 1086.6 252.567C1086.95 253.574 1087.07 254.684 1087.35 255.725C1089.98 264.521 1092.9 266.541 1102.02 265.49C1108.14 264.777 1114.34 264.333 1120.25 262.814C1127.23 261.012 1133.94 258.103 1140.78 255.73C1144.78 254.369 1144.81 254.402 1146.54 258.492C1149.46 265.432 1152.34 272.405 1155.32 279.344C1156.25 281.556 1157.22 283.836 1158.53 285.842C1161.65 290.69 1166.08 292.322 1171.73 291.278C1178.49 290.018 1184.17 286.278 1190.23 283.41C1192.65 282.27 1195.02 281.096 1197.44 279.955C1199.42 282.391 1197.12 284.912 1197.63 287.466C1198.78 293.517 1199.39 299.709 1200.81 305.689C1202.94 314.862 1205.37 323.963 1208 332.995C1209.48 338.098 1209.37 343.086 1208.56 348.183C1208.27 350.039 1208.16 351.927 1208.12 353.814C1208.12 354.252 1208.57 354.719 1208.81 355.187C1209.48 354.809 1210.48 354.595 1210.75 354.019C1211.31 352.833 1211.53 351.483 1211.81 350.165C1214.29 339.827 1212.08 329.847 1209.26 319.941C1206.98 311.916 1204.73 303.891 1202.51 295.865C1199.38 284.615 1203.88 275.297 1210.35 266.696C1211.61 265.03 1212.38 261.618 1215.15 262.428C1216.2 262.752 1216.31 266.188 1216.8 268.237C1217.05 269.278 1216.87 270.662 1217.48 271.295C1218.2 272.027 1219.69 272.583 1220.69 272.402C1221.91 272.219 1222.97 271.196 1224.11 270.542C1224.94 272.149 1226.34 273.75 1226.49 275.433C1226.84 279.168 1226.88 282.975 1226.52 286.719C1225.75 295.286 1225.31 303.916 1222.28 312.105C1224.75 315.883 1227.19 319.661 1229.76 323.37C1230.27 324.105 1231.15 324.768 1232 324.994C1232.37 325.091 1233.27 324.137 1233.6 323.459C1235.21 320.105 1236.07 316.119 1238.43 313.429C1242.12 309.208 1242.14 304.76 1241.2 299.92C1240.59 296.76 1239.78 293.67 1239.07 290.546C1238.04 286.111 1236.91 281.71 1236.01 277.24C1235.58 274.988 1236.53 272.854 1238.72 272.121C1239.12 271.981 1240.94 274.655 1241.43 276.232C1242.2 278.649 1241.22 281.794 1244.64 282.899C1244.94 279.964 1245.18 277.03 1245.51 274.095C1246.74 263.973 1248.03 253.85 1249.26 243.729C1249.51 241.839 1250.4 240.615 1252.36 240.997C1254.12 241.313 1255.78 242.102 1257.5 242.687C1256.71 244.011 1255.92 245.334 1255.06 246.625C1254.63 247.304 1253.99 247.85 1253.53 248.496C1250.34 252.711 1250.18 252.848 1253.74 257.354C1255.55 259.657 1255.53 261.308 1254.05 263.752C1251.67 267.587 1249.69 271.721 1247.79 275.82C1247.46 276.531 1248.28 277.768 1248.56 278.742C1249.37 278.227 1250.47 277.877 1250.94 277.13C1251.9 275.536 1252.31 273.577 1253.37 272.048C1255.32 269.195 1257.55 266.574 1259.67 263.853C1262.07 266.621 1264.49 269.355 1266.88 272.123C1267.05 272.29 1267.02 272.627 1267.09 272.896C1270.44 273.799 1272.6 271.179 1275.25 270.137C1281.02 267.879 1286.75 265.587 1292.38 263.061C1297.74 260.639 1298.72 257.932 1297 252.056C1296.72 251.049 1296.2 250.011 1296.19 249C1296.18 248.023 1296.67 247.04 1296.93 246.06C1297.84 246.487 1299.09 246.708 1299.57 247.41C1304.23 254.194 1307.19 261.672 1307.32 269.959C1307.34 271.98 1306.8 274.412 1305.6 275.942C1302.42 279.922 1298.92 283.703 1293.82 285.414C1291.04 286.357 1288.26 287.468 1285.57 288.646C1277.46 292.178 1278.59 293.883 1274.3 284.13C1272.47 279.974 1271.44 275.405 1267.23 272.726C1265.37 272.613 1263.55 272.331 1261.7 272.387C1259.17 272.451 1256.72 273.389 1256.11 276.024C1255.38 279.2 1253.3 280.168 1250.58 280.841C1248.53 281.337 1246.52 282.068 1244.5 282.698C1240.96 288.097 1241.22 293.283 1245.23 298.356C1247.07 300.693 1249.84 300.66 1252.31 301.574C1254.47 302.357 1255.92 305.001 1257.76 306.731C1258.1 307.03 1258.77 306.989 1259.31 307.05C1261.34 307.261 1263.36 307.473 1265.38 307.685C1265.04 309.778 1264.62 311.905 1264.41 314.031C1264.14 316.695 1264.31 319.456 1263.87 322.089C1262.96 327.928 1261.95 333.735 1260.67 339.512C1260.16 341.809 1258.77 343.88 1257.79 346.048C1257.32 343.898 1256.79 341.748 1256.4 339.596C1254.59 329.274 1252.85 318.918 1251.04 308.596C1250.86 307.554 1250.44 306.515 1249.99 305.543C1249.82 305.175 1249.21 304.744 1248.84 304.782C1248.44 304.787 1247.73 305.3 1247.7 305.638C1247.56 307.223 1247.41 308.842 1247.63 310.423C1249.05 319.738 1250.61 329.018 1252.07 338.3C1252.69 342.268 1251.9 344.029 1248.58 345.383C1243.45 347.465 1238.06 347.428 1232.69 346.447C1230.23 346.005 1229.23 344.197 1228.73 341.912C1227.77 337.443 1226.64 333.009 1225.71 328.539C1224.56 323.028 1223.52 317.481 1222.44 311.968L1222.34 311.801ZM1317.19 553.419C1316.1 552.893 1315.05 552.366 1313.97 551.84C1308.76 549.813 1303.41 547.99 1298.33 545.692C1293.59 543.525 1288.79 542.2 1283.53 542.465C1277.31 542.774 1271.17 542.241 1265.18 540.358C1263.19 539.708 1260.96 539.431 1258.84 539.49C1253.45 539.689 1248.1 540.055 1242.75 540.658C1240.39 540.922 1237.91 541.49 1235.86 542.626C1232.58 544.485 1229.25 544.592 1225.71 544.465C1222.21 544.372 1218.7 544.548 1215.23 544.623C1201.8 545.019 1188.36 545.414 1174.92 545.843C1169.94 546.004 1165.31 544.846 1161.03 542.269C1160.62 542.038 1160.18 541.47 1160.21 541.099C1160.27 540.694 1160.77 540.115 1161.21 540.009C1162.21 539.728 1163.29 539.614 1164.37 539.5C1173.18 538.62 1182.07 538.009 1190.85 536.827C1200.71 535.497 1209.49 531.788 1215.96 523.76C1217.49 521.889 1219.36 520.283 1221.12 518.611C1225.86 514.108 1229.5 508.876 1232.6 503.112C1237.57 493.788 1240.96 483.842 1243.6 473.704C1245.44 466.742 1246.26 459.421 1246.82 452.204C1248.04 436.355 1249.98 420.598 1253.1 404.996C1253.79 401.416 1255.16 400.288 1258.7 400.651C1266.46 401.468 1274.22 402.42 1281.92 403.575C1285.46 404.106 1285.4 404.579 1285.35 408.588C1285.23 418.293 1284 428.179 1285.52 437.628C1288.94 458.88 1293.74 479.846 1303.11 499.579C1307.56 508.96 1313.68 516.434 1322.4 521.721C1328.14 525.224 1334.2 528.184 1340.07 531.416C1340.68 531.746 1341.13 532.448 1341.64 533.015C1341.1 533.021 1340.56 533.095 1340.02 533.068C1331.46 532.529 1322.83 532.295 1314.3 531.251C1309.2 530.637 1304.26 529.113 1299.24 531.227C1297.36 532.025 1296.14 531.197 1295.27 529.59C1294.76 528.653 1294.58 527.509 1293.96 526.674C1293.58 526.14 1292.6 525.579 1292.1 525.72C1291.56 525.861 1290.83 526.981 1290.97 527.451C1291.74 529.969 1292.15 532.929 1293.79 534.762C1297.34 538.763 1301.42 542.286 1305.51 545.775C1308.13 548.001 1311.11 549.852 1313.9 551.841C1314.95 552.401 1316 552.927 1317.09 553.487C1317.49 553.752 1317.87 554.017 1318.28 554.282C1317.9 553.983 1317.56 553.65 1317.19 553.351L1317.19 553.419ZM1261.71 369.788C1263.71 368.517 1265.92 367.447 1267.73 365.909C1274.46 360.236 1282.17 356.91 1290.92 356.032C1294.76 355.649 1296.46 356.741 1295.96 360.217C1295.58 362.782 1294.71 365.555 1293.22 367.594C1289.77 372.285 1284.54 374.84 1279.17 376.588C1275.11 377.916 1271.51 375.062 1267.95 373.352C1265.81 372.333 1263.88 370.874 1261.84 369.618C1259.81 369.237 1257.79 368.857 1255.76 368.41C1255.29 368.314 1254.85 367.949 1254.41 367.684C1254.97 367.307 1255.54 366.761 1256.14 366.653C1257.56 366.367 1259.23 365.808 1260.39 366.299C1261.16 366.627 1261.29 368.58 1261.71 369.788ZM1217.96 229.579L1217.83 229.75C1220.13 225.174 1220.38 220.555 1218.34 215.762C1217.64 214.085 1217.99 211.992 1215.72 211.177C1213.35 210.329 1211.12 209.581 1209.23 212.164C1208.93 212.538 1207.62 212.688 1207.28 212.389C1206.8 211.923 1206.59 210.982 1206.55 210.208C1206.46 208.625 1207.29 207.504 1208.91 207.855C1212.93 208.717 1217.01 209.174 1220.8 207.411C1225.19 205.371 1228.5 206.106 1231.27 210.083C1232.75 212.188 1234.17 212.508 1236.43 210.493C1239.07 208.171 1239.68 208.534 1240.66 211.858C1241.96 216.189 1242.49 220.899 1246.4 224.02C1246.77 224.318 1246.98 224.922 1247.12 225.426C1249.4 232.878 1246.28 242.753 1239.87 247.075C1234.89 250.435 1229.28 252.355 1223.15 251.922C1217.52 251.518 1213.94 248.09 1211.12 243.541C1210.71 242.906 1209.39 242.619 1208.48 242.629C1208.11 242.634 1207.55 243.887 1207.49 244.595C1207.35 246.585 1208.89 248.756 1206.28 250.337C1197.32 255.767 1188.39 261.23 1178.42 264.616C1175.94 265.454 1174.11 265.173 1173.21 262.657C1171.61 258.094 1170.17 253.495 1168.87 248.861C1168.69 248.189 1169.52 246.764 1170.22 246.385C1172.09 245.386 1174.18 244.721 1176.19 244.024C1190.11 239.209 1204.04 234.428 1217.96 229.647L1217.96 229.579ZM1125.05 176.272C1124.72 167.988 1128.84 160.965 1135.24 155.094C1147.64 143.727 1174.08 145.806 1180.06 166.758C1181.21 170.787 1181.44 175.299 1180.95 179.482C1180.49 183.362 1180.63 186.898 1181.82 190.523C1182.2 191.697 1182.09 193.013 1182.17 194.292C1180.92 194.071 1179.64 193.884 1178.39 193.562C1177.61 193.369 1176.9 192.973 1176.18 192.544C1173.67 191.091 1171.89 191.685 1169.9 193.865C1167.24 196.794 1164.31 199.726 1160.93 201.72C1155.94 204.643 1150.23 205.621 1144.58 203.835C1132.64 200.102 1125.14 189.612 1125.05 176.272ZM1244.52 360.828C1244.52 360.828 1244.52 360.659 1244.52 360.592C1245.86 360.576 1247.21 360.56 1248.56 360.544C1250.65 360.486 1250.56 361.699 1250.11 363.153C1249.59 364.81 1249 366.165 1246.8 365.45C1243.48 364.377 1240.17 363.305 1236.82 362.435C1235.71 362.145 1234.4 362.599 1233.19 362.714C1234.01 363.681 1234.63 365.055 1235.65 365.582C1238.02 366.801 1240.56 367.68 1243.09 368.526C1249.45 370.674 1256.11 372.145 1262.14 374.937C1271.66 379.373 1281.41 383.064 1291.41 386.146C1298.08 388.189 1298.46 389.599 1295.58 396.102C1295.48 396.339 1295.38 396.61 1295.28 396.847C1293.05 401.456 1292.07 401.939 1287.11 400.819C1283.97 400.115 1280.85 398.905 1277.68 398.741C1262.28 397.879 1247.41 394.383 1232.87 389.536C1227.56 387.78 1222.28 385.653 1217.29 383.05C1211.09 379.789 1208.09 374.265 1208.21 367.155C1208.25 364.83 1208.83 362.835 1211.56 362.466C1220.37 361.317 1228.91 356.869 1238.15 360.297C1240.07 361.015 1242.39 360.617 1244.55 360.76L1244.52 360.828ZM1177.25 231.68C1177.48 239.157 1177.48 239.224 1172.01 241.041C1168.18 242.299 1164.32 243.39 1160.46 244.514C1156.1 245.778 1151.63 246.876 1147.33 248.308C1139.45 250.929 1131.66 253.817 1123.78 256.505C1120.32 257.692 1119.98 257.426 1120.14 253.92C1120.49 246.504 1119.97 239.402 1114.88 233.398C1113.65 231.964 1114.35 231.012 1115.96 230.589C1117.5 230.166 1119.08 229.709 1120.66 229.488C1123.96 229.011 1126.75 228.776 1128.22 233.206C1129.55 237.3 1133.8 238.26 1137.67 237.642C1140.73 237.134 1143.81 235.783 1146.49 234.168C1148.7 232.828 1150.51 232.166 1153.18 232.539C1159.52 233.407 1160.35 232.757 1160.35 226.625C1160.31 223.593 1161.62 222.87 1164.04 222.707C1165.66 222.586 1167.24 222.366 1168.86 222.313C1173.1 222.262 1176.02 224.384 1176.98 228.483C1177.34 230.028 1177.25 231.68 1177.26 231.714L1177.25 231.68ZM1167.92 288.089C1165.84 286.496 1163.03 285.35 1161.97 283.274C1158.48 276.611 1155.64 269.637 1152.66 262.732C1151.9 260.989 1152.72 259.699 1154.53 258.936C1157.48 257.688 1160.47 256.44 1163.28 254.891C1165.15 253.891 1166.13 253.947 1166.8 256.095C1167.67 258.915 1168.45 261.803 1169.73 264.45C1172.11 269.408 1174.31 270.527 1179.44 268.377C1187.09 265.153 1194.52 261.325 1201.96 257.632C1204.6 256.32 1207.01 254.574 1209.62 253.161C1210.19 252.851 1211.1 253.144 1211.87 253.168C1211.88 253.876 1212.03 254.682 1211.8 255.325C1208.3 263.924 1203.5 271.494 1194.93 275.976C1189.91 278.596 1185.06 281.484 1179.93 283.87C1176.31 285.563 1172.38 286.587 1167.99 288.088L1167.92 288.089ZM1277.37 332.811C1277.14 332.814 1276.93 332.816 1276.7 332.785C1277.35 322.569 1277.97 312.387 1278.59 302.171C1278.96 296.103 1280.32 294.402 1286.4 292.881C1286.97 292.739 1288.23 293.6 1288.5 294.271C1288.89 295.21 1288.53 296.393 1288.61 297.47C1289.35 314.408 1285.91 331.295 1287.9 348.285C1288.12 350.169 1287.26 351.358 1285.65 352.085C1283.94 352.847 1282.24 353.709 1280.46 354.303C1277.54 355.281 1276.45 354.485 1276.55 351.351C1276.74 345.183 1277.08 338.98 1277.37 332.811ZM1209.8 217.143C1213.4 216.932 1214.41 217.392 1215.35 219.537C1216.56 222.352 1216.02 224.717 1213.34 226.467C1211.57 227.634 1209.59 228.533 1207.58 229.265C1202.32 231.214 1196.98 232.996 1191.68 234.844C1189.4 235.646 1187.12 236.482 1184.8 237.149C1182.05 237.957 1181.37 237.46 1181.13 234.801C1180.82 231.335 1180.81 227.831 1180.17 224.469C1179.66 221.814 1180.73 220.858 1182.96 220.899C1191.38 221.136 1199.48 219.153 1207.61 217.439C1208.38 217.261 1209.19 217.218 1209.8 217.143ZM1273.48 299.705C1273.85 300.004 1274.53 300.299 1274.56 300.636C1274.72 302.217 1274.8 303.833 1274.72 305.452C1274.11 318.868 1273.09 332.289 1273.05 345.732C1273.02 351.999 1272.16 356.457 1265.41 358.188C1263.13 358.787 1261.09 360.294 1258.91 361.331C1258.48 361.538 1257.5 361.516 1257.4 361.315C1257.08 360.678 1256.84 359.839 1257.03 359.197C1257.39 357.912 1258.08 356.725 1258.61 355.506C1262.38 346.6 1266.21 337.694 1266.97 327.847C1267.59 320.091 1268.37 312.366 1269.09 304.643C1269.23 302.855 1271.93 299.791 1273.44 299.739L1273.48 299.705ZM1273.34 175.151C1272.87 174.921 1272.36 174.758 1271.89 174.494C1265.4 170.461 1258.14 168.593 1250.87 166.793C1242.56 164.735 1234.25 162.61 1226 160.384C1219.78 158.705 1219.78 158.504 1223.87 153.873C1224.77 152.852 1225.6 151.831 1226.39 150.743C1227.62 149.112 1228.83 149.266 1230.5 150.223C1235.14 152.897 1239.76 155.638 1244.6 157.838C1251.41 160.958 1258.38 163.739 1265.39 166.385C1269.15 167.789 1271.67 170.353 1273.73 173.529C1273.97 173.897 1273.98 174.436 1274.02 174.907C1274.02 174.941 1273.58 175.047 1273.34 175.117L1273.34 175.151ZM1106.48 249.164C1106.75 249.262 1106.98 249.36 1107.25 249.424C1106.04 252.605 1105.31 256.118 1103.49 258.869C1100.58 263.317 1094.78 262.745 1092.5 257.988C1091.25 255.375 1090.78 252.382 1089.74 249.632C1087.62 244.065 1093.24 238.506 1097.97 236.732C1101.06 235.55 1105.84 241.389 1106.41 246.739C1106.49 247.547 1106.43 248.356 1106.44 249.131L1106.48 249.164ZM1237.98 303.765C1237.78 306.598 1235.12 312.593 1232.45 315.084C1232.09 315.425 1230.77 315.474 1230.5 315.107C1228.62 312.872 1226.67 310.705 1227.41 307.327C1229.42 297.904 1230.49 288.39 1230.27 278.723C1230.26 278.218 1230.49 277.744 1230.59 277.237C1231 277.535 1231.64 277.764 1231.71 278.133C1233.83 286.666 1235.89 295.199 1237.98 303.765ZM1144.52 218.795C1148.46 218.242 1151.06 221.513 1153.85 224.377C1154.71 225.243 1155.19 226.484 1155.85 227.554C1154.67 227.703 1153.29 228.326 1152.35 227.933C1149.67 226.819 1147.76 227.785 1145.79 229.392C1144.16 230.725 1142.42 232.195 1140.48 232.858C1138.57 233.487 1136.28 233.582 1134.28 233.201C1131.75 232.692 1130.43 229.676 1131.32 227.542C1133.22 222.938 1139.1 218.825 1144.56 218.828L1144.52 218.795ZM1305.75 407.47C1305.33 411.518 1304.69 417.388 1304.02 423.225C1303.96 423.663 1303.56 424.274 1303.22 424.379C1302.82 424.485 1302.04 424.225 1301.87 423.89C1298.29 417.397 1297.86 410.091 1296.6 403.031C1296.53 402.593 1296.93 402.016 1297.16 401.542C1298.37 398.866 1299.52 396.123 1300.87 393.513C1301.3 392.699 1302.73 391.57 1303.07 391.768C1304.09 392.329 1305.42 393.391 1305.49 394.368C1305.81 398.103 1305.68 401.878 1305.75 407.47ZM1264.62 299.81C1263.78 300.595 1262.69 302.259 1261.21 302.748C1259.57 303.307 1258.07 301.977 1258.05 300.057C1257.94 296.217 1256.01 295.499 1252.75 296.582C1252.25 296.757 1251.71 296.83 1251.17 296.87C1248.18 297.007 1246.91 295.068 1246.2 292.55C1245.57 290.266 1245.88 288.376 1248.43 287.267C1250.11 286.506 1251.54 285.074 1253.25 284.481C1254.36 284.098 1256.28 284.243 1256.96 284.976C1260.68 288.908 1263.9 293.182 1264.62 299.777L1264.62 299.81ZM1176.71 526.517C1176.71 526.281 1176.67 526.079 1176.64 525.844C1172.9 525.888 1169.13 525.933 1165.39 525.978C1164.61 525.987 1163.8 525.761 1163.02 525.669C1163.66 525.324 1164.26 524.778 1164.93 524.635C1168.09 524.092 1171.28 523.145 1174.42 523.31C1187.8 523.96 1200.47 520.878 1213.02 516.652C1214.56 516.129 1216.31 516.175 1217.99 515.953C1217 517.178 1216.17 518.704 1214.9 519.527C1212.7 520.935 1210.29 522.513 1207.83 522.879C1197.51 524.35 1187.11 525.349 1176.75 526.55L1176.71 526.517ZM1116.34 248.71C1116.52 254.941 1115.84 257.206 1112.53 259.84C1111.63 260.591 1110.12 260.609 1108.91 260.961C1108.89 259.95 1108.58 258.876 1108.84 257.929C1111.19 249.209 1111.4 240.952 1103.87 234.303C1103.57 234.037 1103.39 233.13 1103.52 233.027C1104.12 232.582 1104.89 232 1105.53 232.06C1106.51 232.183 1107.53 232.643 1108.37 233.205C1113.88 237.015 1116.37 242.376 1116.34 248.676L1116.34 248.71ZM1221.66 407.694C1221.66 407.694 1221.96 407.69 1222.1 407.689C1222.06 404.488 1221.89 401.324 1222.05 398.121C1222.11 397.278 1223.08 396.391 1223.81 395.775C1223.94 395.639 1225.17 396.433 1225.58 397.001C1227.43 399.573 1229.28 402.179 1230.86 404.923C1231.44 405.927 1231.73 407.541 1231.34 408.556C1230.13 411.771 1228.62 414.888 1227 417.94C1226.61 418.686 1225.24 419.443 1224.49 419.317C1223.68 419.159 1222.63 418.026 1222.48 417.185C1222.01 414.057 1221.9 410.858 1221.63 407.694L1221.66 407.694ZM1242.73 357.446C1238.98 356.379 1234.89 355.349 1230.89 354.016C1230.32 353.82 1230.03 352.341 1229.89 351.4C1229.88 351.197 1231.12 350.509 1231.76 350.569C1238.2 350.93 1244.57 350.989 1250.81 348.961C1252.59 348.401 1253.28 349.942 1252.96 351.294C1252.64 352.679 1251.96 354.574 1250.92 355.092C1248.57 356.198 1245.88 356.6 1242.69 357.447L1242.73 357.446ZM1239.05 405.533C1238.04 405.107 1237.5 404.979 1237.09 404.647C1233.86 402.192 1230.93 399.464 1229.63 395.437C1229.28 394.295 1229.61 393.079 1231.09 393.465C1236.26 394.819 1241.37 396.376 1246.51 397.864C1246.75 397.929 1247.12 398.093 1247.15 398.294C1247.33 398.933 1247.71 400.04 1247.48 400.211C1244.64 402.131 1241.66 403.919 1239.05 405.533ZM1259.21 278.38C1259.74 277.7 1260.06 276.853 1260.67 276.543C1262.74 275.474 1266.02 276.176 1266.99 278.186C1269.13 282.777 1271.11 287.436 1272.85 292.2C1273.13 292.937 1271.83 294.435 1270.96 295.254C1270.73 295.493 1269.07 294.839 1268.63 294.204C1265.92 290.26 1263.31 286.215 1260.77 282.168C1260.08 281.065 1259.76 279.721 1259.21 278.413L1259.21 278.38ZM1261.29 218.284C1261.29 218.284 1261.3 219.429 1261.05 220.477C1260.28 223.754 1257.9 224.995 1254.32 224.128C1250.8 223.294 1252.63 220.914 1252.81 218.991C1252.93 217.911 1253.15 216.864 1253.31 215.818C1253.75 213.151 1255.75 211.746 1257.93 210.811C1259.34 210.187 1260.99 213.133 1261.27 216.465C1261.27 216.734 1261.27 217.004 1261.29 218.284ZM1242.39 249.673C1243.14 250.573 1243.75 250.937 1243.69 251.274C1243.21 255.997 1242.62 260.72 1242.01 265.445C1242.01 265.478 1240.42 265.632 1240.25 265.33C1238.47 262.387 1236.78 259.375 1235.13 256.362C1234.88 255.927 1234.67 255.02 1234.87 254.883C1237.34 253.068 1239.92 251.386 1242.39 249.706L1242.39 249.673ZM1224.54 255.444C1225.25 255.671 1226.43 256.027 1227.61 256.418C1227.16 257.636 1226.9 258.987 1226.21 260.073C1225.18 261.635 1223.99 263.132 1222.62 264.394C1222.25 264.736 1220.46 264.42 1220.33 264.085C1219.66 262.037 1219.1 259.922 1218.94 257.801C1218.9 257.161 1219.96 256.104 1220.77 255.792C1221.71 255.376 1222.89 255.564 1224.54 255.444ZM1227.63 266.592C1228.69 264.491 1229.54 262.594 1230.6 260.829C1230.83 260.456 1232.17 260.238 1232.55 260.537C1234.45 261.997 1235.47 265.657 1234.75 267.653C1234.04 269.582 1232.74 271.215 1230.61 270.297C1229.42 269.805 1228.76 268.061 1227.63 266.592ZM1161.58 248.173C1162.63 248.564 1163.14 248.727 1163.55 248.992C1163.68 249.057 1163.65 249.563 1163.56 249.766C1162.34 252.072 1154.22 255.436 1151.42 254.695C1151.05 254.598 1150.5 253.897 1150.53 253.526C1150.62 252.817 1150.91 251.702 1151.38 251.528C1154.87 250.24 1158.46 249.153 1161.55 248.139L1161.58 248.173ZM1196.4 209.587C1197.87 208.525 1198.56 207.574 1199.41 207.463C1201.32 207.204 1202.32 208.54 1202.34 210.258C1202.35 211.066 1201.58 211.918 1201.15 212.731C1199.76 211.805 1198.37 210.878 1196.4 209.554L1196.4 209.587ZM1223.04 504.303C1222.71 504.307 1221.9 504.384 1221.12 504.326C1220.42 504.233 1219.74 503.972 1219.06 503.778C1219.77 503.466 1220.43 503.02 1221.17 502.877C1222.99 502.485 1224.8 502.194 1226.65 501.97C1226.92 501.966 1227.61 502.598 1227.58 502.868C1227.55 503.273 1227.08 503.885 1226.71 503.99C1225.7 504.205 1224.63 504.217 1223.11 504.336L1223.04 504.303ZM1286.33 378.221C1286.54 378.623 1286.82 378.99 1286.92 379.393C1286.96 379.494 1286.52 379.904 1286.49 379.87C1286.12 379.673 1285.81 379.407 1285.47 379.141C1285.77 378.834 1286.04 378.528 1286.33 378.221ZM1347.83 534.727C1347.59 534.629 1347.39 534.564 1347.15 534.466C1347.35 534.328 1347.52 534.091 1347.72 534.088C1347.92 534.086 1348.16 534.218 1348.36 534.317C1348.19 534.453 1347.99 534.59 1347.83 534.727Z" fill="#3A352F"/>
<path d="M1196.57 178.661C1196.67 184.084 1198.38 188.747 1202.39 192.405C1202.87 192.837 1204.02 192.959 1204.55 192.683C1204.96 192.476 1205.21 191.226 1204.97 190.69C1203.48 187.271 1201.76 183.956 1200.33 180.537C1200.02 179.732 1200.37 178.211 1201.01 177.598C1201.47 177.154 1202.99 177.439 1203.8 177.834C1206.96 179.313 1210.07 180.893 1212.16 183.9C1212.4 184.234 1213.58 184.052 1214.25 183.875C1214.49 183.805 1214.68 182.927 1214.61 182.49C1214.04 179.902 1213.33 177.35 1212.8 174.729C1212.73 174.325 1213.02 173.513 1213.35 173.374C1213.72 173.235 1214.53 173.428 1214.81 173.795C1219.6 180.072 1227.17 182.037 1233.58 185.836C1234.29 186.265 1235.61 186.149 1236.48 185.869C1246.31 182.753 1255.2 187.668 1257.1 197.449C1257.35 198.727 1257 200.146 1257.25 201.423C1257.36 201.961 1258.17 202.524 1258.78 202.786C1259.02 202.884 1259.75 202.404 1259.99 201.997C1260.38 201.319 1260.64 200.507 1260.83 199.73C1261.32 197.938 1261.15 195.413 1262.29 194.591C1263.36 193.804 1265.76 194.82 1267.55 194.933C1268.63 195.021 1269.71 195.009 1270.75 194.861C1273.17 194.462 1274.39 192.426 1273.56 190.078C1272.02 185.716 1268.86 182.991 1264.53 181.56C1264.15 181.43 1263.25 181.744 1263.18 182.014C1262.99 182.69 1262.83 183.736 1263.21 184.17C1264.44 185.57 1265.94 186.732 1267.27 188.064C1267.57 188.363 1267.75 189.136 1267.55 189.441C1267.32 189.781 1266.62 190.093 1266.18 189.997C1262.12 189.102 1257.71 189.221 1254.83 185.213C1252.85 182.44 1249.6 181.501 1246.33 181.136C1242.65 180.742 1240.01 179.493 1238.01 175.945C1235.57 171.628 1233.48 171.821 1231.72 176.357C1230.57 179.268 1228.96 179.691 1226.89 178.301C1223.56 176.083 1220.53 173.424 1217.43 170.866C1216.21 169.836 1215.28 168.433 1214.06 167.436C1212.53 166.174 1211.08 166.528 1210.02 168.192C1209.73 168.633 1209.46 169.142 1209.33 169.649C1208.82 171.373 1208.36 173.097 1207.88 174.821C1206.22 174.065 1204.56 173.344 1202.93 172.521C1199.2 170.611 1197.5 171.406 1196.84 175.524C1196.68 176.571 1196.66 177.649 1196.57 178.661Z" fill="#3A352F"/>
<path d="M1359.43 90.5779C1356.8 89.969 1354.47 89.3231 1352.1 88.9131C1351.43 88.7864 1350.35 89.1359 1349.99 89.6456C1349.62 90.1216 1349.74 91.2322 1350.02 91.8353C1350.5 92.7392 1351.45 93.4354 1352.07 94.3041C1353.81 96.7764 1353.03 99.2452 1350.17 99.4814C1348.42 99.6369 1346.43 99.1888 1344.9 98.3646C1343.28 97.5417 1342.15 95.837 1340.65 94.7092C1338.47 93.0842 1336.66 93.5773 1335.37 95.9172C1335.24 96.1546 1335.14 96.3917 1335.01 96.6291C1332.6 101.711 1329.28 102.503 1325.03 99.0049C1324.01 98.141 1323.06 97.1755 1321.91 96.4817C1321.36 96.1512 1320.18 96.0641 1319.85 96.4386C1319.45 96.8477 1319.33 98.1967 1319.67 98.5296C1322.5 101.326 1325.2 104.427 1328.53 106.544C1332.53 109.091 1335.39 108.147 1337.59 103.674C1339.07 100.658 1340.25 100.441 1342.99 102.026C1345 103.181 1347.5 103.826 1349.79 103.933C1353.5 104.159 1356.85 102.872 1357.81 98.7505C1358.52 95.7773 1360.33 95.1492 1363.02 94.9825C1366.49 94.8065 1369.96 94.2264 1373.39 93.6466C1374.7 93.4289 1375.21 91.0308 1374.05 90.4717C1368.33 87.6086 1362.57 84.8469 1356.71 82.2212C1356.1 81.9589 1354.96 82.8485 1354.09 83.1957C1354.71 83.997 1355.16 85.0024 1355.94 85.5322C1357.02 86.2605 1358.41 86.5808 1359.56 87.241C1360.41 87.7363 1361.06 88.6047 1361.78 89.27C1360.94 89.6842 1360.14 90.1317 1359.4 90.4773L1359.43 90.5779Z" fill="#3A352F"/>
<path d="M1284.25 143.789C1283.48 138.24 1282.71 132.656 1281.93 127.106C1281.31 122.599 1280.78 118.057 1280.09 113.551C1279.87 112.206 1280.55 109.805 1278.16 110.137C1277.39 110.247 1276.54 112.616 1276.49 113.998C1276.35 116.391 1276.65 118.814 1277.04 121.201C1277.63 124.9 1278.55 128.561 1279.06 132.295C1279.54 135.726 1279.75 139.227 1279.89 142.696C1279.95 144.245 1279.59 145.799 1279.44 147.35C1278.22 146.489 1276.93 145.696 1275.77 144.732C1273.9 143.205 1272.3 141.337 1270.26 140.048C1261.1 134.294 1254.6 126.319 1249.84 116.74C1249.49 116.003 1249.31 115.095 1248.77 114.596C1248.09 113.931 1247.1 113.605 1246.26 113.11C1245.9 113.99 1245.13 114.976 1245.28 115.783C1245.53 117.33 1246.19 118.872 1246.85 120.313C1250.79 128.79 1256.6 135.897 1264.28 141.062C1270.73 145.399 1276.11 150.22 1279.09 157.496C1279.44 158.334 1280.56 158.893 1281.34 159.558C1282.1 158.605 1283.44 157.68 1283.5 156.702C1283.68 152.421 1283.5 148.111 1283.45 143.833C1283.71 143.83 1284.02 143.792 1284.29 143.755L1284.25 143.789Z" fill="#3A352F"/>
<path d="M1301.93 23.2715C1301.45 16.7749 1296.66 10.5653 1290.77 8.7822C1285.87 7.29064 1283.29 8.63511 1281.63 13.6411C1281.31 14.622 1281.12 15.6687 1280.86 16.6825C1279.68 16.1239 1278.42 15.7007 1277.34 15.0061C1275.06 13.5507 1272.99 11.8572 1270.65 10.5036C1269.05 9.5792 1267.26 8.82557 1265.47 8.40885C1261.01 7.45106 1258.23 8.86546 1256.32 12.9984C1255.67 14.4549 1255.22 16.0437 1254.9 17.5973C1254.42 19.9276 1253.12 20.9876 1250.8 21.9247C1244.8 24.3544 1243.83 30.1608 1248.46 34.553C1249.79 35.8174 1251.49 36.8079 1253.18 37.529C1253.89 37.8575 1255.03 37.2712 1255.97 37.0916C1255.79 36.3525 1255.88 35.3745 1255.44 34.9081C1254.14 33.5422 1252.55 32.5167 1251.25 31.1507C1249.03 28.7513 1249.54 26.05 1252.54 25.8797C1257.22 25.6219 1258.33 22.9807 1258.76 19.1686C1258.88 18.1227 1259.17 17.0412 1259.56 16.0595C1260.87 12.6748 1263.31 11.4329 1266.57 13.0115C1269.21 14.294 1271.62 16.051 1274 17.8084C1277.23 20.2295 1280.23 22.9565 1283.42 25.378C1284.1 25.909 1285.32 25.76 1286.26 25.9172C1286.42 24.9046 1286.78 23.8896 1286.63 22.9143C1286.33 20.5594 1285.43 18.2454 1285.43 15.9207C1285.46 12.787 1287.68 11.7164 1290.42 13.1325C1293.64 14.8125 1296 17.3114 1297.32 20.6985C1297.91 22.1739 1298.23 23.7872 1298.95 25.2273C1299.2 25.6961 1300.18 25.9541 1300.85 25.9798C1301.12 25.9766 1301.55 25.2639 1301.71 24.824C1301.88 24.3504 1301.8 23.7786 1301.83 23.2392L1301.93 23.2715Z" fill="#3A352F"/>
<path d="M1294.09 143.172C1293.26 137.893 1292.38 132.614 1291.65 127.299C1290.88 121.985 1290.31 116.669 1289.54 111.355C1289.32 109.774 1290.7 106.927 1287.7 107.131C1285.24 107.295 1285.78 110.018 1285.8 111.77C1285.85 115.543 1285.52 119.488 1286.58 123.013C1289.25 132.213 1289.83 141.505 1289.7 150.974C1289.67 153.838 1289.04 157.147 1292.26 158.928C1294.29 160.049 1297.34 158.261 1299.3 153.622C1303.07 144.75 1310.29 140.049 1318.47 136.111C1324.5 133.176 1330.32 129.805 1336.21 126.534C1336.75 126.225 1336.87 125.212 1337.2 124.535C1336.32 124.242 1335.16 123.413 1334.59 123.69C1324.82 128.758 1315.04 133.861 1305.4 139.197C1300.71 141.814 1298.58 146.657 1296.11 151.133C1295.78 151.71 1294.97 152.023 1294.37 152.434C1294.06 151.798 1293.51 151.164 1293.47 150.525C1293.34 148.1 1293.38 145.674 1293.35 143.249C1293.62 143.245 1293.86 143.175 1294.13 143.138L1294.09 143.172Z" fill="#3A352F"/>
<path d="M1229.62 107.852C1229.71 106.84 1229.87 106.03 1229.89 105.255C1229.94 103.468 1230.61 100.799 1229.76 100.101C1227.31 98.1764 1225.49 100.725 1223.66 102.162C1223.22 102.504 1222.86 102.912 1222.46 103.22C1218.18 106.573 1217.98 106.508 1216.37 101.473C1215.01 97.2107 1214.13 96.8505 1210 98.7525C1209.03 99.202 1208.13 99.8192 1207.19 100.302C1205.52 101.164 1203.81 102.229 1202.07 100.43C1200.57 98.8983 1200.35 97.1152 1201.3 95.2508C1202.03 93.7935 1203.19 92.2973 1201.09 91.2104C1199.63 90.4528 1197.39 92.063 1197.05 94.156C1196.73 95.9791 1196.65 97.934 1196.88 99.7506C1197.47 104.393 1200.19 106.348 1204.73 105.486C1206.27 105.198 1207.75 104.439 1209.26 103.849C1210.87 103.223 1211.58 103.99 1212.34 105.362C1215.41 111.154 1215.51 111.287 1221.41 109.061C1223.73 108.191 1224.6 108.114 1225.27 110.767C1227.39 119.097 1231.76 120.494 1238.19 115.027C1241.96 111.816 1244.92 108.007 1245.6 102.912C1245.69 102.271 1245.14 101.199 1244.63 101.003C1244.12 100.807 1242.98 101.258 1242.62 101.768C1241.73 103.093 1241.34 104.782 1240.38 106.04C1238.59 108.352 1236.73 110.699 1234.56 112.645C1232.43 114.523 1230.36 113.571 1229.93 110.88C1229.78 109.804 1229.76 108.726 1229.72 107.851L1229.62 107.852Z" fill="#3A352F"/>
<path d="M1258.27 97.1013C1258.88 100.396 1262.46 104.127 1265.26 104.498C1268.4 104.898 1269.32 102.529 1270.37 100.293C1271.29 98.3617 1272.53 98.1785 1274.07 99.7438C1275.57 101.276 1276.97 103.011 1278.74 104.136C1282.27 106.317 1285.31 104.765 1286.31 100.542C1287.27 96.521 1287.21 96.7577 1291.26 97.7876C1294.57 98.6243 1298.08 99.2227 1301.49 99.1486C1304.96 99.1074 1306.57 96.1571 1304.55 93.6206C1300.21 88.1805 1295.37 83.1507 1290.66 78.0182C1290.35 77.6849 1288.97 77.8361 1288.64 78.2443C1288.27 78.6866 1288.25 79.8997 1288.63 80.367C1291.81 84.3384 1295.12 88.2409 1298.34 92.1782C1298.78 92.7457 1298.89 93.5867 1299.17 94.2909C1298.23 94.5042 1297.09 95.1917 1296.35 94.8973C1293.37 93.7872 1290.46 92.4066 1287.58 91.0257C1283.78 89.2178 1282.68 89.7363 1282.28 93.6154C1282.07 95.6731 1282.25 99.2087 1281.41 99.4882C1278.62 100.364 1277.78 97.173 1276.24 95.5403C1272.39 91.4758 1270.7 91.563 1267.59 96.1146C1266.16 98.2205 1264.24 98.5017 1261.84 96.9579C1261.19 96.5276 1260.45 95.9973 1259.74 95.972C1259.2 95.9784 1258.7 96.7592 1258.3 97.0672L1258.27 97.1013Z" fill="#3A352F"/>
<path d="M1320.84 63.7457C1324.81 63.6649 1328.18 63.6586 1330.57 60.1264C1331.33 58.9719 1333.85 58.9082 1335.6 58.5842C1338.59 58.077 1341.62 57.5693 1342.32 53.956C1342.89 51.0855 1341.01 48.5812 1336.61 47.2184C1333.33 46.2129 1329.82 45.8501 1326.35 45.5545C1325.3 45.4658 1324.17 46.5237 1323.1 47.0755C1324.05 47.738 1324.9 48.6713 1325.95 48.962C1329.06 49.8011 1332.23 50.235 1335.34 51.074C1336.05 51.2678 1336.5 52.4753 1337.09 53.2096C1336.18 53.6583 1335.08 54.6486 1334.37 54.4212C1331.6 53.6118 1328.92 52.3969 1326.18 51.4524C1325.03 51.0618 1323.79 50.9419 1322.57 50.7205C1322.65 51.9324 1322.67 53.1451 1322.85 54.3221C1322.92 54.7929 1323.5 55.1565 1323.74 55.6253C1325.4 58.84 1324.8 59.959 1321.03 59.8017C1318.4 59.6982 1315.76 59.0218 1313.23 58.3107C1311.43 57.793 1309.87 56.5988 1308.08 56.0137C1307.23 55.7205 1306.13 56.1714 1305.15 56.2841C1305.5 57.1896 1305.58 58.469 1306.23 58.933C1310.71 62.0804 1315.52 64.3479 1320.77 63.7465L1320.84 63.7457Z" fill="#3A352F"/>
<path d="M1145.21 129.273C1147.6 128.908 1148.98 128.79 1150.26 128.472C1151.97 128.014 1153.25 128.032 1154.35 129.771C1156.99 133.985 1161.14 134.205 1164.96 132.408C1169.72 130.161 1174.09 127.01 1178.57 124.16C1178.87 123.954 1179.06 122.908 1178.89 122.741C1178.35 122.276 1177.4 121.613 1176.93 121.821C1174.98 122.653 1173.11 123.753 1171.27 124.786C1169.63 125.715 1168.13 126.946 1166.38 127.573C1164.44 128.27 1162.19 129.038 1160.3 128.622C1157.56 128.015 1158.47 125.308 1158.35 123.221C1158.15 120.596 1156.79 119.938 1154.58 121.177C1153.18 121.969 1151.98 123.061 1150.54 123.786C1143.71 127.337 1137.78 124.543 1136.1 117.05C1136 116.546 1136.12 115.905 1135.88 115.469C1135.54 114.867 1134.92 113.998 1134.42 113.971C1133.84 113.977 1132.88 114.663 1132.71 115.204C1131.16 120.815 1133.17 125.508 1138.49 127.769C1140.86 128.786 1143.62 128.955 1145.21 129.307L1145.21 129.273Z" fill="#3A352F"/>
<path d="M1271.86 53.0094C1271.69 52.4724 1271.57 51.564 1271.1 51.0644C1270.72 50.6982 1269.61 50.543 1269.21 50.8509C1268.64 51.262 1268.28 52.1423 1268.05 52.8862C1267.53 54.678 1267.56 56.7665 1266.63 58.2936C1265.44 60.2618 1263.59 63.1475 1261.94 63.2008C1259.08 63.2348 1259.34 59.7278 1258.71 57.5117C1258.43 56.5043 1258.58 55.3569 1258.37 54.315C1257.83 51.5251 1256.07 51.007 1253.84 52.9876C1253.24 53.5338 1252.77 54.213 1252.21 54.7925C1247.81 59.1234 1247.84 59.0895 1244.81 53.3981C1244.43 52.6951 1243.31 52.1692 1242.47 52.0781C1242.07 52.0493 1241.24 53.1372 1241.11 53.8126C1240 59.5196 1244.92 65.5591 1250.6 61.6509C1253.74 59.491 1254.27 61.2368 1255.48 63.783C1257.69 68.5408 1261.91 69.3666 1265.92 66.1184C1269.96 62.8698 1271.59 58.4031 1271.83 53.1108L1271.86 53.0094Z" fill="#3A352F"/>
<path d="M1287.93 217.061C1288.26 205.231 1288.66 193.401 1288.89 181.539C1288.93 179.281 1288.12 177.033 1287.73 174.781C1283.9 175.972 1285.39 179.222 1285.31 181.581C1284.92 196.915 1284.67 212.248 1284.58 227.578C1284.57 229.633 1283.29 232.647 1286.87 233.548C1287.32 231.555 1288.04 229.592 1288.15 227.569C1288.35 224.097 1288.14 220.562 1288.09 217.059C1288.06 217.059 1287.99 217.06 1287.96 217.06L1287.93 217.061Z" fill="#3A352F"/>
<path d="M1341.09 129.436C1340.45 129.679 1339.61 129.824 1339.05 130.302C1333.91 134.406 1327.77 136.467 1321.76 138.627C1314.92 141.1 1310.23 146.277 1305.23 151.121C1304.77 151.564 1305.15 152.941 1305.13 153.885C1305.87 153.876 1306.68 154.001 1307.35 153.757C1308.09 153.479 1308.76 152.932 1309.29 152.353C1315.37 145.475 1323.52 142.11 1331.84 139.013C1335.93 137.515 1339.54 135.249 1342.23 131.781C1342.53 131.406 1342.66 130.697 1342.48 130.295C1342.31 129.927 1341.67 129.766 1341.06 129.436L1341.09 129.436Z" fill="#3A352F"/>
<path d="M1210.56 74.3545C1215 73.4595 1217.75 69.8892 1219.59 65.555C1220.11 64.2685 1220.22 61.7068 1219.54 61.2095C1217.47 59.8191 1217.26 62.382 1216.43 63.5036C1215.97 64.1493 1215.71 64.9609 1215.24 65.6066C1211.63 70.8042 1209.34 70.764 1205.77 65.3147C1205.33 64.6462 1205.18 63.7046 1204.6 63.2398C1204.13 62.8075 1203.22 62.6835 1202.51 62.7592C1202.14 62.7636 1201.68 63.4767 1201.55 63.9163C1200.39 68.9499 1205.01 74.6226 1210.6 74.3541L1210.56 74.3545Z" fill="#3A352F"/>
<path d="M1252.84 137.053C1253.21 136.274 1253.87 135.525 1253.7 135.123C1253.21 133.916 1252.52 132.745 1251.7 131.71C1249.07 128.338 1246.4 125.001 1243.7 121.664C1242.91 120.696 1241.95 119.09 1240.65 120.42C1240.09 120.966 1240.38 122.95 1240.93 123.954C1242.07 126.063 1243.51 128.034 1245.04 129.869C1246.75 131.937 1248.66 133.801 1250.57 135.699C1251.08 136.232 1251.89 136.492 1252.88 137.053L1252.84 137.053Z" fill="#3A352F"/>
<path d="M1260.46 145.456C1260.67 146.295 1260.61 146.936 1260.92 147.27C1264.91 151.568 1268.94 155.833 1273.03 159.996C1273.44 160.395 1274.45 160.316 1275.15 160.206C1275.36 160.204 1275.71 159.189 1275.54 158.82C1272.64 152.588 1267.93 147.995 1262.1 144.56C1261.79 144.396 1260.96 145.146 1260.46 145.456Z" fill="#3A352F"/>
<path d="M1259.21 414.828C1259.17 414.02 1259.07 411.595 1258.84 409.206C1258.83 408.869 1258.12 408.406 1257.72 408.377C1257.28 408.382 1256.51 408.695 1256.41 408.999C1256.02 410.52 1255.71 412.107 1255.62 413.658C1254.31 433.517 1253.1 453.409 1251.68 473.27C1251.39 477.283 1250.43 481.236 1249.77 485.22C1249.58 486.266 1249.09 487.35 1249.2 488.393C1249.28 489.235 1250.06 490 1250.51 490.804C1251.08 490.325 1251.98 489.944 1252.11 489.403C1253.26 484.167 1254.41 478.932 1255.26 473.632C1255.76 470.459 1255.65 467.192 1255.85 463.956C1256.94 448.108 1258.03 432.294 1259.24 414.861L1259.21 414.828Z" fill="#3A352F"/>
<path d="M1262.4 473.52C1262.94 476.68 1260.72 479.907 1263.12 482.844C1267.04 480.809 1265.74 476.883 1266.01 473.814C1267.32 459.109 1268.25 444.375 1269.33 429.639C1269.7 424.547 1270.18 419.488 1270.46 414.397C1270.57 412.543 1270.35 410.625 1270.02 408.81C1269.95 408.339 1268.97 407.879 1268.32 407.651C1268.09 407.586 1267.49 408.2 1267.29 408.606C1267.06 409.047 1266.97 409.621 1266.94 410.16C1266.41 419.263 1266.01 428.398 1265.34 437.469C1264.47 449.507 1263.37 461.548 1262.4 473.52Z" fill="#3A352F"/>
<path d="M1280.62 459.283C1280.41 455.816 1280.24 452.314 1279.93 448.847C1279.92 448.544 1279.21 448.115 1278.81 448.119C1278.4 448.124 1277.7 448.47 1277.6 448.808C1277.25 450.362 1276.9 451.949 1276.78 453.534C1275.95 466.043 1278.29 478.245 1280.65 490.38C1281.62 495.287 1284 500.077 1288.26 503.395C1288.9 503.893 1290.14 503.575 1291.12 503.631C1291.11 502.923 1291.44 501.909 1291.1 501.509C1284.61 494.578 1283.1 485.937 1282.31 476.951C1281.81 471.061 1280.76 465.245 1279.92 459.393C1280.15 459.39 1280.35 459.354 1280.59 459.317L1280.62 459.283Z" fill="#3A352F"/>
<path d="M1269.49 497.282C1270.02 499.735 1270.33 502.696 1271.3 505.447C1274.12 513.263 1277.18 520.976 1280.2 528.689C1280.59 529.662 1281.27 530.563 1281.85 531.466C1284.12 534.875 1286.39 536.23 1287.18 534.738C1288.47 532.263 1286.02 530.911 1285.03 529.238C1279.08 518.865 1275.71 507.618 1273.31 496.023C1273.1 494.981 1273.09 493.87 1272.87 492.862C1272.76 492.425 1272.15 491.657 1271.98 491.727C1271.28 492.004 1270.3 492.353 1270.11 492.894C1269.69 494.146 1269.67 495.494 1269.42 497.35L1269.49 497.282Z" fill="#3A352F"/>
<path d="M1246.11 497.836C1245.1 498.084 1244.36 498.059 1244.2 498.364C1243.37 499.721 1242.58 501.146 1241.92 502.602C1240.18 506.531 1238.55 510.526 1236.81 514.455C1234.25 520.28 1230.36 524.942 1225.08 528.509C1224.45 528.954 1224.36 530.235 1224.03 531.149C1225.01 531.205 1226.13 531.596 1226.93 531.249C1231.22 529.312 1234.72 526.103 1236.83 522.035C1240.39 515.12 1243.26 507.876 1246.28 500.698C1246.61 499.952 1246.19 498.879 1246.11 497.87L1246.11 497.836Z" fill="#3A352F"/>
<path d="M1262.17 496.567C1261.14 497.523 1260.26 497.904 1260.17 498.478C1258.42 506.786 1256.73 515.128 1255.11 523.503C1254.98 524.144 1255.63 524.911 1255.91 525.649C1256.58 525.304 1257.32 525.06 1257.89 524.615C1258.25 524.308 1258.55 523.731 1258.64 523.225C1260.2 515.424 1261.76 507.589 1263.18 499.756C1263.34 498.945 1262.66 497.976 1262.2 496.6L1262.17 496.567Z" fill="#3A352F"/>
<path d="M1275.31 417.402C1275.48 420.331 1275.62 423.295 1275.92 426.222C1275.99 426.828 1276.74 427.594 1277.35 427.822C1277.73 427.953 1278.86 427.063 1278.86 426.659C1278.79 420.764 1278.62 414.87 1278.31 409.011C1278.3 408.573 1277.18 407.778 1276.71 407.851C1276.17 407.925 1275.41 408.844 1275.42 409.416C1275.31 412.079 1275.41 414.773 1275.45 417.468C1275.41 417.469 1275.38 417.469 1275.31 417.47L1275.31 417.402Z" fill="#3A352F"/>
<path d="M1314.77 523.197C1314.98 523.06 1315.34 522.921 1315.41 522.718C1315.54 522.279 1315.73 521.468 1315.53 521.336C1311.38 518.42 1307.17 515.573 1302.93 512.793C1302.62 512.595 1301.61 512.809 1301.52 513.113C1301.25 513.722 1301.03 514.938 1301.34 515.137C1305.24 517.887 1309.18 520.569 1313.19 523.183C1313.56 523.414 1314.24 523.17 1314.77 523.164L1314.77 523.197Z" fill="#3A352F"/>
<path d="M1204.35 538.994C1204.69 539.361 1204.94 539.964 1205.34 540.094C1209.3 541.294 1215.09 538.328 1216.43 534.404C1216.56 534.032 1216.24 533.328 1215.94 532.995C1215.63 532.661 1214.88 532.333 1214.58 532.472C1211.27 534.094 1207.99 535.818 1204.77 537.608C1204.47 537.78 1204.48 538.521 1204.35 538.994Z" fill="#3A352F"/>
<path d="M1157.24 168.854C1157.19 176.435 1161.43 181.472 1167.03 181.844C1167.77 181.903 1168.7 180.982 1169.3 180.301C1169.43 180.131 1168.75 178.892 1168.2 178.495C1163.13 174.871 1161.25 170.199 1162.58 164.479C1162.74 163.735 1162.05 162.767 1161.74 161.928C1161.07 162.273 1160.06 162.42 1159.8 162.962C1158.64 165.3 1157.73 167.703 1157.24 168.854Z" fill="#3A352F"/>
<path d="M1146.67 178.242C1144.85 178.87 1141.83 179.815 1138.88 180.996C1138.38 181.204 1137.86 182.491 1138.06 182.993C1138.27 183.53 1139.32 183.989 1140.03 184.014C1141.08 184.069 1142.25 183.988 1143.16 183.506C1148.35 180.85 1152.38 182.554 1155.96 186.554C1156.85 187.521 1157.97 188.316 1159.06 189.044C1159.36 189.243 1160.14 189.099 1160.44 188.86C1160.77 188.552 1161.07 187.875 1160.93 187.472C1159.42 182.74 1152.9 178.1 1146.67 178.242Z" fill="#3A352F"/>
<path d="M1153.51 161.115C1153.43 160.509 1153.49 159.869 1153.25 159.501C1152.84 158.933 1152.2 158.435 1151.55 158.106C1151.38 158.041 1150.62 158.69 1150.52 159.062C1149.94 161.629 1149.57 164.261 1148.99 166.862C1148.51 169.024 1147.18 170.017 1144.91 169.337C1143.63 168.981 1142.38 168.457 1141.06 168.372C1140.56 168.344 1139.82 169.127 1139.46 169.705C1139.29 169.976 1139.54 170.815 1139.88 171.081C1144.89 175.57 1151.33 173.708 1152.71 167.324C1153.15 165.263 1153.23 163.106 1153.47 161.082L1153.51 161.115Z" fill="#3A352F"/>
<path d="M1237.33 226.419C1237.99 225.401 1238.79 224.414 1238.69 224.314C1235.89 221.45 1237.04 218.943 1239.13 216.425C1239.17 216.391 1238.18 215.089 1237.7 215.095C1236.69 215.107 1235.59 215.457 1234.78 216.005C1232.58 217.548 1227.77 217.975 1228.95 221.027C1229.89 223.475 1234.28 224.569 1237.33 226.386L1237.33 226.419Z" fill="#3A352F"/>
<path d="M1222.97 236.737C1220.96 237.94 1218.92 239.009 1217.01 240.346C1216.58 240.654 1216.49 241.969 1216.77 242.538C1217.05 243.074 1218.37 243.665 1218.67 243.459C1222.31 240.889 1226.12 240.844 1230.18 242.312C1230.68 242.474 1231.48 241.757 1232.15 241.446C1231.78 240.777 1231.53 239.702 1230.95 239.473C1228.51 238.491 1225.98 237.712 1222.97 236.737Z" fill="#3A352F"/>
<path d="M1218 229.551C1218 229.821 1218.07 230.089 1218.11 230.358C1218.26 231.873 1217.98 233.898 1220.34 233.667C1220.81 233.628 1221.56 231.901 1221.49 231.026C1221.25 228.3 1219.28 229.603 1217.87 229.721L1218 229.551Z" fill="#3A352F"/>
<path d="M922.886 503.874C922.886 513.199 922.886 522.48 922.886 531.805C922.886 534.488 922.973 536.731 925.877 538.447C929.087 540.382 927.856 545.924 924.029 547.903C922.666 548.607 921.038 548.915 919.543 549.399C914.616 551.07 914.528 551.818 914.792 557.096C915.496 570.248 916.244 583.4 916.024 596.551C915.76 612.518 914.748 628.529 913.561 644.495C912.549 657.999 910.922 671.414 909.47 684.874C909.294 686.589 908.546 688.261 907.93 689.888C906.919 692.615 905.071 695.386 909.47 697.102C910.13 697.366 910.042 699.521 910.262 700.796C909.162 700.796 908.106 700.84 907.007 700.708C906.347 700.621 905.599 699.917 905.027 700.049C900.893 701.236 900.805 701.28 901.069 697.278C901.201 694.99 901.201 692.571 902.036 690.504C906.215 679.991 906.391 668.907 907.315 657.911C908.986 637.941 910.922 617.972 911.801 597.959C912.373 584.851 911.449 571.655 910.702 558.504C910.438 553.445 908.854 552.346 904.412 553.929C897.55 556.393 890.556 555.953 883.651 555.601C875.821 555.249 868.036 554.193 860.25 553.138C857.919 552.83 856.82 552.786 857.523 555.557C857.919 557.096 857.699 558.856 858.359 560.219C862.802 569.412 862.142 579.397 862.889 589.162C863.945 602.621 865.661 616.081 866.056 629.584C866.76 653.82 866.804 678.056 866.936 702.336C866.936 706.778 867.728 708.054 871.994 709.33C885.102 713.2 897.55 710.341 909.954 706.119C911.097 705.723 912.065 704.887 913.121 704.315C914.748 703.436 915.056 702.688 913.385 701.28C912.593 700.665 912.593 699.037 912.241 697.893C913.517 697.542 914.88 696.75 916.068 696.926C920.642 697.674 922.05 700.753 919.543 704.887C918.355 706.866 918.751 707.262 920.554 708.23C923.281 709.682 926.14 711.265 928.164 713.508C930.627 716.191 929.659 719.314 926.536 720.81C918.135 724.812 909.47 728.023 900.189 729.079C890.82 730.179 881.539 730.794 874.414 722.613C873.754 721.865 872.214 721.777 871.071 721.558C866.408 720.722 861.658 720.37 857.127 719.05C853.521 717.995 849.826 716.367 846.879 714.08C841.557 709.945 840.589 704.359 843.976 698.597C845.603 695.826 846.087 693.407 845.383 690.284C844.856 687.953 845.075 685.358 845.427 682.938C846.527 675.505 848.242 668.115 848.946 660.638C850.09 648.41 851.541 636.094 851.233 623.866C850.706 603.325 848.902 582.828 847.627 562.287C847.451 559.647 847.143 557.008 847.143 554.369C847.143 551.774 846.439 549.839 844.504 547.903C843.14 546.496 842.26 543.901 842.348 541.877C842.612 535.587 843.316 529.298 844.02 523.008C845.647 508.756 847.539 494.505 848.99 480.21C850.398 466.354 854.18 453.027 857.435 439.567C861.086 424.568 871.687 417.355 885.102 412.824C887.609 411.989 890.248 411.549 892.844 410.977C890.996 408.69 889.281 406.271 887.213 404.159C880.44 397.166 878.372 390.656 883.255 383.354C886.774 378.076 889.721 373.018 891.612 366.86C892.844 362.769 896.978 360.13 901.729 359.69C906.567 359.25 911.229 358.722 915.056 354.72C916.552 353.136 919.982 352.476 922.358 352.828C929.219 353.84 935.729 356.215 939.38 362.769C940.963 365.54 942.723 366.112 945.758 365.848C950.86 365.364 955.787 365.408 959.085 360.262C959.921 358.898 962.34 358.282 964.188 357.887C975.272 355.511 986.444 353.312 997.529 351.025C1008.31 348.826 1017.15 353.532 1021.63 363.825C1021.98 364.66 1023.74 365.628 1024.54 365.452C1027.97 364.572 1029.95 366.288 1032.28 368.487C1043.32 378.78 1041.91 397.297 1033.77 408.162C1032.01 410.537 1028.41 412.209 1025.37 412.824C1019.08 414.144 1012.57 414.408 1006.15 415.375C1004.87 415.551 1002.94 416.519 1002.63 417.531C1000.43 424.524 998.232 431.518 996.737 438.688C995.549 444.318 995.241 450.124 994.714 455.886C993.526 469.565 990.975 482.981 987.06 496.133C983.497 507.965 978.351 511.352 966.167 510.252C964.672 510.12 963.088 510.516 961.549 510.824C957.15 511.615 953.763 510.12 950.904 506.689C949.805 505.326 948.221 504.27 946.682 503.39C940.392 499.959 934.058 496.616 927.68 493.274C923.897 491.294 923.897 491.338 923.809 495.693C923.809 498.332 923.809 500.971 923.809 503.61C923.457 503.61 923.105 503.61 922.798 503.61L922.886 503.874ZM885.762 551.026C897.418 552.258 908.59 549.047 919.543 544.604C920.29 544.297 920.95 543.681 921.654 543.241C921.038 542.801 920.334 542.405 919.807 541.833C918.883 540.91 917.167 539.458 917.387 538.93C919.631 533.608 917.299 528.242 917.651 522.92C918.311 512.935 918.267 502.906 918.663 492.922C918.839 489.095 917.959 486.324 914.264 484.389C909.514 481.837 905.027 478.714 900.541 475.679C898.957 474.624 896.318 473.568 897.902 471.017C898.21 470.489 901.113 471.545 902.828 471.897C903.136 471.985 903.4 472.293 903.708 472.468C917.871 480.782 932.034 489.139 946.242 497.408C947.341 498.024 949.145 498.64 950.068 498.2C953.411 496.484 956.798 494.593 959.701 492.218C961.549 490.678 963.792 488.127 963.792 486.016C963.792 476.383 958.91 468.73 952.18 462.264C951.3 461.384 949.629 461.032 948.309 460.988C944.482 460.9 941.711 459.141 939.336 456.282C934.058 449.992 928.824 443.614 923.237 437.588C919.587 433.629 915.364 430.155 911.361 426.548C910.79 426.064 909.69 425.712 908.986 425.888C901.465 427.911 896.274 424.085 891.26 419.334C890.072 418.191 887.653 417.223 886.29 417.663C875.909 421.138 866.496 426.108 862.889 437.588C857.083 456.062 853.477 475.02 851.057 494.197C849.122 509.46 848.506 524.899 847.363 540.25C847.275 541.262 847.803 542.889 848.55 543.285C851.453 544.824 854.488 546.144 857.567 547.2C866.584 550.323 875.909 551.466 885.762 551.026ZM908.106 400.464H908.018C908.018 399.409 908.018 398.353 908.018 397.297C907.974 396.242 907.711 395.186 907.755 394.175C907.799 390.92 909.206 389.952 912.065 391.535C913.429 392.283 914.484 393.823 915.232 395.274C915.936 396.638 915.98 398.309 916.42 399.805C916.552 400.245 917.035 400.596 917.343 400.992C917.431 400.508 917.607 399.981 917.563 399.497C917.387 397.737 916.772 395.978 916.991 394.306C917.211 392.151 917.475 389.468 918.795 388.017C922.094 384.366 926.096 381.551 931.551 382.298C934.014 382.65 935.729 382.123 934.938 378.868C934.718 377.9 935.157 375.877 935.773 375.657C939.952 374.161 937.841 371.566 936.917 369.367C933.97 362.065 927.812 359.03 920.598 357.843C919.191 357.623 917.123 358.634 916.024 359.734C912.945 362.901 909.294 363.781 905.115 363.869C896.89 364.045 893.283 369.191 895.703 377.152C896.494 379.703 896.186 381.331 893.107 381.375C889.589 381.419 888.049 383.662 886.686 386.609C884.618 390.964 885.938 394.35 888.753 397.649C892.052 401.476 895.483 405.215 898.518 409.306C899.705 410.889 899.881 413.176 900.541 415.156C901.641 413.572 902.652 411.901 903.884 410.405C904.28 409.921 905.291 410.009 905.731 409.569C906.611 408.558 907.711 407.414 907.93 406.183C908.282 404.335 908.018 402.356 908.018 400.42L908.106 400.464ZM1025.33 394.702C1024.8 390.7 1024.54 386.697 1023.7 382.782C1022.2 375.613 1014.55 370.95 1007.56 372.666C1000.43 374.425 993.35 376.229 986.224 377.812C981.474 378.868 976.636 379.571 971.797 380.363C969.246 380.759 968.058 381.463 970.434 383.838C976.46 389.776 977.207 397.385 977.119 405.303C977.119 406.798 977.867 409.657 978.175 409.613C981.122 409.481 979.495 407.062 979.539 405.699C979.671 402.444 979.627 399.145 983.057 397.561C986.84 395.846 990.667 395.406 994.538 397.957C998.1 400.332 1000.17 403.499 1001.49 407.502C1001.88 408.778 1003.2 410.845 1003.95 410.801C1009.49 410.361 1014.99 409.569 1020.49 408.646C1021.46 408.47 1022.25 407.106 1023.04 406.227C1026.21 402.84 1025.33 398.705 1025.33 394.658V394.702ZM980.022 417.091C975.448 415.815 977.559 418.542 978.087 420.346C979.055 423.645 981.386 427.208 980.77 430.155C977.955 443.702 975.492 457.425 969.334 470.005C968.014 472.732 968.19 474.096 970.786 475.987C977.427 480.87 978.835 485.532 976.284 493.537C975.184 497.012 973.249 500.223 971.709 503.566C971.445 504.182 971.269 504.842 971.049 505.501C971.709 505.589 972.413 505.809 973.073 505.765C978.659 505.282 981.166 501.543 982.618 496.616C988.072 478.187 990.843 459.317 992.382 440.183C992.822 434.861 993.57 429.143 995.901 424.524C999.2 418.015 998.276 412.34 995.065 406.71C993.878 404.599 991.415 402.884 989.127 401.828C986.048 400.376 984.201 401.916 984.245 405.391C984.245 407.282 984.685 409.218 984.949 411.109C985.565 415.331 984.113 417.135 979.979 417.135L980.022 417.091ZM862.538 654.788C861.966 644.539 861.218 630.684 860.338 616.828C859.679 606.492 857.831 596.155 858.183 585.863C858.579 574.119 853.477 563.562 852.905 552.214C852.905 552.038 852.905 551.818 852.773 551.73C852.377 551.466 851.981 551.202 851.541 551.026C851.497 551.026 851.057 551.554 851.057 551.818C851.057 552.698 851.145 553.577 851.189 554.413C852.773 574.514 854.664 594.66 855.896 614.805C856.907 631.124 855.94 647.486 853.916 663.717C853.037 670.667 852.157 677.616 850.706 684.478C849.43 690.328 849.43 691.648 854.048 695.43C855.808 696.882 857.743 698.113 859.591 699.389C861.306 700.577 862.142 699.917 862.274 698.025C862.362 696.794 862.538 695.562 862.538 694.331C862.538 682.367 862.538 670.447 862.538 654.832V654.788ZM941.051 393.779L941.755 393.603C941.755 392.723 941.755 391.843 941.755 390.964C941.667 387.005 940.7 386.389 936.785 387.181C934.938 387.577 933.002 387.445 931.067 387.357C924.953 387.181 920.73 391.887 921.522 397.957C921.874 400.552 922.05 403.236 921.654 405.787C921.434 407.238 920.07 409.349 918.883 409.613C917.695 409.921 915.98 408.382 914.616 407.458C914.088 407.106 913.956 406.227 913.561 405.655C913.209 405.127 912.725 404.687 912.329 404.159C912.153 404.775 911.889 405.391 911.889 406.007C911.757 410.229 912.901 414.936 906.743 416.299C905.819 416.519 905.423 418.938 904.764 420.39C906.039 420.39 907.315 420.61 908.546 420.478C910.262 420.258 911.977 419.422 913.649 419.466C915.76 419.51 917.959 419.95 917.167 423.205C916.772 424.788 920.774 429.231 922.226 428.923C922.71 428.835 923.501 427.471 923.281 427.032C922.534 425.36 921.258 423.953 920.642 422.281C919.982 420.478 918.927 417.399 919.631 416.827C921.742 415.068 922.71 417.751 923.941 419.114C924.161 419.378 924.425 419.598 924.689 419.818C931.771 425.712 939.336 423.029 941.007 414.144C941.315 412.56 942.151 410.801 943.295 409.745C945.318 407.942 944.922 406.358 944.086 404.159C942.811 400.772 942.063 397.21 941.095 393.691L941.051 393.779ZM976.548 428.087C975.008 424.7 973.777 420.302 971.181 416.959C970.082 415.551 966.167 416.211 963.528 416.211C960.801 416.211 961.461 418.498 961.329 420.126C961.021 424.129 961.109 428.219 960.493 432.178C959.349 439.435 957.898 446.693 956.402 453.907C955.875 456.502 955.919 458.613 958.074 460.548C959.569 461.956 960.537 463.935 961.813 465.607C964.32 468.95 965.023 468.994 966.343 465.211C968.894 457.953 971.269 450.608 973.381 443.218C974.7 438.512 975.448 433.629 976.592 428.087H976.548ZM937.049 444.538C937.577 445.637 937.929 447.001 938.764 448.013C940.656 450.3 942.635 452.543 944.746 454.61C948.177 457.909 951.344 456.986 952.18 452.279C954.115 441.591 955.743 430.902 957.546 420.214C957.942 417.883 957.282 416.827 954.863 416.211C952.576 415.639 950.376 414.32 948.485 412.868C946.462 411.373 945.934 411.725 945.582 414.056C945.142 416.959 944.57 419.862 943.735 422.677C941.623 429.847 939.336 437.016 937.005 444.538H937.049ZM994.626 357.227C992.074 357.667 990.007 358.019 987.984 358.37C980.242 359.778 972.545 361.098 964.804 362.593C961.285 363.253 961.109 364.221 962.956 367.475C964.144 369.587 965.243 371.83 965.859 374.161C966.475 376.448 967.443 376.58 969.554 376.141C976.372 374.821 983.321 374.073 990.095 372.666C995.373 371.566 1000.52 369.895 1005.67 368.311C1006.28 368.135 1007.12 366.2 1006.81 365.76C1003.77 361.186 999.288 358.678 994.582 357.227H994.626ZM892.712 725.384C903.092 724.724 912.945 722.085 922.226 717.335C924.997 715.927 923.281 714.784 922.05 713.992C917.387 710.957 912.197 710.649 906.963 711.925C897.814 714.124 888.841 717.115 879.208 715.268C878.372 715.092 877.361 715.708 876.437 715.927C876.789 716.895 876.965 717.951 877.537 718.786C881.231 724.109 886.642 725.516 892.756 725.34L892.712 725.384ZM964.98 400.508C963.748 394.131 960.889 388.632 956.182 384.19C955.699 383.706 954.555 383.838 953.763 383.882C953.675 383.882 953.499 384.982 953.543 385.509C953.939 390.524 954.599 395.494 954.731 400.508C954.731 402.268 953.763 404.203 952.752 405.787C950.64 409.042 950.904 410.273 954.599 411.417C958.426 412.648 962.252 410.977 963.572 407.194C964.32 405.083 964.54 402.752 965.023 400.508H964.98ZM869.179 717.027C870.015 716.675 870.763 716.367 871.467 716.059C870.807 715.444 870.235 714.696 869.487 714.168C867.42 712.76 864.297 711.925 863.329 709.945C860.866 705.019 856.248 702.908 852.421 699.697C850.178 697.805 849.166 698.861 848.154 700.972C845.691 706.075 847.099 710.385 853.037 712.716C858.183 714.74 863.769 715.62 869.179 716.983V717.027ZM1030.17 396.726C1030.17 396.726 1030.03 396.726 1029.95 396.726C1029.81 399.365 1029.68 402.004 1029.64 404.643C1029.64 405.039 1029.99 405.391 1030.17 405.787C1030.43 405.611 1030.83 405.479 1030.96 405.215C1034.43 399.849 1036.37 393.823 1036.06 387.489C1035.75 381.243 1032.01 376.36 1027.61 372.138C1026.91 371.478 1025.81 370.994 1024.89 370.906C1023.96 370.818 1023 371.302 1022.03 371.522C1022.47 372.226 1022.82 373.106 1023.44 373.633C1026.87 376.756 1028.58 380.671 1029.02 385.202C1029.42 389.028 1029.77 392.899 1030.17 396.726ZM972.325 487.687C972.193 486.852 972.237 485.84 971.797 485.18C971.093 484.037 970.082 483.069 969.202 482.013C969.026 483.245 968.498 484.52 968.762 485.664C969.906 491.25 967.355 494.813 962.824 497.364C961.021 498.376 958.997 499.08 957.194 500.091C956.226 500.619 954.863 501.543 954.863 502.335C954.863 503.302 955.831 504.578 956.754 505.194C959.041 506.689 961.461 506.513 963.528 504.71C968.674 500.223 971.005 494.285 972.325 487.687ZM944.13 370.95C943.911 371.258 943.031 372.358 942.371 373.545C941.755 374.733 941.579 376.185 940.788 377.24C939.16 379.483 939.732 381.067 941.843 382.518C943.735 383.794 945.494 384.806 947.033 382.035C947.429 381.331 948.089 380.495 948.793 380.231C951.344 379.351 952.136 377.768 951.036 375.393C949.937 373.018 949.101 370.29 944.13 370.95ZM932.034 427.12C930.627 427.735 927.46 425.8 927.68 429.451C927.812 432.002 928.604 434.597 929.571 437.016C930.099 438.336 931.595 439.304 932.65 440.447C933.31 439.172 934.146 437.94 934.63 436.576C935.201 435.125 935.553 433.541 935.905 432.046C937.005 427.427 936.873 427.208 932.034 427.12ZM972.677 401.124C972.853 394.043 968.894 388.808 965.331 383.486C965.023 383.002 963.836 383.09 963.088 382.914C963.088 383.618 962.736 384.498 963.088 385.026C963.88 386.389 965.023 387.489 965.815 388.808C969.378 394.57 970.346 400.772 968.938 407.414C968.806 408.03 969.378 408.822 969.642 409.525C970.082 409.086 970.742 408.69 970.918 408.118C971.577 405.787 972.105 403.455 972.677 401.08V401.124ZM945.318 394.57C946.682 397.122 947.913 399.365 949.101 401.652C949.849 399.233 950.904 396.902 951.168 394.438C951.432 392.151 951.74 388.94 948.441 388.764C947.561 388.72 946.55 392.151 945.318 394.57ZM961.989 376.316C961.153 374.073 960.581 372.05 959.701 370.203C958.602 367.783 956.798 369.147 955.259 369.675C952.884 370.466 954.379 371.786 954.907 372.886C955.567 374.293 956.006 375.965 957.018 377.02C957.81 377.812 959.393 377.9 960.669 377.944C961.109 377.944 961.593 376.844 961.989 376.316ZM1006.63 356.919C1006.63 356.919 1006.41 357.491 1006.55 357.667C1008.92 360.658 1011.3 363.693 1013.85 366.552C1014.2 366.948 1015.47 366.684 1016.27 366.508C1016.49 366.464 1016.75 365.672 1016.71 365.276C1016.44 362.857 1009.4 356.787 1006.72 356.963L1006.63 356.919Z" fill="#3A352F"/>
<path d="M931.241 389.165C933.572 389.473 936.959 395.543 935.727 397.215C935.111 398.05 933.352 398.71 932.296 398.446C929.085 397.698 927.766 392.024 930.141 389.737C930.493 389.429 930.977 389.297 931.241 389.165Z" fill="#3A352F"/>
</g>
<defs>
<clipPath id="clip0_10_273">
<rect width="1411" height="945" fill="white"/>
</clipPath>
</defs>
</svg>
