<svg width="1411" height="945" viewBox="0 0 1411 945" fill="none" xmlns="http://www.w3.org/2000/svg">
<g clip-path="url(#clip0_10_225)">
<path d="M1271.28 600.562C1273.49 592.335 1269.36 588.042 1262.21 585.246C1259.8 584.303 1257.92 583.848 1255.28 584.628C1249.59 586.351 1243.74 587.75 1237.85 588.725C1234.86 589.246 1231.61 588.855 1228.55 588.4C1219.84 587.034 1211.16 585.408 1202.44 583.945C1198.77 583.327 1195.06 582.807 1191.35 582.287C1190.9 582.222 1190.38 582.384 1189.89 582.449C1189.99 582.937 1189.99 583.457 1190.21 583.88C1195.32 593.115 1201.34 601.733 1208.68 609.375C1209.17 609.895 1209.95 610.123 1210.6 610.513C1210.47 609.797 1210.44 609.05 1210.21 608.334C1208.26 602.286 1206.28 596.237 1204.29 590.189C1204.07 589.441 1203.58 588.66 1203.64 587.977C1203.77 586.969 1204.29 585.994 1204.65 585.018C1205.4 585.701 1206.57 586.254 1206.86 587.067C1208.03 590.514 1208.88 594.058 1209.99 597.505C1211.09 600.952 1212.52 604.334 1213.53 607.814C1214.15 609.96 1215.45 612.757 1212.85 614.187C1210.57 615.456 1208.26 613.797 1206.6 612.139C1200.2 605.798 1194.8 598.676 1190.25 590.904C1189.3 589.311 1188.1 587.88 1186.99 586.384C1186.25 588.14 1185.4 589.896 1184.78 591.685C1182.51 598.448 1180.49 605.277 1178.02 611.976C1177.21 614.22 1175.61 616.334 1173.89 617.992C1172.88 618.935 1170.9 619.325 1169.4 619.195C1167.52 619.033 1167.19 617.212 1167.35 615.553C1168.13 606.383 1168.78 597.213 1169.82 588.075C1170.51 582.157 1171.68 576.303 1172.85 570.45C1174.12 564.011 1170.87 558.906 1168.3 553.54C1167.03 550.874 1166.05 548.077 1165.08 545.28C1163.71 541.508 1162.44 537.703 1161.21 533.866C1160.72 532.37 1159.78 531.818 1158.28 531.98C1157.5 532.045 1156.72 531.915 1155.94 532.045C1147.94 533.281 1143.39 528.436 1139.45 522.647C1137.5 519.753 1135.55 516.826 1133.92 513.737C1133.21 512.371 1132.79 510.453 1133.11 509.022C1133.6 506.908 1135.78 507.396 1137.44 507.461C1143.58 507.754 1149.6 507.168 1155.48 505.12C1157.73 504.339 1158.48 503.689 1157.11 501.38C1155.26 498.258 1153.66 494.974 1152.23 491.657C1150.77 488.243 1151.16 485.088 1152.82 484.08C1154.51 483.072 1157.86 483.95 1160.26 486.161C1162.48 488.178 1164.56 490.324 1166.7 492.405C1167.03 492.73 1167.58 492.795 1168.04 492.99C1168.1 492.503 1168.26 492.015 1168.23 491.527C1168.07 488.438 1167.58 485.316 1167.78 482.227C1167.87 480.666 1168.85 478.519 1170.12 477.804C1172.17 476.666 1174.12 478.194 1175.39 479.95C1176.98 482.162 1178.25 484.6 1179.84 486.812C1182.02 489.836 1184.49 492.698 1186.57 495.787C1187.94 497.803 1189.01 500.079 1189.89 502.356C1193.17 510.973 1196.26 519.656 1199.51 528.273C1200.72 531.427 1201.6 531.818 1204.72 530.192C1208.16 528.371 1211.38 526.127 1214.77 524.208C1225.37 518.16 1236.03 512.209 1246.63 506.128C1259.84 498.584 1272.97 490.942 1286.14 483.365C1289.2 481.609 1292.26 479.918 1295.28 478.129C1299.93 475.333 1304.61 472.601 1309.1 469.544C1310.18 468.796 1310.73 466.975 1311.05 465.545C1311.51 463.496 1312.29 462.618 1314.63 462.358C1316.68 462.13 1318.86 460.927 1320.45 459.594C1325.69 455.171 1330.66 450.391 1335.83 445.871C1342.3 440.212 1346.6 432.928 1351.12 425.807C1352.16 424.181 1353.23 422.555 1354.43 421.026C1355.34 419.856 1356.87 419.563 1358.04 418.945C1360.74 417.547 1362.86 414.88 1364.87 412.441C1365.98 411.076 1366.34 409.157 1366.95 407.434C1369.42 400.637 1374.86 397.255 1381.42 395.662C1384.42 394.946 1387.11 395.857 1389.39 398.881C1393.33 404.052 1394.01 409.775 1393.94 415.791C1393.91 418.588 1392.9 421.124 1390.4 422.782C1389.98 423.075 1389.49 423.335 1389.23 423.758C1388.64 424.734 1388.19 425.807 1387.7 426.847C1388.77 427.042 1389.85 427.465 1390.89 427.368C1397.33 426.847 1403.76 426.132 1410.24 425.612C1412.32 425.449 1412.8 424.376 1412.61 422.555C1411.73 413.905 1411.02 405.222 1409.98 396.605C1409.78 394.946 1408.74 393.06 1407.47 391.922C1404.74 389.451 1402.14 386.882 1398.04 386.296C1392.81 385.549 1391.5 382.882 1393.23 378.004C1393.52 377.159 1394.01 376.248 1393.91 375.403C1393.75 374.199 1393.13 373.094 1392.71 371.923C1391.86 372.639 1390.92 373.289 1390.24 374.134C1389 375.63 1388.12 377.451 1386.72 378.785C1385.72 379.728 1383.93 380.768 1382.89 380.443C1381.88 380.15 1381 378.232 1380.74 376.899C1380.29 374.622 1380.42 372.248 1380.09 369.94C1379.96 369.062 1379.41 367.761 1378.72 367.501C1376.19 366.525 1373.55 365.745 1370.89 365.224C1368.77 364.802 1369.55 366.33 1369.68 367.468C1369.75 368.118 1369.29 368.801 1369.07 369.452C1368.42 369.127 1367.54 368.964 1367.18 368.411C1366.6 367.598 1366.11 366.558 1366.04 365.582C1365.98 364.281 1366.3 362.916 1364.55 362.493C1362.63 362.005 1360.77 360.477 1358.66 362.07C1357 363.306 1355.25 364.444 1353.49 365.55C1351.93 366.525 1351.96 367.501 1353.36 368.541C1353.98 368.996 1354.63 369.484 1355.34 369.777C1357.43 370.687 1358.14 372.346 1358.08 374.46C1358.01 376.931 1358.08 379.402 1357.98 381.874C1357.88 386.036 1359.64 388.995 1363.31 391.077C1368.68 394.133 1373.72 395.011 1378.43 389.939C1378.76 389.581 1379.51 389.093 1379.73 389.223C1382.79 390.947 1383.9 387.987 1385.81 386.882C1386.92 386.231 1388.12 385.614 1389.36 385.451C1390.01 385.353 1390.82 386.199 1391.54 386.622C1391.11 387.305 1390.85 388.215 1390.27 388.67C1388.12 390.231 1385.88 391.76 1383.57 393.125C1382.33 393.873 1380.87 394.296 1379.51 394.784C1378.3 395.239 1377.03 395.532 1375.86 396.02C1366.04 400.182 1354.69 392.638 1354.79 382.004C1354.79 380.963 1354.73 379.923 1354.86 378.882C1355.15 375.76 1354.73 373.387 1351.41 371.565C1347.6 369.484 1348.03 365.257 1351.77 362.753C1354.8 360.737 1354.92 358.569 1352.12 356.249C1350.73 355.078 1349.26 353.973 1347.86 352.835C1343.83 349.583 1344.35 345.518 1349.1 343.534C1353.39 341.746 1357.72 340.055 1361.95 338.136C1362.89 337.714 1363.64 336.64 1364.29 335.73C1365.03 334.689 1365.55 333.486 1366.27 332.413C1370.92 325.454 1375.02 323.828 1383.15 325.747C1384.9 326.169 1386.53 327.112 1388.32 327.47C1390.3 327.893 1388.32 331.047 1391.02 330.885C1392.68 330.787 1394.43 330.885 1396.02 331.405C1408.38 335.34 1412.51 341.973 1413.62 354.656C1414.01 359.013 1415.34 362.33 1419.6 364.281C1421.26 365.029 1424.22 365.387 1423.6 368.249C1423.02 370.948 1420.22 370.753 1418.17 371.175C1416.02 371.631 1413.03 370.948 1411.86 372.151C1410.72 373.354 1411.5 376.313 1411.31 378.459C1411.02 381.386 1410.37 384.118 1407.28 385.483C1406.85 385.679 1406.59 386.166 1406.24 386.524C1406.69 386.914 1407.11 387.532 1407.67 387.63C1414.98 389.158 1419.89 393.873 1423.31 400.052C1427.08 406.848 1430.27 413.937 1433.75 420.896C1434.75 422.912 1434.2 424.148 1432.38 425.416C1428.84 427.92 1428.97 428.538 1431.15 432.278C1433.71 436.635 1436.12 441.09 1438.3 445.676C1440.64 450.618 1440.09 455.171 1435.89 459.138C1432.51 462.358 1429.36 465.837 1426.27 469.349C1425.36 470.39 1424.77 471.918 1424.54 473.316C1424.06 476.211 1421.97 479.072 1419.7 479.202C1418.82 479.235 1417.91 478.519 1417 478.162C1417.39 477.479 1417.78 476.731 1418.2 476.081C1418.82 475.138 1420.06 474.227 1420.02 473.316C1420.02 471.43 1419.37 469.544 1418.85 467.691C1418.85 467.626 1417.32 467.788 1416.61 468.081C1414.04 469.252 1411.57 470.78 1408.93 471.723C1395.18 476.666 1381.03 477.414 1366.69 475.203C1363.9 474.78 1363.9 476.828 1363.28 478.422C1362.53 480.308 1363.34 481.056 1365.1 481.901C1371.7 485.056 1378.92 485.283 1385.94 486.389C1390.27 487.072 1394.66 487.495 1399.02 487.917C1403.34 488.34 1406.82 486.356 1410.04 483.755C1410.76 483.202 1411.34 482.292 1412.12 482.064C1413.1 481.771 1414.24 482.064 1415.31 482.064C1415.28 483.007 1415.57 484.145 1415.15 484.926C1410.89 493.023 1409.55 501.445 1411.24 510.55C1413.29 521.639 1414.4 532.891 1416.61 543.947C1419.02 556.142 1422.2 568.206 1425.06 580.336C1425.23 581.083 1425.49 581.831 1425.68 582.579C1426.92 587.522 1426.59 589.018 1421.94 590.969C1413.65 594.449 1407.5 601.082 1399.73 605.212C1398.72 605.733 1398.11 607.033 1397.33 607.944C1398.46 608.041 1399.63 608.302 1400.74 608.204C1408.61 607.391 1416.02 605.277 1422.27 600.074C1424.32 598.351 1425.71 596.595 1425 593.766C1424.67 592.53 1424.61 591.132 1426.33 591.327C1427.15 591.424 1428.35 592.693 1428.41 593.538C1428.71 597.245 1428.25 600.595 1424.87 603.229C1416.87 609.407 1407.73 611.684 1397.91 612.009C1395.96 612.074 1393.78 611.846 1393.07 609.57C1392.35 607.391 1393.2 605.375 1394.98 604.042C1397.59 602.091 1400.32 600.335 1403.02 598.546C1404.51 597.538 1406.07 596.595 1407.63 595.619C1408.87 594.839 1408.74 594.156 1408.06 592.79C1406.01 588.66 1404.25 584.335 1402.46 580.043C1401.59 577.897 1400.9 575.653 1400.09 573.507C1395.21 560.792 1390.33 548.077 1385.42 535.362C1384.9 534.061 1384.29 532.793 1383.7 531.525C1382.79 532.501 1381.81 533.444 1380.94 534.452C1372.45 544.5 1368.77 556.922 1363.93 568.791C1362.17 573.116 1360.45 577.441 1358.82 581.831C1357.78 584.595 1357.2 587.555 1355.99 590.221C1353.75 595.164 1350.63 599.912 1345.07 600.952C1336.03 602.643 1326.79 603.716 1317.56 602.286C1316.29 602.091 1314.37 601.343 1314.11 600.465C1313.82 599.457 1314.83 597.831 1315.7 596.822C1320.61 591.262 1326.79 587.912 1334.21 587.002C1336.32 586.742 1337.04 586.417 1337.39 583.685C1338.3 576.173 1340.19 568.726 1341.91 561.345C1342.92 557.052 1344.35 552.857 1345.69 548.662C1348.61 539.394 1351.34 530.029 1354.63 520.891C1357.88 511.851 1361.72 503.039 1365.33 494.128C1366.37 491.527 1364.84 485.576 1362.21 484.178C1359.08 482.552 1358.92 480.373 1359.6 477.381C1361.36 469.707 1362.89 461.967 1364.45 454.261C1364.58 453.675 1364.45 453.057 1364.45 452.472C1363.96 452.862 1363.38 453.187 1362.95 453.61C1357.33 459.529 1350.69 463.756 1343.02 466.845C1337.2 469.187 1332.06 473.251 1326.53 476.373C1324.29 477.641 1321.85 478.715 1319.38 479.332C1314.79 480.471 1312.45 479.267 1310.44 474.942C1309.82 473.642 1309.23 473.414 1308.09 473.967C1307.15 474.422 1306.21 474.845 1305.33 475.398C1294.89 481.934 1284.65 488.86 1273.98 495.006C1256.97 504.795 1239.64 513.997 1222.51 523.558C1218.31 525.899 1214.31 528.566 1210.25 531.135C1209.89 531.362 1209.73 531.915 1209.5 532.305C1209.89 532.37 1210.28 532.501 1210.64 532.468C1214.86 531.915 1219.09 531.005 1223.35 530.842C1237.46 530.289 1251.51 527.655 1265.72 529.379C1268.55 529.736 1271.48 529.801 1274.14 530.679C1278.31 532.045 1280.84 529.899 1283.12 527.167C1285.79 523.883 1287.18 519.981 1287.8 515.786C1287.93 514.875 1288.52 513.249 1288.88 513.249C1289.92 513.249 1291.28 513.64 1291.93 514.388C1295.93 518.973 1298.05 524.338 1297.72 530.452C1297.56 533.639 1295.48 535.882 1293.1 537.834C1291.64 539.037 1290.31 540.468 1288.71 541.508C1288.1 541.931 1286.44 541.963 1286.14 541.541C1282.05 535.59 1275.48 534.939 1269.33 533.801C1257.72 531.688 1246.02 532.435 1234.37 533.736C1227.29 534.517 1220.16 535.167 1213.07 535.72C1210.38 535.915 1207.58 535.947 1204.91 535.557C1202.47 535.167 1201.17 536.338 1200.95 538.191C1200.2 544.5 1195.48 547.394 1190.86 550.256C1186.57 552.922 1181.99 555.134 1177.47 557.41C1175.68 558.32 1175.06 559.231 1175.78 561.345C1177.4 566.19 1176.33 571.1 1175.48 575.945C1173.3 588.335 1171.03 600.725 1170.93 613.375C1170.93 613.927 1171.19 614.48 1171.35 615.033C1171.84 614.643 1172.52 614.35 1172.75 613.83C1174.96 609.017 1177.4 604.269 1179.16 599.294C1181.34 593.213 1182.99 586.904 1184.75 580.661C1185.21 579.035 1185.82 578.645 1187.45 578.872C1200.78 580.921 1214.15 582.709 1227.45 584.888C1232.29 585.669 1236.98 585.929 1241.72 584.758C1245.63 583.782 1249.5 582.709 1253.43 581.766C1255.38 581.311 1255.64 580.693 1254.44 578.937C1251.25 574.255 1248.68 569.279 1249.53 563.328C1249.79 561.54 1250.63 559.849 1251.19 558.093C1253.56 559.231 1252.75 561.475 1252.78 563.231C1252.85 572.401 1256.65 579.165 1265.07 583.197C1266.6 583.913 1268 584.986 1269.59 585.473C1273.27 586.579 1274.86 589.051 1274.96 592.693C1275.09 597.505 1274.96 602.318 1275.35 607.098C1275.58 609.862 1276.52 612.594 1277.36 615.293C1277.59 616.009 1278.63 617.017 1279.15 616.952C1279.87 616.821 1280.75 615.911 1280.97 615.163C1281.82 612.464 1282.7 609.7 1283.02 606.903C1283.77 601.05 1284.29 595.132 1284.65 589.246C1284.75 587.652 1283.9 585.994 1283.61 584.368C1282.47 578.514 1282.27 572.076 1285.27 567.328C1289.82 560.109 1287.41 553.768 1285.69 546.971C1285.49 546.158 1285.88 545.215 1285.98 544.337C1286.83 544.793 1288.23 545.118 1288.42 545.768C1289.56 549.735 1290.63 553.735 1291.25 557.833C1291.77 561.28 1293.72 568.986 1295.51 572.076C1300.45 580.693 1303.96 589.929 1306.4 599.522C1306.99 601.83 1306.89 604.432 1306.73 606.838C1306.57 609.05 1305.33 610.806 1302.96 611.228C1300.45 611.684 1298.5 610.545 1297.62 608.237C1296.06 604.107 1294.96 599.847 1293.36 595.749C1292.32 593.115 1290.86 590.676 1289.4 588.238C1289.01 587.587 1287.97 587.295 1287.22 586.872C1286.96 587.815 1286.34 588.823 1286.5 589.668C1288.03 597.831 1286.27 605.863 1285.59 613.927C1285.49 615.163 1284.81 616.399 1284.26 617.569C1282.11 621.894 1277.88 622.187 1275.15 618.122C1272.94 614.838 1271.54 611.228 1271.54 607.196C1271.54 604.985 1271.54 602.773 1271.54 600.562H1271.28ZM1412.45 591.619C1415.44 590.221 1418.01 589.051 1420.58 587.847C1422.37 587.002 1422.82 585.831 1422.27 583.783C1419.73 573.897 1417.23 563.979 1415.05 553.995C1413.13 545.28 1411.57 536.468 1410.07 527.688C1409.19 522.452 1408.67 517.184 1408.06 511.916C1407.86 510.323 1407.41 509.315 1405.55 509.12C1403.21 508.892 1401.88 507.364 1401.33 505.152C1400.35 501.283 1399.24 497.413 1398.53 493.478C1398.24 491.982 1397.75 491.657 1396.38 491.429C1387.44 489.966 1378.53 488.405 1369.62 486.909C1369 486.812 1368.38 486.844 1367.77 486.812C1367.93 487.397 1368.06 488.047 1368.32 488.6C1372.61 497.771 1377 506.876 1381.23 516.079C1384.12 522.387 1384.35 522.517 1390.56 519.363C1390.92 519.2 1391.24 518.973 1391.57 518.778C1395.05 516.631 1395.44 516.761 1397.29 520.501C1399.83 525.541 1401.2 530.907 1401.85 536.468C1402.4 541.346 1402.11 541.801 1397.13 543.004C1396.25 543.232 1395.37 543.459 1394.5 543.719C1392.9 544.207 1392.61 545.15 1393.23 546.679C1396.51 555.003 1399.76 563.361 1402.98 571.718C1403.93 574.124 1404.74 576.563 1405.65 579.002C1406.89 582.287 1408.02 585.571 1409.49 588.758C1410.01 589.863 1411.31 590.611 1412.45 591.685V591.619ZM1383.9 472.959C1388.45 472.341 1395.08 471.951 1401.49 470.455C1406.3 469.317 1410.79 466.78 1415.44 464.829C1417.26 464.049 1417.65 462.748 1417.29 460.764C1416.06 453.35 1415.02 445.903 1413.94 438.456C1413.52 435.497 1413.23 432.538 1412.77 429.579C1412.71 429.156 1411.89 428.473 1411.54 428.538C1404.19 430.197 1396.77 431.14 1389.23 431.14C1387.15 431.14 1384.94 431.823 1383.02 432.701C1380.58 433.839 1378.4 435.465 1376.09 436.896C1373.85 438.294 1371.18 439.562 1370.6 442.359C1368.84 450.976 1367.38 459.659 1365.78 468.341C1365.36 470.617 1366.24 471.756 1368.61 471.886C1373 472.146 1377.42 472.504 1383.9 472.991V472.959ZM1157.31 529.346C1160.23 528.013 1161.96 530.094 1163.42 532.273C1164.69 534.191 1165.83 536.305 1166.61 538.451C1167.58 541.118 1168.17 543.915 1168.88 546.679C1169.34 548.5 1170.05 549.313 1172.17 548.565C1176.1 547.166 1179.97 545.833 1183.16 542.907C1186.51 539.85 1190.05 537.021 1193.5 534.126C1193.89 533.801 1194.31 533.281 1194.73 533.248C1198.12 533.118 1196.72 531.167 1196.17 529.639C1193.01 520.989 1189.89 512.339 1186.57 503.786C1185.43 500.827 1184.46 497.608 1181.34 495.819C1180.62 495.397 1180.17 494.454 1179.71 493.706C1177.6 490.161 1175.55 486.584 1173.4 483.04C1173.11 482.584 1172.43 482.357 1171.94 481.999C1171.74 482.552 1171.29 483.17 1171.35 483.69C1171.97 488.275 1172.69 492.86 1173.3 497.478C1173.43 498.388 1173.17 499.364 1173.11 500.307C1172.2 499.819 1171.06 499.494 1170.38 498.779C1169.21 497.478 1169.47 494.519 1166.28 495.917C1165.79 496.112 1164.59 494.876 1163.84 494.226C1161.5 492.177 1159.22 490.064 1156.88 488.015C1156.52 487.722 1155.97 487.657 1155.48 487.495C1155.42 487.982 1155.16 488.535 1155.29 488.958C1155.65 490.194 1156.04 491.462 1156.65 492.568C1158.8 496.405 1161.08 500.177 1163.22 504.014C1163.61 504.73 1164 505.835 1163.74 506.421C1163.52 506.876 1162.25 506.908 1161.47 507.071C1159.74 507.461 1157.99 507.721 1156.26 508.177C1152.88 509.055 1149.57 510.095 1146.15 510.876C1144.53 511.233 1142.8 511.071 1141.11 511.168C1139.19 511.266 1138.48 512.079 1139.52 513.932C1140.85 516.306 1141.86 518.94 1143.52 521.054C1146.96 525.476 1150.67 529.769 1157.4 529.379L1157.31 529.346ZM1340.42 581.018C1340.29 583.978 1341.52 585.311 1344.26 585.669C1345.04 585.766 1345.75 586.059 1346.5 586.254C1348.22 586.742 1350.27 588.042 1351.6 587.522C1352.71 587.099 1352.97 584.498 1353.62 582.904C1358.3 571.686 1363.41 560.597 1367.57 549.15C1370.37 541.508 1374.82 535.135 1379.67 528.891C1381.42 526.647 1381.55 524.989 1380.42 522.615C1376.64 514.648 1373 506.616 1369.26 498.649C1368.97 497.998 1368.42 497.51 1367.99 496.925C1367.64 497.575 1367.21 498.226 1366.95 498.909C1364.25 505.803 1361.65 512.729 1358.92 519.591C1355.96 527.037 1356.16 527.525 1363.8 529.606C1366.53 530.354 1366.92 530.907 1365.59 533.379C1363.64 537.021 1361.56 540.63 1359.34 544.142C1357.65 546.841 1355.96 547.362 1353.17 545.638C1350.66 544.11 1350.21 545.215 1349.62 547.362C1348.12 552.857 1346.4 558.288 1344.87 563.784C1343.31 569.507 1341.88 575.263 1340.39 580.986L1340.42 581.018ZM1313.66 471.138C1313.53 476.536 1314.96 477.706 1319.18 475.593C1324.29 473.056 1329.1 469.967 1334.04 467.17C1336.52 465.772 1338.89 464.081 1341.56 463.171C1349.07 460.602 1354.76 455.594 1360.12 450.066C1361.72 448.407 1363.57 446.944 1364.87 445.058C1366.24 443.139 1367.51 440.928 1367.96 438.684C1368.16 437.643 1366.4 436.18 1365.42 434.977C1363.41 432.44 1361.29 429.969 1359.25 427.498C1356.74 424.506 1355.44 424.506 1353.59 428.083C1346.17 442.554 1333.88 452.602 1321.91 462.91C1320.74 463.919 1319.35 465.024 1317.95 465.252C1313.88 465.902 1313.75 468.829 1313.66 471.138ZM1390.66 412.637C1390.92 412.572 1391.18 412.474 1391.41 412.409C1390.17 408.799 1389.16 405.092 1387.6 401.613C1386.56 399.271 1384.03 398.426 1381.68 399.141C1376.38 400.702 1371.9 403.564 1369.98 409.06C1368.32 413.84 1366.04 418.1 1361.91 421.156C1360.68 422.1 1360.74 422.912 1361.65 424.051C1364.58 427.53 1367.41 431.075 1370.37 434.522C1370.73 434.944 1371.73 435.237 1372.25 435.042C1379.25 432.538 1383.93 427.595 1386.85 420.896C1387.31 419.856 1387.64 418.295 1388.48 417.905C1390.98 416.734 1390.76 414.75 1390.66 412.669V412.637ZM1409.39 368.931C1409.42 368.639 1409.49 368.379 1409.52 368.086C1411.34 368.086 1413.16 368.086 1414.95 368.086C1415.28 368.086 1415.73 367.826 1415.83 367.566C1415.93 367.371 1415.6 366.818 1415.37 366.72C1411.76 365.029 1409.06 361.257 1404.35 362.103C1403.63 362.233 1402.82 361.842 1402.07 361.615C1391.5 358.493 1380.87 355.631 1370.43 352.184C1365.59 350.591 1360.55 348.835 1356.97 344.705C1356.61 344.315 1355.6 344.055 1355.12 344.25C1353.33 344.965 1351.6 345.908 1349.85 346.754C1348.55 347.372 1348.32 348.282 1349.46 349.095C1353.23 351.794 1356.77 355.078 1360.97 356.867C1367.86 359.761 1375.05 362.135 1382.3 363.891C1391.21 366.037 1400.32 367.338 1409.33 368.996L1409.39 368.931ZM1436.32 451.366C1435.83 449.773 1435.63 448.44 1435.08 447.302C1432.28 441.611 1429.42 435.985 1426.53 430.327C1426.4 430.034 1425.62 429.774 1425.32 429.904C1422.72 431.075 1420.12 432.278 1417.68 433.676C1417.16 433.969 1416.8 435.27 1416.93 435.985C1418.46 445.578 1420.06 455.139 1421.78 464.699C1422.23 467.203 1422.76 467.301 1424.67 465.349C1428.02 461.902 1431.31 458.423 1434.49 454.813C1435.37 453.805 1435.8 452.407 1436.35 451.334L1436.32 451.366ZM1386.95 330.885C1386.72 330.689 1386.33 330.104 1385.91 330.072C1381.94 329.681 1377.88 328.868 1373.98 329.291C1372.22 329.486 1370.6 332.12 1369.36 333.974C1369.16 334.267 1371.12 336.445 1372.38 337.258C1382.89 343.957 1394.98 346.136 1406.76 349.258C1408.51 349.713 1409.13 349.193 1408.41 347.274C1405.36 339.209 1398.46 335.307 1389.68 334.364C1387.77 334.169 1385 334.949 1386.92 330.917L1386.95 330.885ZM1410.24 356.054C1409.94 354.851 1410.79 353.257 1408.32 352.672C1399.37 350.558 1390.5 348.25 1381.68 345.648C1378.24 344.64 1374.99 342.819 1371.9 340.9C1368.94 339.079 1366.34 337.486 1363.47 340.9C1363.12 341.323 1362.3 341.388 1361.69 341.648C1361.13 341.908 1360.61 342.201 1360.09 342.494C1360.58 343.047 1360.97 343.762 1361.56 344.087C1363.51 345.128 1365.42 346.233 1367.51 346.981C1374.86 349.518 1382.24 352.022 1389.65 354.331C1395.34 356.087 1401.13 357.647 1406.92 359.111C1409.81 359.826 1410.27 359.273 1410.24 356.054ZM1430.14 421.937C1429.91 421.287 1429.78 420.896 1429.65 420.539C1426.92 413.059 1423.18 406.133 1418.66 399.597C1417.55 398.003 1416.12 396.67 1414.79 395.272C1414.46 394.914 1413.91 394.784 1413.45 394.556C1413.39 395.109 1413.19 395.662 1413.26 396.215C1413.85 401.483 1414.59 406.751 1415.08 412.019C1415.54 417.059 1415.7 422.1 1416.06 427.14C1416.15 428.603 1416.32 430.392 1418.5 429.319C1422.07 427.53 1425.58 425.547 1429.03 423.53C1429.58 423.205 1429.88 422.36 1430.17 421.904L1430.14 421.937ZM1328.65 599.001C1328.65 599.001 1328.65 599.099 1328.65 599.164C1332.78 598.774 1336.91 598.156 1341.04 598.091C1345.46 597.993 1348.22 595.587 1350.53 592.302C1350.73 592.01 1350.53 590.969 1350.27 590.904C1346.82 589.766 1343.38 588.693 1339.9 587.685C1339.54 587.587 1339.02 588.042 1338.56 588.238C1336.45 589.116 1334.27 589.929 1332.19 590.904C1328.68 592.497 1325.17 594.123 1321.72 595.879C1320.74 596.367 1320.06 597.44 1319.25 598.253C1320.42 598.513 1321.59 598.936 1322.79 599.001C1324.74 599.131 1326.7 599.034 1328.61 599.034L1328.65 599.001ZM1303.35 604.334C1303.25 603.554 1303.28 602.643 1303.02 601.765C1300.26 592.335 1297.3 582.97 1292.23 574.417C1291.57 573.344 1290.66 572.368 1289.69 571.523C1289.36 571.23 1288.39 571.23 1288.06 571.523C1284.65 574.222 1285.1 581.083 1288.94 583.23C1292.58 585.246 1294.79 588.303 1296.09 592.042C1297.3 595.457 1298.21 598.969 1299.35 602.416C1299.87 604.009 1300.58 605.538 1301.33 607.001C1301.43 607.163 1302.83 607.033 1302.99 606.741C1303.31 606.09 1303.22 605.245 1303.31 604.334H1303.35ZM1399.44 536.923C1397.81 532.143 1396.35 527.753 1394.79 523.395C1394.59 522.842 1394.07 522.192 1393.55 522.029C1390.11 520.956 1385.62 525.314 1386.66 528.761C1387.67 532.11 1389.03 535.362 1390.04 538.712C1390.53 540.338 1391.44 540.663 1392.94 540.338C1394.2 540.045 1395.57 540.077 1396.71 539.525C1397.65 539.069 1398.33 538.029 1399.41 536.923H1399.44ZM1401.55 371.435C1400.61 371.338 1399.47 371.24 1398.3 371.11C1397.2 370.98 1396.45 371.045 1396.94 372.476C1397.88 375.305 1397.68 378.037 1396.55 380.801C1396.35 381.289 1397.16 382.817 1397.49 382.817C1399.96 382.752 1402.5 382.752 1404.8 382.069C1407.05 381.386 1408.54 376.476 1407.96 373.517C1407.31 370.297 1404.71 371.858 1402.92 371.435C1402.56 371.338 1402.14 371.435 1401.52 371.435H1401.55ZM1198.18 537.573C1197.86 536.11 1197.73 535.525 1197.6 534.939C1197.21 535.2 1196.75 535.427 1196.43 535.752C1189.92 542.711 1182.9 548.987 1173.34 551.491C1171.26 552.044 1172.04 553.247 1172.49 554.483C1173.08 556.044 1173.92 555.946 1175.19 555.199C1178.77 553.085 1182.44 551.166 1185.99 548.987C1188.85 547.231 1191.81 545.508 1194.28 543.264C1196.07 541.638 1197.11 539.199 1198.18 537.541V537.573ZM1294.66 527.167C1294.08 525.574 1293.27 523.135 1292.32 520.761C1292.1 520.208 1291.54 519.786 1291.15 519.298C1290.79 519.916 1290.27 520.469 1290.08 521.151C1288.91 525.346 1287.09 529.119 1283.58 531.915C1283.25 532.175 1283.12 532.696 1282.89 533.118C1284.88 534.159 1286.83 535.98 1288.84 536.045C1291.35 536.11 1294.73 530.777 1294.66 527.167ZM1401.2 493.478C1402.37 497.25 1403.28 500.437 1404.38 503.591C1404.61 504.274 1405.49 504.762 1406.07 505.347C1406.4 504.599 1406.95 503.917 1407.05 503.136C1407.54 499.592 1407.7 496.015 1408.38 492.502C1408.84 490.161 1408.15 490.064 1406.33 490.746C1405.49 491.039 1404.48 491.007 1403.73 491.429C1402.82 491.917 1402.07 492.763 1401.16 493.511L1401.2 493.478ZM1356.22 542.159C1356.22 542.159 1356.94 541.898 1357.17 541.508C1358.6 539.199 1359.99 536.858 1361.29 534.452C1361.43 534.224 1360.9 533.313 1360.51 533.151C1355.67 530.875 1354.95 531.2 1353.13 536.175C1353 536.533 1352.87 536.891 1352.74 537.281C1351.73 540.175 1352.97 542.028 1356.29 542.159H1356.22ZM1383.57 371.598C1383.93 372.866 1384.19 373.874 1384.48 374.915C1385.13 374.134 1385.78 373.387 1386.4 372.606C1386.63 372.313 1386.89 371.988 1387.02 371.631C1387.31 370.883 1387.51 370.07 1387.73 369.289C1386.72 369.224 1385.55 368.834 1384.77 369.224C1384.12 369.549 1383.96 370.818 1383.6 371.598H1383.57Z" fill="#3A352F"/>
<path d="M877.313 304.822C885.875 307.727 893.29 301.42 901.546 298.668C902.349 298.401 903.037 296.91 903.266 295.878C904.069 292.476 904.489 288.959 905.33 285.558C905.636 284.373 906.554 282.691 907.433 282.538C908.426 282.385 910.185 283.417 910.682 284.373C911.943 286.781 912.899 289.38 913.587 292.017C914.313 294.808 915.498 296.107 918.67 295.648C925.894 294.578 933.272 294.196 940.419 292.744C944.012 292.017 947.338 289.724 950.663 287.927C951.084 287.698 951.084 286.016 950.778 285.137C947.452 275.467 943.974 265.873 940.725 256.202C939.502 252.609 938.852 248.825 937.935 245.117C937.629 243.932 937.323 242.748 936.826 241.639C934.992 237.473 935.03 237.702 930.634 238.772C924.251 240.301 917.868 241.754 911.408 242.709C905.483 243.627 900.744 246.417 897.036 250.851C894.093 254.329 891.685 258.266 889.009 261.974C884.919 267.746 879.53 270.23 872.267 270.459C860.074 270.88 850.557 265.758 843.906 256.508C834.426 243.321 831.789 228.643 839.548 213.43C840.695 211.213 842.683 209.379 844.517 207.62C845.014 207.162 846.39 207.62 847.384 207.62C847.193 208.538 847.269 209.608 846.811 210.372C845.664 212.322 844.135 214.042 843.027 216.03C832.936 233.956 843.027 258.19 862.176 265.605C870.586 268.854 880.141 266.484 885.569 259.26C887.786 256.355 889.697 253.221 891.838 250.239C896.08 244.276 901.623 240.378 909.038 239.231C914.733 238.352 920.39 236.938 926.047 235.867C933.233 234.491 941.91 223.483 941.757 216.297C941.681 213.086 941.681 209.876 941.795 206.665C941.795 205.977 942.636 205.327 943.095 204.677C943.668 205.098 944.356 205.442 944.777 206.015C945.121 206.474 945.312 207.124 945.35 207.735C946 216.221 946.344 224.706 939.884 231.472C937.629 233.842 937.744 235.791 939.234 238.314C940.152 239.881 940.84 241.601 941.375 243.321C946.267 258.228 951.045 273.135 955.976 288.004C956.702 290.144 956.244 291.023 954.256 291.788C950.74 293.202 947.299 294.808 943.859 296.451C943.324 296.719 942.636 297.407 942.636 297.942C942.56 311.32 942.445 324.698 942.598 338.076C942.636 342.778 943.324 347.479 943.898 352.181C944.356 355.735 950.09 359.252 953.262 357.799C954.065 357.417 954.524 355.582 954.6 354.398C954.982 348.32 955.021 348.014 960.945 350.04C967.137 352.142 973.177 354.742 979.178 357.417C981.28 358.373 982.962 358.564 985.179 357.761C992.365 355.162 999.627 353.213 1007.27 352.142C1012.89 351.378 1018.32 348.741 1023.75 346.753C1024.7 346.409 1025.31 345.071 1026.08 344.154C1025.12 343.771 1024.2 343.389 1023.21 343.083C1016.98 341.096 1010.64 339.299 1004.48 337.044C1001.27 335.859 998.098 336.242 995.728 337.847C989.651 341.86 982.656 342.625 975.89 344.345C970.73 345.644 965.494 346.676 960.257 347.785C959.454 347.938 958.575 347.67 957.696 347.594C958.002 346.791 958.078 345.568 958.652 345.262C961.174 343.963 963.774 342.548 966.488 341.822C972.412 340.331 978.451 339.414 984.376 337.923C987.549 337.121 990.53 335.515 993.626 334.254C997.792 332.572 1001.92 331.158 1006.43 333.145C1008.65 334.101 1011.06 334.674 1013.43 335.286C1015.49 335.821 1016.22 334.865 1015.87 332.801C1014.76 325.998 1016.75 322.175 1023.29 320.494C1033 318.009 1042.59 318.315 1051.5 323.781C1053.64 325.119 1054.86 326.915 1054.63 329.438C1053.75 339.758 1052.76 350.04 1051.88 360.36C1051.69 362.539 1050.92 364.374 1048.67 364.871C1044.08 365.864 1039.42 366.667 1034.75 367.432C1033.91 367.585 1032.8 367.432 1032.08 367.011C1031.24 366.514 1030.7 365.559 1030.05 364.794C1030.93 364.412 1031.77 363.8 1032.69 363.648C1036.59 362.998 1040.53 362.539 1044.42 361.928C1046.83 361.545 1048.06 360.284 1048.25 357.647C1048.67 350.957 1049.39 344.307 1050.01 337.656C1050.16 335.745 1049.81 334.713 1047.48 335.668C1040.11 338.688 1032.46 337.426 1024.89 336.7C1023.67 336.586 1022.52 336.05 1021.34 335.898C1020.88 335.821 1020.34 336.242 1019.85 336.433C1020.11 336.93 1020.23 337.656 1020.61 337.847C1021.68 338.382 1022.87 338.764 1024.05 339.108C1028.07 340.217 1029.29 342.166 1028.91 346.18C1028.56 349.925 1028.37 353.71 1028.52 357.455C1028.71 362.921 1029.33 368.387 1029.67 373.853C1029.86 376.529 1028.41 378.096 1025.96 378.937C1014.53 382.721 1003.11 386.467 991.753 390.442C988.16 391.703 984.796 393.538 981.28 395.029C977.916 396.481 975.011 395.87 971.839 393.767C968.322 391.436 964.309 389.754 960.372 388.187C957.161 386.926 955.288 385.32 955.441 381.536C955.556 378.363 954.906 375.153 954.753 371.942C954.677 369.802 953.683 369.152 951.657 368.922C944.853 368.12 938.049 367.202 931.246 366.209C925.206 365.329 924.901 364.794 924.06 358.793C921.957 343.695 919.817 328.635 917.6 313.537C916.988 309.485 916.186 305.434 915.421 301.382C915.307 300.694 915.077 299.585 914.619 299.433C911.064 298.286 910.643 295.113 909.688 292.247C909.497 291.75 909.191 291.291 908.923 290.794C908.694 291.367 908.426 291.903 908.235 292.476C907.891 293.661 907.471 294.846 907.356 296.031C907.012 300.044 905.598 302.911 901.011 303.408C898.985 303.637 898.221 305.013 898.488 307.383C898.756 309.676 897.992 312.123 897.648 314.454C897.38 316.251 896.883 318.009 896.692 319.844C895.431 333.642 894.322 347.441 893.023 361.239C892.564 366.247 890.385 369.801 885.187 371.98C878.842 374.656 872.802 377.867 865.961 379.051C863.935 379.396 861.488 380.045 860.724 377.867C860.227 376.452 861.603 374.427 862.215 372.706C862.368 372.324 862.826 372.057 863.132 371.713C872.955 360.207 871.35 364.565 871.044 349.276C870.777 336.777 869.553 324.316 868.904 311.817C868.751 309.179 867.948 308.262 865.234 307.803C857.704 306.542 850.251 304.898 842.835 303.178C838.937 302.261 837.905 300.121 839.204 296.336C841.23 290.259 843.523 284.258 845.511 278.18C846.543 275.008 847.116 271.683 848.034 268.472C848.263 267.746 849.066 267.172 849.563 266.522C850.098 267.287 851.168 268.09 851.13 268.816C850.977 271.53 850.786 274.32 850.021 276.919C848.11 283.532 846.046 290.068 843.753 296.528C842.835 299.05 843.676 299.777 845.893 300.273C855.87 302.376 865.693 305.434 877.16 304.784L877.313 304.822ZM1025.27 364.794C1025.27 364.794 1025.01 364.794 1024.89 364.794C1024.89 361.584 1025.12 358.373 1024.85 355.2C1024.47 351.034 1024.36 351.187 1020.46 352.41C1015.53 353.977 1010.6 355.888 1005.51 356.538C997.372 357.608 989.842 360.131 982.35 363.227C980.592 363.953 980.439 364.565 980.477 366.056C980.592 373.509 980.745 380.963 980.707 388.416C980.707 390.213 980.936 390.633 982.656 390.022C988.351 387.919 994.085 385.893 999.78 383.829C1007.69 381.001 1015.57 378.096 1023.48 375.344C1025.43 374.656 1026.15 373.624 1025.89 371.636C1025.58 369.381 1025.47 367.088 1025.27 364.794ZM892.755 330.928C892.755 326.992 892.717 323.934 892.755 320.876C892.793 318.888 892.335 318.315 890.079 318.697C886.181 319.347 882.205 319.538 878.268 319.653C873.949 319.767 873.796 319.653 873.949 323.819C874.293 333.26 874.675 342.701 875.211 352.142C875.593 359.214 876.128 366.209 870.012 371.522C869.553 371.904 869.515 372.745 869.286 373.394C870.012 373.394 870.853 373.547 871.465 373.28C875.096 371.674 878.536 369.572 882.282 368.311C887.098 366.667 888.78 363.265 889.315 358.679C890.423 349.123 891.685 339.605 892.755 330.928ZM951.351 365.444C951.733 365.1 952.613 364.336 953.53 363.571C952.727 362.845 952.039 361.889 951.084 361.469C949.86 360.934 948.446 360.857 947.108 360.513C943.171 359.558 940.61 357.494 940.305 353.06C939.999 348.817 939.158 344.612 938.89 340.37C938.432 332.457 938.164 324.545 937.935 316.633C937.858 314.722 937.667 313.613 935.412 314.76C932.087 316.48 928.647 316.136 925.13 315.333C921.461 314.493 921.422 314.607 921.957 318.238C922.913 324.583 923.907 330.89 924.824 337.235C925.894 344.612 926.965 351.989 927.959 359.405C928.188 361.048 928.57 362.348 930.519 362.616C937.17 363.495 943.821 364.412 951.389 365.444H951.351ZM977.496 374.847C977.496 374.847 977.381 374.847 977.343 374.847C977.343 371.33 977.228 367.814 977.381 364.336C977.458 362.386 976.77 361.125 975.011 360.36C970.233 358.296 965.455 356.27 960.716 354.206C958.881 353.404 957.734 353.633 957.849 356.003C958.346 364.527 958.728 373.05 959.378 381.574C959.454 382.721 960.678 384.212 961.786 384.785C965.532 386.773 969.584 388.263 973.291 390.327C975.776 391.703 976.578 390.939 976.731 388.531C976.999 383.982 977.228 379.434 977.496 374.847ZM1037.09 334.216C1040.72 333.337 1044.12 332.649 1047.41 331.578C1048.36 331.272 1048.97 329.973 1049.74 329.132C1048.86 328.368 1048.06 327.45 1047.06 326.915C1046.18 326.418 1044.27 326.418 1044.23 325.998C1043.7 321.678 1040.53 323.437 1038.31 323.36C1035.1 323.246 1031.89 323.246 1028.71 323.551C1026.5 323.781 1024.24 324.392 1022.18 325.271C1021.11 325.73 1019.85 327.221 1019.89 328.215C1019.92 329.17 1021.38 330.623 1022.45 330.89C1027.26 332.19 1032.19 333.145 1037.09 334.216ZM933.73 298.057C928.914 298.324 924.327 298.515 919.779 298.897C919.129 298.936 918.02 300.044 918.059 300.579C918.556 309.027 920.39 310.747 928.914 311.244C929.679 311.282 930.443 311.358 931.208 311.358C936.253 311.358 937.782 309.906 937.973 305.013C937.973 304.096 937.973 303.178 938.126 302.261C938.661 297.942 938.661 297.942 934.38 298.018C934.074 298.018 933.768 298.018 933.73 298.018V298.057ZM881.517 309.409C881.517 309.218 881.441 309.027 881.403 308.835C879.262 308.835 877.122 308.683 874.981 308.912C874.064 309.027 872.458 310.135 872.535 310.479C872.917 312.237 873.682 315.333 874.446 315.372C879.415 315.601 884.461 315.448 889.391 314.798C892.335 314.416 894.055 312.046 894.437 308.988C894.628 307.651 894.169 307.077 892.602 307.383C888.933 308.147 885.187 308.721 881.479 309.371L881.517 309.409Z" fill="#3A352F"/>
<path d="M928.761 88.942C927.538 95.1724 926.467 101.403 925.053 107.595C924.709 109.124 923.715 110.806 922.53 111.761C917.905 115.316 920.466 121.317 917.6 125.407C917.37 125.751 917.829 126.898 918.288 127.318C923.868 132.516 925.206 139.741 927.155 146.544C929.296 154.151 930.404 162.025 930.29 170.013C930.213 173.683 935.182 178.881 938.737 179.302C939.043 179.302 939.463 179.378 939.616 179.225C942.33 176.282 947.108 175.862 948.713 171.466C950.204 167.376 953.759 165.312 957.772 165.924C964.92 166.994 970.462 164.548 975.546 159.884C978.336 157.323 981.471 155.145 984.261 152.584C986.707 150.329 989.306 148.608 992.288 147.003C997.027 144.442 1000.89 140.276 1005.09 136.759C1006.01 135.995 1006.77 134.963 1007.65 134.122C1009.11 132.746 1010.29 133.052 1011.32 134.772C1013.27 138.059 1015.45 141.193 1017.36 144.48C1020.19 149.296 1019.46 151.284 1016.18 155.794C1013.46 159.54 1010.18 160.075 1006.09 160.649C1002.15 161.222 997.983 162.598 994.734 164.815C987.586 169.708 980.897 175.326 974.094 180.754C973.214 181.442 972.603 182.704 972.221 183.812C970.539 188.705 966.984 191.954 962.894 194.782C958.346 197.955 955.135 197.381 952.383 192.527C951.16 190.386 950.433 191.113 948.981 192.106C942.98 196.235 936.826 200.172 930.787 204.3C927.767 206.364 924.977 208.772 921.919 210.721C918.441 212.938 914.733 214.773 911.178 216.799C909.917 217.525 908.655 217.984 909.114 220.201C910.031 224.558 908.044 227.119 903.648 228.724C901.775 229.412 899.979 230.483 898.335 231.706C895.66 233.693 892.143 233.693 889.582 231.285C887.365 229.183 885.416 226.851 883.237 224.711C877.962 219.513 870.967 217.448 864.584 214.276C855.831 209.957 846.81 205.981 840.695 197.84C839.854 196.731 839.013 195.126 839.127 193.865C840.962 175.556 840.274 156.979 845.243 139.053C845.511 138.021 845.664 136.874 846.199 135.995C849.906 129.994 851.053 123.419 851.321 116.501C851.435 113.825 850.938 113.634 848.683 114.246C846.925 114.743 845.09 114.934 843.256 115.087C839.51 115.469 837.713 113.634 839.242 110.232C840.733 106.983 843.103 104.078 845.32 101.212C846.619 99.5299 848.263 98.6125 845.855 96.1662C843.294 93.6053 844.517 88.1393 848.033 86.2282C851.626 84.2788 852.467 81.6032 852.964 77.7809C853.69 72.3914 854.799 66.849 857.054 61.9565C863.934 46.8965 881.402 43.4564 893.481 54.4265C895.124 55.9172 896.233 57.0639 898.794 56.911C901.049 56.7963 903.534 57.943 905.712 58.975C911.178 61.6124 916.721 63.9441 920.963 68.722C926.162 74.5701 928.799 80.9916 928.799 88.8656L928.761 88.942ZM862.596 183.468C861.985 174.562 864.278 166.688 867.451 159.005C868.101 157.438 868.827 154.839 871.082 155.833C873.605 156.941 871.541 159.005 871.006 160.534C867.757 169.325 865.005 178.155 865.845 187.711C866.037 189.966 866.189 192.298 865.998 194.553C865.731 197.458 867.26 198.452 869.668 198.643C876.93 199.178 884.04 198.299 890.576 195.05C892.907 193.903 895.01 191.915 896.615 189.89C901.355 183.85 906.133 177.735 913.242 174.486C916.415 173.033 917.294 171.275 916.835 168.217C915.994 162.789 915.115 157.4 914.427 151.972C914.312 151.093 915 150.137 915.306 149.22C915.956 149.87 917.065 150.443 917.256 151.208C918.555 157.285 919.778 163.401 920.772 169.555C921.078 171.466 920.772 173.071 923.601 173.033C926.276 173.033 927.232 172.001 926.85 169.517C925.474 161.107 924.289 152.698 922.607 144.366C921.804 140.505 920.084 136.836 918.593 133.166C917.944 131.523 916.682 129.153 914.656 130.529C910.414 133.357 904.566 134.389 903.534 140.964C903.037 144.098 900.973 147.385 897.188 147.232C893.672 147.118 893.404 148.838 893.404 151.361C893.404 158.546 893.366 165.732 893.404 172.88C893.404 175.479 893.901 178.04 893.94 180.64C893.94 181.289 893.06 181.977 892.563 182.665C892.067 182.13 891.264 181.672 891.187 181.098C890.499 177.199 889.582 173.301 889.429 169.364C889.162 162.675 889.314 155.947 889.353 149.22C889.353 148.035 889.276 146.162 889.926 145.818C892.372 144.404 891.531 142.799 891.073 140.849C890.767 139.626 891.035 137.447 891.837 136.912C893.748 135.689 894.245 137.715 894.933 139.053C895.392 140.008 896.004 140.926 896.653 141.728C896.997 142.149 897.647 142.302 898.144 142.607C898.87 140.964 899.788 139.397 900.17 137.677C900.285 137.218 898.832 135.957 897.991 135.804C889.085 134.504 884.881 129.803 884.766 120.782C884.766 119.559 884.689 118.336 884.766 117.113C884.919 115.24 884.422 114.36 882.243 114.552C877.848 115.01 875.21 112.411 874.216 108.551C873.452 105.684 873.337 102.549 873.528 99.5681C873.834 94.3697 875.669 92.3821 880.561 91.5412C881.708 91.3501 882.969 91.9999 884.193 92.2675C883.428 93.2613 882.893 94.5991 881.899 95.1342C876.739 97.9627 875.134 104.155 878.688 108.856C879.338 109.735 880.523 110.423 881.632 110.729C887.786 112.564 887.824 112.526 888.397 118.794C888.474 119.712 888.512 120.629 888.55 121.546C889.047 131.943 897.456 133.816 904.413 130.911C911.369 128.044 914.924 122.961 915.383 115.507C915.497 113.711 915.536 111.188 916.644 110.385C919.052 108.589 918.823 107.213 917.485 105.072C916.262 103.161 916.797 101.632 919.281 102.014C920.658 102.244 921.154 102.626 920.963 100.791C920.849 99.8357 921.69 98.7654 922.186 97.8098C922.683 96.7778 923.677 95.8604 923.83 94.7902C925.168 85.7313 924.786 77.1693 917.37 70.2891C912.401 65.6641 906.286 63.4472 900.246 60.8862C899.673 60.6569 898.679 60.848 898.106 61.192C895.239 63.0649 893.71 61.6507 892.219 59.2044C891.379 57.8283 890.194 56.4523 888.818 55.5732C876.968 47.8521 866.495 53.2033 860.571 63.9058C857.704 69.066 856.366 74.9906 856.366 81.0681C856.366 84.317 855.181 87.0309 852.085 88.598C850.136 89.5918 847.881 91.0061 848.645 93.3377C849.448 95.7458 851.894 94.5608 853.843 94.4462C854.799 94.3697 855.793 95.3635 856.787 95.8604C856.213 96.7778 855.793 97.8863 854.99 98.5743C852.964 100.409 850.48 101.785 848.683 103.811C846.734 105.951 845.32 108.627 843.676 111.035C846.428 110.309 849.18 109.506 851.97 108.895C853.155 108.627 854.455 108.703 855.678 108.627C855.716 109.927 855.984 111.226 855.793 112.488C855.449 115.048 854.875 117.571 854.455 120.132C854.378 120.553 854.608 121.011 854.684 121.432C855.105 121.088 855.602 120.82 855.946 120.438C856.251 120.094 856.29 119.521 856.595 119.253C857.322 118.565 858.124 117.992 858.927 117.38C859.577 118.336 860.38 119.215 860.838 120.209C861.144 120.858 860.915 121.699 860.991 122.464C861.488 128.388 863.628 133.74 866.725 138.709C867.221 139.473 868.254 139.932 869.056 140.505C869.362 139.511 869.935 138.518 869.859 137.6C869.706 135.192 869.094 132.822 868.942 130.376C868.903 129.497 869.591 128.541 869.935 127.662C870.776 128.197 871.846 128.541 872.382 129.268C873.07 130.223 873.146 131.599 873.758 132.631C876.089 136.339 878.459 140.046 880.982 143.639C881.517 144.404 882.702 144.71 883.581 145.207C883.772 144.098 884.231 142.951 884.116 141.881C883.657 138.403 882.855 135.001 882.396 131.523C882.281 130.682 882.931 129.726 883.237 128.809C884.116 129.459 885.645 129.994 885.798 130.796C886.754 135.421 887.671 140.085 888.015 144.786C888.359 149.258 885.492 150.978 881.555 148.647C879.376 147.385 877.656 145.321 875.86 143.448C874.675 142.187 874.14 141.04 872.764 143.487C871.197 146.353 869.286 146.544 866.839 144.48C865.463 143.334 864.202 141.881 863.361 140.276C861.603 136.912 859.921 133.472 858.659 129.879C857.704 127.089 856.443 127.471 854.799 128.924C853.882 129.726 852.964 130.644 852.506 131.714C850.938 135.154 849.142 138.594 848.186 142.263C845.09 153.96 844.02 165.962 843.561 178.04C843.37 182.436 842.988 186.832 842.644 191.266C842.453 193.521 843.408 194.247 845.625 193.903C848.492 193.444 851.397 193.253 854.264 192.909C857.016 192.565 861.029 193.062 862.176 191.495C863.552 189.584 862.52 185.953 862.52 183.506L862.596 183.468ZM951.045 182.168C950.586 180.792 950.128 179.416 949.669 178.04C948.331 178.614 946.802 178.996 945.617 179.837C942.903 181.824 940.495 184.232 937.743 186.105C924.403 195.241 911.025 204.3 897.647 213.397C896.768 214.008 894.36 214.276 897.036 215.996C897.609 216.378 897.915 218.404 897.494 218.824C896.844 219.474 895.124 219.971 894.398 219.589C885.301 214.352 875.21 210.645 867.527 203.191C862.061 197.878 856.366 194.4 848.492 197.037C847.804 197.267 847.078 197.343 846.352 197.458C846.81 198.146 847.116 199.14 847.804 199.522C853.92 203.229 859.959 207.052 866.266 210.454C873.07 214.123 880.829 216.072 886.486 221.768C888.626 223.946 890.614 226.278 892.869 228.304C893.443 228.801 895.392 228.801 895.736 228.342C897.303 226.087 899.558 225.59 902.005 225.017C903.113 224.749 903.992 223.488 904.948 222.647C903.992 221.768 903.075 220.889 902.119 220.048C901.317 219.36 900.476 218.71 899.673 218.022C900.743 217.372 901.737 216.569 902.884 216.072C904.604 215.308 906.63 215.002 908.197 214.047C914.924 209.842 921.537 205.523 928.149 201.165C934.877 196.693 941.451 192.106 948.178 187.634C950.204 186.297 951.198 184.729 951.007 182.168H951.045ZM921.154 176.55C917.141 177.008 913.319 177.62 910.49 180.525C906.668 184.424 903.113 188.59 899.367 192.565C897.724 194.323 896.233 196.731 894.169 197.496C888.512 199.598 882.549 200.936 876.739 202.58C876.089 202.771 875.478 203 874.866 203.229C875.248 203.688 875.516 204.3 876.013 204.567C880.638 207.205 885.263 209.918 890.041 212.327C890.92 212.785 892.64 212.327 893.557 211.715C901.355 206.631 909.114 201.471 916.797 196.196C922.225 192.489 927.499 188.59 932.851 184.806C934.991 183.277 934.303 182.13 932.354 181.175C930.366 180.181 928.379 179.111 926.315 178.231C924.671 177.543 922.913 177.085 921.193 176.511L921.154 176.55ZM960.601 169.44C954.753 169.517 952.039 172.116 952.994 176.359C953.95 180.678 956.129 184.768 955.402 189.469C955.173 191.074 956.167 193.33 958.384 191.954C961.174 190.234 964.041 188.169 965.99 185.57C967.71 183.239 968.245 180.028 969.086 177.161C969.316 176.435 968.819 175.365 968.398 174.6C966.64 171.275 964.194 169.02 960.563 169.478L960.601 169.44ZM1001.23 157.17C1002.76 157.018 1004.14 156.674 1005.47 156.75C1009.91 157.018 1011.74 152.889 1014.95 151.131C1015.3 150.94 1015.37 149.64 1015.07 149.105C1013.39 146.2 1011.63 143.334 1009.72 140.62C1009.41 140.199 1007.81 140.085 1007.31 140.467C1003.45 143.448 999.703 146.544 995.957 149.679C995.46 150.099 994.925 150.864 994.963 151.437C995.04 153.119 999.741 157.17 1001.23 157.17ZM995.575 159.655C994.046 157.667 992.823 156.444 992.097 154.992C990.721 152.393 989.612 153.004 987.739 154.609C983.305 158.508 978.68 162.254 973.979 165.847C969.239 169.478 969.201 169.287 972.45 174.142C973.367 175.479 974.017 175.709 975.278 174.715C981.394 169.937 987.586 165.197 993.74 160.496C994.237 160.114 994.849 159.961 995.537 159.655H995.575Z" fill="#3A352F"/>
<path d="M878.69 239.345C877.849 240.721 877.161 242.48 875.937 243.741C874.485 245.232 872.421 245.461 871.274 243.397C867.987 237.396 864.891 231.28 861.757 225.203C861.566 224.782 861.336 224.324 861.336 223.903C861.336 223.33 861.527 222.336 861.718 222.298C862.368 222.221 863.4 222.298 863.668 222.68C864.814 224.285 865.732 226.044 866.726 227.764C868.637 231.051 870.51 234.376 872.497 237.625C872.765 238.084 873.606 238.199 874.141 238.466C874.065 237.931 874.103 237.319 873.873 236.823C872.153 232.924 870.242 229.102 868.713 225.165C868.293 224.056 868.866 222.527 868.943 221.228C869.936 222.03 871.274 222.604 871.809 223.636C873.988 227.802 875.899 232.121 877.849 236.402C878.231 237.205 878.307 238.16 878.575 239.384L878.69 239.345Z" fill="#3A352F"/>
<path d="M1015.3 368.237C1015.49 372.671 1012.55 374.811 1009.07 376.264C1005.17 377.907 1001.24 377.64 997.987 374.658C995.197 372.097 994.012 368.504 995.579 365.103C996.535 363.039 998.904 361.242 1001.08 360.172C1006.74 357.305 1015.38 362.389 1015.3 368.199V368.237ZM999.592 368.696C999.669 371.371 1001.39 373.473 1003.53 373.473C1006.32 373.473 1011.06 369.46 1011.06 367.052C1011.06 365.523 1007.96 363.077 1006.09 363.115C1002.8 363.23 999.516 366.02 999.631 368.696H999.592Z" fill="#3A352F"/>
<path d="M922.606 93.1426C921.001 94.1747 919.854 95.3596 918.516 95.5889C917.255 95.8183 915.382 95.5125 914.503 94.6716C913.242 93.4484 912.592 91.6137 911.827 89.9701C911.139 88.4794 910.413 87.9443 909.381 89.6261C906.935 93.6013 903.686 96.6592 899.672 99.0672C898.793 99.6024 898.296 101.17 898.029 102.316C897.379 105.336 896.156 105.871 893.251 104.686C891.569 103.998 889.62 104.074 887.785 103.807C886.982 103.692 886.141 103.539 885.339 103.425C885.836 102.584 886.141 101.437 886.906 101.017C889.276 99.6406 891.684 98.2263 894.245 97.3854C899.902 95.5125 903.915 91.8431 906.973 86.874C907.049 86.7594 907.126 86.6065 907.202 86.4918C908.808 85.0775 910.451 83.6633 912.095 82.249C913.089 83.8544 914.197 85.4216 915 87.1034C916.147 89.5879 916.758 92.4164 920.58 91.499C920.963 91.4226 921.613 92.3017 922.606 93.1426Z" fill="#3A352F"/>
<path d="M903.994 123.304C901.7 122.31 899.98 121.775 898.489 120.857C897.84 120.437 897.763 119.214 897.381 118.373C898.184 118.182 899.216 117.532 899.789 117.838C902.732 119.443 905.446 119.749 908.16 117.417C908.427 117.188 909.612 117.417 909.727 117.685C909.956 118.258 910.071 119.405 909.727 119.672C907.892 121.01 905.905 122.157 903.994 123.342V123.304Z" fill="#3A352F"/>
<path d="M909.117 105.293C910.493 102.999 911.487 101.317 912.442 99.6738C913.627 101.356 915.424 102.923 915.806 104.758C915.997 105.751 913.78 107.242 912.672 108.503C911.601 107.548 910.569 106.592 909.117 105.254V105.293Z" fill="#3A352F"/>
<path d="M1263.03 29.0626C1262.76 25.7372 1264.87 25.6607 1267.2 26.2341C1270.75 27.075 1274.27 28.1835 1277.82 28.9862C1286.62 30.9738 1295.37 32.9614 1304.2 34.7961C1310.54 36.1339 1315.59 39.7651 1320.67 43.3963C1322.7 44.8488 1324.42 46.5688 1326.75 47.8302C1329.92 49.5502 1331.68 53.1814 1331.41 57.1567C1331.22 60.291 1329.62 62.0492 1326.48 62.0492C1323.46 62.0492 1320.4 61.6288 1317.46 60.8643C1315.4 60.3292 1314.33 60.2145 1313.03 62.3168C1311.31 65.0689 1309.17 64.8013 1307.56 61.667C1306.03 58.6856 1305.15 55.3984 1303.66 52.417C1303.01 51.1174 1301.68 49.5502 1300.38 49.2827C1290.71 47.2186 1281 45.4604 1271.29 43.6256C1270.87 43.5492 1270.41 43.7021 1269.99 43.7403C1270.06 44.1608 1270.03 44.6577 1270.26 44.9635C1271.02 45.8808 1271.82 47.3715 1272.78 47.5244C1277.29 48.1742 1275.65 50.5058 1274.19 52.4934C1269.49 59.0296 1263.57 64.2279 1255.69 66.4831C1252.44 67.4005 1251.72 68.7383 1252.94 71.605C1254.01 74.1278 1255 76.6887 1256.07 79.2114C1260.55 90.0286 1265.02 100.846 1269.45 111.701C1270.03 113.077 1270.56 114.683 1270.41 116.135C1269.68 122.709 1273.81 126.799 1277.75 131.004C1280.23 133.641 1281.03 135.629 1278.7 138.037C1275.38 141.439 1275.65 145.796 1274.35 149.771C1273.35 152.906 1272.59 156.193 1271.02 159.06C1266.78 166.972 1262.11 174.655 1257.79 182.567C1253.63 190.25 1255.04 198.812 1261.2 205.004C1261.73 205.539 1262.31 206.036 1262.88 206.571C1266.89 210.164 1266.82 211.425 1262.04 214.139C1260.47 215.057 1259.9 215.554 1261.31 216.968C1261.73 217.388 1261.96 218 1262.19 218.535C1263.41 221.44 1264.94 222.663 1268.5 221.364C1274.04 219.299 1279.89 218.076 1285.58 216.318C1292.69 214.139 1299.57 216.547 1303.51 222.74C1304.01 223.504 1304.5 224.268 1305.12 224.918C1311.35 230.919 1311.8 238.526 1305.19 244.183C1299.8 248.77 1293.34 252.133 1287.34 255.994C1286.73 256.414 1285.93 256.567 1285.24 256.873C1283.94 257.484 1283.63 257.828 1285.16 258.899C1292.04 263.829 1293.8 273.576 1289.25 280.801C1287.27 283.935 1281.61 285.387 1277.17 283.897C1270.52 281.68 1266.32 275.832 1266.4 268.646C1266.4 266.582 1266.13 265.702 1263.91 266.582C1261.2 267.614 1258.48 268.646 1255.73 269.487C1247.02 272.162 1238.26 274.914 1229.47 277.399C1221.41 279.692 1213.3 281.794 1205.12 283.744C1199.66 285.082 1194.12 286.152 1188.53 287.031C1186.05 287.413 1186.28 288.216 1187.23 289.936C1187.96 291.236 1188.57 292.726 1188.73 294.179C1189.64 301.518 1186.09 306.563 1179.78 307.136C1171.26 307.901 1164.87 303.123 1164.53 295.669C1164.49 294.599 1164.45 293.491 1164.72 292.497C1165.18 290.548 1164.53 290.395 1162.66 290.395C1153.94 290.395 1145.27 290.204 1136.55 290.012C1130.82 289.898 1126 287.069 1121.19 284.47C1117.9 282.674 1117.02 279.081 1117.13 275.755C1117.29 270.939 1119.27 266.773 1123.02 263.333C1126.23 260.351 1129.79 259.128 1133.99 258.516C1137.43 258.02 1140.79 256.758 1144.16 255.803C1145.61 255.382 1147.06 254.541 1148.55 254.503C1157.88 254.427 1163.08 246.973 1170 242.616C1170.8 242.119 1171.3 240.552 1171.3 239.52C1171.3 234.971 1171.07 230.384 1170.72 225.836C1170.68 225.186 1169.58 224.192 1168.85 224.077C1166.17 223.619 1162.62 224.421 1161.05 222.969C1159.45 221.516 1159.75 217.923 1159.22 215.286C1155.59 197.512 1157.5 180.388 1166.44 164.526C1169.31 159.48 1173.67 155.161 1177.68 150.842C1180.47 147.822 1180.7 147.86 1177.37 145.567C1169.58 140.216 1169.69 136.776 1177.83 132.074C1178.63 131.615 1179.63 131.386 1180.2 130.736C1180.7 130.201 1181.12 128.94 1180.85 128.481C1178.86 125.5 1179.82 123.092 1181.85 120.607C1182.65 119.613 1183.37 118.237 1183.41 117.014C1183.79 107.879 1184.06 98.7435 1184.22 89.6082C1184.29 85.8623 1184.22 85.977 1180.78 87.5059C1174.81 90.1815 1168.7 92.5896 1162.7 95.1887C1160.25 96.259 1158.84 95.4181 1157.5 93.2394C1153.87 87.353 1154.78 87.9263 1148.82 91.0606C1141.41 94.9594 1134.14 99.164 1126.8 103.292C1124.28 104.706 1121.95 106.235 1121.53 109.675C1121.34 111.204 1120.04 112.657 1119.01 113.956C1116.52 117.205 1115.03 117.014 1112.32 113.842C1111.71 113.077 1110.06 112.733 1108.99 112.886C1106.58 113.268 1104.33 114.377 1101.92 114.644C1096.03 115.294 1094.08 112.924 1095.38 107.076C1096.95 100.081 1103.49 95.1123 1111.55 95.8003C1115.57 96.1443 1118.66 94.7683 1121.03 92.4367C1125.73 87.8499 1131.43 84.9831 1136.93 81.7724C1138.65 80.7786 1140.18 79.4026 1141.94 78.5617C1144.96 77.1474 1146.18 75.6185 1144.5 72.1402C1143.51 70.0761 1144.23 68.0885 1147.18 66.9036C1155.93 63.3488 1164.49 59.3354 1173.13 55.4748C1173.7 55.2455 1174.24 54.7486 1174.77 54.7486C1175.73 54.7486 1176.72 55.0162 1177.68 55.2073C1177.18 56.0482 1176.88 57.2713 1176.15 57.73C1172.17 59.9852 1168.09 62.0492 1164 64.1133C1162.66 64.8013 1161.17 65.26 1159.71 65.7187C1157.61 66.3684 1157.34 67.0947 1158.64 69.1587C1162.05 74.5482 1165.18 80.167 1168.12 85.8241C1169.31 88.0792 1170.3 88.8437 1172.63 87.4677C1175.81 85.6329 1179.06 83.9893 1182.27 82.2311C1185.55 80.4346 1187.16 81.0462 1187.46 84.792C1187.81 89.3406 1187.69 93.9274 1187.62 98.5142C1187.5 105.203 1187.23 111.892 1187.01 118.62C1186.97 119.804 1187.12 121.601 1186.47 122.098C1182.88 124.697 1184.22 127.067 1186.2 129.781C1187.35 131.386 1187.08 132.647 1184.83 133.603C1182.04 134.75 1179.48 136.47 1176.95 138.152C1175.77 138.954 1175.12 140.025 1177.53 140.216C1178.44 140.292 1179.74 140.827 1180.13 141.553C1183.18 147.669 1188.99 149.504 1194.84 150.23C1203.9 151.377 1213.07 151.874 1222.25 152.256C1226.18 152.409 1230.31 152.256 1234.06 151.186C1247.7 147.44 1261.58 144.344 1274.23 137.655C1276.41 136.508 1276.29 135.705 1274.54 134.1C1272.32 132.074 1270.37 129.704 1268.65 127.258C1267.85 126.111 1267.47 124.391 1267.47 122.939C1267.54 115.6 1265.02 108.949 1262.19 102.375C1258.44 93.698 1254.58 85.0978 1251.11 76.3065C1249.77 72.9428 1249.23 69.2734 1248.51 65.7187C1248.16 63.9604 1248.47 62.8901 1250.95 63.5017C1255.2 64.4955 1258.52 61.9346 1261.69 59.6029C1262.15 59.2589 1262.04 57.6536 1261.69 56.8509C1257.99 48.0213 1254.01 39.2682 1250.49 30.3622C1249.27 27.2661 1247.82 27.1514 1245.41 28.6039C1239.64 32.044 1233.91 35.5223 1228.1 38.9242C1226.64 39.7651 1225.11 40.4531 1223.55 41.0265C1223.09 41.1794 1222.02 40.8736 1221.94 40.606C1221.79 39.9944 1221.98 39.23 1222.25 38.5802C1222.4 38.1979 1222.9 37.9304 1223.28 37.701C1233.37 31.9676 1243.42 26.2341 1253.55 20.6153C1255.73 19.3921 1257.68 18.9335 1258.83 22.2971C1259.67 24.7434 1261.5 26.8457 1262.92 29.139C1263.76 35.5223 1266.93 39.6122 1273.66 40.7207C1282.03 42.0967 1290.32 44.199 1298.73 45.231C1303.89 45.8808 1306.87 47.9449 1307.83 52.9903C1307.94 53.5637 1308.29 54.137 1308.48 54.7104C1309.17 56.7744 1309.51 59.106 1312.53 56.4686C1313.33 55.7806 1315.4 56.3157 1316.81 56.6215C1318.42 57.0038 1319.91 58.0358 1321.55 58.2651C1323.54 58.5327 1325.56 58.1887 1327.59 58.1122C1326.94 56.2011 1326.79 53.8312 1325.56 52.4552C1323.58 50.2383 1320.94 48.6329 1318.49 46.8746C1313.79 43.511 1309.21 39.918 1303.4 38.5802C1294.76 36.6308 1286.12 34.8343 1277.48 32.8467C1272.59 31.7382 1267.73 30.4004 1262.88 29.1773L1263.03 29.0626ZM1173.21 290.7C1172.6 290.7 1171.91 290.548 1171.45 290.815C1170.61 291.312 1169.84 292.038 1169.12 292.688C1169 292.764 1169.19 293.185 1169.27 293.452C1170.11 292.879 1170.95 292.306 1171.79 291.732C1172.29 291.388 1172.75 291.006 1173.21 290.624L1173.28 290.509L1173.21 290.662V290.7ZM1286.96 264.9L1287.04 265.091L1286.96 264.976C1284.82 260.81 1280.69 260.81 1277.1 261.192C1273.05 261.613 1271.71 265.588 1270.06 268.76C1269.87 269.104 1270.06 269.639 1270.06 270.06C1270.52 269.907 1271.21 269.869 1271.48 269.525C1275.61 264.403 1280.84 263.18 1287 264.9H1286.96ZM1150.96 286.687C1150.96 287.031 1151 287.375 1151.04 287.719C1162.81 286.419 1174.74 285.846 1186.36 283.629C1202.33 280.571 1218.2 276.596 1233.94 272.468C1242.16 270.327 1250.26 267.422 1258.14 264.174C1269.11 259.625 1279.96 254.732 1290.59 249.458C1295.14 247.202 1299.46 243.992 1303.13 240.475C1307.75 236.079 1307.1 231.378 1302.32 227.326C1301.29 226.447 1300.03 225.645 1299.42 224.498C1296.71 219.376 1292.04 218.726 1287.23 219.682C1280.84 220.943 1274.57 222.931 1268.27 224.651C1267.69 224.804 1266.78 225.683 1266.82 225.797C1268.5 228.741 1270.14 231.76 1272.13 234.512C1273.16 235.927 1275.3 236.691 1276.03 238.182C1276.79 239.787 1277.06 242.081 1276.49 243.724C1276.18 244.565 1273.58 245.215 1272.17 245.024C1267.35 244.297 1262.61 243.113 1257.87 242.119C1254.81 241.469 1252.44 239.787 1251.68 236.729C1250.69 232.907 1248.66 233.327 1245.56 234.168C1228.82 238.717 1211.97 243.036 1195.15 247.355C1193.54 247.776 1191.86 248.043 1190.18 248.082C1189.3 248.082 1188.38 247.546 1187.5 247.241C1188.23 246.591 1188.95 245.865 1189.72 245.291C1190.06 245.024 1190.6 245.062 1191.02 244.947C1208.3 240.513 1225.57 236.118 1242.85 231.646C1249.27 230.002 1249.46 228.932 1245.07 223.848C1243.84 222.434 1242.73 222.09 1241.13 222.854C1239.33 223.695 1237.42 224.345 1235.7 225.301C1231.12 227.9 1230.16 227.556 1227.87 222.816C1226.07 219.147 1224.46 215.286 1222.02 212.075C1216.02 204.201 1212.08 195.716 1211.51 185.74C1211.47 185.051 1211.12 184.363 1210.9 183.675C1210.28 184.249 1209.44 184.707 1209.14 185.434C1207 189.829 1204.89 194.225 1202.94 198.659C1199.85 205.768 1200.12 212.802 1203.56 219.758C1203.94 220.484 1204.24 221.937 1203.9 222.166C1203.17 222.74 1202.03 222.969 1201.07 222.892C1199.58 222.778 1198.09 221.975 1196.64 222.013C1189.76 222.281 1182.92 222.778 1176.07 223.16C1174.16 223.275 1173.93 224.192 1174.12 225.874C1174.54 229.352 1174.77 232.869 1174.85 236.347C1174.89 238.755 1176.11 239.481 1178.25 239.634C1180.43 239.787 1181.31 238.679 1181.58 236.767C1181.96 233.748 1182.11 230.69 1182.72 227.747C1183.03 226.371 1184.25 225.224 1185.06 223.963C1185.48 225.262 1186.43 226.6 1186.28 227.785C1185.55 233.824 1184.6 239.825 1183.57 245.826C1183.37 246.935 1182.27 247.89 1181.58 248.922C1181 247.967 1180.2 247.088 1179.86 246.056C1178.94 243.342 1177.49 242.616 1175.35 244.145C1171.3 247.126 1167.28 250.146 1163.27 253.203C1162.85 253.509 1162.7 254.121 1162.39 254.579C1162.85 254.656 1163.31 254.847 1163.73 254.771C1169.08 253.891 1174.77 254.35 1179.59 250.987C1180.28 250.49 1181.65 250.987 1182.72 251.063C1182.46 252.095 1182.57 253.586 1181.88 254.121C1180.47 255.229 1178.75 256.261 1177.03 256.567C1171.75 257.408 1166.44 257.905 1161.13 258.402C1159.94 258.516 1158.45 258.402 1157.57 257.79C1154.94 255.803 1152.38 256.835 1149.78 257.523C1144.16 258.975 1138.61 260.733 1132.96 261.957C1126.77 263.294 1123.67 267.575 1121.53 272.888C1121.34 273.385 1121.87 274.647 1122.41 274.838C1128.41 277.437 1134.33 280.304 1141.25 279.73C1152.68 278.775 1164.11 278.24 1175.5 277.093C1183.07 276.329 1190.67 275.335 1198.05 273.576C1209.18 270.939 1220.11 267.461 1231.15 264.479C1249.19 259.625 1266.7 253.395 1283.21 244.641C1289.52 241.316 1295.56 237.455 1301.75 233.901C1302.4 233.519 1303.36 233.748 1304.16 233.671C1304.12 234.398 1304.35 235.353 1303.97 235.774C1302.55 237.341 1301.14 239.099 1299.34 240.093C1283.63 248.961 1267.43 256.796 1250.19 262.262C1236.39 266.658 1222.32 270.175 1208.33 274.073C1201.26 276.023 1194.31 278.622 1187.12 279.616C1174.43 281.336 1161.63 282.291 1148.82 283.094C1140.6 283.629 1132.27 284.088 1124.55 280.151C1123.94 279.845 1123.13 279.845 1122.41 279.692C1122.91 280.342 1123.33 281.03 1123.9 281.565C1124.32 281.947 1124.97 282.1 1125.5 282.406C1133.38 287.146 1142.09 287.146 1150.85 286.649L1150.96 286.687ZM1161.28 199.92C1161.28 202.519 1161.2 205.119 1161.36 207.68C1161.4 208.329 1162.12 209.438 1162.66 209.514C1170.45 211.005 1178.21 212.496 1186.05 213.642C1188.88 214.063 1191.82 213.642 1194.69 213.375C1197.1 213.184 1197.9 211.808 1197.82 209.361C1197.75 206.036 1197.4 202.405 1198.63 199.462C1201.65 192.161 1204.93 184.899 1209.14 178.21C1212.27 173.202 1214.79 168.195 1216.17 162.5C1217.93 155.123 1218.39 156.193 1211.12 155.39C1203.86 154.588 1196.26 154.626 1189.41 152.447C1184.18 150.765 1181.12 151.759 1177.95 155.314C1176.91 156.461 1175.81 157.493 1174.85 158.677C1164.84 170.603 1161.28 184.631 1161.28 199.882V199.92ZM1233.37 214.598C1232.41 214.139 1231.34 213.604 1230.24 213.069C1231.23 212.496 1232.15 211.808 1233.18 211.349C1233.87 211.043 1234.67 211.12 1235.43 210.967C1240.21 209.973 1245.07 209.17 1249.73 207.909C1254.2 206.686 1255.12 204.966 1253.59 200.723C1250.65 192.39 1251.45 184.784 1256.46 177.33C1259.51 172.82 1261.62 167.66 1264.29 162.882C1265.25 161.2 1265.48 160.359 1263.22 159.671C1259.71 158.601 1257.68 155.734 1256.92 152.371C1256.19 149.16 1254.97 148.434 1251.91 149.542C1242.7 152.944 1233.29 155.39 1223.43 155.964C1222.55 156.002 1221.22 156.996 1220.95 157.837C1218.77 164.143 1216.82 170.527 1214.83 176.91C1214.64 177.483 1214.68 178.095 1214.64 178.706C1214.14 189.562 1216.82 199.423 1223.51 208.215C1226.22 211.808 1228.32 215.936 1230.35 219.987C1231.46 222.166 1232.49 221.822 1234.29 221.096C1242.01 217.809 1249.77 214.674 1257.49 211.387C1258.37 211.005 1259.67 209.553 1259.59 209.4C1258.75 208.1 1257.68 206.915 1255.88 208.253C1249.31 213.26 1241.13 212.419 1233.33 214.598H1233.37ZM1113.88 98.5906C1108.27 98.8582 1103.07 99.6609 1100.05 104.668C1099.17 106.159 1099.36 108.299 1099.05 110.134C1100.77 110.363 1102.61 110.975 1104.25 110.669C1106.78 110.172 1109.11 108.873 1111.63 108.261C1112.74 107.994 1114.84 108.185 1115.15 108.834C1116.64 111.816 1117.63 110.669 1117.97 108.529C1118.59 104.362 1121.38 102.26 1124.66 100.425C1132.5 96.0296 1140.34 91.6722 1148.25 87.3912C1152.91 84.8685 1152.99 84.792 1149.7 80.4728C1149.43 80.1288 1149.16 79.7466 1148.9 79.3643C1148.06 78.1794 1147.44 77.9883 1146.07 79.135C1143.32 81.5048 1140.22 83.4542 1137.24 85.5565C1132.77 88.6908 1128.37 91.9015 1123.78 94.8447C1120.73 96.8323 1117.94 99.9284 1113.92 98.5142L1113.88 98.5906ZM1272.01 51.6907C1270.6 50.4676 1270.22 50.2765 1269.99 49.9325C1268 47.1422 1265.75 44.4666 1264.14 41.4469C1261.43 36.3632 1259.13 31.0502 1256.5 25.9283C1256.11 25.1638 1254.74 24.9345 1253.86 24.4376C1253.59 25.4696 1252.86 26.6928 1253.17 27.4955C1256.65 36.2103 1260.28 44.887 1264.03 53.5255C1264.41 54.4428 1265.97 55.8188 1266.28 55.666C1268.23 54.5575 1270.03 53.1432 1272.05 51.6525L1272.01 51.6907ZM1155.01 68.1649C1151.08 68.3943 1148.25 71.261 1149.24 72.8282C1152.87 78.5999 1156.66 84.2569 1160.36 89.9522C1161.59 91.8251 1163.23 91.29 1164.8 90.6402C1166.82 89.7993 1165.75 88.3468 1165.14 87.2383C1161.93 81.2373 1158.61 75.3127 1155.36 69.3116C1155.01 68.6618 1154.9 67.8974 1154.97 68.1267L1155.01 68.1649ZM1288.18 272.048C1287.38 270.901 1287.04 270.098 1286.39 269.563C1284.36 267.919 1281.72 266.926 1279.62 268.34C1276.83 270.251 1274.57 273.041 1272.17 275.488C1272.01 275.64 1272.32 276.329 1272.55 276.711C1274.73 280.724 1281.03 282.482 1284.28 279.386C1286.19 277.552 1286.92 274.532 1288.18 272.009V272.048ZM1255.35 232.219C1257.34 231.684 1258.71 231.416 1259.97 230.958C1263.34 229.811 1263.57 229.238 1262 226.065C1260.93 223.886 1259.44 221.899 1258.6 219.643C1257.45 216.509 1255.85 215.63 1252.94 217.541C1252.33 217.962 1251.56 218.191 1250.88 218.535C1247.17 220.37 1247.21 220.332 1249.58 224.001C1250.8 225.912 1251.68 228.014 1252.94 229.926C1253.59 230.881 1254.62 231.569 1255.31 232.219H1255.35ZM1176.99 304.079C1179.32 303.085 1181.77 302.741 1182.92 301.365C1184.18 299.836 1185.17 297.045 1184.6 295.364C1184.14 294.064 1181.16 293.07 1179.25 292.956C1177.64 292.841 1175.65 293.835 1174.39 294.981C1172.71 296.51 1171.6 298.651 1170.23 300.524C1172.4 301.67 1174.62 302.817 1176.95 304.04L1176.99 304.079ZM1191.94 218.229C1193.96 218.229 1195.03 218.306 1196.06 218.229C1196.71 218.153 1197.36 217.809 1198.01 217.579C1197.29 217.388 1196.48 216.853 1195.87 217.006C1190.22 218.459 1184.67 217.694 1179.13 216.547C1174.51 215.592 1169.88 214.598 1165.26 213.681C1164.57 213.566 1163.84 213.681 1163.15 213.719C1163.23 215.515 1163.12 217.35 1163.5 219.07C1163.61 219.605 1165.22 220.14 1166.1 220.102C1169.88 219.987 1173.7 219.758 1177.49 219.452C1182.61 219.07 1187.73 218.573 1191.94 218.191V218.229ZM1271.29 151.186C1270.64 150.383 1270.22 149.657 1269.57 149.16C1268.61 148.472 1267.16 148.204 1266.55 147.325C1264.83 144.841 1263.07 146.37 1261.35 146.981C1259.06 147.746 1259.82 149.58 1260.09 151.186C1260.62 154.893 1263.72 156.155 1266.47 157.722C1266.82 157.913 1267.73 157.645 1267.92 157.34C1269.07 155.39 1270.1 153.403 1271.29 151.186ZM1271.48 241.889C1272.01 241.813 1272.59 241.737 1273.16 241.698C1272.97 241.048 1273.01 240.131 1272.59 239.749C1270.98 238.411 1268.5 237.647 1267.62 236.003C1265.78 232.601 1263.72 233.022 1260.97 234.359C1260.05 234.818 1258.9 234.856 1257.91 235.2C1257.26 235.43 1256.65 235.927 1256.04 236.271C1256.61 236.882 1257.07 237.876 1257.79 238.067C1262.31 239.405 1266.82 240.59 1271.44 241.851L1271.48 241.889ZM1270.26 146.484C1270.79 145.758 1271.29 145.338 1271.33 144.879C1271.36 144.458 1270.91 143.962 1270.68 143.503C1270.14 143.923 1269.45 144.229 1269.15 144.764C1269.03 144.955 1269.68 145.643 1270.26 146.484ZM1178.63 289.516L1179.25 289.248C1178.98 289.172 1178.75 289.019 1178.48 289.019C1178.29 289.019 1178.06 289.21 1177.87 289.286C1178.1 289.363 1178.37 289.439 1178.6 289.516H1178.63Z" fill="#3A352F"/>
<path d="M1206.46 71.4179C1195.15 70.9592 1186.62 66.1049 1182.11 55.4024C1180.85 52.3827 1179.51 51.4654 1176.34 52.6885C1173.47 53.797 1171.6 52.4974 1170.45 49.4396C1167.97 42.9034 1166.71 36.1761 1167.55 29.2959C1168.5 21.4984 1173.59 11.3693 1181.88 9.99322C1190.48 8.54073 1199.2 8.12028 1207.19 12.7071C1209.44 14.0067 1211.28 13.7391 1213.61 12.8982C1217.01 11.6368 1220.56 10.6048 1224.16 10.1079C1229.2 9.41987 1231.11 11.5986 1229.66 16.4912C1228.97 18.861 1227.48 21.1544 1225.76 22.9509C1223.7 25.1296 1221.02 26.6585 1218.65 28.5697C1216.09 30.6337 1215.94 33.1947 1217.47 36.1761C1221.79 44.5852 1223.51 53.3766 1220.33 62.5883C1218.19 68.8187 1214.14 71.3032 1206.42 71.3797L1206.46 71.4179ZM1189.18 12.3248C1186.39 12.86 1183.37 12.8982 1180.81 14.0067C1177.56 15.4209 1174.5 17.2174 1173.93 21.6513C1173.43 25.3207 1171.1 28.7608 1170.72 32.4302C1169.96 39.5015 1171.18 40.4571 1178.21 39.3486C1188.49 37.705 1196.52 31.2453 1205.01 26.0852C1210.28 22.9127 1211.12 19.1668 1204.32 15.3445C1199.66 12.7453 1194.46 12.5542 1189.18 12.2866V12.3248ZM1218.27 52.8032C1218.27 52.8032 1218.61 52.6121 1218.77 52.5356C1217.54 48.2164 1216.4 43.859 1215.06 39.578C1214.29 37.1699 1213.11 36.5201 1210.78 38.4695C1203.78 44.2794 1196.33 49.1338 1186.74 49.3249C1184.06 49.3631 1183.98 51.0067 1184.86 53.1472C1188.3 61.4416 1194.65 66.1049 1203.21 67.9778C1210.09 69.4685 1215.21 66.3724 1217.12 59.5305C1217.74 57.39 1217.89 55.0966 1218.23 52.8414L1218.27 52.8032ZM1174.5 48.4458C1181.12 47.0697 1187 46.3053 1192.62 44.547C1200.19 42.2154 1206.42 37.5521 1211.62 31.5893C1212.8 30.2515 1213.84 28.5697 1214.26 26.8879C1214.49 25.8941 1213.38 24.5563 1212.84 23.4096C1212.15 23.9829 1211.43 24.4798 1210.82 25.1296C1209.75 26.1999 1208.94 27.6141 1207.72 28.3786C1204.01 30.7866 1200.19 32.8889 1196.41 35.1823C1189.76 39.234 1183.07 43.2092 1174.89 43.3621C1174.2 43.3621 1172.82 44.5852 1172.94 44.9674C1173.32 46.4199 1174.16 47.7577 1174.5 48.4458ZM1226.37 14.8858C1225.69 14.58 1224.65 13.6244 1223.77 13.7391C1221.25 14.0831 1218.69 14.6564 1216.32 15.5356C1215.37 15.8796 1213.99 17.829 1214.18 18.0965C1215.48 20.0077 1216.86 22.3775 1218.81 23.2567C1220.68 24.0976 1226.3 18.0201 1226.41 14.8858H1226.37Z" fill="#3A352F"/>
<path d="M1209.56 45.9643C1209.75 45.6585 1210.17 44.2825 1210.97 44.0149C1212.35 43.5562 1215.37 48.1812 1215.1 50.3982C1215.02 51.0098 1214.11 51.9271 1213.49 52.0036C1211.35 52.2329 1209.63 49.7866 1209.56 45.9643Z" fill="#3A352F"/>
<path d="M1197.29 56.1278C1195.53 57.6185 1194.19 59.0327 1193.96 58.8798C1192.47 57.8478 1191.25 56.4718 1189.95 55.2104C1190.67 54.6371 1191.55 53.4139 1192.09 53.5668C1193.62 53.9873 1194.95 54.9429 1197.32 56.1278H1197.29Z" fill="#3A352F"/>
</g>
<defs>
<clipPath id="clip0_10_225">
<rect width="1411" height="945" fill="white"/>
</clipPath>
</defs>
</svg>
