<svg width="1411" height="945" viewBox="0 0 1411 945" fill="none" xmlns="http://www.w3.org/2000/svg">
<g clip-path="url(#clip0_10_257)">
<g clip-path="url(#clip1_10_257)">
<path d="M1188.37 466.717C1186.17 467.153 1185.21 466.369 1186.63 464.396C1189.85 459.898 1193.22 455.458 1196.61 451.106C1199.75 447.101 1203 443.184 1206.25 439.267C1207.29 437.99 1206.91 437.322 1205.58 436.655C1198.44 433.057 1191.33 429.371 1184.19 425.802C1181.76 424.583 1180.71 425.135 1179.32 427.775C1173.83 438.251 1168.41 448.726 1162.87 459.173C1160.46 463.729 1160.2 464.28 1160.05 469.242C1159.91 474.639 1157.38 478.499 1153.35 479.456C1148.47 480.617 1143.22 478.586 1141.19 474.813C1138.87 470.432 1139.62 463.99 1143.39 461.088C1147.25 458.128 1149.49 454.153 1151.75 450.148C1156.74 441.269 1161.59 432.273 1166.46 423.336C1166.75 422.842 1167.1 422.349 1167.31 421.827C1167.45 421.45 1167.31 420.985 1167.33 420.579C1167.02 420.579 1166.64 420.55 1166.35 420.637C1155.09 424.322 1143.98 428.269 1133.82 434.508C1130.37 439.179 1125.9 436.452 1122.1 435.668C1106.05 432.302 1090.61 427.079 1075.81 419.97C1069.23 416.807 1062.55 413.847 1055.88 410.945C1052.77 409.61 1051.09 407.434 1050.77 404.126C1050.68 403.197 1050.6 402.269 1050.39 401.369C1049.78 398.322 1049.41 395.392 1052.63 393.36C1053.09 393.07 1053.21 392.171 1053.47 391.561C1052.86 391.706 1052.22 391.764 1051.61 391.996C1050.74 392.316 1049.96 392.954 1049.06 393.099C1044.39 393.854 1042.7 396.407 1042.35 401.224C1041.83 408.595 1040.12 415.878 1039.19 423.22C1038.67 427.456 1038.64 431.751 1038.52 436.046C1038.5 437.148 1038.84 438.309 1039.22 439.354C1039.86 441.037 1040.38 442.488 1038.76 444.113C1038.23 444.635 1038.73 446.405 1039.08 447.479C1041.43 454.617 1044.44 461.581 1046.16 468.865C1048.39 478.325 1049.12 488.075 1048.48 497.854C1048.33 500.059 1048.45 502.264 1048.42 504.47C1048.42 506.356 1049.29 507.139 1051.18 507.197C1053.58 507.313 1056.08 507.4 1058.4 507.981C1061.91 508.851 1062.52 511.057 1060.2 513.9C1056.46 518.456 1051.32 520.11 1045.66 520.052C1041.98 520.052 1038.26 519.472 1034.58 519.037C1033.59 518.921 1032.08 518.514 1031.85 517.876C1031.01 515.554 1028.95 514.742 1027.32 513.349C1026.74 512.856 1026.74 511.521 1026.71 510.592C1026.48 492.369 1024.48 474.552 1015.34 458.302C1014.38 456.59 1013.13 455.052 1011.97 453.456C1011.74 453.137 1011.22 453.05 1010.84 452.847C1010.7 453.253 1010.44 453.63 1010.41 454.037C1010.14 461.175 1006.98 467.414 1004.34 473.827C1000.71 482.648 994.388 489.351 987.598 495.735C985.828 497.389 984.087 499.101 982.317 500.755C981.069 501.916 981.591 502.525 982.984 502.758C983.884 502.903 984.841 502.874 985.741 503.048C987.685 503.396 989.745 503.628 990.064 506.211C990.413 508.996 989.571 510.505 986.698 511.521C982.462 513.03 978.051 513.349 973.698 512.479C969.085 511.55 965.022 509.345 961.714 505.863C958.58 502.555 957.942 499.653 959.654 495.416C959.973 494.604 960.553 493.501 960.263 492.863C958.928 489.903 960.524 487.697 961.946 485.521C966.154 479.137 970.448 472.811 974.743 466.485C979.705 459.173 982.839 451.135 983.681 442.342C984.058 438.222 983.971 434.043 984.145 429.894C984.203 428.414 983.448 427.717 982.23 426.934C980.082 425.57 978.022 424.032 976.165 422.32C972.219 418.664 971.58 414.804 973.408 409.697C975.294 404.474 976.89 399.164 978.66 393.883C979.183 392.345 978.835 391.648 977.094 392.025C970.448 393.534 963.803 395.043 957.158 396.581C949.933 398.235 942.736 399.918 935.511 401.572C935.163 401.659 934.814 401.659 934.495 401.746C933.364 402.008 932.261 402.298 931.129 402.559C930.926 401.427 930.52 400.325 930.52 399.193C930.404 391.445 930.375 383.697 930.259 375.95C930.172 369.827 930.114 363.675 929.881 357.552C929.533 348.528 928.866 339.503 928.721 330.479C928.373 310.195 928.198 289.941 928.024 269.657C927.937 260.749 928.024 251.811 927.937 242.903C927.937 241.51 927.27 240.117 926.922 238.695C926.777 238.144 926.457 237.621 926.457 237.099C926.457 233.298 926.573 229.467 926.457 225.666C926.428 223.664 927.183 222.416 928.953 221.546C935.279 218.412 941.576 215.22 947.902 212.057C950.078 210.954 952.457 210.2 954.431 208.807C962.817 203.003 972.625 200.159 981.562 195.546C995.636 188.262 1011.1 184.722 1025.7 178.773C1029.44 177.235 1033.27 175.784 1037.16 174.711C1040.82 173.695 1044.59 173.028 1048.33 172.534C1051.5 172.128 1052.6 171.025 1051.73 167.804C1050.97 165.019 1049.93 162.291 1048.83 159.621C1046.39 153.615 1043.95 147.608 1041.28 141.688C1037.77 133.883 1032.4 127.615 1024.94 123.262C1015.83 117.952 1006.69 112.671 997.551 107.476C987.395 101.702 977.268 95.8692 966.966 90.3558C955.533 84.233 944.042 78.1683 932.319 72.5678C916.243 64.8781 899.993 57.4786 883.685 50.2821C875.647 46.742 867.261 43.9272 859.049 40.7933C854.522 39.0522 850.024 37.1951 845.41 35.6281C844.25 35.2219 842.741 35.512 841.464 35.8312C840.129 36.1504 838.881 36.8469 837.605 37.3982C836.328 37.9205 835.051 38.4428 833.774 38.9652C834.326 40.0388 834.877 41.1125 835.37 42.1861C835.515 42.4763 835.631 42.8536 835.602 43.1728C835.37 46.858 835.225 50.5433 834.761 54.1705C834.645 55.0701 833.629 56.3178 832.759 56.579C820.6 60.2643 809.777 67.1125 797.937 71.3491C787.52 75.0634 777.973 80.4897 767.759 84.5812C763.174 86.4094 759.024 86.3223 754.759 84.0879C751.364 82.3178 747.939 80.6348 744.515 78.9228C741.498 77.4138 741.323 76.7464 741.614 73.4964C741.875 70.5076 741.672 67.4897 741.556 64.5009C741.468 61.8603 742.629 60.6995 745.096 59.858C752.756 57.2754 760.417 54.6638 767.933 51.704C776 48.512 783.806 44.6236 791.96 41.6058C798.547 39.1683 805.54 37.7754 812.243 35.5701C815.58 34.4674 818.801 34.3223 822.138 35.0187C823.502 35.2799 824.808 35.9763 826.172 36.0634C828.203 36.2085 830.263 36.2375 832.236 35.8603C834.152 35.512 836.154 34.9027 837.779 33.858C842.596 30.7821 847.297 31.9138 852.027 33.858C856.524 35.7152 860.993 37.6594 865.491 39.4585C874.98 43.2308 884.585 46.6259 893.928 50.6884C904.23 55.1571 914.299 60.1772 924.426 65.0522C936.12 70.6817 947.814 76.3112 959.364 82.2308C967.808 86.5545 976.02 91.3424 984.319 95.9562C993.402 101.034 1002.51 106.112 1011.57 111.249C1016.41 114.005 1021.14 116.907 1025.99 119.635C1033.97 124.133 1039.63 130.778 1043.34 138.961C1047 147.086 1050.16 155.414 1053.41 163.713C1054.16 165.628 1054.51 167.717 1054.89 169.749C1055.24 171.548 1056.02 172.476 1057.94 172.912C1074.1 176.568 1090.23 180.253 1106.34 184.142C1118.61 187.101 1130.83 190.38 1143.05 193.572C1160.66 198.157 1178.25 202.742 1195.83 207.414C1200.85 208.749 1205.75 210.519 1210.75 212.057C1221.98 215.51 1221.83 218.354 1223.19 227.871C1223.34 228.887 1223.16 229.961 1223.22 231.005C1223.43 233.878 1221.83 235.503 1219.48 236.693C1215.56 238.637 1211.67 240.668 1207.7 242.525C1201.11 245.63 1194.41 248.503 1187.85 251.695C1178.27 256.367 1168.84 261.329 1159.24 265.943C1153.49 268.7 1147.49 270.847 1141.74 273.604C1132.25 278.188 1122.88 283.063 1113.51 287.88C1111.77 288.78 1110.05 289.883 1108.69 291.217C1106.83 293.046 1105.21 292.726 1103.06 291.827C1095.2 288.461 1087.22 285.298 1079.32 282.048C1077.52 281.293 1076.77 281.729 1076.83 283.731C1077.03 290.202 1077.18 296.702 1077.32 303.173C1077.41 306.539 1077.47 309.876 1077.41 313.242C1077.29 321.251 1077.21 329.231 1076.89 337.211C1076.54 345.887 1076.04 354.534 1075.41 363.211C1075.14 366.78 1074.56 370.407 1071.4 372.874C1071.14 373.077 1071.17 373.657 1071.05 374.063C1071.46 374.063 1072.01 374.267 1072.27 374.063C1073.29 373.309 1074.19 372.409 1075.2 371.655C1078.42 369.246 1081.53 366.606 1085.01 364.633C1087.07 363.443 1087.48 362.253 1087.1 360.251C1086.29 355.811 1085.5 351.371 1084.78 346.932C1084.55 345.568 1084.55 344.175 1084.43 342.782C1084.29 341.099 1084.98 340.083 1086.55 339.213C1090 337.356 1093.28 335.179 1096.68 333.206C1098.27 332.278 1099.93 331.378 1101.64 330.74C1118.82 324.443 1136 318.175 1153.2 311.907C1153.64 311.762 1154.07 311.588 1154.51 311.472C1159.06 310.05 1161.3 311.269 1162.37 315.97C1163.1 319.133 1163.56 322.354 1164.17 325.546C1164.78 328.679 1164.72 328.447 1167.6 327.171C1177.14 322.992 1186.75 318.958 1196.35 315.012C1199.11 313.88 1202.04 313.126 1204.94 312.284C1210.98 310.543 1216.93 312.11 1222.82 313.242C1225.4 313.735 1227.55 313.242 1229.81 312.168C1237.01 308.715 1243.94 304.798 1251.66 302.476C1256.51 301.025 1261.24 301.258 1266.08 302.041C1266.75 302.157 1267.42 302.389 1268.08 302.563C1270.17 303.057 1271.74 303.231 1271.97 300.155C1272.21 297.108 1274.61 295.251 1277.37 294.409C1278.94 293.916 1279.26 293.22 1279.4 291.798C1279.66 288.867 1280.79 288.054 1283.49 289.215C1285.21 289.941 1286.28 289.738 1287.85 288.722C1293.24 285.211 1299.08 285.646 1304.33 288.664C1312.51 293.365 1314.69 299.633 1312.13 308.744C1311.47 311.066 1310.83 313.474 1309.7 315.592C1308.59 317.624 1308.97 318.146 1311.06 318.929C1314.95 320.38 1318.66 322.267 1322.44 324.008C1322.96 324.24 1323.36 324.675 1323.83 325.023C1325.77 326.503 1326.64 326.387 1328.99 325.981C1331.34 325.575 1333.84 325.546 1336.22 325.778C1337.99 325.952 1339.21 325.923 1340.86 324.762C1342.81 323.427 1345.59 323.137 1348.09 322.731C1352.5 322.005 1357.2 322.47 1361.23 320.003C1363.9 318.378 1366.57 316.724 1369.01 314.78C1375.42 309.644 1381.81 304.479 1386.33 297.398C1387.87 294.99 1390.13 293.017 1392.14 290.956C1392.51 290.55 1393.35 290.608 1393.99 290.434C1393.99 291.159 1394.25 292.088 1393.91 292.552C1390.42 297.166 1387.26 302.128 1383.2 306.191C1378.15 311.24 1372.46 315.708 1366.86 320.148C1362.62 323.514 1357.78 325.604 1352.15 325.546C1349.89 325.546 1347.56 326.184 1345.33 326.677C1344.11 326.938 1343.39 327.635 1343.71 329.202C1344.29 332.133 1344.69 335.121 1345.04 338.11C1345.27 340.229 1346.11 341.563 1348.44 341.738C1352.87 342.086 1357.29 343.45 1361.81 341.796C1363.26 341.273 1365.09 341.215 1366.63 341.505C1374.12 342.927 1379.89 339.271 1385.46 335.267C1392.37 330.275 1397.59 323.892 1400.64 315.796C1401.13 314.461 1401.28 312.168 1403.57 312.865C1403.89 312.952 1403.86 315.621 1403.37 316.869C1398.84 328.883 1390.48 337.269 1378.82 342.492C1377.86 342.927 1376.5 343.101 1376.06 343.827C1375.22 345.22 1374.64 346.874 1374.43 348.499C1374.2 350.385 1376.06 349.543 1376.99 349.95C1379.19 350.878 1381.34 350.965 1383.72 350.24C1385.06 349.833 1386.77 350.095 1388.13 350.559C1395.65 353.142 1402.99 352.88 1410.59 350.472C1414.57 349.224 1418.57 348.412 1422.17 346.177C1423.88 345.133 1424.78 344.03 1424.78 341.825C1424.78 325.807 1422.58 310.166 1416.42 295.338C1414.28 290.173 1410.82 285.53 1407.83 280.742C1406.96 279.349 1405.72 278.624 1403.71 279.349C1401.25 280.249 1399.77 279.349 1398.55 276.621C1397.91 275.2 1397.65 275.083 1396.49 276.099C1393.35 278.827 1390.13 281.409 1386.94 284.079C1386.68 284.311 1386.25 284.485 1386.19 284.746C1385.64 288.083 1382.94 289.012 1380.33 289.97C1377.19 291.101 1373.97 291.188 1370.78 290.173C1367.35 289.099 1363.93 287.996 1360.54 286.836C1356.33 285.385 1354.21 282.28 1353.98 277.927C1353.86 275.751 1353.89 273.517 1354.18 271.34C1354.44 269.309 1353.89 268.409 1351.86 267.51C1343.44 263.708 1334.68 260.4 1327.86 253.755C1326.61 252.537 1325.45 251.231 1324.15 250.099C1323.77 249.751 1322.67 249.49 1322.55 249.664C1320.35 252.74 1318.2 255.845 1316.11 259.008C1315.24 260.313 1315.99 261.242 1316.92 262.316C1326.15 273.139 1337.73 280.626 1350.5 286.517C1352.5 287.445 1354.62 288.083 1356.65 288.896C1363.81 291.74 1367.3 297.079 1367.35 304.74C1367.35 307.061 1367.41 309.383 1367.24 311.675C1367.21 312.313 1366.51 312.923 1366.14 313.532C1365.58 313.01 1364.83 312.575 1364.54 311.936C1364.22 311.24 1364.31 310.34 1364.31 309.557C1364.31 307.351 1364.39 305.146 1364.31 302.941C1364.1 297.892 1361.32 294.177 1356.91 292.494C1348 289.041 1339.56 284.717 1331.58 279.581C1327.14 276.708 1323.33 272.878 1319.33 269.367C1317.33 267.597 1315.67 265.45 1313.64 263.767C1312.39 262.751 1310.74 262.025 1309.17 261.619C1306.01 260.836 1303.31 258.572 1303.02 255.322C1302.67 251.55 1302.3 247.604 1304.94 244.325C1305.98 243.048 1305.84 242.206 1304.68 241.133C1303.34 239.885 1301.92 238.55 1301.05 236.954C1300.41 235.793 1300.15 233.907 1300.67 232.804C1301.05 232.021 1303.14 231.441 1304.24 231.731C1306.42 232.282 1308.71 233.124 1310.48 234.458C1313.35 236.577 1315.79 239.275 1318.55 241.597C1319.85 242.729 1320.78 244.673 1323.07 244.208C1323.36 244.15 1323.89 244.673 1324.12 245.021C1328.64 252.13 1335.29 256.599 1342.66 260.226C1345.48 261.619 1348.32 262.896 1351.13 264.289C1352.53 264.985 1353.22 264.753 1353.4 263.07C1353.54 261.706 1354.01 260.342 1354.18 258.979C1354.24 258.398 1354.04 257.499 1353.63 257.238C1350.58 255.351 1351.31 252.45 1352.15 250.099C1355.17 241.597 1361.03 235.561 1369.44 232.166C1370.29 231.818 1371.24 231.586 1372.14 231.615C1374.12 231.702 1375.71 231.499 1376.61 229.322C1376.87 228.684 1378.09 228.133 1378.93 228.046C1384.21 227.552 1389.18 228.394 1392.89 232.572C1394.75 234.662 1396.6 236.054 1399.65 235.735C1402.35 235.445 1403.86 237.418 1404.56 239.827C1404.96 241.162 1405.25 242.003 1407.02 242.032C1410.04 242.032 1410.82 242.99 1411.14 245.95C1411.23 246.762 1411.32 247.604 1411.17 248.387C1410.77 250.505 1411.49 252.217 1412.13 254.249C1413.14 257.412 1414.68 260.517 1415.12 263.825C1415.67 267.974 1414.02 270.412 1410.27 271.892C1407.81 272.878 1407.17 276.041 1409.11 277.898C1413.9 282.483 1417.15 288.171 1419.35 294.264C1422 301.548 1424.08 309.063 1425.91 316.579C1426.87 320.467 1426.81 324.617 1427.04 328.65C1427.31 333.032 1427.07 337.472 1427.57 341.854C1428.06 346.177 1426.17 349.95 1425.59 354.041C1423.68 368.057 1423.77 381.898 1427.33 395.74C1429.63 404.619 1431.89 413.412 1436.01 421.682C1437.17 424.003 1437.46 426.731 1438.13 429.284C1438.25 429.72 1438.13 430.416 1438.42 430.59C1442.08 432.941 1440.48 436.307 1439.61 439.005C1438.27 443.155 1436.16 447.072 1434.27 451.048C1433.89 451.86 1433.2 452.557 1432.53 453.195C1429.92 455.662 1426.41 455.023 1425.36 451.599C1424.35 448.175 1423.39 444.548 1423.48 441.066C1423.59 436.51 1421.1 433.666 1418.57 430.59C1418.05 429.952 1417.44 429.4 1417.06 428.704C1409.89 415.588 1402.38 402.617 1399.33 387.731C1398.55 383.988 1398.03 380.215 1397.36 376.443C1397.16 375.369 1396.84 374.354 1396.58 373.309C1396.26 374.267 1395.94 375.253 1395.56 376.211C1393.64 381.057 1391.93 385.961 1389.76 390.691C1387.81 394.898 1385.32 398.816 1383.2 402.936C1378.61 411.874 1376.03 421.508 1373.71 431.2C1373.59 431.635 1373.48 432.099 1373.48 432.563C1373.54 437.061 1373.62 437.264 1369.47 438.744C1364.6 440.514 1359.58 441.878 1354.59 443.358C1353.6 443.648 1352.44 443.822 1351.51 443.561C1350.18 443.184 1348.41 442.662 1347.83 441.646C1346.9 439.992 1348 438.367 1349.51 437.177C1351.6 435.552 1353.8 433.985 1355.66 432.128C1356.53 431.258 1357.23 429.72 1357.2 428.501C1356.62 407.898 1360.45 387.963 1365.85 368.231C1367.04 363.878 1367.59 359.293 1369.27 355.173C1370.43 352.329 1370.84 349.514 1371.33 346.583C1371.59 344.929 1371.07 344.436 1369.62 344.494C1366.86 344.61 1364.1 344.842 1361.35 344.842C1356.27 344.842 1351.19 344.755 1346.08 344.581C1345.33 344.581 1344.26 344.175 1343.94 343.624C1342.54 341.128 1340.31 341.767 1338.16 341.621C1336.13 341.476 1334.04 341.331 1332.16 340.664C1330.62 340.142 1329.49 340.316 1328.33 341.215C1317.36 349.659 1305.11 356.043 1293.01 362.63C1282.94 368.115 1272.67 373.193 1262.43 378.387C1260.66 379.287 1259.73 380.302 1259.81 382.363C1259.99 386.135 1259.21 389.53 1255.29 391.3C1254.82 391.503 1254.42 392.083 1254.16 392.577C1251.78 397.191 1249.46 401.863 1247.1 406.505C1245.86 408.972 1244.73 411.525 1243.3 413.905C1239.97 419.592 1236.57 425.28 1233.03 430.822C1231.7 432.883 1233.12 433.463 1234.31 434.304C1239.59 438.048 1245.02 441.646 1250.15 445.592C1254.94 449.249 1259.41 453.282 1264.05 457.113C1264.66 457.635 1265.36 458.07 1266.05 458.476C1273.83 462.829 1274.47 470.664 1271.57 477.048C1270.64 479.079 1268.98 480.327 1266.72 480.559C1259.58 481.255 1252.01 476.99 1252.53 468.662C1252.59 467.617 1252.04 465.992 1251.23 465.499C1242.29 459.927 1233.21 454.588 1224.21 449.104C1222.53 448.059 1221.6 448.465 1220.61 450.061C1218.73 453.108 1216.78 456.155 1214.66 459.057C1211.47 463.438 1208.22 467.791 1204.8 472.028C1203.49 473.653 1202.88 475.22 1202.65 477.309C1202.33 480.124 1201.75 483.025 1200.65 485.608C1199.05 489.264 1196 491.209 1191.85 491.354C1187.56 491.499 1184.54 489.496 1182.45 485.956C1181.7 484.679 1181.03 483.287 1180.54 481.865C1178.8 476.845 1180.6 471.708 1184.98 468.749C1186.02 468.052 1187.07 467.327 1188.11 466.63C1189.68 466.166 1191.85 466.166 1192.73 465.121C1197.77 459.173 1202.56 452.963 1207.41 446.811C1208.77 445.099 1210.02 443.3 1211.21 441.472C1211.44 441.124 1211.27 440.485 1211.27 439.963C1210.75 440.021 1210.11 439.934 1209.7 440.166C1209.15 440.514 1208.71 441.124 1208.28 441.646C1201.55 449.974 1194.84 458.331 1188.14 466.688L1188.37 466.717ZM1092.41 410.394L1092.5 410.51L1092.35 410.452C1091.54 409.523 1090.61 408.682 1089.94 407.666C1088.81 405.925 1087.83 407.318 1086.78 407.666C1086.4 407.782 1086.06 408.014 1085.71 408.188C1086.52 408.595 1087.27 409.088 1088.12 409.349C1089.51 409.784 1090.96 410.046 1092.38 410.394H1092.41ZM1219.02 422.262C1222.76 425.599 1222.76 425.57 1225.05 421.246C1228.07 415.53 1231.2 409.871 1234.25 404.184C1234.8 403.139 1235.18 402.037 1235.64 400.963C1234.45 401.572 1233.15 402.037 1232.07 402.849C1231.38 403.371 1231.03 404.329 1230.56 405.113C1227.63 410.075 1224.79 415.095 1221.77 420.028C1221.16 421.014 1219.91 421.595 1218.96 422.349C1219.04 421.188 1218.78 419.796 1219.31 418.867C1221.54 414.717 1224.04 410.684 1226.39 406.563C1226.59 406.215 1226.53 405.722 1226.59 405.287C1226.18 405.316 1225.72 405.287 1225.34 405.432C1219.39 407.985 1213.47 410.568 1207.52 413.15C1206.39 413.644 1205.93 414.166 1207.26 414.979C1211.18 417.416 1215.1 419.854 1219.02 422.291V422.262ZM1032 441.095C1030.23 441.501 1028.43 442.371 1026.74 442.197C1024.13 441.965 1021.55 441.124 1019.02 440.311C1015.83 439.296 1012.73 438.019 1009.59 436.858C1005.36 435.291 1001.15 433.724 996.884 432.215C994.156 431.258 991.399 430.358 988.643 429.488C987.656 429.168 986.931 429.081 986.96 430.677C987.018 434.13 986.873 437.613 986.698 441.066C986.147 451.019 982.781 460.043 977.355 468.342C973.002 475.017 968.446 481.604 963.919 488.162C962.875 489.7 962.585 491.296 963.6 492.688C966.357 496.461 969.375 499.885 974.424 500.813C976.397 501.162 977.732 500.726 979.067 499.421C981.969 496.577 984.928 493.791 987.859 491.005C993.431 485.666 998.364 479.95 1001.41 472.724C1004.28 465.905 1007.53 459.231 1007.91 451.628C1008.03 449.046 1009.56 448.291 1011.89 449.452C1012.79 449.916 1013.71 450.584 1014.29 451.396C1015.89 453.514 1017.57 455.633 1018.73 457.983C1025.35 471.331 1029.21 485.376 1029.04 500.407C1029.01 503.425 1029.24 506.414 1029.47 509.432C1029.56 510.738 1029.99 511.84 1031.68 512.014C1036.93 512.595 1041.22 510.738 1044.82 507.11C1045.31 506.617 1045.58 505.659 1045.55 504.934C1045.43 496.054 1046.07 487.204 1044.71 478.267C1043.08 467.733 1040.44 457.664 1035.77 448.117C1034.61 445.738 1033.21 443.445 1031.91 441.095C1032.43 440.892 1032.95 440.601 1033.5 440.485C1036.23 439.905 1036.7 439.238 1036.2 436.51C1036.06 435.726 1035.85 434.914 1035.71 434.13C1035.45 432.679 1034.72 431.954 1033.1 432.012C1026.42 432.273 1020.01 430.735 1013.54 429.429C1003.99 427.514 995.085 424.177 986.814 419.128C984.145 417.503 981.62 415.675 979.038 413.934C978.225 413.383 977.471 412.773 976.687 412.193C976.397 413.383 975.846 414.572 975.875 415.762C975.875 416.72 976.368 417.909 977.064 418.548C979.444 420.724 981.707 423.336 984.551 424.583C991.283 427.601 998.306 429.981 1005.27 432.534C1010.58 434.479 1015.95 436.307 1021.35 438.048C1023.64 438.773 1026.08 439.005 1028.4 439.615C1029.64 439.934 1030.81 440.63 1032 441.153V441.095ZM1153.32 226.217C1155.03 227.088 1156.42 227.842 1157.85 228.539C1162.14 230.599 1166.43 232.601 1170.7 234.691C1171.86 235.242 1173.08 236.054 1172.3 237.621C1171.48 239.188 1170.38 238.637 1169.1 237.941C1165.62 236.113 1161.73 234.894 1158.6 232.601C1154.07 229.293 1150.27 230.976 1146.24 233.124C1138.37 237.302 1130.48 241.423 1122.62 245.572C1121.2 246.327 1119.89 247.226 1118.53 248.039C1120.04 249.054 1121.43 250.273 1123.05 251.028C1126.42 252.537 1130.13 253.436 1133.3 255.293C1135.56 256.599 1136.98 256.135 1138.96 255.119C1145.46 251.84 1152.04 248.706 1158.63 245.543C1170.44 239.914 1182.92 235.88 1194.32 229.264C1200.07 225.927 1206.62 223.954 1212.81 221.371C1214.31 220.733 1215.85 220.211 1217.39 219.63C1215.88 218.615 1214.4 217.599 1212.89 216.612C1212.81 216.554 1212.66 216.554 1212.57 216.496C1203.61 213.74 1194.76 210.606 1185.67 208.255C1167.86 203.612 1149.92 199.492 1132.05 195.023C1118 191.512 1104.05 187.682 1090 184.2C1080.46 181.849 1070.85 179.76 1061.22 177.7C1057.73 176.945 1054.19 176.51 1050.65 176.075C1044.3 175.291 1038.64 177.903 1032.89 179.992C1022.45 183.793 1011.97 187.508 1001.5 191.251C998.015 192.499 994.504 193.688 991.08 195.081C987.975 196.358 984.986 197.896 981.939 199.318C974.192 202.945 966.415 206.543 958.725 210.258C955.185 211.97 951.761 213.943 948.221 215.655C943.143 218.15 938.006 220.559 932.899 223.025C932.522 223.2 932.174 223.519 931.826 223.78C932.203 224.012 932.522 224.36 932.928 224.476C936.323 225.637 939.689 227.001 943.143 227.9C962.207 232.833 981.417 237.041 1000.83 240.378C1008.35 241.655 1015.66 243.976 1023.06 245.921C1033.33 248.648 1043.54 251.695 1053.87 254.22C1064.87 256.947 1075.96 259.356 1087.07 261.706C1094.88 263.36 1102.74 264.666 1110.6 266.088C1111.48 266.233 1112.52 266.32 1113.33 266.03C1118.79 264.057 1124.19 262.025 1129.58 259.936C1130.28 259.675 1130.83 259.008 1131.44 258.514C1130.8 258.108 1130.19 257.615 1129.5 257.325C1124.62 255.264 1119.43 253.929 1115.48 249.925C1113.22 247.633 1112.78 247.604 1115.57 246.008C1121.78 242.438 1128.19 239.159 1134.52 235.793C1137.16 234.371 1139.8 232.95 1142.47 231.586C1146.06 229.758 1149.69 227.988 1153.35 226.188L1153.32 226.217ZM1166.64 379.287C1166.93 379.287 1167.22 379.287 1167.48 379.258C1167.48 375.311 1167.74 371.365 1167.39 367.447C1167.1 364.052 1168.64 362.572 1171.48 361.179C1186.28 353.867 1202.21 349.456 1217.56 343.566C1220.9 342.289 1224.47 341.65 1227.95 340.78C1230.97 340.025 1234.1 339.59 1237.01 338.546C1243.54 336.195 1244.52 336.892 1244.81 344.001C1245.07 350.472 1245.74 356.943 1246.21 363.414C1246.32 365.126 1246.76 366.113 1248.73 365.097C1257.14 360.715 1265.65 356.479 1274 352.01C1276.44 350.704 1276.41 349.892 1273.71 348.818C1270.09 347.367 1266.26 346.438 1262.57 345.162C1261.73 344.871 1261.06 344.146 1260.31 343.624C1261.06 343.217 1261.82 342.811 1262.57 342.434C1262.75 342.347 1263.04 342.434 1263.27 342.434C1265.01 342.405 1264.92 341.592 1264.05 340.519C1263.76 340.142 1263.47 339.793 1263.18 339.445C1252.62 327.054 1238.81 320.148 1223.31 316.231C1219.86 315.36 1216.26 315.012 1212.69 314.606C1207.21 313.996 1202.18 315.883 1197.22 317.914C1188.14 321.686 1179.03 325.313 1170.06 329.347C1163.42 332.336 1157.09 336.05 1150.48 339.01C1141.19 343.188 1131.67 346.903 1122.36 350.994C1113.45 354.912 1104.69 359.119 1095.78 363.037C1088.9 366.083 1081.76 368.637 1076.6 374.557C1076.31 374.905 1075.87 375.166 1075.46 375.34C1073.75 376.008 1073.9 376.704 1074.97 378.068C1079.93 384.539 1087.48 386.512 1094.41 389.617C1094.76 389.791 1095.31 389.559 1095.75 389.501C1097.2 389.269 1097.75 389.675 1097.78 391.329C1097.87 395.479 1099.98 398.293 1103.99 399.309C1107.56 400.208 1111.27 400.47 1114.9 401.253C1116.23 401.543 1118.06 402.211 1118.5 403.197C1118.96 404.271 1118.21 406.012 1117.66 407.318C1117.34 408.101 1116.41 408.653 1115.68 409.233C1112.55 411.787 1108.83 413.063 1104.95 413.876C1104.57 413.963 1104.25 414.195 1103.9 414.369C1104.19 414.514 1104.48 414.717 1104.8 414.833C1110.26 416.749 1115.62 419.041 1121.23 420.405C1126.16 421.624 1128.31 425.135 1130.1 429.11C1131.41 431.983 1131.24 432.128 1134.08 430.59C1142.44 426.034 1151.17 422.436 1160.25 419.418C1169.54 416.342 1179.17 413.876 1187.36 408.072C1187.71 407.84 1188.26 407.898 1188.69 407.753C1190.78 407.115 1192.9 406.563 1194.93 405.78C1198.94 404.242 1202.88 402.588 1206.86 400.992C1211.27 399.222 1215.85 397.829 1220.09 395.711C1243.1 384.22 1266.81 374.15 1289.12 361.238C1300.73 354.505 1312.25 347.599 1323.74 340.664C1326.7 338.865 1326.64 338.517 1325.19 335.383C1324.87 334.657 1324.67 333.845 1324.61 333.061C1324.55 331.842 1324.03 331.668 1323.07 332.162C1320.26 333.525 1317.44 334.831 1314.66 336.224C1311.15 337.994 1307.72 339.909 1304.15 341.592C1295.59 345.684 1286.86 349.456 1278.39 353.751C1266.46 359.758 1254.82 366.403 1242.37 371.394C1235.5 374.15 1228.68 377.052 1221.83 379.925C1204.22 387.325 1186.17 393.738 1169.63 403.546C1168.15 404.416 1166.52 405.113 1164.93 405.751C1152.83 410.742 1140.49 415.211 1129.58 422.668C1128.91 423.133 1127.73 422.813 1126.8 422.871C1127.14 422.088 1127.32 421.188 1127.87 420.579C1128.62 419.738 1129.55 418.954 1130.57 418.403C1135.56 415.704 1140.46 412.86 1145.6 410.481C1152.22 407.434 1159.01 404.706 1165.77 401.95C1167.68 401.166 1168.23 400.063 1168.03 397.974C1167.42 391.764 1167.13 385.525 1166.73 379.316L1166.64 379.287ZM932.29 307.351C932.29 319.017 932.29 329.231 932.29 339.416C932.29 342.318 932.522 342.405 934.873 341.941C947.234 339.503 959.335 335.934 971.841 334.135C975.962 333.554 979.966 332.22 984.087 331.842C990.006 331.291 995.723 330.072 1001.38 328.273C1006.55 326.619 1011.62 324.53 1017.25 325.488C1017.37 325.488 1017.49 325.488 1017.6 325.488C1019.26 325.4 1020.21 324.675 1020.04 322.876C1019.95 322.063 1019.95 321.251 1019.81 320.467C1018.27 311.385 1020.36 303.028 1024.86 295.164C1026.42 292.407 1026.37 292.117 1023.46 290.811C1012.32 285.704 1001.18 280.568 989.977 275.548C982.81 272.327 975.527 269.367 968.33 266.204C966.299 265.304 964.326 263.389 962.643 266.639C962.498 266.9 962.062 267.017 961.743 267.133C956.636 268.816 951.529 270.528 946.393 272.124C942.736 273.255 939.051 274.271 935.337 275.142C931.623 276.012 931.506 275.896 931.564 279.726C931.768 289.447 932.087 299.168 932.29 307.409V307.351ZM1360.45 420.26C1360.45 421.537 1360.45 422.813 1360.45 424.09C1360.56 431.896 1359.64 430.3 1366.86 430.648C1370.55 430.822 1370.49 430.735 1371.45 427.108C1373.94 417.59 1376.55 408.072 1381.37 399.367C1383.84 394.898 1386.68 390.604 1388.6 385.903C1391.15 379.722 1392.86 373.193 1395.15 366.896C1396.11 364.255 1397.56 361.76 1399.01 359.293C1399.33 358.713 1400.49 358.626 1401.25 358.307C1401.31 359.032 1401.51 359.787 1401.39 360.512C1401.04 362.892 1400.38 365.242 1400.2 367.621C1399.68 374.992 1401.22 382.101 1402.87 389.24C1406.09 403.226 1413.44 415.385 1419.99 427.892C1421.56 430.909 1424.58 432.912 1428.23 433.579C1432.76 434.392 1436.33 430.706 1435.08 426.325C1434.76 425.222 1434.36 424.119 1433.81 423.104C1429.19 414.427 1426.67 405.084 1424.58 395.537C1422.11 384.249 1420.49 372.99 1422.14 361.441C1422.6 358.249 1422.92 355.028 1423.3 351.807C1423.39 351.11 1423.97 349.979 1422.43 350.414C1418.57 351.517 1414.74 352.735 1410.85 353.838C1404.76 355.608 1398.66 356.275 1392.37 354.505C1389.12 353.577 1385.81 352.474 1382.24 353.548C1380.93 353.954 1379.28 353.403 1377.83 353.083C1374.03 352.271 1373.36 352.445 1372.32 356.275C1370.6 362.514 1369.21 368.869 1367.62 375.137C1363.81 389.965 1360.42 404.851 1360.48 420.289L1360.45 420.26ZM934.176 379.867C933.886 379.867 933.596 379.867 933.306 379.867C933.306 385.671 933.393 391.445 933.248 397.249C933.189 399.396 933.944 399.599 935.656 398.932C937.281 398.322 938.935 397.713 940.618 397.336C952.573 394.608 964.529 391.88 976.513 389.327C979.415 388.717 980.837 387.325 981.562 384.452C983.071 378.619 984.812 372.874 986.611 367.128C988.062 362.485 990.006 357.988 991.196 353.287C993.14 345.655 996.1 338.604 1001.47 332.713C1001.7 332.452 1001.7 331.958 1001.82 331.581C1001.38 331.639 1000.95 331.697 1000.51 331.784C996.1 332.655 991.719 333.584 987.308 334.425C982.781 335.296 978.167 335.847 973.698 336.95C967.663 338.458 961.279 338.11 955.388 340.635C952.777 341.738 949.759 341.854 946.944 342.434C943.317 343.159 939.66 343.769 936.062 344.61C932.261 345.51 932.29 345.597 932.493 349.369C933.044 359.554 933.596 369.711 934.147 379.896L934.176 379.867ZM1029.04 429.691C1029.06 429.488 1029.12 429.313 1029.15 429.11C1029.96 429.11 1030.78 429.11 1031.59 429.11C1035.16 429.168 1035.22 429.197 1035.71 425.715C1036.17 422.291 1036.38 418.809 1036.9 415.385C1038.12 406.941 1039.45 398.467 1040.76 390.052C1041.05 388.195 1040.67 387.005 1038.64 386.483C1034.29 385.322 1029.99 383.842 1025.61 382.798C1014.41 380.157 1003.59 376.559 993.314 371.278C989.658 369.392 989.716 369.333 988.381 373.135C988.178 373.686 988.004 374.238 987.83 374.789C984.957 384.452 982.143 394.115 979.212 403.749C977.703 408.682 977.79 409.262 982.027 412.396C982.317 412.599 982.578 412.802 982.868 413.005C991.689 418.896 1000.95 423.8 1011.45 425.947C1017.31 427.137 1023.17 428.443 1029.01 429.691H1029.04ZM931.681 256.802C931.681 261.097 931.652 265.362 931.681 269.657C931.71 272.762 932.609 273.546 935.453 272.327C943.549 268.874 952.457 268.09 960.495 264.434C962.352 263.592 962.933 262.867 962.701 260.923C962.352 257.934 962.294 254.916 962.207 251.927C962.207 251.405 962.759 250.854 963.078 250.331C963.571 250.767 964.384 251.144 964.471 251.637C964.848 254.017 965.225 256.454 965.225 258.863C965.225 260.778 965.806 261.764 967.634 262.49C973.147 264.608 978.602 266.813 984.029 269.164C998.131 275.345 1012.29 281.467 1026.22 288.025C1028.98 289.331 1030.52 288.461 1032.43 287.3C1039.08 283.325 1048.33 284.572 1053.64 290.289C1055.99 292.842 1058.17 295.541 1060.46 298.153C1060.78 298.501 1061.42 298.588 1061.91 298.762C1061.88 298.327 1061.83 297.863 1061.8 297.427C1061.8 293.278 1061.8 289.128 1061.8 284.979C1061.8 283.005 1061.8 281.032 1061.83 279.088C1061.85 276.941 1060.9 275.867 1058.72 275.229C1050.51 272.82 1042.41 269.947 1034.14 267.713C1024.31 265.043 1014.32 262.925 1004.46 260.458C992.792 257.528 981.127 254.568 969.491 251.463C957.623 248.3 945.812 244.934 934.002 241.597C931.913 241.017 931.652 241.945 931.652 243.657C931.71 248.068 931.652 252.45 931.652 256.86L931.681 256.802ZM1109.21 272.298C1109.65 270.354 1108.69 269.28 1105.79 268.729C1095.02 266.581 1084.23 264.492 1073.43 262.345C1071.6 261.996 1069.83 261.445 1068.04 261.039C1055.85 258.311 1043.54 256.106 1031.62 252.217C1021.61 248.967 1011.42 246.182 1001.18 243.773C991.283 241.452 981.127 240.175 971.232 237.912C959.393 235.213 947.611 232.253 935.917 228.916C929.04 226.972 929.243 226.537 929.446 233.646C929.504 236.113 930.404 237.447 932.841 238.057C939.138 239.653 945.377 241.423 951.645 243.077C956.897 244.47 962.207 245.775 967.431 247.226C972.335 248.619 977.123 250.418 982.056 251.608C993.198 254.278 1004.49 256.309 1015.54 259.24C1031.65 263.505 1047.61 268.322 1063.62 272.994C1069.17 274.619 1074.71 276.36 1080.11 278.421C1088.64 281.7 1097.02 285.298 1105.53 288.693C1105.85 288.809 1106.8 288.316 1106.86 287.996C1107.7 282.773 1108.49 277.521 1109.24 272.269L1109.21 272.298ZM1259.55 304.159C1258.07 304.304 1256.39 304.188 1254.88 304.624C1247.05 306.8 1239.85 310.601 1232.6 314.171C1232.16 314.374 1231.87 314.896 1231.49 315.273C1231.87 315.505 1232.22 315.825 1232.62 315.97C1235.35 316.956 1238.17 317.711 1240.78 318.9C1249.31 322.818 1256.85 328.186 1263.04 335.238C1267.19 339.967 1271.25 344.61 1277.46 346.7C1277.78 346.816 1278.12 346.99 1278.33 347.251C1279.75 348.934 1281.23 348.528 1282.97 347.715C1289.35 344.697 1295.83 341.854 1302.21 338.807C1308.68 335.731 1315.06 332.481 1321.48 329.289C1322.7 328.679 1322.64 327.983 1321.59 327.258C1320.84 326.735 1320.06 326.184 1319.24 325.778C1315.33 323.804 1311.38 321.831 1307.4 320.003C1306.77 319.713 1305.69 320.003 1304.94 320.322C1303.02 321.106 1301.22 322.267 1299.28 322.847C1296.46 323.688 1296.35 323.601 1297.97 326.01C1299.8 328.709 1300.82 331.61 1300.56 334.831C1300.5 335.644 1299.54 336.369 1298.99 337.153C1298.64 336.456 1298.23 335.789 1297.97 335.063C1297.19 332.916 1296.58 330.74 1295.71 328.621C1293.85 324.124 1288.72 322.238 1286.86 317.682C1286.71 317.333 1286.08 317.217 1285.7 316.956C1283.46 315.331 1280.88 314.025 1279.08 312.023C1273.83 306.191 1267.04 304.682 1259.58 304.159H1259.55ZM1220.44 229.438C1220.41 225.695 1218.73 224.07 1215.24 224.883C1211.35 225.811 1207.38 226.943 1203.81 228.713C1191.48 234.807 1179.26 241.133 1166.46 246.269C1157.56 249.838 1149.08 254.423 1140.38 258.456C1133.15 261.793 1125.84 265.043 1118.56 268.264C1116.99 268.961 1115.19 269.193 1113.62 269.86C1112.9 270.179 1111.97 270.992 1111.85 271.688C1111.13 275.983 1110.63 280.336 1110.05 284.659C1110.02 284.979 1110.08 285.327 1110.11 285.675C1110.52 285.617 1110.95 285.617 1111.27 285.443C1114.96 283.528 1118.58 281.409 1122.36 279.639C1132.37 274.851 1142.47 270.208 1152.54 265.479C1154.54 264.55 1156.48 263.563 1158.46 262.577C1168.09 257.789 1177.69 252.914 1187.39 248.242C1193.74 245.166 1200.21 242.38 1206.6 239.363C1210.46 237.534 1214.17 235.445 1218.03 233.646C1220.03 232.688 1220.7 231.238 1220.47 229.438H1220.44ZM1170.38 382.217C1170.38 382.217 1170.35 382.217 1170.32 382.217C1170.32 387.092 1170.27 391.938 1170.38 396.813C1170.38 397.452 1171.19 398.642 1171.54 398.613C1174.5 398.38 1176.71 395.479 1176.65 392.432C1176.53 387.005 1176.56 381.579 1176.45 376.124C1176.42 374.557 1176.91 373.512 1178.39 372.845C1181.67 371.394 1184.89 369.798 1188.17 368.376C1193.25 366.171 1198.41 364.139 1203.49 361.934C1206.16 360.773 1207.35 361.412 1207.26 364.429C1207.18 367.563 1206.74 370.668 1206.77 373.802C1206.77 375.979 1207.21 378.126 1207.55 380.273C1207.79 381.579 1208.63 381.927 1209.87 381.289C1210.8 380.825 1211.91 380.621 1212.69 379.983C1213.27 379.548 1213.76 378.561 1213.73 377.865C1213.41 372.467 1212.89 367.07 1212.54 361.673C1212.52 361.092 1212.78 360.222 1213.21 359.903C1214.89 358.713 1216.61 357.494 1218.46 356.653C1222.87 354.65 1227.4 352.909 1231.87 350.994C1233.73 350.211 1235 350.733 1235.47 352.735C1235.64 353.519 1235.5 354.36 1235.61 355.144C1236.16 359.148 1236.66 363.182 1237.35 367.157C1237.5 367.883 1238.54 369.014 1239.18 369.014C1241.88 368.985 1243.39 367.215 1243.19 364.575C1242.72 358.597 1242.26 352.59 1241.74 346.613C1241.59 344.9 1241.27 343.188 1241.04 341.476C1239.41 341.796 1237.79 342.115 1236.19 342.434C1235.96 342.492 1235.73 342.434 1235.5 342.521C1230.33 343.769 1225.08 344.755 1220.03 346.38C1212.31 348.876 1204.71 351.691 1197.14 354.592C1189.04 357.726 1181.09 361.15 1173.02 364.371C1170.99 365.184 1170.27 366.519 1170.32 368.637C1170.41 373.164 1170.35 377.662 1170.35 382.188L1170.38 382.217ZM1033.36 364.342C1033.56 366.229 1033.65 368.666 1034.17 371.017C1035.16 375.688 1037.6 379.577 1041.37 382.537C1041.54 382.682 1042.12 382.624 1042.18 382.508C1043.49 379.606 1044.44 376.53 1046.1 373.86C1047.08 372.293 1046.53 371.684 1045.78 370.668C1044.33 368.724 1042.88 366.78 1041.6 364.72C1041.22 364.081 1041.48 363.066 1041.46 362.224C1042.21 362.63 1043.14 362.892 1043.66 363.501C1049.64 370.436 1055.44 377.458 1061.48 384.336C1063.45 386.57 1065.77 388.514 1068.12 390.371C1072.39 393.738 1076.77 396.958 1081.09 400.238C1082.78 401.514 1084.58 404.126 1086 403.923C1087.94 403.633 1089.57 401.224 1091.31 399.715C1091.66 399.425 1091.98 399.077 1092.27 398.7C1094.59 395.624 1094.15 393.302 1090.84 391.416C1089.86 390.836 1088.81 390.197 1087.71 389.965C1082.11 388.834 1077.9 385.583 1073.98 381.637C1069.02 376.617 1063.83 371.8 1061.25 364.952C1060.11 361.934 1058.55 359.09 1057.3 356.101C1054.72 349.95 1050.31 347.889 1044.07 349.775C1041.14 350.646 1039.37 352.677 1037.22 354.621C1034.29 357.291 1033.48 360.251 1033.36 364.342ZM1036.09 381.927C1035.68 381.347 1035.48 381.057 1035.27 380.767C1029.96 372.874 1029.79 364.313 1032.23 355.492C1032.6 354.099 1032.2 353.519 1031.1 353.113C1030.14 352.735 1029.12 352.416 1028.14 352.126C1019.95 349.63 1011.74 347.164 1003.56 344.61C998.48 343.043 998.16 343.159 996.448 348.179C995.926 349.717 995.578 351.313 995.114 352.851C994.127 356.188 993.198 359.525 992.096 362.833C990.819 366.606 990.732 366.606 994.098 368.463C994.707 368.811 995.346 369.072 995.955 369.392C1005.79 374.121 1016.04 377.691 1026.66 380.186C1029.35 380.825 1032.02 381.608 1034.72 382.275C1035.07 382.363 1035.54 382.072 1036.06 381.927H1036.09ZM1044.1 318.349C1048.88 318.175 1053.15 317.45 1055.67 312.72C1056.6 310.95 1057.79 310.775 1059.07 312.633C1059.33 313.01 1060.49 313.242 1060.93 312.981C1064.5 310.833 1068.04 308.657 1071.43 306.278C1073.29 304.972 1073.11 303.492 1070.97 302.679C1069.2 302.041 1067.08 301.722 1065.25 302.041C1060.69 302.825 1057.91 300.851 1055.38 297.311C1053.47 294.642 1051.06 292.088 1048.36 290.26C1045.14 288.083 1041.11 287.648 1037.31 288.461C1033.33 289.302 1030.66 292.552 1028.22 295.454C1024.91 299.4 1023.55 304.45 1022.83 309.499C1022.65 310.746 1023.38 312.459 1024.25 313.387C1025.29 314.49 1026.92 315.331 1028.43 315.65C1033.62 316.695 1038.87 317.479 1044.1 318.349ZM1370.78 252.566C1370.78 253.726 1370.55 254.945 1370.84 256.019C1371.13 257.005 1371.85 258.398 1372.64 258.601C1373.42 258.804 1374.81 258.021 1375.45 257.238C1376.67 255.729 1377.51 253.9 1378.58 252.275C1380.12 249.983 1380.79 250.041 1381.95 252.479C1383.46 255.613 1384.65 255.99 1387.61 254.22C1390.45 252.508 1390.48 252.508 1391.12 255.613C1391.44 257.121 1391.64 258.166 1393.76 257.15C1396.87 255.671 1399.85 256.512 1402.44 258.775C1403.39 259.617 1403.86 261.387 1405.72 260.488C1406.96 259.878 1408.33 259.414 1409.34 258.543C1410.91 257.238 1410.45 255.961 1408.41 255.409C1405.72 254.684 1405.72 254.539 1406.99 252.101C1407.72 250.708 1408.39 249.142 1408.47 247.633C1408.59 245.369 1407.43 244.76 1405.37 245.601C1403.24 246.491 1402.16 245.727 1402.12 243.309C1402.12 242.845 1402.12 242.38 1402 241.916C1401.33 238.985 1399.07 238.057 1396.75 239.943C1395.12 241.249 1394.49 240.697 1393.62 239.13C1391.06 234.488 1387.12 231.76 1381.78 231.179C1380.33 231.005 1378.99 230.918 1378.32 232.63C1377.71 234.197 1376.38 234.429 1374.9 234.342C1367.24 233.936 1357.72 243.106 1355.02 250.65C1354.91 250.97 1354.91 251.318 1354.85 251.666C1354.62 253.233 1355.23 254.162 1356.91 254.075C1360.91 253.813 1364.74 253.233 1367.24 249.49C1367.73 248.735 1368.86 248.387 1369.68 247.865C1370.05 248.735 1370.49 249.606 1370.75 250.505C1370.92 251.144 1370.78 251.898 1370.78 252.566ZM818.134 37.021C815.058 38.0656 812.475 39.0522 809.835 39.8357C803.712 41.5768 797.444 42.8826 791.466 45.0009C777.712 49.8469 765.089 57.4495 750.986 61.512C750.754 61.5701 750.522 61.6281 750.348 61.7732C749.942 62.0924 749.564 62.4406 749.187 62.7888C749.535 63.05 749.884 63.3982 750.29 63.5433C754.527 65.0812 758.763 66.7062 763.058 68.0411C764.102 68.3603 765.582 67.954 766.685 67.4607C785.169 59.3647 804.176 52.6906 823.444 46.771C825.649 46.1036 827.797 45.204 829.915 44.2754C832.004 43.3469 832.178 42.6214 830.205 41.7219C826.259 39.9228 822.109 38.5299 818.134 37.021ZM1094.67 353.577C1093.6 348.876 1095.4 345.104 1100.68 342.985C1107.56 340.2 1114.32 337.211 1121.14 334.28C1124.16 332.974 1125.08 333.554 1125.37 336.775C1125.61 339.416 1125.9 342.057 1126.22 344.697C1126.27 345.162 1126.56 345.916 1126.88 345.974C1128.36 346.351 1131.15 344.03 1131.18 342.463C1131.21 340.374 1131.12 338.284 1131.18 336.195C1131.24 333.322 1132.16 331.146 1135.24 330.043C1141.22 327.896 1147.11 325.429 1153.06 323.137C1155.15 322.325 1155.96 322.876 1156.42 325.139C1156.71 326.503 1156.77 327.925 1157.24 329.202C1157.56 330.072 1157.5 331.784 1159.38 331.117C1160.86 330.595 1162.29 330.13 1161.88 328.07C1161.07 323.979 1160.37 319.887 1159.53 315.796C1159.18 314.142 1158.14 313.503 1156.42 314.2C1153.96 315.215 1151.52 316.347 1148.97 317.072C1133.33 321.483 1118.38 327.838 1103.26 333.642C1101.67 334.251 1100.19 335.238 1098.71 336.108C1095.6 337.907 1092.61 339.851 1089.42 341.505C1087.94 342.26 1087.27 343.072 1087.51 344.697C1088.2 349.514 1088.78 354.331 1089.51 359.148C1089.97 362.282 1090.67 362.572 1093.34 360.86C1093.98 360.454 1094.53 359.496 1094.62 358.742C1094.82 357.262 1094.67 355.753 1094.67 353.548V353.577ZM1310.77 304.914C1310.68 294.351 1298.93 286.72 1290.78 290.347C1289.53 290.898 1287.99 291.45 1288.11 293.51C1288.19 295.077 1286.95 295.077 1285.96 294.525C1285.18 294.09 1284.62 293.278 1283.96 292.697C1283.64 292.436 1283.2 292.291 1282.83 292.088C1282.65 292.465 1282.33 292.842 1282.3 293.249C1282.25 293.945 1282.36 294.642 1282.42 295.309C1282.51 296.644 1282.36 297.369 1280.53 297.224C1277.66 296.963 1274.44 300.329 1274.58 303.144C1274.61 303.811 1275.16 304.566 1275.69 305.03C1277.66 306.8 1279.78 308.396 1281.72 310.166C1283.03 311.327 1284.02 312.865 1285.38 313.938C1287.35 315.476 1289.5 316.724 1291.62 318.088C1292.49 318.639 1293.33 319.307 1294.26 319.597C1298.61 320.961 1305.66 318.494 1307.61 314.461C1309.29 310.979 1310.1 307.09 1310.8 304.914H1310.77ZM1074.48 332.597C1074.48 332.597 1074.3 332.597 1074.22 332.597C1074.22 331.088 1074.22 329.579 1074.22 328.099C1074.3 322.325 1074.36 316.521 1074.48 310.746C1074.51 308.715 1074.01 308.164 1072.19 309.47C1070.5 310.688 1068.7 311.762 1066.87 312.749C1064 314.316 1061.94 316.086 1063.71 319.771C1064.12 320.642 1063.91 321.831 1064.06 322.847C1065.42 331.784 1060.49 338.662 1051.61 340.316C1051.29 340.374 1050.74 341.099 1050.8 341.186C1052.25 343.508 1053.82 345.771 1055.3 348.063C1057.1 350.849 1058.95 353.606 1060.52 356.508C1062.73 360.57 1064.64 364.778 1066.82 368.84C1067.25 369.653 1068.44 370.697 1069.02 370.581C1069.81 370.407 1070.59 369.246 1070.94 368.347C1071.55 366.751 1072.04 365.039 1072.19 363.327C1073.03 353.084 1073.72 342.811 1074.51 332.568L1074.48 332.597ZM1126.04 433.55C1126.51 433.318 1127.52 433.144 1127.7 432.679C1128.45 430.619 1125.26 425.251 1123.02 424.496C1113.27 421.188 1103.55 417.909 1093.83 414.543C1089.57 413.063 1085.27 411.671 1081.15 409.842C1073.43 406.447 1065.83 402.762 1058.17 399.222C1056.63 398.496 1055.01 397.887 1053.44 397.22C1053.56 399.106 1053.7 401.021 1053.76 402.907C1053.87 406.07 1055.5 407.84 1058.43 408.972C1063.6 411.003 1068.73 413.121 1073.66 415.646C1086.61 422.262 1100.3 426.847 1114.2 430.88C1117.98 431.983 1121.86 432.592 1126.04 433.492V433.55ZM1014.76 328.302C1013.19 328.854 1010.87 329.057 1009.42 330.275C1006.6 332.626 1004.17 335.441 1001.76 338.284C1000.13 340.2 1000.37 340.403 1002.83 341.157C1013.22 344.32 1023.58 347.541 1033.97 350.646C1034.78 350.878 1036.03 350.646 1036.7 350.153C1040.18 347.57 1044.01 346.351 1048.3 346.293C1049.03 346.293 1049.75 345.974 1050.48 345.8C1050.07 345.133 1049.75 344.378 1049.2 343.856C1044.12 338.836 1037.94 335.586 1031.53 332.684C1031.21 332.539 1030.86 332.394 1030.54 332.394C1029.91 332.394 1029.09 332.307 1028.66 332.655C1026.83 334.048 1025.38 333.293 1024.07 331.958C1021.64 329.405 1018.36 329.202 1014.73 328.331L1014.76 328.302ZM832.12 50.9495C832.12 47.4964 832.149 47.5254 829.073 48.6571C827.216 49.3245 825.33 49.9049 823.473 50.5143C813.143 53.9384 802.754 57.1303 792.54 60.9027C782.993 64.4138 773.649 68.5344 764.248 72.3937C763.667 72.6259 762.913 73.0612 762.797 73.5545C762.245 75.7888 761.723 78.0522 761.491 80.3446C761.143 83.5076 761.781 83.8848 764.683 82.492C770.835 79.5612 776.986 76.5433 783.138 73.6125C784.705 72.858 786.33 72.2486 787.926 71.5812C794.455 68.9406 801.013 66.329 807.542 63.6303C815.029 60.5254 822.428 57.2464 829.973 54.3156C832.004 53.5321 832.236 52.3424 832.12 50.9205V50.9495ZM1201.26 472.405C1201.87 471.215 1202.13 470.432 1202.62 469.793C1205.93 465.354 1209.5 461.088 1212.6 456.503C1219.07 446.927 1225.23 437.119 1231.67 427.543C1238.34 417.648 1243.59 406.999 1248.9 396.349C1249.02 396.146 1249.25 395.856 1249.19 395.74C1248.99 395.421 1248.5 394.898 1248.44 394.956C1245.6 396.639 1242.06 397.307 1240.17 400.441C1238.63 403.023 1236.86 405.49 1235.58 408.188C1228.71 422.813 1219.6 436.046 1210.08 449.017C1206.19 454.327 1201.87 459.318 1197.75 464.425C1196.99 465.354 1195.51 466.079 1196.76 467.588C1197.92 468.952 1199.17 470.229 1201.2 472.405H1201.26ZM1179.41 385.264H1179.55C1179.55 387.586 1179.64 389.878 1179.55 392.2C1179.46 394.028 1180.1 394.086 1181.55 393.476C1187.39 390.923 1193.22 388.456 1199.05 385.961C1200.85 385.177 1202.68 384.452 1204.45 383.581C1204.91 383.349 1205.49 382.333 1205.35 382.159C1202.68 378.677 1203.61 374.644 1203.58 370.755C1203.55 366.142 1203.64 366.2 1199.25 368.057C1197.25 368.927 1195.13 369.537 1193.07 370.291C1190.37 371.307 1187.59 372.177 1185.01 373.396C1179.46 376.008 1179.49 376.095 1179.44 382.13C1179.44 383.175 1179.44 384.22 1179.44 385.235L1179.41 385.264ZM1233.9 397.017C1236.34 396.959 1238.69 396.726 1240.4 394.608C1240.89 393.999 1241.82 393.679 1242.64 393.418C1243.91 393.012 1245.33 393.012 1246.5 392.432C1248.99 391.213 1251.2 389.385 1253.78 388.514C1256.54 387.557 1256.8 385.671 1256.91 383.407C1256.97 382.043 1256.33 381.782 1255.2 382.275C1254.68 382.508 1254.16 382.769 1253.63 383.03C1234.25 392.693 1214.66 401.95 1194.29 409.349C1188.4 411.496 1185.24 415.356 1182.86 420.521C1182.6 421.101 1182.54 421.798 1182.37 422.436C1182.98 422.204 1183.64 422.03 1184.19 421.711C1195.34 415.24 1206.91 409.726 1218.87 404.909C1223.48 403.052 1228.68 401.892 1232.04 397.568C1232.36 397.162 1233.26 397.191 1233.9 397.017ZM1181.84 415.443C1181.26 415.414 1180.8 415.24 1180.42 415.385C1177.81 416.342 1175.2 417.329 1172.64 418.403C1172.09 418.635 1171.54 419.215 1171.25 419.767C1168.73 424.671 1166.35 429.691 1163.74 434.566C1159.7 442.11 1155.55 449.597 1151.46 457.113C1150.94 458.099 1150.42 458.999 1152.01 459.55C1156.06 460.943 1159.05 459.734 1161.01 455.923C1161.15 455.604 1161.33 455.313 1161.5 454.994C1167.91 442.546 1174.3 430.068 1180.71 417.619C1181.03 417.01 1181.35 416.4 1181.87 415.443H1181.84ZM1371.77 271.717C1377.34 272.153 1382.59 272.008 1386.68 267.278C1387.75 266.03 1390.39 265.624 1390.77 264.376C1391.21 262.925 1389.81 261.01 1389.44 259.24C1389.06 257.441 1388.57 257.034 1386.68 257.818C1385.26 258.427 1382.85 258.775 1381.86 258.021C1379.66 256.28 1378.64 256.599 1377.66 258.95C1377.54 259.269 1377.25 259.501 1377.02 259.762C1375.36 261.532 1373.48 262.954 1370.92 262.084C1368.34 261.184 1367.79 258.921 1367.79 256.483C1367.79 256.135 1367.79 255.787 1367.79 255.438C1367.85 254.307 1367.79 253.668 1366.28 254.365C1364.1 255.409 1361.78 256.135 1359.52 257.005C1356.79 258.021 1355.72 262.954 1357.72 265.072C1358.1 265.479 1358.5 266.523 1358.3 266.755C1355.72 269.628 1358.53 269.831 1360.1 270.121C1363.96 270.818 1367.85 271.224 1371.74 271.746L1371.77 271.717ZM1234.8 370.175C1233.87 365.416 1232.97 361.238 1232.22 357.03C1231.93 355.434 1231.14 355.579 1230.01 356.014C1226.47 357.407 1222.82 358.597 1219.39 360.222C1217.74 360.976 1215.65 361.818 1215.71 364.313C1215.77 368.231 1215.82 372.148 1215.91 376.095C1215.94 377.923 1216.66 378.59 1218.52 377.778C1223.4 375.659 1228.33 373.686 1233.21 371.568C1233.9 371.249 1234.42 370.552 1234.8 370.204V370.175ZM1260.57 457.461C1259.38 456.764 1258.65 456.387 1257.99 455.923C1249.22 449.307 1240.46 442.633 1231.7 436.017C1231.29 435.726 1230.36 435.436 1230.27 435.552C1228.97 437.438 1227.46 439.296 1226.68 441.414C1226.44 442.052 1227.95 443.706 1229 444.461C1236.43 449.974 1243.94 455.43 1251.46 460.798C1252.5 461.552 1254.13 464.222 1255 460.334C1255.17 459.521 1257.32 459.144 1258.54 458.563C1258.91 458.389 1259.26 458.157 1260.57 457.461ZM1374.58 288.461C1377.16 287.3 1380.47 286.778 1382.12 284.833C1384.1 282.512 1381.86 279.639 1380.47 277.231C1380.3 276.941 1380.18 276.534 1379.92 276.36C1379.05 275.751 1378.15 274.851 1377.19 274.735C1371.33 274.126 1365.47 273.633 1359.61 273.255C1358.82 273.197 1357.63 273.952 1357.26 274.648C1356.21 276.65 1357.81 282.57 1359.84 283.383C1364.54 285.24 1369.39 286.691 1374.61 288.461H1374.58ZM1097.14 353.287C1097.14 354.679 1097.14 355.376 1097.14 356.072C1097.2 359.09 1097.23 359.09 1099.98 357.813C1104.71 355.637 1109.44 353.49 1114.17 351.371C1117.22 350.008 1120.33 348.702 1123.4 347.396C1124.39 346.99 1124.82 346.816 1124.13 345.481C1123.31 343.914 1123.08 341.999 1122.76 340.2C1122.27 337.356 1122.3 337.24 1119.54 338.4C1113.68 340.838 1107.88 343.392 1102.04 345.916C1098.53 347.454 1096.24 349.746 1097.11 353.287H1097.14ZM1061.62 325.72C1061.19 323.485 1060.58 321.019 1060.29 318.523C1060.06 316.579 1059.13 316.579 1057.71 317.188C1054.14 318.726 1050.6 320.293 1046.97 321.744C1045.66 322.267 1044.36 322.528 1044.33 324.385C1044.3 326.097 1045.17 326.822 1046.62 327.374C1047.2 327.577 1047.55 328.418 1048.01 328.941C1047.32 329.231 1046.62 329.608 1045.89 329.753C1045.49 329.84 1044.97 329.695 1044.56 329.492C1042.73 328.505 1042.24 329.26 1042.56 331.001C1042.79 332.249 1042.94 333.554 1043.49 334.686C1043.83 335.412 1045.08 336.456 1045.4 336.311C1047.43 335.267 1048.94 336.601 1050.65 337.066C1052.92 337.704 1055.06 337.153 1056.86 335.731C1059.97 333.293 1061.1 329.811 1061.62 325.749V325.72ZM1200.15 477.802C1199.46 476.787 1198.7 475.046 1197.43 473.914C1195.92 472.608 1193.71 472.057 1192.26 470.693C1191.16 469.648 1190.4 469.706 1189.27 470.084C1183.29 472.086 1181.79 476.787 1185.15 482.793C1187.24 486.537 1190.55 488.568 1193.77 487.9C1197.69 487.088 1198.94 484.041 1199.6 480.588C1199.72 479.921 1199.86 479.224 1200.18 477.773L1200.15 477.802ZM1216.43 433.086C1217.42 432.128 1218.55 431.142 1219.57 430.039C1220.84 428.675 1220.81 427.659 1218.99 426.528C1214.87 423.974 1210.54 421.566 1207 418.345C1203.26 414.95 1200.18 415.646 1196.7 418.2C1196.06 418.664 1195.34 419.099 1194.61 419.447C1192.7 420.376 1193.19 420.927 1194.76 421.769C1200.73 425.019 1206.62 428.414 1212.6 431.693C1213.59 432.244 1214.75 432.476 1216.43 433.057V433.086ZM1073.64 287.271C1073.64 287.271 1073.61 287.271 1073.58 287.271C1073.58 285.646 1073.69 284.021 1073.58 282.425C1073.32 279.697 1069.72 277.144 1066.06 277.637C1063.16 278.043 1065.25 280.655 1064.93 282.193C1064.5 284.195 1064.73 286.342 1064.61 288.403C1064.47 291.159 1064.26 293.916 1064 296.673C1063.83 298.414 1064.47 299.052 1066.29 299.168C1068.56 299.284 1070.82 299.749 1073 300.3C1074.45 300.677 1074.27 299.836 1074.25 299.052C1074.07 295.135 1073.84 291.217 1073.64 287.3V287.271ZM1022.3 319.104C1023.14 321.715 1023.9 324.356 1024.91 326.88C1025.21 327.577 1026.16 328.157 1026.98 328.476C1030.69 329.985 1034.49 331.349 1038.21 332.858C1039.45 333.351 1039.63 333.235 1039.66 331.784C1039.71 328.97 1039.95 326.068 1040.67 323.34C1041.34 320.7 1041.51 320.671 1038.7 320.148C1033.97 319.249 1029.24 318.349 1024.57 317.217C1022.65 316.753 1022.68 317.682 1022.3 319.104ZM1269.94 469.619C1270.14 464.918 1267.5 461.494 1263.56 461.262C1259.93 461.059 1256.01 465.267 1255.9 469.532C1255.75 473.972 1259.26 477.57 1263.94 477.773C1267.59 477.918 1269.74 475.017 1269.97 469.619H1269.94ZM1133.64 339.416C1133.56 343.333 1133.18 343.682 1137.16 341.854C1142.21 339.532 1147.28 337.298 1152.3 334.947C1153.55 334.367 1154.89 333.642 1155.67 332.626C1155.96 332.22 1154.8 330.769 1154.36 329.782C1154.13 329.26 1154.07 328.679 1153.99 328.099C1153.78 326.619 1153 326.59 1151.78 327.054C1146.82 328.941 1141.86 330.885 1136.84 332.597C1134.86 333.264 1134.02 334.425 1133.88 336.34C1133.79 337.385 1133.73 338.4 1133.67 339.445L1133.64 339.416ZM1157.7 469.242C1156.92 467.501 1156.6 465.15 1155.23 464.164C1153.32 462.742 1150.68 461.639 1148.36 461.668C1144.96 461.697 1142.61 465.847 1143.08 469.822C1143.57 474.03 1146.88 476.642 1151.4 476.38C1154.89 476.177 1157.18 473.45 1157.67 469.271L1157.7 469.242ZM1310.42 245.921C1310.33 245.717 1310.25 245.514 1310.16 245.34C1309.52 245.456 1308.77 245.34 1308.27 245.688C1304.3 248.271 1304.62 255.7 1308.8 257.992C1310.94 259.182 1312.02 258.863 1313.44 256.831C1315.09 254.452 1316.66 252.014 1318.58 249.867C1320.11 248.126 1320 247.023 1318.29 245.601C1315.35 243.164 1312.54 240.581 1309.64 238.057C1308.68 237.215 1307.72 236.374 1306.65 235.677C1306.01 235.271 1305.2 235.184 1304.44 234.952C1304.73 235.619 1304.88 236.461 1305.37 236.925C1307.26 238.608 1309.32 240.088 1311.15 241.829C1311.87 242.525 1312.28 243.715 1312.42 244.731C1312.45 245.05 1311.12 245.543 1310.42 245.95V245.921ZM1102.04 411.032C1106.6 411.032 1110.17 409.784 1113.27 407.376C1114.14 406.679 1114.84 405.751 1115.62 404.938C1114.49 404.648 1113.36 404.184 1112.2 404.068C1107.47 403.604 1102.62 403.4 1098.59 400.644C1096.71 399.367 1095.69 399.019 1094.38 401.137C1093.57 402.472 1092.32 403.546 1091.28 404.735C1092.5 405.751 1093.75 406.708 1094.96 407.753C1097.2 409.639 1099.46 411.438 1102.07 411.061L1102.04 411.032ZM1397.59 259.588C1395.41 259.53 1393.47 261.561 1394.57 262.867C1396.63 265.304 1394.83 266.001 1393.18 266.959C1391.18 268.119 1389.09 269.164 1387.23 270.499C1381.98 274.358 1382.07 274.387 1385.03 279.988C1385.78 281.438 1386.25 281.38 1387.12 280.191C1387.52 279.639 1388.07 279.175 1388.68 278.856C1393.88 276.041 1396.29 270.615 1400.14 266.552C1400.84 265.798 1401.1 264.434 1401.16 263.331C1401.31 261.01 1399.85 259.646 1397.56 259.588H1397.59ZM745.299 70.5366C745.299 71.233 745.415 71.9295 745.299 72.5969C744.777 75.2375 746.053 76.4853 748.462 77.3848C750.725 78.2263 752.785 79.5611 754.904 80.6928C758.067 82.4049 758.212 82.3178 758.531 78.9228C758.676 77.4428 759.053 75.992 759.343 74.512C759.953 71.6103 759.373 70.5076 756.616 69.492C754.352 68.6504 752.002 67.983 749.739 67.0835C744.777 65.1393 744.806 65.1103 745.299 70.4786V70.5366ZM1060.32 388.601C1059.04 390.023 1057.85 391.416 1056.6 392.78C1055.59 393.883 1055.5 394.608 1057.1 395.334C1065.02 398.874 1072.88 402.501 1080.77 406.099C1081.06 406.244 1081.41 406.302 1081.7 406.389C1081.59 406.128 1081.53 405.78 1081.35 405.577C1080.16 404.329 1079.09 402.936 1077.73 401.862C1072.56 397.8 1067.31 393.825 1062.06 389.82C1061.62 389.472 1061.16 389.182 1060.29 388.601H1060.32ZM1058.66 386.773C1058.34 386.048 1058.31 385.932 1058.23 385.845C1055.41 382.508 1052.6 379.142 1049.73 375.833C1049.64 375.717 1048.91 375.921 1048.74 376.153C1045.69 380.244 1045.11 385.206 1043.92 389.936C1043.6 391.271 1044.18 391.619 1045.43 391.039C1047.64 390.023 1049.84 389.095 1052.05 388.05C1053.18 387.499 1054.11 386.86 1055.53 387.847C1056.05 388.224 1057.56 387.179 1058.66 386.744V386.773ZM978.109 509.809C979.212 509.606 981.156 509.403 983.042 508.88C983.913 508.648 984.638 507.836 985.422 507.284C984.609 506.791 983.855 506.037 982.955 505.804C976.078 504.092 968.707 503.628 963.542 497.738C963.397 497.563 962.207 497.912 962.207 498.028C962.149 500.088 961.888 502.119 963.6 503.86C967.373 507.633 971.812 509.751 978.08 509.809H978.109ZM1332.3 328.621C1330.47 328.621 1328.47 328.621 1327.8 330.827C1327.14 333.032 1328.7 334.164 1330.39 335.121C1331.37 335.673 1332.16 336.659 1333.2 337.008C1335.44 337.762 1337.76 338.284 1340.08 338.72C1340.57 338.807 1341.73 338.168 1341.73 337.907C1341.62 335.528 1341.62 333.032 1340.86 330.827C1340.57 329.927 1338.51 329.463 1337.15 329.144C1335.58 328.767 1333.96 328.767 1332.27 328.592L1332.3 328.621ZM1429.34 437.003C1426.09 436.365 1425.94 436.394 1426.14 437.845C1426.67 441.733 1427.28 445.592 1427.94 449.452C1428.32 451.599 1429.6 451.309 1430.38 449.887C1432.62 445.738 1434.62 441.443 1436.68 437.206C1436.88 436.8 1436.97 436.307 1436.91 435.842C1436.85 435.204 1436.59 434.595 1436.42 433.985C1435.92 434.217 1435.43 434.45 1434.91 434.653C1433.05 435.436 1431.19 436.191 1429.31 436.945L1429.34 437.003ZM1045.75 517.034C1049.7 517.034 1053.41 516.454 1056.49 513.784C1057.15 513.204 1057.62 512.421 1058.17 511.724C1057.39 511.347 1056.63 510.708 1055.79 510.592C1052.8 510.244 1049.81 509.983 1046.79 509.838C1046.07 509.809 1045.2 510.215 1044.62 510.709C1041.98 512.885 1039.13 514.568 1035.62 514.858C1035.3 514.858 1035.01 515.119 1034.72 515.235C1035.04 515.467 1035.36 515.903 1035.71 515.932C1039.05 516.338 1042.38 516.657 1045.72 517.005L1045.75 517.034ZM1412.3 265.275C1412.3 262.2 1411.23 261.561 1408.27 262.461C1405.8 263.186 1403.83 263.854 1403.89 267.075C1403.89 268.264 1402.81 269.628 1401.91 270.615C1400.58 272.095 1400.93 273.633 1401.51 275.142C1401.97 276.389 1403.02 276.767 1403.77 275.461C1404.9 273.546 1405.95 271.514 1406.7 269.425C1407.2 268.09 1407.43 266.9 1409.17 267.452C1411.75 268.293 1412.3 267.945 1412.3 265.304V265.275ZM1364.57 433.492V433.347C1363.18 433.347 1361.78 433.202 1360.42 433.405C1359.49 433.55 1358.5 433.985 1357.78 434.566C1356.1 435.929 1354.53 437.467 1352.93 438.976C1352.64 439.267 1352.47 439.673 1352.24 440.021C1352.58 440.079 1352.93 440.224 1353.25 440.166C1354.73 439.934 1356.24 439.818 1357.63 439.354C1361.58 438.048 1365.47 436.655 1369.36 435.204C1369.76 435.059 1369.97 434.392 1370.26 433.985C1369.85 433.811 1369.47 433.55 1369.07 433.521C1367.56 433.463 1366.05 433.521 1364.57 433.521V433.492ZM1209.67 434.217C1209.03 433.608 1208.69 433.144 1208.22 432.883C1202.07 429.458 1195.95 426.034 1189.74 422.726C1189.27 422.465 1188.34 423.104 1187.62 423.307C1188.02 423.829 1188.31 424.554 1188.87 424.816C1194.64 427.717 1200.44 430.561 1206.25 433.405C1206.97 433.753 1207.7 434.101 1208.48 434.363C1208.71 434.45 1209.06 434.304 1209.7 434.217H1209.67ZM1214.17 435.059C1213.24 435.61 1212.89 435.784 1212.57 435.988C1212.92 436.307 1213.24 436.771 1213.68 436.916C1213.88 436.974 1214.49 436.539 1214.55 436.22C1214.63 435.871 1214.31 435.436 1214.17 435.059ZM1226.73 445.854C1225.75 445.244 1225.31 444.896 1224.82 444.693C1224.73 444.664 1224.24 445.244 1224.27 445.302C1224.53 445.621 1224.82 445.941 1225.2 446.173C1225.37 446.26 1225.66 446.086 1226.73 445.854Z" fill="#3A352F"/>
<path d="M919.697 328.155C919.697 323.512 919.9 318.869 919.668 314.256C919.117 303.055 918.362 291.854 917.695 280.682C917.433 276.416 917.114 272.151 916.911 267.856C916.476 258.048 916.099 248.211 915.721 238.374C915.46 231.555 915.228 224.735 915.112 217.887C915.112 217.162 915.808 216.436 916.157 215.682C916.679 216.32 917.608 216.901 917.666 217.568C918.159 222.037 918.652 226.535 918.855 231.032C919.175 238.084 919.262 245.164 919.465 252.215C919.61 257.642 919.697 263.068 919.987 268.494C920.364 275.778 921.09 283.032 921.409 290.316C921.96 302.91 922.337 315.532 922.744 328.155C923.179 342.49 923.846 356.854 923.875 371.189C923.904 383.695 923.266 396.202 922.831 408.709C922.744 411.117 922.134 413.497 921.873 415.876C921.873 416.079 922.657 416.689 922.947 416.602C930.985 414.396 938.965 412.017 947.003 409.869C952.69 408.331 958.494 407.171 964.181 405.662C966.619 405.023 968.94 403.805 971.378 403.137C972.248 402.905 973.351 403.485 974.337 403.718C973.67 404.53 973.148 405.778 972.306 406.097C966.242 408.331 960.264 410.653 953.735 411.552C948.512 412.278 943.492 414.425 938.326 415.731C933.074 417.066 927.793 418.749 922.454 419.126C918.884 419.387 915.025 418.081 911.543 416.747C905.942 414.599 900.429 412.104 895.119 409.318C889.896 406.59 884.962 403.34 879.913 400.264C879.043 399.742 878.433 399.278 877.737 400.555C873.5 408.418 866.072 411.552 857.947 412.162C846.514 413.003 836.619 409.289 829.277 399.713C821.036 388.977 816.567 377.224 817.728 363.615C817.873 361.99 817.148 361.293 815.987 360.597C809.11 356.535 802.291 352.356 795.326 348.439C784.909 342.606 774.346 337.064 763.929 331.231C748.462 322.584 733.112 313.704 717.587 305.144C706.619 299.108 695.476 293.421 684.42 287.53C681.663 286.05 678.936 284.483 676.266 282.858C674.728 281.901 674.032 282.365 673.451 283.932C672.639 286.224 671.71 288.488 670.724 290.693C668.547 295.597 664.659 297.86 659.378 297.686C656.592 297.599 653.806 297.396 651.079 296.932C647.742 296.41 644.753 294.93 643.244 291.767C639.297 283.497 635.293 275.168 634.916 265.825C634.771 262.314 635.496 258.715 636.308 255.291C636.715 253.579 636.831 252.476 635.322 251.49C629.983 247.979 627.081 242.668 625.572 236.807C624.469 232.512 624.498 227.898 624.179 223.401C624.15 222.878 625.282 222.269 625.891 221.718C626.326 222.356 627.197 223.023 627.168 223.633C626.965 230.597 628.3 237.184 632.275 243.017C633.755 245.164 635.728 246.992 637.585 248.878C637.817 249.11 638.804 248.965 639.152 248.675C639.646 248.24 639.791 247.427 640.226 246.905C644.695 241.45 648.061 239.564 655.315 242.61C656.157 242.959 656.969 243.423 657.811 243.829C658.826 244.322 659.436 244.41 659.494 242.843C659.668 238.693 660.161 234.572 660.306 230.452C660.335 229.668 659.726 228.537 659.058 228.101C656.534 226.476 653.777 225.171 651.253 223.517C644.753 219.28 638.34 214.956 631.869 210.633C631.492 210.372 630.998 210.11 630.824 209.733C630.447 208.892 630.215 207.992 629.925 207.122C630.766 207.18 631.724 207.035 632.42 207.383C633.639 208.021 634.683 209.008 635.844 209.762C643.592 214.637 651.34 219.483 659.087 224.387C660.858 225.519 660.974 224.822 661.177 223.081C662.192 214.231 663.44 205.439 664.514 196.588C665.675 187.07 666.661 177.523 667.851 168.005C668.257 164.697 669.07 161.418 669.737 158.139C669.824 157.704 669.94 157.095 670.259 156.892C674.003 154.396 675.047 149.927 677.775 146.677C680.967 142.905 683.375 138.494 686.248 134.432C688.25 131.588 690.34 128.831 692.516 126.104C697.565 119.778 701.628 112.697 707.808 107.271C709.695 105.617 711.552 104.718 714.018 104.863C719.793 105.211 725.19 106.836 730.181 109.68C733.112 111.334 736.072 112.93 738.858 114.787C742.514 117.195 746.025 119.807 749.594 122.36C751.48 123.724 753.308 125.117 755.166 126.51C756.007 127.148 756.907 127.7 757.632 128.396C758.677 129.383 759.692 130.66 758.242 131.936C756.762 133.242 756.036 131.936 755.369 130.747C755.137 130.34 754.846 129.934 754.498 129.673C748.811 125.552 743.123 121.345 737.349 117.34C734.592 115.425 731.574 113.887 728.672 112.233C724.378 109.796 719.764 108.461 714.86 107.91C713.003 107.706 711.581 108.345 710.217 109.709C706.242 113.626 702.411 117.572 699.567 122.476C698.117 124.972 696.114 127.119 694.431 129.47C689.469 136.434 684.565 143.456 679.603 150.392C677.862 152.829 677.804 152.916 680.706 154.222C696.201 161.273 711.726 168.325 727.221 175.405C731.864 177.523 736.449 179.7 741.034 181.934C742.079 182.456 743.762 182.979 742.804 184.691C741.904 186.316 740.657 186.113 739.003 185.242C734.824 183.008 730.471 181.064 726.177 179.032C715.585 174.041 704.994 169.079 694.431 164.059C688.889 161.447 683.317 158.836 677.862 156.021C675.163 154.628 675.163 157.443 673.916 158.226C672.523 159.126 673.393 160.142 674.38 160.983C679.574 165.394 685.842 167.918 691.878 170.907C701.947 175.898 711.958 181.035 722.085 185.91C727.192 188.376 732.445 190.523 737.697 192.642C740.512 193.773 741.005 193.28 742.369 190.494C744.197 186.78 744.574 182.805 745.387 178.858C747.331 169.34 749.913 159.968 752.351 150.566C753.512 146.097 754.933 141.686 756.268 137.247C756.471 136.579 756.558 135.854 756.936 135.302C757.197 134.896 757.893 134.519 758.329 134.577C758.648 134.635 759.141 135.389 759.112 135.796C759.025 137.043 758.851 138.32 758.503 139.539C755.862 149.028 753.018 158.43 750.61 167.976C749.304 173.113 748.985 178.481 747.766 183.617C746.75 187.97 745.387 192.293 742.34 195.834C741.73 196.559 741.44 197.662 741.266 198.648C740.773 201.144 740.308 203.668 740.076 206.193C739.148 215.624 738.219 225.084 737.436 234.543C736.739 243.075 736.275 251.635 735.521 260.166C735.317 262.546 735.782 263.91 738.103 265.041C747.273 269.539 756.384 274.095 765.351 278.97C772.663 282.974 779.686 287.472 786.853 291.738C787.637 292.202 788.42 292.724 789.233 293.189C790.045 293.682 790.8 293.856 790.829 292.492C790.829 290.635 791.003 288.778 790.8 286.95C790.712 286.224 789.929 285.296 789.233 284.918C786.795 283.613 784.3 282.365 781.717 281.349C779.105 280.305 777.887 278.389 777.741 275.778C777.48 270.932 777.277 266.057 777.248 261.211C777.248 257.932 777.887 257.41 781.021 258.628C784.88 260.137 788.594 262.052 792.367 263.851C794.949 265.099 794.92 265.128 795.094 262.372C795.326 259.267 795.558 256.133 795.791 253.028C796.139 248.443 797.996 247.166 802.175 248.907C807.079 250.939 811.925 253.173 816.8 255.32C818.744 256.191 818.105 257.7 817.844 259.18C817.293 262.11 816.829 265.07 816.277 268.03C815.842 270.177 816.858 271.106 818.802 271.773C822.284 272.963 825.708 274.414 829.103 275.836C829.567 276.039 830.177 276.968 830.061 277.287C829.742 278.07 829.161 279.086 828.465 279.289C827.565 279.55 826.404 279.289 825.476 278.941C821.936 277.519 818.454 275.952 814.913 274.472C813.55 273.892 812.94 272.963 813.114 271.483C813.521 267.914 813.84 264.345 814.391 260.834C814.594 259.528 814.768 258.744 813.288 258.106C809.139 256.307 805.047 254.392 800.985 252.418C799.302 251.606 798.692 252.099 798.576 253.811C798.489 255.204 798.199 256.568 798.112 257.932C797.996 259.673 798.112 261.414 797.967 263.155C797.532 269.249 795.965 270.09 790.596 267.16C787.637 265.564 784.648 263.997 781.688 262.459C780.614 261.907 780.005 261.878 780.121 263.474C780.44 267.276 780.701 271.077 780.846 274.907C780.933 277.026 781.804 278.302 783.777 279.115C786.534 280.276 789.175 281.785 791.931 282.945C793.962 283.787 794.688 285.064 794.485 287.24C794.166 291.041 794.137 294.872 793.875 298.673C793.73 300.733 794.398 301.807 796.487 302.358C799.273 303.084 802 304.099 804.67 305.202C806.44 305.956 806.875 305.463 806.933 303.722C807.05 300.472 807.311 297.251 807.572 294.03C807.92 290.026 809.11 289.3 812.679 290.78C816.422 292.289 820.195 293.827 823.938 295.307C826.84 296.439 827.71 295.858 827.826 292.724C827.884 290.751 827.826 288.778 827.884 286.805C827.942 285.644 827.884 284.367 828.407 283.41C828.958 282.423 830.148 281.814 831.047 281.03C831.163 282.046 831.367 283.032 831.337 284.048C831.25 286.834 830.844 289.59 830.931 292.376C831.134 298.528 825.592 300.53 821.094 298.064C818.657 296.729 815.987 295.887 813.433 294.785C811.489 293.943 810.561 294.668 810.445 296.642C810.329 298.615 810.038 300.617 810.329 302.532C810.474 303.548 811.518 304.738 812.476 305.289C815.494 307.001 818.628 308.539 821.791 309.961C838.65 317.651 855.538 325.34 872.456 332.943C884.382 338.311 896.396 343.506 908.351 348.845C911.63 350.296 914.822 351.921 918.014 353.575C919.494 354.329 920.248 354.561 920.219 352.385C920.132 344.26 920.19 336.164 920.19 328.039C919.958 328.039 919.726 328.039 919.494 328.039L919.697 328.155ZM727.773 306.043L727.831 306.189L727.715 306.072C727.802 304.128 727.802 302.155 728.005 300.211C729.224 289.532 730.471 278.883 731.748 268.233C732.009 266.115 731.052 265.128 729.253 264.316C724.813 262.343 720.46 260.195 716.079 258.019C708.824 254.45 701.57 250.822 694.315 247.195C690.369 245.222 686.393 243.336 682.534 241.247C676.933 238.2 671.42 235.037 665.907 231.845C664.224 230.858 663.237 231.177 663.092 233.093C662.773 237.213 662.541 241.363 662.425 245.512C662.425 246.209 662.947 247.021 663.411 247.601C668.46 253.666 671.478 260.805 674.032 268.117C674.786 270.293 674.525 272.876 674.583 275.255C674.612 277.026 674.612 278.505 676.585 279.521C692.806 287.965 708.969 296.555 725.161 305.057C725.974 305.463 726.873 305.695 727.715 305.985L727.773 306.043ZM878.666 382.854C878.666 387.526 878.55 390.776 878.724 394.026C878.782 394.983 879.362 396.289 880.146 396.811C890.07 403.456 900.371 409.521 911.659 413.555C918.507 416.021 920.132 417.675 920.364 407.519C920.567 398.959 920.858 390.398 921.003 381.838C921.09 375.918 921.032 370.028 921.003 364.108C921.003 361.003 920.103 358.537 916.911 357.144C913.11 355.461 909.512 353.285 905.681 351.66C896.512 347.742 887.197 344.231 878.114 340.11C864.186 333.814 850.431 327.139 836.561 320.639C828.784 317.012 821.007 313.414 813.23 309.787C811.663 309.061 810.387 307.436 808.268 308.945C807.63 309.41 806.063 308.771 804.989 308.423C801.478 307.262 798.025 305.927 794.514 304.825C790.161 303.461 790.161 303.49 790.335 298.934C790.335 298.325 790.016 297.483 789.552 297.164C788.797 296.642 787.724 296.555 786.94 296.061C781.369 292.521 776 288.604 770.255 285.441C759.489 279.521 748.521 274.008 737.61 268.349C735.201 267.101 735.085 267.16 734.766 270.003C734.07 276.561 733.605 283.148 732.793 289.706C732.183 294.756 731.458 299.805 730.268 304.738C729.717 306.972 729.92 307.814 731.951 308.916C741.44 313.994 750.813 319.305 760.215 324.528C761.927 325.485 763.552 326.617 765.264 327.575C776 333.523 786.795 339.414 797.503 345.392C803.974 349.019 810.329 352.82 816.742 356.535C817.612 357.057 818.483 357.956 819.295 356.477C821.123 353.256 823.242 350.151 824.634 346.756C825.36 344.985 826.172 343.738 827.739 342.925C829.277 342.113 830.815 341.3 832.469 340.778C838.273 338.979 844.018 339.82 849.938 340.488C861.255 341.793 867.581 349.483 872.688 357.985C877.389 365.82 880.581 374.613 878.608 382.796L878.666 382.854ZM737.9 199.693C738.538 197.11 737.784 196.269 736.072 195.572C730.413 193.251 724.755 190.814 719.242 188.173C709.143 183.298 699.074 178.278 689.092 173.171C683.869 170.472 678.762 167.512 673.712 164.523C672.291 163.682 671.884 164.175 671.623 165.423C671.449 166.322 671.391 167.251 671.275 168.18C670.201 177.726 669.186 187.273 667.996 196.791C666.864 205.845 665.646 214.927 664.166 223.923C663.759 226.506 664.601 227.579 666.632 228.769C686.8 240.666 707.983 250.59 729.021 260.776C729.659 261.066 730.297 261.559 730.907 261.559C731.429 261.559 732.387 261.008 732.416 260.631C733.199 252.593 733.954 244.526 734.592 236.488C734.94 232.106 734.911 227.724 735.346 223.343C736.13 215.189 737.117 207.064 737.9 199.722V199.693ZM875.3 384.624C877.244 376.557 875.067 368.78 871.324 361.235C868.422 355.403 864.244 350.586 858.992 346.988C852.695 342.635 845.208 342.461 837.925 343.36C832.353 344.057 828.058 347.075 825.563 352.356C824.17 355.345 822.748 358.218 821.762 361.439C820.456 365.617 820.398 369.564 820.92 373.655C822.11 383.115 826.492 391.066 832.295 398.581C840.101 408.651 857.396 413.41 870.308 403.747C873.587 401.28 875.532 398.291 875.387 394.055C875.271 391.037 875.387 388.019 875.387 384.595L875.3 384.624ZM656.882 295.017C661.873 295.394 665.471 293.392 667.474 288.807C668.779 285.847 670.201 282.887 671.043 279.782C672.32 275.052 672.581 270.293 670.056 265.709C668.17 262.256 666.516 258.686 664.891 255.117C662.483 249.807 658.188 246.702 652.965 244.642C650.614 243.713 648.583 244.061 646.552 245.773C642.257 249.43 640.545 254.508 638.949 259.528C638.166 262.023 638.34 264.983 638.659 267.682C639.587 275.488 643.012 282.481 646.058 289.59C647.132 292.057 649.047 293.682 651.746 294.233C653.429 294.581 655.17 294.726 656.882 294.959V295.017Z" fill="#3A352F"/>
<path d="M903.943 225.842C903.943 217.514 903.943 209.186 903.943 200.829C903.943 199.117 904.146 197.376 904.437 195.664C904.524 195.113 905.191 194.677 905.568 194.184C906.12 194.677 907.106 195.142 907.164 195.722C907.309 196.941 906.874 198.217 906.874 199.494C906.932 207.59 907.164 215.686 907.135 223.782C907.106 231.182 906.729 238.581 906.642 246.01C906.613 248.302 905.655 250.914 908.267 252.655C908.47 252.8 908.209 254.425 907.774 254.657C905.626 255.789 906.091 257.704 905.945 259.503C905.8 261.447 905.655 263.421 905.336 265.365C905.162 266.526 904.872 268.47 904.262 268.615C902.637 269.05 900.577 269.224 899.097 268.586C894.338 266.497 889.753 263.972 885.082 261.651C872.546 255.383 860.097 248.912 847.416 242.992C837.463 238.349 827.133 234.461 817.064 230.05C808.039 226.133 799.015 222.186 790.193 217.834C781.256 213.423 772.637 208.432 763.758 203.905C761.727 202.86 761.32 201.758 761.437 199.61C762.249 182.983 766.137 166.878 769.881 150.773C770.577 147.755 771.332 144.709 772.231 141.749C773.131 138.731 774.64 138.092 777.483 139.224C791.876 145.028 806.327 150.628 820.633 156.664C833.43 162.061 846.517 167.052 858.646 173.726C871.762 180.923 885.981 185.159 899.387 191.398C900.229 191.776 901.099 192.124 901.97 192.443C903.16 192.849 904.262 193.43 903.682 194.88C903.131 196.273 901.999 196.07 900.78 195.519C897.617 194.097 894.396 192.762 891.175 191.485C885.894 189.396 880.526 187.568 875.332 185.247C868.89 182.374 862.738 178.921 856.296 176.019C843.325 170.157 830.325 164.296 817.18 158.811C805.544 153.965 793.675 149.613 781.923 145.057C779.718 144.215 777.512 143.432 775.307 142.648C774.669 144.854 773.885 147.059 773.392 149.293C770.809 161.423 768.256 173.523 765.818 185.682C765.006 189.744 765.818 189.309 768.575 190.383C775.597 193.081 782.62 195.809 789.41 199.059C807.546 207.677 826.669 213.771 845.095 221.635C859.894 227.961 874.577 234.577 888.709 242.354C892.858 244.646 897.095 246.793 901.274 249.057C903.16 250.072 903.624 249.434 903.682 247.49C903.856 240.322 904.117 233.126 904.349 225.959C904.204 225.959 904.059 225.959 903.943 225.959V225.842ZM903.044 259.619C903.044 258.923 902.899 258.197 903.044 257.53C903.711 254.715 902.347 253.409 899.881 252.336C896.602 250.885 893.555 248.941 890.392 247.287C872.836 238.059 855.019 229.441 836.564 222.157C825.363 217.747 813.988 213.713 802.874 209.099C791.006 204.166 779.312 198.798 767.588 193.546C765.644 192.675 764.803 192.907 764.745 195.113C764.745 195.809 764.687 196.505 764.483 197.173C763.845 199.465 764.628 200.8 766.805 201.816C771.187 203.905 775.394 206.401 779.776 208.519C792.079 214.467 804.354 220.474 816.803 226.104C828.816 231.53 841.091 236.463 853.162 241.773C857.718 243.776 862.07 246.242 866.539 248.447C876.753 253.409 886.997 258.284 897.182 263.305C902.928 266.119 902.87 266.206 902.986 259.648L903.044 259.619Z" fill="#3A352F"/>
<path d="M628.412 199.899C628.412 200.943 628.528 201.988 628.383 203.032C628.267 203.816 627.861 204.599 627.599 205.354C627.106 204.628 626.265 203.961 626.149 203.207C625.742 200.363 625.191 197.461 625.394 194.617C625.858 187.131 626.41 179.615 627.425 172.187C628.499 164.062 630.066 155.966 631.517 147.899C632.474 142.617 634.854 139.048 642.979 137.684C648.318 136.785 653.541 136.988 658.794 138.294C661.405 138.932 663.93 138.294 666.019 136.64C667.818 135.189 669.501 133.593 671.126 131.939C680.731 122.015 689.233 111.191 697.591 100.193C699.825 97.2624 702.349 94.4767 705.106 92.0392C710.562 87.1642 717.149 86.7579 723.736 88.6731C730.265 90.5593 736.736 92.8227 742.916 95.6374C749.01 98.3941 754.64 102.166 760.588 105.3C772.137 111.423 783.687 117.604 795.381 123.466C808.12 129.849 820.8 136.437 833.916 141.95C857.131 151.729 878.662 164.874 901.615 175.088C905.533 176.829 909.479 178.512 913.396 180.253C918.271 182.43 918.939 183.881 918.155 189.133C917.662 192.441 917.43 195.807 917.285 199.144C917.082 203.497 917.111 207.849 916.966 212.202C916.966 212.753 916.385 213.305 916.066 213.856C915.66 213.363 915.021 212.928 914.905 212.376C914.18 209.097 913.57 205.818 912.961 202.51C912.845 201.843 912.671 200.943 912.961 200.45C915.863 196.184 913.803 191.164 915.05 186.666C915.253 185.97 914.47 184.809 913.832 184.142C913.135 183.416 912.149 182.894 911.22 182.488C890.298 173.608 870.421 162.611 850.137 152.425C839.691 147.173 828.78 142.849 818.247 137.829C803.419 130.749 788.591 123.582 773.995 116.066C763.403 110.611 753.276 104.256 742.684 98.8003C735.923 95.3472 728.93 92.2423 721.182 91.2267C715.03 90.4432 709.836 92.0392 705.919 96.7691C700.812 102.892 696.169 109.421 690.945 115.457C684.126 123.32 677.075 131.01 669.908 138.526C666.716 141.892 662.537 141.95 657.952 141.312C653.106 140.615 648.028 140.644 643.153 141.253C639.062 141.747 635.986 144.387 635.086 148.827C633.867 154.834 632.242 160.782 631.459 166.847C630.182 176.568 629.428 186.376 628.499 196.155C628.383 197.403 628.499 198.709 628.499 199.986C628.499 199.986 628.528 199.986 628.557 199.986L628.412 199.899Z" fill="#3A352F"/>
<path d="M1036.12 140.384C1035.83 140.733 1035.37 141.632 1034.67 142.067C1032.81 143.199 1030.87 144.302 1028.87 145.114C1021.58 148.016 1014.24 150.889 1006.9 153.646C998.251 156.896 989.459 159.797 980.87 163.192C970.975 167.081 961.109 171.085 951.475 175.554C947.064 177.585 943.002 180.081 938.01 180.748C934.964 181.154 932.062 182.518 929.102 183.476C926.781 184.201 924.488 185.043 922.167 185.652C921.557 185.797 920.774 185.275 920.077 185.072C920.426 184.433 920.6 183.389 921.122 183.186C926.171 181.183 931.162 178.92 936.414 177.585C940.941 176.425 945.294 175.206 949.298 172.71C951.823 171.114 954.58 169.837 957.365 168.706C969.698 163.744 982.031 158.782 994.45 153.994C1005.56 149.728 1016.79 145.753 1027.94 141.516C1029.97 140.762 1031.77 139.369 1033.71 138.382C1035.16 137.628 1036.26 138.382 1036.18 140.442L1036.12 140.384Z" fill="#3A352F"/>
<path d="M643.937 165.688C643.647 170.186 643.357 174.684 643.067 179.181C643.067 179.529 643.067 179.878 642.98 180.226C642.312 182.809 641.035 185.594 638.395 185.71C636.305 185.826 634.1 183.969 631.982 182.896C631.721 182.75 631.488 181.938 631.663 181.735C631.953 181.329 632.591 180.835 632.997 180.893C634.1 181.125 635.232 181.503 636.247 182.025C638.046 182.954 639.12 182.344 639.7 180.603C639.991 179.733 640.194 178.804 640.223 177.904C640.397 171.666 640.513 165.427 640.716 159.159C640.774 156.779 640.049 155.096 637.437 154.719C637.002 154.661 636.48 154.458 636.218 154.139C635.812 153.646 635.261 152.891 635.406 152.456C635.609 151.788 636.305 151.005 636.944 150.802C639.207 150.134 643.705 153.588 643.763 156.025C643.821 159.275 643.763 162.496 643.763 165.746C643.85 165.746 643.937 165.746 643.995 165.746L643.937 165.688Z" fill="#3A352F"/>
<path d="M718.371 87.1327C718.023 86.8715 717.326 86.6104 717.239 86.2622C717.152 85.8269 717.471 85.0724 717.848 84.8113C719.27 83.8537 720.75 82.9251 722.288 82.1706C727.54 79.559 732.793 76.9764 738.103 74.4809C738.741 74.1617 739.699 74.4809 740.511 74.5099C740.366 75.3514 740.337 76.222 740.047 77.0345C739.931 77.3827 739.38 77.6438 738.973 77.847C732.938 80.6907 726.902 83.5055 720.837 86.3202C720.112 86.6684 719.328 86.8425 718.371 87.1907V87.1327Z" fill="#3A352F"/>
<path d="M1049 190.381C1050.05 190.497 1051.06 190.555 1052.11 190.729C1060.87 192.238 1069.66 193.689 1078.43 195.314C1084.35 196.416 1090.18 197.925 1096.1 199.028C1101.32 200.014 1106.6 200.74 1111.88 201.465C1112.99 201.61 1114.21 201.117 1115.31 201.349C1116.53 201.581 1117.66 202.307 1118.82 202.8C1118.35 203.758 1118.12 205.064 1117.34 205.586C1115.05 207.124 1112.49 208.314 1110.14 209.735C1106.31 212.086 1102.57 214.552 1098.71 216.903C1095.66 218.76 1092.53 220.53 1089.45 222.358C1081.1 227.349 1072.74 232.282 1064.44 237.36C1062.03 238.84 1059.22 239.769 1057.56 242.468C1057.19 243.077 1055.42 243.222 1054.4 243.019C1050.66 242.293 1046.94 241.481 1043.29 240.465C1031.48 237.157 1019.69 233.675 1007.88 230.425C1002.63 228.974 997.263 227.988 991.982 226.769C991.431 226.653 990.792 226.566 990.328 226.305C989.458 225.782 987.891 224.825 987.978 224.593C988.529 223.2 989.632 222.59 991.315 222.968C997.06 224.302 1002.89 225.289 1008.58 226.827C1016.73 229.061 1024.74 231.789 1032.87 234.11C1039.66 236.026 1046.51 237.709 1053.35 239.392C1054.17 239.595 1055.27 239.508 1055.94 239.101C1064.29 233.936 1072.56 228.655 1080.89 223.461C1082.46 222.474 1084.08 221.517 1085.77 220.791C1092.33 217.977 1098.1 213.972 1103.76 209.706C1105.67 208.285 1108.05 207.472 1110.2 206.369C1110.61 206.166 1110.93 205.847 1111.3 205.557C1110.87 205.296 1110.43 204.86 1109.97 204.773C1105.53 204.019 1101.06 203.381 1096.62 202.626C1091.95 201.814 1087.31 200.885 1082.66 200.072C1074.25 198.593 1065.72 197.606 1057.45 195.517C1050.05 193.631 1044.01 194.646 1037.6 198.999C1031.36 203.264 1024.05 205.992 1017.34 209.59C1012.67 212.115 1008.2 215.046 1003.56 217.657C1000.66 219.311 997.612 220.762 994.565 222.126C993.81 222.445 992.737 222.039 991.808 221.952C992.33 221.168 992.678 220.153 993.404 219.689C1002.95 213.624 1012.73 207.936 1023.06 203.177C1029.04 200.45 1034.61 196.793 1040.3 193.485C1043.02 191.918 1045.58 190.061 1049 190.351V190.381Z" fill="#3A352F"/>
<path d="M980.342 348.356C980.661 348.617 981.676 349.14 981.618 349.546C981.56 350.184 980.893 350.968 980.284 351.258C979.471 351.635 978.455 351.519 977.585 351.751C974.161 352.709 970.795 353.928 967.313 354.682C960.784 356.075 954.196 357.207 947.638 358.483C946.042 358.803 944.534 359.412 942.938 359.644C942.183 359.76 941.342 359.296 940.529 359.093C940.993 358.483 941.313 357.584 941.922 357.352C944.156 356.481 946.449 355.669 948.799 355.146C954.777 353.87 960.958 353.26 966.79 351.461C970.679 350.242 974.509 349.285 978.513 348.675C978.978 348.617 979.413 348.501 980.342 348.327V348.356Z" fill="#3A352F"/>
<path d="M1384.33 264.055C1384.22 264.462 1384.25 265.477 1383.75 265.942C1383 266.667 1381.81 267.48 1380.94 267.392C1380.12 267.305 1379.28 266.116 1378.76 265.245C1378.44 264.752 1378.62 263.91 1378.7 263.243C1378.99 260.776 1380.33 259.064 1381.72 259.238C1382.97 259.384 1384.39 261.792 1384.33 264.084V264.055Z" fill="#3A352F"/>
<path d="M1360.57 265.187C1358.77 264.926 1357.95 263.852 1358.04 262.111C1358.13 260.254 1359.29 259.471 1361 259.5C1362.74 259.529 1363.41 260.602 1363.29 262.257C1363.18 263.969 1362.36 265.042 1360.57 265.216V265.187Z" fill="#3A352F"/>
<path d="M862.475 379.721C862.446 383.986 861.866 388.049 859.834 391.85C857.165 396.899 853.654 398.205 848.285 396.087C840.712 393.098 837.316 386.859 836.475 379.402C836.011 375.165 837.142 370.725 837.868 366.402C838.303 363.935 839.928 362.049 842.395 361.033C842.917 360.83 843.439 360.511 843.933 360.221C848.546 357.696 848.546 357.696 852.696 361.207C856.555 364.515 860.705 367.678 861.691 373.134C862.069 375.281 862.214 377.486 862.475 379.663V379.721ZM859.254 379.721C859.486 375.455 859.196 371.509 856.178 368.491C853.973 366.286 851.535 364.312 849.156 362.281C848.662 361.875 847.618 361.323 847.386 361.498C845.354 363.123 842.859 364.573 841.611 366.692C839.522 370.319 838.767 374.556 839.319 378.763C840.102 384.799 842.598 389.848 848.372 392.634C852.203 394.491 854.64 393.765 856.816 390.08C858.761 386.801 859.515 383.232 859.254 379.663V379.721Z" fill="#3A352F"/>
<path d="M665.238 271.369C665.238 271.746 665.238 271.862 665.238 271.978C665.18 277.782 662.597 281.554 658.506 281.728C653.225 281.99 647.45 277.202 646.986 272.094C646.347 265.159 649.626 260.11 654.995 256.222C655.546 255.815 656.997 255.873 657.548 256.309C659.318 257.731 661.262 259.181 662.423 261.039C664.367 264.202 665.528 267.771 665.238 271.369ZM662.249 270.324C662.423 270.237 662.597 270.179 662.742 270.092C661.611 267.103 660.711 263.969 659.231 261.155C657.925 258.688 657.055 258.833 655.024 260.748C652.383 263.273 651.367 266.581 650.265 269.889C648.959 273.835 652.557 277.608 655.894 278.565C658.39 279.291 660.914 276.882 661.785 273.023C661.988 272.123 662.075 271.195 662.191 270.266L662.249 270.324Z" fill="#3A352F"/>
</g>
</g>
<defs>
<clipPath id="clip0_10_257">
<rect width="1411" height="945" fill="white"/>
</clipPath>
<clipPath id="clip1_10_257">
<rect width="819" height="490.286" fill="white" transform="translate(622 30)"/>
</clipPath>
</defs>
</svg>
