<svg width="1411" height="945" viewBox="0 0 1411 945" fill="none" xmlns="http://www.w3.org/2000/svg">
<g clip-path="url(#clip0_10_65)">
<path d="M1267.67 459.539C1272.46 460.605 1277.31 461.431 1281.95 462.842C1283.92 463.427 1285.95 464.941 1287.15 466.592C1288.56 468.485 1289.83 468.45 1291.66 467.693C1296.68 465.595 1301.67 466.489 1306.56 468.21C1311.44 469.93 1314.5 473.508 1315.98 478.394C1316.64 480.562 1317.15 482.42 1319.84 480.08C1320.49 479.53 1321.66 479.358 1322.59 479.358C1332.5 479.289 1341.24 481.732 1346.12 491.331C1347.36 493.774 1348.7 494.187 1351.25 493.637C1360.44 491.607 1371.55 497.387 1375.1 506.264C1376.27 509.189 1377.61 509.739 1380.53 509.533C1388.38 508.914 1398.94 516.759 1401.38 524.982C1402.11 527.425 1402.97 527.907 1405.31 527.563C1415.73 526.083 1424.06 530.969 1427.67 540.741C1428.5 542.943 1429.36 543.803 1431.8 543.39C1441.64 541.773 1450.24 548.138 1451 558.082C1451.55 565.514 1452.72 573.049 1451.1 580.481C1450.38 583.785 1449.21 587.088 1447.63 590.081C1443.91 597.032 1438.82 602.984 1432.83 608.145C1431.42 609.384 1429.56 610.141 1427.81 610.898C1427.26 611.139 1426.36 610.623 1425.64 610.45C1425.85 609.728 1425.95 608.902 1426.33 608.248C1426.57 607.801 1427.19 607.56 1427.64 607.285C1436.1 601.608 1442.02 593.832 1446.18 584.679C1448.38 579.828 1448.83 574.77 1447.9 569.471C1447.25 565.858 1447.52 562.073 1446.84 558.461C1445.49 551.304 1438.41 545.867 1431.76 546.349C1429.84 546.487 1428.81 546.968 1428.87 549.239C1428.94 551.097 1428.56 553.059 1427.91 554.813C1427.57 555.708 1426.23 556.224 1425.3 556.878C1425.12 555.88 1424.85 554.882 1424.85 553.884C1424.85 551.854 1425.4 549.79 1425.09 547.829C1423.64 538.573 1418.1 532.896 1408.85 531.003C1407.78 530.797 1406.68 530.866 1405.58 530.866C1403.48 530.866 1402.38 531.623 1402.31 533.997C1402.28 535.855 1401.62 537.747 1401 539.571C1400.8 540.225 1399.94 540.672 1399.39 541.188C1399.08 540.5 1398.49 539.846 1398.46 539.124C1398.35 536.921 1398.32 534.719 1398.46 532.552C1398.77 526.152 1395.84 521.369 1390.72 518.032C1387.65 516.036 1384.14 514.694 1380.7 513.352C1378.88 512.664 1376.92 512.63 1376.09 515.279C1375.82 516.139 1374.65 516.724 1373.86 517.412C1373.51 516.483 1372.79 515.554 1372.82 514.66C1373 509.155 1370.24 505.266 1366.08 502.17C1361.95 499.108 1357.58 496.596 1352.15 496.837C1349.91 496.94 1348.33 497.353 1348.77 500.071C1348.84 500.449 1348.88 500.966 1348.7 501.275C1347.95 502.445 1347.09 503.581 1346.3 504.716C1345.78 503.615 1344.95 502.548 1344.82 501.378C1343.17 488.682 1332.74 482.936 1321.59 483.521C1318.77 483.659 1317.67 485.104 1317.5 488.063C1317.39 489.68 1317.43 491.366 1316.98 492.914C1316.74 493.774 1315.71 494.394 1315.02 495.116C1314.68 494.29 1314.16 493.499 1314.02 492.639C1313.64 489.645 1313.71 486.583 1313.06 483.659C1310.99 474.265 1305.28 469.93 1293.76 470.756C1291.59 470.893 1290.14 471.581 1290.01 474.506C1289.9 476.915 1288.46 479.392 1287.22 481.663C1278.31 498.247 1268.02 513.8 1251.5 523.881C1244.04 528.423 1236.78 533.584 1228 535.545C1227.35 535.683 1226.66 536.096 1226.01 536.061C1225.28 536.027 1224.6 535.648 1223.87 535.408C1224.25 534.754 1224.49 533.894 1225.04 533.446C1225.77 532.861 1226.76 532.621 1227.62 532.173C1235.57 527.838 1243.73 523.847 1251.4 519.03C1261.03 512.939 1268.81 504.819 1274.69 495.013C1277.93 489.611 1281.51 484.415 1284.57 478.91C1287.36 473.852 1285.36 468.588 1279.86 466.73C1276.28 465.491 1272.39 464.666 1268.64 464.597C1263.68 464.493 1258.38 463.255 1253.98 467.04C1253.6 467.384 1252.54 466.936 1251.78 466.868C1251.99 466.145 1251.95 465.216 1252.4 464.7C1255.22 461.569 1258.73 459.952 1263.03 460.227C1264.54 460.33 1266.06 460.227 1267.57 460.227C1267.64 459.986 1267.71 459.745 1267.74 459.504L1267.67 459.539Z" fill="#3A352F"/>
<path d="M1191.88 510.635C1193.49 512.046 1193.63 513.629 1192.32 515.349C1187.68 521.577 1190.91 531.521 1194.87 535.856C1199.41 540.845 1208.19 542.806 1214.69 540.26C1215.45 539.95 1216.17 539.366 1216.96 539.331C1217.92 539.297 1218.89 539.675 1219.85 539.882C1219.47 540.879 1219.33 542.462 1218.65 542.737C1215.17 544.217 1215.65 547.142 1216.03 549.757C1217.41 559.219 1228.93 567.855 1238.43 566.238C1241.08 565.791 1243.56 563.864 1245.93 562.315C1247.38 561.386 1248.55 560.044 1250.13 561.834C1251.75 563.657 1250.4 564.93 1248.99 565.859C1246.86 567.27 1246.07 568.887 1247.2 571.33C1247.41 571.812 1247.34 572.397 1247.45 572.947C1249.41 584.267 1260.97 588.844 1270.36 581.997C1271.57 581.102 1272.56 579.863 1273.91 579.175C1274.8 578.728 1276.04 578.969 1277.14 578.9C1277.14 579.898 1277.55 581.308 1277.04 581.79C1274.01 584.715 1274.59 588.362 1274.94 591.837C1275.42 596.585 1277.59 599.235 1282.34 599.923C1290.08 601.093 1297.54 600.645 1302.7 593.42C1303.46 592.353 1304.36 590.874 1305.97 592.147C1307.38 593.248 1307.49 594.865 1306.32 596.138C1304.49 598.134 1305.49 599.82 1306.39 601.746C1309.07 607.493 1313.41 610.658 1319.84 611.037C1324.14 611.277 1327.27 609.591 1329.58 606.082C1330.16 605.153 1330.61 604.121 1331.3 603.295C1332.47 601.919 1333.67 601.987 1334.53 603.639C1335.6 605.635 1336.49 607.733 1337.59 609.729C1342.79 619.191 1357.31 619.604 1361.95 611.931C1364.29 608.077 1368.39 609.041 1370.04 613.204C1370.8 615.062 1371.86 616.92 1373.21 618.4C1376.61 622.081 1380.6 622.288 1384.56 619.157C1385.73 618.228 1386.62 616.955 1387.83 616.06C1389.72 614.649 1391.72 613.273 1393.82 612.206C1394.23 611.966 1395.47 612.86 1396.09 613.514C1397.12 614.58 1397.77 616.094 1398.91 617.023C1406.68 623.492 1411.98 624.387 1419.93 618.4C1421.79 616.989 1423.47 615.372 1425.23 613.858C1426.71 612.585 1427.84 612.206 1429.19 614.271C1429.98 615.441 1431.56 616.542 1432.97 616.817C1439.92 618.228 1445.6 615.2 1450.66 610.899C1453.34 608.594 1455.78 605.944 1458.12 603.226C1460.33 600.645 1462.36 597.858 1464.25 595.003C1465.38 593.317 1465.93 591.252 1467 589.497C1467.72 588.362 1469.41 586.504 1469.79 586.676C1471.92 587.777 1470.48 589.566 1469.89 590.908C1468.72 593.661 1467.55 596.585 1465.73 598.925C1459.33 607.114 1453.24 615.647 1442.88 619.57C1437.65 621.565 1432.59 622.357 1427.47 619.191C1426.85 618.813 1425.47 619.191 1424.71 619.604C1422.96 620.671 1421.44 622.15 1419.69 623.182C1410.74 628.516 1400.08 626.107 1394.4 617.402C1393.13 615.406 1392.82 615.682 1391.54 617.402C1387.9 622.494 1383.32 625.901 1376.51 624.215C1371.45 622.976 1368.63 619.432 1366.94 614.856C1366.29 613.101 1365.91 612.654 1364.78 614.443C1358.27 624.524 1339.11 622.185 1334.08 611.312C1333.43 609.935 1333.26 608.422 1331.16 610.452C1324.79 616.645 1312.2 615.51 1306.52 608.353C1304.77 606.116 1303.77 602.538 1301.57 601.643C1299.61 600.852 1296.55 603.192 1293.9 603.742C1289.25 604.74 1284.61 604.258 1280.06 602.848C1274.11 600.955 1270.95 596.895 1270.84 590.702C1270.81 588.018 1270.4 587.399 1267.37 588.052C1255.57 590.564 1245.66 586.091 1243.63 572.638C1243.28 570.298 1242.46 569.679 1240.25 569.885C1233.37 570.504 1227.28 568.371 1221.61 564.586C1215.83 560.733 1212.73 555.227 1211.97 548.552C1211.66 545.903 1210.97 545.077 1208.32 545.008C1194.35 544.699 1186.54 534.583 1186.2 521.818C1186.06 517.035 1188.13 513.422 1191.88 510.601L1191.81 510.532L1191.88 510.635Z" fill="#3A352F"/>
<path d="M1191.95 510.702C1190.09 507.984 1192.22 507.434 1194.08 506.78C1195.83 506.195 1197.59 505.713 1199.34 505.197C1198.07 503.959 1196.8 502.754 1195.52 501.516C1187.44 493.808 1185.86 476.605 1192.22 468.381C1194.15 465.904 1195.83 463.186 1198.07 461.052C1202.3 457.061 1207.64 457.439 1212.9 458.231C1217.24 458.885 1221.54 459.745 1225.84 460.536C1226.49 460.639 1227.28 460.743 1227.73 461.121C1230.96 464.252 1234.2 467.383 1237.26 470.721C1237.91 471.409 1237.81 472.785 1238.09 473.852C1237.02 473.645 1235.78 473.645 1234.89 473.129C1233.85 472.544 1232.86 471.581 1232.27 470.549C1229.28 465.353 1224.77 466.936 1220.64 468.175C1219.68 468.45 1218.47 471.478 1218.99 472.372C1220.02 474.265 1221.88 475.916 1223.77 477.017C1225.32 477.912 1226.7 477.327 1226.01 474.884C1225.77 473.99 1226.46 472.854 1226.73 471.856C1227.8 472.51 1229.35 472.923 1229.83 473.852C1231.65 477.602 1228.83 481.594 1224.63 481.318C1221.26 481.112 1218.68 479.392 1216.75 476.673C1216.27 476.02 1216.07 475.125 1215.55 474.54C1214.86 473.817 1213.97 472.854 1213.14 472.854C1212.42 472.854 1211.39 473.852 1210.94 474.643C1208.08 479.908 1207.77 480.045 1201.65 478.772C1200.99 478.635 1199.96 479.254 1199.45 479.839C1198.04 481.353 1197.04 483.28 1195.49 484.553C1193.01 486.548 1192.91 488.716 1193.91 491.4C1195.7 496.182 1198.69 500.07 1202.99 502.754C1204.3 503.58 1206.57 503.924 1207.98 503.374C1213.31 501.309 1218.99 499.486 1223.6 496.251C1231.93 490.436 1239.22 483.28 1244.97 474.781C1246.38 472.716 1248.31 470.377 1244.11 468.932C1243.66 468.76 1243.49 467.486 1243.35 466.695C1240.56 451.143 1220.37 437.999 1203.78 441.302C1196.97 442.644 1190.4 444.33 1185.13 449.285C1180.49 453.655 1176.94 459.022 1176.46 465.147C1175.74 473.99 1176.32 482.936 1176.67 491.847C1176.91 498.075 1180.42 502.823 1184.69 507.124C1185.82 508.294 1188.44 509.498 1186.82 511.287C1185.24 513.077 1183.65 510.806 1182.41 509.705C1176.57 504.475 1172.81 498.281 1172.88 490.058C1172.95 482.385 1172.16 474.712 1172.26 467.074C1172.44 455.822 1182.76 441.853 1194.97 439.41C1201.75 438.068 1208.46 436.244 1215.34 437.862C1230.31 441.371 1241.7 449.182 1246.62 464.527C1246.86 465.284 1247.79 466.557 1248.17 466.489C1251.51 465.697 1250.95 468.175 1250.64 469.689C1250.2 471.925 1249.34 474.127 1248.24 476.123C1247.07 478.256 1245.52 480.252 1243.94 482.144C1231.2 497.18 1216 508.053 1195.7 510.186C1194.46 510.324 1193.25 510.53 1192.01 510.702L1192.08 510.771L1191.95 510.702ZM1208.7 461.259C1208.7 461.259 1208.7 461.396 1208.7 461.5C1207.74 461.5 1206.78 461.362 1205.85 461.5C1200.07 462.463 1191.7 474.402 1192.77 480.08C1192.84 480.424 1193.08 480.733 1193.22 481.077C1193.56 480.905 1194.01 480.802 1194.22 480.527C1195.46 478.875 1196.66 477.258 1197.79 475.538C1200.03 472.166 1200 472.166 1203.02 474.85C1204.81 476.467 1206.02 476.26 1207.15 474.024C1207.46 473.439 1207.7 472.751 1207.77 472.097C1208.08 469.138 1209.63 468.071 1212.56 468.691C1214.07 469 1215.69 469.104 1216.1 467.005C1216.65 464.252 1218.23 463.392 1220.88 464.287C1221.33 464.424 1221.88 464.183 1222.4 464.115C1221.91 463.736 1221.43 463.117 1220.92 463.048C1216.86 462.394 1212.8 461.844 1208.74 461.259H1208.7Z" fill="#3A352F"/>
<path d="M1279.62 442.163C1277.48 441.372 1275.21 440.339 1272.84 439.754C1271.02 439.307 1269.05 439.342 1267.16 439.238C1265.65 439.17 1264.13 439.307 1262.62 439.238C1259.49 439.032 1258.63 437.449 1260.45 434.972C1261.55 433.423 1263.1 432.185 1264.38 430.774C1264.86 430.224 1265.2 429.535 1265.61 428.916C1264.82 429.019 1264 429.019 1263.27 429.26C1262.24 429.57 1261.24 430.189 1260.21 430.396C1259.56 430.533 1258.8 430.12 1258.08 429.948C1258.25 429.329 1258.25 428.538 1258.66 428.159C1261.62 425.475 1265.27 424.202 1269.12 423.789C1271.08 423.583 1271.91 425.338 1271.19 426.886C1270.12 429.191 1268.47 431.187 1267.06 433.32C1266.78 433.733 1266.58 434.215 1266.34 434.662C1266.82 434.8 1267.3 435.041 1267.82 435.109C1269.61 435.281 1271.39 435.35 1273.15 435.591C1275.42 435.901 1276.8 434.697 1277.97 433.079C1279.03 431.634 1278.9 430.533 1276.76 430.361C1276.07 430.292 1275.28 430.361 1274.77 430.017C1274.04 429.57 1273.49 428.813 1272.87 428.228C1273.53 427.609 1274.04 426.645 1274.8 426.404C1276.59 425.785 1278.52 425.544 1280.41 425.097C1282.47 424.615 1284.68 423.996 1286.05 426.06C1287.53 428.262 1287.46 430.705 1286.12 433.045C1285.47 434.215 1284.81 435.35 1284.13 436.52C1285.5 436.589 1286.84 436.623 1288.22 436.727C1290.04 436.83 1291.73 437.552 1293.42 435.626C1296.68 431.91 1296.86 432.116 1292.28 430.43C1291.28 430.052 1290.22 429.501 1289.6 428.71C1288.7 427.505 1288.87 426.267 1290.77 426.267C1293.24 426.267 1295.72 426.37 1298.16 426.68C1302.26 427.161 1303.7 430.327 1301.54 433.802C1301.33 434.146 1301.05 434.456 1300.78 434.8C1299.75 436.038 1298.75 437.312 1297.72 438.55C1299.51 438.963 1301.29 439.376 1303.12 439.789C1304.56 440.133 1306.08 440.305 1307.45 440.855C1308.04 441.096 1308.69 442.129 1308.62 442.714C1308.55 443.23 1307.42 444.055 1306.9 443.952C1301.64 442.989 1295.93 444.09 1291.14 440.615C1290.56 440.167 1289.42 440.236 1288.6 440.408C1285.81 440.924 1283.02 441.578 1279.69 442.301L1279.62 442.163Z" fill="#3A352F"/>
<path d="M1306.25 588.668C1305.87 588.324 1305.28 588.049 1305.18 587.636C1305.08 587.189 1305.28 586.432 1305.63 586.191C1307.14 585.021 1308.76 584.023 1310.34 582.922C1317.88 577.692 1325.62 572.703 1332.84 567.06C1336.01 564.583 1338.04 560.764 1340.69 557.598C1343.41 554.364 1346.06 550.992 1349.05 548.033C1356 541.186 1361.37 533.41 1364.64 524.188C1364.95 523.294 1366.29 522.778 1367.15 522.09C1367.46 523.122 1368.25 524.361 1367.97 525.186C1364.77 534.511 1359.44 542.562 1352.77 549.822C1348.22 554.742 1344.1 560.041 1339.62 565.03C1337.08 567.852 1334.56 570.914 1331.5 573.047C1324.24 578.14 1317.5 584.126 1309.1 587.498C1308.21 587.842 1307.35 588.221 1306.28 588.634L1306.25 588.668Z" fill="#3A352F"/>
<path d="M1345.72 511.944C1344.13 515.006 1342.79 518.206 1340.93 521.028C1333.43 532.382 1324.42 542.567 1314.95 552.304C1312.13 555.229 1308.52 557.396 1305.18 559.839C1298.34 564.897 1291.49 569.921 1284.61 574.91C1283.61 575.632 1282.44 576.183 1281.27 576.458C1280.48 576.665 1279.55 576.217 1278.69 576.08C1279.07 575.288 1279.24 574.222 1279.86 573.809C1283.99 570.85 1288.39 568.269 1292.38 565.138C1303.91 556.089 1316.06 547.728 1324.83 535.651C1328.79 530.214 1333.26 525.225 1337.29 519.823C1339.32 517.105 1340.76 513.94 1342.62 511.049C1342.96 510.499 1343.93 510.155 1344.61 510.155C1344.92 510.155 1345.27 511.153 1345.72 511.91V511.944Z" fill="#3A352F"/>
<path d="M1334.7 598.994C1333.6 598.341 1332.54 598.031 1332.43 597.549C1332.33 596.964 1333.05 596.207 1333.5 595.622C1333.74 595.347 1334.22 595.278 1334.64 595.141C1345.72 591.562 1354.87 584.819 1363.64 577.455C1365.74 575.701 1368.15 574.324 1370.32 572.638C1379.61 565.378 1385.94 555.813 1391.41 545.594C1392.23 544.011 1392.85 542.291 1393.85 540.846C1394.54 539.882 1395.74 539.332 1396.74 538.609C1396.74 539.745 1397.15 541.052 1396.74 541.981C1394.75 546.316 1392.82 550.755 1390.31 554.815C1384.11 564.793 1376.68 573.636 1366.53 580.036C1359.72 584.337 1353.56 589.704 1346.71 594.005C1343.1 596.311 1338.7 597.377 1334.74 598.994H1334.7Z" fill="#3A352F"/>
<path d="M1315.71 498.972C1315.44 499.764 1315.26 500.452 1314.95 501.037C1311.55 506.783 1308.69 512.976 1304.53 518.137C1298.82 525.26 1292.59 532.107 1285.74 538.163C1277.66 545.354 1268.88 551.754 1258.29 555.126C1257.77 555.298 1257.29 555.711 1256.77 555.711C1255.88 555.745 1254.98 555.573 1254.09 555.47C1254.43 554.678 1254.6 553.577 1255.22 553.13C1257.36 551.65 1259.66 550.446 1261.86 549.104C1266.34 546.455 1270.81 543.84 1275.25 541.156C1285.05 535.272 1292.49 526.774 1299.64 518.172C1303.57 513.492 1306.56 508.056 1309.97 502.929C1311.03 501.347 1311.93 499.626 1313.06 498.112C1313.34 497.734 1314.3 497.631 1314.85 497.734C1315.2 497.803 1315.44 498.525 1315.71 498.938V498.972Z" fill="#3A352F"/>
<path d="M1374.68 609.176C1373.07 608.488 1370.04 607.731 1370.04 607.112C1370.14 604.428 1372.86 604.944 1374.55 604.979C1383.49 605.082 1389.79 599.473 1395.78 594.381C1405.65 585.986 1413.6 575.801 1419.17 563.93C1419.93 562.313 1420.76 559.389 1422.85 560.455C1425.19 561.625 1422.85 563.827 1422.17 565.376C1416.42 578.072 1407.89 588.876 1397.29 597.684C1391.99 602.088 1386.62 607.318 1379.05 608.213C1377.68 608.385 1376.34 608.488 1374.96 608.66C1374.89 608.832 1374.79 609.004 1374.72 609.176H1374.68Z" fill="#3A352F"/>
<path d="M1252.85 423.652C1255.36 424.168 1255.94 425.063 1254.98 427.231C1253.47 430.568 1251.88 433.906 1250.34 437.243C1250.13 437.691 1250.06 438.207 1249.92 438.688C1250.44 438.688 1250.96 438.757 1251.47 438.688C1253.09 438.448 1254.71 438.035 1256.32 437.897C1257.01 437.828 1258.28 438.172 1258.39 438.551C1258.56 439.342 1258.39 440.478 1257.91 441.097C1257.39 441.785 1256.39 442.301 1255.5 442.473C1251.85 443.161 1248.2 443.815 1244.52 444.262C1243.35 444.4 1242.08 443.85 1240.84 443.609C1241.49 442.508 1242.04 441.338 1242.8 440.306C1244.73 437.691 1246.83 435.179 1248.68 432.495C1249.17 431.807 1249.1 430.706 1249.27 429.811C1248.38 429.846 1247.45 429.811 1246.59 429.949C1245.11 430.224 1243.66 430.74 1242.18 430.912C1241.49 430.981 1240.74 430.534 1240.01 430.327C1240.32 429.639 1240.5 428.607 1241.01 428.366C1244.9 426.715 1248.86 425.201 1252.81 423.652H1252.85Z" fill="#3A352F"/>
<path d="M1211.45 490.199C1211.04 495.67 1207.88 497.631 1202.99 495.257C1199.82 493.709 1198 490.99 1197.14 487.722C1196.97 487.034 1197.66 486.105 1197.97 485.279C1198.76 485.657 1199.79 485.795 1200.31 486.414C1201.75 487.997 1202.85 489.889 1204.33 491.438C1204.81 491.919 1206.16 491.988 1206.91 491.713C1207.33 491.541 1207.53 490.268 1207.5 489.511C1207.43 488.169 1206.91 486.827 1206.91 485.485C1206.91 484.832 1207.6 483.834 1208.15 483.662C1208.63 483.524 1209.8 484.178 1210.01 484.728C1210.66 486.483 1211.01 488.341 1211.49 490.199H1211.45Z" fill="#3A352F"/>
<path d="M1357.34 161.487C1358.31 160.73 1359.58 160.179 1360.13 159.216C1362.02 155.913 1365.01 155.087 1368.46 154.846C1370.21 154.708 1371.97 154.261 1373.72 154.123C1382.25 153.607 1390.37 154.846 1395.78 162.244C1398.63 166.132 1400.45 170.777 1402.86 175.043C1403.48 176.11 1404.34 177.314 1405.41 177.865C1421.2 185.744 1432.35 198.406 1441.95 212.685C1445.84 218.5 1446.49 224.59 1443.02 230.921C1442.33 232.194 1441.98 233.743 1441.74 235.188C1440.02 244.409 1436.65 252.632 1428.08 257.621C1420.76 261.922 1413.56 266.602 1405.82 270.008C1393.85 275.307 1384.15 283.324 1375.2 292.545C1365.19 302.867 1353.49 310.368 1339.59 314.772C1331.78 317.25 1324.28 320.863 1317.05 324.785C1305.21 331.219 1294.14 338.755 1283.57 347.253C1271.05 357.3 1256.8 364.973 1240.42 366.384C1233.34 367.003 1226.01 365.145 1218.85 364.251C1215.48 363.838 1212.11 362.289 1208.8 362.53C1200.82 363.115 1194.66 359.812 1188.44 355.477C1181.48 350.625 1174.09 346.324 1166.55 342.436C1158.53 338.273 1150.14 334.763 1141.88 331.047C1133.69 327.331 1127.74 321.688 1125.4 312.742C1125.13 311.71 1124.82 310.575 1124.16 309.783C1120.27 304.932 1121.03 299.186 1125.92 295.676C1126.57 295.229 1127.12 293.921 1126.95 293.199C1125.02 283.909 1128.63 276.442 1134.04 269.217C1143.88 256.073 1156.92 246.817 1170.58 238.216C1172.3 237.115 1174.33 236.53 1176.15 235.601C1186.13 230.405 1196.14 225.244 1206.09 219.98C1211.56 217.089 1216.82 213.786 1222.4 211.137C1236.47 204.462 1249.96 196.754 1262.62 187.774C1268.6 183.542 1274.11 178.312 1278.93 172.772C1286.01 164.652 1294.62 158.975 1304.53 155.362C1310.55 153.16 1316.95 152.128 1323.55 152.919C1332.43 153.986 1341.34 154.64 1350.22 155.397C1354.18 155.741 1356.58 157.633 1357.38 161.556C1353.63 160.764 1349.91 159.766 1346.12 159.25C1340.69 158.493 1335.18 158.046 1329.71 157.53C1319.56 156.532 1309.72 157.22 1300.43 162.072C1294.03 165.409 1288.46 169.641 1283.43 174.871C1277.93 180.583 1272.39 186.535 1265.92 191.008C1252.71 200.161 1238.77 208.178 1224.15 214.99C1219.16 217.296 1214.38 220.014 1209.56 222.663C1204.88 225.244 1200.34 228.134 1195.63 230.612C1186.27 235.532 1176.7 240.039 1167.45 245.132C1163.15 247.506 1159.33 250.774 1155.27 253.596C1147.04 259.342 1140.37 266.602 1134.55 274.619C1129.98 280.915 1128.02 287.9 1132.11 295.401C1132.56 296.192 1132.59 297.225 1132.66 298.188C1132.97 303.556 1136.17 307.237 1140.64 309.164C1146.87 311.882 1154.2 311.607 1159.88 316.011C1163.7 315.289 1164.63 318.282 1166.1 320.691C1168.17 324.063 1169.96 327.641 1173.81 329.568C1182.38 333.869 1190.91 338.17 1199.34 342.711C1202.96 344.673 1206.74 344.776 1210.52 344.81C1213.48 344.81 1216.48 344.053 1219.44 343.812C1231.79 342.78 1243.69 340.268 1254.15 333.284C1260.55 329.017 1266.75 324.441 1272.97 319.968C1279.2 315.461 1285.19 310.609 1291.66 306.446C1301.15 300.39 1310.99 294.85 1320.63 289.036C1321.42 288.554 1322.04 287.59 1322.38 286.696C1322.9 285.354 1323.04 283.84 1323.42 282.429C1324.65 277.819 1326.44 273.277 1327.13 268.597C1328.2 261.303 1328.65 253.905 1329.09 246.542C1329.78 235.876 1330.09 225.21 1330.88 214.543C1331.74 202.913 1333.91 191.49 1337.56 180.376C1338.76 176.695 1341.03 174.011 1344.16 171.74C1348.64 168.471 1352.9 164.927 1357.27 161.487H1357.34ZM1343.3 221.597C1341.2 219.119 1339.11 216.608 1336.94 214.13C1336.22 213.339 1335.18 212.788 1335.05 214.509C1334.5 220.599 1334.01 226.723 1333.67 232.814C1333.64 233.571 1334.7 234.396 1335.29 235.188C1336.01 234.568 1337.08 234.121 1337.39 233.33C1338.49 230.405 1339.17 227.343 1340.41 224.453C1340.93 223.248 1342.34 222.457 1343.37 221.494C1342.72 225.76 1342.13 230.061 1341.34 234.328C1340.62 238.284 1340.03 238.835 1335.97 238.938C1333.98 239.007 1333.46 239.695 1333.33 241.588C1333.02 245.785 1332.47 249.983 1332.02 254.181C1331.85 255.66 1331.67 257.174 1331.71 258.654C1331.71 259.342 1332.12 260.443 1332.6 260.615C1333.19 260.821 1334.15 260.374 1334.8 259.961C1335.49 259.548 1336.01 258.86 1336.53 258.206C1342.79 250.809 1349.05 243.377 1355.35 235.979C1356.38 234.775 1356.55 234.259 1354.73 233.467C1350.56 231.678 1347.29 228.857 1346.37 224.108C1346.02 222.388 1345.16 221.39 1343.3 221.528V221.597ZM1234.4 363.494C1238.53 363.046 1241.59 362.943 1244.52 362.324C1257.84 359.571 1269.77 353.515 1280.27 345.189C1290.42 337.137 1301.09 329.981 1312.2 323.34C1321.49 317.8 1331.16 313.293 1341.45 310.162C1353.25 306.549 1363.05 299.908 1371.41 291.238C1381.26 281.053 1391.96 272.417 1404.96 266.43C1412.67 262.92 1419.76 258.138 1427.12 253.871C1432.49 250.74 1435.03 245.682 1436.62 239.97C1436.79 239.351 1436.79 238.663 1436.86 238.044C1436.27 238.284 1435.65 238.491 1435.14 238.835C1432.52 240.59 1430.11 242.689 1427.33 244.134C1418.38 248.71 1409.43 253.183 1400.32 257.381C1378.95 267.152 1357.51 276.752 1336.08 286.421C1332.43 288.072 1328.68 289.448 1325.17 291.341C1305.04 302.179 1286.08 314.772 1267.74 328.363C1259.14 334.763 1250.54 341.163 1239.84 343.95C1231.44 346.152 1222.98 347.322 1214.24 347.873C1206.22 348.389 1199.07 347.632 1192.29 343.228C1190.26 341.92 1187.64 341.576 1185.48 340.441C1181.97 338.583 1178.77 336.105 1175.12 334.557C1170.47 332.561 1167.03 329.465 1164.56 325.198C1164.01 324.269 1163.49 323.03 1162.63 322.583C1157.33 319.796 1152.48 315.977 1146.11 315.495C1138.41 314.91 1133.18 310.678 1129.77 304.003C1129.08 302.661 1128.67 301.181 1128.02 299.84C1127.84 299.496 1127.19 299.427 1126.74 299.22C1126.43 300.7 1125.57 302.317 1125.88 303.693C1126.4 306.033 1127.88 308.132 1128.53 310.472C1130.63 318.179 1135.52 323.306 1142.74 326.54C1150.9 330.187 1159.12 333.662 1167.03 337.791C1176.15 342.539 1185.41 347.116 1193.25 353.997C1197.55 357.782 1202.54 359.365 1208.36 359.158C1211.97 359.021 1215.69 359.743 1219.3 360.397C1224.67 361.36 1230 362.599 1234.37 363.528L1234.4 363.494ZM1441.57 220.599C1440.78 218.879 1440.02 216.16 1438.44 214.061C1434.21 208.35 1429.49 202.982 1425.19 197.339C1419.89 190.355 1412.53 186.088 1405.17 181.787C1403.55 180.858 1402.97 181.168 1402.97 183.026C1402.97 186.295 1403.41 189.667 1401.35 192.557C1398.6 196.445 1400.42 199.748 1402.73 202.879C1408.99 211.343 1405.41 221.803 1396.77 225.863C1395.81 226.311 1394.78 226.758 1394.02 227.446C1390.75 230.371 1387.79 233.639 1384.35 236.323C1376.85 242.241 1368.32 244.65 1358.92 241.966C1356.45 241.243 1355.11 241.863 1353.69 243.686C1349.32 249.329 1344.85 254.869 1340.45 260.477C1338.69 262.714 1336.83 264.537 1333.7 264.641C1333.02 264.641 1331.98 265.742 1331.78 266.533C1330.3 272.073 1328.96 277.612 1327.61 283.186C1327.44 283.909 1327.51 284.666 1327.44 285.423C1328.23 285.251 1329.06 285.216 1329.78 284.941C1334.22 283.117 1338.73 281.363 1343.06 279.298C1368.15 267.462 1393.16 255.523 1418.24 243.652C1424.37 240.762 1430.15 237.355 1435.1 232.745C1438.37 229.717 1440.88 226.242 1441.61 220.599H1441.57ZM1350.19 183.645C1351.35 188.393 1352.32 193.176 1353.73 197.856C1354.28 199.679 1355.66 201.399 1357.03 202.776C1360.95 206.733 1365.91 209.072 1371.14 210.827C1378.81 213.373 1383.63 212.272 1388.48 205.941C1390.96 202.741 1392.85 199.06 1394.88 195.55C1396.08 193.486 1398.32 191.008 1397.91 189.219C1397.46 187.327 1394.36 186.123 1392.58 184.437C1388.65 180.824 1384.39 177.383 1384.32 171.327C1384.32 171.052 1382.91 170.398 1382.42 170.605C1380.64 171.293 1378.92 172.187 1377.26 173.151C1375.03 174.424 1373.24 174.114 1371.38 172.256C1368.7 169.538 1365.53 167.267 1364.36 163.31C1364.05 162.278 1363.43 161.211 1361.99 162.381C1355.17 167.818 1350.29 174.218 1350.15 183.645H1350.19ZM1378.19 215.851C1370.73 216.195 1365.12 213.477 1359.61 210.242C1354.76 207.386 1350.53 204.118 1349.39 198.131C1348.98 195.86 1348.53 193.555 1347.88 191.352C1346.47 186.398 1346.09 181.443 1347.81 176.454C1348.05 175.8 1347.74 174.94 1347.67 174.183C1346.88 174.355 1345.75 174.218 1345.37 174.699C1343.85 176.592 1342.06 178.518 1341.34 180.755C1339.66 185.813 1338.18 190.974 1337.25 196.204C1336.7 199.369 1333.81 203.292 1338.66 205.838C1337.52 209.244 1340.62 210.827 1341.93 213.167C1344.13 217.089 1344.44 217.227 1348.05 214.853C1349.22 214.096 1349.91 212.582 1350.94 211.55C1351.77 210.758 1352.9 209.451 1353.69 209.588C1357.86 210.414 1361.64 212.203 1364.6 215.403C1367.97 219.085 1367.7 223.592 1366.94 227.859C1366.43 230.715 1364.77 233.433 1361.09 233.983C1360.4 234.087 1359.82 236.117 1359.58 237.321C1359.51 237.699 1360.71 238.697 1361.44 238.801C1365.5 239.385 1369.49 239.592 1373.62 238.25C1379.23 236.426 1383.39 232.745 1387.59 229.029C1392.27 224.865 1392.44 224.281 1387.69 220.668C1387.48 220.496 1387.21 220.324 1387.1 220.083C1384.97 216.092 1381.84 214.474 1378.23 215.816L1378.19 215.851ZM1399.35 180.755C1399.53 180.686 1399.7 180.652 1399.87 180.583C1399.18 178.553 1398.73 176.42 1397.77 174.562C1396.26 171.671 1393.88 169.16 1392.85 166.166C1391.75 163.069 1389.75 161.143 1387.04 160.386C1382.05 158.975 1377.16 155.775 1371.69 158.803C1371.48 158.906 1371.14 158.837 1370.86 158.872C1367.7 159.147 1366.88 160.672 1368.42 163.448C1368.77 164.033 1368.97 164.721 1369.32 165.272C1372.1 169.779 1374.55 170.501 1379.23 168.196C1380.33 167.646 1381.39 167.026 1382.53 166.545C1385.25 165.409 1387.04 166.235 1387.07 169.125C1387.21 176.213 1392.27 179.86 1396.98 183.817C1398.25 184.884 1399.25 184.746 1399.35 182.819C1399.39 182.131 1399.35 181.443 1399.35 180.755ZM1363.5 224.04C1363.91 218.844 1360.61 216.126 1357 213.717C1356.62 213.477 1355.48 213.958 1355 214.406C1353.38 215.954 1351.84 217.605 1350.36 219.257C1349.84 219.808 1349.02 220.633 1349.15 221.115C1349.94 224.108 1350.39 227.652 1353.8 228.788C1356.24 229.614 1359.2 229.992 1361.64 229.407C1362.64 229.166 1362.92 225.898 1363.54 224.005L1363.5 224.04ZM1402.14 213.27C1401.83 212.031 1401.66 211.378 1401.52 210.724C1401.07 208.591 1400.45 207.18 1398.29 209.554C1396.77 211.24 1394.74 211.619 1392.68 210.621C1389.79 209.244 1388.93 212.1 1387.38 213.27C1387.21 213.408 1388.31 215.713 1389.17 216.745C1390.1 217.881 1391.41 218.707 1392.54 219.704C1396.02 222.767 1397.25 222.732 1399.84 218.81C1401.01 217.055 1401.56 214.887 1402.21 213.305L1402.14 213.27ZM1394.88 205.322C1394.88 205.322 1394.74 205.184 1394.67 205.081C1394.5 205.253 1394.33 205.391 1394.12 205.563C1394.23 205.666 1394.33 205.769 1394.43 205.872C1394.57 205.666 1394.71 205.494 1394.85 205.288L1394.88 205.322Z" fill="#3A352F"/>
<path d="M1236.26 218.33C1240.77 219.053 1245.86 220.12 1251.06 220.636C1259.01 221.427 1266.3 224.489 1273.32 227.758C1278.69 230.235 1283.75 233.951 1288.12 237.977C1298.16 247.198 1304.7 259 1310.58 271.146C1311.58 273.21 1312.27 275.481 1312.79 277.752C1312.96 278.578 1312.17 279.61 1311.82 280.574C1311.03 279.989 1309.97 279.576 1309.55 278.819C1305.18 270.767 1301.47 262.269 1296.44 254.63C1289.15 243.551 1280.1 234.33 1267.16 229.203C1257.18 225.246 1246.86 223.491 1236.44 221.978C1232.72 221.461 1228.8 222.494 1224.98 222.734C1224.01 222.803 1223.05 222.356 1222.09 222.15C1222.88 221.427 1223.6 220.188 1224.53 220.016C1228.14 219.328 1231.86 218.95 1236.3 218.33H1236.26Z" fill="#3A352F"/>
<path d="M1138.3 282.569C1138.82 281.055 1139.3 279.369 1140.02 277.751C1143.12 270.87 1147.9 265.227 1153.47 260.307C1165.72 249.4 1179.21 240.419 1194.39 233.847C1199.58 231.611 1203.98 227.62 1208.84 224.523C1210.11 223.697 1211.42 221.702 1212.93 223.525C1213.31 223.972 1212 226.381 1210.97 227.344C1206.01 231.921 1200.58 235.637 1194.21 238.252C1177.63 245.099 1163.35 255.455 1151.17 268.53C1146.66 273.347 1142.6 278.577 1142.02 285.596C1141.98 286.181 1141.43 286.697 1141.09 287.248C1140.47 286.835 1139.57 286.56 1139.26 285.975C1138.78 285.046 1138.68 283.91 1138.3 282.534V282.569Z" fill="#3A352F"/>
<path d="M1182.76 254.837C1188.23 256.523 1193.84 257.417 1198.62 259.929C1211.25 266.57 1224.05 273.107 1235.68 281.262C1243 286.423 1248.41 294.337 1254.5 301.184C1255.7 302.56 1256.39 304.556 1256.87 306.379C1257.11 307.308 1256.32 308.478 1256.01 309.545C1255.22 308.96 1254.22 308.478 1253.64 307.721C1252.02 305.519 1250.68 303.145 1249.06 300.977C1235.88 282.913 1216.48 273.245 1197.21 263.507C1192.63 261.202 1187.26 260.48 1182.31 258.931C1181.38 258.622 1180.66 257.693 1179.87 257.039C1180.76 256.385 1181.66 255.697 1182.76 254.905V254.837Z" fill="#3A352F"/>
<path d="M1166.35 278.407C1167.24 278.545 1168.65 278.613 1169.96 279.026C1178.73 281.71 1187.89 283.637 1195.18 289.589C1205.71 298.157 1216.14 306.828 1226.25 315.877C1229.21 318.526 1231.1 322.449 1233.2 325.958C1233.68 326.715 1233.1 328.126 1233.03 329.227C1232.07 328.711 1230.59 328.47 1230.17 327.679C1225.56 318.836 1217.48 313.434 1210.11 307.344C1203.89 302.183 1197.76 296.849 1191.19 292.204C1183.38 286.699 1174.23 284.015 1164.9 282.123C1163.63 281.848 1161.39 283.052 1161.6 280.471C1161.77 278.304 1163.77 278.373 1165.45 278.407C1165.59 278.407 1165.73 278.407 1166.31 278.407H1166.35Z" fill="#3A352F"/>
<path d="M1217.96 241.038C1225.49 243.034 1232.79 244.513 1239.74 246.956C1253.09 251.636 1264.96 258.93 1273.08 270.766C1277.07 276.581 1279.68 283.325 1282.85 289.691C1283.33 290.62 1283.5 291.858 1283.4 292.891C1283.3 293.82 1282.54 294.68 1282.09 295.54C1281.37 294.886 1280.37 294.336 1279.99 293.51C1278.31 289.932 1276.96 286.181 1275.24 282.637C1268.71 268.943 1258.07 259.446 1244.45 252.978C1235.92 248.918 1226.94 246.612 1217.61 245.374C1216.17 245.167 1213.69 245.993 1213.9 243.55C1213.96 242.655 1216.41 241.967 1217.96 241.073V241.038Z" fill="#3A352F"/>
<path d="M1314.23 164.067C1313.5 164.583 1312.82 165.236 1312.02 165.546C1310.37 166.165 1308.65 166.613 1306.93 167.129C1299.84 169.262 1294.75 174.251 1289.45 178.999C1284.36 183.576 1279.06 187.911 1273.9 192.384C1272.94 193.21 1271.8 194.311 1270.91 192.728C1270.49 191.971 1270.94 190.526 1271.35 189.563C1271.63 188.874 1272.49 188.427 1273.11 187.877C1279.89 181.924 1286.56 175.834 1293.51 170.053C1298.54 165.856 1304.45 163.344 1310.92 162.243C1311.96 162.071 1313.13 162.793 1314.26 163.103C1314.26 163.413 1314.26 163.722 1314.26 164.067H1314.23Z" fill="#3A352F"/>
<path d="M1209.67 336.827C1201.58 335.279 1194.9 332.01 1188.71 327.915C1183.58 324.509 1178.87 320.483 1174.02 316.698C1173.16 316.045 1172.37 315.219 1171.82 314.29C1171.54 313.843 1171.61 312.845 1171.95 312.466C1172.3 312.088 1173.26 311.95 1173.78 312.191C1174.78 312.638 1175.67 313.292 1176.5 314.015C1186.1 322.41 1196.63 329.223 1208.87 333.18C1209.25 333.317 1209.77 333.352 1210.01 333.661C1210.56 334.35 1211.01 335.141 1211.45 335.898C1210.7 336.311 1209.98 336.689 1209.7 336.827H1209.67Z" fill="#3A352F"/>
<path d="M1337.49 163.653C1335.15 163.653 1332.81 163.859 1330.51 163.55C1329.58 163.412 1328.79 162.208 1327.93 161.52C1328.79 161.003 1329.68 160.074 1330.51 160.074C1335.01 160.178 1339.52 160.419 1344.03 160.831C1344.89 160.9 1345.68 161.932 1346.51 162.517C1345.54 162.999 1344.61 163.825 1343.61 163.928C1341.58 164.169 1339.52 163.997 1337.46 163.997C1337.46 163.894 1337.46 163.756 1337.46 163.653H1337.49Z" fill="#3A352F"/>
<path d="M1228.93 355.613C1227.45 355.441 1225.87 355.475 1224.46 355.028C1223.77 354.821 1223.36 353.72 1222.81 353.032C1223.46 352.688 1224.12 352.103 1224.8 352C1226.97 351.759 1229.17 351.69 1231.38 351.553C1238.36 351.14 1244.76 348.731 1250.95 345.635C1265.78 338.237 1278.89 328.259 1292.38 318.797C1293.82 317.764 1295.3 316.698 1296.85 315.872C1297.44 315.562 1298.33 315.872 1299.09 315.872C1298.99 316.732 1299.16 317.764 1298.75 318.384C1298.06 319.347 1296.99 320.104 1295.99 320.827C1282.33 331.011 1268.5 340.921 1253.36 348.8C1245.72 352.791 1237.64 355.372 1228.9 355.578L1228.93 355.613Z" fill="#3A352F"/>
<path d="M1412.53 256.384C1411.78 255.902 1411.16 255.524 1410.5 255.111C1410.99 254.389 1411.29 253.356 1411.95 253.012C1417.94 250.019 1423.99 247.094 1430.08 244.273C1430.8 243.929 1431.84 244.238 1432.73 244.238C1432.63 244.961 1432.8 246.028 1432.39 246.372C1426.47 250.982 1419.72 253.907 1412.57 256.419L1412.53 256.384Z" fill="#3A352F"/>
<path d="M1436.13 222.181C1435.34 223.144 1434.58 224.073 1433.83 225.002C1433.17 224.108 1432.18 223.282 1431.9 222.284C1430.66 217.26 1428.53 212.856 1424.47 209.416C1419.27 205.011 1414.21 200.435 1409.12 195.893C1408.61 195.446 1408.06 194.93 1407.82 194.345C1407.4 193.382 1407.26 192.315 1406.99 191.283C1407.95 191.524 1409.05 191.524 1409.88 192.005C1415.69 195.205 1420.61 199.472 1425.26 204.22C1428.67 207.661 1431.93 211.067 1433.79 215.574C1434.62 217.57 1435.24 219.669 1436.13 222.181Z" fill="#3A352F"/>
<path d="M1354.42 177.075C1355.42 174.425 1356.35 171.741 1357.51 169.195C1357.82 168.576 1358.99 168.335 1359.75 167.922C1360.06 168.851 1360.71 169.849 1360.58 170.709C1360.23 172.98 1359.34 175.148 1359.03 177.419C1358.75 179.311 1359.82 179.896 1361.54 178.898C1362.85 178.176 1364.16 177.315 1365.53 176.868C1366.08 176.696 1367.08 177.212 1367.53 177.728C1367.8 178.038 1367.63 179.277 1367.29 179.517C1365.26 180.825 1363.23 182.58 1360.99 183.061C1357.24 183.853 1354.97 181.307 1354.38 177.109L1354.42 177.075Z" fill="#3A352F"/>
<path d="M1380.19 190.014C1380.19 188.775 1379.98 187.502 1380.26 186.332C1380.46 185.438 1381.26 184.715 1381.77 183.924C1382.36 184.75 1383.32 185.472 1383.49 186.367C1383.84 188.225 1383.56 190.22 1383.87 192.078C1384.08 193.283 1384.83 194.418 1385.35 195.588C1386.28 195.003 1387.17 194.349 1388.14 193.902C1389.03 193.524 1390.03 193.386 1390.99 193.145C1391.23 194.108 1391.78 195.141 1391.61 196.035C1391.13 198.822 1389.14 199.717 1386.49 199.579C1383.49 199.442 1380.81 197.412 1380.36 194.556C1380.12 193.076 1380.33 191.562 1380.33 190.048C1380.29 190.048 1380.26 190.048 1380.19 190.048V190.014Z" fill="#3A352F"/>
<path d="M1368.01 200.986C1367.29 201.261 1366.22 201.983 1365.91 201.777C1364.33 200.538 1362.88 199.093 1361.5 197.614C1361.33 197.442 1362.09 196.478 1362.4 195.859C1364.33 197.166 1366.29 198.508 1368.21 199.816C1368.15 200.194 1368.08 200.573 1368.01 200.986Z" fill="#3A352F"/>
<path d="M1094.74 121.043C1094.05 122.213 1093.67 123.899 1092.64 124.45C1087.99 127.03 1088.47 131.538 1088.23 135.598C1087.92 140.931 1088.23 146.299 1088.06 151.632C1087.89 158.754 1087.58 165.876 1087.34 172.999C1087.3 174.513 1086.99 176.13 1087.41 177.506C1088.85 182.461 1086.68 185.386 1082.62 187.966C1073.13 194.022 1063.84 200.353 1054.48 206.581C1053.24 207.406 1051.76 208.095 1050.83 209.196C1049.08 211.329 1047.36 211.191 1045.53 209.608C1033.11 198.77 1017.7 193.162 1003.49 185.42C1003.25 185.282 1002.94 185.282 1002.73 185.11C997.363 180.431 992.614 183.459 988.004 186.452C981.914 190.443 975.961 194.641 969.94 198.736C967.428 200.422 967.394 200.49 969.974 202.245C973.277 204.482 976.581 206.684 979.987 208.748C980.778 209.23 981.948 209.024 982.946 209.161C982.912 208.095 983.256 206.821 982.774 206.064C981.535 204.103 979.987 202.348 978.507 200.594C977.888 199.871 976.925 199.458 976.374 198.701C975.961 198.116 975.583 197.05 975.858 196.568C976.133 196.086 977.303 195.777 977.957 195.914C981.948 196.774 987.832 205.273 987.384 209.402C987.109 212.258 985.63 213.703 982.774 213.393C981.053 213.221 979.161 212.774 977.75 211.845C973.725 209.23 969.802 206.477 966.052 203.484C964.744 202.452 963.987 202.176 962.577 203.002C959.618 204.757 956.624 206.443 953.562 207.957C951.601 208.92 951.738 210.503 951.738 212.12C951.876 222.683 952.461 233.246 952.117 243.775C951.704 256.506 950.637 269.202 949.674 281.899C949.33 286.372 947.506 287.61 943.102 286.991C938.595 286.372 935.051 284.239 932.952 280.11C932.47 279.146 932.057 278.045 932.057 277.013C931.885 267.31 931.851 257.641 931.679 247.939C931.507 238.476 930.612 228.98 931.266 219.587C931.644 214.185 929.339 211.122 925.52 209.161C921.012 206.821 918.432 203.105 916.264 199.045C913.959 194.744 910.931 191.785 906.492 189.618C901.09 186.968 896.136 183.424 891.009 180.293C888.566 178.814 888.359 178.883 888.325 181.773C888.256 186.831 888.325 191.923 888.256 196.981C887.981 213.29 887.706 229.599 887.362 245.908C887.362 247.044 886.949 248.971 886.329 249.143C885.263 249.452 883.852 248.799 882.682 248.317C881.306 247.766 880.067 246.665 878.657 246.321C875.663 245.633 874.149 244.016 874.046 240.954C873.874 235.896 873.392 230.838 873.358 225.78C873.289 203.69 873.427 181.635 873.255 159.545C873.22 155.348 874.562 152.32 878.072 150.359C880.343 149.086 880.962 147.262 880.721 144.888C880.033 137.937 879.551 130.953 878.657 124.037C876.936 110.756 874.803 97.5086 874.906 84.0208C874.975 75.4189 878.794 68.6062 885.332 64.03C893.624 58.2496 902.57 53.2605 912.754 51.1272C922.285 49.1315 925.244 50.1294 930.096 58.456C931.128 60.2452 931.438 60.0387 932.917 59.2818C939.317 56.0475 945.786 52.7787 953.183 52.9508C962.714 53.1572 971.729 55.0841 978.542 62.7225C979.195 63.4795 980.744 63.9268 981.742 63.7892C990.928 62.5505 998.945 68.8815 1002.25 77.1737C1003.73 80.8209 1003.8 80.8209 1007.24 79.1349C1012.64 76.52 1018.08 74.0082 1023.37 71.2556C1025.23 70.2922 1026.71 70.5675 1028.43 71.3588C1035.83 74.662 1043.12 77.9651 1049.87 82.6789C1058.2 88.4594 1067.31 93.07 1076.09 98.1967C1078.12 99.3666 1080.18 100.468 1082.14 101.706C1084.45 103.151 1086.51 104.872 1089.68 103.977C1091.43 103.461 1092.91 104.528 1093.26 106.489C1093.64 108.622 1093.84 110.79 1094.15 112.958C1094.32 114.299 1094.53 115.641 1094.7 116.983V121.112L1094.74 121.043ZM878.312 87.7024C878.416 89.6293 878.381 91.5561 878.622 93.4485C880.343 108.691 882.063 123.934 883.852 139.142C884.127 141.516 884.506 143.89 884.85 146.264C887.224 145.301 889.633 144.406 892.007 143.374C894.346 142.376 896.445 141.275 895.895 138.006C895.654 136.527 896.48 135.529 898.406 135.598C900.23 135.667 902.191 135.598 903.843 134.91C910.036 132.26 916.092 129.301 922.251 126.617C923.971 125.86 925.933 125.035 927.722 125.172C929.717 125.344 931.059 124.931 932.504 123.693C933.433 122.901 934.603 122.385 935.704 121.869C939.007 120.286 938.767 120.39 937.287 116.88C934.706 110.687 932.332 104.425 930.199 98.0591C929.442 95.7882 929.511 93.2076 929.408 90.7647C929.408 90.2142 930.199 89.4572 930.818 89.1476C931.059 89.0099 931.954 89.7669 932.264 90.283C932.608 90.8335 932.711 91.5561 932.814 92.2442C934.534 101.19 937.356 109.792 942.07 117.603C946.818 125.482 953.768 130.161 963.334 130.265C969.768 130.333 975.376 127.615 981.088 125.344C983.428 124.415 985.458 122.557 987.35 120.803C988.21 120.011 988.382 118.463 988.898 117.224C987.763 116.914 986.662 116.433 985.526 116.364C978.645 115.917 972.486 113.68 967.944 108.485C963.746 103.702 959.927 98.5064 963.127 91.4529C963.471 90.7303 963.23 89.6637 962.99 88.8035C962.336 86.4638 961.613 84.1585 960.822 81.8531C960.581 81.1306 960.168 80.408 959.652 79.8919C955.833 76.1415 954.938 71.2556 957.312 66.5418C959.239 62.7225 963.54 61.2774 967.084 63.3419C967.6 63.6171 968.185 64.3741 968.116 64.8214C968.047 65.3031 967.256 65.7504 966.706 65.9913C966.224 66.1633 965.605 65.9913 965.088 65.9913C960.787 66.1633 958.172 71.1868 960.581 74.8684C960.891 75.3501 961.888 75.763 962.508 75.6598C965.742 75.2125 966.327 75.5222 965.295 78.4124C964.125 81.7155 964.641 84.3993 966.534 87.324C967.325 88.5282 967.463 90.8335 966.843 92.1754C965.57 95.1345 965.811 97.7839 967.118 100.468C970.628 107.556 976.546 111.444 984.253 112.338C986.077 112.545 988.554 111.891 989.896 110.687C992.614 108.278 994.989 105.388 997.053 102.394C1003.14 93.5861 1002.66 83.2295 995.952 74.662C993.612 71.6685 990.928 69.0535 987.109 68.2966C980.365 66.9547 973.725 66.6106 968.219 72.047C967.566 72.7007 966.155 72.5975 965.123 72.8384C965.398 71.875 965.329 70.5675 965.949 69.9825C967.772 68.1589 969.699 66.2321 971.935 65.0967C974.344 63.8924 973.518 63.4107 972.073 62.2064C966.774 57.8367 960.409 56.7012 953.906 56.7356C942.723 56.8388 933.64 62.0688 925.554 69.2944C917.399 76.5888 910.621 85.0186 905.013 94.3775C901.125 100.846 897.581 107.487 893.968 114.093C892.488 116.811 892.798 119.529 894.312 122.316C896.17 125.723 898.785 128.131 902.157 129.921C902.948 130.333 903.292 131.572 903.843 132.432C902.776 132.57 901.366 133.189 900.677 132.742C898.028 131.09 895.619 129.095 893.142 127.202C892.729 126.893 892.351 126.48 891.972 126.101C891.697 126.652 891.181 127.237 891.215 127.787C891.387 131.194 891.835 134.566 891.903 137.972C891.903 138.935 891.078 139.933 890.63 140.897C889.942 140.174 888.704 139.486 888.669 138.729C888.256 133.43 887.327 128.028 888.015 122.867C889.185 114.127 892.867 106.214 897.581 98.644C905.047 86.739 912.858 75.1781 923.593 65.888C925.038 64.6494 927.687 63.4107 927.687 62.172C927.687 60.5549 925.623 58.9033 924.453 57.2861C921.7 53.3637 920.771 53.1228 916.195 54.0518C907.559 55.8066 899.92 59.6603 892.351 63.9612C882.957 69.2944 877.934 76.7608 878.312 87.6336V87.7024ZM876.764 202.108H877.005C877.005 210.469 876.936 218.83 877.005 227.191C877.039 231.423 877.383 235.689 877.659 239.922C877.796 241.745 880.446 244.05 882.269 243.5C883.061 243.259 883.714 241.263 883.783 240.025C884.162 232.077 884.471 224.128 884.609 216.215C884.781 204.413 884.815 192.646 884.884 180.844C884.884 178.848 885.469 176.715 883.336 175.235C882.992 174.994 882.923 173.825 883.198 173.481C883.508 173.068 884.403 172.896 884.988 172.964C885.779 173.068 886.57 173.481 887.258 173.893C892.626 176.956 897.89 180.156 903.327 183.149C911.722 187.76 920.152 192.336 928.685 196.671C932.229 198.46 934.466 200.8 934.5 204.826C934.569 209.196 934.431 213.531 934.534 217.901C934.706 224.473 935.085 231.044 935.257 237.616C935.567 250.347 935.808 263.112 936.083 275.843C936.083 276.531 936.083 277.219 936.22 277.908C936.805 280.488 940.831 283.378 943.515 282.965C946.715 282.484 946.474 279.938 946.405 277.563C946.405 277.151 946.405 276.738 946.439 276.325C947.093 261.564 947.919 246.769 948.332 232.008C948.538 225.298 948.057 218.589 947.747 211.879C947.575 208.198 948.882 205.858 952.254 203.966C959.446 199.974 966.43 195.536 973.381 191.166C978.163 188.173 982.636 184.697 987.522 181.945C996.606 176.784 1005.76 171.726 1015.12 167.115C1028.88 160.337 1041.37 151.322 1055.03 144.337C1062.7 140.415 1069.65 135.082 1076.88 130.368C1080.8 127.822 1084.72 125.31 1088.54 122.592C1089.51 121.904 1090.37 120.493 1090.47 119.323C1090.71 116.88 1090.5 114.403 1090.33 111.925C1090.02 107.968 1088.92 107.349 1085.38 109.001C1084.9 109.242 1084.38 109.482 1083.93 109.758C1072.85 116.914 1061.88 124.243 1050.66 131.159C1040.27 137.559 1029.6 143.58 1019.04 149.705C1015.12 151.976 1011.09 154.075 1007.2 156.38C992.855 165.016 978.542 173.756 962.405 178.883C961.235 179.261 960.134 179.88 959.067 180.5C953.94 183.459 948.676 186.177 943.825 189.48C940.108 192.026 936.737 190.237 933.984 188.826C927.653 185.592 921.941 181.188 915.714 177.713C903.981 171.106 892.144 164.741 880.274 158.376C877.177 156.724 877.005 156.965 876.971 160.509C876.936 166.393 876.799 172.276 876.764 178.16C876.73 186.108 876.764 194.056 876.764 202.004V202.108ZM968.701 165.016C969.114 165.98 970.25 167.734 970.559 169.627C971.006 172.379 972.314 171.795 973.931 170.969C980.985 167.287 988.141 163.743 995.092 159.855C1004.93 154.384 1014.74 148.845 1024.34 142.961C1041.4 132.467 1058.3 121.663 1075.23 110.928C1077.46 109.517 1079.49 107.728 1081.63 106.076C1079.15 104.425 1076.71 102.67 1074.16 101.156C1065.18 95.857 1055.75 91.212 1047.29 85.1907C1040.44 80.3392 1032.8 77.4146 1025.51 73.6986C1024.99 73.4233 1023.75 73.5265 1023.48 73.905C1020.07 78.5156 1014.94 80.1672 1009.85 81.922C1004.79 83.6768 1004.76 83.6768 1004.83 89.1131C1004.9 95.4441 1003.59 101.19 999.702 106.489C996.571 110.79 991.892 114.609 992.855 120.975C992.924 121.422 992.511 122.007 992.202 122.454C990.688 124.622 992.305 124.347 993.578 124.14C994.782 123.934 996.021 123.658 997.156 123.245C1003.14 121.009 1008.58 117.912 1013.43 113.749C1017.35 110.377 1018.49 105.904 1016.15 101.259C1014.29 97.543 1011.99 94.2055 1008.03 92.2442C1007.27 91.8658 1007.07 90.3862 1006.62 89.4228C1007.72 89.2164 1009.2 88.425 1009.85 88.8723C1012.09 90.3518 1014.36 92.0034 1016.08 94.0334C1018.28 96.6828 1019.93 99.2978 1023.44 101.053C1029.91 104.252 1035.69 108.76 1041.75 112.786C1044.26 114.437 1044.5 117.018 1042.16 118.807C1040.44 120.114 1038.41 121.112 1036.45 122.041C1029.53 125.379 1022.48 128.475 1015.63 131.916C1011.99 133.774 1008.68 136.355 1005.04 138.213C995.367 143.133 985.595 147.847 975.858 152.595C973.518 153.731 970.112 154.109 968.976 155.933C967.772 157.928 968.701 161.163 968.701 164.947V165.016ZM1050.14 194.4H1050.28C1050.28 196.465 1050.21 198.529 1050.28 200.559C1050.45 204.516 1050.56 204.551 1053.79 202.452C1061.74 197.325 1069.65 192.095 1077.64 187.037C1081.8 184.388 1085 181.429 1083.52 175.855C1083.21 174.719 1083.48 173.412 1083.52 172.173C1083.86 159.305 1084.24 146.436 1084.55 133.568C1084.55 132.673 1084.31 131.813 1084.17 130.918C1083.31 131.262 1082.35 131.469 1081.56 131.951C1072.3 137.834 1063.05 143.752 1053.86 149.774C1052.9 150.393 1051.97 151.838 1051.9 152.939C1051.21 166.737 1050.69 180.568 1050.11 194.4H1050.14ZM968.357 152.389C969.045 152.045 969.424 151.873 969.802 151.701C981.673 145.92 993.578 140.277 1005.38 134.359C1012.36 130.85 1019.11 126.927 1026.06 123.314C1029.95 121.284 1034.01 119.529 1038 117.706C1039.79 116.88 1040.06 116.226 1038.14 115.091C1032.97 111.994 1027.85 108.794 1022.76 105.594C1021.1 104.562 1021.24 105.87 1021.17 106.73C1020.62 111.891 1017.9 115.745 1013.57 118.325C1008.27 121.422 1002.83 124.381 997.328 127.099C995.574 127.959 993.234 128.544 991.341 128.2C986.937 127.374 983.29 129.129 979.471 130.574C977.544 131.331 975.652 132.123 973.656 132.708C962.233 136.148 952.151 133.568 943.687 125.379C941.863 123.624 940.521 123.796 938.698 124.691C937.149 125.482 935.601 126.239 934.053 126.996C935.429 128.235 936.633 129.817 938.25 130.712C946.439 135.185 954.663 139.623 963.058 143.752C966.189 145.301 968.564 146.746 967.944 150.668C967.875 151.184 968.254 151.735 968.46 152.354L968.357 152.389ZM1047.49 155.657C1047.74 155.657 1047.98 155.657 1048.22 155.657C1048.11 155.004 1048.01 154.35 1047.91 153.696C1047.15 153.868 1046.29 153.903 1045.67 154.247C1038.79 158.272 1032.01 162.436 1025.06 166.358C1017.66 170.556 1010.13 174.513 1002.66 178.607C1002.08 178.917 1001.59 179.433 1001.08 179.846C1001.59 180.259 1002.04 180.775 1002.59 181.05C1009.72 184.629 1016.94 187.966 1023.96 191.751C1030.7 195.398 1037.24 199.424 1043.88 203.312C1044.67 203.794 1045.5 204.275 1046.29 204.757C1046.43 203.725 1046.7 202.727 1046.74 201.695C1047.01 186.349 1047.25 171.038 1047.49 155.692V155.657ZM899.783 150.909C899.783 150.909 900.058 150.909 900.196 150.909C900.196 153.111 900.299 155.313 900.127 157.481C900.058 158.41 899.404 159.305 898.991 160.234C898.372 159.477 897.305 158.788 897.168 157.963C896.548 154.591 896.17 151.184 895.826 147.812C895.688 146.264 895.207 145.886 893.796 146.574C889.564 148.569 885.332 150.531 881.099 152.492C879.207 153.387 879.207 154.143 881.099 155.072C886.398 157.687 891.766 160.199 896.893 163.089C907.284 168.939 917.572 175.029 927.894 181.05C930.268 182.426 932.504 184.009 934.947 185.317C935.635 185.695 936.737 185.454 937.631 185.317C937.803 185.317 938.113 184.388 937.975 184.009C935.498 177.885 935.463 171.45 935.463 165.051C935.463 162.849 934.844 161.61 932.745 160.681C929.132 159.029 925.657 157.068 922.217 155.038C915.507 151.047 908.832 146.952 902.226 142.755C900.437 141.619 899.817 141.86 899.817 143.959C899.817 146.299 899.817 148.604 899.817 150.944L899.783 150.909ZM937.597 158.892C940.074 158.066 942.345 157.55 944.444 156.586C949.192 154.453 953.837 152.113 958.482 149.808C959.308 149.395 960.065 148.845 960.856 148.363C960.134 147.812 959.48 147.159 958.689 146.711C949.089 141.172 939.489 135.667 929.924 130.093C927.756 128.819 925.864 128.407 923.455 129.748C918.673 132.398 913.649 134.634 908.729 137.077C907.284 137.8 905.839 138.522 904.428 139.279C905.77 140.277 907.146 141.309 908.522 142.273C909.314 142.823 910.139 143.339 910.931 143.821C917.95 148.053 924.969 152.354 932.057 156.518C933.777 157.55 935.773 158.135 937.631 158.926L937.597 158.892ZM939.42 170.143C939.42 170.143 939.352 170.143 939.317 170.143C939.696 173.825 940.212 177.472 940.453 181.153C940.625 183.493 941.622 183.631 943.343 182.667C944.065 182.289 944.788 181.876 945.51 181.463C951.945 177.85 958.344 174.169 964.848 170.659C966.327 169.868 966.671 169.145 966.327 167.494C965.467 163.261 964.779 158.961 964.297 154.66C963.953 151.528 964.125 151.46 961.097 152.836C955.385 155.485 949.777 158.376 943.997 160.819C939.592 162.677 939.455 162.401 939.455 167.253C939.455 168.216 939.455 169.18 939.455 170.109L939.42 170.143ZM931.163 206.581C930.99 203.45 929.958 201.247 927.171 200.078C925.279 199.286 923.455 198.323 921.528 197.531C920.978 197.291 920.324 197.359 919.705 197.291C919.911 197.772 920.118 198.254 920.324 198.77C921.872 202.968 926.483 204.034 929.064 207.2C929.442 207.682 930.199 207.819 930.75 208.129C930.922 207.51 931.094 206.89 931.163 206.581Z" fill="#3A352F"/>
</g>
<defs>
<clipPath id="clip0_10_65">
<rect width="1411" height="945" fill="white"/>
</clipPath>
</defs>
</svg>
