<svg width="1411" height="945" viewBox="0 0 1411 945" fill="none" xmlns="http://www.w3.org/2000/svg">
<g clip-path="url(#clip0_10_81)">
<path d="M1314.46 267.827C1314.46 262.862 1314.46 258.298 1314.46 253.582C1313.99 234.184 1313.51 214.804 1313.02 195.44C1313.02 191.666 1312.47 187.939 1312.07 184.215C1311.65 182.507 1310.79 180.941 1309.57 179.676C1308.35 178.411 1306.81 177.491 1305.12 177.014C1304.77 177.014 1304.23 177.014 1304.03 177.014C1301.69 179.596 1298.37 178.159 1295.69 178.954C1291.95 180.11 1288.39 181.781 1285.11 183.919C1277.33 188.983 1269.68 194.245 1262.17 199.707C1251.79 207.204 1241.71 215.147 1231.24 222.496C1220.76 229.844 1209.74 236.6 1199.16 243.898C1194.2 247.225 1190.03 251.496 1185.11 254.823C1176.97 260.384 1168.43 265.395 1160.29 270.906C1151.1 277.063 1142.06 283.468 1132.98 289.724L1123.05 296.479C1115.41 302.424 1107.34 307.802 1098.92 312.567C1093.62 316.054 1088.64 319.992 1084.02 324.335C1077.37 329.598 1070.82 335.108 1063.71 339.725C1052.15 347.223 1040.08 354.074 1028.31 361.273C1025.83 362.812 1022.95 363.904 1022.16 367.281C1022.16 368.075 1020.91 368.772 1020.12 369.269C1014.7 372.961 1010.74 378.416 1008.9 384.707C1006.6 390.84 1006.03 397.489 1007.26 403.923C1007.63 407.668 1007.78 411.434 1007.71 415.197C1008.3 429.207 1009.74 443.167 1012.03 457.003C1012.97 461.968 1012.67 467.281 1013.47 472.296C1016.1 488.83 1014.16 505.513 1016 521.948C1015.94 522.924 1016.08 523.903 1016.4 524.828C1016.69 525.374 1018.33 525.871 1018.58 525.623C1020.72 523.587 1022.65 521.35 1024.59 519.116C1024.77 518.585 1024.77 518.008 1024.59 517.477C1024.34 514.101 1024.34 510.724 1023.79 507.547C1021.72 493.669 1020.56 479.673 1020.32 465.643C1020.34 464.456 1020.21 463.271 1019.92 462.118C1018.35 455.789 1017.67 449.27 1017.89 442.752C1017.19 427.857 1016.25 412.959 1015.35 398.362C1015.35 397.567 1014.81 396.675 1015.05 396.029C1015.65 394.639 1016.5 392.405 1017.39 392.305C1019.57 392.305 1019.23 394.341 1019.28 395.83C1019.72 407.499 1020.17 419.117 1020.67 430.587C1020.97 437.439 1021.46 444.341 1021.86 451.242C1021.78 451.836 1021.78 452.438 1021.86 453.032C1024.49 460.281 1023.45 467.923 1024.14 475.322C1024.56 485.305 1025.59 495.254 1027.22 505.113C1028 509.173 1028.43 513.295 1028.51 517.428C1028.58 519.379 1027.96 521.291 1026.77 522.84C1023.67 525.931 1020.35 528.803 1016.84 531.432C1015.83 532.258 1014.6 532.769 1013.31 532.901C1012.01 533.033 1010.7 532.779 1009.54 532.174C1003.83 529.542 998.076 526.914 992.416 524.183C985.812 521.055 979.258 517.827 972.555 514.699C960.242 508.939 947.73 503.625 935.515 497.369C926.429 492.702 917.889 486.892 909.051 481.678C904.979 479.245 900.808 476.716 896.737 474.531C896.454 474.323 896.229 474.039 896.09 473.717C895.95 473.394 895.9 473.043 895.942 472.693C896.085 472.339 896.314 472.025 896.609 471.782C896.903 471.539 897.254 471.374 897.629 471.302C898.786 471.294 899.927 471.567 900.956 472.097C907.013 475.424 913.17 478.601 919.029 482.027C930.858 489.66 943.298 496.303 956.22 501.888C969.526 507.399 982.485 513.804 995.543 519.911C999.813 521.897 1004.03 524.081 1008.3 526.166C1009.79 526.911 1010.54 526.166 1010.54 524.726C1010.54 523.286 1010.54 521.154 1010.54 519.416C1010.24 513.26 1009.69 507.152 1009.69 501.044C1009.69 492.306 1008.45 483.714 1007.91 475.074C1007.01 461.42 1003.54 448.165 1003.39 434.461C1003.39 426.566 1002.1 418.721 1001.55 410.876C1001.59 408.915 1001.76 406.959 1002.05 405.019C1002.22 403.684 1002.22 402.329 1002.05 400.994C1001.03 395.135 1001.34 389.122 1002.95 383.398C1004.57 377.675 1007.45 372.387 1011.38 367.926C1012.33 366.926 1013.36 366.013 1014.46 365.196C1016.6 363.259 1019.77 363.357 1021.91 361.123C1024.19 358.98 1026.71 357.099 1029.4 355.513C1031.84 353.874 1034.37 352.583 1037.05 350.994C1045.44 346.029 1054.03 341.066 1062.18 335.356C1069.37 330.472 1076.28 325.181 1082.88 319.515C1088.58 314.012 1095.03 309.347 1102.04 305.662C1107.86 302.31 1113.36 298.437 1118.48 294.093C1131.34 285.206 1144.1 276.271 1157.01 267.483C1161.23 264.554 1165.75 262.121 1170.12 259.39C1177.63 254.634 1184.81 249.376 1191.62 243.651C1196.94 239.536 1202.47 235.705 1208.2 232.179C1215.1 227.561 1222.3 223.443 1229.05 218.627C1235.81 213.81 1243.4 207.453 1250.6 201.942C1252.94 200.154 1255.57 198.665 1257.95 196.977C1265.45 192.012 1272.85 186.502 1280.44 181.587C1285.28 177.467 1291.12 174.693 1297.38 173.543C1297.38 173.543 1297.72 172.1 1297.38 172.001C1295.42 170.672 1293.36 169.494 1291.22 168.476C1284.22 165.693 1277.45 162.373 1270.96 158.545C1268.58 157.11 1266.07 155.899 1263.46 154.923C1259.99 153.583 1256.36 152.59 1252.79 151.398C1252.54 155.072 1252.34 158.746 1251.99 162.371C1251.65 165.995 1251.25 168.226 1251.15 171.205C1251.2 171.747 1251.38 172.269 1251.66 172.733C1251.95 173.197 1252.33 173.591 1252.79 173.887C1256.31 175.873 1260.09 177.511 1263.66 179.497C1264.44 179.995 1265 180.782 1265.2 181.684C1265.44 183.161 1265.31 184.673 1264.83 186.091C1264.36 187.509 1263.55 188.788 1262.47 189.825C1257.04 195.413 1249.74 198.806 1241.96 199.357C1238.66 199.671 1235.34 199.671 1232.03 199.357C1230.27 199.166 1228.58 198.59 1227.07 197.67C1226.37 197.282 1225.84 196.657 1225.57 195.91C1225.3 195.163 1225.3 194.347 1225.58 193.602C1226.14 190.461 1227.73 187.593 1230.1 185.456C1231.98 183.718 1234.04 182.187 1236.25 180.888C1237.62 180.31 1238.76 179.307 1239.52 178.028C1240.27 176.749 1240.58 175.264 1240.42 173.79C1240.72 165.101 1241.17 156.412 1241.62 147.723C1242.06 139.034 1242.66 131.189 1243.26 122.897C1243.26 118.974 1243.8 115.099 1244.1 111.226C1244.1 109.637 1243.4 108.993 1241.96 109.291C1234.42 110.731 1227.07 112.42 1219.37 113.611C1215.64 113.968 1211.9 114.101 1208.15 114.009C1207.57 114.122 1207.01 114.286 1206.46 114.504C1206.69 115.024 1206.99 115.509 1207.36 115.944C1209.46 118.57 1210.65 121.816 1210.73 125.181C1210.96 126.491 1211.54 127.712 1212.42 128.711C1213.29 129.71 1214.43 130.446 1215.7 130.839C1222.75 133.868 1229.6 137.344 1236.55 140.77C1237.28 141.062 1237.92 141.523 1238.44 142.113C1238.63 142.429 1238.76 142.778 1238.81 143.145C1238.86 143.513 1238.84 143.889 1238.74 144.246C1238.74 144.643 1237.79 145.141 1237.35 145.041C1235.81 144.776 1234.31 144.324 1232.88 143.698C1226.42 140.818 1220.02 137.74 1213.51 134.81C1211.48 133.867 1210.88 134.464 1210.58 136.847C1210.34 140.181 1209.89 143.497 1209.24 146.777C1208.4 150.154 1207.11 150.997 1203.73 150.947C1201.17 150.861 1198.62 150.631 1196.09 150.254C1191.82 149.807 1187.55 149.113 1183.23 148.765C1179.09 148.349 1175.07 147.114 1171.41 145.138C1168.73 143.847 1165.95 142.756 1163.36 141.366C1161.8 140.546 1160.37 139.509 1159.1 138.287C1158.18 137.176 1157.39 135.962 1156.76 134.665C1155.47 135.608 1154.28 136.649 1152.94 137.443C1148.47 139.976 1143.7 142.112 1139.53 145.041C1121.61 157.653 1103.78 170.51 1085.96 183.221C1082.09 186.001 1078.11 188.633 1074.19 191.265C1058.8 201.394 1043.82 212.054 1029.26 223.243C1021.91 228.903 1013.96 233.819 1006.37 239.132C998.769 244.445 990.429 250.102 982.832 256.011C973.922 262.903 964.262 268.768 954.035 273.491C952.527 274.393 951.097 275.424 949.763 276.57C946.288 279.102 942.913 281.83 939.239 284.114C928.018 291.115 916.647 297.967 905.327 304.819C903.597 306.111 901.69 307.149 899.666 307.898C896.324 309.119 893.324 311.127 890.926 313.755C890.52 314.09 890.195 314.515 889.971 314.991C889.746 315.468 889.629 315.987 889.629 316.514C889.629 317.041 889.746 317.56 889.971 318.036C890.195 318.513 890.52 318.933 890.926 319.268C896.189 323.389 901.403 327.56 907.014 331.283C919.323 339.555 932.235 346.89 945.642 353.229C961.183 360.478 977.071 367.032 992.811 373.933C994.544 374.555 996.208 375.356 997.776 376.319C998.036 376.672 998.202 377.086 998.254 377.521C998.306 377.957 998.244 378.397 998.074 378.802C997.827 379.142 997.497 379.413 997.114 379.587C996.731 379.761 996.309 379.833 995.89 379.796C992.067 378.256 988.293 376.469 984.52 374.83C972.206 369.418 959.695 364.152 947.63 358.64C941.126 355.661 934.67 352.633 928.514 349.108C919.427 343.844 910.59 338.235 901.802 332.525C898.251 330.028 894.836 327.343 891.573 324.481C890.183 323.339 889.14 323.59 888.792 325.378C888.553 326.738 888.436 328.118 888.443 329.499C888.443 345.983 888.443 362.415 888.443 378.85C888.443 387.887 889.835 396.923 890.531 405.96C890.531 407.747 890.531 409.536 890.531 411.274C890.977 420.559 891.325 429.84 891.871 439.125C892.417 448.41 893.26 456.804 894.005 465.692C894.055 466.071 894.055 466.452 894.005 466.831C893.707 468.073 893.708 469.665 892.914 470.41C892.119 471.154 889.885 469.016 889.588 467.03C889.041 463.505 888.741 459.981 888.443 456.406C887.599 446.973 886.854 437.538 886.06 428.104C886.085 427.707 886.085 427.308 886.06 426.911C885.613 414.846 885.664 402.784 884.571 390.768C882.734 371.404 884.223 351.991 883.478 332.627C883.436 326.894 883.97 321.17 885.068 315.544C885.262 313.993 885.92 312.539 886.957 311.369C887.994 310.2 889.361 309.367 890.877 308.989C892.179 308.653 893.407 308.081 894.502 307.301C904.541 299.963 915.077 293.327 926.031 287.441C927.254 286.801 928.416 286.053 929.505 285.205C931.243 283.914 931.243 283.075 929.505 282.33C924.987 280.443 920.369 278.652 915.752 276.914C914.957 276.666 913.419 276.566 913.221 276.914C911.88 279.198 911.036 278.801 909.994 276.914C908.868 274.913 907.126 273.333 905.028 272.4C901.937 271.035 899.293 268.821 897.404 266.019C895.515 263.216 894.459 259.937 894.354 256.559C893.787 251.678 892.925 246.837 891.772 242.061C891.126 238.387 890.728 234.614 889.735 231.039C888.411 225.303 886.236 219.796 883.282 214.704C877.209 204.508 872.595 193.51 869.577 182.033C867.69 175.578 865.555 169.222 863.569 162.817C862.774 160.185 862.03 157.501 861.285 154.87C861.007 153.179 860.574 151.517 859.993 149.905C857.105 142.972 855.299 135.638 854.633 128.158C853.827 125.696 853.79 123.048 854.526 120.565C855.262 118.081 856.735 115.882 858.752 114.256C859.368 113.763 859.906 113.179 860.342 112.521C866.797 102.59 877.422 98.2212 887.352 93.0575C890.182 91.6176 893.012 90.2258 895.942 88.9845C898.871 87.7432 901.504 87.0488 904.284 86.0558L910.886 83.7235C913.319 82.7802 914.015 81.3884 914.064 78.4093C914.132 72.3941 916.412 66.6118 920.469 62.1707C925.062 56.6258 931.313 52.7048 938.303 50.9797C945.293 49.2545 952.651 49.818 959.296 52.5895C962.664 53.8649 965.714 55.8601 968.235 58.4322C970.756 61.0044 972.689 64.0919 973.896 67.4849C975.733 72.4501 977.618 77.4153 979.455 82.3804C979.455 82.728 979.903 83.2231 979.804 83.4714C977.967 87.1953 980.4 90.3272 981.244 93.6539C982.764 99.1844 983.051 104.98 982.088 110.634C981.74 112.571 982.086 113.114 984.122 112.816C986.158 112.518 989.635 112.816 992.416 112.816C995.384 112.857 998.351 112.724 1001.3 112.419C1003.76 112.275 1006.15 111.523 1008.24 110.232C1010.34 108.941 1012.08 107.15 1013.32 105.019C1015.79 100.503 1018.56 96.1611 1021.61 92.015C1023.55 89.0301 1025.82 86.2656 1028.36 83.772C1029.72 82.6804 1030.81 81.2926 1031.55 79.7184C1032.29 78.1443 1032.66 76.4246 1032.63 74.6854C1032.55 72.1019 1033 69.5274 1033.95 67.1261C1034.91 64.7249 1036.35 62.5461 1038.19 60.7306C1040.2 58.8861 1042.59 57.5143 1045.19 56.7109C1048.32 55.7675 1050.16 57.3069 1050.16 60.6336C1050.18 60.8315 1050.18 61.0321 1050.16 61.23C1049.91 62.0519 1049.85 62.9176 1049.98 63.7659C1050.1 64.6142 1050.42 65.4219 1050.89 66.137C1051.36 66.852 1051.99 67.4548 1052.72 67.9019C1053.45 68.3491 1054.27 68.6312 1055.13 68.7262C1057.41 69.964 1059.22 71.9314 1060.25 74.3169C1061.29 76.7024 1061.49 79.37 1060.83 81.8858C1060.46 84.1453 1059.61 86.3004 1058.34 88.2087C1057.08 90.117 1055.42 91.7328 1053.49 92.9556C1051.45 94.1473 1049.86 95.19 1050.16 97.9208C1050.1 98.5009 1049.88 99.0534 1049.52 99.5112C1049.38 99.772 1049.18 99.9887 1048.93 100.142C1048.68 100.294 1048.39 100.379 1048.1 100.379C1047.81 100.379 1047.52 100.294 1047.27 100.142C1047.02 99.9887 1046.82 99.772 1046.68 99.5112C1045 96.83 1043.41 94.0998 1041.72 91.4186C1041.23 90.5541 1040.68 89.7246 1040.08 88.936C1034.67 82.6302 1034.67 83.4254 1029.75 88.4899C1027.73 90.6537 1025.94 93.0154 1024.39 95.54C1020.97 100.505 1017.74 105.817 1014.46 110.882C1013.54 112.156 1012.33 113.191 1010.94 113.907C1007.15 116.069 1002.88 117.264 998.523 117.384H992.663C990.727 117.384 988.74 117.385 986.803 117.733L989.536 122.698C992.364 127.026 993.77 132.127 993.558 137.293C993.508 139.449 992.853 141.551 991.669 143.354C990.94 144.103 990.468 145.059 990.316 146.094C990.165 147.128 990.342 148.188 990.825 149.114C993.58 158.167 996.896 167.037 1000.76 175.676C1001.45 177.376 1002.25 179.034 1003.14 180.641C1005.23 183.418 1006.98 186.433 1008.35 189.626C1009.25 193.151 1012.08 195.388 1012.92 198.814C1014.02 202.223 1015.39 205.543 1016.99 208.745C1018.78 212.965 1020.27 213.312 1023.94 210.233C1027.62 207.155 1030.45 204.526 1033.87 201.646C1035.45 200.179 1037.11 198.803 1038.84 197.525C1040.38 196.383 1039.88 195.835 1038.54 195.091C1028.59 190.049 1020.38 182.145 1014.96 172.398C1009.22 163.14 1005.23 152.907 1003.19 142.21C1002.94 140.075 1002 140.868 1000.95 141.613C1000.5 141.995 999.953 142.24 999.367 142.311C999.088 142.277 998.821 142.181 998.581 142.035C998.341 141.89 998.134 141.699 997.975 141.468C997.916 141.217 997.917 140.957 997.977 140.707C998.038 140.456 998.157 140.224 998.324 140.028C999.456 139.26 1000.72 138.705 1002.05 138.389C1004.36 138.165 1006.69 138.165 1009 138.389C1013.96 138.416 1018.84 137.132 1023.15 134.665C1027.61 132.399 1031.05 128.53 1032.78 123.838C1034.17 120.362 1035.16 116.738 1036.55 113.262C1037.78 109.057 1040.05 105.235 1043.16 102.144C1043.48 102.006 1043.83 101.931 1044.18 101.931C1044.53 101.931 1044.87 102.006 1045.19 102.144C1045.44 102.144 1045.69 103.183 1045.54 103.73C1045.3 104.686 1044.97 105.62 1044.55 106.513C1042.37 111.776 1039.58 116.937 1037.99 122.349C1036.36 127.322 1033.44 131.78 1029.54 135.266C1025.63 138.753 1020.88 141.146 1015.75 142.21C1014.04 142.68 1012.25 142.83 1010.49 142.656C1007.06 142.308 1006.86 142.263 1007.96 145.589C1011.25 157.44 1016.76 168.557 1024.19 178.357C1028.78 184.105 1034.67 188.684 1041.37 191.716C1042.32 191.977 1043.2 192.425 1043.97 193.04C1044.74 193.654 1045.38 194.421 1045.84 195.289C1047.43 199.113 1047.38 199.507 1043.26 200.996C1042.32 201.308 1041.42 201.725 1040.58 202.238C1039.04 203.231 1039.14 203.929 1040.58 205.021C1041.72 205.674 1042.69 206.594 1043.41 207.702C1044 209.142 1044.6 208.99 1045.39 208.245C1056.66 198.315 1070.22 191.019 1082.23 182.28C1095.74 172.648 1109.39 163.163 1122.9 153.58C1128.21 149.807 1133.38 145.838 1138.69 142.064C1140.63 140.674 1142.76 139.629 1144.8 138.437C1149.76 135.458 1154.73 132.527 1159.39 129.399C1160.24 128.853 1160.64 127.516 1161.23 126.572C1163.81 122.6 1166.2 118.377 1169.03 114.702C1169.76 113.403 1170.86 112.341 1172.18 111.638C1173.49 110.935 1174.98 110.621 1176.47 110.731C1176.87 110.817 1177.27 110.822 1177.67 110.741C1178.06 110.66 1178.43 110.495 1178.76 110.261C1179.09 110.027 1179.36 109.73 1179.57 109.383C1179.77 109.037 1179.9 108.648 1179.95 108.249C1180.2 105.667 1181.88 105.219 1183.87 104.573C1188 103.191 1192.33 102.522 1196.68 102.59C1207.34 102.5 1217.97 101.485 1228.46 99.5597L1246.58 96.8298C1247.45 96.5023 1248.41 96.4636 1249.3 96.7231C1250.2 96.9826 1250.99 97.5265 1251.55 98.2699C1251.94 98.8161 1252.89 98.9648 1253.58 99.3124C1259.09 102.043 1261.03 106.063 1257.8 111.177C1254.83 116.52 1253.45 122.604 1253.83 128.706C1253.83 133.671 1252.99 138.636 1252.84 143.601C1252.69 148.566 1253.13 148.564 1257.4 149.905C1262.36 151.069 1267.19 152.732 1271.81 154.87C1279.85 159.587 1288.29 163.265 1296.63 167.336C1302.04 170.146 1307.26 173.294 1312.27 176.767C1313.42 177.572 1314.35 178.656 1314.98 179.914C1315.6 181.172 1315.9 182.564 1315.84 183.967C1316.29 193.898 1316.74 203.828 1317.09 213.758C1317.58 227.959 1317.39 242.258 1318.48 256.408C1319.72 272.247 1319.22 288.089 1319.47 303.878C1319.47 304.474 1319.47 305.067 1319.47 305.662C1319.47 306.258 1319.17 308.048 1317.63 308.247C1316.09 308.445 1315.85 307.105 1315.8 305.963C1315.4 300.998 1314.9 296.526 1314.8 291.809C1314.8 284.064 1314.8 276.318 1314.8 268.622L1314.46 267.827ZM936.458 66.0933C937.032 66.1236 937.605 66.0402 938.146 65.846C942.843 62.1478 948.605 60.0579 954.581 59.8869C955.556 59.7798 956.509 59.5317 957.41 59.145C957.771 59.0096 958.12 58.8406 958.452 58.6456C958.055 58.3477 957.708 57.9 957.311 57.8504C953.419 57.2083 949.428 57.6499 945.768 59.1208C942.108 60.5916 938.923 63.0386 936.558 66.1952C935.098 66.8302 933.779 67.7498 932.679 68.9008C931.579 70.0518 930.721 71.409 930.152 72.8962C930.152 72.8962 930.498 72.8952 930.647 73.1435C932.385 73.5407 934.522 70.9592 936.458 66.0933ZM969.874 146.928C968.249 147.44 966.59 147.84 964.909 148.12C962.972 148.12 962.873 149.409 962.824 150.899C963.276 159.352 964.202 167.773 965.602 176.122C966.049 181.087 967.837 184.612 973.547 184.414C973.944 184.414 974.291 184.712 974.689 184.811C980.349 186.549 980.349 186.547 980.497 180.738C980.132 176.985 980.967 173.213 982.881 169.964C983.278 169.418 984.124 168.774 984.67 168.873C985.036 168.984 985.373 169.178 985.657 169.436C985.94 169.693 986.163 170.007 986.309 170.362C986.741 171.24 986.844 172.245 986.605 173.193C985.52 176.784 984.97 180.517 984.968 184.268C984.745 185.004 984.696 185.779 984.825 186.537C984.954 187.296 985.258 188.016 985.712 188.637C986.11 189.133 986.06 190.027 986.209 190.722C985.365 190.722 984.421 191.463 983.676 191.265C978.071 189.357 972.305 187.961 966.448 187.095C965.452 186.953 964.538 186.459 963.873 185.703C963.209 184.948 962.837 183.98 962.824 182.973C962.824 180.838 962.227 178.703 961.83 176.568C959.78 167.717 958.863 158.643 959.1 149.56C959.224 148.788 959.224 147.996 959.1 147.223C959.019 146.969 958.882 146.737 958.702 146.54C958.522 146.342 958.301 146.187 958.055 146.084C957.785 146.084 957.52 146.147 957.279 146.268C957.038 146.389 956.828 146.561 956.666 146.777C955.424 148.565 954.331 150.401 953.09 152.188C951.402 154.77 949.219 156.26 946.09 154.671C943.906 153.628 943.707 154.672 943.906 156.509C944.254 159.835 944.701 163.162 945.147 166.439C946.235 176.074 949.114 185.424 953.638 194C954.283 195.191 954.978 196.976 956.021 197.224C959.099 198.068 960.638 200.898 963.071 202.189C969.155 205.496 974.682 209.736 979.455 214.752C980.174 215.553 981.124 216.112 982.173 216.353C983.222 216.593 984.319 216.499 985.315 216.091C993.799 213.42 1001.69 209.138 1008.55 203.479C1008.79 203.2 1008.96 202.874 1009.06 202.524C1009.17 202.173 1009.19 201.809 1009.15 201.447C1008.9 200.485 1008.52 199.561 1008 198.713C1004.58 191.861 1000.91 185.11 997.728 178.159C993.528 169.663 990.361 160.695 988.294 151.447C987.5 147.474 986.159 144 981.491 143.107C980.354 142.735 979.319 142.106 978.463 141.269C976.875 140.127 975.235 137.794 973.845 137.943C971.362 137.943 973.298 141.269 972.206 142.908C971.114 144.546 970.667 145.635 969.922 146.976L969.874 146.928ZM892.417 178.755C892.417 180.542 892.417 182.33 892.417 184.118C892.211 186.476 892.552 188.847 893.413 191.052C894.274 193.256 895.633 195.232 897.382 196.826C903.84 202.699 911.653 206.88 920.123 208.992C921.295 209.147 922.455 209.378 923.597 209.685C924.701 210.246 925.75 210.913 926.727 211.673C927.521 210.333 928.415 209.044 929.11 207.654C930.897 203.93 932.685 200.155 934.075 196.332C935.465 192.509 935.167 190.47 931.394 188.583C927.846 186.823 924.18 185.318 920.421 184.069C916.647 182.828 916.597 183.025 917.342 178.556C917.342 177.613 917.342 176.571 917.342 175.628C917.557 169.877 919.049 164.244 921.711 159.142C922.207 158.298 923.549 157.154 924.145 157.352C924.54 157.411 924.917 157.558 925.25 157.779C925.583 158 925.864 158.292 926.072 158.632C926.281 158.973 926.411 159.356 926.455 159.753C926.5 160.15 926.457 160.552 926.329 160.931C926.122 161.495 925.874 162.043 925.585 162.57C924.763 164.039 924.299 165.678 924.23 167.36C924.161 169.042 924.489 170.716 925.187 172.248C925.761 173.499 926.097 174.85 926.179 176.224C926.102 177.709 926.562 179.17 927.474 180.345C928.385 181.521 929.686 182.334 931.144 182.629C936.109 184.317 939.933 187.095 938.89 193.301C938.798 193.584 938.772 193.885 938.815 194.179C938.857 194.473 938.967 194.754 939.135 194.998C939.303 195.243 939.526 195.445 939.785 195.59C940.043 195.735 940.332 195.817 940.628 195.832C943.979 196.693 947.064 198.376 949.603 200.725C952.143 203.074 954.059 206.014 955.177 209.288C955.951 211.292 957.459 212.93 959.396 213.86C962.722 215.499 965.9 217.534 969.326 219.47C969.974 219.805 970.472 220.369 970.717 221.056C972.307 226.165 972.307 231.637 970.717 236.747C969.427 240.172 967.39 243.25 963.219 243.399C957.516 244.068 951.737 243.476 946.289 241.663C944.469 241.023 942.612 240.49 940.728 240.073C940.976 242.009 941.225 243.898 941.424 245.785C941.451 247.375 942 248.911 942.987 250.158C943.974 251.405 945.342 252.293 946.883 252.684C950.26 253.727 953.586 254.968 956.814 256.21C960.041 257.451 963.12 258.497 966.099 259.987C969.078 261.476 969.525 261.923 972.604 259.589C974.044 258.497 974.689 257.848 972.902 256.011C970.484 253.163 968.325 250.106 966.448 246.876C966.326 246.532 966.298 246.162 966.368 245.804C966.438 245.446 966.601 245.112 966.843 244.839C967.169 244.656 967.539 244.563 967.912 244.563C968.286 244.563 968.653 244.656 968.979 244.839C970.208 245.803 971.323 246.903 972.305 248.117C973.447 249.507 974.241 251.097 975.433 252.437C977.618 254.87 978.759 254.971 981.54 252.985C986.207 249.708 991.025 246.53 995.444 243.055C999.857 239.152 1004.89 236.013 1010.34 233.769C1010.76 233.583 1011.13 233.303 1011.42 232.95C1011.71 232.597 1011.92 232.179 1012.03 231.733C1012.14 229.735 1011.63 227.75 1010.55 226.065C1009.47 224.379 1007.88 223.081 1006.02 222.35C1003.69 221.407 1001.06 221.159 998.722 220.067C996.837 219.232 994.783 218.847 992.724 218.942C990.664 219.037 988.655 219.606 986.854 220.61C985.265 221.255 984.57 221.904 985.613 223.592C986.656 225.28 985.612 226.269 984.221 226.865C983.184 227.445 982.284 228.247 981.581 229.207C980.879 230.166 980.391 231.262 980.151 232.426C979.406 234.661 978.711 236.946 977.966 239.181C977.587 240.505 977.071 241.784 976.427 243.001C975.98 243.746 974.59 244.641 974.143 244.393C973.245 243.798 972.565 242.926 972.206 241.91C971.937 241.156 971.937 240.333 972.206 239.578C973.079 234.501 975.008 229.662 977.867 225.376C978.121 225.152 978.324 224.879 978.463 224.571C978.603 224.263 978.674 223.93 978.674 223.592C978.674 223.254 978.603 222.916 978.463 222.607C978.324 222.299 978.121 222.026 977.867 221.803C972.768 215.78 966.794 210.557 960.142 206.311C954.012 202.594 949.214 197.031 946.437 190.421C941.98 179.236 939.396 167.395 938.791 155.369C938.482 151.047 937.716 146.768 936.507 142.607C934.682 138.014 933.804 133.099 933.925 128.158C933.93 127.453 933.784 126.756 933.498 126.112C933.212 125.467 932.793 124.889 932.267 124.419C931.74 123.95 931.121 123.598 930.448 123.387C929.775 123.175 929.064 123.108 928.363 123.193C927.122 123.193 926.229 123.837 925.435 122.397C925.208 122.096 924.917 121.852 924.581 121.68C924.246 121.508 923.875 121.416 923.498 121.408C921.216 121.141 918.904 121.457 916.777 122.325C914.65 123.193 912.778 124.586 911.334 126.373C908.549 130.196 906.01 134.193 903.736 138.34C896.507 150.596 892.605 164.527 892.417 178.755ZM959.645 239.826C965.802 239.528 967.342 237.941 967.59 231.883C967.767 229.197 967.061 226.525 965.583 224.275C964.104 222.026 961.932 220.319 959.396 219.417C957.062 218.325 955.672 218.128 953.984 220.561C952.728 222.498 950.778 223.881 948.534 224.426C946.291 224.971 943.923 224.635 941.918 223.49C939.733 222.596 937.65 221.404 935.515 220.411C933.38 219.418 931.243 215.745 927.52 216.639C927.271 216.639 926.727 216.292 926.627 215.994C925.585 213.362 923.299 213.907 921.214 213.56C918.316 213.076 915.485 212.258 912.774 211.126C909.299 209.735 906.121 207.65 902.844 206.16C893.162 201.94 889.836 193.155 886.906 184.069C886.112 181.636 885.863 179.103 884.969 176.67C878.415 160.401 873.005 143.693 868.781 126.669C868.236 125.242 868.15 123.683 868.534 122.204C869.918 119.442 871.582 116.828 873.499 114.407C877.885 109.518 883.565 105.969 889.883 104.176C895.792 102.041 901.851 100.255 907.909 98.5172C909.746 98.0207 910.539 97.3758 910.539 95.3897C910.539 90.4246 910.539 90.4253 905.574 91.2198C904.793 91.2739 904.023 91.4392 903.29 91.7143C893.36 97.0271 883.43 102.243 873.499 107.754C871.08 109.467 868.909 111.504 867.045 113.81C865.331 115.97 863.508 118.042 861.583 120.017C860.589 120.827 859.835 121.892 859.406 123.101C858.977 124.309 858.888 125.613 859.149 126.868C859.753 132.147 860.666 137.387 861.882 142.559C864.017 150.553 866.846 158.298 869.378 166.143C870.867 171.108 872.208 175.575 873.698 180.292C876.529 189.946 880.2 199.335 884.671 208.347C886.26 211.326 887.799 214.403 892.119 213.807C892.963 213.807 893.955 214.403 894.848 214.849C901.212 218.411 907.854 221.45 914.709 223.936C927.619 228.007 940.083 233.522 952.794 238.288C955.034 238.98 957.324 239.493 959.645 239.826ZM926.875 116.094C926.031 113.413 925.336 111.127 924.492 108.942C924.352 108.709 924.156 108.518 923.922 108.38C923.688 108.241 923.423 108.162 923.151 108.152C921.41 108.511 919.601 108.325 917.967 107.623C916.334 106.922 914.954 105.739 914.016 104.229C912.824 102.839 911.731 103.137 910.34 103.584C904.134 105.521 897.829 107.109 891.772 109.393C885.9 111.263 880.648 114.696 876.578 119.323C875.003 120.66 873.903 122.468 873.446 124.482C872.989 126.497 873.199 128.61 874.045 130.495C874.351 131.422 874.6 132.364 874.789 133.322C878.463 144.742 882.089 156.213 885.813 167.583C885.813 168.229 886.806 168.625 887.352 169.072C887.548 168.54 887.696 167.991 887.798 167.433C890.585 152.859 896.313 139.005 904.631 126.718C906.246 123.746 908.658 121.285 911.596 119.609C914.535 117.934 917.884 117.114 921.265 117.238C922.637 117.314 924.013 117.314 925.386 117.238C925.982 116.99 926.478 116.342 926.875 116.094ZM1199.21 130.296C1201.2 130.296 1203.19 130.296 1205.12 130.296C1207.06 130.296 1207.85 129.647 1207.55 127.959C1207.42 126.427 1206.92 124.948 1206.12 123.639C1202.43 118.266 1196.87 114.463 1190.53 112.967C1183.38 111.328 1172.2 112.618 1168.33 121.505C1166.74 125.08 1165.25 128.704 1163.36 132.279C1163.09 132.699 1162.91 133.177 1162.84 133.676C1162.77 134.175 1162.82 134.681 1162.98 135.16C1163.14 135.638 1163.4 136.074 1163.75 136.435C1164.1 136.796 1164.53 137.073 1165 137.244C1171.62 141.193 1178.83 144.044 1186.35 145.686C1191.32 146.431 1196.28 146.729 1201 147.126C1205.72 147.524 1205.67 147.472 1206.61 142.656C1207.04 140.126 1207.33 137.572 1207.45 135.009C1207.45 134.115 1207.46 133.125 1205.82 133.472C1196.28 135.467 1186.35 134.153 1177.66 129.748C1175.58 128.706 1173.25 128.06 1171.21 126.868C1170.37 126.421 1170.02 125.129 1169.42 124.235C1170.42 123.937 1171.61 123.245 1172.5 123.493C1175.93 124.366 1179.25 125.578 1182.43 127.115C1187.61 129.747 1193.43 130.852 1199.21 130.296ZM891.871 218.127C891.61 219.047 891.491 220.003 891.522 220.959C892.813 225.924 894.402 230.394 895.544 235.161C896.438 238.984 896.836 242.906 897.481 246.779C898.127 250.651 899.17 254.474 899.518 258.396C899.632 260.678 900.397 262.876 901.726 264.734C903.056 266.591 904.892 268.026 907.014 268.87C913.022 271.452 919.079 273.84 925.136 276.124C925.583 276.124 926.229 276.124 926.775 276.124C926.686 275.579 926.537 275.045 926.329 274.533C924.918 272.38 923.705 270.102 922.705 267.73C920.47 260.432 918.583 252.836 916.547 245.537C915.206 240.572 914.064 235.607 912.525 230.642C912.023 229.185 911.021 227.952 909.695 227.165C904.73 224.434 899.518 222.197 894.453 219.417L891.871 218.127ZM957.063 131.586C959.447 131.607 961.806 131.092 963.963 130.078C966.12 129.064 968.02 127.578 969.525 125.729C972.398 122.739 974.642 119.2 976.126 115.328C977.61 111.456 978.304 107.331 978.165 103.187C978.165 100.704 977.767 100.456 975.433 100.903C973.968 101.415 972.41 101.598 970.865 101.446C968.631 100.8 967.589 100.653 967.44 103.434C967.348 104.43 966.958 105.374 966.32 106.144C965.682 106.915 964.828 107.478 963.866 107.754C962.933 107.948 961.968 107.948 961.034 107.754C961.054 106.908 961.206 106.071 961.483 105.272C963.618 101.448 963.567 100.948 960.091 98.813C959.208 98.3868 958.362 97.8896 957.56 97.3244C956.617 96.4803 956.715 95.439 957.907 94.9921C958.861 94.839 959.833 94.839 960.787 94.9921C961.929 94.9921 962.872 94.5969 962.276 93.2563C961.68 91.9157 960.936 91.0198 960.29 91.0695C956.963 91.0695 955.573 92.7576 955.325 96.0346C955.451 97.4054 955.451 98.7853 955.325 100.156C954.282 104.376 953.438 108.745 948.721 110.731C946.775 111.429 944.704 111.704 942.643 111.541C940.582 111.378 938.581 110.781 936.769 109.786C934.957 108.791 933.377 107.422 932.133 105.771C930.89 104.12 930.011 102.221 929.556 100.205C929.308 98.715 929.557 96.6811 928.812 95.7873C928.067 94.8936 925.931 95.1397 924.392 94.8418C923.259 94.4778 922.095 94.2112 920.916 94.0466C919.227 94.0466 916.794 93.502 915.95 94.3957C915.106 95.2895 916.697 97.4252 917.342 98.9148C917.571 99.8829 917.993 100.795 918.583 101.596C919.676 102.589 921.016 103.931 922.307 104.03C923.598 104.13 924.541 102.241 924.69 100.602C924.8 100.028 925.002 99.474 925.287 98.9633C925.883 99.4101 926.774 99.7069 927.122 100.253C927.673 101.283 928.075 102.388 928.315 103.531C928.762 105.666 929.109 107.802 929.556 109.888C931.261 115.946 934.841 121.312 939.782 125.21C944.724 129.108 950.774 131.339 957.063 131.586ZM918.137 229.648C917.839 230.939 917.44 231.633 917.589 232.179C918.582 235.406 919.922 238.484 920.717 241.712C923.398 252.784 924.641 264.256 931.493 273.888C931.096 276.52 933.031 277.513 934.769 278.853C937.797 281.187 938.145 281.383 941.174 279.396C944.203 277.41 944.601 276.669 943.508 272.647C941.82 266.589 940.231 260.479 938.543 254.372C937.55 250.201 937.004 245.932 936.061 241.712C935.763 240.172 935.365 238.041 934.322 237.445C929.407 234.714 923.995 232.379 918.186 229.648H918.137ZM959.943 63.7126C958.058 64.2519 956.131 64.6313 954.183 64.852C948.053 65.3364 942.319 68.0827 938.095 72.5519C935.811 74.4883 936.159 75.8753 938.89 76.6201C941.621 77.3648 943.857 77.4139 944.204 80.9888C944.204 81.4357 945.395 81.8839 945.991 82.3804L952.445 87.3456C953.041 87.7924 953.934 88.4897 954.43 88.2911C956.468 87.624 958.395 86.6527 960.142 85.4109C961.036 84.7654 961.086 83.0253 961.582 81.784C962.234 79.9436 963.082 78.1811 964.113 76.5231C964.629 75.7157 965.388 75.0916 966.281 74.7436C967.173 74.3955 968.153 74.3383 969.079 74.5836C970.022 74.8815 970.915 75.3318 971.808 75.6794C971.808 74.5871 971.461 73.4418 971.164 72.2998C970.882 70.7597 970.416 69.2623 969.774 67.834C968.792 66.485 967.695 65.2189 966.497 64.0568C966.099 65.3478 965.603 66.5904 965.255 67.931C965.188 68.706 965.039 69.4715 964.809 70.2148C963.675 72.2603 962.413 74.2358 961.034 76.1255C960.786 76.473 959.596 76.1255 959 76.1255C958.787 75.9534 958.616 75.7309 958.503 75.4806C958.391 75.2303 958.339 74.9593 958.353 74.6854C958.701 73.5931 959.347 72.5484 959.745 71.4561C960.409 69.6344 960.906 67.7572 961.233 65.846C961.482 65.2006 960.39 64.358 959.943 63.7126ZM1248.91 128.657H1249.16C1249.16 126.473 1249.16 124.285 1249.16 122.15C1249.16 121.803 1248.77 121.507 1248.57 121.21C1248.37 120.912 1248.02 121.856 1248.02 122.204C1248.02 127.169 1247.38 131.534 1246.88 136.25C1245.89 145.237 1245.94 154.327 1245.49 163.413C1245.24 168.081 1244.6 172.797 1244.45 177.514C1244.43 178.989 1244.01 180.433 1243.22 181.679C1242.43 182.925 1241.31 183.924 1239.98 184.564C1237.16 186.365 1234.55 188.461 1232.18 190.819C1231.37 191.843 1231 193.147 1231.14 194.446C1231.14 195.041 1233.03 195.636 1234.12 195.735C1239.23 196.275 1244.41 195.753 1249.31 194.198C1253.57 193.172 1257.39 190.823 1260.24 187.492C1260.54 187.241 1260.78 186.927 1260.95 186.571C1261.12 186.215 1261.2 185.825 1261.2 185.432C1261.2 185.039 1261.12 184.653 1260.95 184.297C1260.78 183.941 1260.54 183.623 1260.24 183.371C1259.14 182.105 1257.8 181.073 1256.3 180.331C1254.8 179.589 1253.17 179.152 1251.5 179.051C1247.28 179.051 1246.98 178.455 1247.23 174.086C1247.23 171.305 1247.87 168.573 1247.97 165.843C1248.17 153.43 1248.52 140.921 1248.91 128.657ZM1017.54 229.051C1018.33 228.456 1018.98 228.059 1019.57 227.563L1037.85 212.667C1038.69 211.972 1039.93 211.526 1039.34 209.938C1038.74 208.349 1037.25 207.256 1035.66 207.901C1033.9 208.672 1032.3 209.764 1030.94 211.126C1028.96 213.341 1026.48 215.045 1023.7 216.091C1018.73 217.729 1016.55 217.185 1013.77 212.716C1012.77 211.077 1012.13 209.143 1011.18 207.455C1010.94 207.238 1010.64 207.088 1010.32 207.019C1009.99 206.949 1009.66 206.962 1009.35 207.057C1006.32 209.54 1003.34 212.023 1000.41 214.704C1000.32 214.899 1000.27 215.11 1000.27 215.325C1000.27 215.539 1000.32 215.75 1000.41 215.945C1001.7 216.342 1003.04 216.69 1004.38 216.988C1010.59 218.179 1015.8 220.461 1016.35 227.859C1016.5 228.157 1017.14 228.555 1017.49 229.051H1017.54ZM1242.41 100.651C1241.81 100.651 1240.42 100.652 1239.08 101C1232.63 102.042 1226.27 103.382 1219.82 104.127C1210.98 105.12 1202.14 105.665 1193.31 106.46C1192.61 106.594 1191.94 106.831 1191.32 107.158C1191.76 107.508 1192.25 107.807 1192.76 108.05C1196.03 108.783 1199.15 110.113 1201.94 111.973C1202.59 112.519 1204.18 111.973 1205.27 111.973C1207.95 111.426 1210.58 110.482 1213.27 110.135C1217.78 109.539 1222.35 109.54 1226.77 108.845C1232.83 107.902 1238.74 106.509 1244.74 105.417C1245.09 105.407 1245.43 105.32 1245.73 105.16C1246.04 105 1246.3 104.773 1246.51 104.496C1246.71 104.219 1246.86 103.899 1246.92 103.56C1246.98 103.221 1246.97 102.87 1246.88 102.537C1246.88 101.047 1245.74 100.601 1244.4 100.651H1242.41ZM1056.57 77.7644C1056.57 74.5867 1054.83 72.2511 1052.54 72.0525C1050.26 71.8539 1048.57 73.9383 1048.02 77.2649C1048.02 77.8111 1048.02 78.4595 1048.02 79.0057C1047.78 80.3959 1046.68 80.5953 1045.94 79.8009C1044.84 78.7218 1044.05 77.3668 1043.66 75.8782C1043.56 73.7423 1043.76 71.6019 1044.25 69.5214C1044.65 67.4361 1045.49 65.4003 1045.99 63.315C1045.99 62.8681 1045.69 62.2733 1045.39 61.8264C1045.1 61.3795 1044.65 61.8231 1044.3 62.1707C1043.43 62.6128 1042.62 63.1858 1041.92 63.8629C1038.66 68.1574 1036.84 73.369 1036.7 78.7584C1036.73 79.1275 1036.85 79.4825 1037.04 79.8009C1037.23 80.1192 1037.49 80.3884 1037.8 80.5912C1041.47 82.5245 1044.63 85.3017 1047.03 88.6887C1047.53 89.2349 1048.97 89.68 1049.36 89.3821C1051.47 88.2333 1053.24 86.56 1054.5 84.5236C1055.76 82.4872 1056.47 80.1582 1056.57 77.7644ZM951.749 214.704C951.806 213.977 951.806 213.244 951.749 212.517C950.056 207.612 946.749 203.43 942.367 200.652C940.529 199.411 938.643 200.252 937.401 202.238C936.706 203.429 936.16 204.72 935.564 205.962C932.038 213.111 932.039 213.115 938.941 217.186C940.828 218.279 942.862 219.074 944.798 220.067C945.216 220.309 945.679 220.464 946.158 220.522C946.638 220.581 947.125 220.541 947.589 220.406C948.053 220.272 948.485 220.043 948.859 219.737C949.233 219.431 949.54 219.055 949.763 218.627C950.571 217.398 951.237 216.082 951.749 214.704ZM918.731 77.8613C918.384 80.8901 918.732 82.0808 920.469 83.0738C922.471 84.266 924.237 85.8137 925.682 87.6414C927.916 90.6205 929.109 90.9184 930.897 87.6414C932.684 84.3644 933.875 82.9285 937.152 83.1271C937.946 83.1271 938.842 83.5212 938.842 82.4289C938.844 82.0694 938.758 81.7159 938.594 81.3961C938.43 81.0763 938.192 80.7989 937.898 80.5912C935.416 79.3499 932.932 78.4601 930.4 77.1195C929.454 76.7658 928.612 76.1817 927.946 75.4224C927.281 74.6631 926.815 73.7491 926.589 72.7653C926.362 71.7815 926.383 70.7569 926.649 69.7833C926.916 68.8096 927.42 67.9204 928.116 67.1892C929.506 65.2783 931.051 63.4844 932.734 61.8264C934.522 60.0389 936.508 58.4997 938.444 56.8612C935.167 56.5137 933.081 58.9926 930.797 60.5318C927.992 62.4116 925.567 64.8081 923.648 67.5868C921.731 70.8725 920.086 74.3067 918.731 77.8613ZM934.223 95.0891C933.23 102.04 937.45 106.165 944.699 105.718C945.885 105.715 947.042 105.345 948.011 104.661C948.979 103.976 949.714 103.009 950.113 101.892C950.79 100.568 951.186 99.1188 951.279 97.6347C951.371 96.1506 951.156 94.6636 950.648 93.266C950.141 91.8684 949.352 90.5916 948.328 89.513C947.305 88.4343 946.068 87.5768 944.699 86.9965C943.507 86.4503 941.771 86.9965 940.282 86.9965C935.813 87.2944 934.721 88.1385 934.274 91.9616C934.175 93.0014 934.157 94.0467 934.223 95.0891ZM988.84 135.31C988.22 129.35 985.616 123.769 981.443 119.469C981.443 119.469 980.497 119.472 980.299 119.769C978.213 122.848 976.227 125.973 974.092 129.002C973.248 130.193 973.149 131.339 974.092 132.134C977.617 134.914 981.144 137.744 984.917 140.226C986.754 141.468 988.195 140.227 988.593 138.142C988.94 137.347 988.938 136.551 988.988 135.31H988.84ZM954.084 138.088C954.332 136.45 954.083 135.605 952.047 135.208C949.189 134.584 946.383 133.738 943.656 132.677C941.707 131.864 939.818 130.917 937.998 129.845C936.806 132.576 938.543 134.814 939.288 137.148C940.282 140.105 941.477 142.993 942.864 145.788C943.473 147.013 944.222 148.16 945.096 149.211C945.742 150.006 946.636 150.602 947.579 149.609C950.967 146.576 953.297 142.538 954.232 138.088H954.084ZM948.672 272.545L949.266 272.249L962.176 265.296C963.716 264.452 963.517 263.36 962.176 262.814C956.466 260.679 950.808 258.642 945.048 256.656C944.8 256.656 943.706 257.599 943.756 257.897C944.947 262.415 946.19 266.936 947.531 271.454C947.977 271.901 948.423 272.198 948.82 272.545H948.672ZM969.973 78.2105C968.773 78.7626 967.667 79.4971 966.695 80.3924C965.358 83.0122 965.053 86.0399 965.844 88.873C966.635 91.706 968.464 94.1377 970.965 95.6855C972.463 96.0084 974.027 95.7445 975.334 94.9436C975.614 94.7415 975.852 94.4861 976.034 94.1921C976.216 93.898 976.338 93.5684 976.393 93.2272C976.448 92.886 976.436 92.5405 976.357 92.2041C976.277 91.8677 976.132 91.5486 975.93 91.2683C975.483 90.3745 975.336 89.3836 974.938 88.4899C974.6 87.8415 974.199 87.2259 973.746 86.6522C973.249 87.1984 972.752 87.7923 972.305 88.3881C971.163 90.0266 970.221 90.0762 969.576 88.3881C969.096 86.9294 968.845 85.4045 968.831 83.869C969.026 83.5862 969.283 83.3541 969.585 83.1902C969.887 83.0263 970.224 82.9379 970.567 82.9283C971.461 83.1766 972.157 84.0197 973.001 84.4169C973.845 84.8141 974.192 84.4179 974.291 84.1696C974.986 82.9283 971.71 78.3098 970.121 78.2105H969.973ZM965.255 135.111C961.234 135.111 959.049 136.55 959.148 138.883C959.248 141.217 961.631 143.851 963.17 144.149C964.71 144.447 968.432 140.818 968.383 138.534C968.424 138.111 968.379 137.688 968.249 137.283C968.12 136.879 967.91 136.503 967.631 136.183C967.352 135.862 967.01 135.601 966.628 135.416C966.245 135.232 965.828 135.129 965.403 135.111H965.255ZM1248.67 109.092C1248.72 110.425 1248.87 111.752 1249.11 113.064C1249.11 113.312 1250.46 113.61 1250.5 113.461C1252.04 111.061 1253.4 108.556 1254.58 105.965C1254.82 105.369 1253.68 103.929 1252.89 103.284C1252.09 102.638 1251 103.729 1250.65 104.375C1249.95 105.91 1249.34 107.486 1248.81 109.092H1248.67ZM916.001 89.8767L920.222 88.2378C919.123 87.4899 917.94 86.8727 916.697 86.4001C916.35 86.4001 915.406 87.5463 915.058 88.2911C914.711 89.0359 915.952 89.3305 916.3 89.8767H916.001Z" fill="#3A352F"/>
<path d="M1073.55 278.605L1072.06 250.201C1071.96 249.636 1071.79 249.085 1071.56 248.562C1071.05 248.852 1070.57 249.185 1070.12 249.556C1060.62 257.879 1050.49 265.466 1039.83 272.248C1038.29 273.819 1036.23 274.757 1034.03 274.886C1031.84 275.014 1029.67 274.322 1027.96 272.941C1022.65 269.163 1016.94 265.967 1010.94 263.409L1007.31 261.372C1002.89 258.741 1002.64 256.408 1006.61 253.478C1010.59 250.549 1013.86 248.015 1017.64 245.483C1023.2 241.759 1029.01 238.336 1034.57 234.612C1041.27 230.044 1047.83 225.325 1054.43 220.608L1081.79 200.748C1084.52 198.762 1087.35 196.926 1090.13 195.089C1091.83 193.733 1093.96 193.018 1096.14 193.072C1098.32 193.127 1100.41 193.945 1102.04 195.385C1103.07 195.966 1104.05 196.632 1104.97 197.373C1106.66 199.161 1108.05 198.761 1109.94 197.669C1122.15 191.199 1133.87 183.833 1144.99 175.626C1150.51 171.505 1156.61 168.177 1162.42 164.503C1164.95 162.914 1167.39 161.176 1169.87 159.538C1171.36 158.625 1172.94 157.874 1174.59 157.303C1178.36 156.061 1179.55 156.608 1179.85 160.58C1180.55 166.638 1180.94 172.745 1181.49 178.802C1181.78 181.93 1182.08 185.057 1182.58 188.185C1183.73 200.778 1184.16 213.431 1183.87 226.073C1183.89 227.359 1183.56 228.624 1182.9 229.729C1182.24 230.835 1181.29 231.736 1180.15 232.328C1172.99 237.612 1165.34 242.2 1157.31 246.031C1153.34 247.769 1149.71 250.201 1145.89 252.237C1144.5 252.982 1144.55 253.728 1145.14 255.069C1146.22 257.593 1147.15 260.177 1147.92 262.812C1148.3 263.673 1148.37 264.637 1148.11 265.542C1147.86 266.447 1147.3 267.238 1146.53 267.778C1141.87 271.055 1137.25 274.381 1132.53 277.708C1131.5 278.313 1130.4 278.782 1129.25 279.099C1124.88 280.49 1123.15 279.097 1123 274.43C1123 272.643 1123 270.855 1123 269.067C1123 267.28 1122.1 266.536 1120.52 267.778C1114.75 271.946 1109.23 276.438 1103.98 281.233C1096.54 287.71 1088.33 293.262 1079.55 297.767C1078.53 298.222 1077.57 298.825 1076.72 299.557C1076.18 300.202 1076.23 301.739 1074.89 301.094C1074.47 300.846 1074.11 300.517 1073.83 300.124C1073.55 299.731 1073.35 299.283 1073.25 298.81C1073 296.452 1072.9 294.082 1072.95 291.711C1072.95 287.342 1072.95 282.973 1072.95 278.653L1073.55 278.605ZM1179.65 211.178C1178.56 197.126 1177.61 183.916 1176.47 170.758C1176.07 168.135 1175.47 165.548 1174.69 163.015L1168.13 166.937C1165.4 168.526 1162.52 169.864 1159.89 171.602C1148.62 179.198 1137.55 187.092 1126.08 194.391C1119.26 198.776 1112.1 202.614 1104.68 205.863C1098.11 208.588 1092.17 212.647 1087.25 217.782C1085.31 220.001 1083.07 221.936 1080.6 223.537C1079.24 224.286 1078.1 225.375 1077.29 226.699C1076.48 228.022 1076.03 229.536 1075.98 231.087C1075.9 232.459 1075.9 233.836 1075.98 235.208C1075.98 240.769 1076.57 246.28 1076.67 251.791C1076.67 265.197 1078.76 278.553 1076.67 291.958C1076.65 292.355 1076.65 292.754 1076.67 293.151C1076.67 294.591 1076.97 295.433 1078.66 294.291C1086.75 288.63 1095.84 284.364 1102.44 276.767C1102.94 276.221 1103.68 275.82 1104.28 275.274C1112.27 267.912 1121.17 261.589 1130.74 256.456C1140.28 251.49 1149.56 245.632 1159.24 240.716C1165.5 237.343 1171.53 233.581 1177.32 229.448C1178.16 228.948 1178.84 228.208 1179.26 227.324C1179.68 226.441 1179.84 225.453 1179.7 224.483C1179.55 219.766 1179.65 215.05 1179.65 211.178ZM1033.43 271.055C1034.98 270.283 1036.49 269.423 1037.95 268.476C1043.75 264.404 1049.56 260.282 1055.27 256.111C1058.15 254.026 1060.83 251.739 1063.71 249.604C1065.42 248.017 1067.41 246.755 1069.57 245.88C1071.76 245.334 1071.96 244.344 1071.96 242.656C1071.96 237.691 1071.96 232.327 1071.96 227.213C1071.75 225.931 1071.97 224.615 1072.6 223.479C1073.24 222.343 1074.23 221.456 1075.43 220.958C1078.64 219.38 1081.44 217.084 1083.62 214.252C1087.7 209.434 1092.79 205.573 1098.52 202.935C1099.07 202.75 1099.59 202.482 1100.06 202.139C1100.15 201.971 1100.19 201.782 1100.19 201.592C1100.19 201.402 1100.15 201.217 1100.06 201.048C1099.3 199.84 1098.16 198.924 1096.81 198.454C1095.47 197.985 1094 197.988 1092.66 198.464C1085.91 202.883 1079.11 207.301 1072.5 211.968C1066.84 215.89 1061.48 220.262 1055.87 224.284C1048.77 229.249 1041.57 234.214 1034.42 239.179C1026.44 244.641 1018.46 250.117 1010.49 255.612C1008.5 256.953 1008.65 257.65 1010.88 258.841C1011.58 259.238 1012.32 259.536 1013.02 259.884C1019.35 262.178 1025.24 265.536 1030.45 269.814C1031.39 270.339 1032.39 270.755 1033.43 271.055ZM1126.52 265.596C1127.02 268.277 1127.47 270.16 1127.72 272.146C1127.96 274.132 1128.91 273.887 1130.05 273.043C1133.28 270.759 1136.35 268.076 1139.63 266.09C1142.91 264.104 1143.31 263.705 1142.31 259.336C1142.15 258.549 1142.03 257.756 1141.96 256.955C1141.96 255.763 1141.22 255.169 1140.03 255.864C1136.11 258.148 1132.13 260.378 1128.31 262.861C1127.37 263.457 1126.72 265.049 1126.72 265.596H1126.52Z" fill="#3A352F"/>
<path d="M1018.53 391.113C1018.14 390.219 1017.49 389.375 1017.69 389.028C1018.23 387.788 1019.09 386.711 1020.17 385.9C1026.17 382.037 1031.66 377.434 1036.51 372.197C1037.61 371.068 1038.82 370.052 1040.13 369.167C1050.91 361.421 1061.53 353.577 1072.5 346.179C1078.04 342.412 1083.27 338.21 1088.14 333.616C1092.26 330.234 1096.64 327.2 1101.25 324.534C1108.75 319.569 1116.15 314.256 1124.09 309.638C1133.58 304.326 1142.56 298.166 1151.7 292.357C1166.59 282.973 1181.49 273.738 1197.08 265.446C1208.4 259.389 1219.07 252.189 1230.1 245.586C1240.28 239.479 1250.51 233.569 1260.63 227.413C1270.19 222.174 1278.48 214.903 1284.91 206.112C1285.18 205.579 1285.55 205.104 1286.01 204.72C1287.45 203.876 1288.94 203.182 1290.43 202.388C1291.62 204.324 1290.42 205.615 1289.33 207.353C1282.12 217.302 1272.81 225.555 1262.07 231.534C1257.11 234.662 1252.14 237.888 1246.93 240.916C1239.13 245.534 1231.19 249.953 1223.4 254.571C1215.6 259.188 1207.21 264.501 1199.02 269.466C1195.64 271.502 1192.06 273.14 1188.59 275.076C1187.84 275.523 1187 276.319 1188.59 277.064C1208.1 286.2 1227.81 294.987 1247.03 304.62C1260.88 311.571 1275.48 316.338 1289.78 321.998C1290.93 322.309 1292.03 322.778 1293.06 323.389C1293.65 323.886 1294.3 325.279 1294 325.775C1293.74 326.263 1293.38 326.689 1292.94 327.031C1292.5 327.373 1292 327.619 1291.47 327.758C1290.43 327.758 1289.23 327.113 1288.14 326.716C1277.81 322.843 1267.29 319.416 1257.16 314.948C1244.35 309.287 1231.89 302.785 1219.27 296.678C1207.9 291.117 1196.48 285.702 1185.16 280.041C1184.22 279.508 1183.15 279.268 1182.07 279.348C1180.99 279.427 1179.96 279.826 1179.1 280.492C1170.07 286.153 1160.98 291.763 1151.95 297.473C1147.98 300.401 1143.8 303.023 1139.43 305.318C1132.88 308.365 1126.58 311.948 1120.62 316.039C1105.45 325.334 1091.1 335.9 1077.72 347.619C1074.56 350.349 1071.25 352.887 1067.79 355.217C1059.69 360.877 1051.45 366.387 1043.36 372.047C1041.27 373.487 1039.54 375.423 1037.55 377.012C1032.19 381.332 1026.73 385.601 1021.31 389.871C1020.42 390.357 1019.49 390.772 1018.53 391.113Z" fill="#3A352F"/>
<path d="M1046.73 294.84C1047.18 299.358 1047.68 303.825 1048.02 308.343C1048.02 310.081 1048.97 310.68 1050.46 311.127C1052.73 311.827 1054.93 312.704 1057.06 313.755C1057.83 313.997 1058.52 314.445 1059.05 315.049C1059.58 315.654 1059.93 316.391 1060.08 317.183C1060.22 317.975 1060.15 318.792 1059.86 319.544C1059.57 320.296 1059.09 320.959 1058.45 321.455C1056.38 323.83 1053.93 325.839 1051.2 327.409C1046.13 330.405 1041.25 333.722 1036.6 337.339C1031.19 341.361 1025.98 345.583 1020.72 349.704C1020.22 350.101 1019.77 350.696 1019.28 350.746C1018.78 350.796 1017.09 350.748 1016.69 350.45C1016.47 350.047 1016.36 349.592 1016.36 349.131C1016.36 348.671 1016.47 348.221 1016.69 347.817C1020.37 344.3 1024.23 340.985 1028.26 337.887C1034.57 332.922 1041.12 328.8 1047.63 324.281C1049.71 322.842 1051.9 321.602 1053.88 320.063C1055.87 318.524 1054.68 318.074 1053.34 317.479C1052 316.883 1050.11 315.989 1048.37 315.394C1033.82 309.739 1019.61 303.241 1005.82 295.931C999.812 292.902 993.607 290.321 987.549 287.392C986.875 287.019 986.104 286.855 985.336 286.917C984.568 286.978 983.835 287.265 983.229 287.741C979.098 290.815 974.804 293.664 970.368 296.28C962.193 301.463 954.47 307.328 947.28 313.808C944.996 315.645 945.244 316.588 948.223 317.779C953.735 319.914 959.395 321.753 964.758 324.136C972.503 327.612 980.598 330.192 988.095 334.314C995.592 338.435 1002.74 341.066 1010.14 344.244C1011.25 344.653 1012.29 345.238 1013.22 345.98C1013.81 346.476 1014.46 347.816 1014.16 348.312C1013.89 348.704 1013.54 349.03 1013.13 349.262C1012.71 349.495 1012.25 349.63 1011.78 349.655C1009.7 349.029 1007.67 348.23 1005.72 347.27C999.812 344.588 993.904 341.76 987.996 339.128C978.065 334.61 967.788 330.144 957.659 325.775C952.197 323.441 946.685 321.353 941.173 319.069C938.095 317.778 937.549 315.842 940.131 314.104C949.118 307.401 956.565 298.663 966.743 293.399C971.384 290.777 975.862 287.876 980.15 284.71C981.328 283.648 982.81 282.983 984.386 282.805C985.962 282.627 987.553 282.944 988.939 283.716C991.322 285.107 993.904 284.063 996.287 283.964C1002.4 283.691 1008.52 283.844 1014.61 284.415C1023.05 285.159 1031.49 286.248 1039.88 287.242C1040.45 287.363 1041.05 287.265 1041.55 286.96C1042.05 286.655 1042.41 286.167 1042.56 285.603C1042.86 284.907 1044 284.014 1044.55 284.163C1045 284.311 1045.41 284.563 1045.75 284.9C1046.08 285.236 1046.34 285.65 1046.48 286.102C1046.72 288.262 1046.84 290.431 1046.83 292.604V294.99L1046.73 294.84ZM1005.62 287.392C1004.78 287.392 1004.33 287.392 1003.98 287.392L1001.45 287.886C1002.06 288.378 1002.71 288.828 1003.39 289.23C1010.74 293.053 1018.28 296.926 1025.48 300.6C1030.45 303.132 1035.86 305.566 1041.02 307.8C1042.76 308.595 1043.65 307.8 1043.46 306.161C1043.16 303.232 1042.71 300.3 1042.46 297.371C1042.46 295.385 1042.46 293.401 1042.46 291.465C1042.46 291.068 1041.62 290.52 1041.12 290.471C1034.67 290.024 1028.16 289.727 1021.71 289.181C1016.1 288.833 1010.64 288.085 1005.62 287.489V287.392Z" fill="#3A352F"/>
<path d="M1297.77 278.06C1297.77 268.725 1297.77 259.44 1297.77 250.155C1297.77 240.87 1297.28 230.793 1296.53 221.111C1296.09 215.451 1294.69 209.888 1293.75 204.227C1293.51 203.288 1293.4 202.317 1293.45 201.347C1293.45 200.702 1294.3 200.105 1294.89 199.708C1295.49 199.311 1295.94 200.154 1296.23 200.6C1296.72 201.241 1297.04 201.993 1297.18 202.787C1298.65 209.112 1299.68 215.534 1300.26 222.003C1300.26 230.096 1301.25 238.188 1301.5 246.281C1301.99 265.645 1302.34 285.01 1302.74 304.374C1302.89 306.739 1302.89 309.108 1302.74 311.473C1302.51 312.984 1301.95 314.429 1301.1 315.696C1300.7 316.342 1299.36 317.234 1299.11 315.347C1298.62 312.641 1298.32 309.906 1298.22 307.157C1298.22 297.475 1298.22 287.742 1298.22 278.06H1297.77Z" fill="#3A352F"/>
<path d="M1288.49 330.09L1289.08 329.547C1289.08 329.547 1289.08 329.793 1288.83 329.843H1288.29L1288.49 330.09Z" fill="#3A352F"/>
<path d="M1288.29 329.945L1287.74 330.74C1287.74 330.74 1287.74 330.441 1287.74 330.391L1288.29 330.09V329.945Z" fill="#3A352F"/>
<path d="M1285.41 332.127L1285.26 331.78L1285.66 331.83L1285.41 332.127Z" fill="#3A352F"/>
<path d="M1282.83 333.071L1283.22 332.922L1283.17 333.269L1282.83 333.071Z" fill="#3A352F"/>
<path d="M969.724 147.078C971.561 147.078 973.298 147.077 974.192 148.964L980.151 161.823C980.467 162.544 980.636 163.32 980.648 164.107C980.623 164.389 980.54 164.664 980.403 164.912C980.266 165.16 980.078 165.375 979.853 165.547C979.323 165.736 978.744 165.736 978.214 165.547C977.845 165.399 977.534 165.136 977.322 164.8C973.674 159.47 971.141 153.46 969.874 147.126L969.724 147.078Z" fill="#3A352F"/>
<path d="M953.488 126.667C950.856 126.667 948.027 126.669 946.636 124.088C945.246 121.506 946.637 118.724 948.474 116.49C949.561 115.09 950.89 113.897 952.397 112.964C957.704 109.895 963.805 108.476 969.923 108.891C970.715 108.849 971.493 109.115 972.095 109.633C972.696 110.151 973.074 110.885 973.149 111.675C973.583 113.926 973.288 116.256 972.306 118.327C971.324 120.399 969.707 122.101 967.69 123.191C963.212 125.218 958.395 126.397 953.488 126.667ZM955.573 122.497C959.296 121.405 962.922 120.513 966.398 119.321C967.384 118.855 968.157 118.031 968.562 117.018C968.968 116.005 968.975 114.875 968.582 113.857C968.582 113.31 967.341 112.568 966.895 112.717C962.575 114.008 958.255 115.296 954.084 116.984C952.892 117.481 952.296 119.321 951.403 120.562L955.573 122.497Z" fill="#3A352F"/>
<path d="M944.352 94.7446L940.132 99.1618C939.436 97.9205 938.245 96.6804 938.245 95.3895C938.245 94.0985 938.891 92.0126 940.927 92.3105C941.969 92.4594 943.012 93.6522 944.352 94.7446Z" fill="#3A352F"/>
<path d="M1416.03 456.856C1416.03 453.21 1416.03 449.564 1416.03 446.133C1416.09 444.109 1415.63 442.104 1414.69 440.311C1413.75 438.517 1412.37 437 1410.67 435.897C1408.14 434.265 1405.73 432.474 1403.43 430.535C1401.61 428.82 1400.75 429.461 1399.36 430.855C1397.96 432.249 1396.41 433.266 1394.96 434.499C1393.62 435.897 1391.79 436.728 1389.86 436.818C1387.92 436.908 1386.03 436.248 1384.56 434.98C1383.65 434.283 1382.68 433.586 1381.93 434.98C1381.37 436.528 1380.35 437.872 1379.01 438.829C1377.67 439.786 1376.07 440.311 1374.43 440.342C1370.84 440.218 1367.34 439.266 1364.18 437.557C1361.41 435.876 1359.11 433.516 1357.5 430.703C1355.88 427.889 1355.01 424.715 1354.96 421.472C1354.96 418.684 1354.96 416.111 1354.96 413.163C1355.29 410.831 1354.84 408.458 1353.68 406.408C1353.14 405.483 1352.81 404.451 1352.71 403.387C1352.61 402.323 1352.74 401.25 1353.09 400.24C1353.63 398.646 1353.76 396.941 1353.47 395.282C1353.18 393.624 1352.48 392.063 1351.42 390.748C1347.89 386.03 1350.46 376.326 1355.71 372.412C1359.94 368.718 1365.44 366.797 1371.05 367.05C1372.5 367.05 1374 367.05 1375.5 367.05C1377 367.05 1377.75 366.248 1377.75 364.746C1377.75 363.245 1377.75 362.174 1377.75 360.888C1377.75 358.582 1379.2 358.046 1381.13 358.207C1381.99 358.227 1382.84 358.389 1383.65 358.688C1391.54 361.612 1398.09 367.337 1402.04 374.773C1403.54 378.151 1403.7 381.958 1402.47 381.69C1400.05 381.1 1399.89 378.635 1399.09 376.705C1398.64 375.286 1397.84 373.997 1396.78 372.951C1392.6 369.359 1388.26 365.924 1383.86 362.6C1382.57 361.581 1381.34 362.602 1381.5 364.05C1381.66 365.498 1382.52 368.127 1382.84 370.218C1382.99 371.037 1382.82 371.88 1382.36 372.574C1382.04 372.896 1380.86 372.574 1380.22 372.574C1376.69 370.85 1372.75 370.15 1368.85 370.548C1364.95 370.946 1361.23 372.425 1358.13 374.825C1357.2 375.643 1356.51 376.702 1356.14 377.883C1355.45 379.599 1355.02 381.475 1354.37 383.245C1353.96 383.999 1353.73 384.84 1353.71 385.7C1353.69 386.561 1353.88 387.414 1354.25 388.187C1354.63 388.96 1355.19 389.629 1355.89 390.14C1356.58 390.652 1357.38 390.99 1358.23 391.125C1358.85 391.26 1359.49 391.26 1360.11 391.125C1364.98 390.928 1369.8 392.079 1374.05 394.45C1376.35 395.575 1379.68 395.095 1379.41 399.277C1379.41 399.92 1381.39 400.669 1382.41 401.366C1383.37 401.747 1384.23 402.327 1384.95 403.068C1385.66 403.809 1386.21 404.691 1386.55 405.66C1386.9 406.629 1387.03 407.661 1386.95 408.686C1386.86 409.711 1386.56 410.709 1386.06 411.608C1384.69 415.007 1384.08 418.669 1384.29 422.331C1384.18 422.969 1384.18 423.619 1384.29 424.257C1385.42 426.724 1386.65 429.137 1387.83 431.603C1389.76 430.477 1391.74 429.459 1393.57 428.226C1394.69 427.603 1395.64 426.723 1396.35 425.655C1396.65 424.912 1397.11 424.238 1397.68 423.676C1398.25 423.114 1398.93 422.675 1399.68 422.388C1400.43 422.101 1401.23 421.97 1402.03 422.006C1402.84 422.042 1403.62 422.245 1404.34 422.598C1404.92 422.601 1405.49 422.455 1406 422.174C1406.51 421.892 1406.94 421.484 1407.24 420.99C1408.17 418.202 1408.9 415.355 1409.44 412.466C1410.08 409.035 1409.44 405.335 1412.65 402.654C1413.3 402.118 1413.35 400.725 1413.35 399.706C1413.35 397.562 1413.35 395.415 1413.35 393.324C1413.79 391.456 1413.55 389.493 1412.68 387.784C1411.8 386.076 1410.35 384.731 1408.58 383.994L1408.04 383.674C1407.72 382.763 1406.97 381.529 1407.29 380.993C1407.61 380.632 1408.01 380.355 1408.46 380.187C1408.91 380.019 1409.39 379.96 1409.87 380.025C1412.13 380.556 1414.13 381.884 1415.49 383.763C1416.86 385.642 1417.51 387.95 1417.32 390.266C1417.28 392.186 1417.41 394.106 1417.69 396.005C1418.3 397.913 1418.44 399.944 1418.08 401.916C1417.73 403.888 1416.89 405.743 1415.66 407.319C1413.78 409.625 1414.1 413.75 1413.51 417.074C1413.51 418.092 1413.78 419.433 1413.51 420.184C1410.03 425.545 1412.71 428.229 1416.62 431.446C1418.62 433.382 1420.07 435.8 1420.86 438.468C1424.16 448.577 1426.42 458.996 1427.61 469.563C1429.06 481.949 1428.2 494.333 1428.85 506.665C1429.13 509.87 1428.33 513.08 1426.59 515.781C1424.84 518.481 1422.24 520.52 1419.2 521.571C1417.79 521.948 1416.57 522.816 1415.76 524.017C1414.94 525.217 1414.58 526.668 1414.75 528.111C1414.59 530.865 1414.25 533.607 1413.73 536.316C1413.74 536.952 1413.51 537.569 1413.08 538.038C1412.65 538.508 1412.06 538.793 1411.42 538.834C1410.19 538.834 1410.29 539.798 1410.78 540.656C1411.47 541.986 1411.87 543.448 1411.96 544.944C1412.06 546.44 1411.84 547.938 1411.31 549.343C1410.97 551.433 1410.85 553.557 1410.94 555.673C1410.94 563.608 1410.94 571.756 1410.94 579.423C1410.94 587.09 1409.6 594.22 1408.9 601.565C1408.42 606.659 1407.94 611.751 1407.29 616.791C1406.11 626.924 1404.82 637.006 1403.64 647.086C1402.85 651.925 1402.46 656.817 1402.47 661.72C1401.96 668.073 1401 674.384 1399.57 680.596C1399.51 681.107 1399.36 681.6 1399.11 682.051C1398.86 682.502 1398.53 682.903 1398.12 683.224C1395.53 685.219 1392.52 686.595 1389.31 687.245C1386.1 687.896 1382.79 687.8 1379.63 686.973C1376.46 685.847 1374.53 686.118 1373.19 689.549C1372.44 690.84 1371.29 691.855 1369.92 692.444C1360.32 697.997 1349.37 700.781 1338.29 700.487H1336.36C1332.34 700.058 1331 697.914 1333.25 694.429C1334.88 691.706 1337.12 689.396 1339.79 687.675C1344.25 685.258 1348.83 683.071 1353.52 681.13L1354.75 680.758C1356.47 680.115 1358.98 679.897 1359.73 678.664C1360.48 677.43 1359.36 675.071 1359.2 673.302C1358.66 666.493 1358.34 659.685 1357.65 652.929C1356.79 643.815 1355.71 634.753 1354.69 625.692C1354.69 623.387 1354.1 621.081 1353.84 618.776C1351.85 601.726 1352.98 584.622 1352.44 567.626C1352.44 560.817 1351.58 554.01 1351.26 547.201C1351.31 546.481 1351.11 545.762 1350.69 545.175C1350.27 544.588 1349.66 544.166 1348.96 543.981C1343.6 541.89 1343.6 540.871 1344.19 535.295C1344.45 533.418 1344.45 531.492 1344.67 529.561C1345.42 521.358 1346.12 513.1 1347.03 504.843C1347.83 497.658 1348.85 490.528 1349.76 483.397V482.166C1349.28 482.166 1348.64 482.165 1348.31 482.648C1344.88 486.079 1341.67 489.723 1338.07 492.994C1336.1 494.602 1333.94 495.969 1331.64 497.068C1328.88 498.728 1325.63 499.369 1322.44 498.879C1319.26 498.389 1316.35 496.8 1314.22 494.387C1311.73 491.495 1309.47 488.413 1307.46 485.166C1307.2 484.848 1307 484.48 1306.89 484.083C1306.78 483.685 1306.76 483.271 1306.82 482.863C1307.2 481.913 1307.85 481.092 1308.69 480.501C1309.01 480.501 1310.2 480.986 1310.62 481.522C1312.02 483.399 1313.2 485.433 1314.65 487.256C1315.52 488.865 1316.75 490.252 1318.25 491.303C1319.74 492.354 1321.47 493.043 1323.28 493.313C1325.09 493.584 1326.93 493.43 1328.68 492.863C1330.42 492.296 1332 491.331 1333.3 490.046C1338.91 485.793 1343.79 480.67 1347.78 474.873C1350.74 471.241 1353.89 467.766 1357.22 464.469C1358.13 463.45 1359.25 463.021 1360.43 464.469C1361.61 465.917 1361.72 466.94 1360.43 467.851C1354.11 473.213 1353.62 480.074 1353.03 487.365C1352.23 496.48 1351.16 505.54 1350.08 514.655C1349.49 520.016 1348.69 525.378 1348.05 530.739C1348.05 532.402 1348.05 534.118 1347.78 535.834C1347.65 536.79 1347.9 537.757 1348.47 538.536C1349.04 539.314 1349.89 539.847 1350.84 540.017C1361.63 543.894 1373.17 545.23 1384.56 543.929C1393.62 542.749 1400.64 537.709 1408.69 534.546C1410.56 533.795 1410.94 532.295 1411.05 530.472C1411.42 522.805 1411.8 515.138 1412.44 507.471C1412.92 501.359 1413.83 495.247 1414.58 489.135C1414.58 488.492 1414.85 487.847 1414.85 487.203L1416.62 457.233L1416.03 456.856ZM1381.77 558.725H1381.5C1381.5 556.795 1381.5 554.922 1381.82 552.992C1382.09 549.507 1382.15 549.615 1378.5 549.4C1374.85 549.186 1371.8 548.807 1368.42 548.432L1357.7 546.986C1355.34 546.665 1354.64 546.984 1354.91 549.772C1355.18 552.56 1355.77 554.383 1355.88 556.689C1356.41 570.521 1357.11 584.355 1357.16 598.188C1357.2 610.523 1358.19 622.838 1360.11 635.023C1360.65 638.561 1361.07 642.153 1361.4 645.746C1361.88 651.107 1362.04 656.79 1362.63 662.312C1363.22 667.834 1364.13 672.336 1364.77 677.376C1364.77 679.091 1365.52 680.165 1367.45 680.219C1368.2 680.314 1368.95 680.123 1369.56 679.685C1370.16 679.246 1370.58 678.597 1370.73 677.862C1371.44 675.199 1372 672.492 1372.39 669.763C1372.71 667.243 1372.39 664.671 1372.76 662.097C1373.51 654.752 1374.37 647.354 1375.12 639.955C1375.71 634.057 1376.14 628.162 1376.62 622.21C1377.48 612.077 1378.29 601.887 1379.14 591.753C1379.14 590.252 1379.14 588.75 1379.14 587.303L1381.77 558.725ZM1406.33 547.683H1406.97V545.107C1406.97 541.783 1405.95 541.141 1403.22 542.803C1399.67 545.127 1395.66 546.677 1391.47 547.358C1390.18 547.528 1388.99 548.172 1388.13 549.159C1387.27 550.147 1386.8 551.411 1386.81 552.72C1386.33 556.741 1385.85 560.762 1385.58 564.783C1385.26 570.734 1385.15 576.686 1384.99 582.638C1384.99 583.682 1385.1 584.725 1385.31 585.748C1388.47 597.543 1387.72 609.825 1389.39 621.781C1390.3 628.537 1390.88 635.288 1391.58 642.044L1394.15 666.171C1394.48 668.959 1394.75 671.533 1395.07 674.642L1397 666.014C1397.05 665.371 1397.05 664.724 1397 664.082C1397.8 656.254 1398.55 648.427 1399.36 640.599C1400 634.272 1400.54 627.893 1401.29 621.566C1402.63 610.2 1404.67 598.833 1405.36 587.413C1406.38 573.902 1406.06 560.656 1406.33 547.52V547.683ZM1358.61 416.644C1359.2 419.54 1359.52 422.758 1360.43 425.76C1361.37 428.87 1363.48 431.49 1366.33 433.054C1367.52 433.967 1368.95 434.51 1370.44 434.624C1371.94 434.739 1373.43 434.419 1374.75 433.698C1377.54 431.553 1381.02 429.566 1380.48 424.687C1379.61 419.62 1379.96 414.417 1381.5 409.513C1381.68 409.064 1381.76 408.588 1381.75 408.105C1381.73 407.622 1381.62 407.144 1381.41 406.707C1381.21 406.27 1380.91 405.879 1380.55 405.56C1380.19 405.241 1379.76 405.003 1379.3 404.853C1377.43 403.888 1374.96 403.137 1373.94 401.528C1371.69 397.561 1367.51 396.915 1364.18 394.931C1363.31 394.3 1362.22 394.043 1361.16 394.214C1360.09 394.385 1359.13 394.969 1358.5 395.842C1356.95 398.094 1356.41 402.168 1358.18 403.455C1360.86 405.439 1360.43 407.531 1359.68 410.105C1359.22 412.212 1358.86 414.344 1358.61 416.487V416.644ZM1389.33 664.029C1388.69 658.668 1387.99 652.66 1387.29 646.494C1386.7 641.669 1386.06 636.844 1385.63 631.965C1384.99 625.37 1384.61 618.831 1384.08 612.236C1383.97 611.616 1383.8 611.007 1383.59 610.414C1383.33 610.959 1383.13 611.532 1383.01 612.126C1382.52 616.737 1382.04 621.405 1381.66 626.069C1381.07 632.181 1380.7 638.344 1380.05 644.51C1379.41 650.676 1378.5 657.111 1377.86 663.438C1377.59 666.494 1377.86 669.602 1377.86 672.658L1387.24 671.265C1387.56 671.269 1387.87 671.202 1388.16 671.072C1388.45 670.942 1388.71 670.751 1388.92 670.511C1389.13 670.272 1389.28 669.989 1389.37 669.684C1389.46 669.379 1389.48 669.061 1389.44 668.747L1389.33 664.029ZM1423.75 494.978H1424.29C1423.7 485.649 1423.16 476.32 1422.47 467.045C1422.16 464.729 1421.69 462.434 1421.07 460.181L1420.59 459.107L1420.16 460.291C1419.73 466.403 1419.36 472.567 1418.87 478.679C1417.94 489.652 1416.98 500.646 1415.98 511.655C1415.98 513.102 1415.28 514.548 1415.23 515.995L1416.73 517.173C1418.84 516.504 1420.67 515.163 1421.94 513.351C1423.21 511.539 1423.84 509.357 1423.75 507.147C1423.8 502.857 1423.75 498.837 1423.75 494.816V494.978ZM1343.33 695.445C1351.62 694.568 1359.71 692.285 1367.24 688.69C1368.59 687.887 1369.85 686.932 1370.99 685.847C1369.54 685.712 1368.09 685.501 1366.65 685.208C1365.44 684.936 1364.28 684.461 1363.22 683.81C1362.71 683.448 1362.1 683.255 1361.48 683.255C1360.85 683.255 1360.24 683.448 1359.73 683.81C1358.07 684.722 1356.2 685.153 1354.37 685.957C1349.87 688.209 1345.37 690.567 1340.92 692.926C1340.43 692.926 1340.22 693.894 1339.9 694.376C1340.48 694.818 1341.09 695.227 1341.72 695.607C1341.72 695.607 1342.1 695.287 1343.17 695.287L1343.33 695.445ZM1385.85 682.737C1390.89 682.737 1391.21 682.094 1390.46 678.716C1389.71 675.338 1389.17 674.859 1385.69 675.878C1383.87 676.385 1382.08 676.992 1380.32 677.7C1379.51 678.199 1378.77 678.812 1378.13 679.522C1378.78 680.28 1379.58 680.899 1380.48 681.344C1382.41 681.934 1384.61 682.312 1385.69 682.58L1385.85 682.737Z" fill="#3A352F"/>
<path d="M1292.23 450.746C1293.89 448.548 1292.77 447.85 1291.32 446.992C1288.9 445.869 1286.85 444.064 1285.43 441.798C1284.01 439.532 1283.28 436.905 1283.33 434.232C1283.01 432.201 1283.49 430.122 1284.69 428.447C1285.88 426.771 1287.69 425.633 1289.71 425.279L1294.32 423.457C1293.63 421.956 1292.98 420.455 1292.34 418.954C1291.78 418.051 1291.4 417.046 1291.21 416.001C1291.05 414.148 1291.42 412.288 1292.29 410.639C1292.82 409.942 1295.4 410.639 1296.9 410.639C1302.18 412.495 1306.53 416.343 1309.01 421.362C1314.05 430.638 1318.67 440.132 1323.38 449.568C1324.83 452.41 1326.12 455.303 1327.62 458.144H1329.5C1332.5 454.981 1336.9 453.322 1338.99 449.086C1340.07 447.503 1341.39 446.092 1342.9 444.903L1353.25 434.609C1353.8 433.966 1354.41 433.374 1355.07 432.839L1356.79 432.572L1357.59 434.128C1357.28 435.557 1356.67 436.903 1355.82 438.091C1352.71 441.522 1349.33 444.739 1346.22 448.17C1342.31 452.406 1338.56 456.751 1334.8 461.04C1334.37 461.522 1334.11 462.112 1333.73 462.595C1330.3 466.616 1326.12 465.757 1324.14 460.878C1322.15 455.999 1319.2 449.623 1316.73 443.94C1316.25 442.867 1315.66 442.113 1314.38 442.756C1310.41 444.794 1306.33 446.566 1302.58 448.872C1296.84 452.464 1296.84 450.961 1299.85 457.448C1302.06 461.779 1304.01 466.238 1305.69 470.8C1306.39 472.783 1309.5 476.16 1306.07 477.339C1303.71 478.251 1303.28 474.338 1302.31 472.355C1299.42 466.457 1296.63 460.505 1293.84 454.5C1293.14 453.428 1292.72 452.033 1292.23 450.746ZM1296.09 416.111V415.577H1295.67L1296.36 416.163C1296.41 417.327 1296.7 418.47 1297.22 419.514C1297.73 420.558 1298.47 421.478 1299.36 422.221C1302.69 426.35 1302.53 426.885 1297.54 428.064C1295.48 428.539 1293.47 429.204 1291.54 430.049C1290.55 430.192 1289.62 430.607 1288.86 431.248C1288.1 431.889 1287.53 432.731 1287.21 433.677C1286.9 434.624 1286.86 435.64 1287.09 436.609C1287.33 437.578 1287.83 438.463 1288.53 439.164C1289.25 440.477 1290.23 441.63 1291.41 442.552C1292.59 443.474 1293.95 444.144 1295.4 444.526C1297.55 444.96 1299.77 444.958 1301.93 444.516C1304.09 444.073 1306.13 443.203 1307.94 441.955C1313.95 438.792 1312.82 439.057 1310.52 434.499C1309.44 432.408 1308.64 430.213 1307.67 428.122C1305.87 423.967 1303.12 420.294 1299.63 417.399C1298.55 416.699 1297.35 416.19 1296.09 415.896V416.111Z" fill="#3A352F"/>
<path d="M1368.53 405.172C1367.83 406.459 1367.46 407.854 1366.76 408.015C1366.26 408.028 1365.77 407.926 1365.31 407.722C1364.86 407.517 1364.45 407.213 1364.13 406.832C1363.15 406.001 1362.45 404.874 1362.16 403.617C1361.87 402.36 1362 401.042 1362.52 399.863C1363.27 398.361 1364.61 397.879 1365.42 399.166C1366.56 401.111 1367.6 403.116 1368.53 405.172Z" fill="#3A352F"/>
</g>
<defs>
<clipPath id="clip0_10_81">
<rect width="1411" height="945" fill="white"/>
</clipPath>
</defs>
</svg>
