<svg width="1411" height="945" viewBox="0 0 1411 945" fill="none" xmlns="http://www.w3.org/2000/svg">
<g clip-path="url(#clip0_10_193)">
<path d="M750.246 296.982C761.329 290.362 772.451 283.82 783.458 277.085C790.808 272.583 797.928 267.734 805.201 263.116C807.433 261.692 808.549 259.921 809.627 257.304C812.09 251.416 815.9 246.067 819.056 240.487C820.133 238.563 820.903 236.485 821.865 234.522C822.211 233.868 822.673 233.252 823.25 232.752C825.521 230.712 827.907 228.826 830.062 226.71C846.071 210.739 864.274 198.154 885.787 190.765C889.828 189.38 894.138 188.649 898.371 188.187C904.952 187.494 908.647 190.419 910.032 197.269C910.571 199.963 911.456 200.386 913.611 199.078C915.574 197.885 917.69 196.884 919.422 195.384C920.346 194.575 920.923 192.959 921.038 191.651C921.654 181.722 921.962 171.754 922.693 161.825C923.194 155.014 927.081 150.396 933.469 148.202C936.894 147.047 938.241 145.046 938.549 141.544C939.318 132.77 942.397 127.574 954.019 125.843C964.68 124.265 973.454 127.459 979.342 136.926C981.959 141.159 982.883 145.739 981.382 150.626C980.843 152.435 980.92 153.551 983.036 154.552C996.852 161.287 1010.98 167.406 1022.91 177.411C1023.37 177.796 1023.91 178.143 1024.41 178.489C1027.76 180.721 1028.22 180.644 1028.41 176.757C1028.91 167.752 1029.06 158.747 1029.53 149.741C1029.56 148.856 1030.6 147.779 1031.45 147.163C1033.26 145.777 1035.26 144.623 1037.18 143.391C1038.99 142.237 1039.03 141.352 1037.03 140.159C1032.22 137.272 1031.37 132.462 1031.33 127.382C1031.33 126.728 1031.99 126.112 1032.33 125.458C1032.8 125.997 1033.53 126.458 1033.72 127.074C1034.57 129.537 1035.07 132.154 1036.11 134.502C1037.72 138.235 1040.42 139.004 1044.34 137.811C1048.27 136.618 1052.27 135.733 1056.31 134.925C1059.66 134.271 1061.97 136.002 1063.47 138.812C1064.7 141.121 1065.51 143.661 1066.89 145.854C1068.43 148.279 1070.09 150.78 1072.24 152.628C1074.82 154.86 1076.36 154.205 1078.21 151.088C1078.59 150.434 1079.4 149.972 1079.98 149.433C1080.48 150.165 1081.17 150.857 1081.36 151.666C1082.25 155.398 1079.98 158.131 1076.13 157.746C1070.16 157.169 1066.43 153.513 1063.89 148.433C1063.01 146.663 1062.31 144.777 1061.43 142.968C1061.12 142.352 1060.54 141.891 1060.08 141.352C1059.97 142.083 1059.77 142.776 1059.77 143.507C1059.74 159.208 1059.7 174.91 1059.66 190.611C1059.5 243.874 1059.39 297.136 1059.2 350.398C1059.2 358.71 1059.08 367.023 1058.89 375.335C1058.85 378.029 1059.58 379.607 1062.58 378.914C1064.43 378.491 1065.24 378.953 1064.93 380.954C1064.7 382.493 1064.74 384.225 1062.39 383.879C1061.62 383.763 1060.89 383.532 1060.16 383.34C1058.16 382.763 1056.89 383.456 1056.35 385.495C1054.66 392.037 1052.96 398.58 1051.23 405.084C1051 405.468 1050.77 405.815 1050.58 406.2C1050.58 406.277 1050.65 406.431 1050.73 406.508C1050.88 406.007 1051.04 405.507 1051.19 405.007C1056.16 405.545 1059.08 411.626 1056.08 415.513C1054.5 417.552 1052.31 418.168 1049.88 417.091C1047.38 415.975 1046.11 414.166 1046.69 411.203C1048.27 403.082 1049.73 394.924 1051.27 386.765C1051.58 385.072 1050.92 384.341 1049.34 384.725C1045.07 385.803 1040.8 386.996 1036.57 388.228C1035.41 388.574 1034.34 389.382 1033.18 389.613C1029.83 390.229 1028.37 391.306 1029.91 395.193C1031.06 398.118 1028.91 401.043 1026.25 401.62C1023.33 402.274 1020.9 400.927 1019.9 397.695C1019.21 395.424 1018.94 393 1018.9 390.614C1018.9 389.998 1020.25 388.997 1021.14 388.728C1023.79 387.92 1026.52 387.419 1029.18 386.765C1030.53 386.419 1031.99 386.303 1033.14 385.572C1038.3 382.378 1044.15 381.993 1049.84 380.839C1051.08 380.569 1052.23 379.723 1053.39 379.184C1052.77 378.183 1052.27 377.106 1051.58 376.182C1050.65 374.951 1049.54 373.873 1048.5 372.718C1047 371.064 1045.65 367.6 1043.69 372.526C1043.38 373.257 1040.8 373.988 1040.19 373.527C1038.07 371.949 1035.3 370.025 1034.8 367.792C1034.3 365.599 1036.07 362.751 1037.3 360.404C1037.61 359.865 1040.15 359.826 1041.03 360.404C1044.23 362.713 1047.19 365.329 1050.19 367.908C1051.65 369.178 1053.04 370.525 1054.46 371.795C1054.66 369.909 1055.04 367.985 1055.04 366.099C1055.04 349.474 1054.92 332.849 1054.89 316.224C1054.89 281.549 1054.85 246.875 1054.96 212.201C1055.04 194.191 1055.39 176.18 1055.58 158.169C1055.58 157.13 1055.12 156.091 1054.89 155.052C1054.66 156.053 1054.23 157.053 1054.23 158.054C1054.16 163.75 1054.12 169.445 1054.23 175.141C1054.23 177.604 1053.73 179.643 1051.69 181.221C1047.92 184.108 1044.15 187.032 1040.49 190.034C1039.84 190.573 1039.38 191.689 1039.38 192.536C1039.49 197.731 1039.88 202.965 1039.92 208.16C1040.03 226.787 1040.03 245.413 1040.11 264.039C1040.11 269.889 1040.57 275.738 1040.49 281.55C1040.38 288.438 1039.92 295.365 1039.53 302.254C1039.49 303.101 1039.18 304.294 1038.57 304.64C1033.26 307.719 1033.68 313.106 1032.99 318.032C1032.8 319.379 1032.91 320.803 1032.68 322.15C1032.41 323.69 1031.56 324.305 1030.1 323.228C1029.68 322.92 1029.22 322.612 1028.76 322.304C1028.64 322.881 1028.33 323.574 1028.49 324.036C1028.72 324.613 1029.41 325.46 1029.83 325.421C1030.87 325.344 1031.83 324.767 1032.87 324.459C1036.03 323.536 1038.22 324.729 1038.38 328C1038.61 332.772 1038.65 337.544 1038.34 342.316C1038.07 345.972 1035.64 347.819 1031.91 348.127C1031.3 348.166 1030.68 348.166 1030.1 348.319C1022.68 350.013 1017.75 346.049 1017.98 338.429C1018.1 335.081 1018.33 331.656 1019.1 328.385C1019.48 326.768 1021.02 325.383 1022.17 323.998C1022.87 323.151 1024.37 322.651 1024.6 321.765C1025.22 319.264 1025.41 316.609 1025.64 314.03C1025.64 313.953 1024.14 313.414 1023.6 313.684C1020.67 315.069 1017.86 316.647 1015.02 318.186C1003.97 324.228 992.811 330.116 981.882 336.428C974.454 340.738 967.412 345.741 960.138 350.359C948.709 357.556 937.163 364.637 925.734 371.872C909.609 382.07 893.445 392.114 878.09 403.467C862.427 415.051 845.956 425.634 829.793 436.602C827.907 437.911 825.752 438.796 823.751 439.989C819.594 442.452 819.787 445.184 822.635 449.148C824.443 451.688 824.713 455.382 825.444 458.615C825.906 460.693 825.944 462.848 826.137 464.965C826.214 465.696 826.406 466.658 826.06 467.197C822.519 472.7 818.44 477.626 811.82 479.55C811.436 479.666 810.589 479.55 810.589 479.435C810.166 475.048 804.893 476.164 803.354 473.047C799.813 465.812 799.121 458.692 803.546 451.534C804.201 450.495 804.855 449.417 805.124 448.263C806.433 443.298 806.125 442.875 801.545 440.412C782.457 430.098 763.446 419.708 744.358 409.394C735.429 404.545 726.386 399.927 717.573 394.924C713.878 392.846 711.454 395.617 708.568 396.463C706.028 397.194 706.951 399.465 706.951 401.158C706.951 403.737 706.951 406.392 707.336 408.932C707.721 411.241 709.376 412.28 711.261 410.433C712.762 408.894 714.071 406.931 714.763 404.891C715.495 402.775 715.379 400.35 715.841 398.118C715.956 397.579 716.803 397.194 717.303 396.733C717.65 397.31 718.266 397.849 718.266 398.426C718.227 400.889 718.112 403.352 717.765 405.776C717.111 410.51 714.34 413.512 709.799 414.974C709.222 415.166 708.568 415.166 708.029 415.397C701.333 418.207 698.292 417.014 695.444 410.51C693.328 405.699 693.559 400.927 695.752 396.232C696.599 394.462 697.677 392.769 698.369 390.921C699.832 386.996 699.254 385.264 695.906 382.724C695.521 382.455 695.021 382.224 694.829 381.878C692.25 376.413 687.748 371.564 687.709 365.291C687.632 358.402 688.671 351.514 689.364 344.625C689.749 340.507 690.095 336.351 690.98 332.349C692.558 325.191 696.83 320.38 704.219 318.648C708.875 317.571 708.452 317.532 707.259 312.799C704.488 301.946 701.91 290.978 699.601 280.01C697.792 271.39 696.253 262.808 691.865 254.995C690.98 253.418 690.672 251.532 690.057 249.762C689.864 249.261 689.556 248.799 689.325 248.299C688.979 248.761 688.517 249.146 688.248 249.685C686.709 252.686 684.784 255.611 683.822 258.805C679.781 272.313 674.817 285.59 673.47 299.829C672.97 305.179 672.046 310.49 671.084 315.762C670.468 319.225 669.814 322.881 665.581 324.036C665.157 324.151 664.811 324.459 664.465 324.652C666.697 328.077 662.656 332.156 665.735 335.658C667.428 337.582 668.621 340.045 669.66 342.431C670.622 344.664 671.584 347.088 671.584 349.436C671.584 354.438 669.66 355.631 665.311 353.169C661.078 350.744 657.037 347.896 653.073 344.971C648.917 341.893 647.993 337.467 648.725 332.579C648.956 331.079 649.225 329.539 649.494 328.038C649.956 325.383 649.379 323.228 646.877 321.765C644.684 320.457 643.837 318.648 644.684 315.916C648.301 304.178 648.494 291.979 649.379 279.895C650.11 270.235 650.649 260.576 651.072 250.916C651.149 249.069 650.38 247.222 649.995 245.336C649.879 244.836 649.841 244.335 649.764 243.797C649.379 241.295 649.379 238.678 648.532 236.369C647.031 232.29 645.492 228.364 646.108 223.862C646.262 222.823 645.03 221.63 644.414 220.475C643.76 221.091 642.952 221.63 642.529 222.361C641.143 224.631 639.373 224.401 638.026 222.746C635.948 220.129 634.793 216.357 632.215 214.626C629.867 213.048 625.865 214.087 623.056 212.894C620.208 211.701 617.553 209.469 615.436 207.121C611.78 203.157 608.547 198.847 605.315 194.537C604.429 193.382 603.39 191.574 603.66 190.381C604.622 186.494 602.659 185.262 599.58 183.761C595.809 181.953 595.578 176.18 598.618 171.947C601.543 167.829 604.776 163.865 607.393 159.516C612.588 150.973 617.553 142.314 622.479 133.616C624.21 130.538 626.442 128.421 629.79 126.997C634.447 124.996 638.719 122.148 641.336 117.53C642.644 115.183 644.53 114.336 647.147 113.682C651.226 112.681 655.113 110.795 659 109.064C659.693 108.756 660.462 107.332 660.308 106.639C660.154 105.946 658.885 105.292 657.999 105.1C653.112 104.022 652.073 102.945 652.034 98.0186C652.034 95.5557 652.342 93.1311 652.381 90.6682C652.381 88.8594 652.304 87.32 650.149 86.1655C647.532 84.8186 648.802 82.1247 649.34 79.9311C649.841 77.8529 651.726 75.8518 649.033 73.8506C648.609 73.5427 648.609 71.8494 649.033 71.2722C651.303 68.2319 653.304 64.7299 656.306 62.6132C658.461 61.0739 659.885 59.6884 660.693 57.2639C661.155 55.8785 662.04 54.4161 663.118 53.454C665.042 51.6837 667.466 51.2989 669.16 53.6079C670.468 55.3782 671.199 55.5321 673.085 54.3006C677.934 51.2219 679.089 51.4913 682.937 55.5706C684.553 57.3024 686.17 58.38 688.825 58.5724C694.829 58.9957 701.525 67.2313 701.217 73.0424C701.217 73.3503 700.909 73.7736 701.025 73.9276C704.296 77.5836 701.794 82.0862 702.641 86.127C703.18 88.667 702.872 91.8612 701.756 94.2087C699.139 99.7119 701.371 105.446 700.293 110.949C700.216 111.257 701.025 112.065 701.371 112.027C708.683 111.296 711.839 117.145 714.84 121.686C719.843 129.268 727.117 133.078 734.814 136.58C739.817 138.85 745.05 140.659 750.169 142.699C750.708 142.93 751.477 143.276 751.631 143.738C752.94 147.355 756.557 147.894 759.251 149.626C765.216 153.436 769.911 158.4 773.105 164.75C773.529 165.558 774.145 166.443 774.106 167.29C774.029 169.33 774.183 171.754 773.144 173.255C772.644 173.948 769.565 173.14 767.795 172.639C766.486 172.293 765.447 171.1 764.177 170.715C763.215 170.407 761.599 170.33 761.098 170.908C759.097 173.14 757.365 172.601 755.557 170.908C753.979 169.407 752.632 167.713 750.708 170.6C750.361 171.1 748.783 171.331 748.168 171.023C743.473 168.522 737.392 169.214 733.736 164.019C732.428 162.133 729.426 161.094 727.001 160.44C723.384 159.439 720.421 157.938 718.766 154.436C718.535 153.975 717.919 153.667 717.496 153.282C717.342 153.821 716.996 154.359 717.073 154.86C718.727 166.559 719.305 178.489 725.347 189.111C728.656 194.96 725.308 205.543 720.036 209.815C714.032 214.664 706.451 215.318 700.063 218.897C688.671 225.286 676.356 224.285 664.041 223.361C663.58 223.361 663.118 223.285 662.656 223.169C660.385 222.592 656.96 220.321 658.846 225.863C658.961 226.248 657.345 227.864 656.614 227.826C654.998 227.749 653.42 226.941 651.803 226.479C650.995 226.248 650.149 226.132 649.302 225.978C649.225 226.864 649.11 227.749 649.11 228.672C649.11 229.288 649.302 229.904 649.571 230.443C653.843 239.371 653.728 248.915 653.42 258.498C653.304 261.73 653.882 264.963 653.728 268.157C653.574 271.582 652.766 274.969 652.458 278.394C651.649 287.438 651.072 296.481 650.226 305.487C649.918 308.681 649.187 311.837 648.455 314.992C647.609 318.648 648.34 320.342 651.842 320.919C655.152 321.496 658.577 321.919 661.925 321.765C663.503 321.688 665.273 320.418 666.427 319.187C667.39 318.148 667.774 316.416 667.967 314.915C669.275 305.795 670.507 296.674 671.777 287.553C671.969 286.206 672.277 284.821 672.662 283.512C674.74 276.431 676.818 269.35 678.935 262.307C679.474 260.537 679.82 258.651 680.782 257.112C685.208 249.877 687.016 241.795 688.71 233.675C688.825 233.059 688.864 232.367 689.21 231.905C689.787 231.135 690.557 230.52 691.25 229.865C691.596 230.789 692.481 231.828 692.25 232.559C690.903 237.023 691.327 241.411 692.558 245.721C693.674 249.685 694.829 253.725 696.599 257.42C700.293 265.194 701.448 273.545 703.257 281.819C705.681 292.748 708.375 303.639 710.954 314.569C711.3 316.031 711.492 317.917 713.724 317.301C715.572 316.801 717.573 316.378 717.65 313.607C717.804 308.219 718.65 302.831 718.381 297.52C718.15 292.71 720.267 289.477 723.653 286.937C726.732 284.628 727.925 282.088 727.04 278.355C725.962 273.891 724.808 269.389 724.269 264.847C723.115 255.111 722.422 245.297 721.383 235.522C720.882 230.673 720.036 225.824 719.42 220.975C719.151 218.859 718.843 216.742 718.766 214.587C718.766 213.817 719.305 213.048 719.612 212.278C720.459 212.817 721.421 213.202 722.075 213.894C722.537 214.356 722.999 215.588 722.768 215.819C720.998 217.704 722.075 219.475 722.614 221.399C723.461 224.516 724.538 227.71 724.461 230.866C724.115 246.067 726.155 260.922 729.541 275.661C730.734 280.895 730.427 280.857 735.391 278.817C748.36 273.545 761.329 268.388 774.337 263.231C775.338 262.846 776.415 262.692 777.493 262.538C781.572 261.923 783.111 262.962 784.035 267.041C784.189 267.772 784.458 268.619 784.304 269.312C784.035 270.62 783.496 271.89 783.073 273.16C782.496 272.082 781.649 271.082 781.418 269.927C780.417 264.809 779.917 264.54 775.145 266.464C763.33 271.236 751.477 275.969 739.624 280.703C733.197 283.243 727.771 287.207 723.384 292.517C722.306 293.826 721.729 295.789 721.537 297.52C721.075 301.484 720.844 305.487 720.729 309.489C720.69 310.644 720.921 312.491 721.614 312.876C722.884 313.53 725.731 310.605 725.731 309.066C725.77 305.833 725.962 302.639 725.924 299.406C725.847 296.02 727.617 293.903 730.388 292.479C734.929 290.17 739.47 287.899 744.088 285.821C747.513 284.282 749.322 285.321 749.823 289.131C750.207 291.863 750.207 294.634 750.361 297.405C746.975 297.713 747.283 295.288 747.09 293.133C746.667 288.246 746.628 288.246 742.434 290.324C740.509 291.286 738.662 292.479 736.622 293.095C730.503 294.942 728.156 298.983 728.464 305.256C728.656 309.527 728.695 309.874 732.351 307.796C738.354 304.409 744.319 300.83 750.284 297.328L750.246 296.982ZM936.702 228.595C936.394 228.287 936.086 227.98 935.816 227.633C934.085 225.324 932.045 224.593 928.966 224.401C925.387 224.17 925.964 226.517 925.233 228.172C925.156 228.326 926.272 229.019 926.811 229.442C928.043 227.364 929.313 227.749 931.314 228.749C932.391 229.288 934.316 227.98 935.855 227.518C936.124 227.864 936.432 228.21 936.702 228.557V228.595ZM828.677 247.953C836.835 242.757 844.763 237.139 853.268 232.521C858.425 229.711 860.003 226.209 859.079 220.898C858.925 220.052 858.694 219.205 858.502 218.397C857.732 218.82 856.808 219.051 856.193 219.667C848.804 226.633 841.376 233.56 834.18 240.679C832.063 242.796 830.524 245.528 828.754 247.991L828.677 247.914V247.953ZM947.823 253.572C944.591 254.11 941.743 255.303 938.202 253.148C933.123 250.031 927.35 248.068 921.962 245.451C920.038 244.528 919.268 244.566 919.268 246.952C919.268 249.107 919.807 250.069 922.078 250.801C926.003 252.071 929.697 253.956 933.469 255.727C934.008 255.996 934.277 256.804 934.7 257.343C933.969 257.805 933.276 258.574 932.507 258.651C931.66 258.728 930.736 258.19 929.928 257.766C927.619 256.573 925.349 255.226 923.001 254.149C922.116 253.764 920.962 253.956 919.922 253.918C920.461 255.111 920.692 256.612 921.577 257.42C922.655 258.421 924.348 258.728 925.58 259.614C926.426 260.229 926.888 261.345 927.504 262.23C926.388 262.23 925.156 262.538 924.194 262.192C920.23 260.73 920.23 260.653 920.23 264.809C920.23 265.886 920.307 266.964 920.23 268.042C920.115 270.197 921.077 270.543 922.655 269.465C927.08 266.425 931.468 263.347 935.816 260.229C939.011 257.959 941.935 255.072 946.284 255.072C946.784 255.072 947.246 254.072 947.746 253.533L947.939 253.341L947.823 253.61V253.572ZM672.623 123.264C673.201 125.304 673.701 127.382 674.355 129.383C674.509 129.768 675.548 130.345 675.741 130.191C678.088 128.537 677.703 125.227 675.125 124.188C674.278 123.841 673.393 123.649 672.546 123.341C669.506 119.762 666.427 116.183 663.426 112.527C662.079 110.911 660.77 111.334 659.423 112.335C657.961 113.451 658.808 114.297 659.731 115.298C660.847 116.53 661.925 117.838 662.771 119.3C667.082 126.689 668.813 134.963 671.007 143.084C673.662 153.012 676.241 162.941 678.858 172.87C679.012 173.409 679.397 173.871 679.666 174.371C679.82 173.794 680.089 173.217 680.051 172.639C679.704 160.555 679.358 148.471 678.973 136.349C678.935 134.617 678.511 133.655 676.51 134.809C674.355 136.079 672.893 134.886 672.239 132.924C671.469 130.615 670.853 128.19 670.622 125.766C670.545 124.996 671.854 124.072 672.546 123.226L672.623 123.264ZM694.752 114.913C698.831 109.294 697.484 102.868 697.369 96.6717C697.369 94.5935 696.291 96.1714 695.406 96.5947C694.328 97.0565 692.981 96.8641 691.75 96.9411C691.673 95.5172 691.442 94.0548 691.635 92.6309C691.711 92.0921 692.674 91.3994 693.328 91.2839C695.675 90.8221 695.637 89.3212 695.367 87.474C694.829 83.8565 690.865 84.7416 689.21 82.6635C688.479 83.4331 687.594 84.1259 687.055 85.011C684.9 88.667 683.63 89.0133 680.205 87.0122C679.666 86.7043 678.319 86.7043 678.165 87.0122C675.894 91.6303 669.776 94.1317 670.699 100.559C670.815 101.29 669.737 102.752 669.006 102.906C668.005 103.099 666.504 102.675 665.773 101.944C664.85 101.059 664.195 99.635 663.887 98.365C663.272 95.7096 661.194 95.0554 659.115 94.8245C657.692 94.6705 655.382 94.1317 655.152 96.6717C654.959 98.8268 654.882 101.405 657.73 101.752C661.194 102.175 662.579 104.369 663.926 107.062C667.851 115.029 672.662 121.802 682.783 122.533C688.209 122.918 691.596 121.263 693.751 115.875C694.059 115.567 694.405 115.221 694.713 114.913H694.752ZM934.046 362.559C931.853 362.828 931.006 361.712 930.929 359.634C930.736 355.516 930.429 351.36 930.159 347.242C929.774 341.161 927.735 336.197 921.346 334.003C918.306 332.964 915.343 331.617 912.418 330.309C910.186 329.308 908.146 329.154 905.837 330.309C895.1 335.851 884.209 341.161 873.511 346.819C868.623 349.397 864.043 352.514 859.348 355.439C857.232 356.748 856.462 358.71 856.385 361.25C855.731 378.568 854.923 395.886 854.153 413.204C854.153 413.935 854.384 414.666 854.499 415.359C855.308 415.051 856.231 414.936 856.924 414.474C860.849 411.78 864.659 408.932 868.546 406.2C881.053 397.541 893.484 388.843 906.107 380.377C915.266 374.219 924.694 368.37 933.969 362.405C936.009 361.366 938.087 360.404 940.05 359.211C940.704 358.826 941.397 357.902 941.474 357.171C941.781 353.861 941.897 350.513 942.089 347.165C942.359 341.739 942.474 342.047 937.433 343.932C934.2 345.164 933.353 346.934 933.623 350.09C933.969 354.208 933.931 358.364 934.085 362.482L934.046 362.559ZM876.782 240.064C876.782 240.064 877.09 240.064 877.244 240.064C877.244 236.831 877.282 233.598 877.244 230.366C877.205 228.095 877.013 225.824 876.897 223.554C874.665 224.401 872.241 224.901 870.239 226.132C849.804 238.717 829.331 251.224 809.127 264.116C781.995 281.357 755.249 299.175 726.424 313.607C725.462 314.107 724.5 314.607 723.615 315.223C722.884 315.723 722.268 316.378 721.614 316.955C722.422 317.301 723.192 317.725 724 317.917C726.54 318.494 729.157 318.764 731.62 319.533C750.9 325.498 768.526 334.85 784.766 346.665C797.812 356.132 807.818 368.254 813.514 383.609C815.092 387.881 815.515 388.228 819.44 386.226C827.214 382.263 834.834 377.952 842.531 373.796C844.57 372.718 846.61 371.641 848.765 370.794C849.42 370.525 850.382 371.102 851.228 371.295C850.843 372.064 850.651 373.103 849.997 373.527C846.11 375.99 842.261 378.53 838.182 380.685C831.678 384.11 825.021 387.342 818.363 390.498C816.439 391.422 816.131 392.499 816.439 394.462C817.362 399.773 818.016 405.084 818.786 410.433C819.363 414.589 819.633 414.589 823.135 412.28C829.446 408.201 835.835 404.237 842.3 400.35C842.954 399.965 844.147 400.427 845.109 400.504C844.686 401.235 844.494 402.274 843.878 402.698C836.951 407.239 830.062 411.934 822.904 416.09C820.479 417.514 819.017 418.745 819.479 421.632C819.633 422.517 819.402 423.479 819.517 424.403C819.671 425.673 819.979 426.943 820.249 428.213C821.442 427.558 822.673 427.02 823.789 426.288C826.444 424.441 828.946 422.401 831.64 420.67C836.566 417.514 841.646 414.666 846.495 411.395C848.842 409.817 851.382 408.124 851.498 404.66C852.075 390.575 853.152 376.451 853.229 362.366C853.229 356.555 855.385 353.092 860.041 350.552C868.354 345.972 876.628 341.238 885.017 336.813C891.136 333.619 897.486 330.886 903.644 327.73C906.799 326.114 909.801 325.922 912.918 327.346C915.112 328.346 916.959 328.115 918.96 326.884C926.657 322.073 934.431 317.494 942.051 312.568C943.706 311.49 944.899 309.604 946.053 307.911C950.094 302.215 952.403 295.173 959.061 291.517C959.484 291.286 959.677 290.593 959.984 290.131C959.446 289.939 958.907 289.631 958.368 289.554C951.826 288.631 945.283 287.668 938.741 286.86C936.779 286.629 935.816 286.168 936.702 284.012C939.318 277.47 941.897 270.889 944.475 264.309C944.976 263.039 945.437 261.73 945.784 260.383C945.938 259.691 945.745 258.882 945.707 258.151C945.053 258.344 944.283 258.344 943.706 258.69C941.743 259.921 939.896 261.23 937.972 262.5C933.007 265.848 928.043 269.158 923.078 272.506C922.193 273.083 920.923 273.583 920.615 274.43C919.384 277.47 917.459 276.701 915.381 275.738C911.879 274.161 908.339 272.621 904.875 270.966C896.832 267.156 888.789 263.308 880.746 259.46C877.936 258.151 876.589 256.111 876.743 252.879C876.897 248.569 876.782 244.258 876.782 239.948V240.064ZM690.749 364.098C690.557 368.1 690.403 368.331 693.905 370.294C704.296 376.22 714.763 382.07 725.27 387.804C743.896 397.964 762.484 408.162 781.264 418.053C791.578 423.518 802.199 428.443 812.744 433.485C816.439 435.255 816.746 435.063 816.439 431.214C815.63 420.67 814.861 410.087 813.706 399.58C811.436 378.683 799.89 363.059 784.15 350.359C772.028 340.546 758.02 333.619 743.857 327.269C734.159 322.92 724.077 319.61 713.186 320.188C702.526 320.765 695.021 325.46 693.597 336.967C692.481 346.126 691.673 355.285 690.788 364.136L690.749 364.098ZM1036.38 222.553C1036.38 222.553 1036.41 222.553 1036.45 222.553C1036.45 214.395 1036.45 206.236 1036.45 198.077C1036.45 191.766 1036.45 191.843 1030.64 193.498C1029.06 193.96 1029.06 194.306 1029.64 195.576C1030.53 197.5 1031.37 199.501 1031.95 201.541C1032.14 202.195 1031.41 203.08 1031.06 203.889C1030.45 203.35 1029.68 202.888 1029.18 202.234C1026.68 198.809 1024.79 194.652 1021.64 191.997C1010.24 182.376 998.776 172.909 984.922 166.79C980.958 165.02 977.572 163.095 973.839 166.713C973.531 167.021 972.992 167.136 972.569 167.213C969.605 167.675 968.72 169.522 968.528 172.332C968.297 175.41 967.681 178.45 963.679 179.182C962.986 179.297 962.255 181.26 962.14 182.414C961.947 184.762 961.639 186.725 958.714 186.955C956.021 187.148 953.481 185.609 953.481 182.992C953.481 179.72 951.826 178.412 949.286 177.219C948.093 176.642 947.015 175.641 946.13 174.602C945.13 173.448 944.514 172.639 942.936 174.14C938.741 178.143 933.738 181.491 930.159 185.955C924.079 193.536 923.117 192.42 932.468 197.616C933.392 198.116 934.392 198.616 935.316 199.155C937.548 200.386 938.433 199.501 938.433 197.192C938.433 193.036 938.433 188.88 938.549 184.723C938.549 183.761 939.126 182.838 939.434 181.876C940.011 182.799 940.627 183.646 941.089 184.608C941.281 184.993 941.089 185.532 941.166 185.993C941.858 196.923 940.473 207.468 935.932 217.512C934.046 221.707 934.816 223.169 939.165 224.862C940.319 225.324 941.589 225.478 942.628 226.094C946.707 228.48 950.787 230.866 954.674 233.521C955.52 234.099 955.674 235.715 956.021 236.908C956.175 237.37 956.021 237.908 956.021 238.409C956.444 238.255 956.906 238.139 957.252 237.908C962.255 234.907 967.296 231.943 972.184 228.788C973.185 228.172 974.262 226.787 974.301 225.748C974.339 223.323 973.877 220.86 973.377 218.474C973.261 217.858 972.068 216.819 971.722 216.973C967.527 218.397 966.989 215.896 966.719 212.74C966.565 211.085 965.834 209.469 965.642 207.775C964.833 201.387 964.064 194.999 963.41 188.61C963.333 187.725 964.025 186.725 964.372 185.801C964.949 186.725 965.719 187.533 966.065 188.533C966.373 189.38 966.142 190.381 966.257 191.266C967.258 197.923 968.22 204.62 969.375 211.277C969.49 211.932 970.875 213.048 971.26 212.894C975.801 211.047 980.304 209.084 984.768 207.006C986.808 206.044 987.462 204.543 986.462 202.118C984.191 196.577 982.228 190.919 980.189 185.262C978.611 180.875 976.186 177.373 971.53 175.757C970.683 175.449 969.452 173.909 969.644 173.332C970.106 171.908 970.491 169.869 972.915 170.253C975.032 170.6 977.225 170.523 979.265 171.1C983.845 172.408 988.309 174.025 992.85 175.487C1006.2 179.759 1014.44 189.726 1021.06 201.272C1021.91 202.772 1021.06 205.274 1020.98 207.314C1019.06 207.083 1016.98 207.314 1015.29 206.582C1012.48 205.389 1009.9 203.658 1007.24 202.118C1005.32 201.002 1004.28 201.464 1004.51 203.735C1005.32 212.586 1003.43 220.86 999.315 228.672C998.661 229.942 998.469 230.789 1000.12 231.559C1007.94 235.099 1015.71 238.755 1023.48 242.411C1024.25 242.796 1024.79 243.681 1025.45 244.374C1024.52 244.72 1023.56 245.528 1022.71 245.374C1020.75 245.067 1018.79 244.528 1017.02 243.681C1011.21 240.91 1005.43 237.985 999.7 235.022C997.391 233.829 995.852 233.868 994.582 236.523C993.389 238.986 991.618 241.18 990.271 243.604C988.925 245.99 987.193 246.413 984.884 245.144C981.92 243.527 978.957 241.911 975.994 240.295C975.34 239.948 974.724 239.294 973.993 239.217C971.145 238.794 963.64 243.874 962.871 246.721C962.178 249.223 961.793 251.878 960.908 254.303C960.1 256.496 958.791 257.882 956.675 255.149C956.328 254.726 954.828 254.611 954.289 254.995C953.327 255.688 952.634 256.804 951.903 257.766C951.018 258.959 951.056 259.729 952.865 259.691C960.793 259.421 968.72 259.421 976.61 258.728C979.65 258.459 980.035 259.421 980.15 261.769C980.343 266.079 980.727 270.351 980.881 274.661C980.958 277.124 981.843 277.278 983.614 276.008C983.999 275.738 984.383 275.507 984.768 275.238C999.546 265.809 1014.29 256.381 1029.06 246.952C1030.1 246.298 1031.22 245.605 1032.37 245.374C1033.22 245.22 1034.22 245.875 1035.14 246.144C1034.64 246.837 1034.3 247.722 1033.64 248.145C1029.49 250.762 1025.18 253.148 1021.06 255.804C1001.55 268.388 982.036 280.972 962.601 293.634C954.366 298.983 948.709 306.564 947.4 316.185C945.668 328.654 945.284 341.277 944.283 353.823C944.052 356.671 945.207 356.478 947.208 355.401C951.749 352.899 951.98 352.553 951.402 347.28C951.364 346.819 951.364 346.357 951.326 345.895C950.941 335.735 950.864 325.614 953.211 315.608C954.404 310.528 956.29 305.756 960.523 302.6C967.412 297.482 974.531 292.671 981.69 287.899C998.815 276.508 1016.02 265.155 1033.3 253.956C1035.61 252.455 1036.38 251.032 1036.34 248.453C1036.22 239.833 1036.3 231.212 1036.3 222.592L1036.38 222.553ZM680.205 201.81C679.089 194.537 678.242 186.109 676.433 177.912C673.432 164.404 670.083 151.011 666.389 137.696C664.773 131.846 662.233 126.189 659.539 120.686C658.423 118.377 655.921 116.76 654.035 114.798C651.034 116.953 646.223 114.913 644.068 119.454C641.721 124.419 636.987 127.19 632.292 129.345C628.944 130.884 626.75 132.962 625.018 135.964C619.477 145.547 613.974 155.129 608.278 164.635C606.161 168.175 603.352 171.331 601.158 174.833C598.734 178.72 599.388 180.721 603.583 182.26C606.585 183.376 607.547 185.147 607.393 188.187C607.316 189.88 607.662 191.958 608.624 193.305C611.434 197.346 614.435 201.272 617.783 204.889C619.939 207.198 622.594 209.161 625.365 210.7C627.174 211.739 629.252 211.855 630.214 208.661C630.868 206.505 632.754 204.466 634.524 202.926C636.872 200.887 636.91 199.116 634.87 197.154C632.33 194.729 629.598 192.42 626.943 190.111C624.518 187.995 621.824 186.109 619.708 183.723C618.053 181.876 617.129 179.528 614.089 181.529C613.781 181.722 612.742 181.375 612.511 181.029C612.319 180.721 612.627 179.836 612.973 179.451C613.589 178.797 614.397 178.297 615.167 177.796C624.095 172.024 630.791 164.558 633.754 154.052C634.601 151.127 635.948 148.317 637.179 145.508C637.41 145.046 638.411 144.892 639.027 144.623C639.258 145.277 639.873 146.162 639.642 146.547C636.294 152.012 638.295 156.668 641.644 161.171C641.99 161.633 642.182 162.287 642.259 162.903C642.952 167.098 645.492 170.022 648.571 172.755C652.958 176.642 653.15 178.566 650.841 184.146C649.956 186.263 649.34 188.495 648.956 190.727C648.494 193.19 649.61 194.614 652.265 195.268C656.845 196.384 661.078 195.884 665.234 193.844C666.158 193.382 667.428 193.69 668.544 193.652C667.813 194.652 667.313 195.999 666.35 196.577C662.541 198.809 658.423 199.771 653.959 199.155C652.304 198.924 650.495 199.617 648.802 199.578C648.07 199.578 646.762 198.655 646.724 198.116C646.531 193.113 645.377 188.033 647.724 183.107C649.918 178.566 649.879 178.412 645.915 175.025C642.644 172.216 640.412 168.945 639.45 164.673C639.027 162.903 638.103 161.248 637.256 159.632C636.564 158.323 635.563 158.208 635.101 159.786C633.293 165.982 628.367 169.984 624.518 174.718C623.171 176.411 620.285 178.527 620.631 179.605C621.324 181.683 623.825 183.146 625.596 184.8C626.365 185.532 627.404 186.032 628.136 186.763C631.83 190.381 635.486 194.075 639.219 197.693C640.181 198.616 641.336 199.463 642.529 199.963C644.222 200.656 646.069 201.041 647.84 201.541C654.382 203.504 660.809 205.659 664.349 212.278C664.657 212.855 665.504 213.317 666.196 213.471C670.661 214.318 675.086 213.163 678.434 210.662C679.974 209.507 679.474 205.62 680.089 201.849L680.205 201.81ZM1037.15 279.587C1037.15 272.66 1037.15 265.771 1037.15 258.844C1037.15 256.573 1036.34 255.996 1034.41 257.381C1032.03 259.075 1029.56 260.614 1027.29 262.5C1026.56 263.116 1026.02 264.463 1026.02 265.463C1026.02 268.657 1026.25 271.852 1026.52 275.046C1026.83 278.278 1025.41 280.241 1022.6 281.626C1018.17 283.782 1013.75 285.898 1009.48 288.246C1005.97 290.17 1002.78 292.594 999.277 294.519C995.967 296.327 994.582 295.481 994.12 291.709C993.927 290.016 993.927 288.323 993.774 286.668C993.581 284.551 992.427 284.32 991.08 285.59C990.31 286.36 989.656 287.63 989.656 288.669C989.656 291.709 989.848 294.788 990.195 297.828C990.425 299.906 989.925 301.253 988.001 302.331C983.845 304.64 979.881 307.295 975.724 309.643C973.338 310.99 970.798 312.183 968.259 313.183C964.795 314.569 963.41 313.684 962.755 310.143C962.678 309.681 962.755 309.181 962.64 308.758C962.447 308.104 962.063 307.526 961.793 306.911C961.293 307.257 960.639 307.488 960.369 307.95C959.138 310.22 957.637 312.491 956.944 314.954C954.058 325.421 953.25 336.082 954.366 346.934C954.674 349.936 955.636 349.243 957.444 348.127C967.066 342.124 976.648 335.966 986.5 330.386C1001.32 321.958 1016.36 313.992 1031.33 305.756C1032.53 305.102 1033.57 304.063 1034.76 303.447C1036.68 302.485 1037.15 300.984 1037.11 298.944C1036.99 292.479 1037.11 286.052 1037.11 279.587H1037.15ZM696.06 136.002C696.06 136.002 696.291 135.964 696.445 135.926C696.445 135.464 696.368 134.963 696.445 134.54C696.714 133.463 697.099 132.423 697.407 131.384C697.907 132.346 698.639 133.27 698.831 134.309C699.986 140.505 700.948 146.701 702.102 152.897C703.334 159.401 704.796 165.828 705.951 172.332C707.798 182.761 709.414 193.19 711.338 203.619C711.646 205.235 712.878 207.621 714.071 207.891C715.649 208.237 717.996 207.237 719.343 206.082C723.461 202.465 724.385 194.421 721.806 189.495C720.652 187.34 719.497 185.07 718.958 182.722C717.38 175.526 715.956 168.291 714.725 161.017C713.455 153.436 712.493 145.816 711.454 138.196C711.184 136.156 709.068 133.886 711.916 132.077C712.878 133.886 714.456 135.618 714.648 137.465C715.187 143.545 716.842 148.933 721.575 153.089C721.922 153.397 722.037 153.898 722.383 154.205C723.192 154.898 723.961 155.976 724.885 156.168C730.85 157.4 735.737 160.324 739.778 164.789C740.317 165.404 741.664 165.289 742.626 165.52C742.626 164.558 742.818 163.596 742.626 162.672C741.818 158.323 740.74 154.052 740.163 149.703C739.855 147.432 741.279 144.392 740.201 142.891C739.008 141.198 735.891 140.851 733.621 139.928C733.197 139.735 732.736 139.658 732.312 139.428C724.654 135.579 716.611 132.346 712.031 124.226C710.492 121.494 707.952 119.223 705.681 116.953C702.795 114.067 699.1 114.336 697.446 117.876C695.291 122.456 693.867 127.382 692.25 132.193C692.096 132.654 692.597 133.347 692.712 133.924C695.637 146.008 698.523 158.131 701.525 170.215C702.564 174.333 701.448 177.719 699.139 181.029C698.1 182.491 697.099 184.185 696.753 185.878C696.176 188.803 695.021 188.61 692.981 187.263C689.903 185.224 686.786 183.299 683.63 181.414C682.745 180.875 681.667 180.683 680.667 180.375C680.551 181.529 680.205 182.761 680.397 183.877C681.821 192.074 683.591 200.194 683.053 208.584C682.899 210.97 684.284 211.047 686.016 210.469C692.135 208.43 698.215 206.351 704.373 204.312C707.028 203.427 707.875 201.656 707.375 199.001C705.373 187.687 703.488 176.372 701.448 165.058C699.716 155.398 697.792 145.777 695.945 136.156L696.06 136.002ZM917.421 253.071C917.421 253.071 917.229 253.071 917.113 253.071C917.113 247.991 917.075 242.911 917.113 237.832C917.19 232.136 916.921 231.943 911.302 230.52C906.992 229.442 902.72 228.172 898.525 226.748C893.869 225.132 889.366 223.131 884.786 221.437C880.476 219.859 880.361 219.936 880.322 224.362C880.207 233.598 880.284 242.834 880.053 252.032C879.976 254.957 881.169 256.419 883.786 257.574C888.712 259.691 893.484 262.192 898.333 264.463C903.759 267.002 909.262 269.427 914.689 271.928C916.69 272.852 917.459 272.313 917.421 270.12C917.344 264.424 917.421 258.728 917.421 253.071ZM979.15 146.624C978.803 134.771 965.911 126.497 955.097 128.844C954.789 128.921 954.404 130.461 954.674 130.73C956.29 132.423 957.368 134.001 955.674 136.349C955.328 136.811 956.251 138.158 956.521 139.12C956.829 140.274 957.291 141.429 957.214 142.583C957.175 143.314 956.29 143.969 955.79 144.661C955.289 144.046 954.635 143.507 954.25 142.814C953.596 141.66 953.365 140.197 952.519 139.274C951.21 137.773 951.018 136.58 951.903 134.733C952.326 133.847 951.903 132.116 951.172 131.307C950.671 130.73 948.978 130.73 948.054 131.115C943.783 132.924 942.089 136.541 941.435 140.89C941.127 143.007 940.819 145.162 940.127 147.124C937.972 153.205 938.202 154.975 943.205 159.131C945.014 160.632 945.976 162.21 946.13 164.519C946.246 166.366 946.284 168.406 947.092 169.907C948.208 171.908 949.748 174.256 951.672 175.102C954.212 176.218 957.329 176.372 960.215 176.334C964.256 176.257 966.796 173.601 965.834 169.638C964.833 165.52 966.989 165.212 969.721 164.712C972.607 164.173 975.186 162.941 976.032 159.978C977.341 155.283 978.226 150.511 979.15 146.509V146.624ZM657.191 71.0797C657.191 71.0797 658.346 71.2722 658.346 71.5415C658.346 72.3112 658.076 73.2348 657.615 73.8506C655.883 76.3136 653.805 78.5457 652.342 81.1626C651.573 82.5865 651.88 84.3952 654.536 83.3562C655.305 83.0483 656.229 83.1638 657.114 83.0868C657.037 84.0489 657.037 85.0495 656.845 86.0116C656.729 86.5888 656.191 87.1276 656.114 87.6664C656.037 88.5515 656.229 89.4367 656.306 90.2833C657.076 90.0139 657.845 89.7061 658.615 89.4752C659.539 89.2058 661.04 88.5515 661.271 88.8594C663.156 91.2069 664.811 93.7469 666.504 96.2484C666.851 96.7102 667.159 97.2105 667.505 97.6723C667.659 97.1335 667.851 96.6332 667.967 96.0944C668.429 93.4005 668.736 90.6682 669.391 88.0128C669.583 87.2046 671.122 85.8961 671.43 86.0501C674.394 87.5509 675.125 85.011 676.395 83.5101C677.28 82.471 677.973 81.2395 678.896 80.2005C679.858 79.0844 680.936 78.815 681.783 80.4314C682.36 81.5089 682.976 82.5865 683.553 83.7025C684.13 82.471 684.746 81.278 685.246 80.0465C685.439 79.6232 685.362 79.1229 685.516 78.6996C686.401 75.7748 687.555 75.4669 689.479 77.8914C691.173 80.0081 692.712 81.9707 695.829 81.7398C696.407 81.7398 697.33 82.7404 697.561 83.4331C698.1 85.1649 698.292 87.0122 698.639 88.8209C698.754 89.3982 698.793 90.0139 698.87 90.6297C699.177 90.0139 699.678 89.3982 699.793 88.744C701.063 82.0862 696.176 76.0827 697.677 69.4249C695.021 65.3071 691.596 61.8051 686.786 60.843C683.976 60.3042 681.783 59.5345 680.205 57.3024C678.473 54.8009 676.78 55.3012 674.894 57.033C674.124 57.7642 673.432 58.6878 672.546 59.2266C671.238 60.0733 669.737 60.689 668.352 61.3817C667.851 60.0348 667.351 58.6878 666.851 57.3409C666.658 56.8406 666.389 56.3403 666.158 55.84C665.658 56.1479 664.927 56.3018 664.734 56.7636C663.887 58.7263 663.156 60.7275 662.425 62.7287C661.848 64.422 662.848 68.6552 658.923 64.7683C658.692 64.5374 657.461 64.9608 656.999 65.3841C656.075 66.1922 655.305 67.1544 654.613 68.1549C653.882 69.2325 653.343 70.387 652.689 71.5031C653.882 71.3491 655.075 71.2337 657.076 71.0028L657.191 71.0797ZM907.184 201.579C907.377 193.575 902.143 189.265 895.1 191.343C887.057 193.729 878.783 196.153 871.432 200.079C853.884 209.469 837.682 220.898 825.675 237.177C821.326 243.104 817.593 249.492 813.591 255.688C813.283 256.15 813.321 256.804 813.206 257.343C813.745 257.228 814.36 257.189 814.822 256.958C818.902 254.918 821.826 252.109 824.366 247.914C830.216 238.255 839.298 231.328 847.341 223.515C858.078 213.048 870.009 204.697 884.055 199.463C887.711 198.116 891.714 197.423 895.639 197C899.526 196.577 901.219 198.077 902.643 201.579C902.989 202.465 903.798 203.196 904.413 204.004C905.568 203.042 906.684 202.041 907.261 201.541L907.184 201.579ZM682.283 175.179C683.322 176.411 684.246 177.796 685.477 178.835C686.632 179.797 688.132 180.336 689.479 181.106C693.097 183.146 692.943 183.03 695.675 179.643C698.639 176.026 699.408 172.485 697.984 167.79C695.714 160.324 694.598 152.551 692.481 145.046C690.865 139.351 688.594 133.809 686.324 128.306C685.9 127.305 683.938 126.959 682.706 126.304C682.167 127.574 681.051 128.96 681.244 130.114C683.514 144.854 684.361 159.67 682.244 175.179H682.283ZM1002.24 204.812C1002.01 204.042 1002.01 201.656 1000.89 200.733C996.891 197.539 992.465 194.806 988.155 191.958C987.693 191.651 987.039 191.728 986.462 191.612C986.5 192.305 986.462 193.074 986.615 193.729C987.308 195.922 987.847 198.231 988.848 200.233C991.849 206.198 990.348 207.929 984.999 210.777C982.806 211.932 982.613 213.086 983.152 215.126C983.999 218.243 985.038 221.36 985.307 224.516C985.615 228.172 985.346 231.866 981.536 234.137C980.266 234.868 979.188 235.907 978.033 236.831C979.342 237.793 980.65 238.794 981.997 239.679C982.767 240.179 983.729 240.371 984.499 240.833C986.538 242.142 987.77 241.488 988.886 239.525C991.387 235.138 994.043 230.827 996.583 226.44C1000.32 220.052 1001.7 213.086 1002.2 204.774L1002.24 204.812ZM895.831 213.702C894.484 214.356 891.752 215.626 889.058 216.973C888.404 217.281 887.904 217.858 887.326 218.32C887.981 218.859 888.558 219.629 889.328 219.898C898.294 223.015 907.3 226.132 916.343 229.019C920.654 230.366 923.463 228.018 923.54 223.477C923.617 215.819 923.655 208.16 923.771 200.502C923.771 198.77 923.463 198.154 921.731 199.078C915.805 202.311 909.84 205.505 903.913 208.776C903.143 209.199 902.566 209.969 901.912 210.585C902.835 210.97 903.798 211.354 904.721 211.778C909.031 213.702 913.419 215.472 917.536 217.666C918.883 218.397 919.576 220.283 920.577 221.63C918.268 223.285 916.805 221.322 915.381 220.167C910.147 215.934 904.182 213.817 895.908 213.702H895.831ZM816.4 441.182C815.284 439.835 814.938 439.104 814.36 438.757C812.898 437.911 811.359 437.218 809.858 436.448C795.965 429.521 781.918 422.902 768.218 415.59C747.513 404.468 727.078 392.846 706.489 381.493C703.411 379.8 700.293 378.106 697.138 376.49C696.714 376.259 696.099 376.413 695.56 376.374C695.637 376.836 695.56 377.452 695.829 377.683C697.869 379.453 699.793 381.493 702.102 382.801C712.685 388.728 723.384 394.462 734.044 400.235C757.135 412.742 780.263 425.288 803.392 437.718C806.356 439.335 809.511 440.604 812.667 441.797C813.475 442.105 814.63 441.528 816.4 441.22V441.182ZM1051.85 167.752C1051.85 165.751 1051.85 163.75 1051.85 161.787C1051.85 159.94 1051.04 159.516 1049.61 160.671C1045.46 163.98 1040.45 164.943 1035.45 165.481C1032.33 165.789 1031.72 167.136 1031.56 169.83C1031.26 175.911 1030.8 182.03 1030.26 188.11C1030.06 190.227 1030.53 190.381 1032.45 189.726C1038.53 187.725 1043.61 184.185 1048.38 179.99C1050.61 177.989 1051.92 175.834 1051.85 172.87C1051.85 171.177 1051.85 169.484 1051.85 167.79V167.752ZM923.617 184.377C923.694 184.762 923.886 185.801 924.117 186.802C924.887 186.147 925.849 185.609 926.426 184.839C930.429 179.451 935.239 175.025 941.05 171.6C944.668 169.445 945.091 164.789 941.82 162.095C938.857 159.67 936.394 157.092 936.086 153.051C935.932 151.011 934.816 150.896 933.238 151.704C928.774 154.013 926.272 157.785 925.695 162.634C924.848 169.638 924.348 176.719 923.617 184.416V184.377ZM976.764 173.563C976.456 173.563 976.186 173.601 975.878 173.64C975.994 173.986 976.032 174.564 976.302 174.679C980.073 176.603 981.035 180.49 982.998 183.761C983.96 185.339 985.576 186.725 987.193 187.687C990.464 189.649 993.966 191.266 997.353 193.074C1003.86 196.538 1010.32 200.04 1016.86 203.465C1017.29 203.696 1017.94 203.542 1018.48 203.581C1018.36 203.157 1018.33 202.657 1018.1 202.311C1016.29 199.655 1014.48 197 1012.63 194.344C1003.93 181.837 990.579 177.296 976.802 173.563H976.764ZM868.969 215.588C868.854 217.666 868.815 218.897 868.739 220.129C868.585 222.168 869.162 223.169 871.317 221.976C871.702 221.745 872.164 221.591 872.548 221.399C874.665 220.36 876.705 219.59 877.975 216.973C878.552 215.742 882.516 216.473 884.517 215.511C889.174 213.202 893.638 210.469 898.102 207.775C898.91 207.314 899.834 206.313 899.911 205.505C900.219 202.195 897.063 199.078 893.792 200.04C887.673 201.849 881.708 204.273 875.743 206.505C871.163 208.237 867.238 210.469 869.008 215.626L868.969 215.588ZM942.974 319.072C944.052 315.839 943.783 315.569 941.089 317.147C934.623 320.919 928.312 324.96 921.924 328.808C920.076 329.924 920.692 330.501 922.193 331.117C926.888 333.003 931.006 335.389 932.507 340.777C932.661 341.315 934.239 341.893 934.97 341.7C936.394 341.315 937.625 340.045 939.088 339.738C942.359 339.083 943.051 336.928 943.051 334.119C943.051 329.116 943.051 324.074 943.051 319.072H942.974ZM951.095 273.045C945.963 273.07 942.615 275.623 941.05 280.703C940.935 281.126 940.742 281.588 940.588 282.011C939.857 283.782 940.588 284.551 942.359 284.744C947.554 285.359 952.711 285.975 957.906 286.668C960.446 287.014 961.601 286.322 961.331 283.512C961.177 281.896 961.755 280.164 962.024 278.509C962.794 273.66 963.679 268.811 964.333 263.962C964.449 263.154 963.448 261.461 962.948 261.461C958.676 261.461 954.366 261.692 950.094 262.038C949.44 262.077 948.824 262.923 948.17 263.423C948.863 263.808 949.555 264.501 950.286 264.578C951.787 264.732 953.365 264.463 954.905 264.578C957.252 264.732 959.561 265.04 961.909 265.309C960.331 268.426 957.329 266.81 954.982 267.233C952.442 267.695 949.748 267.233 947.169 267.58C946.361 267.695 945.745 269.196 945.053 270.081C945.822 270.312 946.63 270.697 947.4 270.697C950.633 270.697 953.865 270.428 957.06 270.428C957.791 270.428 958.484 271.197 959.215 271.582C958.522 272.082 957.829 272.891 957.098 272.968C955.135 273.16 953.096 273.045 951.095 273.045ZM639.642 218.666C639.835 218.359 640.027 218.012 640.22 217.666C642.336 213.856 642.452 213.856 645.531 216.665C647.57 218.512 649.571 220.437 651.649 222.207C652.304 222.746 653.227 222.977 654.035 223.361C653.843 222.553 653.766 221.707 653.458 220.937C652.689 219.051 652.612 217.281 655.19 217.55C658.538 217.935 660.039 215.703 660.078 213.433C660.078 211.932 658.038 209.777 656.383 208.968C652.304 206.967 647.955 205.428 643.606 203.927C640.335 202.811 634.255 205.428 634.524 208.391C634.87 211.855 637.449 215.126 639.065 218.436C639.104 218.512 639.335 218.512 639.642 218.628V218.666ZM1022.87 272.429C1022.87 271.082 1022.87 270.312 1022.87 269.581C1022.68 265.656 1022.41 265.463 1019.1 267.58C1013.13 271.39 1007.4 275.507 1001.28 278.971C997.43 281.165 996.429 283.936 997.045 287.976C997.506 291.017 997.545 291.094 1000.28 289.593C1006.17 286.36 1012.01 283.05 1018.02 280.01C1021.52 278.24 1024.02 276.239 1022.91 272.429H1022.87ZM1027.79 186.109C1027.14 185.378 1026.22 183.838 1024.91 182.799C1022.14 180.606 1019.06 178.835 1016.33 176.603C1006.13 168.137 993.581 163.903 982.267 157.438C981.574 157.053 980.42 157.515 979.457 157.554C979.804 158.631 979.881 160.017 980.612 160.671C981.69 161.671 983.267 162.172 984.614 162.941C992.581 167.598 1000.7 171.947 1008.36 176.988C1014.09 180.76 1019.25 185.455 1024.64 189.726C1025.22 190.188 1025.91 190.496 1026.56 190.881C1026.87 190.111 1027.22 189.342 1027.45 188.533C1027.6 188.11 1027.56 187.61 1027.76 186.109H1027.79ZM978.033 272.39C977.918 271.082 977.841 269.273 977.61 267.426C976.917 261.268 976.917 261.422 970.798 261.769C968.22 261.923 967.335 262.885 967.027 265.232C966.719 267.657 966.065 270.043 965.642 272.429C963.756 283.012 964.68 283.743 975.032 280.433C977.11 279.779 978.187 278.779 978.033 276.585C977.957 275.354 978.033 274.122 978.033 272.39ZM938.087 239.101C937.895 239.563 937.779 240.718 937.163 241.026C936.548 241.334 935.316 241.103 934.662 240.641C933.7 239.948 933.007 238.871 932.16 237.985C931.468 237.293 930.66 236.715 929.89 236.061C929.736 236.946 929.659 237.832 929.39 238.678C928.966 239.91 928.427 241.103 927.927 242.334C926.85 241.449 925.734 240.564 924.694 239.64C924.387 239.371 924.348 238.486 924.117 238.486C923.309 238.409 922.385 238.37 921.654 238.64C920.885 238.948 920.23 239.64 919.538 240.179C920.115 240.641 920.615 241.18 921.269 241.488C926.542 243.95 931.814 246.49 937.202 248.761C938.587 249.338 940.358 249.377 941.897 249.184C942.59 249.107 943.821 248.261 941.897 247.106C938.857 245.297 939.203 243.412 942.551 242.219C944.552 241.488 946.746 241.218 945.938 238.101C945.822 237.716 947.246 236.715 948.093 236.331C949.093 235.869 950.248 235.753 951.364 235.484C950.44 234.522 949.594 233.444 948.593 232.598C947.67 231.828 946.592 231.174 945.514 230.597C944.052 229.788 942.667 229.096 942.474 231.866C942.436 232.559 940.781 233.752 940.05 233.637C936.586 233.021 936.971 234.714 937.779 236.908C937.972 237.485 937.972 238.101 938.125 239.178L938.087 239.101ZM851.074 417.283C850.651 415.474 850.459 414.474 850.228 413.473C849.266 413.896 848.265 414.204 847.38 414.743C842.492 417.86 837.643 421.016 832.756 424.172C828.792 426.75 824.636 429.059 820.98 431.984C819.864 432.908 820.095 435.486 819.71 437.295C820.864 437.141 822.211 437.372 823.135 436.795C831.717 431.522 840.299 426.173 848.727 420.67C849.92 419.9 850.459 418.168 851.074 417.245V417.283ZM754.864 150.588C754.595 151.088 754.287 151.473 754.133 151.935C753.479 154.282 752.786 156.63 752.286 159.016C751.747 161.748 752.516 163.98 754.825 165.866C756.75 167.444 758.174 168.56 760.752 166.944C761.714 166.328 763.677 167.021 765.101 167.483C766.371 167.906 767.448 168.906 768.718 169.445C769.603 169.83 770.642 169.792 771.643 169.945C771.451 169.099 771.451 168.175 771.104 167.406C767.987 160.902 763.33 155.745 757.211 151.896C756.557 151.473 755.865 151.165 754.902 150.588H754.864ZM986.692 294.788C986.692 293.403 986.846 292.171 986.615 290.978C986.539 290.516 985.269 289.785 985.038 289.939C978.996 293.787 972.992 297.751 967.027 301.677C966.758 301.831 966.411 302.062 966.373 302.292C966.219 304.64 966.142 306.988 966.065 309.335C967.604 309.027 969.298 309.027 970.606 308.296C974.916 305.987 978.957 303.178 983.306 300.984C986.154 299.522 987.732 297.905 986.654 294.788H986.692ZM1032.76 154.129C1032.68 158.246 1032.91 158.439 1036.07 157.092C1038.88 155.86 1041.65 154.475 1044.46 153.282C1046.88 152.281 1050.58 152.089 1051.54 150.357C1052.65 148.356 1051.38 145.046 1051.19 142.314C1051.19 142.16 1051.19 142.006 1051.19 141.852C1051.35 139.697 1050.31 139.428 1048.69 140.39C1044.5 142.93 1040.42 145.662 1036.14 148.048C1033.26 149.664 1032.6 152.05 1032.76 154.167V154.129ZM811.243 468.852C811.243 468.852 811.359 468.852 811.436 468.852C811.436 469.314 811.359 469.814 811.436 470.237C811.782 471.7 812.167 473.124 812.552 474.547C814.053 473.893 815.823 473.547 816.977 472.546C822.481 467.697 824.174 461.694 821.826 454.651C821.365 453.227 821.057 452.419 819.517 454.074C817.978 455.729 815.938 456.922 814.206 458.384C813.475 459 812.513 459.808 812.359 460.655C811.82 463.349 811.59 466.119 811.205 468.852H811.243ZM675.433 219.975C675.433 219.975 675.433 219.975 675.433 220.013C678.665 220.013 681.898 220.013 685.131 220.013C687.093 220.013 687.478 218.782 687.17 217.243C686.978 216.165 686.401 214.279 686.016 214.279C682.86 214.279 679.512 214.125 676.549 215.01C672.777 216.165 669.198 216.858 665.273 216.396C664.272 216.28 663.118 217.396 662.04 217.974C662.964 218.628 663.887 219.782 664.85 219.821C668.352 220.052 671.892 219.898 675.433 219.898V219.975ZM750.708 150.896C751.208 147.74 748.783 145.046 745.397 145.47C744.396 145.585 743.357 148.356 743.011 150.011C741.741 156.284 745.859 160.94 748.245 166.136C748.322 166.328 748.745 166.559 748.937 166.52C749.13 166.443 749.361 166.097 749.399 165.866C749.861 160.902 750.284 155.899 750.746 150.934L750.708 150.896ZM697.292 404.622C698.023 406.623 698.754 409.24 699.986 411.626C700.486 412.626 702.064 413.05 703.141 413.743C703.642 412.434 704.45 411.126 704.527 409.779C704.719 406.623 704.296 403.429 704.642 400.273C705.065 396.81 702.487 396.502 700.447 395.886C697.638 395.039 698.831 397.733 698.408 398.849C697.83 400.389 697.715 402.12 697.253 404.583L697.292 404.622ZM651.38 336.505C652.227 338.121 652.573 339.814 653.651 340.738C657.461 343.971 661.501 346.973 665.542 349.936C666.043 350.282 666.889 350.128 667.582 350.205C667.466 349.474 667.582 348.627 667.197 348.089C665.273 345.356 662.694 342.97 661.309 340.007C659.5 336.158 655.883 336.543 652.958 335.312C652.689 335.196 652.034 336.005 651.38 336.505ZM1036.8 335.196C1036.57 335.158 1036.38 335.119 1036.14 335.081C1036.14 333.426 1036.34 331.694 1036.07 330.078C1035.88 329.077 1034.99 328.192 1034.37 327.269C1033.53 328.077 1032.03 328.808 1031.99 329.655C1031.76 333.965 1031.83 338.314 1031.99 342.662C1031.99 343.24 1032.8 343.817 1033.22 344.394C1033.8 343.932 1034.72 343.586 1034.91 343.009C1035.64 340.43 1036.18 337.813 1036.8 335.196ZM809.05 466.004C809.05 466.004 809.204 466.004 809.242 466.004C809.011 463.118 808.934 460.231 808.511 457.384C808.395 456.537 807.356 455.844 806.741 455.074C806.086 455.806 805.201 456.421 804.855 457.268C802.892 462.04 804.124 466.581 806.202 470.968C806.625 471.854 807.549 472.508 808.241 473.278C808.511 472.238 808.934 471.199 809.05 470.16C809.204 468.813 809.05 467.428 809.05 466.042V466.004ZM925.58 211.277C925.58 211.277 925.888 211.277 926.041 211.316C926.041 213.933 925.887 216.55 926.118 219.128C926.195 219.898 927.427 220.552 928.12 221.283C928.543 220.475 929.313 219.705 929.351 218.897C929.697 213.394 929.967 207.891 930.044 202.388C930.044 201.426 929.082 200.463 928.543 199.501C927.966 200.233 926.965 200.925 926.85 201.733C926.272 204.889 926.003 208.083 925.618 211.277H925.58ZM979.034 229.48C977.841 229.634 976.764 229.442 976.032 229.865C971.029 232.829 966.103 235.869 961.177 238.986C960.677 239.294 960.562 240.179 960.254 240.833C961.062 240.833 962.063 241.141 962.678 240.833C968.259 237.985 973.8 235.061 979.303 232.059C980.035 231.674 980.535 230.904 981.151 230.289C980.343 230.019 979.573 229.75 978.996 229.519L979.034 229.48ZM1028.02 339.93C1028.02 339.43 1027.91 338.66 1028.02 337.929C1028.52 334.889 1026.06 335.004 1024.33 334.427C1022.02 333.657 1021.71 335.581 1021.48 336.967C1021.25 338.391 1021.21 340.007 1021.71 341.315C1022.48 343.432 1023.68 346.087 1026.37 345.549C1029.26 344.971 1028.18 342.239 1028.02 339.93ZM808.665 446.993C808.665 447.647 808.626 447.955 808.626 448.263C808.626 451.342 810.397 453.227 813.706 453.42C816.246 453.574 816.939 451.611 817.401 449.571C818.093 446.377 816.362 445.53 813.591 445.646C813.013 445.646 812.398 445.338 811.859 445.069C809.281 443.722 808.126 444.337 808.665 447.031V446.993ZM699.023 212.624C699.177 211.239 698.716 210.084 696.445 211.008C695.021 211.585 693.52 211.97 692.096 212.432C689.325 213.356 690.018 215.703 690.518 217.435C691.25 219.975 693.097 218.243 694.174 217.627C696.099 216.55 699.331 216.665 699.062 212.624H699.023ZM1034.03 162.826C1039.76 161.864 1045.15 160.94 1049.42 156.976C1049.84 156.591 1050.08 156.014 1050.38 155.552C1049.73 155.398 1049.08 155.168 1048.38 155.091C1047.96 155.052 1047.46 155.168 1047.07 155.36C1042.76 157.246 1038.45 159.17 1034.14 161.094C1033.64 161.325 1033.3 161.825 1032.87 162.21C1033.34 162.441 1033.8 162.672 1034.07 162.826H1034.03ZM981.882 224.516C981.035 221.129 980.304 218.012 979.419 214.933C979.265 214.433 978.226 213.663 977.918 213.779C977.187 214.087 976.032 215.01 976.109 215.434C976.879 218.82 977.841 222.168 978.919 225.478C979.034 225.863 980.304 226.209 980.881 226.017C981.382 225.863 981.651 224.939 981.92 224.516H981.882ZM865.621 219.821C865.621 218.589 865.737 217.358 865.621 216.165C865.506 215.241 865.044 214.356 864.736 213.471C864.005 214.318 862.735 215.126 862.62 216.05C862.273 218.589 862.312 221.245 862.35 223.823C862.35 224.593 862.889 225.401 863.197 226.171C864.005 225.44 865.275 224.824 865.583 223.939C866.006 222.707 865.698 221.206 865.66 219.859L865.621 219.821ZM950.056 245.22C951.518 246.413 952.826 247.453 954.135 248.53C955.52 246.798 959.253 248.684 959.253 245.875C959.253 244.528 956.79 242.488 955.097 241.988C953.75 241.603 951.518 242.527 950.056 245.22ZM657.037 323.882C653.227 323.882 652.15 325.114 652.689 329.154C652.804 330.04 653.959 331.271 654.805 331.425C655.613 331.579 656.922 330.732 657.499 329.924C658.153 328.962 658.038 327.538 658.615 326.461C659.924 324.074 658.961 323.536 657.076 323.844L657.037 323.882ZM703.334 213.548C705.373 212.817 707.144 212.278 708.76 211.508C709.376 211.239 710.184 210.046 710.068 209.815C709.26 208.584 708.298 206.659 707.182 206.505C704.719 206.198 702.064 209.623 702.41 212.047C702.487 212.586 703.064 213.086 703.334 213.548ZM701.948 391.537C702.449 391.961 703.411 393.461 704.373 393.461C706.22 393.461 708.067 392.653 709.876 392.153C709.106 391.268 708.414 390.344 707.605 389.498C707.182 389.074 706.643 388.728 706.143 388.42C702.718 386.226 702.295 386.419 701.948 391.537ZM932.969 210.354C933.084 211.008 933.392 212.547 933.661 214.048C934.277 212.663 934.97 211.316 935.47 209.892C936.009 208.314 936.471 206.659 936.586 205.005C936.625 204.427 935.547 203.773 934.97 203.119C934.431 203.696 933.507 204.196 933.392 204.851C933.084 206.313 933.161 207.891 933.007 210.315L932.969 210.354ZM1055.93 145.085C1055.93 145.085 1055.77 145.085 1055.73 145.085C1055.73 143.238 1055.77 141.429 1055.73 139.582C1055.73 139.081 1055.35 138.581 1055.12 138.119C1054.81 138.542 1054.27 138.966 1054.23 139.428C1054.16 141.429 1054.12 143.391 1054.27 145.393C1054.42 147.509 1054.85 149.626 1055.16 151.742C1055.43 149.549 1055.69 147.355 1055.96 145.162L1055.93 145.085ZM1026.14 332.926C1027.18 331.848 1027.76 331.271 1028.29 330.694C1026.99 329.693 1025.72 328.539 1024.25 327.807C1023.95 327.654 1022.91 329 1022.17 329.655C1023.33 330.617 1024.45 331.54 1026.1 332.926H1026.14ZM1027.02 395.617C1025.98 394.154 1025.25 393.115 1024.48 392.076C1023.91 393.192 1022.94 394.27 1022.94 395.386C1022.94 396.309 1024.02 397.233 1024.64 398.195C1025.37 397.425 1026.1 396.656 1027.06 395.655L1027.02 395.617ZM960.562 181.529C959.022 180.529 958.099 179.836 957.06 179.374C956.906 179.297 955.867 180.413 955.944 180.644C956.482 181.799 957.252 182.876 957.906 183.992C958.561 183.376 959.253 182.722 960.523 181.529H960.562ZM966.604 284.205C965.949 284.744 964.949 285.59 963.948 286.399C964.333 286.783 964.987 287.553 965.103 287.476C966.488 286.629 967.797 285.667 969.105 284.744C968.528 284.628 967.989 284.513 966.604 284.205ZM1052.77 408.239C1051.65 410.01 1050.85 411.087 1050.31 412.28C1050.19 412.55 1051.08 413.242 1051.46 413.743C1052.08 412.819 1052.81 411.934 1053.19 410.933C1053.39 410.394 1053 409.625 1052.77 408.201V408.239ZM1042.42 366.753C1041.34 366.369 1040.38 365.907 1039.38 365.714C1039.15 365.676 1038.38 366.715 1038.49 366.907C1038.99 367.754 1039.69 368.524 1040.34 369.293C1040.65 368.908 1040.99 368.524 1042.46 366.753H1042.42ZM690.826 127.959C691.25 126.959 691.558 126.343 691.711 125.65C691.711 125.496 690.98 124.958 690.903 124.996C690.365 125.381 689.787 125.843 689.479 126.42C689.402 126.574 690.134 127.19 690.826 127.959ZM1030.03 313.953C1029.91 313.337 1029.79 312.645 1029.68 311.914C1029.53 312.298 1029.26 312.683 1029.26 313.068C1029.26 313.953 1029.45 314.8 1029.53 315.685C1029.68 315.146 1029.83 314.607 1029.99 313.953H1030.03ZM951.556 239.294L951.826 239.178L951.556 239.063V239.255V239.294Z" fill="#3A352F"/>
<path d="M754.866 287.557C755.597 282.477 756.829 278.282 762.178 276.627C765.065 275.742 767.643 273.856 770.529 272.817C773.8 271.624 776.032 273.087 776.61 276.358C776.687 276.896 776.533 277.897 776.302 277.974C775.686 278.128 774.57 278.166 774.339 277.782C772.569 274.895 770.529 276.127 768.49 277.243C768.066 277.474 767.72 277.782 767.258 277.897C761.101 279.744 757.714 283.631 757.868 290.289C757.868 290.828 757.137 291.405 756.752 291.944C756.252 291.443 755.559 290.982 755.328 290.366C754.982 289.365 754.982 288.288 754.866 287.557Z" fill="#3A352F"/>
<path d="M595.928 177.376C595.735 178.569 595.543 179.954 595.312 181.378C595.197 180.031 594.966 178.684 595.004 177.337C595.004 175.952 595.312 174.566 595.466 173.142C595.62 174.489 595.735 175.836 595.928 177.414V177.376Z" fill="#3A352F"/>
<path d="M780.266 170.947C780.612 170.139 780.843 169.6 781.036 169.062C781.42 169.947 781.959 170.832 782.152 171.755C782.267 172.179 781.767 172.756 781.536 173.256C781.074 172.448 780.651 171.64 780.227 170.909L780.266 170.947Z" fill="#3A352F"/>
<path d="M802.783 299.674C808.055 301.175 813.482 302.291 818.6 304.215C831.223 308.987 842.268 316.492 852.62 325.074C853.428 325.766 853.89 326.844 854.544 327.729C853.274 327.729 851.696 328.306 850.811 327.729C846.578 324.958 842.499 321.918 838.381 318.993C829.568 312.72 820.062 307.679 809.633 304.638C806.593 303.753 803.245 304.061 800.051 303.561C798.896 303.407 797.819 302.56 796.741 302.06C797.895 301.521 799.05 300.905 800.243 300.521C800.936 300.29 801.782 300.482 802.552 300.482C802.629 300.213 802.706 299.905 802.783 299.635V299.674Z" fill="#3A352F"/>
<path d="M852.424 283.974C853.194 284.205 853.81 284.359 854.349 284.628C859.159 287.053 863.97 289.4 868.703 291.979C869.511 292.402 869.781 293.787 870.319 294.75C869.319 294.788 868.164 295.211 867.395 294.827C862.43 292.364 857.543 289.785 852.694 287.13C852.039 286.745 851.578 285.821 851.27 285.052C851.193 284.898 852.039 284.32 852.463 283.936L852.424 283.974Z" fill="#3A352F"/>
<path d="M719.46 329.847C732.198 329.5 743.397 334.58 754.48 339.853C761.677 343.278 768.604 347.319 775.877 350.628C783.112 353.899 787.538 359.48 790.617 366.407C792.272 370.178 793.542 374.142 794.542 378.144C795.235 380.915 793.734 381.954 791.156 380.684C780.149 375.258 769.143 369.755 758.213 364.213C745.744 357.902 733.352 351.475 720.884 345.164C716.381 342.854 711.686 340.853 707.183 338.544C703.219 336.505 703.065 335.081 706.644 332.31C708.145 331.155 710.146 330.617 712.032 330.078C713.187 329.731 714.457 329.924 715.688 329.885C716.92 329.885 718.151 329.885 719.383 329.885L719.46 329.847ZM719.306 331.963C716.881 332.425 713.879 332.887 710.916 333.58C710.3 333.734 709.8 334.542 709.261 335.042C709.8 335.504 710.262 336.12 710.878 336.428C714.88 338.39 718.959 340.199 722.923 342.2C735.777 348.704 748.592 355.4 761.484 361.827C769.989 366.099 778.61 370.101 787.23 374.181C787.884 374.488 788.654 374.527 789.385 374.681C789.424 373.95 789.77 373.103 789.501 372.526C786.268 364.79 782.535 357.555 774.338 353.63C764.486 348.935 754.98 343.586 745.09 338.968C737.162 335.273 728.773 332.81 719.306 331.925V331.963Z" fill="#3A352F"/>
<path d="M1035.03 221.131C1034.72 225.826 1034.37 231.33 1033.91 236.833C1033.84 237.718 1033.03 238.565 1032.57 239.411C1032.1 238.449 1031.33 237.526 1031.18 236.525C1030.95 234.87 1031.1 233.138 1031.18 231.445C1031.3 225.018 1031.41 218.591 1031.6 212.165C1031.6 211.125 1032.3 210.125 1032.64 209.124C1033.26 210.086 1034.3 211.01 1034.45 212.049C1034.84 214.781 1034.84 217.552 1035.03 221.131Z" fill="#3A352F"/>
<path d="M914.767 341.818C915.421 345.744 912.996 348.245 909.071 350.054C897.449 355.326 885.865 360.676 874.358 366.179C870.933 367.795 867.932 370.258 864.506 371.913C860.85 373.683 860.158 373.183 858.811 369.412C856.733 363.677 857.926 360.83 863.083 357.174C873.55 349.746 884.865 344.012 896.718 339.163C899.566 338.009 902.182 336.315 904.915 334.968C912.111 331.389 914.998 333.198 914.805 341.818H914.767ZM911.573 341.164C911.573 337.431 910.61 336.7 907.262 338.162C904.299 339.432 901.567 341.241 898.565 342.396C888.097 346.475 878.091 351.401 868.817 357.751C866.931 359.059 864.968 360.252 863.121 361.638C861.389 362.985 860.466 366.949 861.851 368.334C863.891 370.412 865.315 368.026 866.854 367.102C868.701 366.025 870.279 364.486 872.203 363.562C884.018 358.059 895.871 352.671 907.724 347.322C910.457 346.09 911.65 344.05 911.611 341.126L911.573 341.164Z" fill="#3A352F"/>
<path d="M943.787 151.13C944.326 149.475 943.018 146.435 946.52 146.05C949.291 145.742 952.215 148.09 952.523 151.168C952.716 153.246 953.447 153.901 955.333 154.978C957.218 156.017 958.065 159.019 959.258 161.213C959.373 161.444 958.95 162.29 958.758 162.329C958.065 162.329 957.026 162.367 956.718 161.982C955.679 160.674 954.871 159.519 953.37 161.405C952.754 160.905 951.6 160.327 951.677 159.943C952.177 157.249 950.753 157.056 948.598 156.941C944.442 156.748 943.595 155.632 943.787 151.168V151.13Z" fill="#3A352F"/>
<path d="M970.952 154.82C970.645 156.859 971.491 159.476 968.451 159.938C965.873 160.323 962.948 157.975 962.447 155.358C962.255 154.319 962.217 153.242 962.332 152.164C962.486 150.163 961.716 147.585 964.795 147.084C967.373 146.661 970.067 148.778 970.645 151.702C970.875 152.741 970.876 153.819 970.952 154.82Z" fill="#3A352F"/>
<path d="M954.521 166.326C956.06 167.019 958.485 167.981 960.678 169.251C961.217 169.559 961.255 171.137 961.102 172.06C961.063 172.368 959.447 172.715 958.754 172.445C956.022 171.522 953.366 170.406 950.749 169.251C950.287 169.059 949.672 168.404 949.71 167.981C949.71 167.558 950.364 166.904 950.826 166.75C951.673 166.48 952.635 166.48 954.559 166.288L954.521 166.326Z" fill="#3A352F"/>
<path d="M694.796 114.991C694.488 115.299 694.18 115.607 693.834 115.915C693.526 115.915 693.18 116.03 692.91 115.953C688.677 114.722 684.559 114.029 680.365 116.53C679.749 116.877 677.363 115.645 676.901 114.606C675.823 112.22 676.939 109.449 679.172 108.872C682.904 107.91 686.945 107.41 690.755 107.833C694.488 108.218 695.027 111.681 694.758 114.991H694.796ZM687.715 111.143C687.792 111.412 687.869 111.681 687.946 111.989L690.563 111.374C689.716 110.835 688.87 109.834 688.023 109.873C685.791 109.95 683.597 110.411 681.404 110.912C680.903 111.027 680.634 112.105 680.288 112.72C680.942 112.72 681.596 112.951 682.212 112.797C684.059 112.336 685.906 111.72 687.753 111.181L687.715 111.143Z" fill="#3A352F"/>
<path d="M670.699 98.8637C671.93 97.6707 672.815 96.824 673.662 96.0159C674.508 97.0934 676.048 98.2095 676.009 99.2485C675.971 100.249 674.278 101.173 673.277 102.135C672.507 101.211 671.776 100.249 670.66 98.9022L670.699 98.8637Z" fill="#3A352F"/>
<path d="M688.293 99.1752C687.677 99.714 686.984 100.445 686.869 100.368C686.061 99.7909 685.022 99.1752 684.637 98.3285C684.098 97.174 684.098 95.7501 683.829 94.4416C684.368 94.4031 685.214 94.1338 685.368 94.3262C686.369 95.8271 687.254 97.4049 688.293 99.1367V99.1752Z" fill="#3A352F"/>
<path d="M949.788 280.744C952.097 280.744 954.367 280.629 956.676 280.821C957.407 280.86 958.062 281.668 958.754 282.091C958.062 282.784 957.369 284.054 956.715 284.016C953.521 283.862 950.326 283.4 947.171 282.938C946.516 282.823 945.978 282.168 945.4 281.745C946.093 281.322 946.747 280.744 947.517 280.514C948.21 280.321 949.056 280.475 949.788 280.475C949.788 280.552 949.788 280.667 949.788 280.744Z" fill="#3A352F"/>
<path d="M950.56 278.929C948.405 278.583 946.211 278.236 944.056 277.851C945.557 274.965 948.366 276.543 950.521 276.081C952.446 275.696 954.485 275.696 956.448 275.735C957.179 275.735 957.872 276.466 958.565 276.889C957.91 277.39 957.256 278.275 956.525 278.352C954.562 278.544 952.561 278.429 950.598 278.429C950.598 278.583 950.598 278.737 950.56 278.89V278.929Z" fill="#3A352F"/>
<path d="M1163.32 425.242C1164.5 430.242 1165.51 435.323 1166.94 440.242C1167.67 442.762 1167.83 444.226 1164.5 444.104C1162.91 444.023 1161.24 444.388 1159.7 444.836C1158.64 445.12 1157.46 445.689 1156.81 446.502C1153.52 450.608 1154.9 459.714 1159.42 462.356C1168.93 467.966 1178.52 473.372 1188.2 478.616C1189.33 479.226 1191.45 478.86 1192.71 478.21C1197.59 475.649 1202.3 472.763 1207.1 470.039C1209.25 468.82 1210.55 467.275 1210.51 464.633C1210.51 462.885 1211.41 461.015 1211.16 459.348C1210.31 453.819 1213.81 451.502 1217.91 449.51C1218.44 449.266 1219.09 449.145 1219.66 448.982C1219.66 449.592 1219.9 450.242 1219.74 450.811C1217.55 458.616 1215.15 466.381 1213.07 474.226C1211.9 478.616 1210.96 483.047 1210.27 487.519C1209.7 491.3 1211.2 493.169 1214.58 493.942C1218.03 494.714 1219.25 494.023 1220.27 490.568C1222.26 483.86 1224.13 477.153 1226.12 470.486C1226.57 468.942 1226.94 466.868 1228.03 466.137C1230.15 464.754 1232.75 464.145 1235.19 463.413C1235.47 463.332 1236.53 464.429 1236.45 464.714C1235.88 466.34 1235.35 468.088 1234.29 469.389C1230.96 473.657 1229.86 478.413 1231.08 483.616C1233.07 491.909 1241.33 494.308 1247.59 488.535C1248.68 487.519 1249.82 486.503 1250.96 485.486C1251 487.112 1251.12 488.739 1251.08 490.365C1251 496.015 1251 501.706 1250.64 507.357C1250.55 508.657 1249.34 510.243 1248.2 511.097C1244.09 514.227 1240.92 517.967 1238.68 522.641C1237.34 525.446 1236.69 528.211 1238.56 530.934C1240.51 533.698 1243.6 534.064 1246.45 533.333C1249.86 532.479 1253.16 531.015 1256.37 529.552C1258.03 528.78 1258.64 528.82 1258.81 530.772C1259.05 533.658 1259.5 536.544 1259.82 539.43C1260.27 543.455 1262.18 545.04 1266 543.82C1269.99 542.52 1274.05 541.097 1277.55 538.861C1279.95 537.316 1282.14 534.511 1283.12 531.828C1285.39 525.609 1286.94 519.105 1288.6 512.682C1289.58 508.983 1294.82 504.755 1298.48 505.121C1300.07 505.283 1301.65 510.771 1300.27 512.438C1296.41 517.154 1296.53 522.682 1296.9 528.211C1297.18 532.316 1298.93 534.389 1302.99 534.268C1306.98 534.146 1311.17 533.658 1314.78 532.154C1322.34 528.983 1325.72 519.552 1322.67 511.95C1320.68 506.909 1317.38 505.324 1311.21 506.381C1310.11 506.584 1308.89 507.438 1307.95 507.194C1306.57 506.788 1304.99 505.934 1304.3 504.796C1303.93 504.145 1304.95 502.275 1305.8 501.422C1306.77 500.405 1308.24 499.836 1309.54 499.186C1318.32 494.958 1327.1 490.73 1335.92 486.625C1339.54 484.917 1339.5 485.039 1340.88 489.064C1342.14 492.722 1343.69 496.34 1345.11 499.958C1348.28 508.088 1355.23 510.771 1362.91 511.381C1392.75 513.698 1418.61 493.779 1427.1 469.348C1429.74 461.706 1432.75 454.023 1434.17 446.096C1436.17 434.917 1436.78 423.656 1431.04 412.843C1427.1 405.445 1421.57 400.648 1413.61 398.534C1402.47 395.567 1391.49 395.526 1380.92 400.811C1380.39 401.095 1379.74 401.136 1379.13 401.298C1379.17 400.526 1379.13 399.713 1379.26 398.981C1381.29 388.819 1383.52 378.697 1385.39 368.493C1387.75 355.607 1389.95 342.639 1391.9 329.672C1392.71 324.306 1394.62 320.728 1400.35 319.387C1405.07 318.289 1409.62 316.46 1414.05 314.509C1415.19 314.021 1416.04 311.744 1416.09 310.24C1416.13 307.598 1413.2 304.915 1410.76 304.752C1410.27 304.752 1409.78 304.752 1409.34 304.915C1400.72 307.72 1392.02 310.362 1383.48 313.452C1382.06 313.98 1380.92 316.257 1380.39 317.964C1379.58 320.566 1379.26 323.371 1379.01 326.094C1378.77 328.574 1377.79 328.655 1375.84 327.639C1372.83 326.054 1369.66 324.793 1366.73 323.086C1365.84 322.558 1364.99 321.216 1364.91 320.159C1363.6 303.086 1356.21 288.736 1345.15 276.053C1344.42 275.199 1343.77 273.939 1342.83 273.614C1337.79 272.029 1339.21 268.614 1340.11 265.199C1343.6 252.353 1340.27 240.849 1331.61 231.378C1323.36 222.312 1309.86 218.532 1298.08 225.89C1292.75 229.223 1289.34 233.207 1288.16 238.939C1285.56 251.784 1286.37 264.427 1291.82 276.581C1292.22 277.476 1292.55 278.451 1293.2 279.142C1295.39 281.703 1294.13 283.004 1292.34 285.443C1289.58 289.265 1287.3 293.858 1286.33 298.452C1284.34 307.801 1283.12 317.314 1281.94 326.826C1281.33 331.785 1278.97 334.468 1274.25 336.176C1269.9 337.761 1265.88 340.403 1261.94 342.883C1260.11 344.062 1258.52 344.509 1256.53 343.615C1253.44 342.233 1250.31 340.81 1247.14 339.59C1243.24 338.086 1241.37 339.224 1241.61 343.33C1241.81 346.867 1242.59 350.403 1243.56 353.818C1244.29 356.298 1244.29 358.005 1242.1 359.753C1238.81 362.395 1237.02 365.973 1236.45 370.2C1236.33 371.176 1235.76 372.355 1234.99 372.924C1230.11 376.461 1228.89 381.501 1228.68 387.03C1228.6 388.819 1228.93 390.729 1228.36 392.355C1227.14 395.892 1225.96 398.941 1221.33 400.363C1216.37 401.868 1212.1 405.607 1207.59 408.494C1206.08 409.469 1204.86 410.851 1203.44 411.908C1198.93 415.242 1198.89 415.242 1195.72 410.526C1191.2 403.778 1182.79 400.607 1175.19 403.209C1167.95 405.689 1165.59 411.99 1164.33 418.738C1163.93 420.77 1164.29 422.965 1164.29 425.079C1163.97 425.16 1163.6 425.201 1163.28 425.282L1163.32 425.242ZM1331.29 275.159C1331.29 275.159 1331.33 274.996 1331.37 274.915C1331.37 274.996 1331.33 275.077 1331.29 275.159ZM1203.52 418.494C1203.2 418.86 1202.83 419.225 1202.51 419.551C1202.46 429.754 1202.46 439.917 1202.3 450.12C1202.3 451.584 1201.98 453.657 1201.04 454.388C1198.32 456.38 1195.23 457.884 1192.22 459.429C1191.49 459.795 1190.43 459.429 1189.5 459.429C1189.54 458.657 1189.5 457.884 1189.66 457.153C1191.77 447.031 1193.89 436.909 1196.04 426.787C1196.25 425.852 1196.85 424.185 1196.94 424.185C1200.84 425.079 1200.27 420.567 1202.59 419.632C1202.95 419.266 1203.28 418.9 1203.64 418.575L1203.72 418.412L1203.56 418.494H1203.52ZM1308.85 386.42C1313.28 387.924 1317.67 389.469 1322.1 390.973C1323.32 391.38 1323.93 391.867 1322.38 392.721C1319.09 394.469 1315.84 396.298 1312.47 397.843C1311.94 398.087 1310.31 397.315 1310.23 396.867C1309.66 393.371 1309.34 389.835 1308.89 386.339L1308.73 386.217L1308.81 386.42H1308.85ZM1193.77 472.194L1193.64 472.316L1193.85 472.275C1194.66 469.307 1194.74 465.689 1196.53 463.535C1198.56 461.096 1202.1 459.876 1205.03 458.21C1205.55 457.884 1206.2 457.844 1206.81 457.641C1206.85 458.25 1206.94 458.86 1206.94 459.47C1207.06 464.307 1205.07 467.559 1200.27 469.145C1197.99 469.876 1195.92 471.177 1193.77 472.234V472.194ZM1230.76 440.974L1230.88 440.892L1230.68 440.974C1229.86 443.738 1228.77 446.462 1228.32 449.307C1227.99 451.177 1228.6 453.21 1228.77 455.202C1230.6 454.998 1232.63 455.242 1234.29 454.592C1240.72 451.949 1247.02 449.023 1253.4 446.218C1253.85 446.014 1254.58 446.34 1255.15 446.421C1254.62 448.047 1255.88 450.079 1252.99 451.096C1244.94 453.982 1236.98 457.234 1229.13 460.649C1227.14 461.543 1224.94 463.413 1224.13 465.405C1221.57 471.665 1219.7 478.21 1217.42 484.633C1216.9 486.177 1215.92 487.519 1215.11 488.982C1215.03 487.316 1214.46 485.527 1214.9 484.023C1218.2 472.031 1221.49 460.039 1225.27 448.169C1226.12 445.486 1228.85 443.372 1230.72 440.974H1230.76ZM1328.48 288.004C1328.56 287.435 1328.65 286.866 1328.69 286.297C1328.77 286.419 1328.89 286.541 1328.89 286.622C1328.77 287.069 1328.56 287.517 1328.4 287.964C1327.63 291.947 1326.94 295.931 1326.04 299.874C1324.13 308.248 1322.1 316.582 1320.03 324.915C1319.86 325.566 1319.21 326.094 1318.81 326.704C1318.48 326.176 1317.99 325.728 1317.79 325.119C1315.07 316.46 1312.38 307.801 1309.7 299.143C1309.5 298.452 1309.58 297.639 1309.54 296.866C1310.07 297.191 1310.6 297.517 1311.17 297.842C1315.51 300.159 1319.78 299.671 1322.99 295.972C1325.07 293.573 1326.65 290.687 1328.48 288.045V288.004ZM1262.02 525.853C1261.81 525.934 1261.57 526.015 1261.37 526.137C1261.61 526.056 1261.86 526.015 1262.1 525.934C1264.38 522.479 1265.96 518.129 1269.09 515.771C1272.14 513.454 1271.86 511.056 1271.98 508.251C1272.18 503.088 1271.98 497.844 1272.67 492.722C1274.13 482.641 1276.12 472.641 1277.83 462.6C1278.73 457.478 1278.77 457.437 1282.75 460.324C1283.52 460.893 1284.34 461.584 1285.23 461.828C1288.32 462.6 1288.08 464.389 1287.38 466.95C1284.82 476.503 1282.47 486.096 1280.07 495.69C1278.12 503.535 1276.29 511.462 1274.38 519.308C1273.97 520.975 1273.69 522.641 1271.29 523.089C1268.12 523.698 1265.11 524.877 1262.02 525.853ZM1267.1 427.396C1263.52 427.478 1259.58 425.689 1257.26 422.762C1256 421.177 1255.92 420.364 1258.08 419.185C1265.35 415.242 1272.47 411.014 1279.58 406.786C1280.39 406.298 1280.84 405.16 1281.45 404.307C1280.35 404.022 1279.09 403.25 1278.16 403.575C1274.78 404.713 1271.45 405.973 1268.28 407.559C1264.5 409.469 1260.92 411.705 1257.26 413.86C1255.6 414.835 1254.74 415.242 1254.05 412.559C1252.06 404.794 1248.12 402.03 1239.99 401.868C1238.03 401.827 1236.04 401.989 1234.17 401.542C1231 400.77 1230.23 398.575 1232.51 396.298C1235.43 393.29 1238.64 390.485 1241.98 387.965C1243.6 386.745 1246 385.526 1247.79 385.81C1252.1 386.501 1256.37 387.884 1260.51 389.347C1274.29 394.225 1288.03 399.103 1301.69 404.307C1306.49 406.136 1310.07 406.217 1314.25 402.477C1318.04 399.063 1323.12 397.152 1327.47 394.266C1330.23 392.437 1330.07 390.81 1327.22 389.144C1325.15 387.924 1322.83 387.03 1320.64 385.973C1320.07 385.688 1319.58 385.282 1319.05 384.916C1319.66 384.835 1320.27 384.632 1320.88 384.713C1325.31 385.323 1330.07 385.648 1333.52 382.721C1336.94 379.835 1340.35 379.591 1344.3 379.794C1345.92 379.875 1347.55 379.713 1349.17 379.631C1350.84 379.55 1352.47 379.469 1354.13 379.428C1353.36 381.339 1352.91 383.534 1351.69 385.119C1350.68 386.461 1348.81 387.152 1347.26 388.046C1336.98 393.941 1326.69 399.794 1316.37 405.648C1312.67 407.762 1310.84 410.77 1310.56 415.12C1310.11 421.908 1309.46 428.697 1308.56 435.445C1307.87 440.608 1306.86 445.649 1300.68 447.6C1296.57 448.901 1296 448.941 1294.99 444.795C1294.05 441.014 1293.36 437.112 1291.94 433.535C1291.04 431.258 1289.38 428.819 1287.34 427.64C1283.36 425.323 1278.89 424.469 1274.21 425.933C1271.9 426.624 1269.46 426.908 1267.1 427.396ZM1306.21 401.176C1305.15 400.811 1304.66 400.689 1304.21 400.526C1287.75 394.51 1271.29 388.534 1254.9 382.436C1253.85 382.03 1252.79 380.526 1252.55 379.388C1250.27 368.615 1248.12 357.802 1246 346.989C1245.84 346.094 1246 345.119 1246 344.184C1246.9 344.387 1247.79 344.468 1248.64 344.794C1258.77 348.655 1268.89 352.517 1279.01 356.42C1284.9 358.696 1290.76 361.135 1296.77 363.209C1301.33 364.794 1302.75 368.127 1302.91 372.518C1302.99 374.957 1303.16 377.396 1303.52 379.753C1304.5 385.973 1305.68 392.193 1306.65 398.453C1306.77 399.307 1306.41 400.241 1306.25 401.258L1306.21 401.176ZM1296.49 330.322C1296.49 330.322 1296.45 330.322 1296.41 330.322C1296.41 327.72 1296.53 325.119 1296.41 322.517C1295.84 311.704 1298.24 301.257 1300.19 290.769C1300.31 290.037 1300.72 289.346 1300.96 288.614C1301.53 289.265 1302.22 289.874 1302.63 290.606C1303.28 291.907 1303.89 293.248 1304.3 294.671C1308.6 309.102 1312.75 323.615 1317.22 338.005C1320.96 350.078 1324.99 362.07 1329.09 374.022C1331.17 380.038 1330.6 381.176 1324.09 381.176C1322.83 381.176 1321.49 380.932 1320.31 380.485C1318.16 379.672 1316.49 379.062 1314.05 380.688C1310.6 382.965 1307.55 380.892 1307.1 376.705C1306.86 374.469 1306.12 372.192 1306.29 369.957C1306.61 365.119 1304.74 361.948 1300.27 359.956C1299.09 359.428 1297.75 357.721 1297.67 356.501C1297.1 347.761 1296.86 339.021 1296.49 330.281V330.322ZM1254.66 499.186C1254.66 499.186 1254.5 499.186 1254.42 499.186C1255.15 490.608 1255.96 482.072 1256.61 473.454C1257.42 462.437 1258.36 451.462 1261.49 440.811C1261.98 439.144 1262.91 437.478 1264.09 436.218C1267.91 432.112 1272.91 430.201 1278.36 429.51C1283.2 428.9 1286.82 431.502 1288.32 436.177C1289.05 438.494 1289.5 440.892 1290.35 443.169C1291.41 445.974 1291 446.868 1287.63 447.437C1276.94 449.185 1275.47 451.177 1274.29 459.307C1274.05 460.893 1273.44 462.437 1273.12 464.023C1270.68 477.072 1267.79 490.039 1267.75 503.413C1267.75 511.462 1266.82 512.113 1259.17 509.511C1256.25 508.495 1254.42 506.828 1254.62 503.495C1254.7 502.031 1254.62 500.568 1254.62 499.104L1254.66 499.186ZM1344.17 474.429C1344.17 472.478 1344.17 470.527 1344.17 468.576C1344.17 467.925 1344.26 467.275 1344.46 466.665C1351.57 445.364 1358.6 424.104 1376.9 408.981C1381.17 405.445 1385.43 402.924 1390.72 401.38C1397.47 399.428 1403.89 400.607 1410.35 402.193C1418.12 404.103 1423.24 408.981 1426.9 416.095C1431.9 425.811 1431.53 436.014 1429.5 445.933C1427.51 455.567 1424.5 465.242 1420.23 474.064C1413.4 488.047 1402.51 498.535 1387.43 503.535C1381.61 505.446 1375.39 506.422 1369.3 507.072C1359.09 508.21 1351.65 503.332 1347.87 493.861C1345.35 487.6 1343.89 481.177 1344.13 474.389L1344.17 474.429ZM1312.02 439.795C1312.99 431.583 1314.13 424.388 1314.54 417.112C1314.78 413.087 1316.65 410.933 1319.82 409.144C1336.69 399.754 1353.04 389.266 1371.33 382.64C1374.3 381.542 1375.6 379.55 1376.04 376.542C1376.98 370.444 1378.24 364.387 1379.17 358.29C1380.76 347.68 1382.51 337.111 1383.52 326.46C1384.13 319.956 1386.86 316.053 1393.2 314.509C1399.01 313.045 1404.78 311.338 1410.6 309.834C1410.96 309.753 1411.53 310.281 1412.02 310.566C1411.65 310.769 1411.25 310.972 1410.88 311.094C1405.68 312.842 1400.52 314.834 1395.19 316.297C1390.8 317.476 1389.38 320.484 1388.69 324.387C1386.53 336.989 1384.58 349.631 1382.22 362.192C1380.07 373.656 1377.43 384.997 1375.19 396.461C1374.87 398.087 1374.95 400.241 1375.8 401.542C1377.18 403.656 1376.17 404.429 1374.7 405.363C1373.6 406.055 1372.55 406.827 1371.45 407.477C1370.92 407.803 1370.27 407.884 1369.7 408.087C1369.58 407.477 1369.3 406.786 1369.42 406.217C1370.52 401.298 1371.65 396.42 1372.87 391.542C1373.04 390.81 1373.85 390.282 1374.3 389.632C1374.87 388.778 1375.35 387.843 1375.88 386.949C1374.7 386.664 1373.56 386.136 1372.39 386.217C1371.33 386.298 1370.23 386.908 1369.21 387.436C1362.22 390.851 1355.27 394.306 1348.28 397.802C1339.7 402.071 1331.12 406.38 1322.51 410.567C1319.91 411.827 1318.44 413.494 1318.24 416.502C1317.91 421.502 1317.3 426.502 1316.94 431.502C1316.86 432.844 1316.69 434.998 1317.38 435.405C1318.48 436.055 1320.39 435.892 1321.78 435.486C1329.13 433.331 1334.66 428.169 1340.68 423.697C1347.95 418.25 1352.51 411.42 1354.21 402.477C1354.5 401.055 1355.39 399.307 1356.57 398.575C1359.26 396.786 1362.3 395.567 1365.19 394.063C1367.59 392.802 1367.59 394.063 1367.18 395.892C1365.96 401.583 1364.58 407.274 1363.6 413.047C1362.95 416.868 1361.04 418.941 1357.55 420.445C1352.18 422.762 1347.14 425.73 1341.82 428.169C1332.95 432.234 1324.01 436.096 1315.07 439.917C1314.21 440.283 1313.04 439.876 1312.02 439.835V439.795ZM1316.25 466.259C1316.25 466.259 1315.96 466.259 1315.8 466.259C1315.8 463.006 1316 459.754 1315.76 456.502C1315.51 453.494 1316.98 452.234 1319.54 451.177C1329.13 447.193 1338.65 443.006 1348.16 438.9C1348.73 438.657 1349.34 438.413 1349.91 438.169C1349.82 438.9 1349.91 439.673 1349.62 440.323C1345.27 449.795 1341.45 459.429 1339.62 469.755C1339.42 470.974 1338.2 472.437 1337.06 472.966C1330.43 476.015 1323.69 478.86 1316.98 481.747C1315.56 482.356 1314.99 482.153 1315.19 480.324C1315.68 475.649 1315.92 470.974 1316.25 466.299V466.259ZM1339.86 337.842C1339.86 337.842 1340.07 337.842 1340.19 337.842C1340.19 344.509 1340.03 351.135 1340.27 357.802C1340.39 361.379 1337.71 361.095 1335.72 361.501C1333.12 362.03 1333.4 359.834 1333.48 358.29C1334.17 346.46 1335.27 334.672 1335.6 322.842C1335.92 310.728 1335.47 298.574 1335.6 286.419C1335.6 282.923 1336 279.427 1336.61 275.972C1337.02 273.695 1338.52 273.655 1339.86 275.484C1345.68 283.248 1352.26 290.525 1355.96 299.712C1358.85 306.907 1358.93 306.907 1351.49 307.72C1344.66 308.452 1340.07 313.37 1339.95 320.322C1339.82 326.176 1339.95 331.989 1339.95 337.842H1339.86ZM1378.65 334.997C1378.44 335.241 1378.2 335.444 1378 335.688C1378 336.176 1378 336.663 1377.87 337.151C1375.88 349.631 1373.93 362.111 1371.86 374.591C1371.65 375.688 1370.88 377.152 1369.95 377.64C1366.78 379.225 1363.4 380.444 1360.11 381.827C1358.32 382.558 1357.63 381.786 1357.79 380.079C1358 378.331 1358.32 376.583 1358.77 374.875C1359.3 372.68 1360.27 370.566 1360.56 368.331C1362.06 356.989 1363.4 345.607 1364.82 334.224C1365.11 332.029 1365.6 329.875 1366 327.72C1367.75 328.493 1369.5 329.306 1371.25 330.078C1372.59 330.647 1374.09 330.972 1375.27 331.745C1376.53 332.598 1377.51 333.859 1378.61 334.956L1378.65 334.997ZM1232.1 431.827C1231.49 432.722 1230.88 434.266 1229.74 435.161C1226.16 437.884 1222.34 440.364 1218.64 442.966C1216.69 444.348 1215.11 443.738 1213.36 442.478C1206.41 437.396 1206.41 437.437 1206.37 428.738C1206.37 427.112 1206.25 425.486 1206.29 423.86C1206.29 422.681 1206.49 421.502 1206.57 420.282C1207.71 420.811 1209.01 421.177 1209.99 421.908C1211.53 423.087 1213.2 424.307 1214.21 425.852C1216.49 429.348 1218.32 433.128 1220.47 436.705C1220.96 437.518 1222.02 438.047 1222.83 438.697C1223.24 437.762 1224.01 436.787 1223.97 435.852C1223.6 427.965 1219.78 422.03 1213.28 417.803C1208.28 414.551 1208.2 413.412 1213.4 410.323C1214.29 409.794 1216.12 409.998 1217.1 410.567C1219.29 411.908 1221.37 413.534 1223.24 415.323C1227.87 419.632 1231.04 424.795 1232.14 431.868L1232.1 431.827ZM1276.12 526.422C1276.33 525.731 1276.53 524.796 1276.82 523.902C1278.32 519.105 1280.11 514.389 1281.33 509.552C1285.56 493.047 1289.54 476.462 1293.81 459.917C1294.34 457.884 1295.47 455.486 1297.06 454.307C1300.03 452.112 1303.56 450.649 1306.9 449.023C1321.69 441.949 1336.49 434.957 1351.33 427.965C1352.99 427.193 1354.82 426.827 1356.57 426.258C1355.43 428.372 1354.54 430.689 1353.08 432.559C1352.51 433.291 1350.56 432.844 1349.42 433.331C1337.18 438.535 1324.86 443.657 1312.75 449.185C1297.91 455.974 1300.76 452.803 1294.95 468.332C1291.16 478.454 1289.66 489.389 1286.98 499.918C1284.66 509.023 1282.26 518.129 1279.74 527.194C1279.34 528.698 1278.28 529.999 1277.51 531.381C1277.06 529.796 1276.61 528.211 1276.08 526.341L1276.12 526.422ZM1292.43 327.354C1292.43 332.029 1292.55 336.094 1292.34 340.159C1292.3 341.46 1291.82 343.493 1290.92 343.94C1283.73 347.517 1276.86 353.208 1268.08 347.436C1266 346.094 1266.21 345.444 1267.87 344.59C1272.02 342.395 1276.21 340.281 1280.47 338.371C1283.44 337.029 1284.99 334.956 1285.39 331.785C1286.37 324.59 1287.26 317.354 1288.52 310.2C1289.54 304.346 1290.84 298.492 1292.34 292.72C1292.79 291.053 1294.38 289.671 1295.47 288.167C1295.47 290.037 1295.84 291.988 1295.47 293.736C1292.99 305.037 1292.06 316.46 1292.38 327.395L1292.43 327.354ZM1290.39 256.012C1291.08 255.646 1292.06 254.63 1292.95 254.711C1302.18 255.402 1311.29 256.256 1320.27 252.232C1322.22 251.337 1325.72 253.98 1328.52 254.955C1327.55 256.622 1326.57 258.289 1325.56 259.915C1325.23 260.443 1324.66 260.85 1324.25 261.378C1322.63 263.573 1321.65 263.817 1320.76 260.768C1320.39 259.549 1318.77 258.695 1317.71 257.638C1317.1 258.898 1316.33 260.077 1315.88 261.378C1315.64 262.069 1315.51 263.289 1315.88 263.736C1319.34 267.435 1315.64 268.045 1313.6 269.671C1310.68 272.029 1307.79 271.907 1304.62 270.484C1303.16 269.833 1301.57 269.305 1300.03 268.939C1290.8 266.663 1292.38 264.915 1290.39 256.012ZM1307.14 252.028C1301.49 251.297 1297.3 250.89 1293.2 250.158C1289.5 249.508 1290.68 246.784 1291.04 244.427C1291.37 242.313 1291.41 240.646 1294.7 241.053C1305.8 242.394 1316.29 239.752 1326.04 234.508C1328.97 232.922 1329.74 234.996 1331 236.5C1332.55 238.329 1332.02 239.63 1330.03 240.768C1326.29 242.922 1322.71 245.483 1318.85 247.353C1314.7 249.345 1310.31 250.809 1307.14 252.028ZM1331.94 293.452C1332.3 294.671 1332.71 295.443 1332.71 296.175C1332.55 302.151 1332.47 308.127 1332.1 314.102C1331.25 328.167 1330.31 342.233 1329.38 356.257C1329.34 356.948 1329.01 357.639 1328.85 358.33C1328.52 357.802 1328.08 357.314 1327.91 356.745C1325.43 349.225 1322.99 341.664 1320.64 334.143C1320.39 333.289 1320.15 331.826 1320.56 331.501C1325.39 327.639 1325.31 321.826 1326.61 316.623C1328.28 309.875 1329.54 303.005 1331 296.216C1331.17 295.443 1331.53 294.752 1332.02 293.492L1331.94 293.452ZM1321.53 424.917C1322.02 420.851 1320.51 416.868 1324.34 414.876C1332.06 410.77 1339.95 406.99 1347.79 403.087C1348.2 402.884 1348.73 402.884 1349.17 402.762C1349.26 403.372 1349.62 404.103 1349.38 404.55C1347.39 408.412 1346 412.884 1343.12 415.851C1338.77 420.364 1333.44 423.941 1328.32 427.64C1326.57 428.9 1324.25 429.388 1322.18 430.201C1321.94 428.169 1321.69 426.136 1321.53 424.917ZM1306.17 284.793C1304.95 284.224 1303.32 283.777 1302.1 282.882C1301 282.069 1300.31 280.728 1299.42 279.63C1300.68 279.142 1301.9 278.451 1303.2 278.167C1312.83 276.053 1320.92 271.337 1327.43 263.939C1329.21 261.866 1330.6 259.467 1332.43 257.394C1333.12 256.622 1334.5 256.459 1335.56 256.012C1335.64 256.947 1336.04 258.004 1335.8 258.858C1333.6 266.215 1329.09 272.15 1323.77 277.394C1319.09 281.947 1312.79 283.329 1306.21 284.793H1306.17ZM1168.44 422.152C1167.95 419.551 1168.97 418.087 1172.3 417.437C1177.51 416.461 1182.51 414.388 1187.67 413.25C1191.29 412.477 1193.85 414.795 1193.44 417.884C1193.07 420.445 1192.3 422.925 1191.9 425.445C1191.57 427.518 1190.92 427.884 1189.21 426.543C1185.84 423.9 1182.06 423.9 1178.11 425.039C1176.41 425.526 1174.66 425.974 1172.91 426.258C1168.32 427.071 1168.32 427.03 1168.4 422.112L1168.44 422.152ZM1220.72 406.461C1221.04 405.933 1221.16 405.363 1221.49 405.201C1223.56 404.103 1225.27 402.762 1228.2 403.819C1237.26 407.193 1240.35 414.876 1242.91 423.047C1243.4 424.591 1239.21 429.144 1237.14 429.063C1236.65 429.063 1236.2 426.746 1235.76 425.486C1235.35 424.266 1235.03 423.006 1234.5 421.827C1232.22 416.664 1228.77 412.477 1224.09 409.266C1222.91 408.453 1221.86 407.437 1220.68 406.502L1220.72 406.461ZM1311.61 225.605C1314.91 226.703 1318.32 227.556 1321.45 228.979C1323.56 229.955 1323.77 231.743 1321.08 232.556C1316 234.142 1310.92 235.768 1305.72 236.987C1303.12 237.597 1300.27 237.353 1297.59 237.272C1296.37 237.272 1295.19 236.662 1294.01 236.337C1294.74 234.955 1295.15 233.004 1296.33 232.313C1300.96 229.467 1305.31 225.768 1311.61 225.565V225.605ZM1343.69 344.428C1343.85 338.859 1343.89 338.899 1345.96 337.558C1350.39 334.631 1354.86 331.745 1359.21 328.696C1360.76 327.639 1361.45 327.517 1361.41 329.672C1361.41 335.525 1361.41 341.379 1354.74 344.306C1353.16 344.997 1351.98 346.542 1350.43 347.395C1348.65 348.371 1346.69 349.062 1344.82 349.834L1343.69 344.428ZM1254.25 512.723C1257.95 513.698 1260.6 514.389 1263.24 515.121C1263.77 515.284 1264.29 515.609 1264.78 515.893C1264.42 516.381 1264.17 517.032 1263.68 517.397C1260.15 520.243 1256.73 523.251 1252.99 525.812C1250.64 527.438 1247.83 528.536 1245.07 529.349C1244.21 529.593 1242.1 528.414 1241.9 527.601C1241.08 524.186 1251.77 512.682 1254.21 512.763L1254.25 512.723ZM1181.77 439.917V440.039C1179.82 440.039 1177.87 440.161 1175.92 440.039C1172.06 439.714 1170.07 437.925 1169.42 434.104C1169.29 433.453 1169.54 432.193 1169.78 432.152C1175.47 431.339 1180.92 428.209 1186.94 430.039C1189.86 430.933 1191 432.274 1190.11 435.73C1189.25 439.022 1188.28 440.73 1184.7 439.957C1183.77 439.754 1182.75 439.957 1181.77 439.957V439.917ZM1190.19 467.519C1189.42 469.633 1189.13 471.299 1188.2 472.478C1187.95 472.803 1185.76 471.868 1184.62 471.259C1179.78 468.657 1175.03 465.933 1170.27 463.25C1167.46 461.665 1164.5 460.242 1161.98 458.291C1160.88 457.437 1159.86 455.12 1160.23 453.982C1161.04 451.624 1162.83 453.291 1164.17 453.941C1172.02 457.722 1179.86 461.502 1187.63 465.364C1188.6 465.852 1189.33 466.787 1190.19 467.519ZM1338.81 477.316C1339.01 478.129 1339.54 479.226 1339.25 479.592C1338.56 480.405 1337.51 480.974 1336.53 481.462C1324.01 487.6 1311.53 493.698 1298.97 499.755C1297.22 500.609 1295.31 501.056 1293.44 501.625C1291.73 502.113 1291.61 501.3 1291.77 499.836C1292.22 496.137 1295.23 495.405 1297.87 494.308C1310.6 488.982 1323.36 483.738 1336.08 478.494C1336.82 478.169 1337.59 477.885 1338.81 477.397V477.316ZM1319.3 518.942C1318.77 522.723 1317.43 526.097 1314.01 528.332C1310.92 530.365 1309.38 527.072 1307.1 526.381C1305.23 525.812 1304.62 524.064 1305.68 522.438C1307.51 519.633 1309.25 516.584 1311.69 514.43C1315.72 510.893 1317.71 511.788 1318.93 516.95C1319.09 517.56 1319.17 518.21 1319.3 518.901V518.942ZM1256 439.632C1254.82 439.104 1253.93 438.779 1253.03 438.331C1251.16 437.437 1249.29 436.461 1247.38 435.526C1245.43 434.592 1243.52 433.616 1241.57 432.681C1243.28 431.258 1244.94 429.754 1246.73 428.413C1251.77 424.713 1251.77 424.754 1256.86 428.413C1257.75 429.063 1258.89 429.469 1259.7 430.201C1260.15 430.608 1260.6 431.624 1260.39 432.071C1259.42 434.266 1258.28 436.38 1257.1 438.494C1256.86 438.982 1256.29 439.266 1255.92 439.592L1256 439.632ZM1355.39 311.46C1357.18 311.46 1359.54 311.013 1359.95 314.021C1360.39 317.151 1361.73 320.362 1359.17 323.208C1358.81 323.615 1357.95 323.98 1357.47 323.818C1353.44 322.761 1349.42 321.663 1345.52 320.281C1344.91 320.078 1344.3 317.761 1344.66 317.314C1347.43 314.184 1350.31 311.013 1355.39 311.419V311.46ZM1346.41 375.566C1341.98 375.566 1341.61 375.16 1342.67 370.892C1343.12 369.184 1343.52 367.436 1344.3 365.851C1344.7 365.038 1345.76 364.184 1346.65 364.022C1349.5 363.493 1352.39 363.168 1355.23 362.965C1355.84 362.924 1357.02 363.656 1357.06 364.103C1357.75 371.501 1353.97 375.526 1346.37 375.566H1346.41ZM1253.89 457.275C1253.24 463.21 1252.63 469.145 1251.98 475.08C1251.9 475.771 1251.81 476.462 1251.69 477.153C1251.61 476.503 1251.57 475.893 1251.49 475.242C1250.76 469.633 1247.75 466.015 1243.36 464.998C1242.34 464.754 1240.6 463.657 1240.68 463.372C1241.08 461.99 1241.65 460.283 1242.75 459.632C1245.51 458.006 1248.6 456.909 1251.53 455.486C1253.6 454.47 1254.17 455.283 1253.93 457.234L1253.89 457.275ZM1307.38 472.234C1307.38 472.234 1307.51 472.234 1307.55 472.234C1307.55 467.681 1307.38 463.169 1307.67 458.657C1307.75 457.6 1309.34 456.665 1310.23 455.689C1310.72 456.706 1311.57 457.681 1311.61 458.697C1311.65 466.137 1311.53 473.616 1311.45 481.055C1311.45 481.869 1311.57 483.007 1311.12 483.373C1310.07 484.226 1308.69 484.714 1307.43 485.364C1307.26 484.389 1306.9 483.413 1306.9 482.438C1306.98 479.023 1307.22 475.649 1307.38 472.234ZM1302.71 473.779C1302.71 473.779 1302.59 473.779 1302.55 473.779C1302.55 474.917 1302.55 476.055 1302.55 477.153C1302.47 479.104 1302.38 481.015 1302.3 482.966C1302.06 487.682 1301.33 488.413 1296.86 489.308C1295.19 489.633 1294.17 489.389 1294.7 487.478C1296.94 479.755 1299.25 472.072 1301.61 464.389C1301.77 463.901 1302.3 463.535 1302.67 463.128C1302.67 463.616 1302.75 464.104 1302.75 464.551C1302.75 467.6 1302.75 470.69 1302.75 473.738L1302.71 473.779ZM1348.08 359.591C1347.71 359.469 1345.96 359.469 1345.43 358.656C1344.74 357.639 1344.82 354.753 1344.91 354.753C1350.52 353.737 1354.46 350.038 1358.52 346.582C1358.85 346.298 1359.38 346.257 1359.82 346.094C1359.95 346.501 1360.19 346.948 1360.19 347.355C1360.27 356.501 1357.71 359.265 1348.08 359.591ZM1233.24 448.86C1234.54 444.754 1235.72 441.096 1236.94 437.437C1237.02 437.193 1237.79 436.99 1238.07 437.112C1241.65 438.575 1245.19 440.12 1248.68 441.746C1248.93 441.868 1248.85 443.535 1248.56 443.657C1243.97 445.649 1239.38 447.518 1234.7 449.348C1234.25 449.51 1233.52 449.023 1233.2 448.901L1233.24 448.86ZM1188.07 447.031C1187.38 449.307 1186.53 451.584 1186.04 453.901C1185.35 457.071 1183.6 456.462 1182.06 454.917C1179.78 452.681 1177.79 450.161 1175.72 447.681C1174.05 445.689 1175.35 445.364 1177.14 445.242C1179.86 445.079 1182.59 444.957 1185.31 444.592C1187.3 444.307 1188.6 444.388 1188.07 446.99V447.031ZM1263.4 533.942C1263.48 531.503 1269.38 527.398 1271.04 528.373C1272.63 529.308 1273.32 531.788 1274.42 533.576C1271.57 535.081 1268.73 536.747 1265.72 537.926C1265.43 538.048 1263.93 534.877 1263.4 533.983V533.942ZM1236.86 480.527C1236.73 475.73 1238.24 473.982 1243.24 472.031C1243.85 471.787 1244.62 471.828 1245.31 471.746C1244.9 474.551 1244.5 477.356 1244.01 480.121C1243.89 480.69 1243.44 481.421 1242.95 481.706C1241.65 482.438 1239.99 483.698 1238.89 483.373C1237.79 483.047 1237.22 481.055 1236.9 480.568L1236.86 480.527ZM1337.99 365.078C1340.15 364.794 1340.35 365.648 1339.58 367.558C1338.81 369.469 1338.6 371.623 1337.83 373.534C1337.43 374.509 1336.33 375.241 1335.56 376.095C1334.82 375.363 1333.81 374.753 1333.44 373.9C1332.55 371.827 1331.98 369.631 1331.25 367.477C1330.76 366.095 1330.8 365.444 1332.67 365.566C1334.42 365.688 1336.17 365.282 1337.99 365.078ZM1232.71 384.632C1233.52 382.558 1234.42 379.997 1235.51 377.558C1235.68 377.233 1237.34 377.07 1237.51 377.355C1239.66 380.688 1242.67 379.957 1245.72 379.306C1246.49 379.144 1247.34 379.347 1248.16 379.428C1247.55 380.16 1246.94 381.542 1246.29 381.583C1241.9 381.867 1238.24 383.615 1234.94 386.42C1234.5 386.786 1233.81 386.908 1233.24 387.111C1233.12 386.501 1232.95 385.892 1232.67 384.632H1232.71ZM1250.19 417.274C1250.19 418.128 1250.31 418.534 1250.19 418.738C1249.42 419.835 1248.56 420.851 1247.71 421.868C1247.18 420.973 1246.53 420.16 1246.12 419.225C1244.62 415.648 1243.2 412.071 1241.81 408.494C1241.57 407.843 1241.49 407.071 1241.33 406.38C1242.1 406.461 1242.95 406.38 1243.56 406.664C1248.07 408.981 1249.78 413.006 1250.23 417.274H1250.19ZM1335.27 252.76C1331.98 251.256 1329.46 250.118 1326.9 248.979C1328.69 247.394 1330.43 245.809 1332.22 244.223C1332.34 244.101 1332.51 243.939 1332.63 243.979C1333.4 244.142 1334.66 244.142 1334.82 244.589C1335.6 246.337 1336.17 248.248 1336.49 250.118C1336.61 250.727 1335.84 251.54 1335.23 252.76H1335.27ZM1343.4 328.777C1343.35 326.013 1344.53 325.037 1346.94 325.85C1347.26 325.932 1347.55 326.054 1347.87 326.135C1349.7 326.582 1351.49 327.029 1353.32 327.476C1351.61 328.899 1349.95 330.322 1348.24 331.704C1347.87 331.989 1347.43 332.233 1347.02 332.476C1344.99 333.777 1343.73 333.493 1343.6 330.85C1343.6 330.037 1343.48 329.224 1343.44 328.777H1343.4ZM1293.56 354.306C1294.05 356.623 1293.24 357.355 1291 356.46C1288.93 355.607 1286.77 354.875 1284.74 353.899C1284.46 353.777 1284.29 352.355 1284.58 352.151C1285.47 351.501 1286.57 351.135 1287.59 350.607C1294.05 347.151 1292.67 348.29 1293.56 354.306ZM1246.12 366.704C1246.04 367.883 1246.12 368.209 1246 368.493C1245.35 370.729 1244.66 372.965 1243.89 375.16C1243.89 375.16 1242.59 375.038 1242.34 374.672C1240.64 372.07 1240.31 369.266 1241.81 366.501C1242.55 365.2 1243.81 364.184 1244.82 363.005C1245.31 364.469 1245.84 365.932 1246.08 366.664L1246.12 366.704ZM1288.2 459.795C1285.92 457.275 1284.46 455.689 1283.03 454.063C1285.35 453.088 1287.71 452.112 1290.07 451.258C1290.19 451.218 1291.25 452.722 1291.08 453.25C1290.43 455.202 1289.46 457.031 1288.2 459.754V459.795ZM1317.18 296.094C1315.6 294.508 1314.5 293.411 1313.4 292.313C1314.34 291.704 1315.15 290.85 1316.17 290.484C1317.83 289.874 1319.58 289.508 1321.33 289.143C1321.78 289.061 1322.3 289.386 1322.79 289.508C1321.04 291.541 1319.3 293.614 1317.18 296.094ZM1181 406.42C1181.08 406.624 1181.2 406.868 1181.29 407.071C1181.94 407.071 1182.63 406.949 1183.2 407.071C1184.05 407.315 1184.86 407.721 1185.68 408.087C1184.9 408.453 1184.17 408.981 1183.36 409.185C1180.39 409.916 1177.42 410.567 1174.42 411.177C1174.01 411.258 1173.56 411.055 1173.11 410.973C1173.32 410.567 1173.44 409.916 1173.77 409.754C1176.16 408.575 1178.56 407.477 1181 406.339V406.42ZM1166.12 450.283C1166.41 449.429 1166.41 448.941 1166.57 448.901C1167.87 448.575 1169.7 447.722 1170.39 448.25C1171.81 449.348 1172.63 451.218 1173.68 452.762C1173.68 452.762 1173.48 453.088 1173.4 453.088C1170.96 452.153 1168.48 451.218 1166.08 450.283H1166.12ZM1205.92 445.649C1206.73 444.754 1207.63 443.697 1207.67 443.738C1209.01 444.754 1210.27 445.852 1211.57 446.949C1210.47 447.762 1209.38 448.575 1208.28 449.429C1207.55 448.25 1206.77 447.071 1205.88 445.649H1205.92ZM1295.72 271.541C1296.04 271.825 1296.41 272.11 1296.73 272.394C1298.08 272.842 1299.42 273.329 1300.72 273.777C1299.54 274.224 1298.4 274.915 1297.22 274.996C1296.57 275.037 1295.6 274.224 1295.19 273.533C1294.95 273.126 1295.51 272.232 1295.68 271.541H1295.72Z" fill="#3A352F"/>
<path d="M1305.07 432.636C1305.11 423.165 1294.01 413.734 1284.94 415.726C1283.72 415.97 1282.75 417.27 1281.69 418.043C1282.79 418.531 1283.89 419.303 1285.03 419.466C1293.64 420.644 1300.27 427.392 1301.08 436.01C1301.16 436.986 1301.08 437.962 1301.33 438.897C1301.45 439.425 1302.1 439.832 1302.46 440.319C1302.99 439.832 1303.89 439.384 1304.01 438.815C1304.5 436.783 1304.7 434.669 1305.03 432.596L1305.07 432.636Z" fill="#3A352F"/>
<path d="M1279.29 366.62C1273.32 366.986 1271.29 368.978 1271.65 374.059C1272.02 379.222 1274.86 381.824 1279.82 381.458C1284.78 381.092 1287.22 378.165 1286.9 373.003C1286.61 368.328 1284.21 366.336 1279.25 366.661L1279.29 366.62ZM1279.05 378.328C1277.51 376.173 1276.12 375.116 1275.96 373.856C1275.51 370.807 1278.32 370.767 1280.19 370.604C1280.92 370.563 1282.59 372.555 1282.38 373.165C1281.94 374.71 1280.64 376.011 1279.05 378.287V378.328Z" fill="#3A352F"/>
<path d="M1370.72 504.631C1383.73 505.363 1393.28 498.574 1401.82 489.915C1409.26 482.354 1415.4 473.818 1420.68 464.59C1426.45 454.508 1426.94 443.533 1426.41 432.476C1426.17 427.435 1424.71 422.191 1422.75 417.475C1419.22 409.101 1411.21 405.158 1402.23 406.012C1396.05 406.622 1390.11 407.801 1384.38 410.28C1377.1 413.451 1371.53 418.37 1367.39 425.077C1359.22 438.37 1353.97 452.557 1351.49 468.127C1350.4 475.078 1350.44 481.46 1351.66 488.167C1353.16 496.745 1359.09 506.257 1370.76 504.59L1370.72 504.631ZM1399.42 410.362C1409.34 409.711 1415.27 413.166 1418.77 420.28C1422.39 427.679 1422.84 435.687 1422.39 443.614C1422.1 448.695 1421.58 454.265 1419.3 458.655C1414.05 468.899 1407.14 478.249 1398.93 486.46C1391.74 493.696 1383.97 499.956 1373.2 500.972C1365.96 501.664 1360.68 498.452 1357.79 491.826C1353.32 481.541 1354.54 471.094 1357.1 460.891C1359.14 452.76 1362.18 444.793 1365.52 437.069C1372.27 421.337 1383.2 410.727 1399.42 410.362Z" fill="#3A352F"/>
<path d="M1292.42 262.722C1294.17 264.267 1295.31 265.283 1296.49 266.34C1297.42 265.283 1299.17 264.064 1299.05 263.169C1298.77 261.543 1297.38 260.121 1296.41 258.657C1295.27 259.795 1294.17 260.934 1292.38 262.722H1292.42Z" fill="#3A352F"/>
<path d="M1379.94 459.35C1379.98 465.61 1381.73 468.903 1385.39 470C1389.05 471.098 1394.01 469.228 1396.57 464.838C1398.4 461.708 1399.66 458.049 1400.19 454.472C1400.72 451.017 1399.46 447.399 1395.8 445.976C1392.06 444.553 1388.07 444.756 1384.74 447.439C1380.88 450.569 1379.66 454.838 1379.9 459.35H1379.94ZM1383.28 460.285C1383.6 455.61 1385.63 452.439 1389.29 450.407C1390.67 449.634 1393.36 448.862 1393.89 449.472C1395.11 450.854 1396.33 453.374 1395.84 454.919C1394.94 457.887 1393.15 460.732 1391.12 463.13C1390.11 464.35 1387.46 465.244 1386.08 464.757C1384.78 464.309 1384.17 461.87 1383.24 460.285H1383.28Z" fill="#3A352F"/>
</g>
<defs>
<clipPath id="clip0_10_193">
<rect width="1411" height="945" fill="white"/>
</clipPath>
</defs>
</svg>
