<svg width="1411" height="945" viewBox="0 0 1411 945" fill="none" xmlns="http://www.w3.org/2000/svg">
<g clip-path="url(#clip0_10_177)">
<path d="M1066.17 194.474C1064.91 193.528 1063.43 192.793 1062.38 191.69C1051.82 180.079 1041.32 168.416 1030.86 156.701C1026.5 151.867 1021.62 148.715 1014.68 148.505C1007.64 148.347 1001.18 137.367 1003.39 129.697C1004.33 126.387 1006.17 123.235 1008.11 120.346C1009.11 118.875 1011.21 118.192 1012.84 117.246C1013.16 117.089 1013.89 117.509 1014.05 117.351C1020.41 110.627 1021.88 117.299 1024.51 121.081C1025.35 122.29 1026.34 123.393 1027.39 124.391C1028.24 125.179 1029.34 125.704 1030.28 126.387C1030.44 125.389 1030.49 124.338 1030.7 123.393C1031.49 119.4 1033.65 118.612 1036.75 121.134C1041.11 124.706 1041 129.907 1041.89 134.846C1042.32 137.105 1042.84 139.837 1044.31 141.36C1054.08 151.132 1064.07 160.641 1074.05 170.202C1074.83 170.99 1076.04 171.358 1077.04 171.936C1076.94 170.728 1077.04 169.467 1076.62 168.364C1073.89 161.114 1071.05 153.969 1068.32 146.719C1067.85 145.51 1067.9 144.092 1067.69 142.779C1068.9 142.674 1070.11 142.358 1071.26 142.568C1081.56 144.355 1091.86 146.246 1102.15 147.98C1105.83 148.61 1109.61 149.135 1113.34 149.083C1118.12 148.978 1120.49 151.132 1121.8 155.597C1123.96 162.795 1126.64 169.835 1129.16 176.927C1130.05 179.501 1131.36 181.498 1134.31 182.706C1136.56 183.652 1138.04 186.436 1140.08 188.17C1141.14 189.063 1142.61 189.483 1143.92 190.166C1144.39 188.853 1145.18 187.644 1145.34 186.278C1146.28 177.347 1147.12 168.364 1147.97 159.433C1148.18 157.173 1148.12 155.597 1145.08 157.384C1142.19 159.117 1140.4 157.068 1140.56 154.442C1140.87 149.451 1141.77 144.512 1142.66 139.626C1142.82 138.838 1144.34 138.261 1145.23 137.63C1145.55 138.523 1146.07 139.416 1146.13 140.309C1146.13 141.78 1145.76 143.199 1145.6 144.67C1145.5 146.088 1145.44 147.507 1145.39 148.978C1145.92 148.82 1146.7 148.82 1146.91 148.453C1148.02 146.824 1150.17 144.46 1149.7 143.567C1147.97 140.309 1148.91 134.268 1141.92 135.319C1139.87 135.634 1137.04 133.795 1135.25 132.166C1131.42 128.594 1129.26 130.8 1126.53 133.585C1121.96 138.155 1117.13 142.411 1112.29 146.666C1111.56 147.297 1110.14 147.087 1109.04 147.297C1109.4 146.246 1109.51 144.88 1110.24 144.145C1115.66 138.681 1121.12 133.165 1126.79 127.963C1128.68 126.23 1129.1 124.969 1128.11 122.657C1127.32 120.766 1126.9 118.612 1126.85 116.563C1126.79 112.098 1127.74 107.79 1122.85 104.585C1120.33 102.956 1121.49 99.6991 1123.59 97.3875C1125.53 95.2335 1127.42 92.9745 1129.16 90.6629C1133.04 85.3567 1131.57 79.5778 1130.47 73.8514C1135.78 79.6303 1142.61 79.1575 1149.49 78.5271C1151.17 78.3695 1152.85 78.2118 1154.48 78.1593C1162.36 77.8966 1166.2 81.2589 1166.67 89.0868C1166.88 92.1864 1166.3 95.3386 1166.25 98.4382C1166.25 99.1737 1166.67 99.9092 1166.93 100.645C1167.46 100.172 1168.19 99.8042 1168.56 99.2263C1169.71 97.4926 1170.5 95.4962 1171.82 93.9201C1174.5 90.6629 1176.33 90.7154 1179.38 93.7625C1180.43 94.8132 1181.59 95.6538 1182.59 96.7571C1185.37 99.8041 1185.42 103.534 1182.06 106.003C1180.38 107.264 1177.7 107.264 1175.44 107.79C1176.49 106.319 1177.65 104.9 1178.59 103.324C1179.28 102.168 1180.33 100.54 1179.96 99.6991C1179.22 98.123 1177.6 97.0197 1176.33 95.7063C1175.39 96.7571 1174.34 97.7552 1173.45 98.8585C1172.81 99.6991 1172.5 100.697 1172.08 101.643C1170.82 104.322 1169.45 107.947 1165.98 106.214C1163.99 105.215 1162.62 101.748 1162.2 99.1737C1161.73 96.1792 1162.89 92.9745 1162.94 89.8748C1163.04 83.8857 1160.52 81.5216 1154.53 81.8368C1149.54 82.0995 1144.5 82.5723 1139.51 82.6774C1137.04 82.7299 1136.14 83.5705 1135.25 85.9872C1133.62 90.4002 1131.52 94.8132 1128.84 98.6484C1125.85 103.009 1125.48 102.956 1130.89 104.007C1133.31 104.48 1135.51 105.11 1133.31 107.842C1128.63 113.621 1130.89 119.242 1133.73 124.549C1137.41 131.483 1144.08 133.27 1150.75 129.277C1153.17 127.858 1154.85 125.284 1157.05 123.393C1158 122.605 1159.31 122.184 1160.47 121.607C1160.31 122.92 1160.47 124.496 1159.84 125.494C1157.89 128.436 1155.32 131.011 1153.53 134.005C1152.64 135.529 1152.17 137.998 1152.8 139.574C1153.22 140.625 1156.11 141.518 1157.47 141.097C1161.99 139.679 1166.62 138.05 1170.71 135.686C1175.6 132.902 1178.02 128.436 1176.86 122.447C1176.44 120.241 1176.49 117.877 1176.6 115.565C1176.7 113.253 1177.02 111.152 1180.27 113.201C1183.74 115.355 1185.16 113.306 1185.84 110.049C1186.16 108.473 1186.37 105.793 1187.1 105.583C1192.57 104.27 1190.26 101.065 1189.57 97.9129C1189.31 96.7571 1190.1 94.2353 1190.36 94.2353C1197.4 94.4455 1192.78 90.6629 1192.36 88.5089C1192.1 87.0904 1190.68 85.0941 1191.2 84.5162C1193.67 81.5216 1191.83 79.4727 1190.05 77.4763C1188.26 75.5325 1186.32 72.7481 1184.06 72.3278C1179.33 71.3822 1177.7 70.0688 1180.59 65.6032C1181.06 64.9202 1180.59 63.6068 1180.59 62.6086C1179.64 62.6612 1178.65 62.5561 1177.81 62.8713C1175.44 63.6594 1173.18 64.9202 1170.77 65.4981C1168.93 65.971 1166.88 65.7608 1164.93 65.8659C1165.35 64.1847 1165.62 62.451 1166.2 60.8224C1166.98 58.6159 1166.83 57.5127 1164.15 58.2482C1162.73 58.6159 1161.31 59.0362 1159.84 59.1413C1155.48 59.4039 1151.85 60.3496 1149.49 64.8152C1147.65 68.2825 1145.18 66.4963 1144.13 63.7119C1142.66 59.8242 1141.56 60.8224 1140.24 63.6594C1139.51 65.1829 1139.09 66.9691 1137.98 68.0724C1136.88 69.2282 1134.67 70.6992 1133.68 70.2789C1128.37 68.1775 1131.15 72.3803 1130.58 73.9039C1126.11 73.1159 1125.43 69.1231 1124.64 65.9184C1123.96 63.0815 1126.95 63.0289 1128.42 64.0797C1133.73 67.8097 1135.62 64.2373 1137.56 60.2445C1138.3 58.721 1139.09 57.25 1140.19 55.9891C1141.19 54.7808 1142.61 53.8877 1143.81 52.8369C1144.71 54.0978 1145.5 55.4637 1146.55 56.6195C1147.12 57.25 1148.12 58.1956 1148.75 58.038C1152.38 57.1449 1156 56.3043 1159.42 54.8333C1162.15 53.6775 1164.51 51.6286 1167.04 50C1167.88 50 1168.72 50 1169.56 50C1170.14 52.6268 1171.03 55.2011 1171.19 57.8279C1171.34 59.9293 1171.97 60.4547 1173.81 59.7717C1174.97 59.3514 1176.12 58.8261 1177.28 58.3007C1183.11 55.4637 1184.9 56.3569 1184.85 62.7663C1184.85 66.1811 1185.95 68.0199 1188.52 70.4365C1193.57 75.2173 1200.08 79.7879 1197.19 88.7716C1196.56 90.8205 1198.82 93.6574 1198.5 95.969C1198.19 97.9654 1194.98 99.7516 1194.98 101.59C1194.98 108.052 1189.1 111.204 1187.26 116.511C1186.89 117.614 1184.53 117.929 1183.16 118.822C1182.38 119.348 1181.27 120.293 1181.27 121.029C1181.27 127.228 1182.38 132.639 1188.42 136.474C1195.25 140.835 1201.5 146.246 1207.8 151.395C1215.53 157.699 1219.36 166.105 1220.31 175.876C1220.94 182.548 1221.1 189.22 1221.67 195.893C1222.25 202.932 1222.99 209.972 1223.67 217.065V224.577C1223.2 226.153 1222.72 227.729 1222.25 229.305C1221.46 232.037 1221.52 235.505 1219.78 237.343C1214.37 243.122 1207.7 245.854 1199.4 247.273C1185 249.794 1176.44 240.758 1166.35 234.244C1165.67 233.771 1164.93 233.298 1164.36 232.72C1161.26 229.411 1158.63 230.619 1157 233.929C1154.85 238.289 1152.22 237.764 1149.02 235.4C1147.65 234.401 1146.13 233.718 1144.71 232.878C1141.14 230.829 1139.82 228.255 1141.45 223.999C1142.24 222.003 1141.77 219.429 1141.61 217.117C1141.61 216.802 1140.19 216.592 1139.4 216.277C1139.4 218.588 1139.35 220.952 1139.35 223.264C1139.35 233.666 1139.56 244.121 1139.4 254.523C1139.4 256.099 1137.98 258.621 1136.77 258.936C1133.1 259.881 1133.1 262.088 1133.41 265.03C1133.83 269.18 1134.04 273.331 1134.1 277.534C1134.1 278.532 1133.2 279.582 1132.73 280.581C1131.84 279.845 1130.31 279.162 1130.26 278.374C1129.79 273.803 1129.1 269.18 1129.47 264.662C1129.89 259.514 1127.79 257.307 1123.12 255.679C1112.24 251.896 1101.58 247.641 1090.86 243.438C1083.77 240.653 1083.77 240.233 1084.66 232.825C1085.39 226.994 1085.81 221.162 1086.03 215.331C1086.24 209.237 1081.24 206.19 1075.73 208.816C1068.27 212.389 1058.08 206.82 1057.24 198.572C1057.18 197.836 1058.76 196.523 1059.81 196.103C1061.86 195.262 1064.12 194.894 1066.32 194.369C1071.53 191.795 1072.52 186.278 1075.1 181.865C1076.52 179.501 1075.94 178.083 1073.84 176.086C1063.12 165.842 1052.61 155.387 1042.1 144.933C1040.32 143.199 1038.8 141.15 1037.48 139.049C1036.85 137.998 1036.38 135.634 1036.85 135.266C1039.74 133.165 1037.27 131.063 1037.17 129.014C1037.17 128.226 1036.06 127.491 1035.49 126.755C1035.38 127.543 1035.28 128.384 1035.07 129.172C1034.7 130.643 1034.22 132.114 1033.8 133.637C1032.33 133.007 1030.65 132.692 1029.44 131.694C1026.55 129.329 1023.87 126.703 1021.14 124.128L1020.83 123.813L1021.2 124.023C1021.77 125.915 1022.51 127.753 1022.93 129.645C1023.56 132.639 1022.09 132.744 1019.93 131.588C1019.46 131.168 1019.04 130.748 1018.57 130.328C1018.15 129.907 1017.78 129.434 1017.36 129.014C1016.26 126.755 1015.1 124.496 1014 122.237C1013.84 122.342 1013.58 122.5 1013.63 122.552C1014.84 124.706 1016.1 126.913 1017.36 129.067C1017.78 129.487 1018.25 129.855 1018.67 130.275C1019.15 130.695 1019.57 131.116 1020.04 131.483C1019.67 132.744 1019.3 134.005 1018.99 135.266C1017.89 134.793 1016.62 134.583 1015.78 133.847C1014.1 132.376 1012.68 130.643 1011.11 129.014C1010.64 128.226 1010.22 127.438 1009.74 126.65C1009.74 126.492 1009.74 126.282 1009.69 126.125C1009.69 126.02 1009.53 125.915 1009.43 125.757C1009.59 126.02 1009.69 126.282 1009.85 126.545C1010.27 127.333 1010.69 128.174 1011.11 128.962C1012 131.011 1013 133.059 1013.79 135.161C1014.42 136.737 1014.84 138.366 1015.31 139.942C1013.63 139.049 1011.9 138.261 1010.27 137.262C1009.8 137 1009.64 136.159 1009.22 135.739C1008.74 135.266 1008.17 134.951 1007.59 134.583C1007.64 135.161 1007.59 135.844 1007.8 136.369C1009.9 141.465 1013.63 144.67 1019.15 144.828C1024.4 144.985 1028.39 147.402 1031.81 150.974C1039.22 158.644 1046.52 166.42 1053.82 174.195C1057.81 178.451 1061.75 182.811 1065.59 187.224C1067.43 189.326 1069.21 191.585 1066.38 194.264L1066.17 194.474ZM1156.69 200.778C1156.16 195.63 1155.43 190.429 1155.22 185.28C1154.69 174.248 1154.37 163.163 1153.95 152.13C1153.95 151.237 1153.43 150.344 1153.17 149.451C1152.59 150.396 1151.54 151.289 1151.43 152.235C1150.59 164.056 1150.33 175.929 1149.07 187.697C1148.33 194.527 1150.85 198.362 1156.79 200.673C1164.04 205.559 1171.29 210.445 1178.59 215.226C1179.33 215.699 1181.33 215.594 1181.33 215.488C1182.32 210.76 1188.68 208.974 1187.52 202.67C1186.63 197.889 1187.79 192.688 1188.21 187.697C1188.31 186.699 1189.31 185.753 1189.89 184.755C1190.83 185.701 1191.99 186.541 1192.57 187.644C1192.99 188.432 1192.57 189.693 1192.52 190.744C1192.1 194.894 1191.41 199.045 1191.25 203.195C1191.2 204.719 1192.1 207.45 1193.04 207.661C1202.81 209.972 1210.69 215.173 1217.37 222.423C1217.73 222.844 1218.42 223.001 1218.94 223.316C1219.05 222.738 1219.26 222.161 1219.2 221.635C1218 206.032 1216.94 190.376 1215.42 174.773C1214.58 166.157 1210.85 158.697 1203.76 153.286C1196.25 147.559 1188.68 141.991 1181.22 136.212C1178.17 133.847 1177.91 135.896 1177.28 138.155C1175.55 144.617 1173.92 151.132 1171.87 157.489C1170.4 162.164 1167.19 163.058 1163.15 160.326C1162.31 159.748 1161.62 158.907 1160.84 158.224C1160.21 157.699 1159.58 157.279 1158.95 156.806C1158.79 157.751 1158.47 158.645 1158.47 159.59C1158.68 164.581 1159.16 169.625 1159.16 174.615C1159.16 177.663 1160.31 179.291 1163.2 179.817C1169.14 180.972 1175.07 182.076 1180.96 183.336C1182.48 183.652 1185.16 184.282 1185.21 185.018C1185.53 188.275 1185.79 191.847 1184.69 194.737C1184.16 196.05 1180.27 196.838 1178.07 196.576C1173.13 195.998 1168.19 194.842 1163.36 193.423C1160.15 192.478 1159.16 192.951 1159.68 196.365C1160.05 198.572 1160.63 201.356 1156.63 200.673L1156.69 200.778ZM1135.15 239.445C1135.15 239.445 1135.57 239.445 1135.78 239.445C1135.25 232.983 1134.78 226.521 1134.15 220.059C1133.73 215.594 1129.84 211.863 1126 213.335C1121.75 214.963 1118.18 213.44 1114.39 212.914C1108.2 212.074 1102 210.918 1095.9 209.447C1094.27 209.079 1093.01 207.135 1091.59 205.927C1093.22 205.717 1094.96 205.191 1096.53 205.454C1102.1 206.295 1107.62 207.503 1113.19 208.449C1115.5 208.816 1118.23 209.972 1117.55 205.296C1117.13 202.354 1118.23 199.202 1118.6 196.155C1119.23 190.429 1120.02 189.431 1125.37 189.903C1128.68 190.219 1128.95 189.588 1127.9 186.699C1124.27 176.927 1120.96 166.998 1117.23 157.226C1116.65 155.65 1114.5 153.654 1113.03 153.654C1101.21 153.286 1089.91 150.186 1078.62 147.297C1077.09 146.929 1075.41 147.454 1073.78 147.507C1074.15 148.82 1074.36 150.239 1074.83 151.5C1084.29 178.398 1093.8 205.296 1088.44 234.559C1087.86 237.711 1089.49 238.604 1091.8 239.445C1101.79 243.175 1111.77 246.905 1121.8 250.635C1124.95 251.791 1128.05 252.999 1131.21 254.102C1133.83 255.048 1135.15 254.26 1135.09 251.318C1134.99 247.325 1135.09 243.385 1135.09 239.392L1135.15 239.445ZM1198.98 235.662C1198.24 233.876 1197.14 230.514 1195.51 227.467C1193.99 224.63 1191.2 224.787 1188.42 225.26C1187.73 225.365 1186.89 224.682 1186.16 224.315C1180.64 221.373 1175.13 218.325 1169.56 215.436C1157.58 209.132 1147.91 199.885 1137.88 191.007C1136.93 190.166 1135.78 189.483 1134.73 188.695C1135.25 189.798 1135.93 190.902 1136.2 192.057C1136.51 193.371 1136.46 194.737 1136.56 196.103C1134.99 196.208 1133.41 196.628 1131.89 196.365C1130.05 196.05 1128.37 195.052 1126.58 194.474C1126.06 194.316 1125.37 194.527 1124.8 194.579C1125.11 195.262 1125.27 196.26 1125.79 196.523C1128.37 197.836 1131.15 198.835 1133.73 200.2C1134.46 200.568 1134.83 201.724 1135.36 202.565C1134.36 203.09 1133.31 204.193 1132.47 204.036C1130.42 203.668 1128.53 202.722 1126.53 202.039C1125.85 201.829 1125.11 201.777 1124.38 201.672C1124.9 202.249 1125.32 203.195 1126 203.405C1129.74 204.771 1133.36 206.19 1135.46 209.972C1135.67 210.392 1136.62 210.34 1137.14 210.655C1143.6 214.017 1150.28 217.012 1156.37 220.9C1165.14 226.521 1173.45 232.983 1182.11 238.867C1185 240.811 1188.31 242.492 1191.68 243.385C1196.04 244.541 1199.03 241.756 1199.03 235.662H1198.98ZM1193.2 211.758C1190.94 212.389 1189.47 212.336 1188.63 213.124C1187.31 214.333 1186.47 216.014 1185.42 217.485C1187 217.905 1188.58 218.22 1190.15 218.693C1191.83 219.219 1193.72 219.481 1195.14 220.427C1201.55 224.735 1203.55 231.197 1203.13 238.447C1202.97 241.546 1203.6 241.704 1206.02 240.285C1208.01 239.13 1210.38 238.604 1212.22 237.291C1217.73 233.246 1219.31 229.778 1214.37 225.26C1211.11 222.318 1208.07 219.008 1204.39 216.697C1200.76 214.438 1196.46 213.177 1193.2 211.811V211.758ZM1082.35 191.059C1082.14 189.956 1082.08 189.326 1081.87 188.695C1081.14 186.541 1080.35 184.387 1079.62 182.233C1078.46 184.072 1077.3 185.858 1076.15 187.697C1073.47 192.11 1071.63 197.206 1066.32 199.412C1064.91 199.99 1063.59 200.673 1062.17 201.356C1063.54 202.565 1064.75 204.088 1066.38 204.876C1070.11 206.767 1073.26 205.664 1075.57 202.197C1077.51 199.255 1079.51 196.313 1081.4 193.318C1081.93 192.478 1082.14 191.532 1082.35 191.007V191.059ZM1170.35 141.675C1166.41 142.936 1163.04 143.934 1159.79 145.195C1159.31 145.405 1158.79 146.981 1159.05 147.507C1160.57 150.396 1162.2 153.286 1164.09 156.018C1165.46 157.962 1166.93 157.489 1167.61 155.335C1168.87 151.395 1170.03 147.402 1171.08 143.409C1171.24 142.884 1170.5 142.096 1170.35 141.728V141.675ZM1179.12 192.005C1179.38 191.847 1180.43 191.112 1181.54 190.429C1180.43 189.483 1179.49 188.065 1178.23 187.697C1174.23 186.594 1170.19 185.858 1166.09 185.07C1164.88 184.86 1163.62 185.07 1162.41 185.175C1163.31 186.594 1163.99 188.958 1165.2 189.326C1169.35 190.534 1173.76 191.007 1179.17 192.005H1179.12ZM1144.66 225.575C1144.97 228.57 1147.23 231.827 1150.07 231.512C1151.85 231.302 1153.43 229.095 1155.06 227.782C1152.38 225.418 1149.7 223.054 1147.07 220.69C1146.28 222.318 1145.44 223.947 1144.66 225.575ZM1085.45 203.195C1084.55 201.724 1083.92 200.568 1083.29 199.465C1082.56 200.411 1081.4 201.251 1081.3 202.249C1081.24 202.88 1082.66 203.773 1083.56 204.351C1083.77 204.508 1084.55 203.773 1085.45 203.195ZM1122.75 206.085C1122.75 206.085 1122.38 206.137 1122.22 206.19C1122.38 206.452 1122.54 206.715 1122.75 206.873C1122.8 206.925 1123.06 206.82 1123.22 206.767C1123.06 206.557 1122.91 206.295 1122.7 206.085H1122.75Z" fill="#3A352F"/>
<path d="M905.297 287.355C902.881 289.929 900.254 289.719 897.312 288.248C892.216 285.674 888.223 282.311 885.229 277.163C880.5 269.072 874.826 261.56 869.783 253.627C868.102 251 866.999 248.005 866.105 245.011C865.738 243.802 866.788 242.226 867.209 240.808C868.154 241.753 869.363 242.541 869.993 243.645C874.406 251.473 878.714 259.353 883.022 267.181C883.337 267.706 883.758 268.179 884.073 268.704C885.912 271.699 887.33 272.54 889.642 268.704C894.527 260.561 900.779 253.522 909.185 248.741C911.812 247.217 911.969 245.799 910.393 243.277C903.406 232.139 896.629 220.792 889.747 209.601C886.752 204.716 883.075 201.721 876.508 202.141C871.884 202.456 866.999 201.038 862.533 199.462C858.961 198.201 856.596 198.254 854.495 201.511C852.131 205.188 849.189 207.342 844.461 204.926C843.515 204.453 841.676 205.188 840.468 205.819C835.897 208.235 831.747 207.605 828.7 203.612C826.703 201.038 825.285 202.089 823.551 203.35C817.93 207.29 813.464 212.333 811.048 218.743C807.948 226.938 805.479 235.397 802.747 243.75C802.432 244.748 802.011 245.956 802.327 246.797C802.694 247.795 803.745 248.951 804.638 249.108C805.269 249.214 806.74 247.9 806.897 247.112C807.265 245.063 806.897 242.909 807.16 240.86C807.318 239.862 808.211 238.916 808.789 237.971C809.524 238.864 810.838 239.705 810.943 240.65C811.415 246.272 811.363 251.945 811.941 257.514C814.305 280.998 816.879 304.429 819.348 327.913C819.874 333.061 820.557 338.262 821.03 343.411C821.502 348.927 821.975 349.82 827.491 349.085C837.789 347.666 848.348 346.615 858.225 343.516C877.296 337.527 896.839 331.958 912.022 317.615C912.968 316.722 914.859 316.722 916.277 316.302C915.752 317.721 915.594 319.507 914.596 320.505C905.718 329.068 895.21 334.952 883.6 338.998C872.725 342.78 862.008 347.036 850.923 349.978C843.567 351.974 835.687 352.132 828.017 353.077C826.073 353.34 823.551 352.342 823.499 355.757C823.446 358.699 825.127 359.592 827.702 360.17C834.636 361.641 841.098 361.378 847.928 358.646C854.653 355.967 862.06 354.916 869.153 353.025C884.178 348.927 898.047 342.045 911.497 334.374C914.334 332.746 915.857 328.753 918.011 325.864C918.641 325.023 919.43 323.552 920.165 323.605C921.636 323.605 923.737 324.025 924.368 325.023C926.312 328.228 927.94 331.695 929.201 335.215C931.355 341.099 933.246 347.088 935.138 353.077C935.506 354.233 935.768 355.546 935.611 356.755C935.453 357.595 934.612 358.804 933.877 358.961C933.246 359.119 931.933 358.121 931.67 357.385C930.147 353.287 928.833 349.085 927.52 344.934C926.995 343.358 926.574 341.729 926.154 340.101C923.685 330.644 924.158 331.327 916.75 336.896C910.498 341.572 902.828 344.356 895.893 348.191C879.712 357.175 861.272 359.014 844.145 365.108C840.1 366.526 835.057 365.581 830.539 365.108C826.861 364.688 826.546 365.896 827.544 368.838C830.171 376.561 832.745 384.284 835.162 392.059C835.635 393.635 835.792 396.84 835.372 396.945C832.325 397.891 831.537 395.369 830.854 393.162C828.28 384.756 825.653 376.403 823.289 367.945C822.448 364.95 821.713 364.688 818.14 364.688C810.155 364.74 802.117 362.849 794.184 361.273C790.506 360.537 789.508 357.017 789.613 353.865C789.981 343.253 790.769 332.641 791.399 322.028C791.452 321.03 791.557 319.507 792.24 319.086C797.231 315.777 794.867 311.206 794.814 306.846C794.762 297.652 794.919 288.458 795.602 279.317C795.865 275.797 795.917 273.643 791.82 273.223C790.664 273.117 789.245 272.645 788.457 271.804C783.151 266.288 787.039 249.949 794.394 247.69C797.126 246.849 797.704 245.851 798.176 243.172C800.278 231.614 803.693 220.371 809.734 210.179C813.202 204.295 818.455 200.04 824.655 197.15C826.651 196.205 827.386 195.522 825.022 193.893C820.136 190.531 818.77 185.697 820.294 180.076C821.082 177.239 820.557 175.558 817.772 174.035C814.2 172.091 812.414 168.623 812.886 164.525C813.569 158.064 814.252 151.444 820.031 147.084C822.08 145.507 821.502 143.826 821.45 141.62C821.345 137.574 821.502 133.214 823.026 129.589C824.497 126.069 828.28 124.125 832.43 124.546C835.424 124.808 836.79 124.808 836.58 120.868C836.318 115.247 843.305 107.051 848.401 108.417C854.548 110.046 858.698 108.312 863.479 105.685C864.687 105.002 867.209 105.212 868.259 106.053C871.674 108.785 875.404 108.785 879.397 108.942C885.701 109.205 889.116 113.145 888.959 119.712C888.906 122.181 888.959 123.652 891.585 125.071C895.526 127.225 896.314 130.587 894.265 134.685C893.214 136.786 893.214 138.257 894.055 140.411C894.895 142.618 895.526 145.718 894.58 147.556C892.741 151.076 894.107 153.335 896.366 155.174C899.623 157.801 899.308 160.69 898.31 164.158C897.732 166.154 897.417 168.623 898.047 170.515C901.515 180.864 899.203 189.9 892.058 197.833C890.167 199.935 889.694 201.038 891.638 203.455C895.053 207.71 897.942 212.333 900.884 216.904C902.671 219.688 903.826 220.686 905.56 216.851C908.502 210.389 911.969 204.138 914.754 197.623C920.112 185.12 925.208 172.511 930.304 159.955C932.091 155.594 933.509 154.649 937.922 156.645C953 163.37 968.025 170.252 982.998 177.239C984.522 177.975 985.625 179.761 986.781 181.127C988.199 182.755 989.145 184.962 990.878 186.013C993.978 187.957 993.978 190.163 992.56 192.895C991.614 194.786 990.511 196.52 989.618 198.411C987.884 202.089 986.045 205.293 988.199 210.074C990.406 215.013 988.357 220.844 984.311 224.417C977.955 230.038 974.855 237.603 970.495 244.433C962.667 256.779 954.839 269.125 946.696 281.261C944.647 284.308 941.705 286.934 938.71 289.193C932.248 294.079 926.312 294.079 919.535 289.771C916.908 288.09 913.861 286.777 911.707 284.57C908.555 281.261 907.031 282.049 905.875 285.884C905.665 286.462 905.455 287.092 905.245 287.67L905.35 287.565L905.297 287.355ZM983.313 199.567C982.998 200.197 982.683 200.88 982.368 201.511C982.525 201.511 982.683 201.616 982.84 201.668C982.946 200.933 983.051 200.197 983.156 199.462C983.576 198.569 983.996 197.728 984.364 196.835C985.52 194.366 986.623 191.844 987.779 189.375C987.253 189.165 986.728 188.955 986.203 188.797C985.625 191.529 985.047 194.208 984.469 196.94C984.049 197.833 983.681 198.726 983.261 199.62L983.313 199.567ZM915.384 210.81C912.757 215.696 910.026 220.581 907.504 225.52C907.136 226.308 907.241 227.674 907.714 228.462C911.181 234.136 914.596 239.915 918.431 245.326C920.218 247.848 922.949 251.42 925.366 251.473C928.15 251.525 931.04 248.373 933.772 246.429C937.502 243.802 937.397 243.487 933.141 241.281C926.102 237.603 919.062 233.873 912.18 229.985C911.024 229.302 910.446 227.621 909.553 226.36C911.129 226.36 912.915 225.888 914.176 226.518C919.482 228.987 924.683 231.614 929.832 234.451C941.442 240.808 942.545 240.65 952.895 232.139C956.94 228.777 959.567 225.52 957.413 219.846C956.1 216.326 956.783 212.438 960.092 210.284C963.77 207.868 965.766 211.283 967.763 213.594C969.181 215.223 970.127 215.538 971.598 213.647C973.069 211.755 974.33 210.179 974.75 207.342C975.748 200.565 978.322 194.051 979.951 187.379C981.475 181.284 981.317 181.127 975.433 178.448C970.495 176.188 965.399 174.245 960.46 172.038C953.21 168.781 946.013 165.419 938.815 162.004C936.661 160.953 935.243 160.323 934.087 163.37C931.145 171.198 927.94 178.92 924.631 186.591C923.58 189.007 923.895 190.216 926.522 191.214C932.564 193.473 938.553 195.995 944.542 198.569C948.745 200.408 952.947 202.351 956.94 204.61C957.781 205.083 957.938 206.922 958.359 208.13C957.203 208.341 956.1 208.761 954.996 208.656C953.998 208.551 953.105 207.815 952.159 207.395C943.228 203.35 934.245 199.304 925.366 195.154C923.422 194.261 921.899 193.736 920.953 196.362C919.167 201.248 917.223 206.081 915.332 210.967L915.437 210.81H915.384ZM887.855 151.497C885.544 154.964 885.123 158.431 886.91 162.371C887.54 163.843 887.435 167.047 886.489 167.625C882.392 170.252 878.031 173.089 873.408 174.192C869.153 175.243 867.839 170.777 866.526 167.467C865.738 165.524 864.792 163.895 862.428 165.576C857.857 168.886 853.287 172.143 848.979 175.768C847.35 177.134 846.457 179.971 849.767 180.391C855.125 181.022 855.23 183.176 853.444 187.536C852.236 190.478 853.497 192.842 857.49 192.422C858.803 192.317 860.432 192.737 861.482 193.525C866.999 197.781 873.46 197.938 879.922 197.991C885.754 198.043 890.062 195.417 892.373 190.111C893.529 187.536 893.844 184.594 894.58 181.81C892.531 181.915 890.535 182.23 888.486 182.073C887.225 181.967 886.017 181.127 884.808 180.602C885.806 179.761 886.647 178.553 887.803 178.185C893.897 176.031 895.21 172.511 891.008 167.783C889.169 165.681 888.748 163.948 891.06 162.739C894.107 161.163 893.95 160.112 891.796 157.853C890.114 156.067 889.064 153.703 887.698 151.549C884.861 146.926 875.247 141.988 871.044 143.143C870.624 143.248 870.098 143.984 870.098 144.457C870.256 150.814 866.473 152.18 861.115 151.969C860.011 151.969 858.908 152.968 857.752 153.283C856.701 153.545 855.546 153.545 854.442 153.598C854.758 152.285 854.705 150.498 855.546 149.815C856.912 148.712 858.908 147.714 860.537 147.766C864.845 148.029 866.105 146.19 865.79 142.198C865.633 140.149 864.214 137.627 867.366 136.261C870.308 135 871.937 136.103 873.671 138.468C874.354 139.361 877.138 139.991 877.243 139.834C879.817 135.263 884.966 135.315 888.854 133.214C889.747 132.741 890.797 130.955 890.535 130.377C890.062 129.326 888.696 128.328 887.54 128.065C885.754 127.645 883.758 128.065 881.919 127.803C880.816 127.593 879.345 126.91 878.977 126.017C878.714 125.386 879.87 124.02 880.553 123.127C880.921 122.654 881.971 122.654 882.129 122.234C882.97 120.29 884.493 118.084 884.125 116.297C883.863 114.879 881.341 113.355 879.555 112.988C877.453 112.567 874.984 112.988 872.83 113.618C870.676 114.248 869.31 114.459 868.364 112.042C866.683 107.734 864.004 109.047 861.535 111.201C860.169 112.41 859.171 114.091 858.12 115.667C855.546 119.66 854.653 119.765 852.709 115.299C850.975 111.412 848.926 111.569 845.932 113.513C841.571 116.35 839.89 120.448 840.783 125.386C841.361 128.643 840.258 129.642 837.211 129.379C835.95 129.274 834.689 129.221 833.428 129.169C830.381 128.959 827.176 129.274 825.915 132.426C824.655 135.526 824.129 139.046 827.281 141.62C829.54 143.459 829.435 144.457 826.914 146.243C821.135 150.236 817.72 156.015 817.51 163.054C817.457 165.419 818.718 169.621 820.136 169.989C827.124 171.775 825.495 176.188 824.497 180.812C824.129 182.598 823.761 184.804 824.497 186.328C825.337 188.167 827.229 190.531 828.91 190.688C833.27 191.161 833.586 192.37 832.01 196.257C831.327 197.886 833.323 200.565 834.058 202.772C836.423 201.406 838.944 200.25 841.046 198.569C841.781 197.991 841.466 196.205 841.676 194.944C841.939 193.315 842.096 191.582 842.622 190.005C842.885 189.165 843.883 188.587 844.566 187.851C845.196 188.797 846.299 189.69 846.404 190.636C846.562 193.315 846.142 196.047 846.352 198.779C846.404 199.672 847.665 201.091 848.401 201.143C850.134 201.248 852.078 197.045 851.238 195.312C850.502 193.841 848.979 192.422 848.979 190.951C848.979 186.853 847.035 185.803 843.305 185.435C838.892 185.015 837.158 181.39 840.258 178.553C843.41 175.663 842.569 173.509 841.361 170.515C840.783 169.044 840.941 167.205 840.941 165.576C840.941 162.529 841.308 159.482 844.671 158.326C848.138 157.118 851.343 158.221 853.759 160.9C854.39 161.636 854.337 163.002 854.6 164.053C853.654 164.053 852.656 164.105 851.711 163.948C849.819 163.632 847.981 163.16 846.089 162.792C845.774 164.998 845.196 167.205 845.301 169.411C845.459 171.618 847.245 172.353 848.821 170.777C853.392 166.154 860.642 164.368 862.796 157.223C863.058 156.382 864.162 155.647 865.055 155.174C868.837 153.388 872.62 151.602 876.508 150.078C877.558 149.658 878.977 149.868 880.133 150.078C882.707 150.498 885.281 151.076 887.855 151.602V151.497ZM962.404 224.469C963.087 228.987 960.355 231.982 957.203 234.398C949.638 240.282 941.915 246.009 934.14 251.683C930.777 254.152 927.362 256.096 926.89 261.087C926.679 263.398 924.21 265.71 922.372 267.601C920.007 269.965 917.223 271.857 914.596 273.905C910.446 277.11 910.498 278.108 915.174 280.998C917.328 282.311 919.535 283.467 921.636 284.833C928.728 289.351 931.565 289.246 937.712 283.782C939.708 281.996 941.705 280 943.176 277.793C950.321 267.023 957.466 256.253 964.348 245.273C969.654 236.815 973.121 227.201 981.002 220.424C982.473 219.163 983.261 216.956 984.101 215.065C984.364 214.435 984.154 213.279 983.734 212.806C983.418 212.491 982.21 212.754 981.58 213.069C978.27 214.697 974.54 215.801 973.121 219.898C972.281 222.263 970.337 223.996 967.815 221.895C965.766 220.266 964.19 218.06 962.456 216.063V224.417L962.404 224.469ZM793.238 341.677C793.501 346.458 793.868 349.768 793.816 353.13C793.816 356.019 795.339 357.385 797.861 357.858C803.01 358.751 808.158 359.802 813.307 360.222C818.035 360.59 819.138 358.909 818.613 354.286C817.982 348.927 817.51 343.516 816.984 338.104C816.511 332.956 814.988 328.911 808.999 327.86C805.952 327.335 802.957 326.126 800.068 324.97C797.231 323.867 795.707 324.55 795.287 327.597C794.551 332.746 793.763 337.947 793.238 341.729V341.677ZM799.069 296.706C799.069 296.706 799.595 296.706 799.858 296.706C799.858 302.117 799.49 307.581 799.963 312.992C800.593 320.715 802.011 321.871 809.524 323.132C812.361 323.605 813.254 322.974 812.886 319.927C811.31 306.478 809.944 292.976 808.579 279.474C808.316 277.11 808.421 275.114 804.901 275.009C801.591 274.904 800.225 276.165 800.015 279.159C799.647 284.991 799.385 290.822 799.069 296.654V296.706ZM921.741 260.404C920.953 258.565 920.323 257.146 919.797 255.675C918.011 250.579 916.908 250.212 912.232 252.891C904.772 257.146 899.571 263.661 894.475 270.386C890.062 276.165 890.43 278.161 896.314 282.154C899.728 284.465 901.515 283.73 902.828 280.105C904.457 275.587 907.661 272.434 911.549 269.755C914.491 267.759 917.17 265.395 919.85 263.031C920.743 262.242 921.321 261.087 921.794 260.404H921.741ZM806.74 262.295C806.74 261.665 806.792 260.456 806.74 259.195C806.477 255.045 797.441 249.266 794.289 251.788C792.292 253.364 791.347 257.094 791.084 259.931C790.821 262.558 791.399 267.128 792.87 267.706C796.758 269.23 801.276 269.177 805.584 269.492C806.057 269.492 807.002 268.127 807.107 267.286C807.265 265.867 806.95 264.396 806.792 262.295H806.74ZM874.984 170.725C877.558 168.361 881.919 166.207 882.181 163.58C882.444 160.795 879.45 155.804 876.928 155.069C874.669 154.386 870.151 157.538 868.364 160.165C866.841 162.371 872.2 169.884 875.037 170.725H874.984ZM887.33 137.995C885.859 139.256 885.123 139.886 884.441 140.464L889.747 144.982C890.167 144.404 891.06 143.564 890.955 143.353C889.957 141.62 888.748 139.991 887.383 137.995H887.33ZM981.632 205.976C981.632 205.976 981.527 205.661 981.422 205.451C981.317 205.609 981.107 205.714 981.107 205.871C981.107 206.029 981.212 206.187 981.264 206.344C981.369 206.187 981.475 206.081 981.58 205.924L981.632 205.976Z" fill="#3A352F"/>
<path d="M980.684 269.13C980.474 265.978 980.579 262.826 980.054 259.779C979.319 255.418 980.79 252.371 984.677 250.532C995.079 245.699 1005.64 241.128 1015.94 236.085C1019.67 234.246 1022.82 231.147 1026.39 228.887C1027.55 228.152 1029.33 227.522 1030.54 227.889C1034.74 229.098 1038.89 230.569 1042.89 232.355C1069.42 244.228 1095.9 256.154 1122.43 268.079C1123.21 268.447 1124.11 268.552 1124.74 269.078C1125.42 269.708 1125.89 270.654 1126.42 271.442C1125.42 272.02 1124.42 273.123 1123.42 273.07C1121.8 273.018 1120.17 272.387 1118.64 271.704C1093.64 260.462 1068.68 249.219 1043.68 237.976C1040.42 236.505 1037.06 235.297 1033.96 233.511C1030.49 231.514 1028.49 234.089 1026.18 235.612C1025.92 235.77 1026.55 238.344 1027.34 238.712C1029.75 239.92 1032.48 240.445 1034.95 241.549C1060.54 252.949 1086.12 264.402 1111.6 275.96C1113.34 276.748 1116.96 276.853 1115.49 280.32C1113.97 283.945 1111.39 281.844 1109.19 280.846C1084.5 269.498 1059.75 258.203 1035.11 246.802C1030.65 244.753 1026.55 241.969 1022.14 239.71C1021.24 239.237 1019.72 239.237 1018.77 239.657C1008.37 244.07 998.074 248.588 987.724 253.159C987.094 253.422 986.674 254.262 986.148 254.84C986.779 255.313 987.304 255.891 987.987 256.206C1013.83 267.607 1039.63 279.007 1065.48 290.407C1068.37 291.668 1071.26 292.876 1073.99 294.452C1075.2 295.188 1075.88 296.764 1076.83 297.92C1075.2 298.182 1073.31 299.128 1072.04 298.603C1063.38 294.873 1054.92 290.775 1046.35 286.94C1027.44 278.481 1008.53 270.076 989.563 261.722C984.625 259.516 984.152 259.726 984.52 265.085C985.728 281.739 987.304 298.393 988.67 314.994C989.195 321.456 989.773 327.918 990.036 334.38C990.141 336.376 991.087 339.423 987.724 339.633C987.094 339.633 985.728 336.429 985.57 334.59C984.94 328.601 984.835 322.507 984.257 316.518C983.206 305.117 981.788 293.717 980.79 282.264C980.422 277.904 980.737 273.491 980.737 269.078C980.684 269.078 980.579 269.078 980.527 269.078L980.684 269.13Z" fill="#3A352F"/>
<path d="M905.193 287.463C906.821 288.461 909.133 289.039 909.974 290.457C914.492 298.443 918.642 306.586 922.845 314.781C923.475 316.042 923.896 317.566 923.948 318.984C923.948 319.772 923.16 320.771 922.425 321.243C922.109 321.454 921.111 320.613 920.428 320.245C920.271 320.14 920.166 319.93 920.061 319.72C915.122 308.95 910.236 298.128 905.298 287.358L905.193 287.463Z" fill="#3A352F"/>
<path d="M880.766 359.173C881.344 360.697 881.764 361.643 882.132 362.641C884.338 368.735 886.597 374.777 888.646 380.923C888.909 381.659 887.963 383.235 887.175 383.76C886.65 384.128 884.654 383.603 884.496 383.182C882.447 376.248 880.556 369.208 878.717 362.168C878.612 361.8 879.295 361.275 880.766 359.173Z" fill="#3A352F"/>
<path d="M1150.38 251.636C1150.38 248.484 1150.33 245.384 1150.43 242.232C1150.43 241.549 1151.17 240.919 1151.59 240.288C1152.17 240.761 1153.22 241.181 1153.22 241.654C1153.74 248.536 1154.11 255.418 1154.42 262.248C1154.42 262.826 1153.48 263.404 1153.01 263.982C1152.17 263.194 1150.75 262.511 1150.64 261.67C1150.38 258.36 1150.54 254.998 1150.54 251.636C1150.48 251.636 1150.43 251.636 1150.38 251.636Z" fill="#3A352F"/>
<path d="M1136.92 119.088C1137.92 118.983 1138.97 118.72 1139.97 118.772C1141.28 118.877 1142.65 119.245 1143.96 119.508C1142.91 120.611 1142.02 122.082 1140.71 122.713C1139.55 123.29 1137.76 123.343 1136.56 122.87C1135.19 122.345 1134.14 120.979 1132.93 119.981C1134.19 119.403 1135.4 118.825 1136.66 118.3C1136.77 118.562 1136.87 118.825 1136.98 119.14L1136.92 119.088Z" fill="#3A352F"/>
<path d="M1151.27 95.8152C1149.54 97.5488 1148.49 98.5996 1147.38 99.6503C1146.33 98.5996 1144.55 97.6014 1144.5 96.4981C1144.44 95.2898 1145.97 94.0289 1146.81 92.7681C1148.02 93.6086 1149.28 94.4492 1151.22 95.8152H1151.27Z" fill="#3A352F"/>
<path d="M1129.31 242.645C1127.89 242.435 1127.05 242.33 1126.27 242.12C1117.81 239.966 1109.3 237.864 1100.89 235.448C1099.05 234.922 1097.63 233.084 1096.01 231.875C1097.9 231.665 1099.89 230.982 1101.63 231.402C1110.93 233.661 1120.17 236.131 1129.42 238.705C1130.36 238.968 1130.99 240.281 1131.78 241.122C1130.84 241.699 1129.89 242.277 1129.31 242.645Z" fill="#3A352F"/>
<path d="M1121.42 225.633C1112.28 223.374 1103.35 221.273 1094.53 218.909C1093.58 218.646 1093 216.965 1092.27 215.967C1093.37 215.652 1094.58 214.916 1095.58 215.126C1104.98 217.07 1114.33 219.119 1123.63 221.326C1124.63 221.536 1125.36 222.744 1126.26 223.48C1124.68 224.162 1123.16 224.898 1121.48 225.633H1121.42Z" fill="#3A352F"/>
<path d="M1110.76 174.617C1103.41 173.356 1096.05 172.2 1088.75 170.729C1087.44 170.466 1086.39 168.89 1085.23 167.944C1086.6 167.524 1088.07 166.631 1089.38 166.789C1097.37 167.839 1105.35 169.1 1113.34 170.414C1114.7 170.624 1116.02 171.517 1117.33 172.095C1116.02 172.83 1114.7 173.671 1113.34 174.196C1112.6 174.459 1111.71 174.196 1110.87 174.196C1110.87 174.301 1110.87 174.406 1110.82 174.511L1110.76 174.617Z" fill="#3A352F"/>
<path d="M1087.49 154.968C1094.27 156.072 1101.1 157.07 1107.88 158.331C1109.19 158.593 1110.29 160.064 1111.5 161.01C1109.93 161.535 1108.24 162.586 1106.72 162.428C1099.68 161.535 1092.69 160.379 1085.71 159.119C1084.24 158.856 1082.92 157.91 1081.5 157.28C1083.08 156.597 1084.6 155.914 1086.18 155.283C1086.55 155.126 1087.02 155.283 1087.44 155.283C1087.44 155.178 1087.44 155.073 1087.44 154.968H1087.49Z" fill="#3A352F"/>
<path d="M1110.61 186.278C1103.57 185.017 1097.05 183.966 1090.59 182.6C1089.49 182.39 1088.65 180.814 1087.7 179.921C1088.91 179.5 1090.17 178.607 1091.33 178.712C1096.48 179.29 1101.57 180.131 1106.67 181.024C1108.24 181.287 1109.87 181.865 1111.29 182.705C1111.87 183.073 1112.18 184.439 1112.08 185.279C1112.03 185.752 1110.92 186.12 1110.61 186.33V186.278Z" fill="#3A352F"/>
<path d="M1105.78 199.308C1101.47 198.467 1097.79 197.785 1094.22 196.944C1093.64 196.786 1092.8 195.788 1092.86 195.263C1092.91 194.685 1093.91 193.634 1094.38 193.687C1099.05 194.317 1103.68 195.158 1108.3 195.998C1108.62 196.051 1109.04 197.364 1108.93 197.469C1107.83 198.205 1106.62 198.835 1105.83 199.308H1105.78Z" fill="#3A352F"/>
<path d="M915.229 210.915C915.964 209.654 916.752 208.446 917.488 207.185C919.379 203.98 921.796 203.613 924.843 205.609C928.1 207.763 932.881 209.129 934.352 212.123C935.613 214.75 933.249 219.163 932.461 222.788C930.884 229.881 930.517 230.038 924.055 227.096C913.915 222.421 913.81 222.263 915.386 210.81L915.281 210.968L915.229 210.915ZM918.118 216.326C918.644 219.373 922.058 222.841 925.368 222.841C929.571 222.841 927.995 218.848 928.836 216.642C929.729 214.277 924.79 208.814 922.636 209.864C920.587 210.863 919.589 214.067 918.118 216.274V216.326Z" fill="#3A352F"/>
<path d="M967.974 184.28C965.82 184.647 964.559 185.278 963.614 184.963C961.46 184.227 959.516 182.966 957.467 181.968C950.953 178.868 944.386 175.769 937.871 172.669C937.136 172.301 936.242 172.196 935.612 171.671C935.034 171.198 934.246 170.042 934.404 169.78C934.929 169.044 935.98 168.046 936.61 168.204C939.657 168.782 942.809 169.307 945.594 170.62C952.161 173.72 958.518 177.24 964.927 180.707C965.873 181.233 966.451 182.388 968.027 184.28H967.974Z" fill="#3A352F"/>
<path d="M934.405 179.237C936.874 180.078 939.08 180.708 941.182 181.654C947.118 184.281 953.002 186.907 958.834 189.744C959.727 190.165 960.2 191.53 960.883 192.424C959.727 193.054 958.571 193.895 957.363 194.262C956.68 194.472 955.787 193.842 955.051 193.527C948.064 190.217 941.077 186.907 934.194 183.44C933.301 182.967 932.776 181.706 932.146 180.813C932.934 180.288 933.722 179.762 934.457 179.29L934.405 179.237Z" fill="#3A352F"/>
<path d="M954.417 222.679C953.051 223.31 951.737 224.413 951.107 224.098C946.641 221.944 942.333 219.527 938.025 217.005C937.605 216.743 937.447 215.324 937.763 214.851C938.078 214.326 939.339 213.906 939.864 214.116C944.225 216.06 948.532 218.161 952.788 220.315C953.418 220.63 953.681 221.576 954.417 222.627V222.679Z" fill="#3A352F"/>
<path d="M951.687 231.669C949.218 232.3 947.432 233.456 946.486 232.93C942.756 230.829 939.236 228.255 935.821 225.68C935.296 225.313 935.611 223.894 935.559 222.948C936.504 222.948 937.608 222.633 938.343 223.054C941.81 224.892 945.225 226.889 948.588 228.885C949.376 229.358 950.006 230.146 951.74 231.669H951.687Z" fill="#3A352F"/>
<path d="M928.366 243.067C926.685 243.96 925.582 244.958 925.109 244.695C923.795 244.012 922.745 242.856 921.589 241.911C922.272 241.333 923.217 240.125 923.638 240.282C925.056 240.807 926.317 241.806 928.366 243.067Z" fill="#3A352F"/>
<path d="M1391.56 466.317C1397.49 464.859 1397.09 464.809 1396.58 471.344C1395.69 476.277 1395.93 481.351 1397.29 486.176C1397.54 486.88 1397.29 487.734 1397.59 488.489C1397.89 489.243 1398.29 491.956 1398.95 492.107C1400.91 492.459 1399.5 490.097 1400.5 489.343C1401.51 488.589 1401.01 488.284 1401.26 487.782C1401.47 487.111 1401.91 486.534 1402.49 486.142C1403.07 485.749 1403.77 485.565 1404.48 485.621C1406.18 485.621 1405.88 487.132 1406.19 488.238C1406.79 490.5 1407.64 492.713 1408.3 494.925C1408.59 496.571 1409.24 498.131 1410.2 499.496C1411.17 500.86 1412.42 501.993 1413.88 502.814C1415.08 503.368 1416.34 504.374 1415.08 506.133C1413.83 507.893 1412.32 506.436 1411.52 505.883C1408.28 503.861 1405.89 500.735 1404.78 497.085C1404.78 496.482 1404.02 495.979 1403.62 495.426C1403.22 495.979 1402.62 496.482 1402.52 497.085C1402.42 497.688 1402.77 499.949 1400.56 500.1C1399.76 500.255 1398.94 500.145 1398.22 499.78C1397.5 499.416 1396.93 498.821 1396.58 498.092C1394.64 493.808 1393.38 489.242 1392.86 484.566C1392.86 483.41 1392.86 482.153 1392.86 480.997C1392.46 478.684 1391.96 476.421 1391.5 474.109C1389.75 475.204 1387.94 476.193 1386.08 477.074C1383.54 478.1 1380.94 478.94 1378.28 479.588C1376.54 479.967 1374.9 480.73 1373.48 481.816C1372.07 482.903 1370.91 484.285 1370.09 485.872C1367.97 489.108 1366.04 492.465 1364.31 495.926C1363.18 499.456 1362.34 503.073 1361.79 506.737C1360.64 512.267 1359.73 517.897 1358.23 523.326C1357.46 526.193 1355.78 528.732 1353.44 530.548C1351.09 532.365 1348.22 533.359 1345.25 533.381C1342.09 533.381 1338.87 533.381 1335.65 533.381C1334.6 533.381 1332.94 532.982 1332.59 532.227C1330.88 528.658 1327.26 529.764 1324.54 528.658C1323.99 528.658 1323.03 528.656 1322.33 529.159C1321.99 529.271 1321.7 529.473 1321.47 529.743C1321.24 530.013 1321.1 530.342 1321.05 530.691C1320.99 531.039 1321.04 531.392 1321.18 531.717C1321.31 532.041 1321.54 532.322 1321.83 532.527C1322.38 533.08 1323.03 533.584 1323.64 534.137C1327.1 536.953 1326.75 540.116 1322.68 542.027C1320.02 543.233 1317.25 544.289 1314.64 545.596C1313.58 546.149 1313.48 547.108 1314.64 547.761C1315.52 548.198 1316.42 548.581 1317.35 548.915C1317.85 548.915 1318.86 548.916 1319.01 549.268C1319.87 551.129 1320.02 553.291 1323.24 552.789C1326.57 552.517 1329.75 551.276 1332.38 549.219H1332.89C1333.24 548.616 1333.89 547.961 1333.79 547.408C1333.34 545.145 1332.69 542.885 1332.13 540.623C1331.96 540.066 1331.96 539.471 1332.13 538.914C1332.64 537.557 1333.39 535.09 1333.99 535.09C1336.46 535.09 1335.15 537.406 1335.45 538.713C1335.9 541.026 1336.1 543.388 1336.76 545.65C1336.97 546.171 1337.28 546.642 1337.68 547.039C1338.08 547.437 1338.55 547.753 1339.07 547.962C1342.55 549.417 1346.41 549.631 1350.03 548.566C1351.55 548.159 1353.13 547.955 1354.71 547.962C1360.03 547.893 1365.34 547.437 1370.59 546.603C1374.28 545.354 1377.77 543.577 1380.95 541.325C1381.27 541.099 1381.54 540.809 1381.74 540.471C1381.94 540.132 1382.06 539.756 1382.11 539.366C1382.71 534.69 1384.37 530.263 1384.87 525.487C1385.42 518.072 1386.9 510.762 1389.29 503.723C1389.85 502.315 1389.7 500.856 1391.66 501.258C1392.11 501.306 1392.54 501.458 1392.92 501.705C1393.3 501.952 1393.61 502.285 1393.84 502.677C1394.06 503.069 1394.19 503.511 1394.22 503.963C1394.24 504.415 1394.15 504.866 1393.97 505.279C1393.27 508.346 1392.36 511.31 1391.71 514.376C1390.5 520.108 1389.39 525.892 1388.24 531.624C1387.89 533.333 1387.33 535.042 1387.08 536.651C1387.05 538.333 1386.65 539.985 1385.91 541.497C1385.18 543.008 1384.12 544.342 1382.81 545.4C1379.37 548.029 1375.32 549.758 1371.04 550.427C1369.64 550.603 1368.22 550.603 1366.82 550.427C1364.11 550.075 1364.76 551.33 1365.21 553.039C1365.38 554.71 1365.38 556.395 1365.21 558.066C1365.61 566.613 1366.07 575.108 1366.57 583.655C1366.57 585.615 1367.43 587.477 1367.53 589.438C1367.48 589.86 1367.33 590.262 1367.08 590.607C1366.84 590.951 1366.5 591.223 1366.12 591.397C1365.65 591.437 1365.18 591.365 1364.74 591.191C1364.31 591.016 1363.92 590.742 1363.6 590.391C1363.14 589.546 1362.93 588.587 1363 587.627C1363 576.265 1360.84 565.006 1361.59 553.594C1361.59 550.929 1361.04 550.424 1358.53 550.776C1356.01 551.128 1353.1 551.63 1350.38 551.831C1348.82 551.831 1348.22 552.637 1348.37 554.094C1348.52 555.552 1348.92 558.369 1349.17 560.531C1349.17 561.285 1349.53 562.089 1349.58 562.843C1350.03 570.585 1350.38 578.274 1350.89 586.016C1351.19 590.34 1351.69 594.664 1352.04 598.987C1352.04 599.942 1352.04 601.302 1350.73 601C1349.43 600.698 1349.23 599.892 1348.57 599.188V598.035C1348.12 591.901 1347.77 585.767 1347.22 579.634C1346.51 571.59 1345.71 563.547 1344.9 555.503C1344.6 552.638 1344.1 552.135 1341.23 551.934C1339.27 551.934 1337.26 551.934 1335.25 551.934L1334.9 551.026L1334.5 551.483L1335.35 551.831C1335.87 552.86 1336.22 553.964 1336.4 555.101C1336.91 562.189 1336.91 569.379 1337.81 576.467C1338.47 581.947 1337.46 587.324 1337.81 592.703C1337.99 597.621 1338.68 602.51 1339.88 607.284C1340.01 607.596 1340.08 607.935 1340.08 608.276C1340.08 608.617 1340.01 608.951 1339.87 609.263C1339.74 609.575 1339.54 609.852 1339.28 610.083C1339.03 610.313 1338.74 610.493 1338.42 610.603C1337.41 611.156 1335.75 609.75 1335.65 608.242C1335.15 601.538 1334.7 594.835 1334.29 588.132C1334.29 585.669 1333.94 585.316 1331.48 585.668C1329.16 586.035 1326.89 586.622 1324.69 587.425C1316.25 590.341 1307.85 593.561 1299.56 596.326C1294.53 597.885 1289.5 598.787 1284.77 599.994C1277.58 601.703 1270.3 603.16 1263.16 605.271C1259.86 605.992 1256.48 606.264 1253.1 606.076C1250.99 606.076 1250.29 606.73 1250.34 608.791C1250.34 616.634 1250.34 624.426 1250.34 632.269C1250.34 636.844 1250.34 641.47 1250.34 646.045C1250.34 646.598 1249.73 647.151 1249.43 647.704C1248.98 647.302 1248.28 646.95 1248.18 646.448C1247.62 643.381 1247.02 640.265 1246.72 637.198C1245.16 619.451 1245.71 601.702 1245.36 583.905C1244.99 579.026 1244.32 574.175 1243.35 569.378C1243.35 568.775 1243.35 568.223 1243.35 567.62C1242.95 560.079 1242.44 552.538 1242.14 544.997C1241.86 540.305 1241.17 535.643 1240.08 531.069C1239.78 529.717 1239.68 528.326 1239.78 526.945C1239.78 526.442 1240.63 525.64 1241.19 525.59C1241.74 525.539 1242.95 525.941 1243.15 526.444C1243.68 527.904 1244.04 529.425 1244.2 530.971C1244.76 535.294 1245.31 539.568 1245.66 543.942C1246.16 551.231 1246.21 558.617 1247.07 565.907C1248.28 573.108 1249.03 580.379 1249.33 587.676C1249.33 589.485 1250.24 589.638 1252.35 589.689C1261.1 589.689 1268.79 585.968 1276.98 584.259C1286.53 582.298 1295.99 579.834 1305.34 577.169C1313.58 574.857 1321.68 572.144 1329.82 569.329C1330.97 569.131 1331.99 568.495 1332.67 567.556C1333.36 566.618 1333.65 565.452 1333.49 564.301C1333.34 561.706 1333.34 559.105 1333.49 556.51C1333.49 554.398 1332.74 555.201 1331.43 555.553C1326.43 557.529 1320.88 557.656 1315.79 555.906C1314.64 555.59 1313.41 555.695 1312.32 556.206C1308.86 557.439 1305.49 558.954 1302.27 560.732C1295.46 564.7 1287.67 566.654 1279.8 566.363C1273.94 566.379 1268.16 565.02 1262.92 562.401C1257.69 559.782 1253.14 555.976 1249.63 551.281C1248.73 550.086 1248.24 548.629 1248.24 547.133C1248.24 545.636 1248.73 544.179 1249.63 542.984C1252.18 539.168 1255.93 536.315 1260.29 534.888C1268.79 532.626 1277.38 531.021 1285.93 529.061C1294.41 527.906 1302.98 527.547 1311.52 528C1312.3 527.895 1313.1 528.002 1313.83 528.305C1314.36 528.682 1314.97 528.947 1315.6 529.08C1316.24 529.214 1316.9 529.213 1317.53 529.08C1318.17 528.948 1318.77 528.686 1319.31 528.31C1319.84 527.934 1320.28 527.453 1320.62 526.896C1321.93 525.237 1323.74 525.488 1325.65 525.438C1328.77 525.438 1328.81 525.437 1328.71 522.119C1328.71 516.639 1329.82 516.79 1323.69 517.091C1317.55 517.393 1310.51 518.851 1303.93 519.806C1303.17 519.806 1302.47 520.413 1301.72 520.513C1296.39 520.966 1291.06 521.064 1285.78 521.868C1271.1 524.03 1256.32 522.273 1241.64 523.027C1239.11 523.246 1236.61 523.666 1234.15 524.284C1233.75 524.326 1233.36 524.449 1233.02 524.647C1232.67 524.845 1232.36 525.112 1232.12 525.433C1231.88 525.754 1231.71 526.122 1231.62 526.513C1231.53 526.903 1231.52 527.306 1231.59 527.701C1231.23 532.455 1231.6 537.239 1232.69 541.88C1232.97 543.544 1232.97 545.243 1232.69 546.907C1233.14 557.867 1233.04 568.824 1234.2 579.683C1234.85 585.665 1234.2 591.648 1235.31 597.48C1236.41 604.82 1235.76 612.211 1236.61 619.45C1237.27 625.03 1236.61 630.66 1237.87 636.039C1238.43 640.155 1238.72 644.307 1238.73 648.46C1238.73 649.768 1238.47 650.821 1236.76 650.67C1235.05 650.519 1235.2 649.763 1235.1 648.657C1234.7 643.127 1234.65 637.547 1233.85 632.068C1232.54 623.722 1233.45 615.326 1232.54 606.931C1231.84 600.596 1232.19 594.165 1231.28 587.931C1230.38 581.697 1230.98 576.414 1230.18 570.733C1228.92 561.834 1229.57 552.84 1229.02 543.942C1228.72 539.668 1227.76 535.391 1227.16 531.118C1227.08 530.383 1227.19 529.643 1227.46 528.958C1228.17 527.349 1227.46 526.696 1226.06 526.645C1224.65 526.595 1222.03 526.645 1220.02 526.645C1216.85 526.645 1216.35 525.891 1215.9 522.875C1215.2 517.847 1214.34 512.417 1213.44 507.189C1212.83 503.72 1211.68 500.353 1211.32 496.884C1210.67 490.147 1210.72 483.36 1209.82 476.774C1209.2 467.744 1208.13 458.748 1206.6 449.826C1205.69 445.155 1205.24 440.411 1205.24 435.652C1204.96 429.165 1204.17 422.706 1202.88 416.343C1202.88 415.74 1202.88 415.14 1202.88 414.536C1202.43 407.398 1202.18 400.26 1201.52 393.121C1200.47 382.513 1199.81 371.852 1198.96 361.194C1198.56 355.865 1197.85 350.538 1197.9 345.209C1198 344.626 1197.88 344.025 1197.56 343.525C1197.25 343.025 1196.76 342.658 1196.19 342.494C1195.28 342.077 1194.51 341.396 1193.98 340.535C1193.63 339.927 1193.52 339.207 1193.68 338.522L1195.24 338.071C1202.43 340.484 1209.82 338.774 1217.11 339.327C1227.15 339.386 1237.16 338.012 1246.82 335.252C1251.16 334.033 1255.63 333.361 1260.14 333.244C1270.18 333.28 1280.2 332.198 1290 330.024C1298.1 328.566 1306.09 326.806 1314.03 324.996C1316.14 324.614 1318.2 323.989 1320.17 323.136C1320.49 322.901 1320.87 322.755 1321.27 322.704C1321.67 322.653 1322.07 322.701 1322.45 322.846C1322.82 322.991 1323.15 323.228 1323.41 323.533C1323.67 323.839 1323.85 324.201 1323.94 324.594C1325.03 327.104 1325.8 329.74 1326.25 332.439C1326.75 336.763 1326.96 341.087 1327.31 345.41C1328.21 356.119 1328.46 366.878 1328.66 377.636C1328.89 382.561 1329.54 387.452 1330.62 392.262C1332.28 400.859 1334.34 409.459 1335.65 418.106C1336.46 423.133 1336.51 428.158 1336.86 432.883C1337.2 435.45 1336.71 438.061 1335.45 440.326C1334.99 441.584 1334.73 442.909 1334.7 444.249C1334.7 444.953 1336.56 445.954 1334.7 446.306C1334.25 446.321 1333.81 446.223 1333.42 446.021C1333.02 445.819 1332.68 445.521 1332.43 445.152C1330.19 441.389 1327.37 437.997 1324.09 435.097C1323.23 434.293 1322.22 433.661 1321.12 433.237C1320.32 432.985 1319.26 433.238 1318.31 433.59L1319.61 435.451C1322.08 439.372 1321.17 442.586 1316.7 443.792C1313.98 444.546 1313.38 445.606 1313.18 448.221C1313.19 453.769 1315.21 459.126 1318.86 463.303C1319.05 463.602 1319.3 463.852 1319.59 464.044C1319.89 464.236 1320.23 464.364 1320.58 464.412C1320.93 464.46 1321.28 464.429 1321.62 464.324C1321.96 464.219 1322.27 464.041 1322.53 463.803C1323.39 463.276 1324.15 462.615 1324.79 461.845C1327.76 458.627 1330.78 455.456 1333.59 452.138C1334.8 450.68 1337.56 451.387 1337.81 448.874C1338.37 448.874 1339.07 449.126 1339.37 449.477C1341.03 451.941 1342.54 454.503 1344.4 456.866C1347.42 461.039 1350.33 465.263 1353.6 469.184C1354.97 471.383 1356.78 473.274 1358.92 474.737C1361.05 476.199 1363.47 477.199 1366.02 477.678C1366.52 477.678 1367.32 479.135 1367.17 479.789C1366.98 480.157 1366.69 480.467 1366.34 480.687C1365.98 480.908 1365.58 481.032 1365.16 481.046C1362.4 480.779 1359.73 479.909 1357.34 478.493C1354.95 477.076 1352.9 475.149 1351.34 472.852C1347.32 467.271 1343.5 461.542 1339.67 455.811C1338.92 454.705 1338.27 454.453 1337.41 455.408C1334.85 458.173 1332.38 460.988 1329.87 463.803L1328.71 465.158C1325.6 468.426 1325.6 468.426 1328.16 471.443C1332.79 476.922 1337.36 482.352 1342.04 487.782C1345.67 491.721 1349.8 495.187 1354.3 498.092C1355.14 498.61 1355.91 499.213 1356.61 499.898C1357.03 500.531 1357.33 501.228 1357.52 501.96C1356.67 502.262 1355.66 503.017 1354.96 502.765C1353.52 502.189 1352.17 501.428 1350.93 500.502C1349.28 499.446 1347.77 498.29 1346.16 497.134C1346.16 499.296 1345.81 501.458 1345.76 503.62C1345.71 505.781 1345.76 507.644 1345.76 509.604C1345.72 510.749 1345.34 511.854 1344.65 512.771C1343.64 513.877 1344.05 514.628 1344.25 515.835C1344.51 518.221 1344.59 520.628 1344.5 523.027C1344.37 524.415 1344.37 525.812 1344.5 527.2C1345.2 530.568 1346.36 531.018 1349.53 529.611C1351.28 528.918 1352.83 527.796 1354.03 526.346C1355.24 524.896 1356.06 523.169 1356.41 521.318C1358.08 514.704 1359.31 507.986 1360.08 501.209C1361.26 495.804 1363.48 490.68 1366.62 486.127C1367.92 483.374 1369.84 480.956 1372.23 479.072C1374.62 477.188 1377.41 475.887 1380.39 475.267C1381.74 474.989 1383.04 474.53 1384.27 473.907C1385.07 473.505 1386.18 472.603 1386.23 471.899C1387.22 467.087 1388.79 462.409 1390.9 457.971C1391.08 457.211 1391.08 456.419 1390.9 455.659C1390.9 454.754 1389.8 453.296 1390 453.145C1391.03 452.255 1392.28 451.651 1393.62 451.387C1395.48 451.387 1397.69 451.036 1397.99 449.075C1398.19 446.536 1398.04 443.977 1397.54 441.48C1397.54 441.48 1396.33 440.982 1395.73 441.082C1394.96 441.275 1394.23 441.595 1393.57 442.035C1392.31 442.94 1391.71 442.036 1391.35 441.131C1391.24 440.793 1391.22 440.431 1391.28 440.081C1391.34 439.73 1391.49 439.399 1391.71 439.118C1392.93 438.14 1394.31 437.36 1395.78 436.806C1396.98 436.353 1396.89 436.003 1396.13 435.299C1394.93 434.235 1393.81 433.095 1392.76 431.882C1391.66 430.474 1390.05 428.912 1390.05 427.404C1390.05 424.086 1388.24 423.332 1385.72 422.377C1382.65 420.656 1379.77 418.617 1377.13 416.294C1376.07 415.439 1375.67 415.54 1374.87 416.294C1373.08 417.851 1371.81 419.927 1371.25 422.23C1370.49 425.849 1369.03 429.314 1368.18 432.883C1367.8 434.727 1366.86 436.41 1365.5 437.704C1364.13 438.999 1362.4 439.845 1360.54 440.125C1358.48 440.628 1358.48 441.228 1360.03 442.535C1360.61 443.093 1361.27 443.554 1362 443.895C1365.21 445.052 1367.53 446.508 1367.02 450.68C1367.02 453.043 1369.49 454.402 1372.05 453.547C1372.91 453.246 1373.51 452.141 1374.36 451.839C1375.41 451.686 1376.48 451.686 1377.53 451.839C1377.53 452.945 1377.53 454.301 1377.08 455.055C1376.74 455.716 1376.28 456.306 1375.72 456.788C1375.15 457.27 1374.5 457.634 1373.79 457.863C1373.09 458.092 1372.35 458.182 1371.61 458.123C1370.87 458.064 1370.15 457.858 1369.49 457.519C1368.83 457.218 1367.17 456.513 1367.88 459.026C1368.26 460.967 1369.05 462.802 1370.2 464.407C1371.36 466.013 1372.85 467.353 1374.56 468.33C1375.43 468.788 1376.14 469.506 1376.57 470.387C1376.71 471.139 1376.55 471.917 1376.12 472.552C1376.12 472.552 1375.07 472.552 1374.61 472.552C1371.41 471.249 1368.65 469.034 1366.69 466.185C1364.72 463.335 1363.63 459.973 1363.55 456.513V455.305C1364.11 450.931 1363.05 447.613 1358.17 446.306C1356.92 445.668 1355.89 444.674 1355.21 443.444C1352.8 439.824 1353.65 437.863 1358.07 436.958C1362.5 436.053 1364.51 434.545 1365.01 429.82C1365.78 425.804 1367.01 421.888 1368.68 418.155C1368.93 417.401 1369.19 416.396 1369.74 416.044C1370.49 415.713 1371.15 415.222 1371.69 414.605C1372.23 413.988 1372.63 413.261 1372.85 412.474C1373.08 411.688 1373.13 410.862 1373 410.054C1372.87 409.246 1372.56 408.477 1372.1 407.8C1371.76 406.845 1371.67 405.814 1371.86 404.816C1372.04 403.817 1372.49 402.889 1373.16 402.12C1376.38 397.498 1380.22 393.332 1384.57 389.748C1386.52 388.396 1388.81 387.633 1391.18 387.544C1393.55 387.455 1395.9 388.046 1397.94 389.247C1399.17 389.859 1400.32 390.62 1401.36 391.511C1402.27 392.114 1403.12 392.567 1403.12 390.858C1403.12 389.148 1403.12 388.441 1403.12 387.235C1403.05 386.402 1403.23 385.573 1403.63 384.839C1404.03 384.105 1404.63 383.499 1405.36 383.101C1406.1 382.702 1406.93 382.525 1407.76 382.59C1408.6 382.655 1409.39 382.956 1410.06 383.464C1410.49 383.831 1410.84 384.295 1411.07 384.819C1411.29 385.343 1411.4 385.914 1411.36 386.483C1411.36 388.142 1409.5 388.039 1408.6 387.436C1407.69 386.833 1406.79 387.438 1406.39 388.393C1405.08 391.963 1405.08 391.911 1408.15 394.525C1408.64 394.881 1409.07 395.328 1409.4 395.836C1409.7 396.494 1409.92 397.182 1410.06 397.893C1409.3 397.893 1408.4 398.601 1407.84 398.35C1404.83 396.892 1401.96 395.178 1399 393.72C1397.15 392.696 1395.17 391.918 1393.11 391.408C1391.78 390.961 1390.33 390.949 1388.99 391.373C1387.64 391.798 1386.46 392.64 1385.62 393.774L1385.22 394.226C1379.84 399.253 1379.79 400.007 1385.67 404.28C1388.02 406.376 1390.77 407.952 1393.77 408.905C1395.19 409.197 1396.48 409.915 1397.48 410.967C1398.48 412.019 1399.13 413.353 1399.35 414.787C1399.89 418.108 1401.41 421.189 1403.72 423.634C1404.33 424.386 1405.09 424.995 1405.96 425.421C1406.83 425.846 1407.78 426.079 1408.75 426.098C1409.71 426.062 1410.67 426.287 1411.52 426.751C1412.05 427.279 1412.38 427.968 1412.47 428.71C1412.47 428.71 1411.67 429.519 1411.21 429.569C1409.55 429.911 1407.84 429.889 1406.19 429.51C1404.54 429.132 1402.99 428.405 1401.65 427.375C1400.3 426.345 1399.19 425.041 1398.4 423.545C1397.6 422.05 1397.14 420.4 1397.04 418.709C1397.09 417.238 1396.62 415.796 1395.69 414.649C1394.77 413.503 1393.46 412.729 1392.01 412.474C1387.1 410.849 1382.71 407.952 1379.29 404.079C1379.04 403.804 1378.74 403.583 1378.4 403.436C1378.07 403.288 1377.7 403.218 1377.33 403.225C1376.88 403.225 1376.52 404.48 1376.42 405.184C1376.26 406.678 1376.51 408.188 1377.12 409.558C1377.74 410.928 1378.72 412.107 1379.94 412.975C1382.37 414.983 1384.96 416.784 1387.68 418.356C1391 420.166 1393.72 422.078 1393.37 426.452C1393.47 427.429 1393.91 428.337 1394.62 429.015C1396.06 430.91 1397.88 432.479 1399.97 433.615C1402.06 434.75 1404.37 435.424 1406.74 435.598C1407.32 435.588 1407.9 435.693 1408.45 435.903C1409.4 436.456 1411.06 437.208 1411.06 437.862C1411.06 440.124 1409 439.169 1407.89 439.118C1405.59 438.957 1403.29 438.673 1401.01 438.264C1401.78 440.375 1402.38 442.544 1402.82 444.75C1403.35 446.862 1403.04 449.103 1401.94 450.985C1400.84 452.866 1399.04 454.237 1396.93 454.804C1396.08 455.206 1394.92 455.808 1394.72 456.562C1393.67 459.93 1392.96 463.349 1392.11 466.617L1391.21 467.073L1391.71 467.574L1391.56 466.317ZM1282.31 418.155C1281.81 416.266 1281.41 414.355 1281.1 412.425C1280.85 411.268 1281.01 410.054 1281.56 409.003C1282.34 408.342 1283.24 407.846 1284.22 407.535C1285.19 407.225 1286.22 407.108 1287.24 407.197C1288.26 407.285 1289.25 407.577 1290.15 408.051C1291.06 408.525 1291.86 409.174 1292.52 409.961C1293.1 411.016 1293.33 412.235 1293.17 413.432C1293.01 414.628 1292.46 415.739 1291.61 416.598L1291.36 417.855C1292.51 418.083 1293.68 418.083 1294.83 417.855C1295.31 417.564 1295.73 417.166 1296.04 416.697C1296.35 416.227 1296.56 415.698 1296.64 415.14C1296.34 412.224 1295.58 409.409 1295.03 406.544C1291.31 404.633 1294.63 403.828 1295.73 403.878C1299.08 403.624 1302.32 402.535 1305.14 400.711C1306.3 400.014 1307.53 399.422 1308.81 398.949C1309.41 398.949 1310.26 399.253 1310.87 399.656L1310.47 401.212C1307.76 404.143 1304.04 405.939 1300.06 406.239C1299.01 406.346 1297.97 406.533 1296.94 406.794C1297.4 407.89 1297.97 408.935 1298.65 409.912C1298.94 410.054 1299.26 410.128 1299.58 410.128C1299.9 410.128 1300.22 410.054 1300.51 409.912C1303.1 409.029 1305.64 407.988 1308.1 406.794C1309.56 406.04 1310.82 405.538 1311.52 407.197C1311.77 407.75 1310.77 409.155 1310.01 409.808C1309.15 410.246 1308.24 410.57 1307.3 410.766L1301.87 412.975C1299.91 413.88 1299.81 414.232 1301.26 415.891C1302.72 417.55 1303.48 418.609 1305.69 417.05C1307.24 416.164 1308.95 415.565 1310.72 415.288C1312.37 414.892 1314.05 414.592 1315.74 414.384L1316.9 415.342C1316.89 415.911 1316.65 416.452 1316.25 416.849C1315.64 417.322 1314.93 417.665 1314.18 417.855C1311.87 418.408 1309.56 418.759 1307.3 419.362L1306.49 421.022C1308.55 423.686 1310.77 426.047 1312.88 428.862C1313.73 429.868 1314.39 429.114 1315.34 428.862C1317.14 428.239 1319.08 428.168 1320.92 428.661C1322.76 429.154 1324.4 430.187 1325.65 431.626C1327.21 433.587 1329.07 435.301 1330.68 437.11C1331.11 437.473 1331.56 437.805 1332.03 438.112C1332.28 437.571 1332.43 436.994 1332.48 436.403C1332.13 432.08 1331.53 427.756 1331.43 423.432C1331.11 418.935 1330.39 414.479 1329.27 410.113C1327.1 401.839 1325.43 393.446 1324.24 384.976C1323.28 374.921 1324.24 364.867 1322.88 355.215C1322.08 347.724 1321.98 340.131 1321.58 332.641C1321.57 332.046 1321.48 331.451 1321.32 330.878C1320.92 329.571 1320.77 327.815 1319.86 327.162C1318.96 326.508 1317.45 327.514 1316.19 327.765C1313.88 328.218 1311.57 328.567 1309.26 329.12C1306.04 329.824 1302.87 330.78 1299.66 331.384C1294.63 332.339 1289.9 332.642 1285.23 334.05C1277.43 336.047 1269.4 337.058 1261.35 337.064C1253.66 337.205 1246.02 338.252 1238.57 340.182C1230.67 341.607 1222.7 342.612 1214.69 343.196C1210.57 343.947 1206.33 343.692 1202.33 342.445C1199.81 341.59 1199.11 342.441 1199.31 345.106C1199.32 349.049 1199.78 352.978 1200.67 356.82C1201.29 359.915 1201.59 363.065 1201.57 366.222C1201.97 369.54 1202.48 372.858 1202.68 376.276C1203.23 384.169 1203.58 392.115 1204.04 400.058V401.261C1205.17 407.439 1205.87 413.691 1206.15 419.966C1207.15 425.798 1206.7 431.878 1207.76 437.709C1207.92 441.635 1208.33 445.547 1208.96 449.423C1210.75 457.098 1211.79 464.928 1212.08 472.803C1213.08 481.802 1213.29 490.899 1214.69 499.898C1215.55 505.529 1216.35 511.162 1217.26 516.743L1217.86 517.548L1218.31 516.492C1218.36 515.504 1218.36 514.51 1218.31 513.522C1217.91 507.234 1217.16 500.976 1216.05 494.773C1215.2 487.282 1215.1 479.689 1214.69 472.199L1213.34 449.021V448.422C1210.67 439.423 1211.58 430.019 1209.97 420.87C1209.11 415.842 1209.21 410.817 1208.46 406.141C1207.25 399.144 1206.51 392.073 1206.25 384.976C1206.32 383.771 1206.32 382.558 1206.25 381.353C1204.88 373.376 1204.09 365.313 1203.88 357.223C1204.2 354.652 1203.87 352.046 1202.93 349.632C1202.67 348.477 1202.75 347.267 1203.18 346.161C1203.29 345.884 1203.47 345.638 1203.7 345.445C1203.92 345.252 1204.2 345.119 1204.49 345.057C1204.89 345.057 1205.44 345.66 1205.75 346.112C1206.03 346.622 1206.21 347.188 1206.25 347.772C1207.05 355.413 1207.96 362.857 1208.61 370.699C1209.21 377.235 1209.11 383.819 1210.12 390.254C1210.72 394.175 1210.92 398.096 1211.18 402.017C1211.3 405.767 1211.74 409.499 1212.48 413.176C1213.99 418.757 1213.64 424.489 1214.59 430.119C1215.55 435.75 1214.84 440.526 1216.15 445.201C1217.46 449.877 1217.01 456.163 1218.01 461.643C1219.32 468.782 1218.01 476.27 1219.32 483.559C1220.22 488.587 1219.62 493.616 1220.53 498.342C1221.93 505.682 1222.33 513.421 1223.09 520.661C1223.09 522.269 1223.84 522.474 1225.4 521.971C1231.73 519.817 1238.37 518.727 1245.06 518.751C1254.41 519.103 1263.81 519.002 1273.21 518.751C1279.95 518.751 1286.64 517.946 1293.32 517.494H1294.48C1300.76 516.044 1307.12 514.987 1313.53 514.327C1320.47 514.026 1327.1 512.168 1333.99 511.514C1336.33 511.237 1338.53 510.234 1340.28 508.647C1341.18 507.742 1340.63 505.279 1340.68 503.62C1340.83 502.418 1340.83 501.203 1340.68 500.001C1340.18 498.141 1338.97 496.382 1341.38 494.974L1340.78 493.265C1337.36 489.394 1333.74 485.622 1330.72 481.6C1327.81 477.885 1325.11 474.009 1322.63 469.989C1322.25 469.241 1321.7 468.59 1321.03 468.085C1320.36 467.579 1319.58 467.233 1318.76 467.073C1316.51 466.299 1314.6 464.748 1313.38 462.699C1309.99 458.042 1308.31 452.362 1308.6 446.61C1308.81 444.237 1308.17 441.868 1306.8 439.924C1302.62 434.393 1298.5 428.863 1294.28 423.383C1293.76 422.66 1293.04 422.1 1292.21 421.773C1290.76 421.27 1288.8 420.317 1287.79 420.87C1285.83 422.026 1288.85 423.484 1288.24 425.043C1288.24 425.596 1288.24 426.251 1288.24 426.854C1288.02 427.534 1287.74 428.189 1287.39 428.813C1286.53 428.407 1285.75 427.862 1285.08 427.203C1284.67 426.7 1284.77 425.744 1284.67 424.94C1284.66 422.417 1283.83 419.967 1282.31 417.953V418.155ZM1303.03 531.27C1296.15 531.317 1289.3 532.024 1282.56 533.381C1275.02 534.638 1267.83 537.001 1260.44 538.409C1257.67 539.386 1255.18 541.008 1253.15 543.136C1252.79 543.448 1252.5 543.832 1252.3 544.266C1252.1 544.699 1252 545.173 1252 545.65C1252 546.127 1252.1 546.596 1252.3 547.03C1252.5 547.463 1252.79 547.852 1253.15 548.164C1254.78 550.408 1256.85 552.303 1259.22 553.736C1261.59 555.169 1264.23 556.113 1266.98 556.51C1267.96 556.525 1268.94 556.639 1269.89 556.859C1275.44 558.561 1281.36 558.716 1286.99 557.31C1293.53 556.394 1299.94 554.706 1306.09 552.283C1308.55 551.076 1310.26 550.423 1310.01 547.255C1309.92 546.219 1310.15 545.181 1310.67 544.28C1311.19 543.38 1311.98 542.661 1312.93 542.228C1314.31 541.451 1315.73 540.767 1317.2 540.171C1318.56 539.568 1320.92 539.162 1321.17 538.207C1321.68 536.347 1318.96 536.397 1317.95 535.09C1316.25 532.827 1315.54 533.078 1312.93 531.972C1309.69 531.157 1306.35 530.854 1303.03 531.069V531.27ZM1253.2 602.056V602.458C1257.02 601.704 1260.84 600.951 1264.66 600.097L1282.26 595.973C1287.29 594.766 1292.62 593.913 1297.6 592.354C1305.04 589.992 1312.27 587.327 1319.61 584.612C1323.13 583.405 1326.75 582.65 1330.27 581.544C1333.79 580.438 1333.89 580.236 1333.89 576.516V574.705C1333.89 571.638 1333.44 571.49 1330.27 572.495C1320.47 575.663 1310.82 579.333 1300.71 581.696C1288.4 584.561 1276.23 587.977 1264.01 591.245C1259.99 592.447 1255.78 592.91 1251.6 592.605C1251.04 592.659 1250.51 592.848 1250.04 593.155C1249.58 593.461 1249.2 593.874 1248.93 594.362C1248.7 596.552 1248.7 598.762 1248.93 600.951C1248.93 601.303 1249.68 601.853 1250.14 601.903C1251.15 602.034 1252.18 602.086 1253.2 602.056ZM1331.58 521.117C1331.29 522.663 1331.47 524.256 1332.1 525.698C1332.73 527.14 1333.77 528.363 1335.1 529.208C1336.26 530.012 1340.13 530.466 1340.63 529.562C1341.13 528.657 1340.28 527.451 1340.23 526.395C1340.23 523.58 1340.23 520.815 1340.23 518C1340.23 513.877 1339.77 513.626 1335.65 514.833C1334.94 515.12 1334.2 515.338 1333.44 515.486C1333.2 515.474 1332.95 515.518 1332.73 515.614C1332.51 515.709 1332.31 515.852 1332.15 516.036C1331.99 516.22 1331.87 516.439 1331.81 516.674C1331.74 516.909 1331.73 517.156 1331.78 517.396L1331.58 521.117ZM1314.99 439.167C1314.79 438.584 1314.55 438.014 1314.29 437.459C1310.59 431.593 1306.13 426.249 1301.01 421.572C1300.56 421.307 1300.09 421.074 1299.61 420.87C1299.61 421.624 1299 422.631 1299.3 423.084C1303.07 428.363 1306.9 433.588 1310.82 438.716C1311.54 439.34 1312.43 439.73 1313.38 439.825C1313.53 439.825 1314.29 439.321 1314.89 439.069L1314.99 439.167ZM1286.28 410.766C1285.93 411.57 1283.62 409.963 1284.32 411.974C1284.72 413.18 1283.87 415.441 1286.23 415.793C1286.67 415.845 1287.11 415.798 1287.53 415.661C1287.95 415.523 1288.33 415.295 1288.65 414.993C1288.98 414.691 1289.23 414.322 1289.39 413.913C1289.55 413.503 1289.63 413.067 1289.6 412.627C1289.45 410.364 1287.74 411.015 1286.18 410.663L1286.28 410.766ZM1219.42 518.805C1219.19 519.475 1219.02 520.161 1218.92 520.862C1219.02 521.434 1219.18 521.991 1219.42 522.521C1219.63 522 1219.8 521.465 1219.92 520.916C1219.8 520.159 1219.6 519.416 1219.32 518.702L1219.42 518.805Z" fill="#3A352F"/>
<path d="M1377.18 435.399C1377.16 434.349 1377.44 433.316 1377.99 432.424C1378.54 431.532 1379.34 430.819 1380.29 430.372C1380.65 430.241 1381.03 430.2 1381.41 430.244C1381.78 430.288 1382.14 430.419 1382.46 430.627C1382.76 430.627 1382.46 431.883 1382.46 432.537C1382.44 433.874 1382.2 435.194 1381.75 436.455C1381.3 437.36 1380.09 438.519 1379.34 438.418C1378.58 438.318 1377.78 437.01 1377.13 436.155L1377.18 435.399Z" fill="#3A352F"/>
<path d="M1219.77 356.819C1219.77 355.663 1219.77 354.003 1220.53 353.5C1222.27 352.238 1224.26 351.35 1226.36 350.888C1227.92 350.755 1229.48 351.134 1230.8 351.968C1232.13 352.803 1233.15 354.048 1233.7 355.513C1233.7 356.016 1234.35 356.822 1234.1 357.123C1231.54 360.693 1234.1 361.397 1236.76 362.151C1237.42 362.151 1237.97 363.155 1238.57 363.658C1238.84 362.774 1239.01 361.863 1239.08 360.943C1238.77 358.429 1238.22 355.916 1237.97 353.402C1237.97 352.547 1238.32 351.088 1238.83 350.937C1240.13 350.535 1240.18 351.793 1240.43 352.798C1241.14 355.815 1241.94 358.83 1242.7 361.846C1243.05 363.455 1243.3 365.822 1244.96 365.671C1246.62 365.52 1246.27 363.107 1246.27 361.498V354.909C1246.27 353.753 1246.67 352.948 1247.97 353.049C1250.24 353.049 1249.73 352.398 1248.68 351.242C1248.26 350.819 1247.92 350.325 1247.67 349.784L1247.93 348.777C1248.43 348.583 1248.98 348.583 1249.48 348.777C1250.14 349.227 1250.75 349.748 1251.29 350.334C1252.5 351.389 1253.66 352.448 1254.91 353.353C1258.73 356.168 1259.44 356.014 1262.3 352.243C1262.76 351.64 1262.96 350.839 1263.41 350.235C1263.86 349.632 1265.02 347.822 1265.27 347.923C1267.38 348.878 1266.58 350.283 1265.67 351.792C1264.77 353.3 1265.37 354.004 1264.77 354.507C1260.29 358.076 1262 362.803 1262.3 367.227C1262.3 368.182 1263.11 369.137 1262.96 369.991C1262.81 370.846 1261.95 371.599 1261.4 372.353C1260.84 371.85 1260.04 371.401 1259.79 370.747C1259.04 369.368 1258.61 367.836 1258.53 366.27C1258.99 360.539 1255.21 357.726 1251.14 355.061C1250.04 354.307 1249.99 355.06 1249.88 355.965C1250.14 359.529 1249.82 363.113 1248.93 366.574C1248.28 368.032 1248.18 369.692 1246.37 370.094C1245.41 370.337 1244.41 370.259 1243.5 369.878C1242.59 369.497 1241.83 368.834 1241.34 367.983C1241 367.516 1240.71 367.006 1240.49 366.471C1240.08 365.365 1239.83 365.164 1239.28 366.471C1238.31 368.324 1236.77 369.817 1234.88 370.723C1233 371.629 1230.87 371.899 1228.82 371.498C1225 371.498 1225 371.502 1224.8 375.323C1224.8 376.68 1225.75 378.838 1222.94 378.637C1220.12 378.436 1221.38 376.777 1221.33 375.47C1221.03 369.337 1220.78 363.203 1220.48 357.069L1219.77 356.819ZM1228.52 363.957C1227.92 363.957 1227.31 363.957 1226.76 363.957C1224.7 363.957 1224.65 364.46 1225.35 366.471C1226.06 368.482 1227.06 369.34 1228.77 368.636C1230.48 367.932 1233.8 368.634 1235.06 366.019C1235.61 365.014 1232.34 363.907 1228.52 363.957ZM1223.49 357.222C1223.49 360.439 1224.4 361.041 1227.41 359.583C1228.31 359.178 1229.15 358.673 1229.93 358.076C1231.13 357.171 1230.93 356.267 1229.42 355.513C1228.57 355.029 1227.66 354.659 1226.71 354.408C1224.25 353.906 1223.49 354.607 1223.44 357.222H1223.49Z" fill="#3A352F"/>
<path d="M1318.56 476.871C1318.56 477.877 1318.56 478.885 1318.56 479.891C1318.65 480.778 1318.46 481.673 1318.02 482.449C1317.58 483.224 1316.9 483.838 1316.09 484.211C1313.38 485.77 1313.18 486.725 1313.78 489.238C1314.94 494.266 1314.28 495.626 1309.91 497.084C1307.88 497.776 1305.77 498.199 1303.63 498.341C1300.06 498.341 1299.96 498.339 1299.25 494.418C1299 492.91 1298.55 492.255 1297.09 492.356C1296.49 492.356 1295.89 492.356 1295.28 492.356C1288.9 493.362 1286.23 489.593 1285.23 483.46C1284.78 480.619 1284.91 477.713 1285.61 474.922C1286.31 472.132 1287.56 469.512 1289.3 467.219C1290.61 464.956 1292.75 463.293 1295.26 462.58C1297.78 461.866 1300.47 462.16 1302.77 463.4C1304.49 464.081 1306.37 464.19 1308.15 463.704C1310.72 463.783 1313.18 464.759 1315.1 466.468C1317.02 468.178 1318.28 470.508 1318.66 473.052C1318.66 474.208 1318.66 475.465 1318.66 476.621L1318.56 476.871ZM1300.51 486.627C1300.91 488.336 1301.47 489.995 1301.77 491.654C1302.37 495.374 1303.08 495.775 1306.8 494.418C1308.4 493.764 1310.06 493.212 1311.82 492.508L1312.17 491.404C1312.12 490.808 1311.91 490.236 1311.57 489.744C1310.98 488.926 1310.6 487.977 1310.45 486.98C1310.3 485.983 1310.39 484.964 1310.72 484.01C1310.97 482.25 1312.83 482.153 1314.29 481.55C1314.89 481.11 1315.38 480.522 1315.7 479.847C1316.03 479.171 1316.18 478.425 1316.15 477.677C1315.99 475.225 1315.07 472.881 1313.54 470.965C1312 469.049 1309.91 467.655 1307.55 466.969C1304.87 466.43 1302.14 466.16 1299.4 466.164C1297.7 466.038 1295.99 466.458 1294.54 467.362C1293.08 468.265 1291.96 469.605 1291.31 471.191C1289.57 474.504 1288.7 478.211 1288.8 481.953C1288.8 483.346 1289.19 484.712 1289.91 485.9C1290.64 487.088 1291.68 488.052 1292.92 488.689C1294.18 489.493 1296.34 490.298 1297.39 487.834C1298.45 485.371 1299.2 486.878 1300.41 486.425L1300.51 486.627Z" fill="#3A352F"/>
<path d="M1235.56 431.125C1235.68 431.705 1235.68 432.303 1235.56 432.883C1235.06 433.989 1234.1 434.944 1236.26 435.195L1237.27 435.853C1238.08 436.22 1238.77 436.79 1239.29 437.513C1239.8 438.235 1240.11 439.084 1240.2 439.967C1240.28 440.851 1240.12 441.74 1239.75 442.545C1239.38 443.35 1238.8 444.04 1238.07 444.548C1236.63 445.523 1235.09 446.365 1233.5 447.062C1232.29 447.665 1230.98 448.168 1229.73 448.721C1226.91 449.928 1226.76 449.878 1226.11 446.61C1224.9 442.688 1224.04 438.669 1223.54 434.596C1223.54 433.289 1223.09 431.329 1222.19 430.826C1218.52 428.916 1220.88 427.503 1222.44 426.196C1224.11 424.962 1226.11 424.258 1228.19 424.169C1230.27 424.079 1232.33 424.61 1234.1 425.696C1235.31 426.5 1235.61 427.355 1235.56 431.125ZM1227.31 427.807C1224.7 427.807 1224.35 428.359 1225.15 430.973C1225.5 432.282 1225.95 433.564 1226.51 434.798C1226.91 435.652 1227.51 436.054 1228.77 435.451C1229.53 435.018 1230.2 434.437 1230.73 433.747C1231.27 433.057 1231.66 432.267 1231.89 431.425C1231.98 431.045 1232 430.654 1231.94 430.266C1231.88 429.879 1231.75 429.505 1231.54 429.171C1231.33 428.838 1231.06 428.553 1230.74 428.327C1230.42 428.101 1230.06 427.938 1229.67 427.856C1228.9 427.704 1228.1 427.657 1227.31 427.708V427.807ZM1232.34 438.313C1231.49 438.665 1230.18 439.119 1229.02 439.722L1228.42 441.18C1229.22 442.383 1230.22 443.438 1231.39 444.298C1231.84 444.599 1233.09 443.795 1233.85 443.242C1234.64 442.629 1235.35 441.92 1235.96 441.131C1237.01 439.975 1235.96 439.368 1235.1 438.966C1234.24 438.595 1233.32 438.344 1232.39 438.215L1232.34 438.313Z" fill="#3A352F"/>
<path d="M1295.49 347.016C1296.69 351.541 1297.95 356.017 1299.2 360.542C1299.2 361.246 1300.11 361.95 1300.11 362.604C1299.97 363.35 1299.58 364.025 1299 364.514L1297.65 364.111C1296.54 362.352 1295.58 360.443 1294.58 358.583C1294.3 358.083 1294.07 357.559 1293.87 357.022C1293.62 357.675 1293.42 358.278 1293.22 358.932V359.536C1293.22 361.195 1293.22 363.157 1291.46 363.458C1290.66 363.458 1289.35 362 1288.55 360.945C1287.74 359.889 1287.49 358.379 1286.79 357.223C1285.99 355.883 1285.12 354.593 1284.17 353.354C1284.17 354.863 1283.67 356.368 1283.62 357.876C1283.62 361.043 1283.62 364.213 1283.62 367.43L1282.72 368.584L1281.41 367.73C1280.03 360.933 1279.61 353.983 1280.15 347.07C1280.15 345.713 1281.51 345.508 1282.36 345.961C1283.57 346.603 1284.64 347.497 1285.48 348.578C1286.69 350.086 1287.49 351.896 1288.6 353.605L1290 354.258C1290.36 354.258 1290.71 353.406 1290.76 352.903C1290.69 350.922 1290.77 348.935 1291.01 346.967C1291.46 344.956 1292.92 344.807 1294.48 346.064L1295.84 347.37L1295.49 347.016Z" fill="#3A352F"/>
<path d="M1235.2 397.543C1235.71 393.269 1236.16 388.943 1236.76 384.67C1236.76 383.111 1237.97 382.809 1239.23 383.865C1240.47 384.859 1241.6 385.988 1242.6 387.233C1246.3 392.016 1249.44 397.212 1251.95 402.717C1252.19 403.236 1252.31 403.804 1252.3 404.377C1252.3 404.93 1251.95 405.734 1251.64 405.835C1250.92 406.113 1250.11 406.113 1249.38 405.835C1248.83 405.433 1248.63 404.531 1248.22 403.827C1246.11 399.906 1245.01 399.554 1240.99 401.515C1240.38 401.84 1239.88 402.324 1239.53 402.919C1239.18 403.513 1239.01 404.195 1239.03 404.882C1239.03 406.491 1240.18 408.702 1237.92 409.556C1236.51 410.059 1235.71 408.199 1235.61 404.529C1235.61 402.317 1235.61 400.107 1235.61 397.945L1235.2 397.543ZM1239.23 393.821V395.633C1239.23 398.7 1239.23 398.698 1242.39 397.592C1244 397.039 1244.56 395.935 1243.75 394.577C1242.95 393.22 1241.84 391.66 1240.84 390.252L1239.93 389.496C1239.67 389.918 1239.47 390.378 1239.33 390.856C1239.24 391.842 1239.21 392.832 1239.23 393.821Z" fill="#3A352F"/>
<path d="M1258.23 381.908H1260.64C1262.71 381.908 1264.92 382.61 1265.67 384.47C1266.24 385.656 1266.4 387 1266.12 388.285C1265.83 389.57 1265.13 390.723 1264.11 391.56C1263.61 391.861 1263.26 392.465 1262.71 392.615C1259.84 393.671 1262.25 393.924 1262.96 394.226C1264.77 395.03 1266.58 395.685 1268.33 396.489L1269.24 397.692L1268.14 398.747C1266.37 398.85 1264.6 398.751 1262.86 398.448C1259.54 397.593 1259.59 397.444 1259.79 400.461V401.664C1259.36 402.311 1258.82 402.873 1258.18 403.323C1258.18 403.323 1257.08 402.769 1256.92 402.317C1255.87 399.35 1254.91 396.387 1254.01 393.421C1253.56 391.963 1253.2 390.402 1252.8 388.894C1252.8 388.341 1252.8 387.54 1252.3 387.289C1251.79 387.037 1249.68 386.48 1249.63 385.978C1249.58 385.475 1253.41 382.057 1254.96 381.957C1256.52 381.856 1257.33 381.957 1258.53 381.957L1258.23 381.908ZM1257.33 384.421C1254.91 384.421 1254.66 384.423 1255.57 387.087C1256.02 388.244 1256.42 389.851 1257.33 390.303C1257.79 390.47 1258.28 390.547 1258.77 390.524C1259.26 390.501 1259.74 390.376 1260.18 390.166C1260.63 389.955 1261.03 389.662 1261.36 389.297C1261.68 388.932 1261.94 388.503 1262.1 388.04C1262.6 386.23 1261.05 384.622 1258.53 384.421H1257.33Z" fill="#3A352F"/>
<path d="M1249.88 490.045C1250.13 491.214 1250.13 492.423 1249.9 493.594C1249.67 494.766 1249.21 495.877 1248.55 496.869C1247.88 497.861 1247.03 498.71 1246.03 499.368C1245.04 500.026 1243.92 500.481 1242.75 500.703C1240.63 501.206 1239.98 505.079 1237.72 503.119C1236.56 502.113 1236.86 499.499 1236.31 497.689C1235.62 496.048 1235.01 494.37 1234.5 492.662C1234.05 489.896 1233.35 487.987 1230.03 489.696C1230.03 489.696 1229.02 488.99 1228.82 488.538L1229.47 487.182C1231.2 486.065 1233.17 485.353 1235.21 485.101C1237.26 484.848 1239.34 485.061 1241.29 485.724C1244.5 486.479 1247.5 487.978 1250.04 490.099L1249.88 490.045ZM1246.31 493.413L1245.41 492.156C1244.51 491.091 1243.37 490.251 1242.09 489.701C1240.81 489.151 1239.41 488.908 1238.02 488.989L1237.22 489.947C1237.64 491.854 1238.35 493.685 1239.33 495.376C1239.98 496.281 1241.49 497.788 1243.15 496.481C1244.26 495.523 1245.32 494.498 1246.31 493.413Z" fill="#3A352F"/>
<path d="M1273.31 462.645C1274.23 461.827 1275.26 461.152 1276.38 460.637C1277.33 460.335 1279.09 460.335 1279.5 460.637C1279.69 460.934 1279.81 461.269 1279.86 461.619C1279.91 461.968 1279.88 462.321 1279.78 462.66C1279.68 462.998 1279.51 463.311 1279.28 463.578C1279.05 463.844 1278.76 464.06 1278.44 464.206C1277.92 464.456 1277.36 464.624 1276.78 464.707C1271.75 466.265 1267.18 467.825 1262.35 469.283L1260.84 468.733L1261.2 467.171C1262.65 466.216 1264.26 465.413 1265.77 464.609C1266.2 464.471 1266.59 464.238 1266.92 463.931C1267.25 463.625 1267.51 463.249 1267.68 462.831C1267.84 462.414 1267.92 461.965 1267.89 461.516C1267.87 461.066 1267.75 460.63 1267.53 460.234L1267.23 459.734C1266.78 457.471 1266.38 455.157 1265.97 452.895C1263.66 453.196 1261.35 453.596 1259.08 453.847C1258.28 453.922 1257.47 453.922 1256.67 453.847L1256.22 453.498L1256.62 452.59C1257.02 452.168 1257.5 451.83 1258.03 451.589L1272.41 446.561H1273.56C1274.08 446.7 1274.57 446.955 1274.97 447.312V448.422C1274.31 449.163 1273.6 449.867 1272.86 450.533C1271.86 451.539 1269.84 451.335 1270.09 453.798C1269.98 456.56 1270.61 459.302 1271.91 461.742C1272.11 462.295 1272.61 462.343 1273.31 462.645Z" fill="#3A352F"/>
<path d="M1262.45 497.49C1260.44 497.49 1258.38 497.488 1260.39 494.623C1259.14 491.204 1258.03 487.735 1256.52 484.568C1255.72 482.808 1255.57 481.956 1257.17 481.956C1260.56 482.033 1263.84 480.787 1266.32 478.485C1266.78 478.083 1267.83 478.485 1268.59 478.485C1268.66 479.348 1268.57 480.216 1268.33 481.048C1267.89 482.146 1267.1 483.071 1266.08 483.679C1265.07 484.287 1263.88 484.545 1262.7 484.416C1261.1 484.416 1260.54 485.172 1260.79 486.63C1261.04 488.088 1262.55 488.135 1263.61 487.784C1264.66 487.432 1266.32 486.225 1267.78 485.672C1268.38 485.672 1269.24 485.676 1269.99 485.928C1269.92 486.797 1269.7 487.647 1269.34 488.441C1268.87 489.082 1268.26 489.6 1267.55 489.958C1266.84 490.317 1266.06 490.501 1265.27 490.499C1264.44 490.679 1263.7 491.165 1263.21 491.858V493.415C1264.27 493.667 1265.37 493.667 1266.42 493.415C1268.89 492.409 1271.45 491.053 1273.76 489.998C1274.22 489.998 1275.07 490.25 1275.57 490.602L1275.27 491.957C1271.88 495.399 1267.28 497.386 1262.45 497.49Z" fill="#3A352F"/>
<path d="M1244.15 442.084C1243.57 442.187 1242.98 442.187 1242.39 442.084V440.881C1245.71 438.669 1242.39 436.402 1242.39 434.14C1239.93 433.537 1240.74 431.528 1240.38 429.869C1239.87 428.258 1239.09 426.747 1238.07 425.396C1237.37 424.34 1237.42 423.182 1238.52 423.182C1241.85 423.053 1245.09 422.121 1247.97 420.467L1249.53 420.821C1249.53 421.474 1249.78 422.581 1249.53 422.883C1247.97 424.146 1246.28 425.253 1244.51 426.196C1243.6 426.649 1242.6 426.804 1242.9 428.111C1243 428.425 1243.17 428.715 1243.39 428.961C1243.62 429.206 1243.89 429.403 1244.19 429.54C1244.49 429.677 1244.82 429.746 1245.15 429.751C1245.48 429.756 1245.81 429.697 1246.11 429.569C1247.17 429.117 1248.18 428.36 1249.28 428.008C1250.39 427.656 1251.54 427.706 1251.95 428.008C1252.35 428.31 1251.64 430.071 1250.84 430.875C1250.27 431.411 1249.62 431.866 1248.93 432.23C1246.26 433.638 1245.66 434.596 1246.77 436.708C1247.17 437.462 1247.62 438.265 1249.03 437.611C1250.44 436.958 1252.3 434.793 1254.36 436.452C1255.52 437.357 1254.06 438.869 1249.83 440.729C1248.03 441.404 1246.18 441.974 1244.3 442.437L1244.15 442.084Z" fill="#3A352F"/>
<path d="M1282.31 417.956C1282.54 420.145 1282.54 422.355 1282.31 424.544C1281.11 430.828 1276.88 433.391 1270.6 430.023C1269.17 428.809 1268.09 427.237 1267.47 425.472C1266.84 423.707 1266.69 421.81 1267.03 419.968C1267.67 418.31 1268.47 416.711 1269.39 415.191L1270.75 414.288C1274.37 414.288 1278.44 413.031 1281.11 417.003C1281.36 417.456 1282.01 417.654 1282.51 417.956H1282.31ZM1271.4 421.274C1271.4 422.481 1271 423.839 1271.4 424.794C1271.81 425.75 1273.21 428.113 1274.62 428.565C1276.03 429.017 1277.19 427.207 1277.59 425.649C1278.12 424.027 1278.39 422.329 1278.39 420.621C1278.1 419.375 1277.35 418.283 1276.28 417.573C1275.22 416.863 1273.92 416.589 1272.66 416.802C1270.3 417.305 1271.66 419.362 1271.2 420.72L1271.4 421.274Z" fill="#3A352F"/>
<path d="M1294.38 345.96C1294.33 345.358 1294.33 344.756 1294.38 344.154C1294.68 342.394 1295.48 341.942 1296.59 342.897C1298.5 344.656 1300.31 346.513 1302.22 348.273C1304.13 350.032 1305.19 349.883 1306.19 347.571C1307.2 345.258 1307.15 343.799 1307.75 341.939C1307.75 341.587 1308.65 341.337 1309.16 341.286L1309.91 341.988C1310.29 344.736 1309.98 347.535 1309.01 350.133C1306.19 355.764 1306.39 356.12 1308.15 362.756C1308.41 363.483 1308.54 364.243 1308.55 365.014L1307.6 366.173C1306.89 366.173 1305.69 366.174 1305.54 365.721C1304.71 364.166 1304.21 362.453 1304.08 360.694C1303.99 357.849 1303.15 355.079 1301.64 352.667C1300.13 350.255 1298.01 348.286 1295.48 346.967L1294.13 345.661L1294.38 345.96Z" fill="#3A352F"/>
<path d="M1266.17 422.883C1265.37 424.24 1265.07 425.346 1264.37 425.799C1263.03 426.59 1261.59 427.181 1260.09 427.556C1258.83 427.858 1258.48 427.957 1259.19 429.314C1260.02 431.082 1260.71 432.918 1261.25 434.798C1261.46 435.502 1261.46 436.254 1261.25 436.958C1260.85 437.615 1260.22 438.097 1259.49 438.313L1258.23 437.459C1257.17 432.432 1253.91 428.208 1253.2 423.03C1253.24 422.358 1253.05 421.694 1252.67 421.14C1252.28 420.586 1251.73 420.175 1251.09 419.966L1251.54 418.204C1254.51 417.249 1257.53 416.448 1260.59 415.744C1261.15 415.744 1262 416.142 1262.5 416.544L1262.05 418.106C1261.56 418.867 1260.88 419.49 1260.08 419.912C1259.28 420.335 1258.38 420.54 1257.48 420.516C1256.87 420.516 1256.27 421.122 1255.67 421.474C1256.17 422.278 1256.52 423.586 1257.22 423.737C1258.53 424.011 1259.89 424.011 1261.2 423.737C1262.15 423.737 1262.96 422.78 1263.86 422.529C1264.77 422.278 1265.32 422.631 1266.17 422.883Z" fill="#3A352F"/>
<path d="M1278.34 402.622C1277.59 401.566 1276.58 400.76 1276.33 399.754C1275.31 395.988 1274.54 392.163 1274.02 388.296C1273.77 386.285 1273.36 385.476 1271.25 385.527C1269.14 385.577 1267.08 385.228 1267.03 384.775C1266.68 381.91 1269.59 383.217 1270.95 382.463C1274.04 380.826 1277.29 379.511 1280.65 378.54C1281.41 378.289 1282.46 378.84 1283.37 379.041C1283.17 379.776 1282.88 380.484 1282.51 381.152C1282.11 381.806 1281.46 382.613 1280.8 382.713C1276.28 383.669 1276.53 386.585 1277.53 390.004C1278.29 392.618 1278.94 395.283 1279.5 397.948C1279.75 399.086 1279.85 400.249 1279.8 401.414C1279.8 401.766 1279.04 402.068 1278.34 402.622Z" fill="#3A352F"/>
<path d="M1250.04 490.246C1249.73 488.537 1249.43 486.777 1249.23 485.219L1249.63 484.414H1250.74L1251.19 484.767C1253.88 488.804 1255.48 493.461 1255.87 498.293L1255.01 499.55L1253.71 498.794C1252.75 496.481 1252 494.116 1251.09 491.753C1250.74 491.149 1250.34 490.578 1249.88 490.045L1250.04 490.246Z" fill="#3A352F"/>
<path d="M1270.65 550.276C1269.47 550.204 1268.29 550.07 1267.13 549.873C1265.95 549.665 1264.87 549.098 1264.02 548.253C1263.18 547.408 1262.61 546.322 1262.4 545.145C1262.4 543.77 1262.77 542.422 1263.47 541.237C1264.17 540.052 1265.17 539.075 1266.38 538.409C1268.42 537.825 1270.5 537.389 1272.61 537.103C1273.21 537.053 1273.82 537.053 1274.42 537.103C1276.28 536.905 1278.15 537.449 1279.62 538.615C1281.08 539.782 1282.03 541.478 1282.26 543.338C1282.13 545.223 1281.29 546.989 1279.91 548.277C1278.53 549.566 1276.71 550.28 1274.82 550.276H1270.65ZM1272.86 546.805C1273.87 546.805 1275.02 547.106 1275.78 546.805C1276.98 546.289 1277.97 545.387 1278.59 544.242C1279.24 542.734 1277.94 541.575 1276.68 540.972C1275.3 540.295 1273.77 540.003 1272.24 540.118C1270.71 540.233 1269.24 540.755 1267.98 541.63C1267.6 541.913 1267.28 542.282 1267.06 542.71C1266.84 543.138 1266.73 543.609 1266.73 544.09C1266.87 544.63 1267.13 545.137 1267.47 545.577C1267.82 546.018 1268.25 546.387 1268.74 546.657C1270.1 546.923 1271.49 546.955 1272.86 546.755V546.805Z" fill="#3A352F"/>
<path d="M1298 479.642C1297.14 480.798 1296.59 482.205 1295.58 482.808C1294.58 483.412 1293.12 482.404 1292.12 481.448C1291.51 480.94 1291.07 480.259 1290.87 479.495C1290.66 478.73 1290.69 477.922 1290.96 477.177C1290.81 476.806 1290.75 476.407 1290.77 476.009C1290.79 475.61 1290.9 475.223 1291.08 474.87C1291.27 474.517 1291.53 474.204 1291.85 473.961C1292.16 473.719 1292.53 473.549 1292.92 473.461C1293.31 473.373 1293.71 473.368 1294.1 473.451C1294.49 473.534 1294.86 473.703 1295.18 473.942C1295.5 474.18 1295.76 474.485 1295.96 474.835C1296.15 475.186 1296.26 475.571 1296.29 475.969C1296.99 477.128 1297.56 478.361 1298 479.642Z" fill="#3A352F"/>
<path d="M1300.41 486.426C1299.94 484.59 1299.59 482.725 1299.35 480.844C1299.38 480.377 1299.51 479.926 1299.75 479.523C1299.98 479.12 1300.31 478.777 1300.71 478.531C1301.13 478.444 1301.57 478.456 1301.99 478.561C1302.4 478.665 1302.79 478.86 1303.13 479.135C1304.34 480.12 1305.47 481.216 1306.49 482.405C1306.88 483.036 1307.18 483.708 1307.4 484.413C1306.69 484.664 1305.79 485.272 1305.34 485.071C1303.68 484.216 1302.67 484.266 1301.97 486.126C1301.97 486.378 1300.86 486.126 1300.26 486.126L1300.41 486.426Z" fill="#3A352F"/>
<path d="M1306.9 471.344L1307.85 471.948C1308.67 473.005 1309.32 474.17 1309.81 475.414C1309.97 475.782 1310.05 476.182 1310.05 476.583C1310.04 476.984 1309.96 477.377 1309.79 477.742C1309.62 478.106 1309.38 478.433 1309.08 478.699C1308.79 478.965 1308.43 479.167 1308.05 479.288C1306.49 479.741 1305.69 478.431 1305.03 477.074C1303.83 474.56 1303.83 474.057 1305.99 472.047L1306.9 471.344Z" fill="#3A352F"/>
</g>
<defs>
<clipPath id="clip0_10_177">
<rect width="1411" height="945" fill="white"/>
</clipPath>
</defs>
</svg>
