<svg width="1411" height="945" viewBox="0 0 1411 945" fill="none" xmlns="http://www.w3.org/2000/svg">
<g clip-path="url(#clip0_10_241)">
<path d="M777 224.468C777.256 222.16 777.733 219.852 777.696 217.581C777.696 209.887 779.601 203.147 786.232 198.348C789.199 196.223 791.764 193.549 794.804 191.57C797.039 190.105 795.537 188.933 795.207 187.504C794.987 186.588 795.134 185.599 795.097 184.646C796.013 185.123 797.295 185.342 797.772 186.112C801.985 192.596 808.176 192.962 814.843 191.717C816.272 191.46 817.701 191.057 819.056 190.545C823.159 189.079 826.126 186.515 827.116 182.045C828.361 176.514 828.618 171.055 826.529 165.633C825.394 162.629 824.295 159.589 823.269 156.548C822.573 154.533 821.474 153.874 819.276 154.46C814.513 155.742 809.678 156.804 804.842 157.757C802.974 158.123 803.01 159.039 803.193 160.578C803.889 166.073 804.586 171.605 805.025 177.136C805.135 178.529 804.256 179.957 803.816 181.386C802.241 180.873 800.592 180.433 799.09 179.737C798.358 179.408 797.845 178.528 797.222 177.906C796.306 175.781 795.427 173.62 794.401 171.531C793.998 170.689 793.192 170.066 792.57 169.333C791.873 170.176 790.884 170.909 790.555 171.861C789.639 174.719 791.214 176.99 794.255 177.503C795.244 177.686 796.27 177.686 797.295 177.796C797.735 180.177 796.306 181.13 794.365 181.13C792.973 181.13 791.434 180.69 790.188 180.031C787.074 178.382 786.598 175.305 786.342 172.154C782.605 171.348 781.762 168.527 781.799 165.304C781.799 163.875 781.799 161.86 782.642 161.127C785.646 158.6 785.426 155.009 786.598 151.859C788.503 146.767 793.192 145.045 798.101 144.349C800.116 144.056 801.508 143.653 802.79 141.931C804.659 139.44 807.48 138.487 810.63 139.073C817.261 140.282 822.207 143.396 824.441 150.284C826.493 156.511 829.094 162.556 831.585 168.601C831.878 169.333 833.197 170.176 833.966 170.103C834.772 170.066 836.018 169.077 836.164 168.344C837.19 163.325 837.959 158.27 838.875 153.214C839.571 149.368 840.047 149.075 843.711 149.661C847.741 150.284 851.77 150.98 855.837 151.346C858.474 151.566 859.537 152.958 859.537 155.266C859.537 157.317 859.244 159.332 859.024 161.384C858.511 166.036 858.035 170.689 857.449 175.341C857.192 177.283 857.156 179.115 854.591 180.177C852.943 180.873 852.247 183.657 850.855 185.269C849.646 186.661 848.217 188.2 846.532 188.859C841 191.094 841.11 196.369 839.608 200.802C839.461 201.278 840.267 202.377 840.89 202.78C844.627 205.198 846.422 208.862 847.264 212.928C848.327 218.093 848.84 223.332 849.902 228.498C850.598 232.014 851.477 235.568 852.869 238.865C854.774 243.408 856.496 247.584 851.807 251.54C851.001 252.2 850.818 253.885 850.818 255.131C850.818 264.509 851.184 273.887 851.001 283.266C850.818 292.9 850.268 302.572 849.646 312.207C849.426 315.833 848.29 319.057 843.967 320.12C842.099 320.596 840.89 322.281 841.073 324.516C841.073 324.809 841.073 325.102 841.073 325.395C840.56 354.116 840.084 382.801 839.498 411.522C839.498 412.731 838.802 414.379 837.886 415.039C835.908 416.394 836.677 417.383 837.886 418.482C839.388 419.875 841 421.157 842.502 422.512C845.652 425.296 845.762 427.934 842.062 429.802C838.765 431.451 834.919 432 831.292 432.953C830.742 433.1 830.12 432.953 829.533 432.806C818.726 430.645 816.565 430.682 816.858 417.823C817.005 411.485 815.759 405.111 815.466 398.737C815.063 389.981 815.063 381.189 814.77 372.397C814.623 367.707 814.184 363.055 813.854 358.402C813.854 357.926 813.524 357.487 813.341 357.01C813.231 357.413 813.085 357.853 813.085 358.256C812.535 366.279 811.839 374.302 811.473 382.361C810.997 392.875 810.887 403.426 810.447 413.94C810.374 415.552 809.751 417.457 808.725 418.592C806.674 420.79 806.381 422.036 808.396 424.014C809.861 425.443 811.619 426.652 812.718 428.337C814.513 431.048 815.979 434.015 813.964 437.312H803.413C800.189 436.433 796.892 435.81 793.742 434.675C788.723 432.843 786.928 429.693 787.587 424.417C787.807 422.549 788.54 420.717 788.723 418.849C788.796 417.933 788.43 416.504 787.77 416.065C785.169 414.343 784.913 412.071 785.023 409.214C785.426 399.872 785.975 390.494 785.719 381.152C785.206 364.337 784.217 347.522 783.301 330.744C782.788 321.255 781.946 311.767 781.433 302.279C780.7 288.578 780.26 274.84 779.381 261.139C779.015 255.68 777.843 250.258 777.037 244.8C777.037 238.059 777.037 231.318 777.037 224.578L777 224.468ZM826.236 191.973C821.62 193.732 817.005 194.794 817.591 201.864C817.92 206.077 814.99 207.103 810.813 205.381C806.454 203.586 803.084 200.765 801.618 196.003C800.629 192.779 799.75 192.303 797.002 194.098C794.328 195.82 792.13 198.238 789.566 200.179C783.704 204.539 780.7 210.144 781.506 217.581C781.653 218.863 781.176 220.182 781.176 221.5C781.066 228.388 780.554 235.275 781.066 242.125C782.312 258.171 784.107 274.18 785.499 290.226C785.719 292.864 786.452 294.659 788.943 295.685C798.431 299.641 808.212 301.436 818.47 300.154C823.196 299.568 827.922 298.762 832.647 297.993C838.545 297.04 838.619 297.003 838.472 291.252C838.179 280.408 837.776 269.601 837.556 258.757C837.556 257.512 838.362 255.131 838.729 255.167C841.146 255.277 840.414 257.402 840.487 258.867C841.183 272.752 841.916 286.636 842.392 300.557C842.502 303.561 841.623 306.565 841.183 309.569C840.963 310.998 840.487 312.426 840.524 313.819C840.524 314.478 841.33 315.504 841.952 315.687C842.612 315.87 843.931 315.467 844.187 314.954C844.956 313.416 845.543 311.73 845.799 310.045C848.547 292.278 846.935 274.364 847.301 256.523C847.338 254.288 846.642 253.226 844.297 253.555C843.564 253.665 842.832 253.592 842.099 253.629C837.043 253.738 836.384 253.152 835.798 248.024C835.688 246.998 835.468 246.009 835.358 244.983C834.992 240.477 834.552 235.934 834.406 231.428C834.406 230.622 835.578 229.78 836.201 228.974C836.677 229.78 837.483 230.549 837.63 231.392C837.996 233.993 838.106 236.63 838.289 239.268C838.436 241.356 839.425 241.796 841.146 240.733C843.271 239.415 845.799 238.462 847.264 236.63C848.034 235.678 846.788 233.187 846.532 231.392C846.422 230.659 846.458 229.926 846.349 229.194C845.543 224.138 844.92 219.046 843.821 214.064C843.308 211.719 842.136 209.338 840.743 207.396C838.912 204.868 838.106 205.162 837.227 208.092C836.237 211.316 835.505 214.613 834.369 217.764C831.585 225.603 828.837 233.48 825.614 241.136C823.782 245.459 820.228 248.17 815.136 247.401C812.718 247.034 810.74 247.437 808.542 248.573C803.89 250.918 797.698 248.06 797.332 243.115C796.709 235.238 796.416 227.215 800.373 219.925C801.472 217.874 801.069 216.848 799.53 215.529C797.222 213.514 794.951 211.426 792.826 209.191C792.276 208.642 792.46 207.396 792.276 206.48C793.192 206.627 794.291 206.48 794.951 206.993C797.845 209.228 800.776 211.463 803.413 213.99C806.088 216.555 810.447 217.324 811.656 221.537C812.352 221.134 813.414 220.914 813.744 220.291C815.686 216.701 817.627 213.075 819.276 209.301C821.767 203.55 824.002 197.725 826.346 191.9L826.566 191.79L826.42 191.973H826.236ZM789.969 382.434C789.749 382.434 789.492 382.434 789.272 382.434C789.272 391.52 789.346 400.605 789.236 409.69C789.236 412.035 789.969 413.28 792.276 413.61C795.61 414.05 798.907 414.673 802.278 414.929C805.978 415.222 806.234 414.929 806.271 411.119C806.271 406.576 806.014 402.034 806.271 397.491C807.333 378.038 808.542 358.622 809.641 339.169C810.154 330.121 810.52 321.036 811.106 311.987C811.18 310.961 812.315 310.009 812.975 309.056C813.561 310.082 814.66 311.071 814.66 312.097C814.77 316.493 814.44 320.889 814.44 325.248C814.44 329.608 814.294 334.041 814.77 338.364C815.832 348.255 817.737 358.073 818.433 368.001C819.386 381.592 819.606 395.22 819.935 408.848C820.009 412.108 821.401 413.024 824.331 413.39C827.995 413.83 830.999 412.108 834.333 411.412C836.384 410.972 836.677 410.13 836.567 408.518C836.347 405.734 835.908 402.986 835.944 400.202C836.164 374.998 836.494 349.83 836.787 324.626C836.787 323.453 836.677 322.135 837.153 321.182C838.069 319.277 837.446 317.922 836.457 316.346C834.259 312.866 833.71 308.946 834.296 304.916C834.516 303.524 835.029 302.279 836.897 303.231C837.373 303.488 837.923 303.561 838.436 303.744C838.436 302.865 838.582 301.949 838.326 301.143C838.216 300.813 837.19 300.557 836.64 300.667C833.893 301.07 831.109 301.436 828.471 302.169C814.697 306.015 801.215 304.477 787.917 300.117C785.243 299.238 784.913 299.971 785.06 302.279C785.756 313.526 786.305 324.772 787.001 335.982C787.954 351.479 788.979 366.938 789.969 382.434ZM808.835 233.993C809.604 239.012 811.583 242.895 814.22 243.554C817.444 244.36 820.118 242.602 822.646 237.986C822.719 237.839 822.793 237.729 822.829 237.583C825.907 228.937 829.057 220.291 832.025 211.573C834.223 205.198 836.091 198.751 838.252 192.376C839.315 189.262 841 186.808 844.444 185.452C846.202 184.756 847.667 182.595 848.693 180.763C850.488 177.649 850.012 177.1 846.458 177.063C842.722 177.063 838.765 178.052 835.798 174.572C835.578 174.316 834.479 174.352 834.333 174.572C833.966 175.158 833.563 176.221 833.82 176.55C835.688 178.858 834.442 181.166 833.6 183.181C827.958 196.186 822.17 209.155 816.308 222.087C815.612 223.625 814.037 224.761 813.121 226.226C811.583 228.754 810.227 231.392 808.798 233.993H808.835ZM798.724 148.085C793.375 148.195 789.492 152.591 790.152 157.427C790.371 159.112 790.042 160.175 788.283 160.798C785.682 161.713 784.693 163.765 785.536 166.366C785.939 167.648 786.488 169.48 788.283 167.062C789.529 165.377 791.214 163.948 792.899 162.739C793.339 162.409 795.134 162.959 795.427 163.545C796.526 165.89 797.149 168.491 798.248 170.872C799.054 172.63 800.226 174.242 801.252 175.891C801.325 174.059 801.655 172.191 801.472 170.396C801.032 166.476 800.299 162.593 799.713 158.709C799.347 156.328 799.97 155.119 802.827 154.753C806.674 154.24 810.447 152.848 814.184 151.676C815.393 151.309 816.455 150.43 817.664 150.027C818.397 149.771 819.276 149.954 820.082 149.954C819.606 149.075 819.239 148.049 818.58 147.353C817.554 146.327 816.382 145.411 815.173 144.605C810.63 141.528 807.26 142.261 804.402 147.023C803.413 148.672 802.387 149.404 800.519 148.562C799.86 148.269 799.127 148.195 798.761 148.122L798.724 148.085ZM855.507 158.563C856.13 156.182 855.287 155.009 853.053 154.79C850.745 154.57 848.327 154.643 846.165 153.947C843.051 152.958 842.355 154.35 842.026 156.988C841.513 161.017 840.853 165.047 840.157 169.04C839.388 173.4 839.461 173.4 843.784 173.51C846.752 173.583 849.939 172.227 852.54 174.719C852.906 174.316 853.565 173.949 853.639 173.473C854.335 168.417 854.921 163.362 855.544 158.563H855.507ZM805.282 434.015C807.626 433.503 809.238 433.173 810.85 432.806C809.824 431.121 808.872 429.399 807.736 427.788C807.26 427.092 806.197 426.835 805.721 426.176C804.695 424.674 803.303 423.135 803.084 421.45C802.827 419.325 802.021 418.922 800.153 418.666C792.423 417.567 792.423 417.493 791.617 425.077C791.617 425.37 791.507 425.663 791.471 425.956C791.068 428.52 792.167 430.315 794.548 431.085C798.284 432.257 802.058 433.173 805.318 434.052L805.282 434.015ZM827.006 417.164H820.705C820.814 419.142 820.888 421.12 820.998 423.098C821.034 423.831 820.998 424.6 821.181 425.26C821.364 425.919 821.73 426.615 822.243 427.018C825.614 429.656 835.065 429.253 838.436 426.286C838.912 425.883 839.205 424.381 839.058 424.307C834.955 421.853 833.343 415.149 827.006 417.164ZM799.97 237.07C800.629 239.671 800.885 241.869 801.765 243.774C802.497 245.386 804.109 245.826 805.868 244.91C807.406 244.104 807.883 243.005 807.296 241.283C805.868 237.143 805.501 233.004 807.296 228.864C807.883 227.508 808.652 226.043 808.652 224.651C808.652 223.479 807.699 222.27 807.15 221.061C805.978 221.684 804.109 222.087 803.816 223.002C802.278 227.692 801.179 232.527 799.97 237.07ZM840.89 250.038C842.905 249.855 844.15 250.112 844.883 249.599C846.861 248.28 848.803 246.778 850.415 245.02C850.891 244.507 850.305 242.785 849.829 241.832C849.682 241.576 847.997 241.832 847.264 242.199C845.103 243.408 843.235 245.166 840.963 246.009C839.388 246.595 839.132 247.401 839.535 248.536C839.791 249.306 840.744 249.855 840.89 250.038ZM808.982 195.673C808.542 195.673 808.102 195.563 807.699 195.637C807.04 195.71 806.344 195.856 805.685 195.966C806.014 196.699 806.161 197.615 806.71 198.128C808.066 199.373 809.531 200.619 811.143 201.462C811.656 201.718 813.341 200.985 813.634 200.326C815.063 197.139 813.707 195.893 808.982 195.71V195.673Z" fill="#3A352F"/>
<path d="M1014.46 182.378C1013.03 184.723 1011.53 187.031 1010.18 189.412C1008.42 192.453 1006.95 195.676 1005.05 198.607C1002.01 203.26 999.919 207.912 1001.27 213.81C1001.82 216.301 1000.58 219.196 1000.18 221.907C999.993 223.189 999.626 224.471 999.7 225.716C1000.21 234.912 1001.38 244.107 1001.24 253.265C1001.09 261.545 1000.21 269.934 998.491 278.03C995.23 293.453 991.017 308.693 987.5 324.079C986.585 327.999 986.621 332.175 986.475 336.242C986.328 340.894 985.669 341.664 981.089 341.554C979.917 341.554 978.745 341.554 977.573 341.444C974.752 341.114 972.993 341.847 972.187 345.034C971.748 346.792 970.136 348.661 968.524 349.65C962.956 353.057 957.094 355.511 950.243 354.632C946.617 354.156 942.917 354.266 939.29 353.79C938.081 353.643 936.103 352.581 936.066 351.811C935.993 350.493 936.725 348.514 937.788 347.818C940.059 346.28 942.843 345.547 945.261 344.191C947.276 343.092 949.035 341.59 950.939 340.235C949.144 339.429 947.349 338.623 945.554 337.817C944.602 337.414 943.686 337.011 942.733 336.645C941.085 336.022 939.436 335.436 937.824 334.85C937.458 336.315 937.202 337.817 936.762 339.246C935.883 342.03 933.428 342.726 930.974 343.312C926.175 344.448 926.138 344.411 925.552 349.174C925.332 350.786 925.259 352.397 925.039 353.973C924.563 357.343 925.369 359.688 929.252 360.201C930.314 360.347 931.633 361.08 932.183 361.959C933.062 363.314 934.051 365.183 933.721 366.538C933.502 367.564 931.267 368.846 929.985 368.773C923.72 368.407 917.492 367.784 911.265 366.978C908.7 366.648 907.711 364.56 907.675 362.142C907.675 356.72 907.674 351.335 907.858 345.913C908.004 341.554 907.931 341.444 903.645 342.067C900.164 342.58 896.684 342.909 893.204 343.459C891.116 343.788 889.577 344.631 888.918 347.086C887.782 351.335 886.317 355.475 884.705 359.541C883.752 361.922 883.826 363.351 886.207 364.963C888.002 366.172 889.541 368.297 890.383 370.348C891.555 373.132 890.2 374.671 887.086 374.928C880.492 375.44 874.337 374.012 868.329 371.337C865.655 370.128 864.446 368.333 864.886 365.476C865.875 359.138 866.791 352.764 867.926 346.463C868.732 341.957 868.842 341.92 864.483 340.675C858.768 339.026 858.365 340.162 858.731 332.578C858.988 327.047 860.05 321.552 860.6 316.02C861.772 304.407 862.798 292.757 864.043 281.144C864.996 272.169 865.985 263.23 868.293 254.364C870.271 246.671 870.418 238.465 871.333 230.479C871.37 230.076 871.26 229.6 871.114 229.197C869.648 225.13 867.56 221.137 866.791 216.961C865.179 208.352 864.263 199.633 863.054 190.951C862.211 184.869 864.922 180.034 868.952 175.967C871.59 173.293 874.667 170.912 877.891 169.007C880.052 167.725 880.052 166.882 878.843 165.087C877.964 163.768 877.158 162.266 876.755 160.764C875.986 157.65 874.777 155.342 871.333 154.133C869.758 153.584 868.11 151.276 867.78 149.554C866.608 143.326 864.776 136.915 868.513 130.834C869.721 128.892 867.78 128.672 866.864 128.013C862.248 124.789 859.354 120.65 859.72 114.751C860.013 109.842 862.724 107.351 867.707 107.388C873.715 107.388 878.147 110.648 879.613 116.473C880.162 118.708 880.162 119.77 882.543 117.609C888.295 112.444 898.113 111.528 904.707 115.448C906.282 116.363 907.931 117.792 908.664 119.404C911.155 124.863 913.096 130.321 910.202 136.585C908.92 139.333 907.235 140.139 904.927 140.066C901.447 139.956 897.93 139.48 894.486 138.857C890.31 138.124 888.112 138.93 886.317 142.777C885.218 145.158 884.265 147.649 883.716 150.213C883.239 152.485 882.946 154.536 880.162 155.049C879.796 155.122 879.32 156.441 879.43 157.064C881.115 165.966 890.163 172.084 899.139 170.509C903.242 169.776 905.623 167.212 906.685 163.402C908.297 157.723 909.36 151.972 907.711 146.074C907.638 145.781 907.491 145.488 907.565 145.231C907.821 143.949 907.931 141.751 908.517 141.604C910.312 141.201 911.301 142.484 911.631 144.389C913.206 152.631 912.84 160.654 909.689 168.53C909.25 169.666 909.286 171.388 909.836 172.45C911.484 175.711 913.499 178.788 915.368 181.902C915.587 182.268 915.917 182.525 916.21 182.854C916.54 182.451 917.016 182.122 917.199 181.646C917.859 179.924 917.969 177.286 919.141 176.7C920.46 176.04 922.658 177.286 924.526 177.616C927.53 178.165 930.571 178.678 933.575 179.228C935.553 179.594 936.249 180.876 935.956 182.745C934.601 191.244 933.392 199.779 931.707 208.242C931.267 210.477 929.362 212.382 928.263 214.506C927.787 215.386 927.274 216.558 927.457 217.437C928.153 220.881 929.069 224.251 929.985 227.658C930.827 230.735 931.743 233.813 932.622 236.89C932.769 237.403 932.989 237.842 933.172 238.355C933.575 237.989 934.124 237.732 934.417 237.256C940.792 227.109 947.13 216.924 953.541 206.777C954.749 204.872 954.566 203.296 953.797 201.135C950.939 192.856 947.606 184.613 948.925 175.528C948.998 175.088 949.144 174.465 948.925 174.245C945.957 171.425 947.642 167.908 947.533 164.684C947.349 157.943 947.313 151.203 947.093 144.462C947.056 143.216 946.727 141.751 945.994 140.798C942.33 136.292 944.382 128.782 949.254 125.815C951.233 124.606 952.002 123.104 952.661 121.089C953.321 119.074 954.346 117.059 955.739 115.448C956.471 114.568 958.376 114.092 959.549 114.385C960.281 114.568 960.648 116.473 961.014 117.609C961.307 118.452 961.344 119.404 961.527 120.283C962.186 119.734 962.846 119.148 963.505 118.598C964.274 117.939 964.97 117.096 965.85 116.656C968.231 115.411 970.429 116.473 970.539 119.148C970.649 121.126 970.502 123.397 969.66 125.119C967.571 129.442 964.934 133.508 962.699 137.758C961.673 139.773 960.574 142.007 960.501 144.169C960.318 149.407 960.611 154.683 960.904 159.958C960.977 161.533 961.637 163.072 962.223 164.574C962.516 165.307 963.212 165.856 963.761 166.479C964.128 165.856 964.531 165.233 964.824 164.611C967.352 159.518 969.66 154.28 972.407 149.298C974.019 146.33 976.364 143.912 979.99 143.106C981.602 142.74 984.46 137.904 983.874 136.476C983.581 135.743 982.591 135.01 981.785 134.754C973.689 132.116 971.088 126.255 974.752 118.781C975.045 118.195 974.605 117.169 974.422 116.4C973.946 114.495 972.957 112.59 973.067 110.722C973.25 107.498 974.569 106.765 977.756 107.278C980.76 107.754 982.372 105.666 981.236 102.735C978.635 95.9215 975.961 89.1075 973.433 82.2569C972.664 80.1322 971.418 79.1064 969.366 78.1539C965.996 76.5786 962.956 74.3073 959.768 72.3291C958.779 71.7429 957.753 71.1934 956.728 70.7172C954.603 69.7281 952.368 68.9587 950.353 67.8231C946.507 65.6617 946.031 64.5993 947.276 60.3131C949.877 51.4842 952.588 42.6554 955.445 33.8998C956.801 29.7601 958.816 28.9176 962.882 30.3463C966.729 31.7018 970.575 33.0939 974.422 34.486C974.972 34.6691 975.594 34.8889 975.924 35.2919C976.693 36.2444 976.986 37.7464 978.745 36.3909C980.283 35.2186 982.005 34.3394 981.419 31.9216C980.833 29.3572 980.1 26.7928 979.844 24.1917C979.734 22.9462 980.577 21.5907 980.98 20.2719C982.188 20.858 983.434 21.3709 984.57 22.067C985.156 22.4333 985.559 23.1294 985.962 23.7521C986.988 25.1809 987.537 24.8145 988.453 23.4957C989.149 22.5066 990.578 22.067 991.64 21.2976C992.629 20.6016 993.582 19.7956 994.607 19.0996C995.303 18.6234 996.329 17.8174 996.769 18.0372C997.502 18.4402 998.307 19.4659 998.381 20.3085C998.601 22.763 998.601 25.2908 998.454 27.7819C998.307 30.0532 999.113 31.1156 1001.42 30.8225C1001.57 30.8225 1001.71 30.8225 1001.86 30.8225C1004.06 31.1156 1006.29 31.4087 1008.49 31.7018C1007.5 33.7533 1006.7 35.9147 1005.52 37.8197C1003.66 40.8603 1000.62 43.2049 1000.4 47.2713C1000.4 47.8574 998.198 48.4802 996.952 48.7733C996.403 48.8832 995.67 48.1871 995.084 47.7842C993.545 46.795 992.043 45.8059 990.504 44.8168C989.515 46.4287 988.636 48.1139 987.464 49.5792C986.731 50.5317 985.595 51.2278 984.643 52.0337C984.057 50.8248 983.287 49.6525 982.885 48.407C982.591 47.4545 982.775 46.3554 982.665 45.3663C982.591 44.8168 982.445 44.1574 982.079 43.7544C981.309 42.9485 973.47 44.5604 972.957 45.6228C972.297 46.9416 971.711 48.2604 971.162 49.6159C970.319 51.6308 968.78 53.7922 969.037 55.6971C969.22 56.9793 972.151 57.712 973.47 59.0675C975.777 61.4487 978.342 63.8299 979.88 66.6874C983.8 73.8677 987.207 81.3411 990.797 88.7046C991.897 90.9759 993.142 91.6353 996.036 91.6353C1004.5 91.6719 1013 92.8442 1019.12 99.6948C1020.95 101.783 1022.74 104.714 1022.85 107.351C1023.11 113.579 1022.71 119.917 1021.94 126.108C1021.5 129.698 1019.63 132.995 1016.55 135.413C1014.13 137.282 1013 139.663 1013.36 143.033C1013.8 146.953 1013.51 150.946 1013.47 154.903C1013.47 156.808 1013.55 159.006 1011.13 159.518C1008.78 159.995 1006.4 159.921 1004.87 157.577C1004.46 156.954 1004.28 156.148 1003.77 155.709C1003.47 155.452 1002.3 155.599 1002.23 155.818C1001.49 157.87 1001.16 160.141 1000.18 162.046C999.553 163.255 997.978 164.757 996.842 164.757C995.706 164.757 994.278 163.255 993.472 162.083C992.702 160.911 992.409 159.372 992.153 157.943C991.713 155.672 991.677 153.474 988.233 153.437C987.207 153.437 986.108 151.239 985.156 149.994C982.262 146.184 979.88 145.707 977.133 149.517C973.872 154.097 971.418 159.299 968.817 164.354C967.571 166.809 966.949 169.593 965.776 172.121C965.373 173.036 964.091 174.319 963.432 174.209C962.406 174.026 961.344 172.927 960.684 171.974C959.805 170.692 959.329 169.153 958.669 167.725C957.534 168.933 956.361 170.106 955.262 171.388C952.002 175.271 951.159 179.667 952.588 184.54C953.834 188.753 955.006 192.965 956.068 197.252C956.691 199.779 958.01 199.596 959.439 198.241C961.417 196.336 963.395 194.321 964.897 192.05C968.854 186.042 972.48 179.887 976.327 173.806C977.499 171.937 978.708 170.069 980.21 168.494C980.796 167.871 982.188 167.944 983.178 167.725C983.324 168.86 983.471 170.032 983.617 171.168C983.617 171.278 983.471 171.425 983.397 171.534C978.305 179.557 973.25 187.654 968.048 195.603C966.692 197.655 965.044 199.889 962.992 200.952C958.779 203.077 957.167 206.886 955.372 210.66C953.943 213.627 954.566 215.679 957.607 217.144C968.267 222.383 979.404 224.654 991.2 222.309C996.439 221.284 997.941 219.782 997.282 214.506C996.329 206.886 998.637 200.659 1002.56 194.284C1006.73 187.434 1010.03 180.034 1013.29 172.707C1016.99 164.391 1017.87 155.562 1016.62 146.55C1016.51 145.671 1016.04 144.755 1016.26 143.986C1016.55 142.887 1017.32 141.934 1017.91 140.908C1018.49 141.751 1019.59 142.593 1019.59 143.473C1019.78 149.994 1019.74 156.551 1019.78 163.072C1019.78 163.805 1019.85 164.501 1019.92 165.233C1020.32 164.684 1020.98 164.171 1021.09 163.585C1022.16 156.771 1026.37 151.679 1031.31 147.612C1036.92 142.996 1043.77 141.788 1051.13 142.74C1064.47 144.498 1070.11 153.913 1074.21 165.123C1077.69 174.575 1077.88 184.32 1077.18 194.174C1076.85 199.047 1075.13 201.281 1070.48 202.747C1069.08 203.186 1067.62 203.589 1066.19 203.589C1061.83 203.589 1059.08 206.667 1055.9 208.791C1055.31 209.194 1055.27 210.55 1055.2 211.466C1054.98 214.799 1055.13 218.206 1054.61 221.504C1054.21 224.214 1052.67 226.522 1049.52 226.742C1046.48 226.962 1044.36 225.35 1043.48 222.603C1042.49 219.562 1041.94 216.411 1041.28 213.261C1041.06 212.272 1041.57 210.843 1041.02 210.293C1040.11 209.378 1038.64 209.011 1037.4 208.388C1037.47 209.341 1037.58 210.33 1037.62 211.283C1037.76 215.642 1038.06 219.965 1037.87 224.324C1037.87 225.057 1035.86 225.68 1034.76 226.376C1034.58 225.277 1034.28 224.178 1034.21 223.042C1034.21 222.493 1034.65 221.943 1034.69 221.394C1034.8 219.525 1034.83 217.657 1034.91 215.789C1034.06 217.327 1033.29 218.939 1032.38 220.441C1031.75 221.467 1030.95 222.419 1030.22 223.372C1029.41 222.419 1028.49 221.54 1027.8 220.551C1027.5 220.111 1027.61 219.415 1027.43 218.866C1027.29 218.426 1026.99 218.023 1026.74 217.584C1026.48 217.913 1026.08 218.206 1025.93 218.573C1025.38 219.928 1024.9 221.32 1024.39 222.676C1023.18 225.936 1022.19 226.303 1019.3 224.544C1018.02 223.738 1016.66 223.079 1015.31 222.346C1016.11 223.665 1017.03 224.91 1017.72 226.303C1018.6 227.988 1019.3 229.783 1020.07 231.505C1017.28 232.421 1016.7 229.783 1015.38 228.501C1012.34 225.607 1010.32 222.053 1009.63 217.877C1009.52 217.107 1009.7 215.898 1010.18 215.569C1010.69 215.239 1011.86 215.569 1012.52 215.898C1014.17 216.814 1015.67 218.023 1017.32 218.976C1021.09 221.247 1020.62 221.101 1022.12 217.474C1022.74 216.008 1023.4 214.506 1024.24 213.151C1025.38 211.283 1026.96 210.587 1029.04 211.905C1029.63 212.272 1030.62 212.785 1031.1 212.528C1031.94 212.052 1032.56 211.136 1033.22 210.33C1033.26 210.293 1032.82 209.634 1032.67 209.671C1027.65 210.88 1023.62 207.363 1018.97 206.886C1018.24 206.813 1017.58 206.484 1016.84 206.337C1012.41 205.311 1012.16 205.311 1012.45 200.988C1012.85 194.724 1013.62 188.496 1014.24 182.268C1014.32 181.865 1014.39 181.462 1014.46 181.059C1014.39 181.462 1014.35 181.902 1014.28 182.305L1014.46 182.378ZM919.434 213.957L919.324 213.847L919.471 213.957C920.24 217.071 920.973 220.185 921.815 223.262C921.998 223.958 922.585 224.544 922.988 225.204C923.537 224.764 924.526 224.288 924.526 223.848C924.453 221.247 924.563 218.5 923.72 216.118C923.354 215.019 920.899 214.69 919.397 213.994L919.434 213.957ZM976.144 337.744C977.499 337.744 977.939 337.744 978.378 337.744C982.555 337.744 982.408 337.744 982.665 333.458C982.848 329.831 983.214 326.167 983.984 322.651C988.306 302.685 995.34 283.379 997.099 262.79C998.088 251.36 997.685 240.114 996.622 228.757C996.403 226.339 995.194 224.911 992.483 225.826C987.171 227.585 981.822 227.072 976.437 226.376C968.121 225.313 959.915 223.921 953.101 218.463C951.159 216.888 950.903 218.939 950.317 219.782C945.811 226.632 941.488 233.593 936.909 240.37C934.637 243.74 932.146 247.038 929.325 250.005C927.933 251.47 927.384 252.789 927.567 254.621C928.116 259.42 928.703 264.219 929.252 268.981C931.194 285.394 933.282 301.806 935.04 318.218C935.443 321.991 937.898 325.508 936.286 329.574C935.736 330.966 936.652 331.956 938.557 331.699C939.62 331.553 940.865 332.029 941.927 332.395C953.284 336.315 964.677 340.052 976.107 337.707L976.144 337.744ZM1073.88 186.078C1074.98 176.663 1072.31 167.358 1067.8 158.749C1065.68 154.683 1062.09 150.213 1058.06 148.528C1043.18 142.227 1030.91 149.481 1025.42 164.061C1024.28 167.065 1024.02 170.802 1022.01 172.963C1018.82 176.48 1019.12 180.656 1018.02 184.613C1017.8 185.455 1017.47 186.298 1017.39 187.177C1016.95 191.537 1016.48 195.86 1016.18 200.256C1016.15 201.098 1016.7 202.637 1017.25 202.783C1021.61 203.956 1026 204.945 1030.44 205.861C1032.01 206.19 1032.96 205.604 1032.23 203.626C1028.71 194.174 1028.86 184.466 1030.18 174.648C1030.62 171.388 1030.91 171.132 1033.95 172.047C1036.48 172.78 1039.01 173.439 1041.57 174.062C1043.37 174.502 1044.54 173.989 1045.13 171.937C1045.93 169.117 1046.96 166.369 1048.2 163.731C1048.75 162.559 1050 161.753 1050.91 160.764C1051.94 161.79 1053.74 162.742 1053.92 163.915C1054.83 170.289 1057.98 173.036 1064.51 171.608C1066.48 171.168 1067.44 172.34 1067.18 174.465C1066.85 177.359 1066.81 180.253 1066.48 183.148C1066.01 187.507 1065.57 191.866 1064.8 196.153C1064.65 197.069 1063.19 197.765 1062.34 198.571C1062.01 197.508 1061.32 196.409 1061.39 195.347C1061.94 189.668 1062.64 184.027 1063.33 178.348C1063.59 176.114 1062.78 174.978 1060.44 175.308C1055.75 176.004 1052.75 174.392 1052.01 169.41C1051.94 168.933 1051.43 168.53 1051.1 168.091C1050.73 168.494 1050.25 168.824 1050 169.263C1049.67 169.886 1049.49 170.619 1049.23 171.315C1047.03 177.433 1045.53 178.275 1039.04 176.993C1038.46 176.883 1037.95 176.627 1037.36 176.48C1035.12 175.931 1033.95 176.48 1033.44 179.044C1032.12 185.529 1032.38 191.903 1034.25 198.131C1035.75 203.04 1039.56 205.751 1044.5 206.557C1049.41 207.326 1054.25 207.253 1057.47 202.454C1058.57 200.805 1059.78 200.512 1061.83 200.439C1065.13 200.366 1068.39 199.34 1071.65 198.644C1073.33 198.277 1073.88 197.142 1073.81 195.42C1073.7 192.489 1073.81 189.559 1073.81 186.078H1073.88ZM866.205 190.841C867.523 198.607 868.769 206.41 870.124 214.177C870.601 216.924 871.187 219.672 872.066 222.273C873.458 226.413 875.583 227.255 878.917 224.727C885.291 219.928 892.691 217.73 900.091 215.386C905.513 213.664 905.513 213.664 903.791 208.425C903.535 207.583 903.278 206.74 903.132 205.861C902.839 204.029 901.96 203.882 900.348 204.542C896.831 205.971 893.241 207.253 889.687 208.572C886.537 209.744 882.067 209.158 881.737 207.18C880.858 202.307 880.492 197.362 880.162 192.416C880.126 191.757 881.298 191.024 881.921 190.328C882.397 191.134 883.166 191.903 883.313 192.746C883.826 195.933 884.045 199.12 884.485 202.344C884.778 204.542 886.134 205.714 888.148 204.652C894.156 201.428 901.373 201.208 906.869 196.446C909.286 194.358 909.909 193.185 908.517 190.584C907.198 188.13 905.953 185.639 904.964 183.038C904.561 182.012 904.964 180.693 905.037 179.521C905.879 180.18 907.015 180.693 907.491 181.572C909.579 185.419 911.484 189.375 913.463 193.259C913.683 193.698 914.012 194.065 914.305 194.504C914.562 194.028 914.928 193.552 915.001 193.039C915.111 192.196 915.331 191.17 915.001 190.438C912.693 185.382 910.349 180.363 907.711 175.491C907.235 174.612 905.293 173.842 904.194 174.062C897.527 175.271 891.043 175.344 885.218 171.315C883.423 170.069 881.847 170.216 880.455 171.425C876.902 174.465 873.348 177.506 870.088 180.84C867.45 183.551 865.948 186.884 866.241 190.951L866.205 190.841ZM894.523 255.61C904.341 256.526 912.913 252.386 921.705 249.382C922.804 249.016 924.123 248.759 923.61 246.671C921.119 236.157 918.885 225.607 916.503 215.093C916.284 214.103 915.697 212.382 915.221 212.345C913.573 212.235 910.715 212.272 910.349 213.114C908.041 218.573 902.766 218.573 898.406 220.221C892.545 222.419 886.463 224.105 881.371 228.061C880.016 229.123 878.367 229.893 876.719 230.369C875.143 230.809 874.63 231.578 874.521 233.08C874.118 238.465 873.641 243.85 873.128 249.236C872.872 251.69 873.641 253.119 876.316 253.412C882.397 254.071 888.442 254.914 894.486 255.647L894.523 255.61ZM1020.76 114.971C1020.43 114.935 1020.14 114.861 1019.81 114.825C1020.62 108.047 1018.49 102.845 1012.48 99.1819C1009.04 97.0938 1005.78 95.8849 1001.64 95.6651C998.564 95.5185 997.099 96.5443 996.183 98.5958C994.644 102.003 994.168 105.959 996.183 109.146C999.187 113.909 998.381 118.342 996.183 122.811C994.827 125.522 992.776 127.903 991.164 130.504C990.285 131.933 989.662 133.545 988.893 135.083C990.431 135.267 992.006 135.303 993.508 135.706C994.314 135.926 994.937 136.732 995.67 137.245C995.01 137.941 994.498 139.003 993.692 139.223C992.19 139.663 990.431 139.37 988.966 139.883C987.72 140.322 986.585 141.311 985.669 142.337C985.339 142.703 985.779 143.949 986.218 144.572C986.401 144.828 987.537 144.608 988.087 144.352C988.709 144.059 989.149 143.363 989.772 142.96C992.556 141.018 994.901 142.007 995.34 145.414C995.523 146.843 995.377 148.345 995.45 149.81C995.56 152.302 995.706 154.756 995.926 157.247C995.963 157.76 996.403 158.236 996.622 158.749C997.062 158.273 997.685 157.87 997.868 157.284C998.674 154.793 999.187 152.192 1000.1 149.737C1000.62 148.382 1001.57 146.44 1002.67 146.22C1004.76 145.744 1005.41 147.759 1005.89 149.554C1006.29 151.093 1006.81 152.631 1007.47 154.097C1007.8 154.829 1008.53 155.342 1009.11 155.965C1009.41 155.232 1009.96 154.5 1009.99 153.767C1010.1 150.983 1010.07 148.198 1009.99 145.451C1009.99 144.645 1009.77 143.363 1009.26 143.106C1005.71 141.311 1007.83 139.919 1009.37 138.234C1011.94 135.45 1015.12 132.885 1016.62 129.588C1018.71 125.046 1019.52 119.917 1020.84 115.045L1020.76 114.971ZM894.376 300.157C905.696 299.864 913.756 297.813 921.779 295.505C929.179 293.416 929.179 293.49 927.86 285.87C927.75 285.284 927.53 284.734 927.494 284.148C927.384 282.17 926.431 282.243 924.893 282.829C918.518 285.284 911.887 286.493 905.11 286.199C895.036 285.797 884.998 285.1 874.924 284.368C872.506 284.185 870.161 283.379 867.78 282.866C867.487 285.467 867.157 288.104 866.864 290.706C866.754 291.731 866.717 292.757 866.424 293.746C865.875 295.724 866.754 296.42 868.549 296.64C878.111 297.922 887.672 299.205 894.376 300.121V300.157ZM901.886 136.622C904.341 136.512 906.649 136.512 907.601 133.581C909.25 128.489 905.33 120.1 900.274 118.232C894.083 115.96 888.588 117.169 883.459 121.199C879.833 124.057 877.891 123.287 876.499 118.891C876.023 117.389 875.51 115.814 874.667 114.495C872.872 111.747 869.062 110.685 866.608 112.041C864.116 113.396 863.274 116.473 864.739 119.77C866.168 122.958 868.293 125.375 872.103 125.888C873.238 126.035 874.264 126.987 875.363 127.573C874.704 128.563 873.898 129.478 873.385 130.541C872.103 133.288 870.821 136.036 869.831 138.857C869.392 140.066 869.978 140.652 871.517 140.102C876.719 138.307 877.048 138.564 878.514 144.059C878.733 144.901 878.88 145.781 879.136 146.587C879.283 147.063 879.649 147.466 879.942 147.905C880.199 147.429 880.492 146.99 880.675 146.477C881.371 144.718 881.884 142.887 882.69 141.165C885.254 135.596 888.698 133.911 894.633 135.12C897.051 135.633 899.468 136.073 901.923 136.549L901.886 136.622ZM901.886 314.738C901.886 314.444 901.923 314.151 901.96 313.858C910.422 314.701 918.518 313.016 926.468 310.415C928.116 309.865 929.985 309.352 929.875 307.044C929.802 304.846 929.655 302.685 929.472 300.487C929.289 298.655 928.19 297.959 926.431 298.362C924.306 298.875 922.218 299.461 920.093 300.011C911.741 302.135 903.352 304.7 894.669 303.93C885.694 303.125 876.535 303.418 867.817 300.45C867.12 300.23 865.545 300.597 865.545 300.78C865.325 303.527 864.996 306.312 865.362 308.986C865.472 309.792 867.597 310.708 868.879 310.854C879.869 312.21 890.859 313.419 901.886 314.701V314.738ZM868.513 273.707C867.23 276.821 869.025 278.543 872.139 279.386C874.814 280.118 877.451 281.107 880.162 281.364C885.804 281.95 891.555 281.73 897.197 282.536C904.89 283.598 912.364 282.683 919.691 280.668C926.578 278.763 926.651 278.433 925.699 271.582C925.589 270.85 925.515 270.117 925.552 269.384C925.625 267.37 924.929 266.82 922.951 267.626C909.47 273.048 895.475 272.132 881.481 270.667C879.027 270.41 876.535 270.044 874.191 269.311C868.879 267.663 868.879 267.589 868.549 273.744L868.513 273.707ZM931.78 321.515C931.487 319.647 931.01 317.778 930.901 315.873C930.754 313.199 929.692 313.345 927.494 313.968C922.438 315.434 917.309 317.412 912.181 317.522C897.014 317.851 881.701 318.914 866.827 314.371C865.179 313.858 864.3 314.371 864.263 316.166C864.263 317.045 864.336 317.998 864.08 318.767C863.017 321.845 864.446 322.907 867.304 323.347C873.238 324.226 879.1 325.545 885.035 326.241C890.237 326.863 895.512 326.9 900.751 327.12C903.059 327.193 904.671 326.167 905.073 323.676C905.183 322.944 905.33 322.211 905.623 321.551C906.612 319.463 908.371 319.28 909.543 321.332C910.239 322.577 910.276 324.153 910.898 325.471C911.338 326.351 912.327 327.669 912.95 327.633C918.335 327.12 923.684 326.314 929.069 325.618C931.597 325.288 932.11 323.676 931.816 321.478L931.78 321.515ZM897.71 268.212C905.11 268.615 912.327 267.296 919.324 265.135C924.197 263.633 925.112 261.838 924.197 257.002C923.5 253.339 923.427 253.192 919.727 254.657C911.887 257.845 903.755 259.383 895.292 258.834C888.588 258.431 881.884 257.845 875.253 256.819C872.432 256.379 871.297 256.672 870.711 259.53C869.941 263.45 869.941 263.56 873.495 264.952C881.298 268.029 889.541 267.846 897.71 268.249V268.212ZM883.826 340.748C889.87 340.015 895.952 339.319 901.996 338.513C905.77 338 904.121 334.96 904.268 332.945C904.487 330.197 902.363 331.04 900.897 331.186C889.834 332.432 879.063 330.087 868.403 327.853C862.651 326.644 862.761 326.204 862.395 331.956C862.395 332.395 862.395 332.835 862.285 333.274C861.992 335.363 862.871 336.388 864.922 337.011C871.077 338.879 877.231 340.675 883.826 340.711V340.748ZM958.633 67.8597C959.512 66.7607 960.501 65.9547 960.977 64.929C964.421 57.0526 967.681 49.0664 971.125 41.19C972.041 39.1019 971.821 38.0395 969.513 37.3434C967.022 36.5741 964.531 35.6216 962.15 34.486C960.428 33.68 959.475 33.8265 958.852 35.7682C956.215 44.3039 953.541 52.8031 950.939 61.3388C950.72 62.0349 950.866 63.3537 951.306 63.6468C953.467 65.1121 955.812 66.2844 958.596 67.8963L958.633 67.8597ZM868.879 362.692C869.392 364.523 869.392 367.747 870.527 368.223C874.777 369.945 879.43 370.861 883.936 371.887C884.558 372.033 885.584 371.337 886.024 370.751C886.244 370.458 885.767 369.396 885.328 368.883C884.778 368.223 884.045 367.711 883.313 367.198C879.393 364.34 878.807 362.875 880.199 358.296C881.371 354.376 882.653 350.493 884.045 346.646C884.668 344.851 884.448 343.862 882.36 343.752C880.162 343.642 877.964 343.642 875.803 343.349C872.872 342.946 871.92 344.045 872.029 346.939C872.103 348.917 871.37 350.932 870.93 352.947C870.271 356.061 869.612 359.175 868.879 362.692ZM991.677 102.516C991.75 101.856 991.86 101.417 991.823 100.977C991.787 100.208 991.64 99.475 991.53 98.7057C990.981 99.1819 990.321 99.5483 989.918 100.098C988.05 102.882 986.035 105.593 984.496 108.524C983.031 111.271 981.932 114.055 978.012 112.114C977.719 111.967 977.279 112.224 976.876 112.297C976.986 112.7 977.023 113.213 977.279 113.469C977.902 114.092 978.598 114.605 979.294 115.118C980.833 116.253 981.126 117.572 979.368 118.561C975.924 120.503 976.327 123.69 976.986 126.511C977.976 130.797 984.313 132.922 986.694 129.845C989.515 126.181 991.86 122.078 994.131 118.012C994.754 116.913 995.01 114.678 994.351 113.946C991.31 110.429 992.263 106.179 991.64 102.442L991.677 102.516ZM932.11 187.287C932.11 182.854 932.11 182.818 927.823 182.012C926.395 181.755 924.929 181.609 923.5 181.572C922.841 181.572 921.669 181.829 921.595 182.158C920.496 186.481 918.335 191.024 918.885 195.2C919.471 199.67 921.669 203.882 920.277 208.608C920.167 208.938 920.387 209.451 920.606 209.707C922.951 212.198 927.567 211.173 928.263 207.839C929.692 201.025 930.827 194.138 932.073 187.324L932.11 187.287ZM951.013 154.536C951.013 154.536 951.086 154.536 951.123 154.536C951.123 157.467 951.049 160.398 951.123 163.292C951.196 165.417 951.416 167.505 951.599 169.63C952.808 168.054 953.87 166.296 955.336 165.014C958.083 162.596 957.717 159.885 957.277 156.698C956.691 152.668 957.057 148.528 956.764 144.462C956.471 140.395 958.083 137.208 960.391 134.021C962.443 131.2 964.018 128.05 965.74 125.009C965.996 124.569 965.886 123.91 965.96 123.361C965.52 123.617 964.97 123.8 964.604 124.13C963.212 125.412 961.856 126.731 960.464 128.013C958.999 129.369 957.35 129.552 956.654 127.464C955.958 125.412 955.922 125.742 955.079 127.39C954.713 128.123 953.541 128.599 952.625 128.892C948.925 130.174 946.946 134.461 949.291 137.501C951.049 139.773 951.086 141.971 951.049 144.462C951.049 147.832 951.049 151.166 951.049 154.536H951.013ZM968.414 60.6061C968.414 61.9616 968.194 62.9507 968.414 63.7567C969.989 69.0686 969.989 69.032 964.934 70.2776C964.567 70.3508 964.238 70.6439 963.871 70.8637C964.164 71.34 964.311 71.9994 964.751 72.2192C966.839 73.2449 968.927 74.344 971.125 75.04C974.019 75.9559 975.851 77.6777 976.767 80.6084C978.195 85.2243 979.807 89.767 981.419 94.3096C982.152 96.3611 983.104 98.3027 983.947 100.318C985.595 98.5225 987.317 96.8007 988.893 94.9324C989.259 94.4928 989.405 93.5403 989.186 93.0274C984.863 84.2352 980.577 75.443 975.997 66.7973C975.008 64.929 973.103 63.5735 971.491 62.0715C970.868 61.522 969.953 61.3022 968.451 60.6061H968.414ZM923.281 365.146C924.306 365.146 925.332 365.219 926.321 365.146C926.944 365.073 927.567 364.743 928.19 364.523C927.64 364.194 927.127 363.754 926.541 363.571C922.255 361.996 921.009 360.457 920.973 355.841C920.973 352.8 921.412 349.723 921.376 346.683C921.376 345.877 920.496 344.485 919.837 344.338C913.133 342.799 911.778 343.898 911.668 350.676C911.668 351.555 911.668 352.434 911.668 353.313C911.594 364.817 911.668 364.853 923.354 365.219L923.281 365.146ZM920.973 340.381C922.292 340.381 923.61 340.381 924.929 340.381C931.56 340.235 933.538 337.817 932.622 331.369C932.366 329.648 931.743 329.245 930.095 329.391C924.746 329.831 919.361 330.124 913.976 330.344C912.144 330.417 911.887 331.04 912.034 332.725C912.693 340.455 912.657 340.455 920.57 340.418C920.716 340.418 920.863 340.418 921.009 340.418L920.973 340.381ZM995.047 29.6869C995.047 29.3938 995.194 28.3314 994.974 27.3423C994.901 26.9393 993.948 26.2799 993.618 26.4264C991.274 27.3423 989.039 28.7344 986.621 29.2839C985.229 29.6136 984.496 29.5403 984.899 31.1889C985.669 34.2295 984.753 36.6474 982.079 38.3692C981.749 38.589 981.529 39.0286 981.273 39.3583C981.676 39.3583 982.152 39.5048 982.518 39.3583C984.936 38.5523 986.145 39.3583 986.328 41.8861C986.401 43.0584 986.914 43.6079 987.867 42.5088C990.321 39.6147 992.702 39.9811 995.377 42.3257C995.89 42.7653 997.685 42.4722 998.271 41.8861C999.773 40.3474 1000.98 38.5157 1002.26 36.7573C1003.29 35.3652 1002.96 34.6325 1001.16 34.7058C1000.43 34.7058 999.7 34.7058 998.967 34.7058C996.134 34.6813 994.815 33.0084 995.01 29.6869H995.047ZM951.269 350.895C952.148 350.895 953.028 350.895 953.907 350.895C959.146 350.895 963.322 348.075 967.571 345.584C968.267 345.181 968.414 343.898 968.854 343.056C968.048 342.836 967.278 342.58 966.472 342.433C963.615 341.92 960.757 341.261 957.863 341.041C956.654 340.931 955.189 341.554 954.127 342.286C952.112 343.715 950.39 345.51 948.412 346.976C946.873 348.111 945.151 348.954 943.503 349.943C945.664 350.273 947.789 350.566 949.95 350.859C950.39 350.932 950.83 350.859 951.269 350.859V350.895ZM912.071 199.01C906.539 199.01 905.293 200.732 907.162 205.934C907.418 206.63 907.565 207.399 908.004 207.912C908.371 208.352 909.14 208.718 909.689 208.682C911.118 208.572 912.547 208.352 913.939 207.985C916.943 207.18 917.236 206.117 915.514 203.443C915.075 202.747 914.452 201.904 914.562 201.245C915.001 198.864 913.609 198.937 912.034 199.047L912.071 199.01ZM1052.01 216.082C1051.76 213.004 1052.53 210.55 1048.94 210.477C1045.02 210.403 1044.17 210.916 1044.76 214.873C1045.13 217.291 1045.93 219.708 1046.96 221.907C1047.91 223.958 1049.45 223.921 1050.36 221.833C1051.28 219.745 1051.61 217.4 1051.98 216.082H1052.01ZM929.362 236.67C928.666 234.289 928.336 232.237 927.42 230.479C927.017 229.71 925.369 229.6 924.306 229.197C924.013 230.003 923.391 230.845 923.5 231.615C923.757 233.483 924.123 235.388 924.856 237.11C925.259 238.062 926.504 238.685 927.384 239.454C928.043 238.538 928.739 237.623 929.399 236.707L929.362 236.67ZM876.426 149.994C875.546 147.869 874.814 146.074 874.081 144.279C873.312 145.524 871.92 146.806 871.993 147.942C872.103 149.114 873.641 150.213 874.667 151.239C874.74 151.312 875.693 150.506 876.426 149.994ZM929.728 244.437C928.922 244.143 928.373 243.74 928.08 243.85C927.567 244.07 927.091 244.583 926.798 245.096C926.724 245.242 927.64 246.158 927.75 246.085C928.336 245.755 928.776 245.242 929.728 244.437ZM908.737 337.451C908.664 337.084 908.59 336.828 908.517 336.608C908.444 336.901 908.297 337.194 908.261 337.487C908.261 337.744 908.371 338 908.407 338.22C908.517 337.927 908.627 337.634 908.737 337.451ZM991.31 148.858C991.017 148.675 990.724 148.492 990.431 148.308C990.321 148.528 990.028 148.858 990.101 148.968C990.285 149.261 990.651 149.481 990.907 149.701C991.017 149.444 991.127 149.224 991.31 148.821V148.858ZM1018.68 173C1018.79 172.78 1019.04 172.56 1019.01 172.377C1018.97 172.157 1018.68 171.974 1018.49 171.791C1018.38 172.011 1018.16 172.231 1018.16 172.414C1018.16 172.634 1018.46 172.78 1018.64 172.963L1018.68 173ZM964.824 65.8082C964.824 65.8082 964.641 65.9914 964.641 66.1013C964.641 66.2112 964.714 66.3211 964.751 66.431C964.824 66.3211 964.934 66.2478 964.934 66.1379C964.934 66.028 964.86 65.9181 964.824 65.8082Z" fill="#3A352F"/>
<path d="M1060.15 287.812C1058.72 285.101 1057.29 282.39 1055.86 279.716C1055.68 279.349 1055.42 278.983 1055.2 278.617C1055.02 278.983 1054.83 279.349 1054.65 279.716C1054.58 279.862 1054.54 280.009 1054.54 280.119C1054.29 287.702 1050.44 294.076 1047.54 300.744C1045.93 304.407 1045.31 307.924 1046.92 311.734C1047.54 313.199 1047.91 314.811 1048.46 316.313C1050.66 322.395 1049.96 323.713 1043.66 322.871C1039.23 322.285 1034.91 320.673 1030.69 319.061C1027.87 317.962 1027.4 315.178 1027.73 312.357C1028.24 308.144 1028.71 303.931 1029.34 299.755C1029.67 297.447 1029.01 296.494 1026.59 296.714C1024.83 296.861 1023.07 296.787 1021.31 296.787C1017.83 296.787 1016.85 295.798 1017.21 292.318C1017.39 290.743 1017.83 289.167 1018.13 287.592C1019.63 279.716 1021.06 271.803 1022.6 263.926C1022.93 262.241 1022.52 262.021 1020.84 262.278C1016.48 262.901 1015.67 262.351 1015.89 258.138C1016.26 251.434 1016.66 244.73 1017.76 238.136C1018.57 233.337 1021.17 232.897 1024.76 236.341C1026.33 237.843 1027.76 239.968 1030.29 238.905C1032.93 237.806 1034.21 235.535 1034.39 232.677C1034.43 231.945 1034.28 231.066 1034.61 230.516C1035.09 229.747 1035.97 229.197 1036.66 228.538C1037.18 229.307 1038.17 230.15 1038.06 230.809C1037.65 233.374 1037.25 236.011 1036.22 238.356C1034.1 243.082 1031.54 247.588 1029.15 252.204C1028.75 252.973 1028.39 253.779 1028.13 254.621C1027.03 258.212 1027.36 259.091 1030.91 259.97C1038.68 261.875 1046.3 262.351 1054.14 259.311C1061.28 256.526 1067.88 253.046 1074.25 248.833C1076.01 247.661 1075.42 247.111 1074.4 245.902C1072.42 243.594 1070.59 241.14 1068.94 238.576C1067.69 236.634 1066.92 234.582 1064.36 233.63C1063.22 233.19 1062.02 231.102 1062.02 229.747C1062.02 223.189 1062.2 216.632 1062.75 210.111C1062.93 207.73 1065.2 207.217 1066.85 209.415C1069.23 212.565 1069.49 210.807 1070.33 208.536C1071.06 206.667 1072.09 204.762 1073.48 203.37C1076.41 200.403 1079.97 201.135 1081.32 205.055C1082.02 207.07 1082.6 207.583 1084.62 206.704C1085.2 206.447 1086.82 207.4 1087.22 208.206C1089.31 212.309 1087.4 217.987 1083.34 220.661C1082.82 220.991 1082.27 221.724 1082.27 222.237C1082.38 225.131 1081.1 227.695 1082.42 231.029C1083.81 234.546 1082.71 239.088 1082.6 243.191C1082.6 243.741 1082.31 244.51 1081.91 244.767C1078.17 246.892 1079.67 250.079 1080.41 252.9C1082.13 259.567 1084.03 266.161 1085.9 272.755C1087.07 276.822 1087.04 278.067 1083.34 279.972C1077.4 283.049 1071.21 285.651 1064.98 288.105C1063.55 288.691 1061.61 287.922 1059.89 287.812L1059.96 287.885L1060.15 287.812ZM1029.04 263.817C1026.44 262.718 1026.26 264.659 1026 266.418C1024.79 274.66 1024.25 283.013 1021.06 290.853C1020.33 292.684 1020.98 293.6 1023.11 293.344C1026.41 292.941 1029.89 291.805 1032.96 292.464C1037.91 293.527 1042.12 292.171 1046.56 290.56C1048.53 289.827 1049.27 288.728 1049.56 286.786C1050.22 282.756 1050.99 278.727 1051.9 274.734C1052.31 272.975 1052.53 270.264 1055.02 270.814C1056.34 271.107 1057.33 273.415 1058.24 274.917C1058.68 275.613 1058.43 276.675 1058.75 277.481C1059.56 279.496 1060.33 281.584 1061.47 283.416C1061.91 284.112 1063.59 284.698 1064.29 284.405C1069.93 282.024 1075.5 279.496 1080.99 276.822C1081.91 276.382 1082.97 274.697 1082.79 273.891C1081.07 266.93 1079.01 260.08 1077.15 253.156C1076.71 251.507 1075.94 251.507 1074.65 252.313C1070.95 254.658 1067.4 257.296 1063.44 259.091C1056.56 262.241 1049.6 265.502 1041.68 264.916C1037.47 264.622 1033.29 264.183 1029.08 263.817H1029.04ZM1079.42 215.679C1079.42 215.679 1079.09 215.606 1078.94 215.569C1078.76 212.822 1078.57 210.038 1078.35 207.29C1078.32 206.777 1077.95 206.264 1077.73 205.751C1077.15 206.044 1076.19 206.154 1075.97 206.631C1074.84 209.122 1073.66 211.613 1072.86 214.214C1071.47 218.83 1071.14 219.013 1067.18 216.265C1066.89 216.046 1065.61 216.522 1065.61 216.668C1065.57 220.735 1065.57 224.801 1065.72 228.868C1065.72 229.38 1066.41 230.15 1066.96 230.37C1070.88 231.945 1075.68 230.296 1077.18 226.267C1078.43 222.933 1078.68 219.269 1079.38 215.716L1079.42 215.679ZM1032.96 302.356C1031.94 305.213 1033.62 306.752 1036.33 307.631C1037.73 308.107 1039.08 308.73 1040.51 308.913C1041.06 308.987 1042.16 308.217 1042.31 307.668C1043.11 304.444 1043.55 301.147 1044.47 297.96C1045.05 295.908 1044.28 295.652 1042.64 295.871C1040.18 296.165 1037.69 296.274 1035.24 296.751C1034.47 296.897 1033.59 297.813 1033.33 298.582C1032.93 299.645 1033.07 300.89 1032.96 302.319V302.356ZM1018.86 254.988C1019.04 255.867 1019.26 256.966 1019.52 258.028C1020.44 257.406 1021.61 256.966 1022.23 256.087C1023.73 253.962 1025.09 251.691 1026.3 249.346C1027.25 247.551 1028.46 245.573 1028.42 243.704C1028.42 242.825 1025.75 242.019 1024.32 241.14C1023.95 240.92 1023.66 240.59 1023.33 240.261C1021.61 238.429 1020.91 239.345 1020.62 241.25C1020 245.719 1019.45 250.225 1018.82 254.951L1018.86 254.988ZM1041.72 319.537C1043.41 319.244 1044.39 319.098 1045.38 318.914C1045.13 317.815 1045.05 316.57 1044.54 315.617C1044.06 314.811 1043.15 314.115 1042.27 313.749C1039.56 312.65 1036.77 311.771 1034.06 310.708C1032.3 310.049 1031.35 310.782 1031.61 312.43C1031.83 313.822 1032.3 315.837 1033.33 316.35C1036.15 317.815 1039.27 318.621 1041.79 319.501L1041.72 319.537ZM1080.33 237.44C1079.67 232.787 1079.67 232.824 1075.5 233.923C1074.65 234.143 1073.77 234.216 1072.93 234.179C1070.73 234.106 1070.88 235.132 1071.72 236.561C1072.16 237.293 1072.53 238.099 1073.01 238.832C1074.18 240.59 1075.17 243.448 1077.62 242.495C1078.98 241.983 1079.49 239.198 1080.37 237.44H1080.33ZM1082.57 216.449C1083.37 215.02 1083.81 214.507 1083.96 213.921C1084.07 213.371 1083.85 212.748 1083.74 212.162C1083.3 212.602 1082.68 212.968 1082.46 213.518C1082.24 214.067 1082.46 214.8 1082.57 216.485V216.449Z" fill="#3A352F"/>
<path d="M1060.07 287.735C1060.29 291.691 1060.4 295.611 1060.77 299.531C1060.91 301.106 1059.63 303.524 1062.96 303.744C1067.36 304 1068.42 303.597 1069.15 300.447C1070.03 296.747 1070.73 293.01 1071.79 289.347C1072.12 288.211 1073.37 287.369 1074.21 286.379C1074.76 287.625 1075.93 288.907 1075.79 290.079C1075.49 293.12 1074.65 296.087 1073.95 299.091C1072.74 304.477 1071.98 309.715 1076.26 314.368C1077.76 315.98 1076.99 317.812 1074.76 317.482C1069.63 316.676 1064.5 315.54 1059.48 314.148C1058.49 313.892 1057.4 311.95 1057.36 310.741C1057.1 304.037 1057.1 297.296 1057.07 290.592C1057.07 288.541 1057.61 287.075 1060.14 287.771L1060.07 287.698V287.735ZM1064.39 306.711C1063.29 307.371 1061.53 307.847 1061.13 308.836C1060.25 311.071 1061.86 312.243 1063.95 312.683C1064.65 312.829 1065.34 313.012 1066.08 313.086C1067.62 313.269 1069.12 313.452 1070.66 313.599C1070.14 311.877 1069.96 309.862 1068.93 308.506C1068.2 307.517 1066.3 307.371 1064.36 306.638L1064.39 306.711Z" fill="#3A352F"/>
<path d="M816.127 186.807C814.112 186.587 811.474 187.577 810.925 184.353C810.485 181.862 813.379 178.235 816.273 177.832C817.482 177.649 818.911 177.868 820.083 178.308C821.878 178.968 824.443 179.224 824.186 181.972C823.967 184.866 821.842 186.148 819.168 186.587C818.178 186.771 817.153 186.734 816.127 186.771V186.807ZM816.31 181.129C816.054 181.569 815.834 181.898 815.651 182.228C816.054 182.448 816.457 182.851 816.896 182.851C817.263 182.851 817.629 182.448 817.995 182.191C817.556 181.898 817.116 181.605 816.347 181.092L816.31 181.129Z" fill="#3A352F"/>
<path d="M902.983 164.568C902.909 167.682 899.979 170.796 897.011 169.953C895.106 169.44 892.981 167.462 892.285 165.63C891.553 163.688 896.022 160.318 898.733 160.281C901.517 160.208 903.056 161.783 902.983 164.568ZM898.989 165.044C898.074 164.897 897.561 164.678 897.121 164.751C896.791 164.824 896.572 165.264 896.278 165.557C896.755 165.74 897.231 166.033 897.671 166.033C897.964 166.033 898.293 165.593 898.953 165.044H898.989Z" fill="#3A352F"/>
<path d="M1016.73 214.283C1017.87 212.268 1018.86 210.436 1019.99 208.678C1020.1 208.495 1021.46 208.861 1021.46 208.898C1021.24 210.949 1021.09 213.037 1020.51 215.015C1020.29 215.785 1019 216.261 1018.2 216.884C1017.76 216.078 1017.32 215.308 1016.73 214.283Z" fill="#3A352F"/>
<path d="M901.921 156.179C901.482 156.985 901.335 157.644 900.932 157.864C900.529 158.084 899.87 157.864 899.32 157.791C899.064 157.754 898.771 157.461 898.698 157.241C898.111 155.373 897.525 153.468 897.049 151.563C897.049 151.49 898.258 150.904 898.331 150.977C899.577 152.662 900.749 154.421 901.958 156.179H901.921Z" fill="#3A352F"/>
<path d="M810.12 166.658C809.167 167.647 808.581 168.27 807.995 168.892C807.042 167.83 805.76 166.914 805.247 165.669C805.064 165.229 806.713 164.02 807.555 163.177C808.325 164.24 809.094 165.266 810.12 166.658Z" fill="#3A352F"/>
<path d="M893.313 146.586C891.701 148.014 890.493 149.077 889.284 150.102C888.771 149.37 887.782 148.6 887.892 147.978C888.185 146.256 888.001 143.838 890.676 143.875C891.408 143.875 892.104 145.267 893.313 146.549V146.586Z" fill="#3A352F"/>
<path d="M820.044 158.891C821.253 161.162 822.132 162.591 822.718 164.093C822.828 164.349 821.619 165.082 821.033 165.595C820.117 164.459 818.981 163.434 818.395 162.151C818.175 161.638 819.128 160.576 820.007 158.891H820.044Z" fill="#3A352F"/>
<path d="M901.333 148.121C902.579 147.058 903.348 146.399 904.117 145.776C904.813 146.948 905.729 148.047 906.059 149.33C906.206 149.806 905.033 150.648 904.447 151.308C903.531 150.392 902.652 149.476 901.333 148.121Z" fill="#3A352F"/>
<path d="M817.008 172.341C816.495 171.461 815.689 170.619 815.542 169.703C815.432 168.934 816.128 168.091 816.458 167.249C817.117 167.871 818.107 168.384 818.29 169.117C818.546 170.033 818.107 171.132 817.997 172.121C817.667 172.194 817.337 172.267 816.971 172.341H817.008Z" fill="#3A352F"/>
<path d="M981.855 260.553C981.525 268.613 976.873 275.72 969.875 279.676C959.398 285.574 953.097 294.476 947.675 304.404C944.671 309.863 942.363 315.724 939.726 321.366C939.469 321.952 938.846 322.721 938.37 322.758C937.821 322.758 936.795 322.135 936.722 321.659C936.502 320.304 936.209 318.692 936.722 317.519C938.37 313.453 940.128 309.423 942.253 305.613C945.221 300.265 948.518 295.063 951.742 289.824C954.599 285.245 958.446 281.728 963.281 279.31C968.154 276.892 971.707 273.009 974.821 268.723C977.019 265.719 978.301 262.385 978.301 258.538C978.301 257.219 979.327 255.901 979.877 254.582C980.536 255.901 981.269 257.183 981.855 258.502C982.038 258.868 981.855 259.381 981.855 260.553Z" fill="#3A352F"/>
<path d="M1050 201.757C1046.08 201.318 1044.21 200.036 1044.03 197.471C1043.88 194.87 1045.97 192.342 1048.75 192.196C1049.85 192.123 1051.03 192.965 1052.16 193.368C1051.5 194.138 1050.88 194.943 1050.15 195.713C1049.71 196.189 1049.12 196.555 1048.61 196.995C1049.34 197.215 1050.15 197.691 1050.84 197.581C1051.65 197.471 1052.38 196.629 1053.19 196.555C1054.07 196.482 1054.98 196.922 1055.86 197.178C1055.61 198.094 1055.64 199.449 1055.06 199.816C1053.48 200.732 1051.65 201.171 1049.93 201.831L1050 201.757Z" fill="#3A352F"/>
<path d="M1051.28 187.799C1050.95 188.312 1050.69 189.045 1050.33 189.118C1049.74 189.228 1048.68 189.045 1048.49 188.642C1047.65 186.847 1046.92 184.942 1046.37 183C1046.22 182.524 1046.77 181.461 1047.21 181.315C1047.69 181.168 1048.75 181.608 1048.97 182.048C1049.85 183.843 1050.51 185.784 1051.28 187.763V187.799Z" fill="#3A352F"/>
<path d="M1041.31 182.745C1039.85 183.734 1038.53 184.943 1038.23 184.76C1037.21 183.99 1036.22 182.855 1035.85 181.682C1035.67 181.06 1036.84 180.034 1037.43 179.191C1038.53 180.217 1039.66 181.243 1041.31 182.745Z" fill="#3A352F"/>
<path d="M1059.78 182.194C1058.72 183.623 1057.95 184.685 1057.18 185.711C1056.45 184.759 1055.09 183.843 1055.13 182.89C1055.13 181.755 1056.3 180.619 1056.96 179.483C1057.8 180.289 1058.64 181.059 1059.78 182.158V182.194Z" fill="#3A352F"/>
<path d="M991.347 108.409C989.515 110.46 988.086 112.109 986.657 113.721C986.181 113.135 985.375 112.585 985.302 111.962C985.082 109.618 987.06 106.174 988.489 106.357C989.259 106.467 989.918 107.346 991.347 108.409Z" fill="#3A352F"/>
<path d="M1373.02 686.673C1377.71 686.673 1382.4 686.892 1387.09 686.636C1393.21 686.306 1399.33 685.647 1405.41 684.987C1406.47 684.877 1407.46 683.925 1408.52 683.522C1410.43 682.789 1412.3 681.983 1414.27 681.654C1415.12 681.507 1416.14 682.46 1417.1 682.899C1416.44 683.815 1415.96 685.061 1415.08 685.537C1412.26 687.002 1409.37 688.504 1406.32 689.347C1403.94 690.006 1403.76 691.398 1403.8 693.193C1403.98 699.678 1406.14 705.539 1409.77 710.851C1411.93 714.002 1413.1 714.038 1416.18 711.62C1417.57 710.521 1419.11 710.375 1419.92 711.913C1420.5 712.976 1420.65 714.808 1420.1 715.797C1418.82 718.105 1415.3 719.057 1412.63 717.518C1410.06 716.016 1407.5 713.928 1405.92 711.51C1402.3 705.942 1399.73 699.861 1399.99 692.974C1400.06 691.032 1399.58 689.896 1397.35 690.006C1384.05 690.592 1370.79 691.142 1357.49 691.765C1356.94 691.765 1356.06 692.278 1355.99 692.681C1354.05 703.414 1351.59 707.737 1344.12 713.342C1334.38 720.669 1317.67 717.189 1311.96 706.382C1308.88 700.557 1306.68 694.256 1307.41 687.442C1307.71 684.804 1307.05 683.412 1304.3 682.789C1285.47 678.613 1267.99 670.444 1249.9 664.142C1248.1 663.52 1247.48 663.3 1245.76 665.425C1242.17 669.857 1237.66 674.473 1232.53 676.525C1224.88 679.565 1214.25 678.027 1208.17 669.454C1202.93 662.091 1200.59 653.922 1201.83 644.983C1202.38 641.136 1201.03 639.231 1197.91 637.253C1180.18 626.006 1164.5 612.452 1152.67 594.904C1149.48 590.178 1146.73 585.159 1143.77 580.287C1143.33 579.591 1142.82 578.968 1142.34 578.309C1141.86 579.005 1141.35 579.701 1140.91 580.433C1135.27 590.032 1139.15 605.931 1146.73 613.404C1147.72 614.393 1149.23 614.869 1150.51 615.492C1152.08 616.262 1153.88 616.701 1155.27 617.654C1158.38 619.815 1161.39 620.145 1164.65 618.13C1165.24 617.764 1166.11 617.397 1166.7 617.58C1167.69 617.873 1169.05 618.423 1169.34 619.229C1169.56 619.852 1168.64 621.5 1167.87 621.83C1163.37 623.735 1158.82 624.065 1154.39 621.5C1153.15 620.768 1151.94 619.778 1150.54 619.412C1143.8 617.727 1140.36 612.635 1138.05 606.847C1136.29 602.414 1134.94 597.615 1134.61 592.889C1134.13 586.295 1134.1 579.408 1141.2 575.414C1141.46 575.268 1141.5 574.352 1141.35 573.876C1138.9 565.78 1141.94 559.259 1147.17 553.397C1158.86 540.319 1170.11 526.764 1182.53 514.419C1189.82 507.202 1199.01 501.89 1207.44 495.845C1218.03 488.262 1230.48 484.452 1242.06 478.92C1245.39 477.345 1245.06 477.418 1243.63 473.974C1242.61 471.483 1242.39 468.626 1242.2 465.915C1242.09 464.266 1242.13 463.35 1240.08 463.021C1225.86 460.64 1220.08 449.576 1226.05 436.424C1228.8 430.38 1233.3 426.277 1239.75 424.335C1243.63 423.163 1243.67 423.016 1241.47 419.683C1237 412.795 1236.01 405.212 1237.26 397.336C1238.94 386.895 1246.05 380.85 1256.53 378.139C1258.36 377.663 1260.52 378.469 1262.54 378.579C1263.27 378.616 1264.48 378.616 1264.7 378.213C1267.48 373.34 1272.54 372.388 1277.26 371.472C1282.1 370.556 1286.9 371.838 1291.33 373.926C1296.46 376.308 1298.8 380.74 1299.57 386.089C1300.89 395.064 1299.06 403.307 1293.34 410.451C1291.62 412.649 1292.54 413.198 1294.44 414.187C1302.43 418.254 1304.3 427.302 1298.18 434.043C1295.8 436.681 1292.54 438.622 1289.46 440.491C1286.71 442.139 1283.67 443.312 1280.67 444.447C1279.68 444.814 1278.36 444.447 1277.19 444.374C1277.74 443.202 1278 441.516 1278.95 440.967C1281.44 439.465 1284.41 438.732 1286.82 437.157C1289.97 435.142 1293.02 432.834 1295.69 430.233C1296.9 429.061 1297.41 426.863 1297.59 425.068C1298.14 419.866 1293.24 415.36 1287.85 415.836C1287.23 415.909 1286.57 415.653 1285.91 415.579C1286.05 414.774 1285.98 413.821 1286.42 413.235C1287.15 412.172 1288.22 411.33 1289.1 410.341C1294.44 404.186 1297.12 397.152 1295.95 388.873C1294.99 382.169 1291.22 378.029 1284.66 376.418C1278.91 375.025 1273.34 375.465 1268.1 378.469C1266.86 379.165 1266.42 379.531 1267.99 380.447C1268.69 380.85 1269.02 381.876 1269.5 382.645C1268.62 382.938 1267.7 383.451 1266.82 383.451C1265.69 383.451 1264.48 383.122 1263.41 382.645C1253.78 378.359 1241.69 389.093 1240.66 398.215C1239.64 407.447 1242.17 415.323 1248.58 421.881C1250.08 423.419 1252.2 424.262 1253.93 425.581C1254.62 426.093 1254.92 427.119 1255.39 427.889C1254.51 428.218 1253.63 428.695 1252.72 428.804C1252.06 428.878 1251.18 428.658 1250.63 428.218C1245.46 424.225 1240.77 427.266 1236.42 429.574C1231.69 432.065 1228.83 436.388 1228.03 441.81C1226.41 452.543 1233.56 460.09 1244.4 459.247C1245.72 459.138 1247.11 459.724 1248.47 459.98C1248.03 461.226 1247.55 462.471 1247.19 463.717C1246.67 465.512 1245.9 467.307 1245.83 469.139C1245.72 472.729 1247.37 474.158 1250.92 474.084C1252.2 474.084 1253.52 473.755 1254.81 473.461C1258.4 472.692 1261.95 471.886 1265.5 471.08C1267.22 470.714 1270.34 471.666 1268.25 467.856C1268.03 467.453 1269.75 465.695 1270.81 465.036C1273.53 463.35 1276.64 462.251 1279.09 460.273C1282.28 457.745 1282.1 456.866 1279.46 453.826C1278.22 452.397 1276.9 451.005 1275.76 449.503C1275.43 449.063 1275.76 448.184 1275.8 447.488C1276.46 447.524 1277.37 447.341 1277.7 447.671C1280.16 450.162 1282.83 452.543 1284.81 455.364C1286.6 457.929 1285.83 461.372 1282.9 463.57C1280.16 465.658 1276.82 466.977 1273.78 468.699C1273.31 468.955 1272.9 469.358 1272.43 469.688C1272.9 469.835 1273.42 470.201 1273.89 470.128C1275.47 469.945 1277.08 469.761 1278.65 469.395C1284.33 467.966 1289.94 466.281 1295.65 464.999C1298 464.449 1299.06 463.644 1299.28 461.043C1299.61 457.123 1300.53 453.276 1301.26 449.393C1303.16 439.465 1305.07 429.574 1307.01 419.683C1307.49 417.265 1307.82 414.737 1308.66 412.429C1316.75 390.265 1329.14 370.996 1347.93 356.305C1349.65 354.95 1351.48 353.521 1353.5 352.862C1364.93 348.942 1376.14 343.923 1388.74 345.059C1394.71 345.608 1400.76 345.388 1406.69 345.975C1409.04 346.194 1411.31 347.623 1413.51 348.685C1413.94 348.905 1414.31 350.004 1414.13 350.481C1413.94 350.957 1413.07 351.323 1412.41 351.47C1411.89 351.58 1411.27 351.286 1410.72 351.177C1406 350.444 1401.23 349.601 1396.47 349.015C1392.7 348.576 1388.89 348.392 1385.11 348.246C1383.54 348.173 1381.85 348.246 1380.35 348.649C1372.62 350.847 1364.89 353.118 1357.23 355.573C1355.18 356.232 1353.24 357.441 1351.56 358.796C1339.54 368.395 1329.25 379.605 1321.96 393.196C1316.35 403.637 1311 414.114 1309.79 426.313C1308.99 434.263 1306.79 442.066 1305.36 449.979C1304.7 453.716 1307.34 456.427 1309.39 458.844C1312.76 462.838 1316.64 466.501 1320.56 469.981C1323.71 472.765 1327.16 475.33 1330.71 477.565C1333.42 479.25 1336.5 480.385 1339.47 481.631C1341.41 482.437 1344.67 484.122 1345.29 483.463C1347.38 481.228 1348.66 478.187 1350.09 475.366C1350.6 474.377 1350.49 473.022 1351.08 472.069C1353.46 468.186 1355.88 464.34 1358.48 460.64C1360.39 457.965 1362.95 456.39 1366.43 457.452C1368.74 458.148 1369.4 457.196 1369.8 454.961C1370.64 450.052 1370.79 450.126 1365.92 450.016C1362.99 449.942 1359.95 450.235 1357.2 449.503C1349.76 447.451 1347.09 441.59 1346.72 434.483C1346.02 422.284 1346.39 410.194 1351.23 398.654C1353.68 392.83 1356.83 387.774 1362.51 384.55C1366.8 382.132 1371.05 381.986 1375.63 383.561C1378.23 384.44 1380.94 384.953 1383.61 385.613C1384.16 385.759 1384.86 385.723 1385.3 386.016C1389.4 388.543 1394.2 390.448 1397.35 393.892C1402.33 399.314 1405.23 406.274 1402.48 413.711C1400.43 419.243 1397.61 424.701 1394.24 429.537C1388.59 437.597 1387.6 440.527 1390.13 449.686C1390.32 450.345 1391.05 450.968 1391.71 451.408C1392.15 451.701 1392.84 451.628 1393.43 451.701C1404.42 452.873 1408.19 456.793 1411.31 469.065C1413.32 476.942 1413.98 485.184 1415.23 493.244C1415.3 493.793 1415.37 494.49 1415.15 494.966C1414.79 495.698 1414.13 496.285 1413.62 496.907C1413.07 496.358 1412 495.845 1412 495.295C1411.93 492.768 1410.79 492.548 1408.63 493.024C1407.28 493.317 1405.74 492.951 1404.31 492.621C1403.76 492.511 1402.99 491.669 1403.03 491.229C1403.06 490.68 1403.87 490.203 1404.35 489.727C1404.42 489.654 1404.64 489.654 1404.75 489.617C1406.65 489.141 1410.13 488.775 1410.17 488.115C1410.43 485.148 1409.84 482.107 1409.29 479.103C1409.18 478.554 1407.9 477.894 1407.13 477.821C1405.15 477.674 1403.14 477.821 1401.16 477.821C1401.23 479.689 1401.34 481.558 1401.42 483.463C1401.49 486.833 1401.67 490.203 1401.56 493.574C1401.53 494.673 1400.61 495.735 1400.13 496.834C1399.58 495.808 1398.74 494.856 1398.59 493.757C1398.34 491.888 1398.52 489.947 1398.45 488.042C1398.45 486.577 1397.83 486.247 1396.25 486.247C1389.25 486.247 1382.26 486.247 1375.33 485.734C1372.99 485.551 1370.68 484.159 1368.48 483.023C1367.09 482.327 1366.5 482.034 1366.32 483.939C1366.1 486.174 1364.56 489.104 1365.48 490.46C1366.5 491.962 1369.62 492.145 1371.85 492.768C1380.02 495.002 1388.23 497.237 1396.43 499.399C1397.83 499.765 1399.33 499.801 1400.79 499.801C1403.14 499.838 1405.52 499.545 1407.83 499.801C1409.11 499.948 1411.23 500.827 1411.31 501.56C1411.56 503.795 1409.37 503.538 1407.86 503.795C1399.25 505.15 1391.38 502.036 1383.36 499.838C1373.76 497.237 1364.01 494.966 1354.71 491.522C1344.45 487.749 1334.49 483.06 1324.67 478.224C1321.37 476.612 1318.84 473.388 1316.13 470.751C1312.25 466.977 1308.51 463.057 1304.7 459.211C1304.41 458.918 1304.04 458.735 1303.68 458.515C1303.46 458.991 1303.09 459.467 1303.09 459.943C1303.02 464.34 1302.91 468.736 1303.09 473.132C1303.13 474.341 1303.71 475.733 1304.45 476.722C1305.87 478.737 1307.34 480.898 1309.24 482.4C1318.99 490.13 1328.26 498.556 1339.58 504.014C1344.96 506.615 1350.71 508.411 1356.25 510.755C1363.24 513.722 1370.02 517.423 1377.24 519.694C1384.27 521.929 1391.74 522.918 1399.03 524.2C1402.62 524.823 1406.32 524.786 1409.91 525.336C1410.9 525.482 1411.75 526.691 1412.66 527.424C1411.56 528.23 1410.43 529.805 1409.4 529.732C1402.84 529.219 1396.32 528.266 1389.77 527.643C1376.91 526.435 1365.73 520.536 1354.3 515.298C1352.33 514.382 1350.24 513.686 1348.15 512.99C1347.23 512.697 1346.21 512.66 1345.26 512.514C1345.62 513.393 1345.88 514.345 1346.39 515.151C1350.09 520.793 1353.9 526.361 1357.53 532.003C1359.29 534.714 1360.9 537.498 1362.33 540.392C1363.87 543.506 1363.35 544.275 1359.98 544.568C1352.84 545.155 1345.66 545.667 1338.51 546.18C1334.16 546.473 1334.08 546.547 1336.28 550.32C1338.84 554.753 1341.52 559.149 1344.16 563.545C1345.26 565.413 1345.81 566.989 1344.16 569.113C1339.54 575.121 1335.25 581.386 1330.82 587.577C1329.8 589.006 1329.25 591.9 1326.94 590.691C1324.45 589.372 1326.65 587.211 1327.49 585.855C1331.15 579.884 1334.89 573.912 1338.99 568.234C1340.42 566.256 1340.9 565.01 1339.5 562.922C1337.2 559.369 1335.14 555.632 1333.02 551.932C1332.36 550.796 1331.63 549.661 1331.19 548.415C1329.8 544.422 1331 542.554 1335.22 542.297C1341.63 541.894 1348.08 541.601 1354.52 541.198C1358.59 540.942 1358.77 540.722 1356.58 537.242C1351.96 529.951 1346.87 522.918 1342.69 515.371C1340.35 511.158 1337.05 508.704 1333.28 506.139C1324.45 500.131 1315.98 493.647 1307.38 487.309C1306.31 486.54 1305.43 485.514 1304.52 484.562C1300.89 480.752 1297.96 476.649 1298.55 470.97C1298.73 469.358 1298.51 467.893 1296.2 468.516C1291.84 469.688 1287.45 470.934 1283.05 472.033C1280.49 472.692 1280.23 474.084 1281.4 476.172C1282.61 478.334 1283.56 480.678 1285.03 482.657C1286.75 485.038 1286.9 487.273 1285.03 489.434C1281.95 492.951 1278.91 496.504 1275.54 499.765C1272.5 502.696 1272.24 502.622 1276.13 504.088C1280.01 505.553 1282.87 508.154 1285.25 511.378C1287.08 513.906 1287.48 516.397 1285.32 518.961C1282.98 521.745 1280.49 524.456 1278.4 527.46C1273.12 535.007 1268.03 542.7 1262.79 550.247C1262.24 551.053 1261.14 551.456 1260.3 552.005C1259.79 551.053 1258.8 550.027 1258.87 549.148C1259.42 543.03 1259.97 536.949 1261 530.904C1261.4 528.596 1261.11 527.094 1259.49 525.482C1255.47 521.452 1251.51 517.313 1247.59 513.173C1246.09 511.561 1245.06 511.671 1243.89 513.576C1241.87 516.8 1239.64 519.877 1237.55 523.028C1235.5 526.141 1234.25 526.251 1232.06 523.284C1226.12 515.298 1220.11 507.385 1214.43 499.252C1213.08 497.31 1212.24 497.567 1210.66 498.519C1197.33 506.615 1184.83 515.664 1174.61 527.643C1169.48 533.651 1163.81 539.183 1158.68 545.191C1154.21 550.393 1150.07 555.888 1145.97 561.42C1143.69 564.534 1144.02 568.307 1145.53 571.495C1148.2 577.319 1151.02 583.144 1154.61 588.456C1172.45 614.869 1197.4 632.637 1225.68 646.302C1230.3 648.536 1234.8 650.954 1239.46 653.152C1244.62 655.607 1249.71 658.171 1255.03 660.223C1266.49 664.655 1278.03 668.978 1289.68 672.935C1296.17 675.133 1302.94 676.452 1309.57 678.283C1311.41 678.76 1313.13 679.529 1314.92 680.188C1325.8 684.218 1337.27 684.767 1348.59 685.903C1356.58 686.709 1364.64 686.746 1372.66 687.149V686.782L1373.02 686.673ZM1362.14 489.214L1362.29 489.361L1362.07 489.287C1362.55 486.577 1363.28 483.902 1363.28 481.191C1363.28 480.752 1360.02 480.532 1358.44 479.799C1353.86 477.674 1354.34 477.638 1351.78 481.814C1351.41 482.437 1351.08 483.096 1350.64 483.646C1349.32 485.221 1349.62 486.174 1351.59 486.65C1355.11 487.492 1358.63 488.335 1362.14 489.178V489.214ZM1268.65 475.22L1268.58 474.817C1265.14 475.513 1261.69 476.063 1258.29 476.978C1253.6 478.224 1252.46 482.657 1256.09 485.917C1257.63 487.309 1259.93 487.785 1261.8 488.921C1262.54 489.361 1262.9 490.386 1263.41 491.156C1262.68 491.449 1261.95 491.998 1261.18 492.035C1256.31 492.365 1251.07 488.188 1250.52 482.913C1250.19 479.689 1249.09 480.239 1247.04 481.155C1239.13 484.598 1231.14 487.895 1223.23 491.302C1221.62 491.998 1220.15 493.024 1218.61 493.867C1216.85 494.856 1216.49 495.992 1217.77 497.75C1222.38 503.978 1226.85 510.279 1231.47 516.543C1234.03 519.987 1234.29 519.95 1236.67 516.617C1237.95 514.821 1239.42 513.173 1240.63 511.378C1243.96 506.432 1246.09 506.139 1250.3 510.315C1254.44 514.455 1258.29 518.961 1262.79 522.661C1265.32 524.713 1265.8 526.728 1265.36 529.439C1264.81 533.065 1264.15 536.655 1263.52 540.282C1263.45 540.832 1263.45 541.418 1263.45 541.967C1264 541.601 1264.73 541.381 1265.06 540.868C1266.6 538.56 1267.92 536.106 1269.53 533.835C1273.01 528.962 1276.49 524.09 1280.27 519.474C1283.49 515.518 1283.89 514.199 1279.94 510.828C1277.56 508.813 1274.51 507.458 1271.62 506.212C1267.19 504.307 1266.71 502.256 1270.3 498.922C1272.76 496.614 1275.17 494.306 1277.67 492.072C1281.77 488.445 1283.27 484.635 1279.2 479.872C1278.03 478.48 1277.96 475.769 1276.6 475C1275.36 474.267 1273.09 475.366 1271.25 475.55C1270.41 475.623 1269.53 475.403 1268.65 475.33V475.22ZM1350.82 424.298C1350.82 427.595 1350.64 430.819 1350.86 434.043C1351.12 437.56 1351.92 440.894 1355.04 443.312C1359.87 447.048 1368.23 447.122 1374.01 444.044C1383.28 439.099 1389.69 431.405 1394.97 422.796C1399.62 415.213 1402.88 407.117 1396.36 398.764C1392.88 394.295 1387.86 391.841 1382.99 389.386C1380.72 388.25 1377.86 388.324 1375.48 387.335C1369.87 384.99 1365.04 386.199 1361.12 390.485C1358.99 392.83 1356.94 395.541 1355.81 398.435C1352.55 406.751 1349.47 415.176 1350.79 424.298H1350.82ZM1330.57 713.232C1334.27 713.892 1337.38 711.84 1340.68 709.789C1346.21 706.345 1348.3 700.777 1350.82 695.355C1352.58 691.581 1352.36 691.362 1348.26 690.849C1337.12 689.347 1325.73 689.493 1314.92 685.72C1312.36 684.841 1311.52 686.086 1311.26 688.431C1310.64 693.486 1312.87 697.846 1314.3 702.425C1316.09 708.213 1323.35 714.148 1330.57 713.269V713.232ZM1205.83 650.002C1205.31 656.01 1207.4 661.835 1211.21 667.11C1215.24 672.678 1223.23 676.049 1229.05 673.301C1233.37 671.25 1237.07 667.513 1240.56 664.069C1243.23 661.395 1242.94 660.955 1239.6 659.27C1230.44 654.654 1221.14 650.368 1212.13 645.532C1204.65 641.503 1205.94 643.481 1205.83 650.002ZM1388.7 484.562C1388.78 484.269 1388.81 483.976 1388.89 483.719C1390.06 483.719 1391.23 483.866 1392.37 483.719C1397.9 482.876 1398.81 481.191 1397.42 475.769C1396.95 473.938 1396.14 473.461 1394.42 473.571C1386.36 474.121 1378.37 473.791 1370.68 470.97C1368.99 470.348 1368.37 471.154 1367.9 472.656C1366.87 475.989 1367.64 478.48 1371.96 480.129C1377.31 482.18 1383.1 483.17 1388.67 484.598L1388.7 484.562ZM1389.07 471.117C1389.11 470.897 1389.14 470.677 1389.22 470.494C1389.36 470.494 1389.51 470.494 1389.66 470.494C1397.13 470.494 1397.24 470.494 1396.29 463.241C1395.96 460.859 1395.33 458.405 1394.2 456.317C1393.17 454.412 1391.45 454.741 1390.28 456.683C1385.66 464.23 1382.11 465.512 1373.1 462.911C1371.85 462.545 1370.57 461.702 1370.13 463.9C1369.84 465.439 1369.03 467.051 1371.6 467.527C1377.42 468.662 1383.25 469.908 1389.07 471.117ZM1386.76 449.613C1386.76 448.66 1386.84 448.074 1386.76 447.488C1386.43 445.363 1386.03 443.238 1385.63 441.114C1383.9 442.103 1382.29 443.275 1380.5 444.008C1375.74 445.986 1373.39 449.283 1373.94 454.522C1373.94 454.668 1373.87 454.815 1373.94 454.961C1374.31 456.536 1374.16 458.735 1375.15 459.577C1376.94 461.116 1379.29 461.152 1381.67 459.76C1385.88 457.342 1387.82 454.045 1386.8 449.576L1386.76 449.613ZM1366.32 462.764C1366.32 462.764 1366.03 461.262 1365.66 461.262C1364.6 461.152 1363.06 461.262 1362.51 461.885C1360.83 463.863 1359.51 466.171 1358.08 468.333C1356 471.483 1356.65 473.84 1360.02 475.403C1360.68 475.696 1361.34 476.282 1362 476.282C1362.58 476.282 1363.65 475.806 1363.72 475.403C1364.64 471.447 1365.4 467.417 1366.36 462.764H1366.32ZM1404.97 474.048C1408.23 474.011 1409.29 473.095 1408.38 470.384C1407.13 466.721 1405.34 463.204 1403.54 459.724C1403.06 458.771 1401.89 458.112 1400.9 457.526C1400.65 457.379 1399.44 458.112 1399.47 458.441C1399.58 460.603 1399.99 462.764 1400.06 464.926C1400.13 466.977 1400.68 468.296 1403.14 468.003C1403.69 467.93 1404.71 468.443 1404.82 468.882C1404.93 469.395 1404.42 470.164 1404.02 470.677C1403.69 471.117 1403.06 471.337 1402.66 471.74C1402.26 472.106 1402 472.619 1401.67 473.059C1402.19 473.352 1402.62 473.718 1403.17 473.864C1403.87 474.048 1404.6 474.011 1405.04 474.048H1404.97Z" fill="#3A352F"/>
<path d="M1067.64 634.283C1068.41 636.335 1069.22 638.35 1069.91 640.438C1071.12 644.064 1070.39 648.754 1068.56 649.926C1066.43 651.281 1061.74 650.256 1058.96 647.398C1056.72 645.09 1054.78 642.526 1052.91 639.888C1045 628.751 1041.63 615.673 1037.67 602.888C1035.81 596.88 1034.27 590.762 1032.36 584.79C1030.9 580.138 1030.13 579.881 1025.44 580.761C1020.16 581.75 1014.85 582.629 1009.54 583.508C1007.34 583.874 1005.69 582.812 1004.89 580.944C1003.57 577.866 1001.85 574.716 1001.66 571.492C1001.08 562.59 1001.77 553.615 1000.89 544.749C1000.23 537.972 1003.49 532.916 1006.06 527.458C1009.61 519.875 1013.68 512.621 1019.25 506.32C1020.13 505.331 1020.97 503.829 1022.03 503.609C1025.91 502.803 1025.88 499.872 1025.7 497.198C1025.33 492.252 1024.49 487.343 1023.94 482.398C1022.54 470.345 1025.11 459.282 1033.53 450.27C1044.85 438.144 1065 444.555 1070.57 456.681C1077.86 472.543 1076.29 488.003 1071.08 503.646C1070.06 506.723 1070.13 508.994 1071.67 511.815C1075.19 518.226 1075.59 525.296 1075.74 532.55C1075.96 543.284 1071.34 552.442 1067.64 561.931C1066.62 564.532 1066.1 566.73 1067.42 569.367C1070.5 575.632 1070.76 582.079 1069.47 589.003C1068.81 592.52 1070.43 596.44 1071.16 600.177C1072.51 607.064 1074.05 613.878 1075.41 620.765C1075.85 622.963 1076.8 624.172 1078.92 625.161C1083.47 627.286 1087.17 630.363 1087.2 636.042C1087.2 641.244 1084.05 643.881 1079.18 641.757C1075 639.961 1071.38 636.774 1067.53 634.247L1067.38 634.173L1067.57 634.283H1067.64ZM1063.14 532.257C1065.22 532.623 1066.07 533.576 1065.55 535.884C1064.93 538.778 1067.49 542.002 1070.35 542.331C1070.68 542.368 1071.38 541.818 1071.45 541.452C1071.85 539.034 1072.55 536.543 1072.22 534.162C1072.11 533.356 1069.33 532.953 1067.82 532.257C1066.91 531.817 1066.14 531.121 1065.26 530.645C1063.46 529.729 1063.43 531.158 1063.17 532.294C1062.84 532.587 1062.55 532.916 1062.22 533.209C1056.21 538.192 1046.65 536.397 1043.1 529.546C1042.14 527.751 1041.56 525.773 1040.9 523.831C1039.91 520.864 1037.6 520.058 1035.77 522.512C1034.71 523.978 1033.79 524.197 1032.29 524.381C1026.17 525.223 1024.05 527.971 1024.34 534.308C1024.34 534.858 1024.01 535.407 1023.9 535.957C1023.24 539.987 1024.34 541.159 1028.59 540.829C1028.88 540.829 1029.29 540.646 1029.43 540.756C1034.01 544.713 1032.73 539.767 1033.57 538.045C1033.94 537.239 1034.16 536.397 1034.63 535.664C1036.36 532.99 1040.97 531.707 1043.1 533.502C1045.66 535.664 1047.97 538.082 1050.31 540.5C1052.25 542.478 1054.09 544.566 1055.92 546.654C1057.13 548.046 1057.79 547.643 1058.23 546.141C1059.55 541.818 1060.83 537.496 1062.15 533.173C1062.48 532.88 1062.77 532.55 1063.1 532.257H1063.14ZM1013.02 522.585C1014.05 523.685 1015.18 524.71 1016.06 525.919C1016.65 526.725 1016.76 527.861 1017.27 528.703C1018.08 530.022 1019.21 530.938 1019.83 528.593C1021.08 524.087 1024.41 522.036 1028.52 520.754C1028.88 520.644 1029.14 520.131 1029.43 519.838C1029.03 519.691 1028.55 519.288 1028.3 519.435C1025.62 520.681 1023.86 518.959 1021.96 517.64C1020.53 516.651 1018.59 514.636 1017.64 515.002C1016.13 515.588 1015.18 517.75 1014.19 519.362C1013.61 520.314 1013.42 521.523 1013.06 522.622L1013.02 522.585ZM1044.74 572.811C1042.55 573.141 1041.56 571.785 1040.86 570.063C1040.09 568.158 1039.36 566.253 1038.44 564.422C1038.04 563.616 1037.16 563.066 1036.5 562.37C1036.32 563.176 1035.99 563.982 1035.95 564.788C1035.84 567.865 1035.95 570.943 1035.73 573.983C1035.66 574.972 1034.85 575.925 1034.38 576.877C1033.53 576.035 1032.07 575.229 1031.96 574.276C1031.7 571.529 1031.81 568.745 1032.14 565.997C1032.95 558.707 1033.02 558.707 1025.62 559.989C1020.46 560.868 1020.42 560.868 1020.24 565.96C1020.16 568.012 1020.16 570.063 1020.16 572.078C1020.2 577.17 1020.75 577.866 1025.77 576.658C1029.91 575.632 1032.66 576.767 1034.41 580.394C1035.4 582.409 1036.87 582.556 1038.77 582.226C1044.38 581.273 1044.42 581.31 1044.6 575.339C1044.6 574.46 1044.6 573.58 1044.64 572.701C1044.74 572.628 1044.89 572.555 1044.96 572.445C1045.04 572.371 1045 572.225 1045.04 572.115C1044.93 572.335 1044.82 572.518 1044.71 572.738L1044.74 572.811ZM1071.93 476.5C1071.93 469.209 1069.77 462.249 1066.03 456.168C1060.64 447.339 1047.86 443.932 1038.63 451.772C1033.83 455.838 1030.9 461.296 1029.29 467.341C1028.74 469.429 1029.18 471.884 1028.3 473.789C1026.9 476.829 1027.2 479.723 1027.82 482.764C1028.59 486.574 1029.32 490.421 1030.16 494.231C1032.33 504.049 1036.83 512.768 1044.38 519.252C1051.3 525.187 1055.48 525.296 1060.09 517.42C1067.46 504.891 1071.19 491.08 1071.89 476.463L1071.93 476.5ZM1004.08 548.522C1004.45 550.208 1004.3 552.332 1005.14 552.845C1007.85 554.494 1010.86 555.666 1013.83 556.765C1019.54 558.817 1025.07 556.252 1030.68 555.666C1037.13 554.97 1039.25 555.739 1042.11 561.638C1043.17 563.872 1044.05 566.217 1045.04 568.488C1045.7 569.99 1046.61 569.697 1047.13 568.488C1047.49 567.572 1047.82 566.107 1047.35 565.447C1043.9 560.392 1040.46 555.3 1036.58 550.574C1033.68 547.02 1029.43 545.592 1024.82 545.628C1018.62 545.702 1012.87 544.603 1008.26 540.06C1007.23 539.071 1006.32 538.705 1005.88 540.61C1005.29 543.32 1004.67 545.995 1004.08 548.522ZM1071.89 621.351C1071.74 620.289 1071.71 619.703 1071.6 619.153C1070.02 610.984 1068.48 602.814 1066.87 594.682C1065.7 588.747 1064.75 588.234 1058.89 590.395C1058.19 590.652 1057.53 591.055 1056.8 591.091C1053.9 591.311 1053.72 592.703 1054.45 595.194C1056.83 603.144 1055.04 603.217 1063.17 599.847C1064.05 599.481 1065.26 599.847 1066.29 599.847C1065.77 600.946 1065.55 602.485 1064.67 603.034C1063.1 604.023 1061.19 604.426 1059.4 605.049C1058.08 605.489 1056.94 605.892 1057.42 607.76C1058.85 613.695 1060.17 619.666 1061.63 625.601C1061.74 626.077 1062.95 626.737 1063.39 626.59C1065.99 625.601 1068.52 624.465 1070.98 623.183C1071.52 622.89 1071.67 621.791 1071.85 621.388L1071.89 621.351ZM1036.5 543.723C1036.76 544.163 1037.09 545.335 1037.86 545.995C1043.17 550.354 1046.5 556.216 1050.09 561.857C1052.78 566.082 1055.95 566.498 1059.62 563.103C1061.3 561.528 1061.19 560.099 1060.06 558.56C1057.93 555.666 1055.59 552.955 1053.54 550.024C1051.85 547.643 1050.35 547.497 1048.26 549.475C1047.57 550.134 1046.28 550.134 1045.26 550.464C1045.48 549.328 1045.33 547.753 1046.03 547.094C1048.44 544.859 1047.79 543.174 1045.66 541.415C1044.42 540.39 1043.32 539.217 1041.96 538.338C1039.18 536.543 1037.78 537.129 1036.98 540.353C1036.76 541.196 1036.72 542.075 1036.5 543.723ZM1016.35 569.88C1016.5 566.913 1016.76 564.861 1016.68 562.846C1016.68 562.077 1016.06 560.941 1015.44 560.685C1012.4 559.476 1009.28 558.414 1006.13 557.461C1005.69 557.315 1004.56 557.974 1004.59 558.194C1005.03 563.836 1005.03 569.551 1006.28 575.046C1007.52 580.724 1009.14 581.09 1014.81 579.295C1016.35 578.782 1017.23 578.416 1016.79 576.364C1016.28 573.983 1016.46 571.455 1016.39 569.88H1016.35ZM1048.41 606.331C1048.12 606.331 1047.82 606.331 1047.53 606.331C1042.62 606.148 1042.55 606.185 1044.12 611.02C1045.81 616.149 1047.64 621.241 1049.29 626.407C1050.42 630.034 1051.56 630.656 1055.41 629.85C1058.92 629.118 1058.26 626.663 1057.79 624.429C1056.87 619.996 1055.74 615.636 1054.64 611.24C1053.85 608.09 1051.77 606.453 1048.37 606.331H1048.41ZM1042.91 602.961C1046.1 602.778 1048.3 602.595 1050.46 602.521C1052.04 602.485 1052.51 601.752 1052.15 600.287C1051.3 597.026 1050.72 593.692 1049.54 590.579C1048.01 586.366 1043.1 584.351 1038.85 585.633C1037.38 586.073 1037.05 586.695 1037.49 588.124C1038.81 592.447 1039.91 596.843 1041.26 601.129C1041.56 602.045 1042.62 602.704 1042.88 602.961H1042.91ZM1021.78 540.28C1020.27 538.008 1019.1 536.03 1017.75 534.199C1016.46 532.477 1014.89 530.938 1013.64 529.18C1012.84 528.044 1012.43 526.615 1011.85 525.333C1010.97 526.652 1010.02 527.934 1009.25 529.326C1008.62 530.462 1008.11 531.707 1007.74 532.953C1007.56 533.576 1007.45 534.711 1007.78 534.931C1011.44 537.276 1015.11 539.547 1018.92 541.635C1019.39 541.892 1020.53 540.939 1021.78 540.353V540.28ZM1066.95 580.761C1066.95 580.761 1067.24 580.577 1067.42 580.468C1066.21 576.767 1065.08 573.031 1063.68 569.404C1063.17 568.049 1062.7 566.107 1060.31 567.206C1057.46 568.525 1056.5 570.283 1057.64 572.518C1059.25 575.632 1060.79 578.782 1062.62 581.786C1063.47 583.142 1064.89 584.131 1066.07 585.303C1066.36 583.801 1066.69 582.263 1066.98 580.761H1066.95ZM1084.79 636.957C1083.61 635.016 1083.06 633.587 1082.08 632.598C1080.43 630.986 1078.3 629.814 1076.69 628.202C1074.16 625.637 1071.85 627.323 1069.55 628.312C1069.22 628.458 1069 630.107 1069.29 630.29C1073.14 633.074 1076.98 635.858 1081.05 638.35C1081.67 638.716 1083.25 637.58 1084.79 636.957ZM1067.2 643.405C1065.37 640.108 1063.9 636.335 1061.34 633.587C1060.35 632.525 1056.87 633.807 1054.53 634.1C1054.53 634.1 1054.38 635.272 1054.67 635.602C1057.38 639.009 1060.06 642.416 1062.95 645.64C1063.5 646.263 1064.93 646.629 1065.66 646.372C1066.29 646.153 1066.54 644.834 1067.24 643.368L1067.2 643.405ZM1073.06 526.798C1071.82 522.805 1070.65 518.776 1069.29 514.819C1069.14 514.343 1068.15 514.16 1067.53 513.83C1066.21 516.541 1063.72 519.362 1063.94 521.963C1064.16 524.71 1066.4 527.641 1069.73 528.887C1071.85 529.656 1072.77 529.18 1073.06 526.762V526.798ZM1060.97 551.673C1061.6 552.955 1062.51 554.86 1063.43 556.765C1064.31 558.56 1065.22 558.56 1065.92 556.692C1067.17 553.431 1068.34 550.134 1069.44 546.801C1069.58 546.324 1069.33 545.335 1068.96 545.116C1064.09 542.441 1062.92 543.027 1061.63 548.669C1061.49 549.365 1061.3 550.098 1060.97 551.673ZM1053.54 532.33C1057.13 532.513 1060.02 530.242 1060.64 526.652C1060.72 526.322 1059.69 525.443 1059.55 525.516C1055.11 527.788 1050.83 526.908 1046.54 525.113C1046.36 525.04 1045.4 525.919 1045.44 526.212C1046.28 529.766 1049.54 532.147 1053.54 532.33ZM1048.15 578.086C1048.59 579.259 1049.21 580.98 1049.8 582.702C1050.72 581.53 1051.67 580.394 1052.55 579.185C1053.13 578.379 1053.83 577.537 1054.12 576.584C1054.42 575.632 1054.67 574.166 1054.2 573.544C1053.35 572.518 1051.96 571.858 1050.64 571.419C1050.42 571.346 1049.43 573.031 1049.03 573.983C1048.63 575.046 1048.52 576.255 1048.15 578.086ZM1028.77 511.449C1028.99 514.489 1032.99 518.373 1035.84 517.97C1036.14 517.933 1036.61 516.651 1036.43 516.284C1035.26 514.306 1033.9 512.438 1032.62 510.496C1031.7 509.141 1030.82 507.785 1029.91 506.43C1029.54 508.078 1029.14 509.764 1028.77 511.412V511.449ZM1053.39 589.113C1055.33 588.197 1057.02 587.611 1058.48 586.695C1059.11 586.292 1059.87 585.083 1059.69 584.534C1059.18 583.069 1058.23 581.75 1057.38 580.394C1057.38 580.394 1056.54 580.651 1056.36 580.944C1055.15 583.105 1053.98 585.267 1052.91 587.501C1052.73 587.868 1053.21 588.564 1053.39 589.077V589.113ZM1025.37 509.031C1025.26 508.628 1025 507.565 1024.74 506.503C1023.86 507.162 1022.98 507.822 1022.18 508.518C1021.85 508.811 1021.52 509.177 1021.41 509.544C1021.15 510.386 1020.57 511.705 1020.93 512.108C1021.74 513.024 1023.06 513.537 1024.16 514.196C1024.52 513.28 1024.93 512.401 1025.18 511.485C1025.33 510.936 1025.29 510.313 1025.37 509.031Z" fill="#3A352F"/>
<path d="M1380.1 673.56C1372.51 673.084 1365.37 672.681 1358.22 672.168C1348.88 671.508 1339.54 671.032 1330.24 669.933C1314.67 668.102 1299.32 665.281 1284.33 660.482C1270.08 655.939 1255.83 651.396 1243.08 643.447C1229.2 634.764 1215.86 625.166 1202.05 616.374C1181.79 603.442 1168.46 584.502 1156.52 564.39C1155.05 561.936 1154.5 558.932 1153.77 556.111C1153.59 555.378 1154.32 554.426 1154.61 553.546C1155.38 554.096 1156.48 554.536 1156.85 555.268C1157.84 557.54 1158.09 560.214 1159.45 562.229C1165.2 570.874 1171.06 579.447 1177.14 587.836C1179.89 591.609 1183.04 595.126 1186.26 598.497C1196.56 609.34 1209.67 616.447 1221.58 625.166C1231.21 627.584 1240.85 630.039 1250.48 632.347C1252.79 632.896 1252.86 631.614 1252.06 629.855C1249.16 623.628 1246.27 617.4 1243.52 611.099C1242.9 609.707 1242.09 607.692 1242.64 606.776C1243.27 605.823 1245.43 605.457 1246.89 605.53C1248.91 605.604 1250.92 606.19 1252.9 606.703C1259.72 608.461 1266.49 610.256 1273.27 612.124C1274.08 612.344 1274.74 613.114 1275.43 613.626C1274.7 614.249 1274.04 615.312 1273.23 615.422C1271.99 615.605 1270.63 615.312 1269.35 615.019C1263.53 613.517 1257.74 611.941 1251.95 610.439C1250.85 610.146 1249.68 610.146 1248.54 610C1248.8 611.062 1248.95 612.124 1249.35 613.114C1251.77 618.938 1254.26 624.69 1256.67 630.515C1258.58 635.094 1257.66 636.596 1252.68 636.047C1247.33 635.46 1242.06 634.178 1236.75 633.226C1236.16 633.116 1235.5 633.226 1234.88 633.189C1235.32 633.592 1235.68 633.995 1236.16 634.361C1245.61 641.468 1256.09 646.78 1267.15 650.664C1278.88 654.767 1290.74 658.577 1302.8 661.397C1313.86 663.962 1325.25 665.354 1336.57 666.709C1347.01 667.955 1357.57 668.871 1368.08 669.164C1377.42 669.42 1386.76 668.761 1396.1 668.321C1401.2 668.065 1406.33 667.552 1411.38 667.003C1413.03 666.819 1414.64 666.197 1416.14 665.5C1417.98 664.621 1419.59 665.061 1420.06 666.709C1420.36 667.662 1419.33 669.42 1418.38 670.153C1417.46 670.886 1415.89 670.922 1414.6 671.032C1402.96 671.911 1391.31 672.754 1380.02 673.597L1380.1 673.56Z" fill="#3A352F"/>
<path d="M1256.38 404.993C1256.42 397.886 1260.04 392.904 1265.8 392.318C1266.78 392.208 1267.81 392.83 1268.84 393.123C1268.14 393.893 1267.59 395.028 1266.75 395.395C1259.46 398.619 1257.99 405.103 1263.38 411.001C1264.07 411.734 1265.03 412.283 1265.58 413.089C1266.24 414.005 1266.64 415.141 1267.15 416.203C1265.83 416.386 1264.33 417.046 1263.19 416.679C1260.04 415.69 1255.43 409.792 1256.42 404.993H1256.38Z" fill="#3A352F"/>
<path d="M1266.2 446.386C1266.2 450.562 1263.01 454.518 1258.95 455.105C1257.96 455.251 1256.86 454.665 1255.8 454.408C1256.27 453.493 1256.64 452.467 1257.34 451.698C1257.88 451.075 1258.87 450.818 1259.53 450.269C1262.83 447.485 1262.57 444.004 1258.91 441.66C1258.43 441.33 1257.74 441.22 1257.41 440.817C1256.75 439.975 1256.31 438.985 1255.76 438.07C1256.79 437.923 1257.88 437.41 1258.8 437.667C1263.42 439.022 1266.24 442.466 1266.24 446.386H1266.2Z" fill="#3A352F"/>
<path d="M1390.61 414.555C1390.24 417.156 1389.95 419.757 1389.44 422.285C1389 424.519 1388.63 427.267 1385.63 427.413C1382.7 427.56 1380.75 425.472 1379.58 423.09C1377.46 418.841 1381.05 410.305 1385.48 408.473C1388.04 407.411 1390.13 408.657 1390.43 411.441C1390.54 412.467 1390.43 413.492 1390.43 414.481C1390.46 414.481 1390.54 414.481 1390.57 414.481L1390.61 414.555Z" fill="#3A352F"/>
<path d="M1353.68 413.345C1354.6 410.451 1355.37 407.484 1356.54 404.7C1357.42 402.612 1359.36 401.659 1361.6 402.282C1363.87 402.905 1364.12 404.883 1363.94 406.898C1363.68 409.499 1363.43 412.137 1362.95 414.701C1362.33 417.998 1360.64 419.317 1357.93 418.877C1355.11 418.438 1354.05 416.972 1353.68 413.345Z" fill="#3A352F"/>
<path d="M1370.75 437.082C1368.99 437.998 1367.78 439.134 1367.09 438.877C1364.12 437.815 1361.23 436.459 1358.48 434.957C1357.67 434.518 1357.38 433.199 1356.83 432.32C1357.93 432.137 1359.18 431.55 1360.16 431.807C1362.55 432.43 1364.85 433.309 1367.09 434.335C1368.19 434.811 1369.03 435.763 1370.79 437.119L1370.75 437.082Z" fill="#3A352F"/>
<path d="M1369.58 420.195C1368.33 421.514 1367.45 422.429 1366.57 423.382C1366.02 422.832 1364.93 422.1 1365.07 421.77C1365.51 420.524 1366.32 419.425 1366.98 418.29C1367.67 418.803 1368.41 419.316 1369.61 420.195H1369.58Z" fill="#3A352F"/>
<path d="M1056.73 479.285C1056.91 476.538 1056.8 474.742 1057.17 473.057C1057.68 470.566 1058.49 468.148 1061.71 468.002C1064.75 467.892 1068.38 470.09 1068.78 472.837C1069.48 477.49 1069.22 482.179 1066.77 486.429C1065.52 488.627 1063.47 489.213 1061.16 489.03C1058.89 488.847 1057.9 487.271 1057.57 485.22C1057.2 482.949 1056.91 480.641 1056.73 479.285Z" fill="#3A352F"/>
<path d="M1043.98 484.744C1043.98 485.916 1043.98 487.088 1043.98 488.224C1043.94 490.275 1044.16 492.51 1041.45 493.096C1039 493.609 1036.47 493.169 1035.33 490.862C1034.23 488.59 1033.25 485.879 1033.43 483.461C1033.65 480.238 1034.6 476.867 1036.1 474.01C1037.68 471.079 1039.33 471.336 1041.45 473.937C1044.09 477.124 1044.13 480.897 1043.98 484.744Z" fill="#3A352F"/>
<path d="M1051.56 511.595C1050.21 510.826 1048.85 510.093 1047.49 509.324C1048.96 508.665 1050.39 507.969 1051.85 507.382C1052.51 507.126 1053.36 506.906 1054.02 507.089C1055.11 507.382 1056.14 508.042 1057.17 508.518C1056.29 509.324 1055.48 510.313 1054.46 510.863C1053.76 511.229 1052.73 511.009 1051.85 511.046C1051.74 511.229 1051.67 511.376 1051.56 511.559V511.595Z" fill="#3A352F"/>
<path d="M1055.73 493.574C1054.52 494.892 1053.68 495.808 1052.84 496.724C1052.22 495.698 1051.04 494.673 1051.08 493.684C1051.15 491.998 1050.2 489.361 1052.84 489.068C1053.57 488.994 1054.6 491.705 1055.73 493.537V493.574Z" fill="#3A352F"/>
</g>
<defs>
<clipPath id="clip0_10_241">
<rect width="1411" height="945" fill="white"/>
</clipPath>
</defs>
</svg>
